<svg width="14" height="14" viewBox="0 0 14 14" fill="none" xmlns="http://www.w3.org/2000/svg">
<path d="M7.00602 10.3723C5.11158 10.3723 3.57031 8.83103 3.57031 6.93571C3.57031 5.04039 5.11158 3.5 7.00602 3.5C8.90046 3.5 10.4426 5.04127 10.4426 6.93571C10.4426 8.83015 8.90134 10.3723 7.00602 10.3723ZM7.00602 4.55687C5.69374 4.55687 4.62718 5.62431 4.62718 6.93571C4.62718 8.24711 5.69462 9.31543 7.00602 9.31543C8.31742 9.31543 9.38574 8.24799 9.38574 6.93571C9.38574 5.62343 8.3183 4.55687 7.00602 4.55687Z" fill="#858585"/>
<path d="M7.005 13.8373C6.71348 13.8373 6.47656 13.6003 6.47656 13.3088V11.6495C6.47656 11.358 6.71348 11.1211 7.005 11.1211C7.29652 11.1211 7.53343 11.358 7.53343 11.6495V13.3088C7.53343 13.6003 7.29652 13.8373 7.005 13.8373Z" fill="#858585"/>
<path d="M11.4824 11.9678C11.3467 11.9678 11.212 11.9159 11.1089 11.8128L9.93582 10.6397C9.72973 10.4336 9.72973 10.0989 9.93582 9.89285C10.1419 9.68676 10.4766 9.68676 10.6836 9.89285L11.8567 11.066C12.0628 11.2721 12.0628 11.6067 11.8567 11.8128C11.7536 11.9159 11.618 11.9678 11.4833 11.9678H11.4824Z" fill="#858585"/>
<path d="M2.55924 11.9804C2.42361 11.9804 2.28886 11.9285 2.18582 11.8254C1.97973 11.6193 1.97973 11.2847 2.18582 11.0777L3.35894 9.90457C3.56503 9.69848 3.89971 9.69848 4.10668 9.90457C4.31277 10.1107 4.31277 10.4453 4.10668 10.6523L2.93355 11.8254C2.83051 11.9285 2.69488 11.9804 2.56013 11.9804H2.55924Z" fill="#858585"/>
<path d="M7.005 2.82749C6.71348 2.82749 6.47656 2.59057 6.47656 2.29905V0.639763C6.47656 0.348243 6.71348 0.111328 7.005 0.111328C7.29652 0.111328 7.53343 0.348243 7.53343 0.639763V2.29905C7.53343 2.59057 7.29652 2.82749 7.005 2.82749Z" fill="#858585"/>
<path d="M3.6855 4.21002C3.54986 4.21002 3.41511 4.15806 3.31207 4.05502L2.13894 2.88189C1.93285 2.6758 1.93285 2.34113 2.13894 2.13504C2.34503 1.92895 2.67971 1.92895 2.88668 2.13504L4.0598 3.30816C4.26589 3.51425 4.26589 3.84893 4.0598 4.05502C3.95676 4.15806 3.82113 4.21002 3.68638 4.21002H3.6855Z" fill="#858585"/>
<path d="M10.3288 4.27448C10.1931 4.27448 10.0584 4.22252 9.95535 4.11947C9.74926 3.91338 9.74926 3.57871 9.95535 3.37262L11.1285 2.19949C11.3346 1.9934 11.6692 1.9934 11.8762 2.19949C12.0823 2.40558 12.0823 2.74025 11.8762 2.94634L10.7031 4.11947C10.6 4.22252 10.4644 4.27448 10.3297 4.27448H10.3288Z" fill="#858585"/>
<path d="M2.35569 7.48656H0.696404C0.404884 7.48656 0.167969 7.24964 0.167969 6.95812C0.167969 6.6666 0.404884 6.42969 0.696404 6.42969H2.35569C2.64721 6.42969 2.88413 6.6666 2.88413 6.95812C2.88413 7.24964 2.64721 7.48656 2.35569 7.48656Z" fill="#858585"/>
<path d="M13.2893 7.48656H11.63C11.3385 7.48656 11.1016 7.24964 11.1016 6.95812C11.1016 6.6666 11.3385 6.42969 11.63 6.42969H13.2893C13.5808 6.42969 13.8177 6.6666 13.8177 6.95812C13.8177 7.24964 13.5808 7.48656 13.2893 7.48656Z" fill="#858585"/>
</svg>
