<svg width="15" height="16" viewBox="0 0 15 16" fill="none" xmlns="http://www.w3.org/2000/svg">
<path d="M13.9795 11.9463L10.463 7.0719C10.8574 6.42812 11.7638 4.96497 12.0072 4.53021C12.729 3.21756 12.5695 1.57047 12.4353 1.15243C12.259 0.608975 11.6799 0.291263 11.126 0.425037C10.7651 0.508645 9.24603 1.17751 8.32283 2.84968C8.11301 3.22592 7.29053 4.59709 7.00517 5.14055L1.31492 4.91481C1.07993 4.93989 0.878502 5.07366 0.769397 5.27432L0.28262 6.15221C0.181908 6.34451 0.165122 6.57025 0.249049 6.76255C0.332976 6.96321 0.50083 7.11371 0.710648 7.16387L5.4777 8.45144C5.1336 9.15375 4.85664 9.73065 4.6804 10.0818C4.59647 10.2574 4.54611 10.4413 4.52094 10.6253L2.52347 11.3694C2.36401 11.4279 2.22973 11.5449 2.15419 11.6871L1.85206 12.2389C1.74295 12.4396 1.73456 12.6653 1.82688 12.8743C1.9192 13.075 2.10384 13.2255 2.32205 13.2673L4.50415 13.7355L6.1743 15.3826C6.30858 15.5163 6.48483 15.5832 6.66947 15.5832C6.70304 15.5832 6.73661 15.5832 6.77018 15.5749C6.98839 15.5414 7.18142 15.416 7.29053 15.2154L7.59266 14.6719C7.68498 14.5047 7.70177 14.304 7.65141 14.1201L7.03035 12.1469C7.28213 11.963 7.51713 11.7205 7.65141 11.5031C7.88641 11.1436 8.18855 10.6587 8.54104 10.1152L12.4185 13.5515C12.5528 13.6686 12.7122 13.7271 12.8885 13.7271C12.9304 13.7271 12.9724 13.7271 13.006 13.7188C13.2158 13.6853 13.4004 13.5515 13.5095 13.3676L13.9459 12.5817C14.0802 12.3978 14.0802 12.1553 13.9795 11.9463ZM12.8801 12.8409L8.38158 8.86112C8.22212 9.11195 8.07105 9.34605 7.92837 9.58015C7.5507 10.1738 7.21499 10.7005 6.96321 11.0851C6.90446 11.1771 6.80375 11.2858 6.69464 11.3861C6.57715 11.4864 6.45126 11.5868 6.34215 11.6453C6.32537 11.6536 6.30019 11.662 6.2834 11.6787C6.14912 11.7372 6.30019 12.5901 6.30019 12.5901L6.85411 14.3542L6.66947 14.697L5.09164 13.1419C4.99932 13.0499 4.87343 12.983 4.74754 12.9579L2.69972 12.5148L2.89275 12.1637L4.52094 11.5533L4.98253 11.3861C4.98253 11.3861 5.35181 11.2105 5.36021 11.1185C5.36021 10.9597 5.3686 10.8008 5.40217 10.6671C5.41895 10.6002 5.43574 10.5416 5.46931 10.4831C5.67074 10.0734 6.02323 9.34605 6.44286 8.48488L6.33376 8.70226C6.45126 8.4598 6.57715 8.20061 6.71143 7.94143L1.1051 6.40304L1.47438 5.73417L7.55909 5.92647C7.71016 5.61712 8.43193 4.4466 8.583 4.16233C8.76764 3.81954 8.9271 3.50182 9.06978 3.251C9.83352 1.85474 11.1176 1.2862 11.3358 1.23604C11.3526 1.22768 11.3778 1.22768 11.3946 1.22768C11.5037 1.22768 11.6128 1.29456 11.6463 1.41162C11.6967 1.56211 11.8981 3.00017 11.2855 4.12053C11.0337 4.58037 10.0937 6.08532 9.66566 6.77927L10.5973 5.31613C10.4378 5.58367 9.69084 6.74583 9.51459 7.0301L13.2074 12.2473L12.8801 12.8409Z" fill="#858585"/>
</svg>
