<svg width="16" height="16" viewBox="0 0 16 16" fill="none" xmlns="http://www.w3.org/2000/svg">
<g clip-path="url(#clip0_2_34993)">
<path d="M10.0682 11.7324C9.73731 11.7324 9.46875 11.4639 9.46875 11.133V5.74985C9.46875 5.41895 9.73731 5.15039 10.0682 5.15039C10.3991 5.15039 10.6677 5.41895 10.6677 5.74985V11.133C10.6677 11.4639 10.3991 11.7324 10.0682 11.7324Z" fill="#858585"/>
<path d="M6.24887 11.668C5.91797 11.668 5.64941 11.3994 5.64941 11.0685V5.68539C5.64941 5.35449 5.91797 5.08594 6.24887 5.08594C6.57977 5.08594 6.84832 5.35449 6.84832 5.68539V11.0685C6.84832 11.3994 6.57977 11.668 6.24887 11.668Z" fill="#858585"/>
<path d="M12.1983 14.1824H4.13566C3.32519 14.1824 2.66699 13.523 2.66699 12.7137V3.99406C2.66699 3.18479 3.32639 2.52539 4.13566 2.52539H12.1983C13.0088 2.52539 13.667 3.18479 13.667 3.99406V12.7137C13.667 13.523 13.0076 14.1824 12.1983 14.1824ZM4.13566 3.7243C3.98699 3.7243 3.8659 3.84539 3.8659 3.99406V12.7137C3.8659 12.8624 3.98699 12.9835 4.13566 12.9835H12.1983C12.347 12.9835 12.4681 12.8624 12.4681 12.7137V3.99406C12.4681 3.84539 12.347 3.7243 12.1983 3.7243H4.13566Z" fill="#858585"/>
<path d="M9.47543 3.65062C9.14453 3.65062 8.87598 3.38207 8.87598 3.05117V0.636564C8.87598 0.305665 9.14453 0.0371094 9.47543 0.0371094C9.80633 0.0371094 10.0749 0.305665 10.0749 0.636564V3.05117C10.0749 3.38207 9.80633 3.65062 9.47543 3.65062Z" fill="#858585"/>
<path d="M6.80551 3.65062C6.47461 3.65062 6.20605 3.38207 6.20605 3.05117V0.636564C6.20605 0.305665 6.47461 0.0371094 6.80551 0.0371094C7.13641 0.0371094 7.40496 0.305665 7.40496 0.636564V3.05117C7.40496 3.38207 7.13641 3.65062 6.80551 3.65062Z" fill="#858585"/>
<path d="M10.5065 1.21063H5.75278C5.42188 1.21063 5.15332 0.942073 5.15332 0.611174C5.15332 0.280275 5.42188 0.0117188 5.75278 0.0117188H10.5065C10.8374 0.0117188 11.1059 0.280275 11.1059 0.611174C11.1059 0.942073 10.8374 1.21063 10.5065 1.21063Z" fill="#858585"/>
<path d="M11.5303 15.8263C10.9033 15.8263 10.3926 15.3156 10.3926 14.6885C10.3926 14.0615 10.9033 13.5508 11.5303 13.5508C12.1574 13.5508 12.6681 14.0615 12.6681 14.6885C12.6681 15.3156 12.1574 15.8263 11.5303 15.8263ZM11.5303 14.5099C11.4332 14.5099 11.3517 14.5914 11.3517 14.6885C11.3517 14.7857 11.4332 14.8672 11.5303 14.8672C11.6275 14.8672 11.709 14.7857 11.709 14.6885C11.709 14.5914 11.6275 14.5099 11.5303 14.5099Z" fill="#858585"/>
<path d="M4.7862 15.838C4.15917 15.838 3.64844 15.3273 3.64844 14.7003C3.64844 14.0732 4.15917 13.5625 4.7862 13.5625C5.41323 13.5625 5.92397 14.0732 5.92397 14.7003C5.92397 15.3273 5.41323 15.838 4.7862 15.838ZM4.7862 14.5216C4.68909 14.5216 4.60757 14.6032 4.60757 14.7003C4.60757 14.7974 4.68909 14.8789 4.7862 14.8789C4.88331 14.8789 4.96484 14.7974 4.96484 14.7003C4.96484 14.6032 4.88331 14.5216 4.7862 14.5216Z" fill="#858585"/>
</g>
<defs>
<clipPath id="clip0_2_34993">
<rect width="11" height="15.8504" fill="white" transform="translate(2.66699)"/>
</clipPath>
</defs>
</svg>
