<svg width="24" height="24" viewBox="0 0 24 24" fill="none" xmlns="http://www.w3.org/2000/svg">
<circle cx="12" cy="12" r="12" fill="#EDF7FF"/>
<g clip-path="url(#clip0_710_52392)">
<path d="M14.0658 15.7324C13.7349 15.7324 13.4663 15.4639 13.4663 15.133V9.74985C13.4663 9.41895 13.7349 9.15039 14.0658 9.15039C14.3967 9.15039 14.6652 9.41895 14.6652 9.74985V15.133C14.6652 15.4639 14.3967 15.7324 14.0658 15.7324Z" fill="#1E54B0"/>
<path d="M10.2474 15.668C9.91651 15.668 9.64795 15.3994 9.64795 15.0685V9.68539C9.64795 9.35449 9.91651 9.08594 10.2474 9.08594C10.5783 9.08594 10.8469 9.35449 10.8469 9.68539V15.0685C10.8469 15.3994 10.5783 15.668 10.2474 15.668Z" fill="#1E54B0"/>
<path d="M16.1964 18.1824H8.1337C7.32324 18.1824 6.66504 17.523 6.66504 16.7137V7.99406C6.66504 7.18479 7.32444 6.52539 8.1337 6.52539H16.1964C17.0068 6.52539 17.665 7.18479 17.665 7.99406V16.7137C17.665 17.523 17.0056 18.1824 16.1964 18.1824ZM8.1337 7.7243C7.98504 7.7243 7.86395 7.84539 7.86395 7.99406V16.7137C7.86395 16.8624 7.98504 16.9835 8.1337 16.9835H16.1964C16.345 16.9835 16.4661 16.8624 16.4661 16.7137V7.99406C16.4661 7.84539 16.345 7.7243 16.1964 7.7243H8.1337Z" fill="#1E54B0"/>
<path d="M13.4735 7.65062C13.1426 7.65062 12.874 7.38207 12.874 7.05117V4.63656C12.874 4.30567 13.1426 4.03711 13.4735 4.03711C13.8044 4.03711 14.0729 4.30567 14.0729 4.63656V7.05117C14.0729 7.38207 13.8044 7.65062 13.4735 7.65062Z" fill="#1E54B0"/>
<path d="M10.8036 7.65062C10.4727 7.65062 10.2041 7.38207 10.2041 7.05117V4.63656C10.2041 4.30567 10.4727 4.03711 10.8036 4.03711C11.1345 4.03711 11.403 4.30567 11.403 4.63656V7.05117C11.403 7.38207 11.1345 7.65062 10.8036 7.65062Z" fill="#1E54B0"/>
<path d="M14.5045 5.21063H9.75082C9.41992 5.21063 9.15137 4.94207 9.15137 4.61117C9.15137 4.28027 9.41992 4.01172 9.75082 4.01172H14.5045C14.8354 4.01172 15.104 4.28027 15.104 4.61117C15.104 4.94207 14.8354 5.21063 14.5045 5.21063Z" fill="#1E54B0"/>
<path d="M15.5284 19.8263C14.9014 19.8263 14.3906 19.3156 14.3906 18.6885C14.3906 18.0615 14.9014 17.5508 15.5284 17.5508C16.1554 17.5508 16.6662 18.0615 16.6662 18.6885C16.6662 19.3156 16.1554 19.8263 15.5284 19.8263ZM15.5284 18.5099C15.4313 18.5099 15.3498 18.5914 15.3498 18.6885C15.3498 18.7857 15.4313 18.8672 15.5284 18.8672C15.6255 18.8672 15.707 18.7857 15.707 18.6885C15.707 18.5914 15.6255 18.5099 15.5284 18.5099Z" fill="#1E54B0"/>
<path d="M8.78474 19.838C8.15771 19.838 7.64697 19.3273 7.64697 18.7003C7.64697 18.0732 8.15771 17.5625 8.78474 17.5625C9.41177 17.5625 9.9225 18.0732 9.9225 18.7003C9.9225 19.3273 9.41177 19.838 8.78474 19.838ZM8.78474 18.5216C8.68763 18.5216 8.6061 18.6032 8.6061 18.7003C8.6061 18.7974 8.68763 18.8789 8.78474 18.8789C8.88185 18.8789 8.96338 18.7974 8.96338 18.7003C8.96338 18.6032 8.88185 18.5216 8.78474 18.5216Z" fill="#1E54B0"/>
</g>
<defs>
<clipPath id="clip0_710_52392">
<rect width="11" height="15.8504" fill="white" transform="translate(6.66504 4)"/>
</clipPath>
</defs>
</svg>
