<svg width="196" height="241" viewBox="0 0 196 241" fill="none" xmlns="http://www.w3.org/2000/svg">
<path d="M143.528 234.385C208.074 234.385 260.399 182 260.399 117.38C260.399 52.7598 208.074 0.375 143.528 0.375C78.9814 0.375 26.6562 52.7598 26.6562 117.38C26.6562 182 78.9814 234.385 143.528 234.385Z" fill="url(#paint0_linear_13273_46540)"/>
<mask id="mask0_13273_46540" style="mask-type:luminance" maskUnits="userSpaceOnUse" x="26" y="0" width="235" height="235">
<path d="M143.528 234.385C208.074 234.385 260.399 182 260.399 117.38C260.399 52.7598 208.074 0.375 143.528 0.375C78.9814 0.375 26.6562 52.7598 26.6562 117.38C26.6562 182 78.9814 234.385 143.528 234.385Z" fill="white"/>
</mask>
<g mask="url(#mask0_13273_46540)">
<path opacity="0.4" d="M33.8645 59.2446L112.934 58.4253C112.934 58.4253 102.076 56.1503 93.0627 53.2799C84.0496 50.4095 72.3726 51.6615 57.8285 51.4528C44.2503 51.2594 34.4745 55.1426 24.2311 55.7584C13.9877 56.3742 -4.44531 59.2446 -4.44531 59.2446H33.8594H33.8645Z" fill="white"/>
<path opacity="0.3" d="M127.283 20.6422H31.9867C31.9867 20.6422 29.3382 18.235 43.0588 15.5834C56.7742 12.9318 54.0037 8.10201 64.1759 11.2422C74.3431 14.3772 84.6932 14.6215 91.429 13.8988C98.1647 13.1761 110.442 13.4153 122.952 13.6596C135.463 13.9039 167.23 18.9577 168.913 19.4411C170.595 19.9246 127.283 20.6473 127.283 20.6473V20.6422Z" fill="white"/>
<path opacity="0.3" d="M173.695 73.0078C173.695 73.0078 286.012 72.1527 284.726 71.939C283.44 71.7252 262.475 60.8034 252.206 63.8011C241.937 66.7987 248.358 67.2262 235.949 64.6561C223.54 62.0859 214.984 62.2997 203.861 64.8698C192.738 67.44 173.695 73.0078 173.695 73.0078Z" fill="white"/>
</g>
<path d="M188.078 69.3583C193.881 69.3583 198.586 64.7966 198.586 59.1694C198.586 53.5422 193.881 48.9805 188.078 48.9805C182.275 48.9805 177.57 53.5422 177.57 59.1694C177.57 64.7966 182.275 69.3583 188.078 69.3583Z" fill="url(#paint1_linear_13273_46540)"/>
<path d="M62.3594 91.3477L249.631 92.418V94.0424L62.3594 95.1253V91.3477Z" fill="url(#paint2_linear_13273_46540)" fill-opacity="0.5"/>
<g opacity="0.8">
<path d="M2.67796 89.7559L1.93255 90.3712C-0.00294113 91.9685 1.12174 95.1238 3.63264 95.1238H55.0931C68.4846 95.1238 76.5142 92.4398 84.557 89.7559H2.67796Z" fill="url(#paint3_linear_13273_46540)"/>
<path d="M12.2447 84.3881H11.9962C10.4138 84.3881 8.85759 84.8594 7.53675 85.7366L2.67188 89.7429H12.2447H84.564L92.5936 87.059V84.375H12.2447V84.3881Z" fill="url(#paint4_linear_13273_46540)"/>
<path d="M57.7727 68.3125H63.1345L53.4963 89.7581H36.3516L57.7727 68.3125Z" fill="url(#paint5_linear_13273_46540)"/>
<path d="M81.8828 84.3869L92.6065 87.0708L97.9552 73.6641H92.6065L81.8828 84.3869Z" fill="url(#paint6_linear_13273_46540)"/>
</g>
<path d="M85.7109 228.1C85.7109 228.1 99.3875 235.446 115.376 225.479C131.364 215.512 133.669 208.444 163.848 219.961C163.848 219.961 150.185 213.712 148.818 213.49C147.45 213.268 150.886 204.976 161.578 206.769C172.269 208.562 201.309 216.784 211.424 221.622C221.539 226.466 225.587 213.066 224.504 208.201C223.421 203.335 223.941 181.101 226.684 179.836C228.156 179.155 229.218 176.966 232.772 176.021C230.224 174.874 226.809 174.498 223.122 177.327C215.479 183.193 175.601 207.061 173.303 206.442C171.006 205.824 150.421 201.911 146.29 208.006C142.16 214.102 133.44 212.364 133.44 212.364C133.44 212.364 123.2 209.792 114.237 216.187C105.268 222.588 99.0751 231.637 85.7109 228.086V228.1Z" fill="#A47B45"/>
<path d="M85.709 228.101L90.1175 233.654C185.86 238.832 236.609 229.436 259.485 210.816C264.83 206.465 266.726 202.76 266.823 198.305C266.955 192.043 263.428 186.267 258.006 183.132L249.37 178.135C245.732 176.953 242.76 176.251 240.303 175.897C236.936 175.404 234.548 175.563 232.777 176.036C229.223 176.981 228.161 179.171 226.689 179.852C225.627 180.345 224.898 183.994 224.467 188.567C223.787 195.768 223.849 205.248 224.516 208.223C225.599 213.088 221.551 226.482 211.436 221.644C203.897 218.037 185.846 212.553 172.718 209.245C170.358 208.654 168.15 208.126 166.199 207.702C164.436 207.313 162.881 207 161.59 206.784C150.898 204.991 147.462 213.283 148.829 213.505C150.197 213.728 163.86 219.976 163.86 219.976C133.681 208.452 131.376 215.521 115.388 225.495C104.613 232.216 94.8938 231.069 89.694 229.602C87.1739 228.893 85.7229 228.115 85.7229 228.115C85.5146 228.059 85.2994 227.997 85.0703 227.934" fill="#1F1C12"/>
<path d="M95.3127 168.851C95.2951 168.815 95.2774 168.786 95.2656 168.75C95.301 168.762 95.3127 168.797 95.3127 168.851Z" fill="url(#paint7_linear_13273_46540)"/>
<path d="M80.7387 215.818C80.7387 213.005 83.3884 210.997 84.4447 208.58C86.2742 209.413 87.602 210.63 89.2957 211.434C100.054 224.337 110.399 232.095 110.399 232.095C110.399 232.095 99.8062 230.783 95.5689 227.823C93.1848 232.496 95.5689 240.537 95.5689 240.537C95.5689 240.537 85.4421 234.204 83.2232 227.823C82.037 232.555 77.4279 237.53 75.9231 238.706C75.392 229.335 74.7546 219.959 74.3828 210.589C76.5014 212.196 78.0889 214.606 80.7387 215.818Z" fill="#495E5B"/>
<path d="M37.5684 228.979C55.7566 220.855 68.7752 203.391 76.7126 193.459C80.5367 200.182 84.9451 206.227 89.2885 211.438C87.5948 210.634 86.2729 209.417 84.4375 208.584C83.3812 210.994 80.7314 213.003 80.7314 215.821C78.0817 214.616 76.4942 212.206 74.3756 210.593C74.7474 219.963 75.3848 229.339 75.9159 238.71C75.6149 238.946 75.4379 239.035 75.4379 238.934C75.4379 238.332 70.522 225.871 70.522 225.871C65.3759 233.912 58.489 236.524 58.489 236.524C58.489 236.524 57.6923 228.784 58.489 227.827C53.9862 231.295 45.2462 233.457 45.2462 233.457L48.9523 227.827C48.9523 227.827 45.2462 229.333 37.5625 228.979H37.5684Z" fill="#102038"/>
<path d="M73.7979 188.096C75.1552 189.171 76.5126 190.241 77.8758 191.316C77.4214 188.811 78.3302 186.306 78.7787 183.801C80.6082 185.006 82.4376 185.88 84.4028 186.542C90.8294 194.246 98.7078 201.697 103.004 205.088C92.3638 204.196 88.0617 201.508 88.0617 201.508L87.6072 208.485L80.8147 202.406L76.607 206.27C73.8864 200.468 71.939 194.447 73.792 188.09L73.7979 188.096Z" fill="#495E5B"/>
<path d="M45.9453 202.228C57.6715 197.555 76.2728 176.841 76.2492 174.826C78.0963 178.442 81.0529 182.525 84.4049 186.542C82.4397 185.874 80.6044 185 78.7809 183.801C78.3265 186.306 77.4235 188.811 77.8779 191.316C76.5206 190.241 75.1633 189.171 73.8001 188.096C71.9411 194.453 73.8945 200.474 76.615 206.275L76.3849 206.488L70.9556 201.336C68.3648 206.701 62.4811 207.238 62.4811 207.238L63.8384 201.691C63.8384 201.691 58.6275 206.122 52.5136 206.482C56.1371 203.439 56.8157 200.615 56.8157 200.615C56.8157 200.615 50.9261 202.943 45.9453 202.228Z" fill="#102038"/>
<path d="M78.6741 163.211C80.1199 164.428 81.7783 165.468 83.4366 166.46C89.9163 174.649 96.2486 179.417 96.2486 179.417C96.2486 179.417 91.0671 179.027 85.3545 177.397C85.9565 182.608 86.4581 185.13 86.4581 185.13C86.4581 185.13 78.7095 181.272 77.3463 178.909C76.4847 182.838 74.7378 185.154 73.3628 186.436C73.2448 185.745 73.1504 185.053 73.0972 184.362C72.3006 176.971 71.5039 168.576 78.6859 163.205L78.6741 163.211Z" fill="#495E5B"/>
<path d="M56.5078 180.109C64.3567 173.031 75.2743 153.688 75.2743 153.688C77.2218 157.646 79.5116 161.238 81.8485 164.399C82.3738 165.108 82.899 165.793 83.4301 166.461C81.7777 165.462 80.1194 164.429 78.6677 163.211C71.4856 168.582 72.2823 176.977 73.079 184.369C73.1321 185.06 73.2266 185.751 73.3446 186.442C72.2469 187.464 71.3794 187.831 71.3794 187.831L70.3644 180.115L69.8686 180.327L63.7843 182.957C65.0531 181.107 65.6196 176.735 65.6196 176.735C65.6196 176.735 60.9162 179.796 56.5137 180.115L56.5078 180.109Z" fill="#102038"/>
<path d="M175.983 167.243C176.072 167.311 175.622 168.129 175.574 168.227C175.148 169.132 174.594 170.161 174.466 171.146C174.333 172.159 174.349 173.059 174.438 173.61C174.472 173.832 174.639 174.007 174.854 174.07C175.259 174.186 175.687 174.235 176.096 174.323C176.171 174.333 176.251 174.364 176.292 174.426C176.32 174.478 176.319 174.541 176.312 174.596C176.248 175.359 175.995 175.95 176.835 176.171C177.349 176.308 177.873 176.425 178.389 176.549C179.203 176.746 180.018 176.943 180.832 177.14L181.376 174.259C181.376 174.259 178.646 169.314 177.757 168.616C176.874 167.927 175.977 167.235 175.977 167.235L175.983 167.243Z" fill="#DBA782"/>
<path d="M174.433 164.598C174.415 165.059 174.508 165.533 174.637 165.992C174.785 166.523 174.983 167.039 175.142 167.536C175.47 168.623 175.935 169.672 176.455 170.679L177.037 169.864C177.114 169.762 177.275 169.811 177.272 169.944L177.23 172.469C177.267 173.903 179.229 174.586 180.591 174.882C181.421 175.067 182.289 174.851 182.953 174.32C183.805 173.639 184.964 172.535 185.641 171.102C185.843 170.68 185.974 170.269 186.049 169.851C186.541 167.154 184.544 164.644 181.84 163.907C180.751 163.611 179.527 164.195 178.644 163.611C178.108 163.261 177.213 162.507 176.754 163.393C176.603 163.689 176.64 164.051 176.791 164.344C176.229 164.194 175.976 163.397 175.396 163.336C175.1 163.297 174.816 163.492 174.651 163.737C174.493 163.982 174.439 164.291 174.427 164.591L174.433 164.598Z" fill="#684330"/>
<g style="mix-blend-mode:multiply" opacity="0.43">
<path d="M174.632 166.001C174.781 166.525 174.979 167.041 175.138 167.546C175.465 168.633 175.93 169.681 176.45 170.688L177.032 169.874C177.109 169.771 177.27 169.821 177.267 169.953L177.225 172.478C177.262 173.913 179.224 174.595 180.586 174.892C181.416 175.077 182.284 174.86 182.948 174.33C183.8 173.648 184.959 172.544 185.636 171.111C185.838 170.689 185.969 170.279 186.044 169.861C183.026 171.529 180.137 167.537 178.893 167.627C177.643 167.717 178.46 168.538 178.46 168.538C178.46 168.538 175.786 168.05 174.64 165.995L174.632 166.001Z" fill="#684330"/>
</g>
<path d="M175.586 171.394C175.648 169.726 176.322 169.107 176.967 169.441C177.613 169.774 177.502 172.791 176.405 172.631C175.655 172.527 175.565 172.117 175.593 171.394H175.586Z" fill="#DBA782"/>
<path d="M176.086 171.409C176.244 170.47 176.667 170.174 177.008 170.408C177.349 170.641 177.065 172.336 176.457 172.165C176.038 172.048 176.019 171.814 176.086 171.409Z" fill="#D1866F"/>
<path d="M160.485 198.646C160.485 198.646 157.014 201.156 158.187 202.379L160.951 201.482L160.485 198.646Z" fill="#DBA782"/>
<path d="M189.041 192.029C188.833 190.813 188.701 189.59 188.639 188.36C188.166 179.692 185.39 178.921 185.39 178.921C183.383 178.719 182.661 176.718 182.439 175.8C182.37 175.529 182.134 175.341 181.856 175.335L175.115 175.182C174.83 175.182 174.58 175.362 174.511 175.633C174.358 176.196 173.976 177.086 173.032 177.26C173.032 177.26 167.263 178.726 163.34 194.392C163.063 195.498 162.431 196.484 161.542 197.207L159.751 198.667C159.397 198.959 159.182 199.383 159.161 199.835L159.133 200.453C159.119 200.801 159.425 201.079 159.772 201.023C161.445 200.738 164.618 200.919 166.235 200.411C168.11 199.821 168.325 198.938 169.956 197.694L167.436 201.419C168.068 202.691 169.262 203.616 170.561 204.199C171.859 204.776 173.275 205.04 174.67 205.304C174.837 205.339 174.997 205.367 175.156 205.395C178.287 205.986 181.432 206.549 184.612 206.556C184.716 206.556 185.202 202.983 185.223 202.622" fill="#494949"/>
<g style="mix-blend-mode:multiply" opacity="0.34">
<path d="M189.036 192.029C188.828 190.813 188.696 189.59 188.633 188.36C188.161 179.692 185.384 178.921 185.384 178.921C183.378 178.719 182.656 176.718 182.434 175.8C182.364 175.529 182.128 175.341 181.85 175.335L175.109 175.182C177.921 176.669 177.407 183.411 177.268 184.822C177.13 186.226 175.609 195.894 175.72 198.778C175.838 201.669 175.72 202.371 175.72 202.371C175.72 202.371 176.255 203.393 175.72 204.324C175.484 204.735 175.297 205.11 175.151 205.402C178.282 205.993 181.427 206.556 184.607 206.562C184.711 206.562 185.197 202.99 185.218 202.629L189.029 192.029H189.036Z" fill="#494949"/>
</g>
<path d="M167.091 201.524C167.237 202.108 168.16 204.548 174.79 206C174.825 206 174.86 206.014 174.887 206.021C181.608 207.467 184.176 207.21 184.607 206.813C185.044 206.417 185.516 204.228 185.03 204.235C184.19 204.249 179.102 203.769 175.804 202.629C175.165 202.407 174.596 202.164 174.138 201.9C171.284 200.238 168.716 199.696 168.389 199.752C168.063 199.807 166.945 200.947 167.091 201.531V201.524Z" fill="#6B6B6B"/>
<g style="mix-blend-mode:multiply" opacity="0.34">
<path d="M174.797 205.998C174.797 205.998 174.866 206.012 174.894 206.019C181.614 207.464 184.183 207.207 184.613 206.811C185.051 206.415 185.523 204.226 185.037 204.232C184.197 204.246 179.108 203.767 175.81 202.627C176.074 203.864 175.123 205.379 174.804 205.998H174.797Z" fill="#494949"/>
</g>
<path d="M173.399 177.091C173.399 177.091 176.85 183.131 171.976 187.398L170.977 192.688C181.501 183.541 174.01 176.486 174.01 176.486L173.399 177.098V177.091Z" fill="#686B2A"/>
<path d="M190.705 179.084C187.733 178.139 182.811 177.048 177.688 177.965C176.667 178.146 175.848 178.918 175.619 179.932C174.647 184.228 172.21 196.189 173.661 202.778C173.779 203.32 174.105 203.786 174.564 204.092C175.612 204.773 177.868 205.829 181.666 205.683L187.178 205.948C187.949 205.982 188.678 205.572 189.039 204.891C190.642 201.854 194.731 193.027 193.947 183.178C193.794 181.288 192.51 179.668 190.705 179.098V179.084Z" fill="#7A8234"/>
<path d="M177.46 178.563C176.439 178.299 175.766 178.487 175.183 181.587C174.6 184.687 172.857 192.144 173.211 197.26C173.565 202.375 173.211 204.106 175.905 204.829C178.605 205.551 179.355 194.174 179.189 190.024C179.022 185.882 180.008 179.224 177.46 178.563Z" fill="#9CA045"/>
<path d="M178.903 181.665C178.917 181.762 178.937 181.859 178.951 181.957C178.951 181.991 178.965 182.026 178.965 182.054C179.75 187.329 178.222 192.417 180.652 193.23C183.089 194.036 192.704 194.982 193.468 192.055C194.593 187.739 194.717 184.674 194.162 182.513C194.127 182.387 194.093 182.262 194.058 182.144C193.114 179.093 190.698 177.974 187.886 177.62C183.075 177.008 177.07 177.668 176.917 178.238C176.757 178.794 178.403 179.197 178.903 181.672V181.665Z" fill="#686B2A"/>
<path d="M187.45 177.504C191.219 179.297 191.101 185.011 190.234 186.811C189.366 188.611 187.089 188.764 185.436 188.388C183.784 188.02 185.263 184.753 184.173 181.855C183.083 178.957 181.562 177.365 181.562 177.365L187.45 177.497V177.504Z" fill="#838736"/>
<path d="M187.445 186.035C187.445 186.39 187.64 186.681 187.876 186.681C188.112 186.681 188.306 186.396 188.306 186.035C188.306 185.674 188.112 185.389 187.876 185.389C187.64 185.389 187.445 185.674 187.445 186.035Z" fill="white"/>
<path d="M192.93 196.509C190.084 194.459 181.468 195.112 180.774 196.509C180.079 197.906 178.691 203.036 179.475 204.05C180.26 205.065 189.882 206.142 190.736 205.253C191.597 204.363 194.506 197.649 192.923 196.509H192.93Z" fill="#686B2A"/>
<path d="M180.766 196.507C181.946 196.98 180.814 199.885 182.189 201.22C183.563 202.554 191.631 203.687 192.88 202.29C194.13 200.893 194.56 197.508 192.825 196.201C191.089 194.895 182.335 194.297 180.773 196.507H180.766Z" fill="#838736"/>
<path d="M178.055 178.053C180.554 180.687 180.908 182.105 180.776 187.665C180.651 193.225 183.803 192.857 188.656 192.6C193.509 192.343 193.217 190.494 193.397 187.401C193.578 184.308 193.509 181.215 192.196 179.7" stroke="#777736" stroke-miterlimit="10" stroke-linecap="round"/>
<path d="M182.195 196.131C183.16 196.708 182.23 199.349 183.306 200.398C184.382 201.448 188.673 201.663 190.616 201.538C192.56 201.413 192.741 201.142 192.845 200.002C192.949 198.862 193.241 197.389 192.165 196.277" stroke="#8C8C41" stroke-miterlimit="10" stroke-linecap="round"/>
<path d="M187.125 200.768C187.125 201.192 187.465 201.533 187.889 201.533C188.312 201.533 188.652 201.192 188.652 200.768C188.652 200.344 188.312 200.004 187.889 200.004C187.465 200.004 187.125 200.344 187.125 200.768Z" fill="white"/>
<path d="M170.569 196.516C171.062 196.516 173.825 197.385 175.735 196.252L175.45 193.291C175.45 193.291 172.263 195.557 170.778 193.465L170.562 196.516H170.569Z" fill="#686B2A"/>
<path d="M172.329 185.346C171.614 189.28 171.607 194.346 169.969 197.703L172.329 185.346Z" fill="#494949"/>
<path d="M172.329 185.346C171.614 189.28 171.607 194.346 169.969 197.703" stroke="#636363" stroke-miterlimit="10"/>
<g style="mix-blend-mode:overlay" opacity="0.33">
<path d="M178.887 181.664C178.901 181.761 178.922 181.858 178.936 181.956C178.936 181.99 178.95 182.025 178.95 182.053C182.448 182.623 189.134 183.457 194.146 182.505C194.112 182.38 194.077 182.255 194.042 182.136C193.098 179.085 190.682 177.966 187.871 177.612C183.059 177 177.054 177.66 176.901 178.23C176.742 178.786 178.387 179.189 178.887 181.664Z" fill="white"/>
</g>
<defs>
<linearGradient id="paint0_linear_13273_46540" x1="85.7325" y1="17.0173" x2="245.992" y2="294.668" gradientUnits="userSpaceOnUse">
<stop stop-color="#B2E1F8"/>
<stop offset="0.18" stop-color="#C2E7F9" stop-opacity="0.78"/>
<stop offset="0.48" stop-color="#DCF1FB" stop-opacity="0.45"/>
<stop offset="0.73" stop-color="#EFF8FD" stop-opacity="0.21"/>
<stop offset="0.91" stop-color="#FAFDFE" stop-opacity="0.06"/>
<stop offset="1" stop-color="white" stop-opacity="0"/>
</linearGradient>
<linearGradient id="paint1_linear_13273_46540" x1="188.072" y1="48.1639" x2="188.071" y2="72.9695" gradientUnits="userSpaceOnUse">
<stop stop-color="#FFCD01"/>
<stop offset="0.57" stop-color="#FFCD01" stop-opacity="0"/>
</linearGradient>
<linearGradient id="paint2_linear_13273_46540" x1="158.378" y1="69.1981" x2="147.097" y2="115.684" gradientUnits="userSpaceOnUse">
<stop offset="0.43" stop-color="white" stop-opacity="0"/>
<stop offset="1" stop-color="white"/>
</linearGradient>
<linearGradient id="paint3_linear_13273_46540" x1="83.223" y1="92.034" x2="-37.8627" y2="92.9353" gradientUnits="userSpaceOnUse">
<stop stop-color="#405370"/>
<stop offset="0.04" stop-color="#4F6078"/>
<stop offset="0.13" stop-color="#77818E"/>
<stop offset="0.24" stop-color="#989EA0"/>
<stop offset="0.35" stop-color="#B4B5AF"/>
<stop offset="0.47" stop-color="#C9C7BB"/>
<stop offset="0.6" stop-color="#D8D4C3"/>
<stop offset="0.76" stop-color="#E1DBC8"/>
<stop offset="0.99" stop-color="#E4DECA"/>
</linearGradient>
<linearGradient id="paint4_linear_13273_46540" x1="75.2527" y1="109.539" x2="36.0367" y2="77.7153" gradientUnits="userSpaceOnUse">
<stop stop-color="#405370"/>
<stop offset="0.05" stop-color="#58687D"/>
<stop offset="0.14" stop-color="#7D8791"/>
<stop offset="0.23" stop-color="#9DA2A3"/>
<stop offset="0.33" stop-color="#B7B8B1"/>
<stop offset="0.44" stop-color="#CBC9BC"/>
<stop offset="0.57" stop-color="#D9D4C4"/>
<stop offset="0.72" stop-color="#E1DBC8"/>
<stop offset="0.99" stop-color="#E4DECA"/>
</linearGradient>
<linearGradient id="paint5_linear_13273_46540" x1="64.7693" y1="96.9066" x2="46.9468" y2="75.756" gradientUnits="userSpaceOnUse">
<stop stop-color="#405370"/>
<stop offset="0.02" stop-color="#445772"/>
<stop offset="0.27" stop-color="#7D8691"/>
<stop offset="0.5" stop-color="#A9ACA9"/>
<stop offset="0.7" stop-color="#C9C7BB"/>
<stop offset="0.88" stop-color="#DCD8C6"/>
<stop offset="0.99" stop-color="#E4DECA"/>
</linearGradient>
<linearGradient id="paint6_linear_13273_46540" x1="101.303" y1="88.93" x2="82.5837" y2="72.6771" gradientUnits="userSpaceOnUse">
<stop stop-color="#405370"/>
<stop offset="0.07" stop-color="#57677D"/>
<stop offset="0.22" stop-color="#828B94"/>
<stop offset="0.37" stop-color="#A5A9A7"/>
<stop offset="0.52" stop-color="#C1C0B6"/>
<stop offset="0.68" stop-color="#D4D0C1"/>
<stop offset="0.83" stop-color="#E0DAC7"/>
<stop offset="0.99" stop-color="#E4DECA"/>
</linearGradient>
<linearGradient id="paint7_linear_13273_46540" x1="95.3127" y1="168.797" x2="95.2656" y2="168.797" gradientUnits="userSpaceOnUse">
<stop stop-color="#506E73"/>
<stop offset="1" stop-color="#869581"/>
</linearGradient>
</defs>
</svg>
