<svg width="438" height="361" viewBox="0 0 438 361" fill="none" xmlns="http://www.w3.org/2000/svg">
<path d="M232.949 314.148C232.949 314.148 234.726 340.149 235.36 340.181L240.71 339.774C241.417 339.805 243.079 332.82 243.1 330.089C243.152 323.489 245.199 315.222 245.199 315.222C245.199 315.222 245.334 315.264 245.594 315.347C245.635 315.357 245.666 315.368 245.708 315.389C245.957 315.472 246.29 315.576 246.695 315.701C246.768 315.722 246.83 315.743 246.903 315.764C246.924 315.764 246.934 315.774 246.955 315.774C253.116 317.568 273.522 322.415 275.86 308.518C276.275 306.058 275.974 304.15 275.143 302.69C272.015 297.04 261.251 297.978 254.706 299.156C251.63 299.709 249.48 300.303 249.48 300.303C249.48 300.303 249.282 300.261 248.919 300.22C247.589 300.042 244.014 299.75 239.713 300.699C239.713 300.699 231.765 302.795 232.939 314.158L232.949 314.148Z" fill="#FCB85B"/>
<path d="M250.459 303.439C246.355 304.002 237.762 304.482 236.412 305.65C235.061 306.807 235.445 319.474 235.248 324.718C235.051 329.962 236.287 339.428 236.287 339.428" stroke="#F98D5D" stroke-miterlimit="10" stroke-linecap="round"/>
<g style="mix-blend-mode:multiply" opacity="0.31">
<path d="M245.198 315.22C245.198 315.22 245.333 315.262 245.593 315.345C245.634 315.356 245.665 315.366 245.707 315.387C245.956 315.46 246.299 315.564 246.694 315.7C246.767 315.72 246.829 315.741 246.902 315.762C246.923 315.762 246.933 315.773 246.954 315.773C253.115 317.566 273.521 322.414 275.859 308.516C276.274 306.056 275.973 304.148 275.142 302.689L254.705 299.154C251.629 299.707 249.479 300.301 249.479 300.301C249.479 300.301 249.281 300.259 248.918 300.218L248.772 300.666C249.354 310.247 253.635 311.748 253.863 313.437C254.092 315.126 245.188 315.23 245.188 315.23L245.198 315.22Z" fill="#F98D5D"/>
</g>
<path d="M214.3 351.077C310.9 351.077 389.21 272.5 389.21 175.57C389.21 78.6398 310.9 0.0625 214.3 0.0625C117.7 0.0625 39.3906 78.6398 39.3906 175.57C39.3906 272.5 117.7 351.077 214.3 351.077Z" fill="url(#paint0_linear_708_50398)"/>
<mask id="mask0_708_50398" style="mask-type:luminance" maskUnits="userSpaceOnUse" x="39" y="0" width="351" height="352">
<path d="M214.3 351.077C310.9 351.077 389.21 272.5 389.21 175.57C389.21 78.6398 310.9 0.0625 214.3 0.0625C117.7 0.0625 39.3906 78.6398 39.3906 175.57C39.3906 272.5 117.7 351.077 214.3 351.077Z" fill="white"/>
</mask>
<g mask="url(#mask0_708_50398)">
<path opacity="0.4" d="M50.1782 88.365L168.514 87.1359C168.514 87.1359 152.263 83.7235 138.774 79.4179C125.285 75.1123 107.809 76.9903 86.0426 76.6773C65.7215 76.3872 51.0911 82.2119 35.7609 83.1357C20.4306 84.0594 -7.15625 88.365 -7.15625 88.365H50.1706H50.1782Z" fill="white"/>
<path opacity="0.3" d="M189.991 30.4643H47.37C47.37 30.4643 43.4062 26.8534 63.9404 22.8761C84.467 18.8987 80.3206 11.654 95.5443 16.3642C110.76 21.0668 126.251 21.4332 136.331 20.3492C146.412 19.2652 164.785 19.624 183.509 19.9904C202.232 20.3568 249.775 27.9375 252.293 28.6627C254.812 29.3879 189.991 30.472 189.991 30.472V30.4643Z" fill="white"/>
<path opacity="0.3" d="M259.445 109.014C259.445 109.014 427.538 107.731 425.613 107.41C423.688 107.09 392.313 90.7071 376.944 95.2036C361.576 99.7 371.185 100.341 352.614 96.4861C334.042 92.6309 321.238 92.9515 304.592 96.8067C287.945 100.662 259.445 109.014 259.445 109.014Z" fill="white"/>
</g>
<path d="M280.976 103.538C289.661 103.538 296.702 96.6949 296.702 88.2541C296.702 79.8133 289.661 72.9707 280.976 72.9707C272.291 72.9707 265.25 79.8133 265.25 88.2541C265.25 96.6949 272.291 103.538 280.976 103.538Z" fill="url(#paint1_linear_708_50398)"/>
<path d="M92.8125 147.02L373.084 148.625V151.062L92.8125 152.686V147.02Z" fill="url(#paint2_linear_708_50398)" fill-opacity="0.5"/>
<g opacity="0.8">
<path d="M3.50326 144.635L2.38768 145.558C-0.508972 147.954 1.17422 152.687 4.93204 152.687H81.9476C101.989 152.687 114.007 148.661 126.043 144.635H3.50326Z" fill="url(#paint3_linear_708_50398)"/>
<path d="M17.8267 136.582H17.4548C15.0866 136.582 12.7575 137.289 10.7808 138.605L3.5 144.614H17.8267H126.06L138.077 140.588V136.562H17.8267V136.582Z" fill="url(#paint4_linear_708_50398)"/>
<path d="M85.9573 112.469H93.9818L79.5573 144.637H53.8984L85.9573 112.469Z" fill="url(#paint5_linear_708_50398)"/>
<path d="M122.031 136.582L138.08 140.608L146.085 120.498H138.08L122.031 136.582Z" fill="url(#paint6_linear_708_50398)"/>
</g>
<path d="M328.641 172.102C328.672 172.039 328.703 171.977 328.734 171.914C328.672 171.945 328.641 172.008 328.641 172.102Z" fill="url(#paint7_linear_708_50398)"/>
<path d="M356.187 261.023C356.187 255.696 351.189 251.891 349.184 247.324C345.724 248.898 343.22 251.203 340.02 252.735C319.708 277.162 300.164 291.841 300.164 291.841C300.164 291.841 320.175 289.36 328.176 283.751C332.674 292.602 328.176 307.824 328.176 307.824C328.176 307.824 347.304 295.834 351.491 283.751C353.735 292.707 362.431 302.121 365.278 304.352C366.276 286.608 367.481 268.863 368.187 251.119C364.187 254.163 361.185 258.73 356.187 261.013V261.023Z" fill="#495E5B"/>
<path d="M437.71 285.944C403.361 270.566 378.768 237.507 363.775 218.699C356.554 231.418 348.221 242.866 340.023 252.728C343.224 251.206 345.728 248.902 349.187 247.317C351.193 251.884 356.19 255.689 356.19 261.016C361.188 258.733 364.191 254.167 368.191 251.123C367.484 268.867 366.279 286.611 365.282 304.355C365.853 304.804 366.185 304.97 366.185 304.772C366.185 303.636 375.474 280.043 375.474 280.043C385.199 295.264 398.197 300.206 398.197 300.206C398.197 300.206 399.693 285.548 398.197 283.744C406.696 290.312 423.206 294.399 423.206 294.399L416.203 283.744C416.203 283.744 423.206 286.59 437.71 285.933V285.944Z" fill="#102038"/>
<path d="M369.283 208.539C366.717 210.572 364.15 212.605 361.584 214.638C362.436 209.895 360.732 205.151 359.87 200.418C356.42 202.701 352.96 204.348 349.241 205.61C337.095 220.185 322.216 234.29 314.102 240.713C334.206 239.024 342.331 233.936 342.331 233.936L343.183 247.145L356.015 235.635L363.963 242.954C369.106 231.976 372.784 220.57 369.273 208.55L369.283 208.539Z" fill="#495E5B"/>
<path d="M421.889 235.295C399.738 226.454 364.609 187.243 364.651 183.428C361.16 190.267 355.58 198.003 349.242 205.613C352.951 204.352 356.411 202.705 359.871 200.421C360.723 205.165 362.438 209.909 361.586 214.642C364.152 212.609 366.718 210.576 369.285 208.543C372.786 220.574 369.108 231.969 363.975 242.947L364.412 243.343L374.667 233.595C379.56 243.75 390.678 244.771 390.678 244.771L388.111 234.273C388.111 234.273 397.951 242.666 409.494 243.343C402.647 237.588 401.369 232.24 401.369 232.24C401.369 232.24 412.486 236.64 421.9 235.284L421.889 235.295Z" fill="#102038"/>
<path d="M360.087 161.445C357.354 163.749 354.216 165.709 351.099 167.596C338.86 183.099 326.891 192.128 326.891 192.128C326.891 192.128 336.678 191.398 347.473 188.312C346.341 198.185 345.395 202.96 345.395 202.96C345.395 202.96 360.024 195.651 362.612 191.179C364.243 198.612 367.536 203.001 370.144 205.42C370.362 204.107 370.549 202.803 370.643 201.5C372.15 187.509 373.656 171.621 360.087 161.445Z" fill="#495E5B"/>
<path d="M401.932 193.425C387.106 180.018 366.492 143.414 366.492 143.414C362.814 150.91 358.491 157.707 354.076 163.692C353.089 165.037 352.091 166.329 351.094 167.591C354.221 165.704 357.349 163.744 360.081 161.44C373.65 171.615 372.144 187.504 370.637 201.495C370.533 202.798 370.357 204.111 370.139 205.415C372.217 207.354 373.858 208.042 373.858 208.042L375.78 193.425L376.716 193.832L388.207 198.805C385.817 195.302 384.747 187.024 384.747 187.024C384.747 187.024 393.63 192.821 401.953 193.425H401.932Z" fill="#102038"/>
<path d="M127.773 341.648C127.773 341.648 148.242 352.668 172.17 337.718C196.098 322.768 199.548 312.165 244.713 329.44C244.713 329.44 224.266 320.068 222.219 319.734C220.172 319.4 225.315 306.963 241.316 309.652C257.316 312.342 300.778 324.676 315.916 331.932C331.054 339.198 337.111 319.098 335.491 311.8C333.87 304.502 334.649 271.151 338.753 269.254C340.956 268.232 342.545 264.948 347.865 263.53C344.052 261.81 338.94 261.247 333.423 265.49C321.984 274.289 262.303 310.09 258.864 309.162C255.425 308.235 224.619 302.365 218.437 311.508C212.255 320.651 199.205 318.045 199.205 318.045C199.205 318.045 183.88 314.188 170.466 323.779C157.042 333.381 147.774 346.955 127.773 341.627V341.648Z" fill="#A47B45"/>
<path d="M127.776 341.649L134.374 349.979C277.663 357.746 353.614 343.65 387.849 315.72C395.849 309.194 398.685 303.637 398.831 296.954C399.028 287.561 393.75 278.897 385.636 274.196L372.71 266.7C367.266 264.927 362.819 263.874 359.141 263.343C354.102 262.602 350.528 262.842 347.878 263.551C342.559 264.969 340.969 268.253 338.766 269.275C337.177 270.015 336.086 275.488 335.441 282.348C334.423 293.149 334.517 307.37 335.514 311.832C337.135 319.13 331.078 339.22 315.939 331.963C304.656 326.553 277.642 318.327 257.994 313.364C254.462 312.478 251.158 311.686 248.238 311.05C245.599 310.466 243.272 309.997 241.339 309.674C225.338 306.984 220.195 319.421 222.242 319.755C224.289 320.089 244.737 329.461 244.737 329.461C199.571 312.176 196.122 322.778 172.194 337.739C156.068 347.821 141.522 346.1 133.74 343.901C129.968 342.837 127.797 341.67 127.797 341.67C127.485 341.586 127.163 341.492 126.82 341.398" fill="#1F1C12"/>
<path d="M158.015 334.772C158.015 331.856 160.753 329.782 161.84 327.283C163.73 328.143 165.099 329.41 166.847 330.243C177.949 343.599 188.636 351.628 188.636 351.628C188.636 351.628 177.702 350.272 173.321 347.206C170.857 352.044 173.321 360.366 173.321 360.366C173.321 360.366 162.864 353.808 160.577 347.206C159.349 352.106 154.597 357.246 153.043 358.469C152.495 348.765 151.842 339.07 151.453 329.366C153.643 331.032 155.277 333.522 158.015 334.772Z" fill="#495E5B"/>
<path d="M113.453 348.395C132.23 339.985 145.681 321.915 153.878 311.635C157.825 318.592 162.374 324.848 166.861 330.237C165.112 329.404 163.743 328.145 161.853 327.277C160.758 329.776 158.029 331.85 158.029 334.765C155.291 333.516 153.657 331.025 151.466 329.359C151.855 339.063 152.509 348.759 153.056 358.463C152.747 358.711 152.562 358.8 152.562 358.693C152.562 358.073 147.483 345.17 147.483 345.17C142.166 353.491 135.056 356.194 135.056 356.194C135.056 356.194 134.235 348.183 135.056 347.199C130.411 350.788 121.384 353.021 121.384 353.021L125.209 347.199C125.209 347.199 121.384 348.759 113.453 348.395Z" fill="#102038"/>
<path d="M150.863 306.075C152.267 307.183 153.672 308.299 155.076 309.407C154.608 306.819 155.544 304.223 156.012 301.635C157.902 302.884 159.792 303.788 161.824 304.471C168.465 312.438 176.6 320.148 181.033 323.666C170.046 322.745 165.604 319.962 165.604 319.962L165.136 327.185L158.123 320.892L153.778 324.889C150.969 318.89 148.955 312.651 150.872 306.075H150.863Z" fill="#495E5B"/>
<path d="M122.11 320.709C134.219 315.879 153.429 294.441 153.402 292.35C155.31 296.089 158.366 300.317 161.828 304.473C159.797 303.782 157.907 302.878 156.017 301.637C155.549 304.225 154.612 306.822 155.081 309.409C153.676 308.302 152.272 307.185 150.868 306.077C148.951 312.653 150.965 318.883 153.773 324.892L153.535 325.113L147.927 319.787C145.25 325.344 139.174 325.893 139.174 325.893L140.578 320.15C140.578 320.15 135.2 324.741 128.885 325.113C132.629 321.967 133.327 319.043 133.327 319.043C133.327 319.043 127.251 321.453 122.102 320.709H122.11Z" fill="#102038"/>
<path d="M155.89 280.323C157.382 281.582 159.096 282.654 160.809 283.691C167.495 292.163 174.04 297.1 174.04 297.1C174.04 297.1 168.687 296.701 162.787 295.008C163.406 300.405 163.927 303.011 163.927 303.011C163.927 303.011 155.925 299.014 154.512 296.568C153.62 300.636 151.818 303.028 150.396 304.358C150.272 303.64 150.175 302.931 150.122 302.213C149.301 294.565 148.471 285.88 155.89 280.314V280.323Z" fill="#495E5B"/>
<path d="M133.017 297.817C141.124 290.488 152.394 270.477 152.394 270.477C154.408 274.58 156.766 278.293 159.177 281.563C159.716 282.299 160.264 283.008 160.811 283.699C159.107 282.671 157.393 281.59 155.892 280.331C148.473 285.888 149.303 294.582 150.124 302.23C150.177 302.948 150.275 303.657 150.398 304.375C149.259 305.429 148.367 305.81 148.367 305.81L147.316 297.825L146.804 298.047L140.524 300.768C141.831 298.853 142.414 294.325 142.414 294.325C142.414 294.325 137.556 297.489 133.008 297.825L133.017 297.817Z" fill="#102038"/>
<path d="M142.141 252.777C142.114 252.724 142.088 252.68 142.07 252.627C142.123 252.645 142.141 252.698 142.141 252.777Z" fill="url(#paint8_linear_708_50398)"/>
<path d="M120.317 323.227C120.317 319.009 124.282 315.996 125.863 312.371C128.601 313.621 130.589 315.446 133.123 316.652C149.224 336.007 164.707 347.643 164.707 347.643C164.707 347.643 148.853 345.675 142.512 341.235C138.944 348.245 142.512 360.307 142.512 360.307C142.512 360.307 127.356 350.807 124.035 341.235C122.26 348.334 115.362 355.796 113.11 357.56C112.315 343.504 111.361 329.44 110.805 315.384C113.975 317.795 116.351 321.411 120.317 323.227Z" fill="#495E5B"/>
<path d="M55.7198 342.971C82.9402 330.786 102.424 304.589 114.303 289.691C120.026 299.777 126.624 308.843 133.124 316.659C130.589 315.454 128.611 313.628 125.864 312.379C124.283 315.995 120.318 319.008 120.318 323.235C116.352 321.427 113.976 317.811 110.805 315.392C111.362 329.447 112.316 343.512 113.111 357.567C112.66 357.922 112.395 358.055 112.395 357.904C112.395 357 105.038 338.31 105.038 338.31C97.3365 350.371 87.0295 354.288 87.0295 354.288C87.0295 354.288 85.8371 342.679 87.0295 341.243C80.2906 346.445 67.2103 349.689 67.2103 349.689L72.7568 341.243C72.7568 341.243 67.2103 343.503 55.7109 342.971H55.7198Z" fill="#102038"/>
<path d="M109.944 281.644C111.976 283.257 114.007 284.861 116.047 286.474C115.367 282.716 116.727 278.959 117.399 275.201C120.137 277.009 122.875 278.321 125.816 279.313C135.434 290.87 147.225 302.045 153.654 307.132C137.73 305.794 131.291 301.761 131.291 301.761L130.611 312.228L120.446 303.108L114.148 308.904C110.077 300.202 107.162 291.171 109.936 281.635L109.944 281.644Z" fill="#495E5B"/>
<path d="M68.2578 302.841C85.8071 295.831 113.646 264.76 113.611 261.738C116.375 267.162 120.8 273.286 125.816 279.312C122.875 278.311 120.129 276.999 117.399 275.2C116.719 278.958 115.368 282.715 116.048 286.473C114.017 284.86 111.985 283.256 109.945 281.643C107.163 291.179 110.087 300.209 114.158 308.912L113.814 309.231L105.688 301.503C101.811 309.55 93.0053 310.357 93.0053 310.357L95.0367 302.035C95.0367 302.035 87.2379 308.682 78.0879 309.222C83.5108 304.658 84.5265 300.422 84.5265 300.422C84.5265 300.422 75.7121 303.914 68.2578 302.841Z" fill="#102038"/>
<path d="M117.233 244.317C119.397 246.143 121.878 247.703 124.36 249.192C134.058 261.475 143.535 268.627 143.535 268.627C143.535 268.627 135.78 268.042 127.231 265.596C128.131 273.412 128.882 277.196 128.882 277.196C128.882 277.196 117.286 271.409 115.245 267.864C113.956 273.758 111.342 277.232 109.284 279.155C109.107 278.118 108.966 277.081 108.886 276.044C107.694 264.958 106.502 252.364 117.25 244.309L117.233 244.317Z" fill="#495E5B"/>
<path d="M84.0703 269.663C95.817 259.046 112.156 230.031 112.156 230.031C115.071 235.969 118.498 241.357 121.995 246.099C122.781 247.162 123.567 248.19 124.362 249.191C121.889 247.694 119.407 246.143 117.235 244.317C106.486 252.373 107.678 264.966 108.871 276.053C108.95 277.09 109.092 278.127 109.268 279.164C107.625 280.697 106.327 281.246 106.327 281.246L104.808 269.672L104.066 269.991L94.9602 273.935C96.8591 271.161 97.707 264.603 97.707 264.603C97.707 264.603 90.6679 269.194 84.0791 269.672L84.0703 269.663Z" fill="#102038"/>
<path d="M262.873 250.366C263.006 250.467 262.333 251.694 262.262 251.842C261.624 253.199 260.795 254.742 260.602 256.22C260.405 257.74 260.428 259.089 260.562 259.916C260.613 260.248 260.861 260.512 261.184 260.607C261.79 260.78 262.431 260.853 263.042 260.985C263.155 261 263.275 261.047 263.336 261.139C263.378 261.219 263.377 261.313 263.366 261.396C263.269 262.54 262.892 263.426 264.148 263.758C264.918 263.963 265.702 264.139 266.474 264.324C267.693 264.619 268.912 264.915 270.131 265.21L270.944 260.89C270.944 260.89 266.859 253.472 265.528 252.425C264.206 251.391 262.864 250.354 262.864 250.354L262.873 250.366Z" fill="#DBA782"/>
<path d="M260.557 246.399C260.53 247.089 260.668 247.801 260.862 248.488C261.083 249.285 261.38 250.059 261.618 250.805C262.108 252.436 262.805 254.009 263.583 255.519L264.454 254.297C264.568 254.144 264.81 254.218 264.805 254.417L264.742 258.204C264.797 260.356 267.734 261.38 269.772 261.824C271.014 262.102 272.314 261.777 273.308 260.981C274.583 259.959 276.318 258.303 277.331 256.154C277.633 255.521 277.828 254.905 277.941 254.278C278.677 250.232 275.689 246.467 271.641 245.362C270.012 244.918 268.18 245.794 266.858 244.917C266.057 244.392 264.716 243.261 264.03 244.591C263.805 245.035 263.86 245.578 264.085 246.017C263.245 245.792 262.866 244.597 261.998 244.505C261.555 244.447 261.129 244.738 260.883 245.106C260.646 245.475 260.565 245.937 260.548 246.387L260.557 246.399Z" fill="#684330"/>
<g style="mix-blend-mode:multiply" opacity="0.43">
<path d="M260.874 248.501C261.096 249.287 261.394 250.061 261.63 250.818C262.12 252.448 262.817 254.021 263.595 255.531L264.466 254.31C264.58 254.156 264.822 254.23 264.817 254.429L264.754 258.216C264.81 260.368 267.746 261.392 269.784 261.836C271.026 262.114 272.326 261.789 273.32 260.993C274.595 259.971 276.33 258.316 277.343 256.166C277.645 255.533 277.841 254.917 277.953 254.29C273.437 256.793 269.113 250.804 267.252 250.94C265.379 251.075 266.602 252.306 266.602 252.306C266.602 252.306 262.601 251.575 260.885 248.492L260.874 248.501Z" fill="#684330"/>
</g>
<path d="M262.289 256.592C262.383 254.089 263.39 253.162 264.357 253.662C265.323 254.162 265.157 258.687 263.515 258.447C262.393 258.291 262.258 257.676 262.299 256.592H262.289Z" fill="#DBA782"/>
<path d="M263.044 256.616C263.28 255.206 263.914 254.763 264.423 255.114C264.933 255.464 264.508 258.005 263.598 257.75C262.972 257.574 262.944 257.223 263.044 256.616Z" fill="#D1866F"/>
<path d="M239.684 297.473C239.684 297.473 234.489 301.236 236.245 303.071L240.38 301.726L239.684 297.473Z" fill="#DBA782"/>
<path d="M282.425 287.545C282.113 285.72 281.916 283.886 281.822 282.04C281.116 269.04 276.96 267.882 276.96 267.882C273.957 267.58 272.877 264.577 272.544 263.201C272.44 262.795 272.087 262.513 271.671 262.503L261.583 262.273C261.157 262.273 260.783 262.545 260.679 262.951C260.45 263.796 259.879 265.13 258.466 265.391C258.466 265.391 249.831 267.59 243.961 291.09C243.545 292.747 242.6 294.228 241.27 295.312L238.589 297.501C238.06 297.939 237.737 298.575 237.706 299.253L237.665 300.181C237.644 300.702 238.101 301.119 238.621 301.036C241.125 300.608 245.873 300.879 248.294 300.118C251.099 299.232 251.421 297.908 253.863 296.042L250.091 301.63C251.037 303.538 252.824 304.924 254.767 305.8C256.71 306.665 258.829 307.062 260.918 307.458C261.167 307.51 261.406 307.551 261.645 307.593C266.331 308.479 271.037 309.324 275.796 309.334C275.952 309.334 276.679 303.976 276.71 303.433" fill="#494949"/>
<g style="mix-blend-mode:multiply" opacity="0.34">
<path d="M282.42 287.545C282.109 285.72 281.911 283.886 281.818 282.04C281.111 269.04 276.955 267.882 276.955 267.882C273.953 267.58 272.872 264.577 272.54 263.201C272.436 262.795 272.082 262.513 271.667 262.503L261.578 262.273C265.786 264.504 265.017 274.617 264.809 276.734C264.602 278.84 262.326 293.342 262.492 297.668C262.669 302.005 262.492 303.058 262.492 303.058C262.492 303.058 263.292 304.591 262.492 305.988C262.139 306.603 261.859 307.166 261.64 307.604C266.326 308.49 271.033 309.334 275.792 309.345C275.948 309.345 276.675 303.986 276.706 303.444L282.41 287.545H282.42Z" fill="#494949"/>
</g>
<path d="M249.574 301.785C249.792 302.661 251.174 306.32 261.097 308.499C261.149 308.499 261.201 308.52 261.242 308.531C271.3 310.699 275.144 310.313 275.788 309.719C276.443 309.125 277.149 305.841 276.422 305.851C275.165 305.872 267.549 305.153 262.614 303.443C261.658 303.109 260.806 302.744 260.12 302.348C255.85 299.857 252.005 299.043 251.517 299.127C251.029 299.21 249.356 300.92 249.574 301.796V301.785Z" fill="#6B6B6B"/>
<g style="mix-blend-mode:multiply" opacity="0.34">
<path d="M261.109 308.5C261.109 308.5 261.213 308.521 261.255 308.531C271.312 310.7 275.157 310.314 275.801 309.72C276.455 309.125 277.162 305.841 276.435 305.852C275.177 305.873 267.562 305.153 262.626 303.443C263.021 305.299 261.598 307.572 261.12 308.5H261.109Z" fill="#494949"/>
</g>
<path d="M259.009 265.137C259.009 265.137 264.173 274.197 256.879 280.599L255.383 288.532C271.134 274.812 259.923 264.23 259.923 264.23L259.009 265.148V265.137Z" fill="#686B2A"/>
<path d="M284.9 268.124C280.453 266.706 273.086 265.069 265.419 266.445C263.891 266.716 262.665 267.874 262.322 269.396C260.868 275.839 257.221 293.781 259.392 303.664C259.569 304.478 260.057 305.176 260.743 305.635C262.312 306.656 265.689 308.241 271.372 308.022L279.622 308.418C280.775 308.471 281.866 307.855 282.406 306.834C284.806 302.278 290.926 289.037 289.752 274.264C289.523 271.429 287.601 268.999 284.9 268.145V268.124Z" fill="#7A8234"/>
<path d="M265.078 267.342C263.55 266.946 262.542 267.227 261.67 271.877C260.797 276.527 258.189 287.713 258.719 295.387C259.249 303.06 258.719 305.656 262.75 306.74C266.792 307.824 267.914 290.758 267.665 284.534C267.415 278.32 268.891 268.332 265.078 267.342Z" fill="#9CA045"/>
<path d="M267.23 271.997C267.251 272.143 267.282 272.289 267.303 272.435C267.303 272.487 267.324 272.539 267.324 272.581C268.498 280.494 266.212 288.125 269.848 289.345C273.495 290.554 287.885 291.972 289.028 287.583C290.711 281.109 290.898 276.511 290.067 273.269C290.015 273.081 289.963 272.894 289.911 272.716C288.498 268.14 284.883 266.461 280.675 265.929C273.474 265.012 264.487 266.002 264.258 266.857C264.019 267.691 266.482 268.296 267.23 272.007V271.997Z" fill="#686B2A"/>
<path d="M280.029 265.755C285.671 268.445 285.495 277.015 284.196 279.715C282.897 282.415 279.489 282.645 277.016 282.082C274.544 281.529 276.757 276.629 275.125 272.282C273.494 267.934 271.219 265.547 271.219 265.547L280.029 265.745V265.755Z" fill="#838736"/>
<path d="M280.031 278.55C280.031 279.081 280.322 279.519 280.675 279.519C281.029 279.519 281.32 279.092 281.32 278.55C281.32 278.008 281.029 277.58 280.675 277.58C280.322 277.58 280.031 278.008 280.031 278.55Z" fill="white"/>
<path d="M288.227 294.263C283.967 291.187 271.073 292.167 270.034 294.263C268.995 296.358 266.917 304.052 268.091 305.575C269.265 307.097 283.666 308.713 284.944 307.378C286.232 306.044 290.586 295.973 288.217 294.263H288.227Z" fill="#686B2A"/>
<path d="M270.031 294.26C271.798 294.969 270.104 299.327 272.161 301.328C274.218 303.33 286.292 305.029 288.162 302.934C290.032 300.838 290.676 295.761 288.079 293.801C285.481 291.841 272.379 290.944 270.042 294.26H270.031Z" fill="#838736"/>
<path d="M265.961 266.578C269.701 270.529 270.231 272.656 270.034 280.997C269.847 289.337 274.564 288.785 281.826 288.399C289.089 288.013 288.653 285.24 288.923 280.6C289.193 275.961 289.089 271.322 287.125 269.049" stroke="#777736" stroke-miterlimit="10" stroke-linecap="round"/>
<path d="M272.164 293.697C273.608 294.563 272.216 298.524 273.826 300.099C275.437 301.673 281.858 301.996 284.767 301.808C287.676 301.621 287.946 301.214 288.102 299.504C288.258 297.795 288.695 295.584 287.084 293.916" stroke="#8C8C41" stroke-miterlimit="10" stroke-linecap="round"/>
<path d="M279.531 300.653C279.531 301.289 280.04 301.799 280.674 301.799C281.308 301.799 281.817 301.289 281.817 300.653C281.817 300.017 281.308 299.506 280.674 299.506C280.04 299.506 279.531 300.017 279.531 300.653Z" fill="white"/>
<path d="M254.776 294.273C255.514 294.273 259.649 295.576 262.506 293.877L262.08 289.436C262.08 289.436 257.311 292.834 255.088 289.696L254.766 294.273H254.776Z" fill="#686B2A"/>
<path d="M257.408 277.52C256.337 283.42 256.327 291.021 253.875 296.056L257.408 277.52Z" fill="#494949"/>
<path d="M257.408 277.52C256.337 283.42 256.327 291.021 253.875 296.056" stroke="#636363" stroke-miterlimit="10"/>
<g style="mix-blend-mode:overlay" opacity="0.33">
<path d="M267.222 271.998C267.243 272.144 267.274 272.29 267.295 272.436C267.295 272.488 267.316 272.54 267.316 272.581C272.552 273.436 282.558 274.687 290.059 273.259C290.008 273.071 289.956 272.884 289.904 272.707C288.491 268.13 284.875 266.451 280.667 265.92C273.467 265.002 264.479 265.993 264.251 266.847C264.012 267.681 266.474 268.286 267.222 271.998Z" fill="white"/>
</g>
<defs>
<linearGradient id="paint0_linear_708_50398" x1="127.804" y1="25.0259" x2="368.466" y2="441.029" gradientUnits="userSpaceOnUse">
<stop stop-color="#B2E1F8"/>
<stop offset="0.18" stop-color="#C2E7F9" stop-opacity="0.78"/>
<stop offset="0.48" stop-color="#DCF1FB" stop-opacity="0.45"/>
<stop offset="0.73" stop-color="#EFF8FD" stop-opacity="0.21"/>
<stop offset="0.91" stop-color="#FAFDFE" stop-opacity="0.06"/>
<stop offset="1" stop-color="white" stop-opacity="0"/>
</linearGradient>
<linearGradient id="paint1_linear_708_50398" x1="280.967" y1="71.7458" x2="280.965" y2="108.954" gradientUnits="userSpaceOnUse">
<stop stop-color="#FFCD01"/>
<stop offset="0.57" stop-color="#FFCD01" stop-opacity="0"/>
</linearGradient>
<linearGradient id="paint2_linear_708_50398" x1="236.514" y1="113.795" x2="219.558" y2="183.506" gradientUnits="userSpaceOnUse">
<stop offset="0.43" stop-color="white" stop-opacity="0"/>
<stop offset="1" stop-color="white"/>
</linearGradient>
<linearGradient id="paint3_linear_708_50398" x1="124.047" y1="148.052" x2="-57.1698" y2="149.398" gradientUnits="userSpaceOnUse">
<stop stop-color="#405370"/>
<stop offset="0.04" stop-color="#4F6078"/>
<stop offset="0.13" stop-color="#77818E"/>
<stop offset="0.24" stop-color="#989EA0"/>
<stop offset="0.35" stop-color="#B4B5AF"/>
<stop offset="0.47" stop-color="#C9C7BB"/>
<stop offset="0.6" stop-color="#D8D4C3"/>
<stop offset="0.76" stop-color="#E1DBC8"/>
<stop offset="0.99" stop-color="#E4DECA"/>
</linearGradient>
<linearGradient id="paint4_linear_708_50398" x1="112.124" y1="174.308" x2="53.3279" y2="126.704" gradientUnits="userSpaceOnUse">
<stop stop-color="#405370"/>
<stop offset="0.05" stop-color="#58687D"/>
<stop offset="0.14" stop-color="#7D8791"/>
<stop offset="0.23" stop-color="#9DA2A3"/>
<stop offset="0.33" stop-color="#B7B8B1"/>
<stop offset="0.44" stop-color="#CBC9BC"/>
<stop offset="0.57" stop-color="#D9D4C4"/>
<stop offset="0.72" stop-color="#E1DBC8"/>
<stop offset="0.99" stop-color="#E4DECA"/>
</linearGradient>
<linearGradient id="paint5_linear_708_50398" x1="96.4283" y1="155.36" x2="69.6845" y2="123.694" gradientUnits="userSpaceOnUse">
<stop stop-color="#405370"/>
<stop offset="0.02" stop-color="#445772"/>
<stop offset="0.27" stop-color="#7D8691"/>
<stop offset="0.5" stop-color="#A9ACA9"/>
<stop offset="0.7" stop-color="#C9C7BB"/>
<stop offset="0.88" stop-color="#DCD8C6"/>
<stop offset="0.99" stop-color="#E4DECA"/>
</linearGradient>
<linearGradient id="paint6_linear_708_50398" x1="151.096" y1="143.397" x2="123.026" y2="119.081" gradientUnits="userSpaceOnUse">
<stop stop-color="#405370"/>
<stop offset="0.07" stop-color="#57677D"/>
<stop offset="0.22" stop-color="#828B94"/>
<stop offset="0.37" stop-color="#A5A9A7"/>
<stop offset="0.52" stop-color="#C1C0B6"/>
<stop offset="0.68" stop-color="#D4D0C1"/>
<stop offset="0.83" stop-color="#E0DAC7"/>
<stop offset="0.99" stop-color="#E4DECA"/>
</linearGradient>
<linearGradient id="paint7_linear_708_50398" x1="328.641" y1="172.008" x2="328.734" y2="172.008" gradientUnits="userSpaceOnUse">
<stop stop-color="#506E73"/>
<stop offset="1" stop-color="#869581"/>
</linearGradient>
<linearGradient id="paint8_linear_708_50398" x1="142.141" y1="252.698" x2="142.07" y2="252.698" gradientUnits="userSpaceOnUse">
<stop stop-color="#506E73"/>
<stop offset="1" stop-color="#869581"/>
</linearGradient>
</defs>
</svg>
