<svg width="24" height="24" viewBox="0 0 24 24" fill="none" xmlns="http://www.w3.org/2000/svg">
<ellipse cx="12" cy="12" rx="12" ry="12" fill="#EDF7FF"/>
<g clip-path="url(#clip0_22368_9117)">
<path d="M12.0014 6.30774C12.0502 6.30774 12.0998 6.324 12.1404 6.3557L13.2587 7.23507L15.0288 7.1798L12.8434 5.46169C12.6045 5.27314 12.3054 5.16992 12.0006 5.16992C11.6966 5.16992 11.3976 5.27314 11.1586 5.46088L8.92848 7.21394L10.8579 7.14404L11.8616 6.35488C11.9023 6.32319 11.951 6.30693 12.0006 6.30693M16.6063 9.86913L17.9709 10.9427C18.0278 10.9858 18.0611 11.0533 18.0611 11.1256V17.8314C18.0611 17.9582 17.9587 18.0606 17.8319 18.0606H6.16682C6.04003 18.0606 5.93763 17.9582 5.93763 17.8314V11.1256C5.93763 11.0541 5.97095 10.9866 6.02784 10.9427L7.25019 9.9821L7.23149 8.54926L5.32889 10.0463C4.9973 10.3039 4.7998 10.7062 4.7998 11.1264V17.8323C4.7998 18.5865 5.41342 19.1993 6.16682 19.1993H17.8319C18.5862 19.1993 19.199 18.5857 19.199 17.8323V11.1264C19.199 10.7062 19.0015 10.3039 18.6707 10.0463L16.6242 8.43629L16.6063 9.86994V9.86913Z" fill="#1E54B0"/>
<path d="M12.0133 15.7174C11.9182 15.7174 11.8231 15.6898 11.741 15.6345L7.12065 12.521C6.98573 12.4299 6.90527 12.2788 6.90527 12.1162V7.66246C6.90527 7.18782 7.2263 6.81641 7.63673 6.81641H16.2289C16.6393 6.81641 16.9604 7.18782 16.9604 7.66246L16.9571 12.1601C16.9571 12.3202 16.8783 12.4706 16.7458 12.5616L12.2896 15.6321C12.2067 15.6898 12.11 15.7182 12.0133 15.7182V15.7174ZM7.88055 11.857L12.01 14.6397L15.9818 11.9025L15.9851 7.79087H7.88055V11.857Z" fill="#1E54B0"/>
<path d="M12.0001 15.8983C11.9034 15.8983 11.8067 15.8699 11.7238 15.8122L5.22197 11.3422C5.00009 11.1894 4.94401 10.8862 5.09681 10.6644C5.2496 10.4425 5.55275 10.3864 5.77462 10.5392L11.9969 14.8166L18.0582 10.5424C18.2785 10.3872 18.5824 10.44 18.7377 10.6603C18.8929 10.8805 18.8401 11.1845 18.6198 11.3397L12.2805 15.8097C12.196 15.8691 12.0977 15.8991 11.9993 15.8991L12.0001 15.8983Z" fill="#1E54B0"/>
<path d="M12.4603 13.0191C12.3733 13.0191 12.2863 12.9841 12.2221 12.9151L10.6259 11.1994C10.504 11.0677 10.5113 10.8621 10.6422 10.7402C10.7738 10.6183 10.9795 10.6256 11.1014 10.7564L12.6976 12.4721C12.8195 12.6038 12.8122 12.8094 12.6813 12.9313C12.6187 12.9898 12.5391 13.0183 12.4603 13.0183V13.0191Z" fill="#1E54B0"/>
<path d="M11.4191 11.3425C11.2346 11.3425 11.0314 11.3246 10.8087 11.2897C10.6316 11.262 10.5105 11.0954 10.5381 10.9183C10.5657 10.7411 10.7315 10.6192 10.9095 10.6476C11.4386 10.7305 11.8238 10.6964 11.9929 10.5517C12.1107 10.4509 12.1343 10.2843 12.1343 10.0641C12.1343 9.90153 12.0872 9.7845 11.9864 9.6951C11.7076 9.44884 11.0956 9.46103 10.9038 9.48542C10.7258 9.50736 10.5633 9.38139 10.5414 9.2034C10.5194 9.02541 10.6454 8.86286 10.8234 8.84092C10.929 8.82792 11.871 8.72633 12.4163 9.20827C12.6569 9.42121 12.7845 9.71704 12.7845 10.0649C12.7845 10.264 12.7845 10.7313 12.4155 11.0467C12.1831 11.245 11.8547 11.3441 11.4191 11.3441V11.3425Z" fill="#1E54B0"/>
<path d="M13.0564 9.48905H10.7304C10.5508 9.48905 10.4053 9.34357 10.4053 9.16396C10.4053 8.98435 10.5508 8.83887 10.7304 8.83887H13.0564C13.236 8.83887 13.3815 8.98435 13.3815 9.16396C13.3815 9.34357 13.236 9.48905 13.0564 9.48905Z" fill="#1E54B0"/>
<path d="M13.0564 10.3074H10.7304C10.5508 10.3074 10.4053 10.1619 10.4053 9.98232C10.4053 9.80271 10.5508 9.65723 10.7304 9.65723H13.0564C13.236 9.65723 13.3815 9.80271 13.3815 9.98232C13.3815 10.1619 13.236 10.3074 13.0564 10.3074Z" fill="#1E54B0"/>
</g>
<defs>
<clipPath id="clip0_22368_9117">
<rect width="14.4" height="14.0294" fill="white" transform="translate(4.7998 5.16992)"/>
</clipPath>
</defs>
</svg>
