<svg width="45" height="44" viewBox="0 0 45 44" fill="none" xmlns="http://www.w3.org/2000/svg">
<g clip-path="url(#clip0_3047_3928)">
<path opacity="0.17" d="M12.7868 5.44531H30.2229C31.1518 5.44531 32.0428 5.81434 32.6996 6.47121C33.3565 7.12808 33.7255 8.01899 33.7255 8.94794V31.1371C33.7255 31.5087 33.5779 31.865 33.3152 32.1278C33.0524 32.3905 32.6961 32.5381 32.3245 32.5381H10.6852C10.3136 32.5381 9.95729 32.3905 9.69454 32.1278C9.43179 31.865 9.28418 31.5087 9.28418 31.1371V8.94794C9.28418 8.01899 9.65321 7.12808 10.3101 6.47121C10.9669 5.81434 11.8579 5.44531 12.7868 5.44531Z" fill="url(#paint0_linear_3047_3928)"/>
<g opacity="0.17">
<path opacity="0.17" d="M11.1016 32.5469H15.8301C15.8343 32.5469 15.8383 32.5485 15.8413 32.5515C15.8442 32.5544 15.8459 32.5585 15.8459 32.5626V35.6835C15.8459 35.9157 15.7536 36.1384 15.5894 36.3027C15.4252 36.4669 15.2025 36.5591 14.9702 36.5591H11.9772C11.745 36.5591 11.5223 36.4669 11.358 36.3027C11.1938 36.1384 11.1016 35.9157 11.1016 35.6835V32.5469Z" fill="url(#paint1_linear_3047_3928)"/>
</g>
<g opacity="0.17">
<path opacity="0.17" d="M27.2764 32.5469H32.0049C32.0091 32.5469 32.0131 32.5485 32.0161 32.5515C32.019 32.5544 32.0207 32.5585 32.0207 32.5626V35.6835C32.0207 35.9157 31.9284 36.1384 31.7642 36.3027C31.6 36.4669 31.3773 36.5591 31.145 36.5591H28.152C27.9198 36.5591 27.6971 36.4669 27.5328 36.3027C27.3686 36.1384 27.2764 35.9157 27.2764 35.6835V32.5469Z" fill="url(#paint2_linear_3047_3928)"/>
</g>
<path d="M13.4746 29.3964C14.3499 29.3964 15.0595 28.6868 15.0595 27.8115C15.0595 26.9362 14.3499 26.2266 13.4746 26.2266C12.5992 26.2266 11.8896 26.9362 11.8896 27.8115C11.8896 28.6868 12.5992 29.3964 13.4746 29.3964Z" fill="#224086"/>
<path d="M29.6494 29.3964C30.5247 29.3964 31.2343 28.6868 31.2343 27.8115C31.2343 26.9362 30.5247 26.2266 29.6494 26.2266C28.7741 26.2266 28.0645 26.9362 28.0645 27.8115C28.0645 28.6868 28.7741 29.3964 29.6494 29.3964Z" fill="#224086"/>
<path d="M23.9757 29.3835H19.0335C18.9174 29.3835 18.806 29.3373 18.7239 29.2552C18.6418 29.1731 18.5957 29.0618 18.5957 28.9456C18.5957 28.8295 18.6418 28.7182 18.7239 28.6361C18.806 28.5539 18.9174 28.5078 19.0335 28.5078H23.9757C24.0918 28.5078 24.2032 28.5539 24.2853 28.6361C24.3674 28.7182 24.4136 28.8295 24.4136 28.9456C24.4136 29.0618 24.3674 29.1731 24.2853 29.2552C24.2032 29.3373 24.0918 29.3835 23.9757 29.3835Z" fill="#224086"/>
<path d="M23.9757 27.2663H19.0335C18.9174 27.2663 18.806 27.2202 18.7239 27.1381C18.6418 27.0559 18.5957 26.9446 18.5957 26.8285C18.5957 26.7123 18.6418 26.601 18.7239 26.5189C18.806 26.4368 18.9174 26.3906 19.0335 26.3906H23.9757C24.0918 26.3906 24.2032 26.4368 24.2853 26.5189C24.3674 26.601 24.4136 26.7123 24.4136 26.8285C24.4136 26.9446 24.3674 27.0559 24.2853 27.1381C24.2032 27.2202 24.0918 27.2663 23.9757 27.2663Z" fill="#224086"/>
<path d="M18.5899 23.6693H11.4551V23.2315C11.4551 22.2853 11.8309 21.378 12.5 20.7089C13.169 20.0399 14.0764 19.6641 15.0225 19.6641C15.9686 19.6641 16.876 20.0399 17.5451 20.7089C18.2141 21.378 18.5899 22.2853 18.5899 23.2315V23.6693ZM12.3658 22.7937H17.6792C17.5743 22.1649 17.2497 21.5938 16.7632 21.1818C16.2768 20.7698 15.66 20.5437 15.0225 20.5437C14.385 20.5437 13.7682 20.7698 13.2818 21.1818C12.7953 21.5938 12.4707 22.1649 12.3658 22.7937Z" fill="#224086"/>
<path d="M31.0158 11.3047H11.986C11.6842 11.3043 11.395 11.1842 11.1816 10.9708C10.9682 10.7574 10.8481 10.4681 10.8477 10.1664V8.94044C10.8481 8.45288 11.042 7.98543 11.3868 7.64067C11.7315 7.29591 12.199 7.10203 12.6865 7.10156H30.3152C30.8028 7.10203 31.2703 7.29591 31.615 7.64067C31.9598 7.98543 32.1537 8.45288 32.1541 8.94044V10.1664C32.1537 10.4681 32.0336 10.7574 31.8202 10.9708C31.6068 11.1842 31.3175 11.3043 31.0158 11.3047ZM12.6795 7.97722C12.4241 7.97722 12.1791 8.0787 11.9984 8.25934C11.8178 8.43998 11.7163 8.68498 11.7163 8.94044V10.1664C11.7163 10.236 11.744 10.3029 11.7932 10.3521C11.8425 10.4014 11.9093 10.4291 11.979 10.4291H31.0158C31.0854 10.4291 31.1523 10.4014 31.2015 10.3521C31.2508 10.3029 31.2785 10.236 31.2785 10.1664V8.94044C31.2785 8.68498 31.177 8.43998 30.9963 8.25934C30.8157 8.0787 30.5707 7.97722 30.3152 7.97722H12.6795Z" fill="#224086"/>
<path d="M34.8819 9.69531H33.9082C33.618 9.69531 33.3828 9.93054 33.3828 10.2207V15.4063C33.3828 15.6965 33.618 15.9317 33.9082 15.9317H34.8819C35.1721 15.9317 35.4073 15.6965 35.4073 15.4063V10.2207C35.4073 9.93054 35.1721 9.69531 34.8819 9.69531Z" fill="#224086"/>
<path d="M9.08739 9.69531H8.1084C7.81823 9.69531 7.58301 9.93054 7.58301 10.2207V15.4063C7.58301 15.6965 7.81823 15.9317 8.1084 15.9317H9.08739C9.37755 15.9317 9.61278 15.6965 9.61278 15.4063V10.2207C9.61278 9.93054 9.37755 9.69531 9.08739 9.69531Z" fill="#224086"/>
<path d="M33.2856 22.7969H9.72168V23.6725H33.2856V22.7969Z" fill="#329A6B"/>
<path d="M32.3238 32.9685H10.6846C10.197 32.968 9.72957 32.7741 9.38481 32.4294C9.04006 32.0846 8.84617 31.6172 8.8457 31.1296V8.94046C8.84709 7.89581 9.2627 6.89435 10.0014 6.15567C10.7401 5.41699 11.7415 5.00139 12.7862 5H30.2222C31.267 5.00093 32.2687 5.41638 33.0075 6.15516C33.7463 6.89394 34.1618 7.89567 34.1627 8.94046V31.1296C34.1622 31.6172 33.9683 32.0846 33.6236 32.4294C33.2788 32.7741 32.8114 32.968 32.3238 32.9685ZM12.7862 5.87566C11.9736 5.87658 11.1946 6.19978 10.6201 6.77434C10.0455 7.3489 9.72229 8.12791 9.72136 8.94046V31.1296C9.72136 31.3851 9.82285 31.6301 10.0035 31.8107C10.1841 31.9913 10.4291 32.0928 10.6846 32.0928H32.3238C32.5793 32.0928 32.8243 31.9913 33.0049 31.8107C33.1855 31.6301 33.287 31.3851 33.287 31.1296V8.94046C33.2861 8.12791 32.9629 7.3489 32.3883 6.77434C31.8138 6.19978 31.0348 5.87658 30.2222 5.87566H12.7862Z" fill="#224086"/>
<path d="M14.9731 36.9973H11.9766C11.6284 36.9968 11.2945 36.8583 11.0483 36.6121C10.8021 36.3658 10.6635 36.032 10.6631 35.6838V32.1094H15.833C15.9531 32.1098 16.0682 32.1578 16.1532 32.2427C16.2382 32.3277 16.2861 32.4428 16.2866 32.563V35.6838C16.2866 36.0322 16.1482 36.3663 15.9018 36.6126C15.6555 36.8589 15.3214 36.9973 14.9731 36.9973ZM11.5387 32.985V35.6838C11.5387 35.7999 11.5849 35.9113 11.667 35.9934C11.7491 36.0755 11.8605 36.1216 11.9766 36.1216H14.9731C15.0892 36.1216 15.2006 36.0755 15.2827 35.9934C15.3648 35.9113 15.4109 35.7999 15.4109 35.6838V32.985H11.5387Z" fill="#224086"/>
<path d="M31.1488 36.9973H28.1524C27.804 36.9973 27.4699 36.8589 27.2236 36.6126C26.9772 36.3663 26.8389 36.0322 26.8389 35.6838V32.1094H32.0087C32.1289 32.1098 32.244 32.1578 32.329 32.2427C32.4139 32.3277 32.4619 32.4428 32.4623 32.563V35.6838C32.4619 36.032 32.3233 36.3658 32.0771 36.6121C31.8309 36.8583 31.4971 36.9968 31.1488 36.9973ZM27.7145 32.985V35.6838C27.7145 35.7999 27.7607 35.9113 27.8428 35.9934C27.9249 36.0755 28.0362 36.1216 28.1524 36.1216H31.1488C31.2648 36.1212 31.3759 36.0749 31.4579 35.9929C31.5399 35.9109 31.5862 35.7998 31.5867 35.6838V32.985H27.7145Z" fill="#224086"/>
</g>
<defs>
<linearGradient id="paint0_linear_3047_3928" x1="9.28418" y1="18.9917" x2="33.7255" y2="18.9917" gradientUnits="userSpaceOnUse">
<stop offset="0.16" stop-color="#C4E8F5"/>
<stop offset="0.36" stop-color="#29ABE2"/>
<stop offset="1" stop-color="#089761"/>
</linearGradient>
<linearGradient id="paint1_linear_3047_3928" x1="11.1016" y1="34.5521" x2="15.8494" y2="34.5521" gradientUnits="userSpaceOnUse">
<stop offset="0.16" stop-color="#C4E8F5"/>
<stop offset="0.36" stop-color="#29ABE2"/>
<stop offset="1" stop-color="#089761"/>
</linearGradient>
<linearGradient id="paint2_linear_3047_3928" x1="27.2764" y1="34.5521" x2="32.0224" y2="34.5521" gradientUnits="userSpaceOnUse">
<stop offset="0.16" stop-color="#C4E8F5"/>
<stop offset="0.36" stop-color="#29ABE2"/>
<stop offset="1" stop-color="#089761"/>
</linearGradient>
<clipPath id="clip0_3047_3928">
<rect width="27.8249" height="32" fill="white" transform="translate(7.58301 5)"/>
</clipPath>
</defs>
</svg>
