<svg width="22" height="22" viewBox="0 0 22 22" fill="none" xmlns="http://www.w3.org/2000/svg">
<g clip-path="url(#clip0_15188_58768)">
<g clip-path="url(#clip1_15188_58768)">
<path d="M16.2555 13.3187C16.2316 13.2829 16.1004 13.2233 15.9811 13.1637C15.9334 13.1399 15.8857 13.116 15.838 13.0922C15.5517 12.9491 14.311 12.353 14.0963 12.2695C14.0128 12.2457 13.9293 12.2099 13.8816 12.2099C13.8577 12.2099 13.81 12.2099 13.7265 12.3292C13.5476 12.5914 13.0585 13.1756 12.8915 13.3545C12.7722 13.4976 12.629 13.5572 12.4739 13.5572C12.3666 13.5572 12.2473 13.5214 12.1161 13.4618C12.0803 13.4379 12.0206 13.4141 11.9491 13.3783C11.5912 13.2233 10.8396 12.9014 10.0046 12.1622C9.21726 11.4588 8.68045 10.5885 8.52537 10.35C8.29871 9.96851 8.5373 9.73007 8.65659 9.59892C8.72816 9.52739 8.81167 9.42008 8.9071 9.31278C8.95482 9.25317 9.00253 9.20548 9.03832 9.15779C9.13376 9.05049 9.16955 8.96703 9.24112 8.83589L9.27691 8.76435C9.32462 8.68089 9.3127 8.59744 9.25305 8.47821C9.21726 8.39476 9.03832 7.97747 8.77588 7.33366C8.65659 7.0356 8.5373 6.74946 8.45379 6.57063C8.32257 6.24872 8.21521 6.24872 8.16749 6.24872C8.14363 6.24872 8.1317 6.24872 8.10784 6.24872C8.08399 6.24872 8.06013 6.24872 8.03627 6.24872C7.95276 6.24872 7.88119 6.24872 7.79768 6.2368C7.71418 6.2368 7.63068 6.22488 7.54717 6.22488C7.45174 6.22488 7.21315 6.24872 6.9865 6.48717C6.97457 6.49909 6.95071 6.52294 6.92685 6.54678C6.66441 6.821 6.12759 7.39327 6.12759 8.50206C6.12759 9.61084 6.90299 10.7315 7.14158 11.0415C7.15351 11.0535 7.17736 11.0892 7.21315 11.1369C8.44186 12.9372 9.95687 14.2606 11.4838 14.8567C12.7364 15.3455 13.5237 15.5721 13.9412 15.5721C14.0725 15.5721 14.1679 15.5482 14.2633 15.5244C14.3349 15.5124 14.4065 15.4886 14.5019 15.4767C14.9075 15.4409 15.8976 14.9044 16.0885 14.3798C16.2794 13.8552 16.2794 13.4141 16.2555 13.3187ZM16.2555 13.3187C16.2316 13.2829 16.1004 13.2233 15.9811 13.1637C15.9334 13.1399 15.8857 13.116 15.838 13.0922C15.5517 12.9491 14.311 12.353 14.0963 12.2695C14.0128 12.2457 13.9293 12.2099 13.8816 12.2099C13.8577 12.2099 13.81 12.2099 13.7265 12.3292C13.5476 12.5914 13.0585 13.1756 12.8915 13.3545C12.7722 13.4976 12.629 13.5572 12.4739 13.5572C12.3666 13.5572 12.2473 13.5214 12.1161 13.4618C12.0803 13.4379 12.0206 13.4141 11.9491 13.3783C11.5912 13.2233 10.8396 12.9014 10.0046 12.1622C9.21726 11.4588 8.68045 10.5885 8.52537 10.35C8.29871 9.96851 8.5373 9.73007 8.65659 9.59892C8.72816 9.52739 8.81167 9.42008 8.9071 9.31278C8.95482 9.25317 9.00253 9.20548 9.03832 9.15779C9.13376 9.05049 9.16955 8.96703 9.24112 8.83589L9.27691 8.76435C9.32462 8.68089 9.3127 8.59744 9.25305 8.47821C9.21726 8.39476 9.03832 7.97747 8.77588 7.33366C8.65659 7.0356 8.5373 6.74946 8.45379 6.57063C8.32257 6.24872 8.21521 6.24872 8.16749 6.24872C8.14363 6.24872 8.1317 6.24872 8.10784 6.24872C8.08399 6.24872 8.06013 6.24872 8.03627 6.24872C7.95276 6.24872 7.88119 6.24872 7.79768 6.2368C7.71418 6.2368 7.63068 6.22488 7.54717 6.22488C7.45174 6.22488 7.21315 6.24872 6.9865 6.48717C6.97457 6.49909 6.95071 6.52294 6.92685 6.54678C6.66441 6.821 6.12759 7.39327 6.12759 8.50206C6.12759 9.61084 6.90299 10.7315 7.14158 11.0415C7.15351 11.0535 7.17736 11.0892 7.21315 11.1369C8.44186 12.9372 9.95687 14.2606 11.4838 14.8567C12.7364 15.3455 13.5237 15.5721 13.9412 15.5721C14.0725 15.5721 14.1679 15.5482 14.2633 15.5244C14.3349 15.5124 14.4065 15.4886 14.5019 15.4767C14.9075 15.4409 15.8976 14.9044 16.0885 14.3798C16.2794 13.8552 16.2794 13.4141 16.2555 13.3187ZM16.2555 13.3187C16.2316 13.2829 16.1004 13.2233 15.9811 13.1637C15.9334 13.1399 15.8857 13.116 15.838 13.0922C15.5517 12.9491 14.311 12.353 14.0963 12.2695C14.0128 12.2457 13.9293 12.2099 13.8816 12.2099C13.8577 12.2099 13.81 12.2099 13.7265 12.3292C13.5476 12.5914 13.0585 13.1756 12.8915 13.3545C12.7722 13.4976 12.629 13.5572 12.4739 13.5572C12.3666 13.5572 12.2473 13.5214 12.1161 13.4618C12.0803 13.4379 12.0206 13.4141 11.9491 13.3783C11.5912 13.2233 10.8396 12.9014 10.0046 12.1622C9.21726 11.4588 8.68045 10.5885 8.52537 10.35C8.29871 9.96851 8.5373 9.73007 8.65659 9.59892C8.72816 9.52739 8.81167 9.42008 8.9071 9.31278C8.95482 9.25317 9.00253 9.20548 9.03832 9.15779C9.13376 9.05049 9.16955 8.96703 9.24112 8.83589L9.27691 8.76435C9.32462 8.68089 9.3127 8.59744 9.25305 8.47821C9.21726 8.39476 9.03832 7.97747 8.77588 7.33366C8.65659 7.0356 8.5373 6.74946 8.45379 6.57063C8.32257 6.24872 8.21521 6.24872 8.16749 6.24872C8.14363 6.24872 8.1317 6.24872 8.10784 6.24872C8.08399 6.24872 8.06013 6.24872 8.03627 6.24872C7.95276 6.24872 7.88119 6.24872 7.79768 6.2368C7.71418 6.2368 7.63068 6.22488 7.54717 6.22488C7.45174 6.22488 7.21315 6.24872 6.9865 6.48717C6.97457 6.49909 6.95071 6.52294 6.92685 6.54678C6.66441 6.821 6.12759 7.39327 6.12759 8.50206C6.12759 9.61084 6.90299 10.7315 7.14158 11.0415C7.15351 11.0535 7.17736 11.0892 7.21315 11.1369C8.44186 12.9372 9.95687 14.2606 11.4838 14.8567C12.7364 15.3455 13.5237 15.5721 13.9412 15.5721C14.0725 15.5721 14.1679 15.5482 14.2633 15.5244C14.3349 15.5124 14.4065 15.4886 14.5019 15.4767C14.9075 15.4409 15.8976 14.9044 16.0885 14.3798C16.2794 13.8552 16.2794 13.4141 16.2555 13.3187ZM16.2555 13.3187C16.2316 13.2829 16.1004 13.2233 15.9811 13.1637C15.9334 13.1399 15.8857 13.116 15.838 13.0922C15.5517 12.9491 14.311 12.353 14.0963 12.2695C14.0128 12.2457 13.9293 12.2099 13.8816 12.2099C13.8577 12.2099 13.81 12.2099 13.7265 12.3292C13.5476 12.5914 13.0585 13.1756 12.8915 13.3545C12.7722 13.4976 12.629 13.5572 12.4739 13.5572C12.3666 13.5572 12.2473 13.5214 12.1161 13.4618C12.0803 13.4379 12.0206 13.4141 11.9491 13.3783C11.5912 13.2233 10.8396 12.9014 10.0046 12.1622C9.21726 11.4588 8.68045 10.5885 8.52537 10.35C8.29871 9.96851 8.5373 9.73007 8.65659 9.59892C8.72816 9.52739 8.81167 9.42008 8.9071 9.31278C8.95482 9.25317 9.00253 9.20548 9.03832 9.15779C9.13376 9.05049 9.16955 8.96703 9.24112 8.83589L9.27691 8.76435C9.32462 8.68089 9.3127 8.59744 9.25305 8.47821C9.21726 8.39476 9.03832 7.97747 8.77588 7.33366C8.65659 7.0356 8.5373 6.74946 8.45379 6.57063C8.32257 6.24872 8.21521 6.24872 8.16749 6.24872C8.14363 6.24872 8.1317 6.24872 8.10784 6.24872C8.08399 6.24872 8.06013 6.24872 8.03627 6.24872C7.95276 6.24872 7.88119 6.24872 7.79768 6.2368C7.71418 6.2368 7.63068 6.22488 7.54717 6.22488C7.45174 6.22488 7.21315 6.24872 6.9865 6.48717C6.97457 6.49909 6.95071 6.52294 6.92685 6.54678C6.66441 6.821 6.12759 7.39327 6.12759 8.50206C6.12759 9.61084 6.90299 10.7315 7.14158 11.0415C7.15351 11.0535 7.17736 11.0892 7.21315 11.1369C8.44186 12.9372 9.95687 14.2606 11.4838 14.8567C12.7364 15.3455 13.5237 15.5721 13.9412 15.5721C14.0725 15.5721 14.1679 15.5482 14.2633 15.5244C14.3349 15.5124 14.4065 15.4886 14.5019 15.4767C14.9075 15.4409 15.8976 14.9044 16.0885 14.3798C16.2794 13.8552 16.2794 13.4141 16.2555 13.3187ZM11.0901 0.549805C5.37605 0.549805 0.723655 5.16378 0.723655 10.8269C0.723655 12.6987 1.23661 14.5348 2.21481 16.1324L2.26252 16.2039L2.23867 16.2874L0.568575 21.2233C0.520858 21.3663 0.65208 21.4975 0.795231 21.4498L5.94865 19.8164L6.02023 19.7926L6.09181 19.8284C7.61875 20.6629 9.34848 21.1041 11.1021 21.1041C16.8162 21.1041 21.4686 16.4901 21.4686 10.8269C21.4447 5.16378 16.8042 0.549805 11.0901 0.549805ZM11.0901 19.7926C9.37234 19.7926 7.70225 19.3157 6.25881 18.3977C6.2111 18.3738 6.16338 18.3619 6.10373 18.3738L2.85899 19.3991C2.71584 19.4468 2.58461 19.3038 2.63233 19.1726L3.6821 16.0847C3.70596 16.0251 3.69403 15.9774 3.65824 15.9297C2.59654 14.4275 2.0478 12.663 2.0478 10.8269C2.0478 5.87913 6.10373 1.86127 11.0901 1.86127C13.4999 1.86127 15.7664 2.79122 17.4842 4.4842C19.1901 6.17719 20.1325 8.43052 20.1325 10.815C20.1206 15.7628 16.0646 19.7926 11.0901 19.7926ZM15.9811 13.1637C15.9334 13.1399 15.8857 13.116 15.838 13.0922C15.5517 12.9491 14.311 12.353 14.0963 12.2695C14.0128 12.2457 13.9293 12.2099 13.8816 12.2099C13.8577 12.2099 13.81 12.2099 13.7265 12.3292C13.5476 12.5914 13.0585 13.1756 12.8915 13.3545C12.7722 13.4976 12.629 13.5572 12.4739 13.5572C12.3666 13.5572 12.2473 13.5214 12.1161 13.4618C12.0803 13.4379 12.0206 13.4141 11.9491 13.3783C11.5912 13.2233 10.8396 12.9014 10.0046 12.1622C9.21726 11.4588 8.68045 10.5885 8.52537 10.35C8.29871 9.96851 8.5373 9.73007 8.65659 9.59892C8.72816 9.52739 8.81167 9.42008 8.9071 9.31278C8.95482 9.25317 9.00253 9.20548 9.03832 9.15779C9.13376 9.05049 9.16955 8.96703 9.24112 8.83589L9.27691 8.76435C9.32462 8.68089 9.3127 8.59744 9.25305 8.47821C9.21726 8.39476 9.03832 7.97747 8.77588 7.33366C8.65659 7.0356 8.5373 6.74946 8.45379 6.57063C8.32257 6.24872 8.21521 6.24872 8.16749 6.24872C8.14363 6.24872 8.1317 6.24872 8.10784 6.24872C8.08399 6.24872 8.06013 6.24872 8.03627 6.24872C7.95276 6.24872 7.88119 6.24872 7.79768 6.2368C7.71418 6.2368 7.63068 6.22488 7.54717 6.22488C7.45174 6.22488 7.21315 6.24872 6.9865 6.48717C6.97457 6.49909 6.95071 6.52294 6.92685 6.54678C6.66441 6.821 6.12759 7.39327 6.12759 8.50206C6.12759 9.61084 6.90299 10.7315 7.14158 11.0415C7.15351 11.0535 7.17736 11.0892 7.21315 11.1369C8.44186 12.9372 9.95687 14.2606 11.4838 14.8567C12.7364 15.3455 13.5237 15.5721 13.9412 15.5721C14.0725 15.5721 14.1679 15.5482 14.2633 15.5244C14.3349 15.5124 14.4065 15.4886 14.5019 15.4767C14.9075 15.4409 15.8976 14.9044 16.0885 14.3798C16.2794 13.8433 16.2794 13.4022 16.2555 13.3068C16.2197 13.2829 16.1004 13.2233 15.9811 13.1637ZM16.2555 13.3187C16.2316 13.2829 16.1004 13.2233 15.9811 13.1637C15.9334 13.1399 15.8857 13.116 15.838 13.0922C15.5517 12.9491 14.311 12.353 14.0963 12.2695C14.0128 12.2457 13.9293 12.2099 13.8816 12.2099C13.8577 12.2099 13.81 12.2099 13.7265 12.3292C13.5476 12.5914 13.0585 13.1756 12.8915 13.3545C12.7722 13.4976 12.629 13.5572 12.4739 13.5572C12.3666 13.5572 12.2473 13.5214 12.1161 13.4618C12.0803 13.4379 12.0206 13.4141 11.9491 13.3783C11.5912 13.2233 10.8396 12.9014 10.0046 12.1622C9.21726 11.4588 8.68045 10.5885 8.52537 10.35C8.29871 9.96851 8.5373 9.73007 8.65659 9.59892C8.72816 9.52739 8.81167 9.42008 8.9071 9.31278C8.95482 9.25317 9.00253 9.20548 9.03832 9.15779C9.13376 9.05049 9.16955 8.96703 9.24112 8.83589L9.27691 8.76435C9.32462 8.68089 9.3127 8.59744 9.25305 8.47821C9.21726 8.39476 9.03832 7.97747 8.77588 7.33366C8.65659 7.0356 8.5373 6.74946 8.45379 6.57063C8.32257 6.24872 8.21521 6.24872 8.16749 6.24872C8.14363 6.24872 8.1317 6.24872 8.10784 6.24872C8.08399 6.24872 8.06013 6.24872 8.03627 6.24872C7.95276 6.24872 7.88119 6.24872 7.79768 6.2368C7.71418 6.2368 7.63068 6.22488 7.54717 6.22488C7.45174 6.22488 7.21315 6.24872 6.9865 6.48717C6.97457 6.49909 6.95071 6.52294 6.92685 6.54678C6.66441 6.821 6.12759 7.39327 6.12759 8.50206C6.12759 9.61084 6.90299 10.7315 7.14158 11.0415C7.15351 11.0535 7.17736 11.0892 7.21315 11.1369C8.44186 12.9372 9.95687 14.2606 11.4838 14.8567C12.7364 15.3455 13.5237 15.5721 13.9412 15.5721C14.0725 15.5721 14.1679 15.5482 14.2633 15.5244C14.3349 15.5124 14.4065 15.4886 14.5019 15.4767C14.9075 15.4409 15.8976 14.9044 16.0885 14.3798C16.2794 13.8552 16.2794 13.4141 16.2555 13.3187ZM16.2555 13.3187C16.2316 13.2829 16.1004 13.2233 15.9811 13.1637C15.9334 13.1399 15.8857 13.116 15.838 13.0922C15.5517 12.9491 14.311 12.353 14.0963 12.2695C14.0128 12.2457 13.9293 12.2099 13.8816 12.2099C13.8577 12.2099 13.81 12.2099 13.7265 12.3292C13.5476 12.5914 13.0585 13.1756 12.8915 13.3545C12.7722 13.4976 12.629 13.5572 12.4739 13.5572C12.3666 13.5572 12.2473 13.5214 12.1161 13.4618C12.0803 13.4379 12.0206 13.4141 11.9491 13.3783C11.5912 13.2233 10.8396 12.9014 10.0046 12.1622C9.21726 11.4588 8.68045 10.5885 8.52537 10.35C8.29871 9.96851 8.5373 9.73007 8.65659 9.59892C8.72816 9.52739 8.81167 9.42008 8.9071 9.31278C8.95482 9.25317 9.00253 9.20548 9.03832 9.15779C9.13376 9.05049 9.16955 8.96703 9.24112 8.83589L9.27691 8.76435C9.32462 8.68089 9.3127 8.59744 9.25305 8.47821C9.21726 8.39476 9.03832 7.97747 8.77588 7.33366C8.65659 7.0356 8.5373 6.74946 8.45379 6.57063C8.32257 6.24872 8.21521 6.24872 8.16749 6.24872C8.14363 6.24872 8.1317 6.24872 8.10784 6.24872C8.08399 6.24872 8.06013 6.24872 8.03627 6.24872C7.95276 6.24872 7.88119 6.24872 7.79768 6.2368C7.71418 6.2368 7.63068 6.22488 7.54717 6.22488C7.45174 6.22488 7.21315 6.24872 6.9865 6.48717C6.97457 6.49909 6.95071 6.52294 6.92685 6.54678C6.66441 6.821 6.12759 7.39327 6.12759 8.50206C6.12759 9.61084 6.90299 10.7315 7.14158 11.0415C7.15351 11.0535 7.17736 11.0892 7.21315 11.1369C8.44186 12.9372 9.95687 14.2606 11.4838 14.8567C12.7364 15.3455 13.5237 15.5721 13.9412 15.5721C14.0725 15.5721 14.1679 15.5482 14.2633 15.5244C14.3349 15.5124 14.4065 15.4886 14.5019 15.4767C14.9075 15.4409 15.8976 14.9044 16.0885 14.3798C16.2794 13.8552 16.2794 13.4141 16.2555 13.3187Z" fill="white"/>
</g>
</g>
<defs>
<clipPath id="clip0_15188_58768">
<rect width="22" height="22" fill="white"/>
</clipPath>
<clipPath id="clip1_15188_58768">
<rect width="20.9" height="20.9" fill="white" transform="translate(0.546875 0.549805)"/>
</clipPath>
</defs>
</svg>
