<svg width="23" height="23" viewBox="0 0 23 23" fill="none" xmlns="http://www.w3.org/2000/svg">
<g clip-path="url(#clip0_2_31495)">
<path d="M9.32234 15.9844C9.18066 15.9844 9.03986 15.928 8.93514 15.8163L5.3993 12.0147C5.20042 11.8008 5.21274 11.4673 5.42658 11.2684C5.64042 11.0696 5.97394 11.0819 6.17282 11.2957L9.70866 15.0973C9.90754 15.3112 9.89522 15.6447 9.68138 15.8436C9.5793 15.9377 9.45082 15.9852 9.32234 15.9852V15.9844Z" fill="#46B173"/>
<path d="M7.01774 12.2702C6.61998 12.2702 6.1791 12.2315 5.69246 12.1558C5.4047 12.1109 5.20758 11.8399 5.25246 11.5521C5.29734 11.2643 5.56838 11.0672 5.85614 11.1121C7.10222 11.3083 7.98574 11.2195 8.41166 10.8551C8.72758 10.585 8.7927 10.1696 8.7927 9.62842C8.7927 9.2157 8.66422 8.90154 8.4011 8.66746C7.73142 8.07434 6.3331 8.09722 5.84998 8.1553C5.56134 8.1905 5.29734 7.98458 5.26214 7.69594C5.22694 7.40642 5.4311 7.1433 5.72062 7.10722C5.81038 7.09578 7.93382 6.84498 9.09894 7.87458C9.58998 8.30842 9.84958 8.91474 9.84958 9.62842C9.84958 10.0438 9.84958 11.0162 9.09894 11.6577C8.62022 12.0669 7.93382 12.2702 7.01862 12.2702H7.01774Z" fill="#46B173"/>
<path d="M10.6422 8.16147H5.48894C5.19766 8.16147 4.96094 7.92475 4.96094 7.63347C4.96094 7.34219 5.19766 7.10547 5.48894 7.10547H10.6422C10.9335 7.10547 11.1702 7.34219 11.1702 7.63347C11.1702 7.92475 10.9335 8.16147 10.6422 8.16147Z" fill="#46B173"/>
<path d="M10.6422 10.3373H5.48894C5.19766 10.3373 4.96094 10.1005 4.96094 9.80925C4.96094 9.51797 5.19766 9.28125 5.48894 9.28125H10.6422C10.9335 9.28125 11.1702 9.51797 11.1702 9.80925C11.1702 10.1005 10.9335 10.3373 10.6422 10.3373Z" fill="#46B173"/>
<path d="M20.916 19.2732H2.084C1.21016 19.2732 0.5 18.563 0.5 17.6892V5.36916C0.5 4.49532 1.21016 3.78516 2.084 3.78516H14.1761C14.4674 3.78516 14.7041 4.02188 14.7041 4.31316C14.7041 4.60444 14.4674 4.84116 14.1761 4.84116H2.084C1.79272 4.84116 1.556 5.07788 1.556 5.36916V17.6892C1.556 17.9804 1.79272 18.2172 2.084 18.2172H20.916C21.2073 18.2172 21.444 17.9804 21.444 17.6892V12.0572C21.444 11.7659 21.6807 11.5292 21.972 11.5292C22.2633 11.5292 22.5 11.7659 22.5 12.0572V17.6892C22.5 18.563 21.7898 19.2732 20.916 19.2732Z" fill="#174E7F"/>
<path d="M18.4639 11.6759C16.2806 11.6759 14.5039 9.89914 14.5039 7.71586C14.5039 5.53258 16.2806 3.75586 18.4639 3.75586C20.6472 3.75586 22.4239 5.53258 22.4239 7.71586C22.4239 9.89914 20.6472 11.6759 18.4639 11.6759ZM18.4639 4.81186C16.8623 4.81186 15.5599 6.11426 15.5599 7.71586C15.5599 9.31746 16.8623 10.6199 18.4639 10.6199C20.0655 10.6199 21.3679 9.31746 21.3679 7.71586C21.3679 6.11426 20.0655 4.81186 18.4639 4.81186Z" fill="#174E7F"/>
<path d="M19.8897 8.64909H18.1939C17.951 8.64909 17.7539 8.45197 17.7539 8.20909V6.75445C17.7539 6.51157 17.951 6.31445 18.1939 6.31445C18.4368 6.31445 18.6339 6.51157 18.6339 6.75445V7.76909H19.8897C20.1325 7.76909 20.3297 7.96621 20.3297 8.20909C20.3297 8.45197 20.1325 8.64909 19.8897 8.64909Z" fill="#174E7F"/>
</g>
<defs>
<clipPath id="clip0_2_31495">
<rect width="22" height="22" fill="white" transform="translate(0.5 0.5)"/>
</clipPath>
</defs>
</svg>
