<svg width="17" height="17" viewBox="0 0 17 17" fill="none" xmlns="http://www.w3.org/2000/svg">
<g clip-path="url(#clip0_708_45182)">
<path d="M15.1655 16.6758H2.20305C1.38007 16.6758 0.710938 16.0072 0.710938 15.1847V3.12976C0.710938 2.30735 1.38007 1.63867 2.20305 1.63867H15.1655C15.9885 1.63867 16.6576 2.30735 16.6576 3.12976V15.1847C16.6576 16.0072 15.9885 16.6758 15.1655 16.6758ZM2.20305 2.88854C2.06984 2.88854 1.96166 2.99665 1.96166 3.12976V15.1847C1.96166 15.3179 2.06984 15.426 2.20305 15.426H15.1655C15.2987 15.426 15.4069 15.3179 15.4069 15.1847V3.12976C15.4069 2.99665 15.2987 2.88854 15.1655 2.88854H2.20305Z" fill="#3398D5"/>
<path d="M4.92572 3.94228C4.57428 3.94228 4.28906 3.6571 4.28906 3.30573V1.24397C4.28906 0.892594 4.57428 0.607422 4.92572 0.607422C5.27715 0.607422 5.56237 0.892594 5.56237 1.24397V3.30573C5.56237 3.6571 5.27715 3.94228 4.92572 3.94228Z" fill="#3398D5"/>
<path d="M12.1688 3.94228C11.8341 3.94228 11.5625 3.6571 11.5625 3.30573V1.24397C11.5625 0.892594 11.8341 0.607422 12.1688 0.607422C12.5035 0.607422 12.7752 0.892594 12.7752 1.24397V3.30573C12.7752 3.6571 12.5035 3.94228 12.1688 3.94228Z" fill="#3398D5"/>
<path d="M15.5452 6.49002H1.82195C1.47604 6.49002 1.19531 6.21838 1.19531 5.88368C1.19531 5.54898 1.47604 5.27734 1.82195 5.27734H15.5452C15.8911 5.27734 16.1718 5.54898 16.1718 5.88368C16.1718 6.21838 15.8911 6.49002 15.5452 6.49002Z" fill="#3398D5"/>
</g>
<defs>
<clipPath id="clip0_708_45182">
<rect width="16" height="16" fill="white" transform="translate(0.710938 0.660156)"/>
</clipPath>
</defs>
</svg>
