<svg width="24" height="24" viewBox="0 0 24 24" fill="none" xmlns="http://www.w3.org/2000/svg">
<ellipse cx="12" cy="12" rx="12" ry="12" fill="#EDF7FF"/>
<g clip-path="url(#clip0_22368_8957)">
<path d="M17.9522 19.1742C17.9278 19.1742 17.9042 19.1734 17.8799 19.1712C14.9621 18.955 12.4762 18.1625 10.4892 16.8165C8.7849 15.6614 7.44966 14.106 6.51965 12.1925C5.2907 9.66403 5.10986 7.20535 5.09067 6.2345C5.08993 6.22188 5.0892 6.20925 5.0892 6.19662V6.13422C5.08846 6.054 5.0892 5.98121 5.0892 5.92253C5.08846 5.38919 5.52468 4.9502 6.06055 4.9502H8.54871C8.95541 4.9502 9.32225 5.20869 9.46175 5.59272L10.6656 8.91008C10.7402 9.11733 10.7055 9.34388 10.5719 9.51695C10.566 9.52513 10.5593 9.53255 10.5527 9.54072L9.03881 11.2685C9.45658 12.402 11.0841 14.3541 12.7899 14.9669L14.2949 13.6811C14.3023 13.6744 14.3104 13.6685 14.3185 13.6618C14.5879 13.4598 14.9356 13.4115 15.2485 13.5333L18.3478 14.7352C18.7272 14.8822 18.9774 15.2559 18.9701 15.6651L18.9302 17.9158C18.9324 17.9381 18.9324 17.9604 18.9317 17.9827L18.9184 18.2442C18.9051 18.5101 18.7885 18.753 18.5907 18.9298C18.412 19.0887 18.1869 19.1742 17.9515 19.1742H17.9522ZM6.04874 6.16691C6.04874 6.17359 6.04874 6.18102 6.04947 6.18771C6.06424 7.07239 6.22441 9.38696 7.38102 11.7677C8.23649 13.5266 9.46249 14.9558 11.0251 16.015C12.8718 17.2666 15.2013 18.0042 17.95 18.2078C17.9603 18.2018 17.9603 18.1974 17.9603 18.1959L17.9707 17.9849C17.9707 17.973 17.9699 17.9612 17.9707 17.9493L18.0113 15.6481C18.0113 15.6429 18.0083 15.6384 18.0031 15.6362L14.9038 14.4343C14.9038 14.4343 14.8987 14.4336 14.8957 14.4343L13.328 15.7729C13.3206 15.7795 13.3125 15.7855 13.3043 15.7922C13.1471 15.9103 12.8762 16.0217 12.4806 15.8806C10.4036 15.1415 8.62473 12.9212 8.13906 11.6035C7.98406 11.1823 8.0992 10.9023 8.2232 10.7411C8.22911 10.7329 8.23575 10.7248 8.24313 10.7173L9.69794 9.05642L8.56052 5.92401C8.55904 5.91955 8.55387 5.91584 8.54871 5.91584H6.06055C6.0539 5.91584 6.048 5.92104 6.048 5.92847C6.048 5.98715 6.04726 6.05252 6.048 6.12828V6.16691H6.04874Z" fill="#1E54B0"/>
<path d="M10.0343 9.05728C9.83869 9.05728 9.65491 8.93621 9.58405 8.74085L8.66732 6.22646C8.57579 5.97613 8.70348 5.69907 8.95223 5.60696C9.20097 5.51485 9.47628 5.64336 9.56781 5.89368L10.4845 8.40807C10.5761 8.6584 10.4484 8.93546 10.1996 9.02757C10.145 9.04763 10.0897 9.05728 10.0343 9.05728Z" fill="#1E54B0"/>
<path d="M17.6787 15.4771C17.6212 15.4771 17.5628 15.4667 17.506 15.4444L15.2518 14.5701C15.0046 14.4743 14.8813 14.195 14.9765 13.9462C15.0717 13.6973 15.3493 13.5733 15.5965 13.6691L17.8507 14.5434C18.098 14.6392 18.2212 14.9185 18.126 15.1673C18.0529 15.359 17.8706 15.4771 17.678 15.4771H17.6787Z" fill="#1E54B0"/>
</g>
<defs>
<clipPath id="clip0_22368_8957">
<rect width="13.8816" height="14.2375" fill="white" transform="translate(5.08887 4.94434)"/>
</clipPath>
</defs>
</svg>
