<svg width="126" height="100" viewBox="0 0 126 100" fill="none" xmlns="http://www.w3.org/2000/svg">
<g clip-path="url(#clip0_721_58194)">
<path d="M124.98 40.29H124.04V14.42C124.04 6.46 117.59 0 109.62 0H16.6302C8.67023 0 2.21023 6.45 2.21023 14.42V40.29H1.27023C0.570234 40.29 -0.00976562 40.86 -0.00976562 41.57V60.38C-0.00976562 61.08 0.560234 61.66 1.27023 61.66H2.21023V65.81H1.27023C0.570234 65.81 -0.00976562 66.38 -0.00976562 67.09V85.9C-0.00976562 86.6 0.560234 87.18 1.27023 87.18H2.21023V240.37C2.21023 248.33 8.66023 254.79 16.6302 254.79H109.63C117.59 254.79 124.05 248.34 124.05 240.37V72.32H124.99C125.69 72.32 126.27 71.75 126.27 71.04V41.55C126.27 40.85 125.7 40.27 124.99 40.27L124.98 40.29Z" fill="url(#paint0_linear_721_58194)"/>
<path d="M106.85 6.45996H19.4102C13.4842 6.45996 8.68018 11.2639 8.68018 17.19V237.57C8.68018 243.496 13.4842 248.3 19.4102 248.3H106.85C112.776 248.3 117.58 243.496 117.58 237.57V17.19C117.58 11.2639 112.776 6.45996 106.85 6.45996Z" fill="white"/>
<path d="M105.34 54.4203C105.34 51.7303 107.36 49.5003 109.96 49.1803C110.34 49.1303 110.61 48.8103 110.61 48.4303V35.6303C110.61 31.1603 106.98 27.5303 102.51 27.5303H23.7401C19.2701 27.5303 15.6401 31.1603 15.6401 35.6303V48.4203C15.6401 48.8703 16.0301 49.2303 16.4801 49.1803C17.9301 49.0103 19.5801 49.4803 21.7301 52.1203C21.8101 52.2203 21.8801 52.3303 21.9201 52.4503C23.2901 56.1903 20.5501 59.7003 17.0001 59.7003C16.5301 59.7003 16.0801 59.6203 15.6401 59.5003V73.2203C15.6401 77.6903 19.2701 81.3203 23.7401 81.3203H102.52C106.99 81.3203 110.62 77.6903 110.62 73.2203V60.4203C110.62 60.0403 110.34 59.7103 109.97 59.6703C107.36 59.3503 105.35 57.1303 105.35 54.4303L105.34 54.4203Z" fill="url(#paint1_linear_721_58194)"/>
<path d="M93.5249 66.1699H72.8849C71.0872 66.1699 69.6299 67.6272 69.6299 69.4249C69.6299 71.2226 71.0872 72.6799 72.8849 72.6799H93.5249C95.3226 72.6799 96.7799 71.2226 96.7799 69.4249C96.7799 67.6272 95.3226 66.1699 93.5249 66.1699Z" fill="url(#paint2_linear_721_58194)"/>
</g>
<defs>
<linearGradient id="paint0_linear_721_58194" x1="63.1202" y1="508.75" x2="63.1202" y2="-239.88" gradientUnits="userSpaceOnUse">
<stop stop-color="#121314"/>
<stop offset="1" stop-color="#354156"/>
</linearGradient>
<linearGradient id="paint1_linear_721_58194" x1="-109.64" y1="54.4203" x2="-14.6599" y2="54.4203" gradientUnits="userSpaceOnUse">
<stop stop-color="#95B5D7"/>
<stop offset="0.99" stop-color="#E4DECA"/>
</linearGradient>
<linearGradient id="paint2_linear_721_58194" x1="37.1199" y1="69.4199" x2="120.18" y2="69.4199" gradientUnits="userSpaceOnUse">
<stop stop-color="#95B5D7"/>
<stop offset="0.09" stop-color="#A2BCD4"/>
<stop offset="0.32" stop-color="#BFCAD0"/>
<stop offset="0.55" stop-color="#D3D5CC"/>
<stop offset="0.77" stop-color="#DFDBCA"/>
<stop offset="0.99" stop-color="#E4DECA"/>
</linearGradient>
<clipPath id="clip0_721_58194">
<rect width="126" height="100" fill="white"/>
</clipPath>
</defs>
</svg>
