<svg width="24" height="25" viewBox="0 0 24 25" fill="none" xmlns="http://www.w3.org/2000/svg">
<ellipse cx="12" cy="12.8555" rx="12" ry="12" fill="#EDF7FF"/>
<g clip-path="url(#clip0_2885_62952)">
<path d="M8.52527 15.2317C8.24385 15.2317 7.98059 15.0558 7.88186 14.7744C7.75818 14.4192 7.94541 14.0311 8.30059 13.9075L15.917 11.251C16.2722 11.1273 16.6603 11.3146 16.784 11.6697C16.9077 12.0249 16.7204 12.413 16.3653 12.5367L8.74881 15.1931C8.67505 15.2192 8.59903 15.2317 8.52413 15.2317H8.52527Z" fill="#1E54B0"/>
<path d="M8.52533 15.2314C8.42547 15.2314 8.32562 15.2098 8.2303 15.1633L7.53583 14.8285C7.19767 14.6651 7.05469 14.2578 7.21923 13.9196C7.38264 13.5815 7.79001 13.4396 8.12817 13.603L8.82264 13.9378C9.16079 14.1012 9.30377 14.5085 9.13923 14.8467C9.02122 15.0895 8.77838 15.2314 8.52533 15.2314Z" fill="#1E54B0"/>
<path d="M12.9227 13.5619C12.8228 13.5619 12.7229 13.5403 12.6276 13.4938L9.63641 12.0493C9.29826 11.8858 9.15528 11.4785 9.31982 11.1403C9.48322 10.8022 9.8906 10.6603 10.2288 10.8237L13.22 12.2683C13.5581 12.4317 13.7011 12.839 13.5366 13.1772C13.4185 13.42 13.1757 13.5619 12.9227 13.5619Z" fill="#1E54B0"/>
<path d="M6.98546 18.6379C6.81071 18.6379 6.63709 18.571 6.50432 18.4382C6.23879 18.1727 6.23879 17.7415 6.50432 17.4748L16.455 7.52532C16.7205 7.25979 17.1517 7.25979 17.4172 7.52532C17.6828 7.79085 17.6828 8.22206 17.4172 8.48873L7.46659 18.4382C7.33383 18.571 7.15908 18.6379 6.98546 18.6379Z" fill="#1E54B0"/>
<path d="M12 21C7.58922 21 4 17.4108 4 13C4 8.58922 7.58922 5 12 5C16.4108 5 20 8.58922 20 13C20 17.4108 16.4108 21 12 21ZM12 6.3617C8.33929 6.3617 5.3617 9.33929 5.3617 13C5.3617 16.6607 8.33929 19.6383 12 19.6383C15.6607 19.6383 18.6383 16.6607 18.6383 13C18.6383 9.33929 15.6607 6.3617 12 6.3617Z" fill="#1E54B0"/>
</g>
<defs>
<clipPath id="clip0_2885_62952">
<rect width="16" height="16" fill="white" transform="translate(4 5)"/>
</clipPath>
</defs>
</svg>
