<svg width="207" height="177" viewBox="0 0 207 177" fill="none" xmlns="http://www.w3.org/2000/svg">
<g clip-path="url(#clip0_6950_21247)">
<path d="M103.501 177C91.4597 177 79.7747 174.66 68.7738 170.044C58.1497 165.586 48.6091 159.206 40.4178 151.08C32.2264 142.954 25.7931 133.49 21.3008 122.951C16.6483 112.037 14.2891 100.448 14.2891 88.5009C14.2891 76.5541 16.6483 64.9644 21.3008 54.0513C25.795 43.5121 32.2264 34.0477 40.4178 25.9218C48.6091 17.7959 58.1497 11.414 68.7738 6.9576C79.7766 2.34038 91.4597 0 103.501 0C115.542 0 127.227 2.34038 138.228 6.95573C148.852 11.414 158.393 17.794 166.584 25.9199C174.775 34.0459 181.209 43.5102 185.701 54.0494C190.353 64.9625 192.713 76.5523 192.713 88.4991C192.713 100.446 190.353 112.036 185.701 122.949C181.207 133.488 174.775 142.952 166.584 151.078C158.393 159.204 148.852 165.586 138.228 170.042C127.227 174.658 115.544 176.998 103.501 176.998V177ZM103.501 7.47727C58.4644 7.47727 21.8265 43.8243 21.8265 88.4991C21.8265 133.174 58.4663 169.521 103.501 169.521C148.535 169.521 185.175 133.174 185.175 88.4991C185.175 43.8243 148.537 7.47727 103.501 7.47727Z" fill="#D2D2D2"/>
<path d="M103.501 154.693C94.4936 154.693 85.7558 152.942 77.5267 149.489C69.5803 146.154 62.4442 141.382 56.3181 135.305C50.192 129.226 45.3812 122.149 42.0195 114.266C38.5391 106.102 36.7734 97.4325 36.7734 88.499C36.7734 79.5656 38.5391 70.8957 42.0195 62.7324C45.3812 54.8495 50.192 47.7704 56.3181 41.6932C62.4442 35.6161 69.5803 30.8437 77.5267 27.5089C85.7558 24.0562 94.4955 22.3047 103.501 22.3047C112.506 22.3047 121.246 24.0562 129.475 27.5089C137.421 30.8437 144.558 35.6161 150.684 41.6932C156.81 47.7704 161.621 54.8495 164.982 62.7324C168.463 70.8957 170.228 79.5656 170.228 88.499C170.228 97.4325 168.463 106.102 164.982 114.266C161.621 122.149 156.81 129.228 150.684 135.305C144.558 141.382 137.421 146.154 129.475 149.489C121.246 152.942 112.506 154.693 103.501 154.693ZM103.501 29.7801C70.8636 29.7801 44.3109 56.1206 44.3109 88.4972C44.3109 120.874 70.8636 147.216 103.501 147.216C136.138 147.216 162.693 120.876 162.693 88.4972C162.693 56.1187 136.14 29.7801 103.501 29.7801Z" fill="#D2D2D2"/>
<path d="M20.5584 145.934C17.5114 145.934 14.7809 144.132 13.6032 141.345L2.4722 114.984C1.69396 113.142 1.68642 111.109 2.44959 109.262C3.21276 107.413 4.65619 105.97 6.5123 105.2L183.528 31.6478C184.457 31.2608 185.437 31.0664 186.438 31.0664C189.485 31.0664 192.215 32.8684 193.393 35.6556L204.524 62.0167C205.302 63.858 205.31 65.8918 204.547 67.7387C203.783 69.5874 202.34 71.0305 200.484 71.8007L23.4679 145.353C22.5389 145.74 21.559 145.934 20.5584 145.934Z" fill="#D2D2D2"/>
<path d="M186.439 32.9339C188.65 32.9339 190.749 34.2275 191.655 36.3772L202.786 62.7383C203.992 65.5947 202.635 68.8809 199.756 70.0773L22.7402 143.629C22.026 143.927 21.2873 144.067 20.5581 144.067C18.3477 144.067 16.2485 142.773 15.3421 140.623L4.21117 114.262C3.00517 111.406 4.36192 108.12 7.24124 106.923L184.257 33.3714C184.971 33.0741 185.71 32.9339 186.439 32.9339ZM186.439 29.1953C185.186 29.1953 183.963 29.4402 182.802 29.9225L5.7865 103.474C3.46496 104.439 1.66161 106.243 0.708122 108.553C-0.24537 110.864 -0.235948 113.404 0.736387 115.707L11.8674 142.068C13.3391 145.553 16.7517 147.805 20.56 147.805C21.8131 147.805 23.036 147.56 24.1968 147.078L201.213 73.5262C203.534 72.5616 205.338 70.7577 206.291 68.4472C207.245 66.1368 207.235 63.5964 206.263 61.2934L195.132 34.9322C193.66 31.4478 190.248 29.1953 186.439 29.1953Z" fill="white"/>
<path d="M22.6686 110.016C27.8073 107.882 32.897 109.14 36.0872 113.269L30.3022 115.673C28.6364 114.213 26.6182 113.974 24.6189 114.806C21.3872 116.148 20.1775 119.451 21.7754 123.236C23.3733 127.022 26.5956 128.482 29.8254 127.139C31.8248 126.308 33.0703 124.715 33.189 122.513L38.9759 120.109C39.7033 125.261 37.0256 129.712 31.8851 131.846C25.5159 134.493 19.1279 131.872 16.42 125.461C13.7141 119.049 16.2994 112.665 22.6686 110.018V110.016Z" fill="white"/>
<path d="M56.934 116.811L48.8707 120.161L49.176 124.484L43.668 126.772L43.4287 121.963L42.4375 102.094L48.5316 99.5625L65.3967 117.745L59.8265 120.06L56.9358 116.811H56.934ZM47.889 106.61L48.5561 115.556L53.8794 113.345L47.889 106.612V106.61Z" fill="white"/>
<path d="M77.828 87.3867L86.8767 108.817L81.6137 111.004L67.2303 101.442L72.8118 114.66L67.5487 116.847L58.5 95.4173L63.763 93.2302L78.1709 102.853L72.5631 89.5738L77.8261 87.3867H77.828Z" fill="white"/>
<path d="M91.2978 81.5047C96.4364 79.37 101.526 80.628 104.716 84.7573L98.9313 87.1613C97.2656 85.6995 95.2474 85.4621 93.2481 86.2939C90.0164 87.6361 88.8066 90.9392 90.4046 94.7245C92.0025 98.5099 95.2248 99.9699 98.4546 98.6277C100.456 97.7958 101.699 96.2032 101.818 94.0011L107.603 91.5972C108.332 96.749 105.653 101.2 100.514 103.335C94.1451 105.982 87.757 103.361 85.0492 96.949C82.3433 90.5373 84.9267 84.1536 91.2978 81.5066V81.5047Z" fill="white"/>
<path d="M119.662 74.9199L111.691 78.2324L113.522 82.5673L120.57 79.64L122.272 83.6702L115.224 86.5976L117.208 91.2989L125.179 87.9865L126.945 92.1681L113.713 97.6658L104.664 76.2359L117.896 70.7383L119.662 74.9199Z" fill="white"/>
<path d="M126.361 67.2227L133.708 84.6241L140.601 81.7603L142.302 85.7906L130.146 90.8414L121.098 69.4116L126.359 67.2245L126.361 67.2227Z" fill="white"/>
<path d="M140.826 61.2109L148.173 78.6124L155.066 75.7486L156.767 79.7789L144.611 84.8298L135.562 63.3999L140.826 61.2128V61.2109Z" fill="white"/>
<path d="M165.021 56.0723L157.05 59.3847L158.882 63.7197L165.929 60.7923L167.631 64.8226L160.583 67.7499L162.568 72.4512L170.539 69.1388L172.304 73.3205L159.072 78.8181L150.023 57.3883L163.255 51.8906L165.021 56.0723Z" fill="white"/>
<path d="M190.404 53.2054C193.085 59.5555 190.496 65.7616 183.603 68.6272L175.51 71.9901L166.461 50.5603L174.554 47.1974C181.447 44.3336 187.709 46.8273 190.404 53.2073V53.2054ZM181.357 64.2493C185.327 62.6006 186.712 59.3685 185.05 55.4317C183.386 51.4931 180.068 50.1453 176.099 51.7941L173.606 52.8297L178.866 65.2849L181.359 64.2493H181.357Z" fill="white"/>
</g>
<defs>
<clipPath id="clip0_6950_21247">
<rect width="207" height="177" fill="white"/>
</clipPath>
</defs>
</svg>
