<svg width="58" height="58" viewBox="0 0 58 58" fill="none" xmlns="http://www.w3.org/2000/svg">
<path d="M29 58C45.0163 58 58 45.0163 58 29C58 12.9837 45.0163 0 29 0C12.9838 0 0 12.9837 0 29C0 45.0163 12.9838 58 29 58Z" fill="#FAE7E7"/>
<g clip-path="url(#clip0_418_74553)">
<g clip-path="url(#clip1_418_74553)">
<path d="M43.4863 43.159L29.0881 14.3811C29.0469 14.2982 28.984 14.2285 28.9065 14.1799C28.829 14.1312 28.7398 14.1055 28.6488 14.1055C28.5579 14.1055 28.4687 14.1312 28.3912 14.1799C28.3136 14.2285 28.2508 14.2982 28.2096 14.3811L13.8113 43.159C13.7732 43.2357 13.7549 43.3211 13.7582 43.4071C13.7615 43.4931 13.7864 43.5768 13.8303 43.6503C13.8743 43.7237 13.9359 43.7843 14.0094 43.8264C14.0828 43.8686 14.1655 43.8907 14.2497 43.8908H43.0479C43.1321 43.8907 43.2149 43.8686 43.2883 43.8264C43.3617 43.7843 43.4234 43.7237 43.4673 43.6503C43.5113 43.5768 43.5361 43.4931 43.5395 43.4071C43.5428 43.3211 43.5245 43.2357 43.4863 43.159ZM16.1298 42.2122L28.6497 17.1911L41.1679 42.2122H16.1298Z" fill="#D74444"/>
<path d="M29.1593 24.166H28.1741C27.9927 24.166 27.8457 24.3163 27.8457 24.5017V34.9393C27.8457 35.1247 27.9927 35.275 28.1741 35.275H29.1593C29.3406 35.275 29.4877 35.1247 29.4877 34.9393V24.5017C29.4877 24.3163 29.3406 24.166 29.1593 24.166Z" fill="#D74444"/>
<path d="M27.125 38.447C27.125 38.7592 27.2156 39.0643 27.3852 39.3238C27.5549 39.5833 27.796 39.7856 28.0782 39.905C28.3603 40.0243 28.6707 40.0555 28.9701 39.9945C29.2696 39.9334 29.5446 39.783 29.7604 39.5622C29.9762 39.3413 30.123 39.06 30.1824 38.7538C30.2418 38.4476 30.211 38.1303 30.0939 37.842C29.9768 37.5537 29.7788 37.3074 29.5247 37.1342C29.2707 36.9611 28.9721 36.8688 28.6668 36.8691C28.4642 36.8691 28.2636 36.91 28.0764 36.9893C27.8892 37.0686 27.7192 37.1849 27.576 37.3314C27.4328 37.4779 27.3193 37.6519 27.2419 37.8433C27.1645 38.0347 27.1248 38.2399 27.125 38.447Z" fill="#D74444"/>
</g>
</g>
<defs>
<clipPath id="clip0_418_74553">
<rect width="31.3509" height="31.3509" fill="white" transform="translate(12.9727 13.3242)"/>
</clipPath>
<clipPath id="clip1_418_74553">
<rect width="29.7834" height="29.7834" fill="white" transform="translate(13.7559 14.1074)"/>
</clipPath>
</defs>
</svg>
