<svg width="23" height="26" viewBox="0 0 23 26" fill="none" xmlns="http://www.w3.org/2000/svg">
<rect width="23" height="26" fill="#E5E5E5"/>
<g clip-path="url(#clip_certin_certified_1)">
<rect width="1440" height="3125" transform="translate(-736 -1266)" fill="white"/>
<rect x="-736" y="-1167" width="1440" height="2720" fill="#E5EDF4" fill-opacity="0.4"/>
<g filter="url(#filter0_certin_certified_1)">
<rect x="-574" y="-353" width="740" height="970" rx="16" fill="white"/>
<rect x="-573.5" y="-352.5" width="739" height="969" rx="15.5" stroke="#EAF0F6"/>
</g>
<mask id="path-4-certin-certified" fill="white">
<path fill-rule="evenodd" clip-rule="evenodd" d="M-510 -59C-514.418 -59 -518 -55.4183 -518 -51V-11V317V337C-518 341.418 -514.418 345 -510 345H136C140.418 345 144 341.418 144 337V-11C144 -15.4183 140.418 -19 136 -19H-386V-51C-386 -55.4183 -389.582 -59 -394 -59H-510Z"/>
</mask>
<path fill-rule="evenodd" clip-rule="evenodd" d="M-510 -59C-514.418 -59 -518 -55.4183 -518 -51V-11V317V337C-518 341.418 -514.418 345 -510 345H136C140.418 345 144 341.418 144 337V-11C144 -15.4183 140.418 -19 136 -19H-386V-51C-386 -55.4183 -389.582 -59 -394 -59H-510Z" fill="white"/>
<path d="M-386 -19H-387V-18H-386V-19ZM-517 -51C-517 -54.866 -513.866 -58 -510 -58V-60C-514.971 -60 -519 -55.9706 -519 -51H-517ZM-517 -11V-51H-519V-11H-517ZM-517 317V-11H-519V317H-517ZM-517 337V317H-519V337H-517ZM-510 344C-513.866 344 -517 340.866 -517 337H-519C-519 341.971 -514.971 346 -510 346V344ZM136 344H-510V346H136V344ZM143 337C143 340.866 139.866 344 136 344V346C140.971 346 145 341.971 145 337H143ZM143 -11V337H145V-11H143ZM136 -18C139.866 -18 143 -14.866 143 -11H145C145 -15.9706 140.971 -20 136 -20V-18ZM-386 -18H136V-20H-386V-18ZM-387 -51V-19H-385V-51H-387ZM-394 -58C-390.134 -58 -387 -54.866 -387 -51H-385C-385 -55.9706 -389.029 -60 -394 -60V-58ZM-510 -58H-394V-60H-510V-58Z" fill="#EAF0F6" mask="url(#path-4-certin-certified)"/>
<path d="M11.4959 -2C11.4959 -2 7.36222 2.3303 -1 0.954191V15.4231C-1 15.4231 -0.296763 24.1645 11.4959 28C11.4959 28 22.8006 25.2459 24 14.943V0.954191C24 0.954191 17.1829 2.62499 11.4959 -2Z" fill="white"/>
<path d="M11.4959 0.183594C11.4959 0.183594 7.96512 3.88322 0.824219 2.70723V15.0702C0.824219 15.0702 1.4253 22.5383 11.5005 25.8111C11.5005 25.8111 21.1597 23.4554 22.184 14.6553V2.70723C22.184 2.70723 16.3547 4.13476 11.4959 0.183594Z" fill="#CFD7DD"/>
<path d="M11.5 20.6303C15.8147 20.6303 19.3125 17.2136 19.3125 12.9988C19.3125 8.78396 15.8147 5.36719 11.5 5.36719C7.18527 5.36719 3.6875 8.78396 3.6875 12.9988C3.6875 17.2136 7.18527 20.6303 11.5 20.6303Z" fill="#00B00C"/>
<path d="M16.413 10.5627L16.7512 10.8901C16.8383 10.9752 16.887 11.0897 16.887 11.2089C16.887 11.3281 16.8383 11.4426 16.7512 11.5277L10.5703 17.5177C10.5265 17.5598 10.4745 17.5933 10.4172 17.6161C10.36 17.6389 10.2986 17.6506 10.2366 17.6506C10.1746 17.6506 10.1132 17.6389 10.056 17.6161C9.9987 17.5933 9.9467 17.5598 9.90294 17.5177L6.63581 14.3589C6.54877 14.2739 6.5 14.1594 6.5 14.0402C6.5 13.9209 6.54877 13.8065 6.63581 13.7214L6.974 13.3939C7.01776 13.3518 7.06976 13.3183 7.12702 13.2955C7.18427 13.2727 7.24566 13.261 7.30766 13.261C7.36965 13.261 7.43104 13.2727 7.48829 13.2955C7.54555 13.3183 7.59755 13.3518 7.64131 13.3939L10.226 15.9064L15.7518 10.5627C15.7955 10.5205 15.8475 10.4871 15.9048 10.4643C15.962 10.4414 16.0234 10.4297 16.0854 10.4297C16.1474 10.4297 16.2088 10.4414 16.2661 10.4643C16.3233 10.4871 16.3753 10.5205 16.4191 10.5627H16.413Z" fill="white"/>
</g>
<defs>
<filter id="filter0_certin_certified_1" x="-589" y="-360" width="770" height="1000" filterUnits="userSpaceOnUse" color-interpolation-filters="sRGB">
<feFlood flood-opacity="0" result="BackgroundImageFix"/>
<feColorMatrix in="SourceAlpha" type="matrix" values="0 0 0 0 0 0 0 0 0 0 0 0 0 0 0 0 0 0 127 0" result="hardAlpha"/>
<feOffset dy="8"/>
<feGaussianBlur stdDeviation="7.5"/>
<feComposite in2="hardAlpha" operator="out"/>
<feColorMatrix type="matrix" values="0 0 0 0 0 0 0 0 0 0 0 0 0 0 0 0 0 0 0.12 0"/>
<feBlend mode="normal" in2="BackgroundImageFix" result="effect1_dropShadow_0_1"/>
<feBlend mode="normal" in="SourceGraphic" in2="effect1_dropShadow_0_1" result="shape"/>
</filter>
<clipPath id="clip_certin_certified_1">
<rect width="1440" height="3125" fill="white" transform="translate(-736 -1266)"/>
</clipPath>
</defs>
</svg>
