<svg width="16" height="16" viewBox="0 0 16 16" fill="none" xmlns="http://www.w3.org/2000/svg">
<g id="Check 2" clip-path="url(#clip0_418_66449)">
<g id="Layer 2">
<g id="Layer 1">
<path id="Vector" d="M7.99822 0C6.41633 0 4.86995 0.469088 3.55465 1.34794C2.23935 2.2268 1.2142 3.47595 0.608832 4.93744C0.00346552 6.39892 -0.154926 8.0071 0.153687 9.5586C0.4623 11.1101 1.22406 12.5352 2.34263 13.6538C3.4612 14.7724 4.88635 15.5341 6.43785 15.8428C7.98935 16.1514 9.59753 15.993 11.059 15.3876C12.5205 14.7822 13.7696 13.7571 14.6485 12.4418C15.5274 11.1265 15.9964 9.58012 15.9964 7.99822C15.9936 5.87783 15.1501 3.84509 13.6507 2.34574C12.1514 0.846395 10.1186 0.00282155 7.99822 0ZM7.99822 15.1078C6.59209 15.1078 5.21754 14.6908 4.04838 13.9096C2.87923 13.1284 1.96798 12.018 1.42988 10.7189C0.891772 9.41983 0.75098 7.99034 1.0253 6.61122C1.29963 5.23211 1.97674 3.96531 2.97103 2.97102C3.96531 1.97674 5.23211 1.29962 6.61122 1.0253C7.99034 0.750976 9.41983 0.891769 10.7189 1.42987C12.018 1.96798 13.1284 2.87922 13.9096 4.04838C14.6908 5.21754 15.1078 6.59209 15.1078 7.99822C15.1052 9.88299 14.3553 11.6898 13.0226 13.0226C11.6898 14.3553 9.88299 15.1052 7.99822 15.1078Z" fill="#00AE0C"/>
<path id="Vector_2" d="M12.3084 5.01697C12.2919 5.00045 12.2723 4.98734 12.2507 4.97839C12.2291 4.96945 12.206 4.96484 12.1826 4.96484C12.1593 4.96484 12.1361 4.96945 12.1146 4.97839C12.093 4.98734 12.0734 5.00045 12.0569 5.01697L7.34682 9.72704C7.33031 9.74356 7.31071 9.75667 7.28913 9.76562C7.26755 9.77456 7.24443 9.77916 7.22107 9.77916C7.19771 9.77916 7.17458 9.77456 7.153 9.76562C7.13143 9.75667 7.11182 9.74356 7.09532 9.72704L3.94313 6.58018C3.92662 6.56366 3.90702 6.55055 3.88544 6.5416C3.86386 6.53266 3.84074 6.52805 3.81738 6.52805C3.79402 6.52805 3.77089 6.53266 3.74932 6.5416C3.72774 6.55055 3.70814 6.56366 3.69163 6.58018L3.31482 6.95699C3.2983 6.97349 3.28519 6.99309 3.27624 7.01467C3.2673 7.03625 3.2627 7.05938 3.2627 7.08274C3.2627 7.10609 3.2673 7.12922 3.27624 7.1508C3.28519 7.17238 3.2983 7.19198 3.31482 7.20849L7.08821 10.981C7.12151 11.0141 7.16656 11.0327 7.21351 11.0327C7.26047 11.0327 7.30552 11.0141 7.33882 10.981L7.35393 10.9668L7.35926 10.9721L12.6852 5.64617C12.7017 5.62966 12.7148 5.61006 12.7238 5.58848C12.7327 5.5669 12.7373 5.54377 12.7373 5.52042C12.7373 5.49706 12.7327 5.47393 12.7238 5.45235C12.7148 5.43078 12.7017 5.41117 12.6852 5.39467L12.3084 5.01697Z" fill="#00AE0C"/>
</g>
</g>
</g>
<defs>
<clipPath id="clip0_418_66449">
<rect width="16" height="16" fill="white"/>
</clipPath>
</defs>
</svg>
