<svg width="43" height="43" viewBox="0 0 43 43" fill="none" xmlns="http://www.w3.org/2000/svg">
<circle cx="21.5" cy="21.5" r="21" fill="#57B5A1" stroke="#F9FBFD"/>
<g clip-path="url(#clip0_364_25839)">
<path d="M29.4707 27.4146H12.4621C11.6217 27.4146 10.9375 26.7304 10.9375 25.89V23.6513C10.9375 23.6063 10.9422 23.5613 10.9517 23.5179L10.9912 23.3356C11.0543 23.0452 11.3108 22.8377 11.6082 22.8377C12.6309 22.8377 13.4627 22.0059 13.4627 20.9833C13.4627 19.9606 12.6309 19.1288 11.6082 19.1288C11.3029 19.1288 11.0409 18.9095 10.9872 18.6088L10.9478 18.3886C10.9414 18.3515 10.9375 18.3145 10.9375 18.2774V16.1554C10.9375 15.315 11.6217 14.6309 12.4621 14.6309H29.4707C30.3111 14.6309 30.9953 15.315 30.9953 16.1554V18.2774C30.9953 18.3145 30.9921 18.3523 30.9858 18.3886L30.9464 18.6088C30.8927 18.9095 30.6307 19.1288 30.3245 19.1288C29.3018 19.1288 28.4701 19.9606 28.4701 20.9833C28.4701 22.0059 29.3018 22.8377 30.3245 22.8377C30.622 22.8377 30.8785 23.0452 30.9416 23.3356L30.9811 23.5179C30.9905 23.5621 30.9953 23.6063 30.9953 23.6513V25.89C30.9953 26.7304 30.3111 27.4146 29.4707 27.4146ZM20.9593 26.152H29.4707C29.6151 26.152 29.7327 26.0344 29.7327 25.89V24.0442C28.2957 23.7673 27.2075 22.4999 27.2075 20.9833C27.2075 19.4666 28.2957 18.2 29.7327 17.9223V16.1554C29.7327 16.011 29.6151 15.8934 29.4707 15.8934H12.4621C12.3177 15.8934 12.2001 16.011 12.2001 16.1554V17.9223C13.6371 18.1992 14.7253 19.4666 14.7253 20.9833C14.7253 22.4999 13.6371 23.7665 12.2001 24.0442V25.89C12.2001 26.0344 12.3177 26.152 12.4621 26.152H20.9593V26.152Z" fill="white"/>
<path d="M24.0411 21.6766H17.9594C17.6106 21.6766 17.3281 21.3941 17.3281 21.0454C17.3281 20.6966 17.6106 20.4141 17.9594 20.4141H24.0411C24.3899 20.4141 24.6724 20.6966 24.6724 21.0454C24.6724 21.3941 24.3899 21.6766 24.0411 21.6766Z" fill="white"/>
</g>
<defs>
<clipPath id="clip0_364_25839">
<rect width="20" height="20" fill="white" transform="translate(11 11)"/>
</clipPath>
</defs>
</svg>
