<svg width="34" height="34" viewBox="0 0 34 34" fill="none" xmlns="http://www.w3.org/2000/svg">
<path d="M17 34C26.3888 34 34 26.3888 34 17C34 7.61116 26.3888 0 17 0C7.61116 0 0 7.61116 0 17C0 26.3888 7.61116 34 17 34Z" fill="white" fill-opacity="0.4"/>
<path fill-rule="evenodd" clip-rule="evenodd" d="M11.0178 9.70951C10.6517 9.34907 10.065 9.35631 9.7073 9.7257C9.34965 10.0951 9.3565 10.6867 9.7226 11.0472L15.7682 16.9994L9.7226 22.9516C9.3565 23.3121 9.34965 23.9037 9.7073 24.2731C10.065 24.6425 10.6517 24.6497 11.0178 24.2893L17.0952 18.3058L22.9803 24.1C23.3464 24.4605 23.9331 24.4532 24.2908 24.0838C24.6484 23.7145 24.6416 23.1228 24.2755 22.7624L18.4221 16.9994L24.2755 11.2364C24.6416 10.876 24.6484 10.2843 24.2908 9.91496C23.9331 9.54558 23.3464 9.53833 22.9803 9.89878L17.0952 15.693L11.0178 9.70951Z" fill="white"/>
</svg>
