<svg width="28" height="28" viewBox="0 0 28 28" fill="none" xmlns="http://www.w3.org/2000/svg">
<path d="M14 28C21.732 28 28 21.732 28 14C28 6.26801 21.732 0 14 0C6.26801 0 0 6.26801 0 14C0 21.732 6.26801 28 14 28Z" fill="white" fill-opacity="0.2"/>
<path fill-rule="evenodd" clip-rule="evenodd" d="M9.06991 7.99613C8.76842 7.69929 8.28524 7.70526 7.9907 8.00945C7.69617 8.31365 7.70181 8.80089 8.0033 9.09773L12.9821 13.9996L8.0033 18.9014C7.70181 19.1982 7.69617 19.6855 7.9907 19.9897C8.28524 20.2939 8.76842 20.2998 9.06991 20.003L14.0748 15.0754L18.9214 19.8471C19.2229 20.144 19.7061 20.138 20.0006 19.8338C20.2952 19.5296 20.2895 19.0424 19.988 18.7455L15.1676 13.9996L19.988 9.25359C20.2895 8.95676 20.2952 8.46952 20.0006 8.16532C19.7061 7.86112 19.2229 7.85516 18.9214 8.15199L14.0748 12.9237L9.06991 7.99613Z" fill="white"/>
</svg>
