<svg width="293" height="50" viewBox="0 0 293 50" fill="none" xmlns="http://www.w3.org/2000/svg">
<path fill-rule="evenodd" clip-rule="evenodd" d="M0 2L6 0H101C101 3.31371 103.686 6 107 6C110.314 6 113 3.31371 113 0H287L293 2L287 4L293 6L287 8L293 10L287 12L293 13.5L287 15L293 17L287 19L293 21L287 23L293 25L287 27L293 29L287 31L293 33L287 35L293 36.5L287 38L293 40L287 42L293 44L287 46L293 48L287 50H113C113 46.6863 110.314 44 107 44C103.686 44 101 46.6863 101 50H6L0 48L6 46L0 44L6 42L0 40L6 38L0 36.5L6 35L0 33L6 31L0 29L6 27L0 25L6 23L0 21L6 19L0 17L6 15L0 13.5L6 12L0 10L6 8L0 6L6 4L0 2Z" fill="#F6A974"/>
</svg>
