<svg width="50" height="50" viewBox="0 0 50 50" fill="none" xmlns="http://www.w3.org/2000/svg">
<circle cx="25" cy="25" r="25" fill="#F2F8FD"/>
<path d="M30.7004 17.9238C29.9897 17.9238 29.4062 18.4966 29.4062 19.2179C29.4062 19.9287 29.9791 20.5121 30.7004 20.5121C31.4111 20.5121 31.9945 19.9393 31.9945 19.2179C31.9945 18.4966 31.4111 17.9238 30.7004 17.9238Z" fill="#78B6E3"/>
<path d="M24.9712 19.5801C21.9799 19.5801 19.5508 22.0092 19.5508 25.0005C19.5508 27.9918 21.9799 30.421 24.9712 30.421C27.9625 30.421 30.3917 27.9918 30.3917 25.0005C30.3811 22.0092 27.9519 19.5801 24.9712 19.5801ZM24.9712 28.4692C23.0619 28.4692 21.5026 26.9099 21.5026 25.0005C21.5026 23.0912 23.0619 21.5319 24.9712 21.5319C26.8806 21.5319 28.4399 23.0912 28.4399 25.0005C28.4399 26.9099 26.8806 28.4692 24.9712 28.4692Z" fill="#78B6E3"/>
<path d="M29.2665 36H20.4835C16.8345 36 13.875 33.0299 13.875 29.3915V20.6085C13.875 16.9595 16.8345 14 20.4835 14H29.2665C32.9155 14 35.875 16.9595 35.875 20.6085V29.3915C35.875 33.0299 32.9155 36 29.2665 36ZM20.4835 16.0685C17.9801 16.0685 15.9435 18.1051 15.9435 20.6085V29.3915C15.9435 31.8949 17.9801 33.9315 20.4835 33.9315H29.2665C31.7699 33.9315 33.8065 31.8949 33.8065 29.3915V20.6085C33.8065 18.1051 31.7699 16.0685 29.2665 16.0685H20.4835Z" fill="#78B6E3"/>
</svg>
