<svg width="16" height="16" viewBox="0 0 16 16" fill="none" xmlns="http://www.w3.org/2000/svg">
<g clip-path="url(#clip0_712_55385)">
<path d="M14.6129 15.9724C14.5858 15.9724 14.5596 15.9715 14.5325 15.9691C11.2906 15.7289 8.52844 14.8483 6.32068 13.3527C4.42702 12.0693 2.94342 10.3411 1.91007 8.21501C0.54457 5.40556 0.34364 2.67369 0.322317 1.59498C0.321497 1.58095 0.320677 1.56692 0.320677 1.55289V1.48356C0.319857 1.39442 0.320677 1.31354 0.320677 1.24834C0.319857 0.655743 0.804548 0.167969 1.39996 0.167969H4.16458C4.61647 0.167969 5.02407 0.455186 5.17907 0.881886L6.51669 4.56785C6.59952 4.79811 6.56097 5.04984 6.41253 5.24215C6.40597 5.25122 6.39859 5.25948 6.39121 5.26856L4.70914 7.18829C5.17333 8.44776 6.98169 10.6167 8.87699 11.2977L10.5492 9.86899C10.5574 9.86156 10.5664 9.85496 10.5755 9.84753C10.8748 9.62304 11.2611 9.56939 11.6088 9.70475L15.0525 11.0401C15.474 11.2036 15.7521 11.6187 15.7439 12.0735L15.6996 14.5742C15.702 14.599 15.702 14.6238 15.7012 14.6485L15.6865 14.939C15.6717 15.2345 15.5421 15.5044 15.3223 15.7008C15.1238 15.8774 14.8737 15.9724 14.6121 15.9724H14.6129ZM1.38683 1.51987C1.38683 1.5273 1.38683 1.53555 1.38765 1.54298C1.40406 2.52596 1.58202 5.09771 2.86715 7.74292C3.81767 9.69732 5.17989 11.2853 6.91608 12.4622C8.96803 13.8529 11.5563 14.6725 14.6105 14.8986C14.6219 14.892 14.6219 14.887 14.6219 14.8854L14.6334 14.651C14.6334 14.6378 14.6326 14.6246 14.6334 14.6114L14.6785 12.0545C14.6785 12.0487 14.6752 12.0438 14.6695 12.0413L11.2258 10.7059C11.2258 10.7059 11.2201 10.7051 11.2168 10.7059L9.47486 12.1931C9.46666 12.2006 9.45764 12.2072 9.44862 12.2146C9.27393 12.3458 8.97295 12.4696 8.53336 12.3128C6.22554 11.4916 4.24905 9.02467 3.70941 7.56052C3.53719 7.09255 3.66513 6.7814 3.80291 6.6023C3.80947 6.59322 3.81685 6.58415 3.82505 6.57589L5.44151 4.73044L4.1777 1.24999C4.17606 1.24503 4.17032 1.24091 4.16458 1.24091H1.39996C1.39257 1.24091 1.38601 1.24669 1.38601 1.25494C1.38601 1.32014 1.38519 1.39277 1.38601 1.47695V1.51987H1.38683Z" fill="#545454"/>
<path d="M5.81349 4.7301C5.59616 4.7301 5.39195 4.59557 5.31322 4.3785L4.29463 1.58474C4.19294 1.3066 4.33482 0.998746 4.6112 0.896404C4.88758 0.794062 5.19348 0.936845 5.29518 1.21498L6.31377 4.00875C6.41546 4.28689 6.27358 4.59474 5.9972 4.69708C5.93651 4.71937 5.875 4.7301 5.81349 4.7301Z" fill="#545454"/>
<path d="M14.3077 11.8632C14.2438 11.8632 14.179 11.8517 14.1158 11.8269L11.6112 10.8555C11.3364 10.749 11.1995 10.4387 11.3053 10.1622C11.4111 9.8857 11.7194 9.74787 11.9942 9.85434L14.4988 10.8258C14.7736 10.9322 14.9105 11.2426 14.8047 11.519C14.7235 11.732 14.521 11.8632 14.3069 11.8632H14.3077Z" fill="#545454"/>
</g>
<defs>
<clipPath id="clip0_712_55385">
<rect width="15.424" height="15.8195" fill="white" transform="translate(0.320312 0.160156)"/>
</clipPath>
</defs>
</svg>
