<svg width="20" height="20" viewBox="0 0 20 20" fill="none" xmlns="http://www.w3.org/2000/svg">
<circle cx="10" cy="10" r="10" fill="#EDF7FF"/>
<path d="M10.0407 9.79729C9.95562 9.79729 9.87189 9.77071 9.80013 9.71622L5.02538 6.11091C4.84997 5.97802 4.81542 5.72818 4.94698 5.55277C5.07987 5.37735 5.3297 5.3428 5.50512 5.47436L10.0393 8.89629L14.4898 5.47702C14.6639 5.3428 14.9151 5.37602 15.0493 5.55011C15.1835 5.7242 15.1503 5.97536 14.9762 6.10958L10.2839 9.7149C10.2121 9.76938 10.127 9.79729 10.0407 9.79729Z" fill="#1D4EA5"/>
<path d="M14.3636 5.65281C14.6679 5.65281 14.9164 5.89999 14.9164 6.20563V13.4708C14.9164 13.7751 14.6692 14.0236 14.3636 14.0236H5.63532C5.331 14.0236 5.0825 13.7764 5.0825 13.4708V6.20563C5.0825 5.90132 5.32967 5.65281 5.63532 5.65281H14.3649M14.3649 4.85547H5.63532C4.89114 4.85547 4.28516 5.46145 4.28516 6.20563V13.4708C4.28516 14.2149 4.89114 14.8209 5.63532 14.8209H14.3649C15.1091 14.8209 15.7151 14.2149 15.7151 13.4708V6.20563C15.7151 5.46145 15.1091 4.85547 14.3649 4.85547Z" fill="#1D4EA5"/>
</svg>
