<svg width="50" height="50" viewBox="0 0 50 50" fill="none" xmlns="http://www.w3.org/2000/svg">
<circle cx="25" cy="25" r="25" fill="#F2F8FD"/>
<path d="M39.138 16.6259C38.2838 17.0138 37.3317 17.2493 36.4076 17.4017C36.8416 17.3324 37.4857 16.5428 37.7518 16.2242C38.1438 15.7394 38.4799 15.1853 38.6619 14.5896C38.6899 14.548 38.7039 14.4788 38.6619 14.4511C38.6059 14.4233 38.5639 14.4372 38.5219 14.4649C37.4857 15.019 36.4216 15.4069 35.2874 15.6978C35.1894 15.7255 35.1193 15.6978 35.0633 15.6424C34.9653 15.5316 34.8813 15.4346 34.7833 15.3515C34.3072 14.9498 33.7891 14.6311 33.215 14.3956C32.4589 14.0909 31.6328 13.9662 30.8067 14.0078C30.0085 14.0632 29.2244 14.2848 28.5243 14.645C27.8102 15.0052 27.1801 15.5177 26.676 16.1272C26.1579 16.7645 25.7659 17.5125 25.5698 18.3021C25.3738 19.064 25.4018 19.826 25.5138 20.6017C25.5278 20.7264 25.5138 20.7541 25.4018 20.7264C20.9491 20.0753 17.2665 18.4961 14.27 15.116C14.144 14.9636 14.074 14.9636 13.962 15.1298C12.6458 17.0692 13.2899 20.2 14.9281 21.7238C15.1522 21.9316 15.3762 22.1394 15.6142 22.3195C15.5302 22.3333 14.4381 22.2225 13.4719 21.7238C13.3459 21.6407 13.2759 21.6822 13.2619 21.8346C13.2479 22.0424 13.2619 22.2363 13.3039 22.4718C13.5559 24.4389 14.9281 26.2675 16.8184 26.974C17.0425 27.071 17.2945 27.1541 17.5325 27.1956C17.0985 27.2926 16.6644 27.3619 15.4322 27.2649C15.2782 27.2372 15.2222 27.3065 15.2782 27.4589C16.2023 29.9524 18.2047 30.7004 19.7029 31.1298C19.8989 31.1575 20.109 31.1576 20.305 31.213C20.291 31.2268 20.277 31.2268 20.263 31.2545C19.7589 32.0026 18.0366 32.5567 17.2385 32.8338C15.7823 33.3325 14.186 33.568 12.6458 33.4156C12.3937 33.374 12.3517 33.3879 12.2817 33.4156C12.2117 33.4571 12.2677 33.5125 12.3517 33.5818C12.6598 33.7896 12.9818 33.9697 13.3039 34.1359C14.284 34.6485 15.3062 35.064 16.3704 35.355C21.8872 36.8649 28.1042 35.7567 32.2349 31.684C35.4834 28.484 36.6316 24.0788 36.6316 19.6597C36.6316 19.4935 36.8416 19.3965 36.9536 19.2995C37.7938 18.6762 38.4799 17.9143 39.11 17.0831C39.25 16.8892 39.25 16.7229 39.25 16.6536C39.25 16.6398 39.25 16.6259 39.25 16.6259C39.236 16.5567 39.236 16.5844 39.138 16.6259Z" fill="#78B6E3"/>
</svg>
