<svg width="50" height="50" viewBox="0 0 50 50" fill="none" xmlns="http://www.w3.org/2000/svg">
<circle cx="25" cy="25" r="25" fill="#F2F8FD"/>
<path d="M41 20.8953C41 17.0826 37.9576 14 34.1947 14H16.8053C13.0424 14 10 17.0826 10 20.8953V29.1047C10 32.9174 13.0424 36 16.8053 36H34.1947C37.9576 36 41 32.9174 41 29.1047V20.8953ZM30.7681 25.6165L22.97 29.5266C22.6658 29.6888 21.625 29.4617 21.625 29.121V21.09C21.625 20.733 22.6658 20.5059 22.9861 20.6844L30.4478 24.8053C30.7681 24.9838 31.0883 25.4381 30.7681 25.6165Z" fill="#78B6E3"/>
</svg>
