<svg width="20" height="20" viewBox="0 0 20 20" fill="none" xmlns="http://www.w3.org/2000/svg">
<circle cx="10" cy="10" r="10" fill="#EDF7FF"/>
<g clip-path="url(#clip0_5121_17331)">
<g clip-path="url(#clip1_5121_17331)">
<path d="M12.7341 11.2035C12.7217 11.1849 12.6536 11.154 12.5916 11.123C12.5668 11.1106 12.542 11.0982 12.5172 11.0858C12.3684 11.0115 11.7238 10.7018 11.6122 10.6585C11.5689 10.6461 11.5255 10.6275 11.5007 10.6275C11.4883 10.6275 11.4635 10.6275 11.4201 10.6895C11.3271 10.8257 11.073 11.1292 10.9862 11.2221C10.9242 11.2964 10.8498 11.3274 10.7693 11.3274C10.7135 11.3274 10.6515 11.3088 10.5833 11.2778C10.5647 11.2654 10.5337 11.2531 10.4965 11.2345C10.3106 11.154 9.92009 10.9867 9.48621 10.6027C9.07712 10.2373 8.79819 9.78521 8.71761 9.66134C8.59984 9.46315 8.72381 9.33928 8.78579 9.27115C8.82298 9.23399 8.86637 9.17825 8.91596 9.12251C8.94075 9.09154 8.96554 9.06677 8.98414 9.04199C9.03373 8.98625 9.05232 8.9429 9.08951 8.87477L9.10811 8.83761C9.1329 8.79426 9.1267 8.7509 9.09571 8.68897C9.07712 8.64561 8.98414 8.42884 8.84778 8.09439C8.78579 7.93956 8.72381 7.79091 8.68042 7.69801C8.61224 7.53079 8.55645 7.53079 8.53166 7.53079C8.51926 7.53079 8.51307 7.53079 8.50067 7.53079C8.48827 7.53079 8.47588 7.53079 8.46348 7.53079C8.42009 7.53079 8.3829 7.53079 8.33951 7.5246C8.29612 7.5246 8.25273 7.5184 8.20935 7.5184C8.15976 7.5184 8.03579 7.53079 7.91802 7.65466C7.91183 7.66085 7.89943 7.67324 7.88703 7.68563C7.75067 7.82807 7.47174 8.12536 7.47174 8.70135C7.47174 9.27735 7.87464 9.85953 7.9986 10.0206C8.0048 10.0268 8.0172 10.0453 8.03579 10.0701C8.67422 11.0053 9.46141 11.6928 10.2548 12.0025C10.9056 12.2564 11.3147 12.3741 11.5317 12.3741C11.5998 12.3741 11.6494 12.3617 11.699 12.3493C11.7362 12.3431 11.7734 12.3307 11.823 12.3245C12.0337 12.3059 12.5482 12.0272 12.6474 11.7547C12.7465 11.4822 12.7465 11.2531 12.7341 11.2035ZM12.7341 11.2035C12.7217 11.1849 12.6536 11.154 12.5916 11.123C12.5668 11.1106 12.542 11.0982 12.5172 11.0858C12.3684 11.0115 11.7238 10.7018 11.6122 10.6585C11.5689 10.6461 11.5255 10.6275 11.5007 10.6275C11.4883 10.6275 11.4635 10.6275 11.4201 10.6895C11.3271 10.8257 11.073 11.1292 10.9862 11.2221C10.9242 11.2964 10.8498 11.3274 10.7693 11.3274C10.7135 11.3274 10.6515 11.3088 10.5833 11.2778C10.5647 11.2654 10.5337 11.2531 10.4965 11.2345C10.3106 11.154 9.92009 10.9867 9.48621 10.6027C9.07712 10.2373 8.79819 9.78521 8.71761 9.66134C8.59984 9.46315 8.72381 9.33928 8.78579 9.27115C8.82298 9.23399 8.86637 9.17825 8.91596 9.12251C8.94075 9.09154 8.96554 9.06677 8.98414 9.04199C9.03373 8.98625 9.05232 8.9429 9.08951 8.87477L9.10811 8.83761C9.1329 8.79426 9.1267 8.7509 9.09571 8.68897C9.07712 8.64561 8.98414 8.42884 8.84778 8.09439C8.78579 7.93956 8.72381 7.79091 8.68042 7.69801C8.61224 7.53079 8.55645 7.53079 8.53166 7.53079C8.51926 7.53079 8.51307 7.53079 8.50067 7.53079C8.48827 7.53079 8.47588 7.53079 8.46348 7.53079C8.42009 7.53079 8.3829 7.53079 8.33951 7.5246C8.29612 7.5246 8.25273 7.5184 8.20935 7.5184C8.15976 7.5184 8.03579 7.53079 7.91802 7.65466C7.91183 7.66085 7.89943 7.67324 7.88703 7.68563C7.75067 7.82807 7.47174 8.12536 7.47174 8.70135C7.47174 9.27735 7.87464 9.85953 7.9986 10.0206C8.0048 10.0268 8.0172 10.0453 8.03579 10.0701C8.67422 11.0053 9.46141 11.6928 10.2548 12.0025C10.9056 12.2564 11.3147 12.3741 11.5317 12.3741C11.5998 12.3741 11.6494 12.3617 11.699 12.3493C11.7362 12.3431 11.7734 12.3307 11.823 12.3245C12.0337 12.3059 12.5482 12.0272 12.6474 11.7547C12.7465 11.4822 12.7465 11.2531 12.7341 11.2035ZM12.7341 11.2035C12.7217 11.1849 12.6536 11.154 12.5916 11.123C12.5668 11.1106 12.542 11.0982 12.5172 11.0858C12.3684 11.0115 11.7238 10.7018 11.6122 10.6585C11.5689 10.6461 11.5255 10.6275 11.5007 10.6275C11.4883 10.6275 11.4635 10.6275 11.4201 10.6895C11.3271 10.8257 11.073 11.1292 10.9862 11.2221C10.9242 11.2964 10.8498 11.3274 10.7693 11.3274C10.7135 11.3274 10.6515 11.3088 10.5833 11.2778C10.5647 11.2654 10.5337 11.2531 10.4965 11.2345C10.3106 11.154 9.92009 10.9867 9.48621 10.6027C9.07712 10.2373 8.79819 9.78521 8.71761 9.66134C8.59984 9.46315 8.72381 9.33928 8.78579 9.27115C8.82298 9.23399 8.86637 9.17825 8.91596 9.12251C8.94075 9.09154 8.96554 9.06677 8.98414 9.04199C9.03373 8.98625 9.05232 8.9429 9.08951 8.87477L9.10811 8.83761C9.1329 8.79426 9.1267 8.7509 9.09571 8.68897C9.07712 8.64561 8.98414 8.42884 8.84778 8.09439C8.78579 7.93956 8.72381 7.79091 8.68042 7.69801C8.61224 7.53079 8.55645 7.53079 8.53166 7.53079C8.51926 7.53079 8.51307 7.53079 8.50067 7.53079C8.48827 7.53079 8.47588 7.53079 8.46348 7.53079C8.42009 7.53079 8.3829 7.53079 8.33951 7.5246C8.29612 7.5246 8.25273 7.5184 8.20935 7.5184C8.15976 7.5184 8.03579 7.53079 7.91802 7.65466C7.91183 7.66085 7.89943 7.67324 7.88703 7.68563C7.75067 7.82807 7.47174 8.12536 7.47174 8.70135C7.47174 9.27735 7.87464 9.85953 7.9986 10.0206C8.0048 10.0268 8.0172 10.0453 8.03579 10.0701C8.67422 11.0053 9.46141 11.6928 10.2548 12.0025C10.9056 12.2564 11.3147 12.3741 11.5317 12.3741C11.5998 12.3741 11.6494 12.3617 11.699 12.3493C11.7362 12.3431 11.7734 12.3307 11.823 12.3245C12.0337 12.3059 12.5482 12.0272 12.6474 11.7547C12.7465 11.4822 12.7465 11.2531 12.7341 11.2035ZM12.7341 11.2035C12.7217 11.1849 12.6536 11.154 12.5916 11.123C12.5668 11.1106 12.542 11.0982 12.5172 11.0858C12.3684 11.0115 11.7238 10.7018 11.6122 10.6585C11.5689 10.6461 11.5255 10.6275 11.5007 10.6275C11.4883 10.6275 11.4635 10.6275 11.4201 10.6895C11.3271 10.8257 11.073 11.1292 10.9862 11.2221C10.9242 11.2964 10.8498 11.3274 10.7693 11.3274C10.7135 11.3274 10.6515 11.3088 10.5833 11.2778C10.5647 11.2654 10.5337 11.2531 10.4965 11.2345C10.3106 11.154 9.92009 10.9867 9.48621 10.6027C9.07712 10.2373 8.79819 9.78521 8.71761 9.66134C8.59984 9.46315 8.72381 9.33928 8.78579 9.27115C8.82298 9.23399 8.86637 9.17825 8.91596 9.12251C8.94075 9.09154 8.96554 9.06677 8.98414 9.04199C9.03373 8.98625 9.05232 8.9429 9.08951 8.87477L9.10811 8.83761C9.1329 8.79426 9.1267 8.7509 9.09571 8.68897C9.07712 8.64561 8.98414 8.42884 8.84778 8.09439C8.78579 7.93956 8.72381 7.79091 8.68042 7.69801C8.61224 7.53079 8.55645 7.53079 8.53166 7.53079C8.51926 7.53079 8.51307 7.53079 8.50067 7.53079C8.48827 7.53079 8.47588 7.53079 8.46348 7.53079C8.42009 7.53079 8.3829 7.53079 8.33951 7.5246C8.29612 7.5246 8.25273 7.5184 8.20935 7.5184C8.15976 7.5184 8.03579 7.53079 7.91802 7.65466C7.91183 7.66085 7.89943 7.67324 7.88703 7.68563C7.75067 7.82807 7.47174 8.12536 7.47174 8.70135C7.47174 9.27735 7.87464 9.85953 7.9986 10.0206C8.0048 10.0268 8.0172 10.0453 8.03579 10.0701C8.67422 11.0053 9.46141 11.6928 10.2548 12.0025C10.9056 12.2564 11.3147 12.3741 11.5317 12.3741C11.5998 12.3741 11.6494 12.3617 11.699 12.3493C11.7362 12.3431 11.7734 12.3307 11.823 12.3245C12.0337 12.3059 12.5482 12.0272 12.6474 11.7547C12.7465 11.4822 12.7465 11.2531 12.7341 11.2035ZM10.0503 4.57031C7.08125 4.57031 4.66389 6.96718 4.66389 9.90908C4.66389 10.8815 4.93042 11.8352 5.43868 12.6652L5.46348 12.7023L5.45108 12.7457L4.58331 15.3098C4.55852 15.3841 4.6267 15.4522 4.70108 15.4275L7.37877 14.579L7.41596 14.5666L7.45315 14.5851C8.24654 15.0187 9.1453 15.2478 10.0565 15.2478C13.0255 15.2478 15.4428 12.851 15.4428 9.90908C15.4304 6.96718 13.0193 4.57031 10.0503 4.57031ZM10.0503 14.5666C9.15769 14.5666 8.28992 14.3188 7.53992 13.8419C7.51513 13.8295 7.49034 13.8233 7.45935 13.8295L5.77339 14.3622C5.69901 14.387 5.63083 14.3126 5.65563 14.2445L6.20108 12.6404C6.21348 12.6094 6.20728 12.5847 6.18868 12.5599C5.63703 11.7795 5.35191 10.8629 5.35191 9.90908C5.35191 7.33879 7.45935 5.25159 10.0503 5.25159C11.3023 5.25159 12.48 5.73468 13.3726 6.61416C14.2589 7.49363 14.7486 8.66419 14.7486 9.90288C14.7424 12.4732 12.635 14.5666 10.0503 14.5666ZM12.5916 11.123C12.5668 11.1106 12.542 11.0982 12.5172 11.0858C12.3684 11.0115 11.7238 10.7018 11.6122 10.6585C11.5689 10.6461 11.5255 10.6275 11.5007 10.6275C11.4883 10.6275 11.4635 10.6275 11.4201 10.6895C11.3271 10.8257 11.073 11.1292 10.9862 11.2221C10.9242 11.2964 10.8498 11.3274 10.7693 11.3274C10.7135 11.3274 10.6515 11.3088 10.5833 11.2778C10.5647 11.2654 10.5337 11.2531 10.4965 11.2345C10.3106 11.154 9.92009 10.9867 9.48621 10.6027C9.07712 10.2373 8.79819 9.78521 8.71761 9.66134C8.59984 9.46315 8.72381 9.33928 8.78579 9.27115C8.82298 9.23399 8.86637 9.17825 8.91596 9.12251C8.94075 9.09154 8.96554 9.06677 8.98414 9.04199C9.03373 8.98625 9.05232 8.9429 9.08951 8.87477L9.10811 8.83761C9.1329 8.79426 9.1267 8.7509 9.09571 8.68897C9.07712 8.64561 8.98414 8.42884 8.84778 8.09439C8.78579 7.93956 8.72381 7.79091 8.68042 7.69801C8.61224 7.53079 8.55645 7.53079 8.53166 7.53079C8.51926 7.53079 8.51307 7.53079 8.50067 7.53079C8.48827 7.53079 8.47588 7.53079 8.46348 7.53079C8.42009 7.53079 8.3829 7.53079 8.33951 7.5246C8.29612 7.5246 8.25273 7.5184 8.20935 7.5184C8.15976 7.5184 8.03579 7.53079 7.91802 7.65466C7.91183 7.66085 7.89943 7.67324 7.88703 7.68563C7.75067 7.82807 7.47174 8.12536 7.47174 8.70135C7.47174 9.27735 7.87464 9.85953 7.9986 10.0206C8.0048 10.0268 8.0172 10.0453 8.03579 10.0701C8.67422 11.0053 9.46141 11.6928 10.2548 12.0025C10.9056 12.2564 11.3147 12.3741 11.5317 12.3741C11.5998 12.3741 11.6494 12.3617 11.699 12.3493C11.7362 12.3431 11.7734 12.3307 11.823 12.3245C12.0337 12.3059 12.5482 12.0272 12.6474 11.7547C12.7465 11.476 12.7465 11.2469 12.7341 11.1973C12.7155 11.1849 12.6536 11.154 12.5916 11.123ZM12.7341 11.2035C12.7217 11.1849 12.6536 11.154 12.5916 11.123C12.5668 11.1106 12.542 11.0982 12.5172 11.0858C12.3684 11.0115 11.7238 10.7018 11.6122 10.6585C11.5689 10.6461 11.5255 10.6275 11.5007 10.6275C11.4883 10.6275 11.4635 10.6275 11.4201 10.6895C11.3271 10.8257 11.073 11.1292 10.9862 11.2221C10.9242 11.2964 10.8498 11.3274 10.7693 11.3274C10.7135 11.3274 10.6515 11.3088 10.5833 11.2778C10.5647 11.2654 10.5337 11.2531 10.4965 11.2345C10.3106 11.154 9.92009 10.9867 9.48621 10.6027C9.07712 10.2373 8.79819 9.78521 8.71761 9.66134C8.59984 9.46315 8.72381 9.33928 8.78579 9.27115C8.82298 9.23399 8.86637 9.17825 8.91596 9.12251C8.94075 9.09154 8.96554 9.06677 8.98414 9.04199C9.03373 8.98625 9.05232 8.9429 9.08951 8.87477L9.10811 8.83761C9.1329 8.79426 9.1267 8.7509 9.09571 8.68897C9.07712 8.64561 8.98414 8.42884 8.84778 8.09439C8.78579 7.93956 8.72381 7.79091 8.68042 7.69801C8.61224 7.53079 8.55645 7.53079 8.53166 7.53079C8.51926 7.53079 8.51307 7.53079 8.50067 7.53079C8.48827 7.53079 8.47588 7.53079 8.46348 7.53079C8.42009 7.53079 8.3829 7.53079 8.33951 7.5246C8.29612 7.5246 8.25273 7.5184 8.20935 7.5184C8.15976 7.5184 8.03579 7.53079 7.91802 7.65466C7.91183 7.66085 7.89943 7.67324 7.88703 7.68563C7.75067 7.82807 7.47174 8.12536 7.47174 8.70135C7.47174 9.27735 7.87464 9.85953 7.9986 10.0206C8.0048 10.0268 8.0172 10.0453 8.03579 10.0701C8.67422 11.0053 9.46141 11.6928 10.2548 12.0025C10.9056 12.2564 11.3147 12.3741 11.5317 12.3741C11.5998 12.3741 11.6494 12.3617 11.699 12.3493C11.7362 12.3431 11.7734 12.3307 11.823 12.3245C12.0337 12.3059 12.5482 12.0272 12.6474 11.7547C12.7465 11.4822 12.7465 11.2531 12.7341 11.2035ZM12.7341 11.2035C12.7217 11.1849 12.6536 11.154 12.5916 11.123C12.5668 11.1106 12.542 11.0982 12.5172 11.0858C12.3684 11.0115 11.7238 10.7018 11.6122 10.6585C11.5689 10.6461 11.5255 10.6275 11.5007 10.6275C11.4883 10.6275 11.4635 10.6275 11.4201 10.6895C11.3271 10.8257 11.073 11.1292 10.9862 11.2221C10.9242 11.2964 10.8498 11.3274 10.7693 11.3274C10.7135 11.3274 10.6515 11.3088 10.5833 11.2778C10.5647 11.2654 10.5337 11.2531 10.4965 11.2345C10.3106 11.154 9.92009 10.9867 9.48621 10.6027C9.07712 10.2373 8.79819 9.78521 8.71761 9.66134C8.59984 9.46315 8.72381 9.33928 8.78579 9.27115C8.82298 9.23399 8.86637 9.17825 8.91596 9.12251C8.94075 9.09154 8.96554 9.06677 8.98414 9.04199C9.03373 8.98625 9.05232 8.9429 9.08951 8.87477L9.10811 8.83761C9.1329 8.79426 9.1267 8.7509 9.09571 8.68897C9.07712 8.64561 8.98414 8.42884 8.84778 8.09439C8.78579 7.93956 8.72381 7.79091 8.68042 7.69801C8.61224 7.53079 8.55645 7.53079 8.53166 7.53079C8.51926 7.53079 8.51307 7.53079 8.50067 7.53079C8.48827 7.53079 8.47588 7.53079 8.46348 7.53079C8.42009 7.53079 8.3829 7.53079 8.33951 7.5246C8.29612 7.5246 8.25273 7.5184 8.20935 7.5184C8.15976 7.5184 8.03579 7.53079 7.91802 7.65466C7.91183 7.66085 7.89943 7.67324 7.88703 7.68563C7.75067 7.82807 7.47174 8.12536 7.47174 8.70135C7.47174 9.27735 7.87464 9.85953 7.9986 10.0206C8.0048 10.0268 8.0172 10.0453 8.03579 10.0701C8.67422 11.0053 9.46141 11.6928 10.2548 12.0025C10.9056 12.2564 11.3147 12.3741 11.5317 12.3741C11.5998 12.3741 11.6494 12.3617 11.699 12.3493C11.7362 12.3431 11.7734 12.3307 11.823 12.3245C12.0337 12.3059 12.5482 12.0272 12.6474 11.7547C12.7465 11.4822 12.7465 11.2531 12.7341 11.2035Z" fill="#1E54B0"/>
</g>
</g>
<defs>
<clipPath id="clip0_5121_17331">
<rect width="11.4311" height="11.4286" fill="white" transform="translate(4.28516 4.28516)"/>
</clipPath>
<clipPath id="clip1_5121_17331">
<rect width="10.8595" height="10.8571" fill="white" transform="translate(4.57031 4.57031)"/>
</clipPath>
</defs>
</svg>
