<svg width="26" height="26" viewBox="0 0 26 26" fill="none" xmlns="http://www.w3.org/2000/svg">
<rect x="1" y="1" width="24" height="24" rx="3" fill="#E1ECF1"/>
<rect x="1" y="1" width="24" height="24" rx="3" stroke="#C2D9E2" stroke-width="2"/>
<g clip-path="url(#clip0_5861_77447)">
<path d="M12.5324 17.3778C12.0869 17.3778 11.7266 17.0027 11.7266 16.5389V6.8389C11.7266 6.37511 12.0869 6 12.5324 6C12.9779 6 13.3382 6.37511 13.3382 6.8389V16.5389C13.3382 17.0027 12.9779 17.3778 12.5324 17.3778Z" fill="#C2D9E2"/>
<path d="M12.5503 17.3785C12.3362 17.3785 12.1313 17.2898 11.9805 17.1328L8.2357 13.2355C7.92143 12.9084 7.92143 12.3763 8.2357 12.0491C8.54997 11.7219 9.06109 11.7219 9.37536 12.0491L12.5503 15.3543L15.7252 12.0491C16.0395 11.7219 16.5506 11.7219 16.8649 12.0491C17.1791 12.3763 17.1791 12.9084 16.8649 13.2355L13.1201 17.134C12.9693 17.291 12.7644 17.3797 12.5503 17.3797V17.3785Z" fill="#C2D9E2"/>
<path d="M16.2896 20.001H8.80697C8.36147 20.001 8 19.6259 8 19.1621C8 18.6983 8.36032 18.3232 8.80582 18.3232H16.2896C16.7351 18.3232 17.0954 18.6983 17.0954 19.1621C17.0954 19.6259 16.7351 20.001 16.2896 20.001Z" fill="#C2D9E2"/>
</g>
<defs>
<clipPath id="clip0_5861_77447">
<rect width="9.1" height="14" fill="white" transform="translate(8 6)"/>
</clipPath>
</defs>
</svg>
