<svg width="16" height="16" viewBox="0 0 16 16" fill="none" xmlns="http://www.w3.org/2000/svg">
<path d="M8.05537 7.72245C7.9363 7.72245 7.81909 7.68524 7.71863 7.60896L1.03397 2.56152C0.788393 2.37547 0.740021 2.02571 0.924207 1.78013C1.11025 1.53454 1.46002 1.48617 1.7056 1.67036L8.05351 6.46106L14.2842 1.67408C14.5279 1.48617 14.8796 1.53268 15.0675 1.7764C15.2554 2.02013 15.2089 2.37175 14.9651 2.55966L8.39583 7.6071C8.29537 7.68338 8.1763 7.72245 8.05537 7.72245Z" fill="#545454"/>
<path d="M14.1098 1.91706C14.5358 1.91706 14.8837 2.26311 14.8837 2.69101V12.8622C14.8837 13.2882 14.5377 13.6361 14.1098 13.6361H1.89023C1.46419 13.6361 1.11628 13.2901 1.11628 12.8622V2.69101C1.11628 2.26497 1.46233 1.91706 1.89023 1.91706H14.1116M14.1116 0.800781H1.89023C0.848372 0.800781 0 1.64915 0 2.69101V12.8622C0 13.904 0.848372 14.7524 1.89023 14.7524H14.1116C15.1535 14.7524 16.0019 13.904 16.0019 12.8622V2.69101C16.0019 1.64915 15.1535 0.800781 14.1116 0.800781Z" fill="#545454"/>
</svg>
