<svg width="50" height="50" viewBox="0 0 50 50" fill="none" xmlns="http://www.w3.org/2000/svg">
<circle cx="25" cy="25" r="25" fill="#F2F8FD"/>
<g clip-path="url(#clip0_125_20240)">
<path d="M32.2447 32.7456H28.9852V27.6392C28.9852 26.4217 28.9633 24.8539 27.2896 24.8539C25.5919 24.8539 25.332 26.1803 25.332 27.5498V32.7452H22.0725V22.2472H25.2016V23.682H25.2438C25.557 23.1465 26.0096 22.706 26.5533 22.4074C27.0971 22.1088 27.7116 21.9633 28.3315 21.9864C31.6353 21.9864 32.2447 24.1597 32.2447 26.9868V32.7456ZM18.3943 20.8119C18.0201 20.812 17.6543 20.7011 17.3432 20.4933C17.032 20.2854 16.7895 19.99 16.6462 19.6443C16.503 19.2986 16.4654 18.9182 16.5384 18.5512C16.6113 18.1842 16.7915 17.847 17.056 17.5824C17.3206 17.3178 17.6577 17.1375 18.0247 17.0645C18.3917 16.9915 18.7721 17.0289 19.1178 17.1721C19.4635 17.3153 19.759 17.5578 19.9669 17.8689C20.1748 18.18 20.2857 18.5458 20.2857 18.92C20.2857 19.4217 20.0865 19.9028 19.7318 20.2576C19.3771 20.6124 18.896 20.8118 18.3943 20.8119ZM20.0241 32.7452H16.7612V22.2472H20.0245L20.0241 32.7452ZM33.8681 14.0014H15.123C14.9121 13.9989 14.7028 14.0379 14.5071 14.1164C14.3113 14.1948 14.1329 14.3111 13.9822 14.4586C13.8314 14.606 13.7112 14.7818 13.6285 14.9758C13.5458 15.1698 13.5021 15.3782 13.5 15.589V34.4109C13.505 34.8366 13.6788 35.2429 13.9832 35.5406C14.2876 35.8383 14.6977 36.003 15.1234 35.9985H33.8681C34.295 36.0042 34.7066 35.8402 35.0126 35.5425C35.3185 35.2448 35.4937 34.8377 35.4996 34.4109V15.5857C35.4935 15.1591 35.3182 14.7524 35.0122 14.455C34.7062 14.1577 34.2947 13.9941 33.8681 14.0002" fill="#78B6E3"/>
</g>
<defs>
<clipPath id="clip0_125_20240">
<rect width="22" height="22" fill="white" transform="translate(13.5 14)"/>
</clipPath>
</defs>
</svg>
