<svg width="20" height="20" viewBox="0 0 20 20" fill="none" xmlns="http://www.w3.org/2000/svg">
<circle cx="10" cy="10" r="10" fill="#EDF7FF"/>
<path d="M14.8756 15.7157C14.8555 15.7157 14.8361 15.7151 14.816 15.7133C12.4139 15.5396 10.3672 14.9028 8.73127 13.8214C7.32812 12.8933 6.22881 11.6436 5.46312 10.1061C4.45132 8.07455 4.30244 6.09907 4.28664 5.31902C4.28603 5.30887 4.28543 5.29873 4.28543 5.28858V5.23845C4.28482 5.17399 4.28543 5.1155 4.28543 5.06835C4.28482 4.63983 4.64396 4.28711 5.08514 4.28711H7.13366C7.46849 4.28711 7.77051 4.4948 7.88537 4.80336L8.8765 7.46878C8.93788 7.63529 8.90932 7.81732 8.79933 7.95638C8.79447 7.96294 8.789 7.96891 8.78353 7.97548L7.53716 9.36369C7.88111 10.2744 9.22106 11.8429 10.6254 12.3353L11.8645 11.3022C11.8706 11.2968 11.8773 11.292 11.884 11.2867C12.1058 11.1243 12.392 11.0855 12.6496 11.1834L15.2013 12.1491C15.5137 12.2672 15.7197 12.5674 15.7136 12.8963L15.6808 14.7047C15.6826 14.7226 15.6826 14.7405 15.682 14.7584L15.6711 14.9685C15.6601 15.1821 15.5641 15.3773 15.4012 15.5193C15.2542 15.647 15.0688 15.7157 14.875 15.7157H14.8756ZM5.07542 5.26471C5.07542 5.27008 5.07542 5.27605 5.07603 5.28142C5.08818 5.99223 5.22005 7.85194 6.1723 9.76475C6.87661 11.178 7.88597 12.3263 9.17245 13.1774C10.6929 14.183 12.6107 14.7757 14.8738 14.9392C14.8823 14.9344 14.8823 14.9309 14.8823 14.9297L14.8908 14.7602C14.8908 14.7506 14.8902 14.7411 14.8908 14.7315L14.9242 12.8826C14.9242 12.8784 14.9218 12.8748 14.9175 12.873L12.3658 11.9074C12.3658 11.9074 12.3616 11.9068 12.3592 11.9074L11.0684 12.9828C11.0624 12.9882 11.0557 12.993 11.049 12.9983C10.9196 13.0932 10.6965 13.1828 10.3708 13.0694C8.66078 12.4755 7.19625 10.6916 6.79639 9.63286C6.66878 9.29446 6.76358 9.06946 6.86567 8.93994C6.87053 8.93338 6.876 8.92681 6.88208 8.92085L8.07983 7.58635L7.14338 5.06954C7.14217 5.06596 7.13791 5.06298 7.13366 5.06298H5.08514C5.07967 5.06298 5.07481 5.06716 5.07481 5.07313C5.07481 5.12027 5.0742 5.1728 5.07481 5.23367V5.26471H5.07542Z" fill="#1D4EA5"/>
</svg>
