<svg width="24" height="24" viewBox="0 0 24 24" fill="none" xmlns="http://www.w3.org/2000/svg">
<ellipse cx="12" cy="12" rx="12" ry="12" fill="#EDF7FF"/>
<g clip-path="url(#clip0_22368_9066)">
<path d="M11.9758 12.6104C12.4931 12.6104 12.9939 12.6819 13.4681 12.8159C15.6511 13.4313 17.2818 15.3629 17.4506 17.699C17.4662 17.9155 17.2947 18.0998 17.0773 18.0998H6.87439C6.65793 18.0998 6.4855 17.9155 6.50109 17.699C6.70654 14.8548 9.07841 12.6104 11.9758 12.6104ZM11.9758 11.5098C10.2992 11.5098 8.70236 12.1399 7.4779 13.2836C6.25987 14.4228 5.52244 15.9618 5.4032 17.6201C5.37385 18.0274 5.51602 18.4319 5.79393 18.7299C6.07184 19.0289 6.46532 19.2005 6.87347 19.2005H17.0773C17.4854 19.2005 17.8789 19.0289 18.1568 18.7299C18.4347 18.4309 18.5769 18.0265 18.5476 17.6201C18.3485 14.863 16.427 12.5068 13.7662 11.7565C13.1856 11.5932 12.583 11.5098 11.9749 11.5098H11.9758Z" fill="#1E54B0"/>
<path d="M9.97954 7.81216V9.40166L9.42922 8.85134L11.0096 8.75504C11.3663 8.73303 11.6736 9.00543 11.6956 9.36222C11.7222 9.74745 11.3939 10.074 11.0096 10.0483L9.42922 9.95198L9.39437 9.95015C9.10362 9.93272 8.87891 9.68966 8.87891 9.40166V7.81216C8.90367 7.08391 9.95386 7.08299 9.97954 7.81216Z" fill="#1E54B0"/>
<path d="M12.9403 10.8405C12.722 10.8405 12.5147 10.7093 12.4294 10.4938C12.3166 10.2113 12.4541 9.89117 12.7357 9.77835C13.5043 9.47109 14.0005 8.73825 14.0005 7.91002C14.0005 6.80113 13.0989 5.89952 11.99 5.89952C10.8811 5.89952 9.97954 6.80113 9.97954 7.91002C9.97954 8.21361 9.73282 8.46034 9.42922 8.46034C9.12563 8.46034 8.87891 8.21361 8.87891 7.91002C8.87891 6.19578 10.2749 4.7998 11.99 4.7998C13.7052 4.7998 15.1012 6.19578 15.1012 7.91094C15.1012 9.19135 14.3326 10.3259 13.1439 10.801C13.0769 10.8276 13.0081 10.8405 12.9403 10.8405Z" fill="#1E54B0"/>
</g>
<defs>
<clipPath id="clip0_22368_9066">
<rect width="14.4" height="14.4" fill="white" transform="translate(4.7998 4.7998)"/>
</clipPath>
</defs>
</svg>
