<svg width="32" height="32" viewBox="0 0 32 32" fill="none" xmlns="http://www.w3.org/2000/svg">
<g clip-path="url(#clip0_712_55412)">
<path d="M19.8138 26.3204H9.31273C8.2573 26.3204 7.39844 25.4615 7.39844 24.4061V10.1389C7.39844 9.08347 8.2573 8.22461 9.31273 8.22461H11.2105C11.566 8.22461 11.8535 8.51212 11.8535 8.86761C11.8535 9.22309 11.566 9.5106 11.2105 9.5106H9.31273C8.96643 9.5106 8.68443 9.7926 8.68443 10.1389V24.4061C8.68443 24.7524 8.96643 25.0344 9.31273 25.0344H19.8138C20.1601 25.0344 20.4421 24.7524 20.4421 24.4061V22.7839C20.4421 22.4284 20.7296 22.1409 21.0851 22.1409C21.4406 22.1409 21.7281 22.4284 21.7281 22.7839V24.4061C21.7281 25.4615 20.8692 26.3204 19.8138 26.3204Z" fill="#3398D5"/>
<path d="M22.9818 23.4278H21.084C20.7285 23.4278 20.441 23.1403 20.441 22.7848V10.1398C20.441 9.79351 20.159 9.51151 19.8127 9.51151H11.2094C10.8539 9.51151 10.5664 9.224 10.5664 8.86851V7.24632C10.5664 6.19089 11.4253 5.33203 12.4807 5.33203H22.9818C24.0372 5.33203 24.896 6.19089 24.896 7.24632V21.5135C24.896 22.5689 24.0372 23.4278 22.9818 23.4278ZM21.727 22.1418H22.9818C23.3281 22.1418 23.6101 21.8598 23.6101 21.5135V7.24632C23.6101 6.90002 23.3281 6.61802 22.9818 6.61802H12.4807C12.1344 6.61802 11.8524 6.90002 11.8524 7.24632V8.22552H19.8127C20.8681 8.22552 21.727 9.08438 21.727 10.1398V22.1418Z" fill="#3398D5"/>
</g>
<defs>
<clipPath id="clip0_712_55412">
<rect width="17.4987" height="20.9892" fill="white" transform="translate(7.39844 5.33203)"/>
</clipPath>
</defs>
</svg>
