<svg width="18" height="18" viewBox="0 0 18 18" fill="none" xmlns="http://www.w3.org/2000/svg">
<path d="M9 0.9C4.5398 0.9 0.9 4.54009 0.9 9C0.9 13.4602 4.54009 17.1 9 17.1C13.4602 17.1 17.1 13.4599 17.1 9C17.1 4.5398 13.4599 0.9 9 0.9ZM9 15.9625C5.16095 15.9625 2.0375 12.8391 2.0375 9C2.0375 5.16095 5.16095 2.0375 9 2.0375C12.8391 2.0375 15.9625 5.16095 15.9625 9C15.9625 12.8391 12.8391 15.9625 9 15.9625Z" fill="#B5CEE3" fill-opacity="0.6" stroke="#B5CEE3" stroke-width="0.2"/>
<path d="M11.2475 6.75049C10.6465 6.14952 9.84794 5.81875 8.998 5.81875C8.14808 5.81875 7.34949 6.14953 6.74849 6.75052L11.2475 6.75049ZM11.2475 6.75049C11.4695 6.97258 11.8297 6.9726 12.0518 6.7505M11.2475 6.75049L12.0518 6.7505M12.0518 6.7505C12.2739 6.52841 12.2739 6.16828 12.0518 5.94616M12.0518 6.7505L12.0518 5.94616M12.0518 5.94616C11.2362 5.1306 10.1514 4.68125 8.998 4.68125M12.0518 5.94616L8.998 4.68125M8.998 4.68125C7.8446 4.68125 6.75976 5.1306 5.9442 5.9462L8.998 4.68125ZM5.94419 5.9462C4.26027 7.63012 4.26027 10.3699 5.9442 12.0538C6.75976 12.8694 7.8446 13.3188 8.998 13.3188C10.1514 13.3188 11.2362 12.8694 12.0518 12.0538C12.2739 11.8317 12.2739 11.4716 12.0518 11.2495L5.94419 5.9462ZM12.0518 11.2495C11.8297 11.0274 11.4696 11.0274 11.2475 11.2495C10.6465 11.8505 9.84795 12.1813 8.998 12.1813C8.14808 12.1813 7.34949 11.8505 6.74849 11.2495C5.5082 10.0092 5.5082 7.99085 6.74849 6.75052L12.0518 11.2495Z" fill="#B5CEE3" fill-opacity="0.6" stroke="#B5CEE3" stroke-width="0.2"/>
</svg>
