<svg width="24" height="25" viewBox="0 0 24 25" fill="none" xmlns="http://www.w3.org/2000/svg">
<circle cx="12" cy="12.5" r="12" fill="#EDF7FF"/>
<g clip-path="url(#clip0_15075_65626)">
<path d="M17.2555 19.2197H7.45096C7.3931 19.2197 7.3376 19.197 7.29668 19.1564C7.25577 19.1159 7.23279 19.0609 7.23279 19.0035V7.39464C7.23302 7.2227 7.30206 7.05787 7.42475 6.9363C7.54745 6.81472 7.71378 6.74632 7.8873 6.74609H16.8192C16.9927 6.74632 17.159 6.81472 17.2817 6.9363C17.4044 7.05787 17.4735 7.2227 17.4737 7.39464V19.0035C17.4737 19.0609 17.4507 19.1159 17.4098 19.1564C17.3689 19.197 17.3134 19.2197 17.2555 19.2197ZM7.66913 18.7874H17.0373V7.39464C17.0371 7.33737 17.014 7.28251 16.9732 7.24202C16.9323 7.20153 16.877 7.17868 16.8192 7.17846H7.8873C7.82951 7.17868 7.77414 7.20153 7.73328 7.24202C7.69241 7.28251 7.66936 7.33737 7.66913 7.39464V18.7874Z" fill="#00388C"/>
<path d="M17.2522 19.2182H15.026C14.9973 19.2183 14.9689 19.2128 14.9423 19.202C14.9158 19.1911 14.8917 19.1752 14.8714 19.1551C14.8511 19.135 14.8351 19.1111 14.8242 19.0849C14.8132 19.0586 14.8077 19.0304 14.8078 19.002V15.2318C14.8077 15.2034 14.8132 15.1752 14.8242 15.1489C14.8351 15.1227 14.8511 15.0988 14.8714 15.0787C14.8917 15.0586 14.9158 15.0427 14.9423 15.0319C14.9689 15.021 14.9973 15.0155 15.026 15.0156H17.2522C17.31 15.0156 17.3655 15.0384 17.4064 15.0789C17.4473 15.1195 17.4703 15.1745 17.4703 15.2318V19.0046C17.4696 19.0615 17.4463 19.1158 17.4055 19.1558C17.3647 19.1958 17.3096 19.2182 17.2522 19.2182ZM15.245 18.7858H17.0349V15.4454H15.245V18.7858Z" fill="#00388C"/>
<path d="M9.65841 19.2182H7.43221C7.37435 19.2182 7.31885 19.1954 7.27793 19.1549C7.23702 19.1143 7.21404 19.0593 7.21404 19.002V15.2318C7.21404 15.1745 7.23702 15.1195 7.27793 15.0789C7.31885 15.0384 7.37435 15.0156 7.43221 15.0156H9.65841C9.71627 15.0156 9.77177 15.0384 9.81269 15.0789C9.8536 15.1195 9.87658 15.1745 9.87658 15.2318V19.0046C9.87589 19.0615 9.85259 19.1158 9.81175 19.1558C9.77091 19.1958 9.71582 19.2182 9.65841 19.2182ZM7.65125 18.7858H9.44112V15.4454H7.65125V18.7858Z" fill="#00388C"/>
<path d="M12.3103 19.2204C12.2525 19.2204 12.197 19.1976 12.1561 19.157C12.1151 19.1165 12.0922 19.0615 12.0922 19.0042V16.2474C12.0922 16.1901 12.1151 16.1351 12.1561 16.0946C12.197 16.054 12.2525 16.0312 12.3103 16.0312C12.3682 16.0312 12.4237 16.054 12.4646 16.0946C12.5055 16.1351 12.5285 16.1901 12.5285 16.2474V19.0042C12.5285 19.0615 12.5055 19.1165 12.4646 19.157C12.4237 19.1976 12.3682 19.2204 12.3103 19.2204Z" fill="#00388C"/>
<path d="M10.8498 8.55859H9.75287C9.70467 8.55859 9.6656 8.59731 9.6656 8.64507V9.58761C9.6656 9.63537 9.70467 9.67408 9.75287 9.67408H10.8498C10.898 9.67408 10.9371 9.63537 10.9371 9.58761V8.64507C10.9371 8.59731 10.898 8.55859 10.8498 8.55859Z" fill="#00388C"/>
<path d="M10.8498 11.5215H9.75287C9.70467 11.5215 9.6656 11.5602 9.6656 11.608V12.5505C9.6656 12.5983 9.70467 12.637 9.75287 12.637H10.8498C10.898 12.637 10.9371 12.5983 10.9371 12.5505V11.608C10.9371 11.5602 10.898 11.5215 10.8498 11.5215Z" fill="#00388C"/>
<path d="M14.7498 8.55859H13.6529C13.6047 8.55859 13.5656 8.59731 13.5656 8.64507V9.58761C13.5656 9.63537 13.6047 9.67409 13.6529 9.67409H14.7498C14.798 9.67409 14.8371 9.63537 14.8371 9.58761V8.64507C14.8371 8.59731 14.798 8.55859 14.7498 8.55859Z" fill="#00388C"/>
<path d="M14.7498 11.5215H13.6529C13.6047 11.5215 13.5656 11.5602 13.5656 11.608V12.5505C13.5656 12.5983 13.6047 12.637 13.6529 12.637H14.7498C14.798 12.637 14.8371 12.5983 14.8371 12.5505V11.608C14.8371 11.5602 14.798 11.5215 14.7498 11.5215Z" fill="#00388C"/>
<path d="M5.22283 19.1661C5.16497 19.1661 5.10947 19.1433 5.06856 19.1028C5.02764 19.0623 5.00466 19.0073 5.00466 18.9499V16.5365C5.00466 16.4792 5.02764 16.4242 5.06856 16.3836C5.10947 16.3431 5.16497 16.3203 5.22283 16.3203C5.2807 16.3203 5.33619 16.3431 5.37711 16.3836C5.41802 16.4242 5.441 16.4792 5.441 16.5365V18.9499C5.441 19.0073 5.41802 19.0623 5.37711 19.1028C5.33619 19.1433 5.2807 19.1661 5.22283 19.1661Z" fill="#32996A"/>
<path d="M19.2494 19.1661C19.1915 19.1661 19.136 19.1433 19.0951 19.1028C19.0542 19.0623 19.0312 19.0073 19.0312 18.9499V16.5365C19.0312 16.4792 19.0542 16.4242 19.0951 16.3836C19.136 16.3431 19.1915 16.3203 19.2494 16.3203C19.3073 16.3203 19.3628 16.3431 19.4037 16.3836C19.4446 16.4242 19.4676 16.4792 19.4676 16.5365V18.9499C19.4676 19.0073 19.4446 19.0623 19.4037 19.1028C19.3628 19.1433 19.3073 19.1661 19.2494 19.1661Z" fill="#32996A"/>
<path d="M12.691 4.08519L13.4092 4.17166C13.4213 4.17318 13.4328 4.17803 13.4422 4.18565C13.4517 4.19326 13.4588 4.20335 13.4628 4.21477C13.4668 4.22619 13.4675 4.23848 13.4648 4.25027C13.4621 4.26206 13.4562 4.27287 13.4476 4.28148L12.9389 4.79167C12.9313 4.79916 12.9257 4.80833 12.9225 4.81842C12.9193 4.8285 12.9187 4.83919 12.9205 4.8496L13.0567 5.55435C13.059 5.56631 13.0579 5.57868 13.0535 5.59005C13.0491 5.60142 13.0415 5.61134 13.0317 5.61865C13.0219 5.62596 13.0101 5.63037 12.9979 5.63139C12.9856 5.6324 12.9733 5.62998 12.9624 5.6244L12.3158 5.30186C12.3064 5.29694 12.2959 5.29436 12.2852 5.29436C12.2746 5.29436 12.2641 5.29694 12.2547 5.30186L11.6202 5.64775C11.6095 5.65375 11.5973 5.65664 11.585 5.65608C11.5727 5.65552 11.5608 5.65153 11.5507 5.64458C11.5406 5.63763 11.5327 5.62799 11.5278 5.61677C11.523 5.60555 11.5214 5.59321 11.5234 5.58116L11.6333 4.87208C11.6348 4.86168 11.6337 4.85108 11.6302 4.84117C11.6267 4.83125 11.6209 4.82229 11.6133 4.81502L11.0897 4.32385C11.0807 4.31559 11.0742 4.30499 11.071 4.29327C11.0678 4.28155 11.068 4.26918 11.0715 4.25755C11.0751 4.24593 11.0818 4.23552 11.0911 4.22752C11.1003 4.21952 11.1116 4.21425 11.1237 4.2123L11.8384 4.09643C11.849 4.09484 11.8589 4.0907 11.8675 4.08436C11.876 4.07803 11.8828 4.0697 11.8873 4.06012L12.1962 3.41071C12.2017 3.39997 12.21 3.39094 12.2203 3.38464C12.2307 3.37833 12.2426 3.375 12.2547 3.375C12.2668 3.375 12.2787 3.37833 12.289 3.38464C12.2994 3.39094 12.3077 3.39997 12.3131 3.41071L12.6456 4.04888C12.6499 4.05799 12.6562 4.06602 12.664 4.07232C12.6719 4.07862 12.6811 4.08302 12.691 4.08519Z" fill="#32996A"/>
<path d="M15.4379 5.01474L15.9972 5.08478C16.0053 5.08581 16.013 5.08905 16.0193 5.09417C16.0256 5.09928 16.0304 5.10605 16.033 5.11371C16.0357 5.12136 16.0361 5.12961 16.0342 5.13749C16.0324 5.14537 16.0283 5.15257 16.0226 5.15828L15.6185 5.56383C15.6135 5.56869 15.6097 5.57471 15.6076 5.58135C15.6055 5.58798 15.605 5.59504 15.6063 5.60189L15.7145 6.16223C15.7161 6.1702 15.7153 6.17845 15.7124 6.18603C15.7094 6.19361 15.7044 6.20021 15.6979 6.20508C15.6913 6.20996 15.6835 6.2129 15.6753 6.21358C15.6672 6.21426 15.659 6.21265 15.6517 6.20893L15.1481 5.95815C15.1387 5.95323 15.1282 5.95066 15.1176 5.95066C15.1069 5.95066 15.0965 5.95323 15.0871 5.95815L14.5931 6.22708C14.586 6.23106 14.5779 6.23298 14.5697 6.23261C14.5615 6.23225 14.5536 6.22962 14.5469 6.22502C14.5402 6.22043 14.5349 6.21405 14.5316 6.20661C14.5284 6.19918 14.5273 6.19099 14.5285 6.18298L14.6158 5.63042C14.6174 5.62001 14.6164 5.60937 14.6129 5.59943C14.6094 5.58948 14.6035 5.58054 14.5957 5.57336L14.217 5.22054C14.2083 5.21224 14.202 5.20171 14.199 5.19011C14.1959 5.17851 14.1962 5.16631 14.1997 5.15484C14.2032 5.14338 14.2099 5.1331 14.2189 5.12516C14.228 5.11722 14.2391 5.11192 14.251 5.10985L14.7642 5.02338C14.7747 5.02172 14.7846 5.01755 14.7931 5.01122C14.8017 5.00489 14.8085 4.99661 14.813 4.98707L15.0338 4.52185C15.0394 4.51115 15.0479 4.50217 15.0582 4.4959C15.0686 4.48964 15.0806 4.48633 15.0927 4.48633C15.1049 4.48633 15.1168 4.48964 15.1272 4.4959C15.1376 4.50217 15.146 4.51115 15.1516 4.52185L15.3899 4.97928C15.3944 4.98855 15.4012 4.9966 15.4095 5.00277C15.4179 5.00893 15.4276 5.01304 15.4379 5.01474Z" fill="#32996A"/>
<path d="M9.85338 5.01474L10.3691 5.07959C10.3812 5.08112 10.3927 5.08596 10.4021 5.09358C10.4116 5.10119 10.4187 5.11128 10.4227 5.1227C10.4267 5.13412 10.4274 5.14641 10.4247 5.1582C10.422 5.16999 10.4161 5.1808 10.4075 5.18941L10.0419 5.55605C10.0344 5.56341 10.029 5.57247 10.0259 5.58242C10.0229 5.59238 10.0224 5.60293 10.0244 5.61313L10.13 6.16223C10.1316 6.1702 10.1308 6.17845 10.1279 6.18603C10.125 6.19361 10.1199 6.20021 10.1134 6.20508C10.1068 6.20996 10.099 6.2129 10.0908 6.21358C10.0827 6.21426 10.0745 6.21265 10.0672 6.20893L9.56364 5.95815C9.55423 5.95323 9.54373 5.95066 9.53309 5.95066C9.52244 5.95066 9.51197 5.95323 9.50256 5.95815L9.00861 6.22708C9.00149 6.23106 8.99338 6.23298 8.98521 6.23261C8.97705 6.23225 8.96915 6.22962 8.96242 6.22502C8.95569 6.22043 8.95039 6.21405 8.94714 6.20661C8.94389 6.19918 8.94281 6.19099 8.94403 6.18298L9.0313 5.63042C9.03288 5.62001 9.0319 5.60937 9.0284 5.59943C9.0249 5.58948 9.019 5.58054 9.01123 5.57336L8.6325 5.22054C8.62376 5.21219 8.61752 5.20159 8.61452 5.18993C8.61151 5.17827 8.61183 5.16601 8.61545 5.15453C8.61908 5.14304 8.62586 5.13277 8.63503 5.12489C8.64421 5.117 8.65541 5.11179 8.6674 5.10985L9.17967 5.02338C9.19018 5.02172 9.20013 5.01755 9.20865 5.01122C9.21716 5.00489 9.22397 4.99661 9.22852 4.98707L9.44932 4.52185C9.4549 4.51115 9.46336 4.50217 9.47375 4.4959C9.48414 4.48964 9.49606 4.48633 9.50823 4.48633C9.52039 4.48633 9.53231 4.48964 9.5427 4.4959C9.55309 4.50217 9.56155 4.51115 9.56714 4.52185L9.80538 4.97928C9.80995 4.98855 9.81669 4.9966 9.82504 5.00277C9.83339 5.00893 9.84311 5.01304 9.85338 5.01474Z" fill="#32996A"/>
<path d="M5.2246 16.7635C5.69211 16.7635 6.0711 16.388 6.0711 15.9247C6.0711 15.4615 5.69211 15.0859 5.2246 15.0859C4.75709 15.0859 4.3781 15.4615 4.3781 15.9247C4.3781 16.388 4.75709 16.7635 5.2246 16.7635Z" fill="#32996A"/>
<path d="M19.2621 16.7635C19.7296 16.7635 20.1086 16.388 20.1086 15.9247C20.1086 15.4615 19.7296 15.0859 19.2621 15.0859C18.7946 15.0859 18.4156 15.4615 18.4156 15.9247C18.4156 16.388 18.7946 16.7635 19.2621 16.7635Z" fill="#32996A"/>
<path d="M9.7337 15.4471C9.69585 15.4473 9.6586 15.4377 9.62568 15.4192C9.59276 15.4007 9.56531 15.3739 9.54608 15.3416C9.51664 15.2923 9.5081 15.2334 9.52233 15.1778C9.53655 15.1223 9.57237 15.0745 9.62199 15.045L9.71625 14.9897C10.1526 14.7303 11.1719 14.1172 12.3456 14.1172C13.6747 14.1172 14.7167 14.7804 15.1085 15.0303L15.1382 15.0494C15.1844 15.0813 15.2164 15.1297 15.2274 15.1845C15.2385 15.2392 15.2277 15.2961 15.1973 15.3431C15.167 15.3902 15.1195 15.4238 15.0647 15.4369C15.0099 15.45 14.9521 15.4416 14.9035 15.4134L14.8729 15.3944C14.5099 15.1635 13.5464 14.5504 12.3421 14.5495C11.2897 14.5495 10.3777 15.0961 9.93879 15.3589L9.84104 15.4177C9.80835 15.4364 9.77142 15.4465 9.7337 15.4471Z" fill="#00388C"/>
<path d="M19.9406 19.2195H4.5369C4.47903 19.2195 4.42356 19.1967 4.38264 19.1562C4.34173 19.1156 4.31873 19.0606 4.31873 19.0033C4.31873 18.946 4.34173 18.891 4.38264 18.8504C4.42356 18.8099 4.47903 18.7871 4.5369 18.7871H19.9406C19.9984 18.7871 20.0539 18.8099 20.0948 18.8504C20.1358 18.891 20.1587 18.946 20.1587 19.0033C20.1587 19.0606 20.1358 19.1156 20.0948 19.1562C20.0539 19.1967 19.9984 19.2195 19.9406 19.2195Z" fill="#00388C"/>
</g>
<defs>
<clipPath id="clip0_15075_65626">
<rect width="15.84" height="15.84" fill="white" transform="translate(4.31873 3.37891)"/>
</clipPath>
</defs>
</svg>
