<svg width="24" height="25" viewBox="0 0 24 25" fill="none" xmlns="http://www.w3.org/2000/svg">
<circle cx="12" cy="12.5" r="12" fill="#EDF7FF"/>
<g clip-path="url(#clip0_15075_65588)">
<path d="M11.341 12.1988L9.14997 9.85325C9.09591 9.79454 9.06052 9.71766 9.04922 9.63434C9.03791 9.55101 9.05131 9.46584 9.08737 9.39184C9.1243 9.31552 9.17 9.221 10.0126 9.14258H10.0264H10.0408C10.1174 9.15064 10.1925 9.1714 10.2636 9.20419L14.2375 11.0316L11.341 12.1988ZM9.35843 9.59349C9.35953 9.59627 9.36125 9.59868 9.36344 9.60049L11.4167 11.7955L13.3623 11.0099L10.1391 9.52837C10.1004 9.51029 10.0598 9.49827 10.0182 9.49266C9.79666 9.5111 9.57631 9.54478 9.35843 9.59349Z" fill="#00388C"/>
<path d="M5.21299 15.85C4.94944 15.85 4.76039 15.5461 4.7053 15.4474C4.64814 15.3423 4.61284 15.2242 4.60201 15.1017C4.59117 14.9793 4.60508 14.8558 4.6427 14.7402C4.67604 14.6291 4.73126 14.5277 4.80428 14.4436C4.87731 14.3595 4.96627 14.2948 5.06462 14.2543L5.29249 14.1626L5.50533 14.082L5.60549 14.4139L5.39515 14.493L5.17042 14.5841C5.11598 14.607 5.06684 14.6433 5.02664 14.6903C4.98644 14.7373 4.95621 14.7939 4.93817 14.8557C4.91642 14.9223 4.90833 14.9935 4.91451 15.064C4.92068 15.1345 4.94097 15.2026 4.97385 15.2632C5.05085 15.4032 5.1579 15.5027 5.22425 15.4999L6.45121 15.1064C6.49068 15.0987 6.53085 15.0966 6.57078 15.1001L9.98312 15.495C10.1243 15.5061 10.266 15.4856 10.4 15.4348L11.8943 14.8746L11.9938 15.2065L10.4996 15.7666C10.3247 15.8328 10.1397 15.859 9.95557 15.8437L6.54324 15.4488C6.53199 15.4478 6.52068 15.4478 6.50943 15.4488L5.28122 15.843C5.25872 15.8477 5.23588 15.85 5.21299 15.85Z" fill="#00388C"/>
<path d="M15.4706 13.8888L15.3717 13.5569L20.1606 11.7729C20.204 11.7546 20.2421 11.7232 20.2705 11.6822C20.2989 11.6411 20.3166 11.5921 20.3215 11.5404C20.3734 11.1105 20.1675 10.7002 19.8326 10.5602L18.1655 9.88594C17.9727 9.80745 17.7617 9.80547 17.5677 9.88034L7.39454 13.7313L7.29375 13.4001L17.4669 9.54917C17.7285 9.44979 18.0125 9.4525 18.2726 9.55687L19.939 10.2311C20.4116 10.4223 20.7033 10.9915 20.6313 11.5838C20.6186 11.7003 20.577 11.8104 20.5113 11.9018C20.4456 11.9932 20.3584 12.0623 20.2595 12.1013L15.4706 13.8888Z" fill="#00388C"/>
<path d="M18.8153 9.84231L17.7674 10.2043C17.7674 10.2043 17.3774 10.4283 17.6422 10.8835C17.6422 10.8835 17.83 11.1726 18.1173 11.0753L20.0097 10.4452C20.0251 10.4399 20.0388 10.4299 20.0493 10.4163C20.0597 10.4027 20.0665 10.386 20.0688 10.3682C20.0711 10.3504 20.0688 10.3323 20.0623 10.3159C20.0557 10.2995 20.045 10.2856 20.0316 10.2757C19.6752 10.0187 19.2655 9.86872 18.8422 9.84021C18.8332 9.83933 18.8241 9.84003 18.8153 9.84231Z" fill="#00388C"/>
<path d="M9.63679 18.7401H9.62928C9.55999 18.7379 9.49207 18.7181 9.43061 18.6822C9.36916 18.6463 9.31578 18.5953 9.2745 18.5331C9.23322 18.4708 9.2051 18.3988 9.19228 18.3226C9.17946 18.2464 9.18226 18.168 9.20047 18.0932C9.20695 18.0653 9.21966 18.0398 9.2374 18.019L12.5552 14.0686C12.5737 14.0465 12.597 14.0301 12.6228 14.021L16.1284 12.795C16.1625 12.7831 16.1993 12.7847 16.2325 12.7994C16.2657 12.8141 16.2934 12.841 16.3111 12.8758C16.3287 12.9106 16.3351 12.951 16.3294 12.9905C16.3236 13.0299 16.3059 13.0659 16.2793 13.0926L10.9095 18.4398C10.8665 18.494 10.8137 18.5375 10.7545 18.5672C10.6954 18.5969 10.6312 18.6122 10.5664 18.612L9.65683 18.7366L9.63679 18.7401ZM9.4997 18.2206C9.4984 18.2623 9.51131 18.303 9.53584 18.3345C9.56036 18.366 9.59466 18.3858 9.63179 18.3901L10.5376 18.2654C10.5457 18.2647 10.5539 18.2647 10.562 18.2654C10.584 18.2662 10.6059 18.2614 10.6259 18.2513C10.646 18.2413 10.6638 18.2262 10.6778 18.2073C10.6827 18.2009 10.688 18.1948 10.6935 18.1891L15.5337 13.372L12.7593 14.3417L9.4997 18.2206Z" fill="#00388C"/>
<path d="M15.8686 11.7808C16.0411 11.7808 16.181 11.6244 16.181 11.4314C16.181 11.2385 16.0411 11.082 15.8686 11.082C15.6961 11.082 15.5562 11.2385 15.5562 11.4314C15.5562 11.6244 15.6961 11.7808 15.8686 11.7808Z" fill="#32996A"/>
<path d="M14.278 12.4117C14.4505 12.4117 14.5904 12.2552 14.5904 12.0623C14.5904 11.8693 14.4505 11.7129 14.278 11.7129C14.1055 11.7129 13.9656 11.8693 13.9656 12.0623C13.9656 12.2552 14.1055 12.4117 14.278 12.4117Z" fill="#32996A"/>
<path d="M12.6921 13.1167C12.8646 13.1167 13.0044 12.9603 13.0044 12.7674C13.0044 12.5744 12.8646 12.418 12.6921 12.418C12.5195 12.418 12.3797 12.5744 12.3797 12.7674C12.3797 12.9603 12.5195 13.1167 12.6921 13.1167Z" fill="#32996A"/>
<path d="M11.103 13.7203C11.2755 13.7203 11.4154 13.5638 11.4154 13.3709C11.4154 13.1779 11.2755 13.0215 11.103 13.0215C10.9305 13.0215 10.7906 13.1779 10.7906 13.3709C10.7906 13.5638 10.9305 13.7203 11.103 13.7203Z" fill="#32996A"/>
<path d="M9.5155 14.2476C9.68802 14.2476 9.82788 14.0912 9.82788 13.8982C9.82788 13.7053 9.68802 13.5488 9.5155 13.5488C9.34298 13.5488 9.20312 13.7053 9.20312 13.8982C9.20312 14.0912 9.34298 14.2476 9.5155 14.2476Z" fill="#32996A"/>
<path d="M6.05104 14.8064C6.01164 14.8061 5.97284 14.7954 5.93782 14.7752C5.90279 14.755 5.87252 14.7259 5.84947 14.6901L3.95581 12.8655C3.91228 12.822 3.87932 12.7669 3.86002 12.7053C3.84073 12.6437 3.83572 12.5776 3.84548 12.5132C3.85524 12.4489 3.87944 12.3883 3.91581 12.3373C3.95219 12.2862 3.99955 12.2463 4.05347 12.2213L4.48166 12.0113C4.54032 11.9832 4.60346 11.9688 4.66726 11.9688C4.73107 11.9688 4.79421 11.9832 4.85288 12.0113L4.86101 12.0155L7.65298 13.6077L7.67051 13.6266C7.70019 13.6592 7.72198 13.6997 7.73383 13.7442C7.74568 13.7888 7.7472 13.8361 7.73825 13.8815C7.7293 13.9269 7.71018 13.9691 7.68267 14.004C7.65516 14.0389 7.62017 14.0654 7.58099 14.081L6.12366 14.7938C6.10018 14.8021 6.07568 14.8063 6.05104 14.8064ZM4.66382 12.3208C4.64342 12.3209 4.62324 12.3254 4.60435 12.3341L4.17554 12.5441C4.16998 12.5461 4.165 12.5498 4.16114 12.5547C4.15729 12.5597 4.15469 12.5657 4.15363 12.5721C4.15258 12.578 4.15296 12.5841 4.15472 12.5897C4.15648 12.5954 4.15956 12.6004 4.16365 12.6043L6.0692 14.4402L7.33497 13.824L4.72329 12.3348C4.70443 12.326 4.68426 12.3212 4.66382 12.3208Z" fill="#00388C"/>
<path d="M15.6335 14.5351C15.6475 14.6464 15.6523 14.7589 15.6479 14.8712C15.6458 14.9399 15.6211 15.0054 15.5787 15.0551C15.5362 15.1048 15.4788 15.1353 15.4175 15.1408C15.1947 15.1597 14.8341 15.1877 14.518 15.1961C14.4688 15.197 14.4204 15.1816 14.379 15.152L14.0328 14.9055L14.4084 14.5295L15.3299 14.302C15.3636 14.2933 15.3986 14.2926 15.4326 14.2999C15.4666 14.3071 15.4989 14.3222 15.5274 14.3441C15.5559 14.366 15.5801 14.3943 15.5983 14.4272C15.6166 14.46 15.6286 14.4968 15.6335 14.5351Z" fill="#00388C"/>
<path d="M13.7945 16.231C13.8017 16.3061 13.8044 16.3817 13.8026 16.4572C13.8003 16.5259 13.7755 16.5913 13.7329 16.6409C13.6903 16.6904 13.6329 16.7208 13.5716 16.726C13.3763 16.7429 13.0796 16.7646 12.816 16.7716C12.7669 16.7727 12.7186 16.7576 12.677 16.7282L12.3797 16.5181L12.7121 16.1869L13.4915 15.9951C13.5253 15.9866 13.5604 15.986 13.5945 15.9935C13.6286 16.001 13.6609 16.0163 13.6894 16.0385C13.7179 16.0607 13.7419 16.0893 13.76 16.1224C13.7781 16.1556 13.7898 16.1925 13.7945 16.231Z" fill="#00388C"/>
</g>
<defs>
<clipPath id="clip0_15075_65588">
<rect width="16.8" height="9.6" fill="white" transform="translate(3.84062 9.14062)"/>
</clipPath>
</defs>
</svg>
