<svg width="32" height="33" viewBox="0 0 32 33" fill="none" xmlns="http://www.w3.org/2000/svg">
<circle cx="16" cy="16.8379" r="16" fill="#EDF7FF"/>
<g clip-path="url(#clip0_15188_57692)">
<path d="M15.1195 16.4363L12.1981 13.3089C12.1261 13.2306 12.0789 13.1281 12.0638 13.017C12.0487 12.9059 12.0666 12.7923 12.1147 12.6937C12.1639 12.5919 12.2248 12.4659 13.3483 12.3613H13.3667H13.3859C13.488 12.3721 13.5882 12.3998 13.683 12.4435L18.9815 14.8801L15.1195 16.4363ZM12.4761 12.9625C12.4775 12.9663 12.4798 12.9695 12.4828 12.9719L15.2205 15.8986L17.8146 14.8511L13.5169 12.8757C13.4654 12.8516 13.4112 12.8356 13.3558 12.8281C13.0604 12.8527 12.7666 12.8976 12.4761 12.9625Z" fill="#00388C"/>
<path d="M6.9444 21.3045C6.593 21.3045 6.34093 20.8993 6.26748 20.7677C6.19127 20.6276 6.14421 20.4701 6.12976 20.3069C6.11531 20.1437 6.13385 19.9789 6.18401 19.8248C6.22847 19.6766 6.3021 19.5415 6.39946 19.4293C6.49683 19.3172 6.61545 19.231 6.74658 19.1769L7.0504 19.0546L7.33419 18.9473L7.46773 19.3898L7.18728 19.4953L6.88764 19.6166C6.81505 19.6472 6.74954 19.6956 6.69594 19.7583C6.64234 19.821 6.60203 19.8964 6.57798 19.9789C6.54897 20.0676 6.53819 20.1625 6.54643 20.2566C6.55466 20.3506 6.58171 20.4414 6.62555 20.5222C6.72822 20.7089 6.87095 20.8415 6.95942 20.8377L8.59537 20.3131C8.64799 20.3028 8.70155 20.3 8.75479 20.3047L13.3046 20.8312C13.4928 20.846 13.6818 20.8187 13.8605 20.7509L15.8528 20.004L15.9855 20.4466L13.9932 21.1934C13.76 21.2817 13.5133 21.3166 13.2678 21.2961L8.71807 20.7696C8.70307 20.7683 8.688 20.7683 8.67299 20.7696L7.03538 21.2952C7.00538 21.3015 6.97492 21.3046 6.9444 21.3045Z" fill="#00388C"/>
<path d="M20.6212 18.6896L20.4893 18.2471L26.8745 15.8684C26.9325 15.8441 26.9832 15.8022 27.0211 15.7475C27.059 15.6927 27.0825 15.6273 27.0891 15.5585C27.1583 14.9853 26.8837 14.4382 26.4372 14.2515L24.2145 13.3525C23.9574 13.2478 23.676 13.2452 23.4173 13.345L9.85314 18.4796L9.71875 18.038L23.283 12.9034C23.6318 12.7709 24.0104 12.7746 24.3572 12.9137L26.5791 13.8127C27.2092 14.0676 27.5982 14.8266 27.5022 15.6164C27.4852 15.7716 27.4297 15.9184 27.3421 16.0403C27.2545 16.1621 27.1383 16.2543 27.0064 16.3063L20.6212 18.6896Z" fill="#00388C"/>
<path d="M25.0816 13.2943L23.6843 13.777C23.6843 13.777 23.1644 14.0757 23.5174 14.6825C23.5174 14.6825 23.7678 15.0681 24.1509 14.9383L26.6741 14.0981C26.6946 14.0912 26.7129 14.0778 26.7269 14.0596C26.7409 14.0415 26.7499 14.0192 26.753 13.9955C26.756 13.9718 26.753 13.9476 26.7442 13.9258C26.7354 13.9039 26.7212 13.8853 26.7033 13.8722C26.2281 13.5295 25.6819 13.3295 25.1175 13.2915C25.1055 13.2903 25.0933 13.2913 25.0816 13.2943Z" fill="#00388C"/>
<path d="M12.8454 25.159H12.8354C12.743 25.156 12.6524 25.1296 12.5705 25.0818C12.4886 25.034 12.4174 24.966 12.3624 24.8829C12.3073 24.7999 12.2698 24.704 12.2527 24.6024C12.2356 24.5008 12.2394 24.3962 12.2637 24.2964C12.2723 24.2593 12.2892 24.2253 12.3129 24.1975L16.7366 18.9304C16.7613 18.9009 16.7924 18.879 16.8268 18.8669L21.5009 17.2322C21.5464 17.2164 21.5954 17.2184 21.6397 17.238C21.684 17.2576 21.7209 17.2936 21.7444 17.3399C21.7679 17.3863 21.7766 17.4402 21.7688 17.4928C21.7611 17.5454 21.7376 17.5934 21.7021 17.629L14.5423 24.7586C14.485 24.8309 14.4146 24.8888 14.3357 24.9284C14.2568 24.968 14.1713 24.9884 14.0849 24.9882L12.8721 25.1544L12.8454 25.159ZM12.6626 24.4663C12.6609 24.522 12.6781 24.5762 12.7108 24.6182C12.7435 24.6601 12.7892 24.6866 12.8387 24.6923L14.0465 24.5261C14.0573 24.5252 14.0682 24.5252 14.0791 24.5261C14.1084 24.5272 14.1375 24.5207 14.1643 24.5073C14.191 24.4939 14.2147 24.4738 14.2335 24.4486C14.24 24.4401 14.247 24.432 14.2543 24.4243L20.708 18.0015L17.0087 19.2944L12.6626 24.4663Z" fill="#00388C"/>
<path d="M21.1548 15.879C21.3848 15.879 21.5713 15.6704 21.5713 15.4131C21.5713 15.1558 21.3848 14.9473 21.1548 14.9473C20.9248 14.9473 20.7383 15.1558 20.7383 15.4131C20.7383 15.6704 20.9248 15.879 21.1548 15.879Z" fill="#32996A"/>
<path d="M19.0337 16.7198C19.2637 16.7198 19.4502 16.5112 19.4502 16.2539C19.4502 15.9967 19.2637 15.7881 19.0337 15.7881C18.8037 15.7881 18.6172 15.9967 18.6172 16.2539C18.6172 16.5112 18.8037 16.7198 19.0337 16.7198Z" fill="#32996A"/>
<path d="M16.9165 17.6622C17.1465 17.6622 17.333 17.4536 17.333 17.1963C17.333 16.939 17.1465 16.7305 16.9165 16.7305C16.6865 16.7305 16.5 16.939 16.5 17.1963C16.5 17.4536 16.6865 17.6622 16.9165 17.6622Z" fill="#32996A"/>
<path d="M14.7993 18.4659C15.0293 18.4659 15.2158 18.2573 15.2158 18C15.2158 17.7427 15.0293 17.5342 14.7993 17.5342C14.5693 17.5342 14.3828 17.7427 14.3828 18C14.3828 18.2573 14.5693 18.4659 14.7993 18.4659Z" fill="#32996A"/>
<path d="M12.6821 19.168C12.9122 19.168 13.0986 18.9595 13.0986 18.7022C13.0986 18.4449 12.9122 18.2363 12.6821 18.2363C12.4521 18.2363 12.2656 18.4449 12.2656 18.7022C12.2656 18.9595 12.4521 19.168 12.6821 19.168Z" fill="#32996A"/>
<path d="M8.06441 19.9134C8.01187 19.913 7.96015 19.8988 7.91344 19.8718C7.86674 19.8449 7.82638 19.806 7.79565 19.7584L5.27077 17.3255C5.21273 17.2676 5.16878 17.1941 5.14305 17.1119C5.11732 17.0298 5.11065 16.9417 5.12366 16.8559C5.13667 16.77 5.16894 16.6893 5.21744 16.6212C5.26594 16.5532 5.32909 16.5 5.40098 16.4667L5.9719 16.1866C6.05011 16.1492 6.1343 16.1299 6.21937 16.1299C6.30445 16.1299 6.38864 16.1492 6.46686 16.1866L6.4777 16.1922L10.2003 18.3151L10.2237 18.3403C10.2633 18.3838 10.2923 18.4378 10.3081 18.4972C10.3239 18.5567 10.326 18.6196 10.314 18.6802C10.3021 18.7408 10.2766 18.797 10.2399 18.8435C10.2032 18.89 10.1566 18.9254 10.1043 18.9462L8.16123 19.8966C8.12992 19.9077 8.09726 19.9133 8.06441 19.9134ZM6.21478 16.5992C6.18758 16.5994 6.16067 16.6055 6.13549 16.617L5.56374 16.897C5.55632 16.8997 5.54969 16.9046 5.54455 16.9112C5.53941 16.9178 5.53595 16.9258 5.53453 16.9344C5.53313 16.9422 5.53363 16.9503 5.53598 16.9579C5.53832 16.9654 5.54244 16.9721 5.54788 16.9773L8.08862 19.4251L9.77631 18.6036L6.29408 16.6179C6.26893 16.6062 6.24203 16.5998 6.21478 16.5992Z" fill="#00388C"/>
<path d="M20.8413 19.5527C20.86 19.7011 20.8664 19.8511 20.8605 20.0008C20.8577 20.0924 20.8248 20.1797 20.7682 20.246C20.7115 20.3123 20.635 20.3529 20.5533 20.3602C20.2562 20.3854 19.7754 20.4227 19.3539 20.4339C19.2883 20.4351 19.2239 20.4147 19.1686 20.3751L18.707 20.0465L19.2078 19.5452L20.4365 19.2418C20.4814 19.2303 20.5281 19.2294 20.5734 19.239C20.6187 19.2487 20.6618 19.2688 20.6998 19.298C20.7378 19.3272 20.77 19.3649 20.7944 19.4087C20.8187 19.4526 20.8347 19.5016 20.8413 19.5527Z" fill="#00388C"/>
<path d="M18.3864 21.8119C18.396 21.9121 18.3996 22.0128 18.3972 22.1135C18.3942 22.2051 18.3611 22.2923 18.3043 22.3584C18.2475 22.4245 18.1709 22.4649 18.0892 22.472C17.8288 22.4944 17.4332 22.5233 17.0818 22.5327C17.0163 22.5341 16.9518 22.514 16.8965 22.4748L16.5 22.1947L16.9432 21.7531L17.9824 21.4973C18.0275 21.486 18.0743 21.4853 18.1198 21.4953C18.1652 21.5052 18.2083 21.5257 18.2462 21.5552C18.2842 21.5848 18.3163 21.6229 18.3404 21.6671C18.3645 21.7113 18.3802 21.7606 18.3864 21.8119Z" fill="#00388C"/>
</g>
<defs>
<clipPath id="clip0_15188_57692">
<rect width="22.4" height="12.8" fill="white" transform="translate(5.11719 12.3594)"/>
</clipPath>
</defs>
</svg>
