<svg width="24" height="25" viewBox="0 0 24 25" fill="none" xmlns="http://www.w3.org/2000/svg">
<path d="M14.0326 21.3467C13.0216 21.3467 12.1019 21.1666 11.3023 20.8132C10.9571 20.6604 10.8015 20.2579 10.9544 19.914C11.1072 19.5688 11.5097 19.4132 11.8535 19.5661C12.4798 19.8431 13.2126 19.9836 14.0326 19.9836C14.5361 19.9836 15.0055 19.9345 15.4285 19.8362C15.8542 19.7394 16.2527 19.6029 16.6156 19.4282C16.9813 19.2536 17.3306 19.0394 17.6554 18.7938C17.7086 18.7528 17.7604 18.7133 17.8123 18.6737C18.1916 18.3749 18.6924 18.2903 19.1522 18.4472C19.6052 18.6014 19.9477 18.9684 20.0719 19.4282C20.136 19.6275 20.2247 19.7216 20.5317 19.7216H22.5716C22.6071 19.7216 22.6371 19.693 22.6371 19.6561V4.23467C22.6371 4.19919 22.6084 4.16918 22.5716 4.16918H19.5383C19.5029 4.16918 19.4729 4.19783 19.4729 4.23467V14.4492C19.4729 15.5435 18.8984 16.5724 17.9746 17.1345C17.8218 17.2273 17.6635 17.316 17.5066 17.3952C16.8558 17.7199 16.1517 17.885 15.4121 17.885C14.3506 17.885 13.5264 17.5412 12.9601 16.8616C12.4253 16.2176 12.1537 15.3334 12.1537 14.2336V4.23467C12.1537 4.19919 12.1251 4.16918 12.0882 4.16918H9.05498C9.01951 4.16918 8.98949 4.19783 8.98949 4.23467V5.47772C8.98949 5.85432 8.68384 6.15996 8.30724 6.15996C7.93065 6.15996 7.625 5.85432 7.625 5.47772V4.23467C7.625 3.446 8.26631 2.80469 9.05498 2.80469H12.0882C12.8769 2.80469 13.5182 3.446 13.5182 4.23467V14.235C13.5182 15.0073 13.6833 15.5981 14.0094 15.9897C14.3069 16.3472 14.7667 16.5219 15.4121 16.5219C15.9457 16.5219 16.4314 16.4086 16.8953 16.1767C17.0181 16.1153 17.1437 16.0457 17.2651 15.972C17.785 15.6554 18.1084 15.0728 18.1084 14.452V4.23467C18.1084 3.446 18.7497 2.80469 19.5383 2.80469H22.5716C23.3603 2.80469 24.0016 3.446 24.0016 4.23467V19.6548C24.0016 20.4434 23.3603 21.0847 22.5716 21.0847H20.5317C19.6598 21.0847 19.0157 20.6235 18.7647 19.8185C18.7606 19.8062 18.7579 19.7939 18.7551 19.783C18.7524 19.7735 18.7469 19.7489 18.7128 19.7366C18.6814 19.7257 18.6651 19.7394 18.6569 19.7448C18.5982 19.7912 18.5409 19.8349 18.4822 19.8799C18.0865 20.1814 17.6567 20.4434 17.2092 20.6577C16.7562 20.876 16.2595 21.0465 15.7355 21.1652C15.2143 21.2853 14.6426 21.3467 14.0354 21.3467H14.0326Z" fill="#174E7F"/>
<path d="M6.3193 13.314C3.94646 13.314 2.15625 12.3015 2.15625 10.9589C2.15625 10.6573 2.40049 10.4131 2.70205 10.4131C3.0036 10.4131 3.24784 10.6573 3.24784 10.9589C3.24784 11.4733 4.4445 12.2224 6.3193 12.2224C8.19411 12.2224 9.39077 11.4747 9.39077 10.9589C9.39077 10.6573 9.63501 10.4131 9.93656 10.4131C10.2381 10.4131 10.4824 10.6573 10.4824 10.9589C10.4824 12.3015 8.69215 13.314 6.3193 13.314Z" fill="#32996A"/>
<path d="M9.93656 11.5044C9.63501 11.5044 9.39077 11.2602 9.39077 10.9586C9.39077 10.4442 8.19411 9.69511 6.3193 9.69511C4.4445 9.69511 3.24784 10.4428 3.24784 10.9586C3.24784 11.2602 3.0036 11.5044 2.70205 11.5044C2.40049 11.5044 2.15625 11.2602 2.15625 10.9586C2.15625 9.61597 3.94646 8.60352 6.3193 8.60352C8.69215 8.60352 10.4824 9.61597 10.4824 10.9586C10.4824 11.2602 10.2381 11.5044 9.93656 11.5044Z" fill="#32996A"/>
<path d="M2.69814 14.7611C2.39659 14.7611 2.15234 14.5168 2.15234 14.2153V11.3212C2.15234 11.0196 2.39659 10.7754 2.69814 10.7754C2.99969 10.7754 3.24393 11.0196 3.24393 11.3212V14.2153C3.24393 14.5168 2.99969 14.7611 2.69814 14.7611Z" fill="#32996A"/>
<path d="M9.93642 14.7181C9.63487 14.7181 9.39062 14.4739 9.39062 14.1724V11.4052C9.39062 11.1036 9.63487 10.8594 9.93642 10.8594C10.238 10.8594 10.4822 11.1036 10.4822 11.4052V14.1724C10.4822 14.4739 10.238 14.7181 9.93642 14.7181Z" fill="#32996A"/>
<path d="M0.545795 10.3159C0.244243 10.3159 0 10.0717 0 9.77015C0 8.42749 1.79021 7.41504 4.16305 7.41504C5.7022 7.41504 7.09943 7.86941 7.81033 8.59941C8.02046 8.815 8.015 9.16158 7.79942 9.37172C7.58383 9.58185 7.23725 9.57639 7.02711 9.3608C6.61367 8.93644 5.56848 8.50663 4.16305 8.50663C2.28825 8.50663 1.09159 9.25437 1.09159 9.77015C1.09159 10.0717 0.847347 10.3159 0.545795 10.3159Z" fill="#32996A"/>
<path d="M2.35511 11.884C2.30462 11.884 2.25413 11.8772 2.20365 11.8622C0.824151 11.4624 0 10.6819 0 9.7704C0 9.46885 0.244243 9.22461 0.545795 9.22461C0.847347 9.22461 1.09159 9.46885 1.09159 9.7704C1.09159 10.1429 1.67286 10.5714 2.50656 10.8129C2.79584 10.8961 2.96367 11.199 2.87907 11.4883C2.80948 11.7271 2.59253 11.8826 2.35511 11.8826V11.884Z" fill="#32996A"/>
<path d="M2.35511 17.7202C2.31417 17.7202 2.27324 17.7161 2.23094 17.7066C0.813235 17.3791 0 16.7283 0 15.9218V10.1337C0 9.83213 0.244243 9.58789 0.545795 9.58789C0.847347 9.58789 1.09159 9.83213 1.09159 10.1337V15.9218C1.09159 16.0242 1.43271 16.4021 2.47791 16.6437C2.77128 16.7119 2.95412 17.0052 2.88726 17.2986C2.82858 17.551 2.60481 17.7216 2.35647 17.7216L2.35511 17.7202Z" fill="#32996A"/>
<path d="M2.42742 14.842C2.38922 14.842 2.34965 14.8379 2.31008 14.8297C0.841889 14.5077 0 13.8514 0 13.0272C0 12.7257 0.244243 12.4814 0.545795 12.4814C0.847347 12.4814 1.09159 12.7257 1.09159 13.0272C1.09159 13.135 1.44909 13.5239 2.54341 13.7641C2.83814 13.8282 3.02371 14.1202 2.95957 14.4136C2.90363 14.6687 2.67713 14.842 2.42742 14.842Z" fill="#32996A"/>
<path d="M6.3193 16.2066C3.94646 16.2066 2.15625 15.1941 2.15625 13.8515C2.15625 13.5499 2.40049 13.3057 2.70205 13.3057C3.0036 13.3057 3.24784 13.5499 3.24784 13.8515C3.24784 14.3659 4.4445 15.115 6.3193 15.115C8.19411 15.115 9.39077 14.3672 9.39077 13.8515C9.39077 13.5499 9.63501 13.3057 9.93656 13.3057C10.2381 13.3057 10.4824 13.5499 10.4824 13.8515C10.4824 15.1941 8.69215 16.2066 6.3193 16.2066Z" fill="#32996A"/>
<path d="M6.3193 19.1004C3.94646 19.1004 2.15625 18.0879 2.15625 16.7453V14.2128C2.15625 13.9112 2.40049 13.667 2.70205 13.667C3.0036 13.667 3.24784 13.9112 3.24784 14.2128V16.7453C3.24784 17.2597 4.4445 18.0088 6.3193 18.0088C8.19411 18.0088 9.39077 17.2611 9.39077 16.7453V14.2128C9.39077 13.9112 9.63501 13.667 9.93656 13.667C10.2381 13.667 10.4824 13.9112 10.4824 14.2128V16.7453C10.4824 18.0879 8.69215 19.1004 6.3193 19.1004Z" fill="#32996A"/>
</svg>
