<svg width="24" height="25" viewBox="0 0 24 25" fill="none" xmlns="http://www.w3.org/2000/svg">
<path d="M21.17 16.3413C21.0169 16.3413 20.8638 16.2796 20.7518 16.1596L17.1609 12.299C16.946 12.0681 16.9586 11.7058 17.1906 11.491C17.4215 11.2761 17.7838 11.2887 17.9986 11.5207L21.5895 15.3813C21.8043 15.6121 21.7918 15.9744 21.5598 16.1893C21.45 16.2921 21.3095 16.3424 21.1712 16.3424L21.17 16.3413Z" fill="#46B173"/>
<path d="M18.8333 12.5709C18.4276 12.5709 17.9773 12.5321 17.4825 12.4544C17.1705 12.4052 16.9579 12.1126 17.0071 11.8006C17.0562 11.4886 17.3488 11.2761 17.6608 11.3252C18.9156 11.5229 19.8036 11.4349 20.2276 11.0726C20.5385 10.8075 20.6025 10.3926 20.6025 9.85321C20.6025 9.44407 20.4756 9.13321 20.2151 8.90235C19.5396 8.30578 18.1373 8.33207 17.6539 8.39264C17.3419 8.43149 17.0551 8.20978 17.0162 7.89664C16.9773 7.58349 17.1991 7.29778 17.5122 7.25892C17.7419 7.23035 19.7956 7.00864 20.9705 8.04635C21.4768 8.49321 21.7442 9.11835 21.7442 9.85321C21.7442 10.2795 21.7442 11.2795 20.9693 11.9412C20.4768 12.3629 19.7716 12.5709 18.8333 12.5709Z" fill="#46B173"/>
<path d="M22.5155 8.39872H17.2824C16.9669 8.39872 16.7109 8.14272 16.7109 7.82729C16.7109 7.51186 16.9669 7.25586 17.2824 7.25586H22.5155C22.8309 7.25586 23.0869 7.51186 23.0869 7.82729C23.0869 8.14272 22.8309 8.39872 22.5155 8.39872Z" fill="#46B173"/>
<path d="M22.5155 10.6087H17.2824C16.9669 10.6087 16.7109 10.3527 16.7109 10.0372C16.7109 9.72182 16.9669 9.46582 17.2824 9.46582H22.5155C22.8309 9.46582 23.0869 9.72182 23.0869 10.0372C23.0869 10.3527 22.8309 10.6087 22.5155 10.6087Z" fill="#46B173"/>
<path d="M7.79164 22.3113C6.68535 22.3113 5.68078 22.1159 4.80764 21.7296C3.92535 21.3376 3.18021 20.7856 2.5905 20.0873C2.00421 19.3924 1.55392 18.5593 1.24878 17.613C0.951638 16.6782 0.800781 15.6416 0.800781 14.5319V3.55016C0.800781 2.64616 1.53678 1.91016 2.44078 1.91016H5.38021C6.28421 1.91016 7.02021 2.64616 7.02021 3.55016V14.5307C7.02021 15.4427 7.22021 16.1467 7.61564 16.621C7.98935 17.069 8.55278 17.2873 9.33792 17.2873C9.9585 17.2873 10.5471 17.1502 11.0876 16.8804C11.5276 16.6599 11.9608 16.3707 12.3734 16.0222C12.4888 15.925 12.5551 15.7844 12.5551 15.637V3.55016C12.5551 2.64616 13.2911 1.91016 14.1951 1.91016H17.1345C18.0385 1.91016 18.7745 2.64616 18.7745 3.55016V5.16501C18.7745 5.48044 18.5185 5.73644 18.2031 5.73644C17.8876 5.73644 17.6316 5.48044 17.6316 5.16501V3.55016C17.6316 3.27587 17.4088 3.05301 17.1345 3.05301H14.1951C13.9208 3.05301 13.6979 3.27587 13.6979 3.55016V15.6359C13.6979 16.1204 13.4842 16.5787 13.1105 16.8942C12.6294 17.301 12.1208 17.6393 11.5996 17.901C10.8979 18.2519 10.1368 18.429 9.33792 18.429C8.20878 18.429 7.33335 18.0667 6.73792 17.3513C6.16764 16.6644 5.8785 15.7159 5.8785 14.5296V3.55016C5.8785 3.27587 5.65564 3.05301 5.38135 3.05301H2.44078C2.1665 3.05301 1.94364 3.27587 1.94364 3.55016V14.5307C1.94364 15.5227 2.07621 16.4427 2.33792 17.2644C2.59621 18.0679 2.97564 18.7696 3.46478 19.3502C3.94135 19.9147 4.5505 20.3639 5.27164 20.685C5.99735 21.0062 6.84535 21.1684 7.79164 21.1684C8.36992 21.1684 8.91164 21.1113 9.39964 20.9982C9.88992 20.8873 10.3516 20.7284 10.7711 20.5262C11.1928 20.3239 11.5962 20.0782 11.9699 19.7936C12.3414 19.5136 12.7036 19.2039 13.0488 18.8724C13.2042 18.7227 13.4305 18.6667 13.6385 18.7262C13.8465 18.7856 14.0088 18.9536 14.0614 19.1627L14.3745 20.4073C14.4648 20.6873 14.6214 20.8736 15.0751 20.8736H17.1311C17.4054 20.8736 17.6282 20.6507 17.6282 20.3764V16.5993C17.6282 16.2839 17.8842 16.0279 18.1996 16.0279C18.5151 16.0279 18.7711 16.2839 18.7711 16.5993V20.3764C18.7711 21.2804 18.0351 22.0164 17.1311 22.0164H15.0751C14.1745 22.0164 13.5368 21.5604 13.2785 20.733C13.2751 20.7227 13.2728 20.7124 13.2705 20.7033L13.1688 20.2999C13.0008 20.4404 12.8316 20.5753 12.6602 20.7056C12.2259 21.0359 11.7562 21.3227 11.2648 21.5582C10.7688 21.797 10.2259 21.9844 9.65335 22.1136C9.08307 22.245 8.45564 22.3124 7.7905 22.3124L7.79164 22.3113Z" fill="#174E7F"/>
</svg>
