<svg width="23" height="17" viewBox="0 0 23 17" fill="none" xmlns="http://www.w3.org/2000/svg">
<rect width="23" height="17" fill="#E5E5E5"/>
<g clip-path="url(#clip0_0_1)">
<rect width="1440" height="1271" transform="translate(-181 -561)" fill="#F1F4F6"/>
<rect x="-20.5" y="-227.5" width="741" height="572" rx="11.5" fill="white" stroke="#E5EDF4"/>
<rect x="-8.5" y="-10.5" width="39" height="39" rx="3.5" fill="white" stroke="#EAF0F6"/>
<g clip-path="url(#clip1_0_1)">
<path d="M18.7896 4.8454H4.29965C4.0072 4.8454 3.76953 4.60773 3.76953 4.31528C3.76953 4.02283 4.0072 3.78516 4.29965 3.78516H18.7896C19.0821 3.78516 19.3197 4.02283 19.3197 4.31528C19.3197 4.60773 19.0821 4.8454 18.7896 4.8454Z" fill="#46B173"/>
<path d="M18.7896 7.76141H4.29965C4.0072 7.76141 3.76953 7.52374 3.76953 7.23129C3.76953 6.93884 4.0072 6.70117 4.29965 6.70117H18.7896C19.0821 6.70117 19.3197 6.93884 19.3197 7.23129C19.3197 7.52374 19.0821 7.76141 18.7896 7.76141Z" fill="#46B173"/>
<path d="M18.7899 10.8532H15.4325C15.14 10.8532 14.9023 10.6155 14.9023 10.3231C14.9023 10.0306 15.14 9.79297 15.4325 9.79297H18.7899C19.0823 9.79297 19.32 10.0306 19.32 10.3231C19.32 10.6155 19.0823 10.8532 18.7899 10.8532Z" fill="#174E7F"/>
<path d="M20.9096 16.2436H2.09036C1.2139 16.2436 0.5 15.5305 0.5 14.6532V2.28372C0.5 1.40637 1.2139 0.693359 2.09036 0.693359H20.9096C21.7861 0.693359 22.5 1.40637 22.5 2.28372V14.6532C22.5 15.5305 21.7861 16.2436 20.9096 16.2436ZM2.09036 1.7536C1.79791 1.7536 1.56024 1.99127 1.56024 2.28372V14.6532C1.56024 14.9456 1.79791 15.1833 2.09036 15.1833H20.9096C21.2021 15.1833 21.4398 14.9456 21.4398 14.6532V2.28372C21.4398 1.99127 21.2021 1.7536 20.9096 1.7536H2.09036Z" fill="#174E7F"/>
</g>
</g>
<defs>
<clipPath id="clip0_0_1">
<rect width="1440" height="1271" fill="white" transform="translate(-181 -561)"/>
</clipPath>
<clipPath id="clip1_0_1">
<rect width="22" height="22" fill="white" transform="translate(0.5 -2.5)"/>
</clipPath>
</defs>
</svg>
