<svg width="30" height="30" viewBox="0 0 30 30" fill="none" xmlns="http://www.w3.org/2000/svg">
<circle cx="15" cy="15" r="15" fill="#32996A"/>
<path d="M22.3666 14.0887H7.64002C7.38343 14.0887 7.15305 13.9342 7.05547 13.6975C6.9579 13.4608 7.01301 13.1879 7.19461 13.0072L11.7653 8.47454C12.0137 8.22879 12.4139 8.2297 12.6597 8.47815C12.9054 8.7257 12.9036 9.12684 12.6561 9.37258L9.17591 12.8238H22.3666C22.7162 12.8238 22.999 13.1066 22.999 13.4563C22.999 13.8059 22.7162 14.0887 22.3666 14.0887Z" fill="white"/>
<path d="M17.7961 21.7468C17.6335 21.7468 17.4709 21.6844 17.3471 21.5598C17.1014 21.3122 17.1032 20.9111 17.3507 20.6653L20.8309 17.2141H7.64024C7.2906 17.2141 7.00781 16.9313 7.00781 16.5816C7.00781 16.232 7.2906 15.9492 7.64024 15.9492H22.3668C22.6234 15.9492 22.8537 16.1037 22.9513 16.3404C23.0489 16.5771 22.9938 16.85 22.8122 17.0307L18.2415 21.5634C18.1178 21.6853 17.9569 21.7468 17.7961 21.7468Z" fill="white"/>
</svg>
