<svg width="20" height="20" viewBox="0 0 20 20" fill="none" xmlns="http://www.w3.org/2000/svg">
<g clip-path="url(#clip0_2_56890)">
<path d="M19.0183 10.2588C18.9763 10.179 18.9543 10.0902 18.9543 9.99995C18.9543 9.90973 18.9763 9.82087 19.0183 9.74105L19.7953 8.21438C19.8979 8.01238 19.9592 7.79192 19.9755 7.56592C19.9919 7.33992 19.9631 7.1129 19.8907 6.89819C19.8184 6.68349 19.7039 6.4854 19.5541 6.31551C19.4043 6.14563 19.2221 6.00737 19.0183 5.90883L17.4553 5.11328C17.3739 5.07265 17.3029 5.01367 17.248 4.941C17.1931 4.86832 17.1558 4.78392 17.139 4.69439L16.8337 3.02105C16.742 2.56603 16.4785 2.16396 16.098 1.8986C15.7175 1.63324 15.2494 1.52505 14.7912 1.5966L13.0406 1.83439C12.9487 1.8474 12.8549 1.83979 12.7662 1.81212C12.6775 1.78445 12.5961 1.73739 12.5278 1.67437L11.2568 0.493273C10.9128 0.176091 10.4623 0 9.99465 0C9.52699 0 9.07645 0.176091 8.73252 0.493273L7.4615 1.67437C7.39311 1.73726 7.31166 1.78424 7.223 1.8119C7.13433 1.83957 7.04064 1.84725 6.94866 1.83439L5.197 1.5966C4.73889 1.5248 4.27078 1.63291 3.8904 1.89833C3.51002 2.16375 3.24677 2.56598 3.15561 3.02105L2.84923 4.69439C2.8328 4.78407 2.79563 4.86864 2.7407 4.94138C2.68576 5.01411 2.61459 5.073 2.53287 5.11328L0.969909 5.90883C0.766054 6.00737 0.583887 6.14563 0.434083 6.31551C0.284278 6.4854 0.169845 6.68349 0.0974821 6.89819C0.0251195 7.1129 -0.00371618 7.33992 0.012663 7.56592C0.0290421 7.79192 0.0903073 8.01238 0.192871 8.21438L0.969909 9.74105C1.01191 9.82087 1.03386 9.90973 1.03386 9.99995C1.03386 10.0902 1.01191 10.179 0.969909 10.2588L0.192871 11.7844C0.0901533 11.9863 0.0287682 12.2068 0.0123107 12.4329C-0.00414685 12.6589 0.0246586 12.886 0.097035 13.1007C0.169411 13.3155 0.283901 13.5136 0.433791 13.6835C0.583681 13.8533 0.765949 13.9915 0.969909 14.0899L2.53287 14.8866C2.61459 14.9269 2.68576 14.9858 2.7407 15.0585C2.79563 15.1312 2.8328 15.2158 2.84923 15.3055L3.15561 16.9788C3.23588 17.3896 3.45762 17.7592 3.78218 18.0232C4.10674 18.2871 4.51354 18.4287 4.93169 18.4233C5.01858 18.4233 5.10538 18.4174 5.19145 18.4055L6.94311 18.1677C7.03509 18.1549 7.12878 18.1625 7.21745 18.1902C7.30611 18.2178 7.38756 18.2648 7.45596 18.3277L8.72697 19.5088C9.07072 19.8259 9.52108 20.002 9.98855 20.002C10.456 20.002 10.9064 19.8259 11.2501 19.5088L12.5245 18.3233C12.5928 18.2602 12.6742 18.2132 12.7629 18.1855C12.8516 18.1579 12.9453 18.1503 13.0373 18.1633L14.7879 18.401C15.2461 18.4726 15.7142 18.3644 16.0947 18.0991C16.4752 17.8337 16.7387 17.4316 16.8304 16.9766L17.1356 15.3033C17.1525 15.2137 17.1898 15.1293 17.2447 15.0566C17.2996 14.984 17.3705 14.925 17.452 14.8844L19.015 14.0877C19.2189 13.9893 19.4012 13.8511 19.5511 13.6812C19.701 13.5114 19.8155 13.3132 19.8878 13.0985C19.9602 12.8837 19.989 12.6567 19.9726 12.4306C19.9561 12.2046 19.8947 11.9841 19.792 11.7821L19.0183 10.2588Z" fill="#32996A"/>
<path d="M13.8262 6.46789L13.5107 6.16406C13.3756 6.03385 13.1615 6.03385 13.0376 6.16406L6.01936 12.9242C5.88417 13.0544 5.88417 13.2606 6.01936 13.3799L6.33478 13.6838C6.46997 13.814 6.684 13.814 6.80792 13.6838L13.8262 6.92363C13.9613 6.80427 13.9613 6.5981 13.8262 6.46789Z" fill="white"/>
<path d="M9.44332 7.34749C9.44332 6.17559 8.45198 5.2207 7.23533 5.2207C6.01868 5.2207 5.02734 6.17559 5.02734 7.34749C5.02734 8.51939 6.01868 9.46342 7.23533 9.46342C8.45198 9.46342 9.44332 8.50854 9.44332 7.34749ZM6.16513 7.34749C6.16513 6.77239 6.64954 6.3058 7.2466 6.3058C7.84365 6.3058 8.32806 6.77239 8.32806 7.34749C8.32806 7.92259 7.84365 8.38918 7.2466 8.38918C6.64954 8.38918 6.16513 7.91174 6.16513 7.34749Z" fill="white"/>
<path d="M12.747 10.5273C11.5304 10.5273 10.5391 11.4822 10.5391 12.6541C10.5391 13.826 11.5304 14.7809 12.747 14.7809C13.9637 14.7809 14.955 13.826 14.955 12.6541C14.955 11.4822 13.9637 10.5273 12.747 10.5273ZM12.747 13.685C12.15 13.685 11.6656 13.2184 11.6656 12.6433C11.6656 12.0682 12.15 11.6016 12.747 11.6016C13.3441 11.6016 13.8285 12.0682 13.8285 12.6433C13.8285 13.2184 13.3441 13.685 12.747 13.685Z" fill="white"/>
</g>
<defs>
<clipPath id="clip0_2_56890">
<rect width="19.981" height="20" fill="white"/>
</clipPath>
</defs>
</svg>
