<svg width="40" height="40" viewBox="0 0 40 40" fill="none" xmlns="http://www.w3.org/2000/svg">
<g id="Layer_2">
<g id="Group 2611290">
<path id="Vector" d="M30.1715 24.0673H10.6408C10.0718 24.0673 9.60938 23.6049 9.60938 23.0359C9.60938 22.4668 10.0718 22.0044 10.6408 22.0044H30.1715C30.7405 22.0044 31.203 22.4668 31.203 23.0359C31.203 23.6049 30.7405 24.0673 30.1715 24.0673Z" fill="#1E54B0"/>
<path id="Vector_2" d="M29.9318 16.5038H10.4011C9.83207 16.5038 9.36963 16.0414 9.36963 15.4724C9.36963 14.9034 9.83207 14.4409 10.4011 14.4409H29.9318C30.5008 14.4409 30.9632 14.9034 30.9632 15.4724C30.9632 16.0414 30.5008 16.5038 29.9318 16.5038Z" fill="#1E54B0"/>
<path id="Vector_3" d="M29.9318 31.8032H10.4011C9.83207 31.8032 9.36963 31.3407 9.36963 30.7717C9.36963 30.2027 9.83207 29.7402 10.4011 29.7402H29.9318C30.5008 29.7402 30.9632 30.2027 30.9632 30.7717C30.9632 31.3407 30.5008 31.8032 29.9318 31.8032Z" fill="#1E54B0"/>
<path id="Vector_4" d="M33.1736 0H11.3944C10.3079 0 9.27128 0.467595 8.55442 1.28589L3.61717 6.90218C3.46932 7.07066 3.3318 7.24772 3.21662 7.43854C2.85389 8.0471 2.6665 8.72099 2.6665 9.40863V35.9532C2.6665 38.1881 4.47843 40 6.71326 40H33.1754C35.4102 40 37.2221 38.1881 37.2221 35.9532V4.04676C37.2221 1.81193 35.4102 0 33.1754 0H33.1736ZM10.1033 2.64741C10.2494 2.48066 10.5245 2.58553 10.5245 2.80729V6.93313C10.5245 7.82362 9.80248 8.54392 8.91371 8.54392H5.71962C5.42394 8.54392 5.26578 8.19666 5.46004 7.9749L10.1033 2.64741ZM35.1575 35.9532C35.1575 37.0483 34.2704 37.9371 33.1736 37.9371H6.71326C5.6182 37.9371 4.72942 37.05 4.72942 35.9532V11.2945C4.72942 10.9146 5.03714 10.6068 5.41706 10.6068H8.91371C10.9422 10.6068 12.5874 8.96167 12.5874 6.93313V2.75056C12.5874 2.37064 12.8951 2.06292 13.2751 2.06292H33.1736C34.2687 2.06292 35.1575 2.94997 35.1575 4.04676V35.955V35.9532Z" fill="#1E54B0"/>
</g>
</g>
</svg>
