<svg width="150" height="203" viewBox="0 0 150 203" fill="none" xmlns="http://www.w3.org/2000/svg">
<g id="Layer_4" clip-path="url(#clip0_734_53240)">
<path id="Vector" d="M116.119 110.586C113.211 111.621 110.74 110.122 110.923 113.748C111.106 117.366 115.563 121.661 115.225 122.45C114.887 123.252 110.304 124.829 112.303 126.406C114.31 127.983 118.935 129.321 116.668 130.229C114.401 131.138 113.521 133.003 115.852 135.017C116.971 135.981 116.598 140.818 117.661 144.747C118.801 148.971 118.59 152.336 119.146 153.963C120.181 156.99 17.9253 172.198 17.9253 172.198C17.9253 172.198 17.3339 161.095 20.8894 155.315C24.4519 149.534 21.6568 147.619 21.6568 147.619C21.6568 147.619 19.3405 148.295 18.9744 147.633C18.6083 146.972 22.9945 139.079 22.8185 138.143C22.6425 137.206 16.2567 143.508 16.8059 141.212C17.3551 138.91 20.9105 133.13 18.6364 131.363C16.3553 129.596 10.1667 131.715 11.0186 128.385C11.8635 125.062 15.0739 117.394 14.2995 115.831C13.9615 115.156 12.7858 115.134 11.61 115.17C10.0611 115.205 8.52628 115.325 8.86422 114.163C9.45562 112.1 16.1722 102.328 15.4823 101.237C14.7923 100.138 11.5818 101.222 11.8987 98.9695C12.2155 96.7166 14.6797 95.5901 14.222 94.4214C13.7644 93.2597 9.36409 95.8435 10.5539 93.0344C11.7367 90.2323 13.5743 89.6409 12.0958 88.2116C10.6103 86.7824 9.95549 83.2833 8.42067 78.8971C8.42067 78.8971 -8.24417 36.4007 7.42796 15.7016C7.42796 15.7016 17.6226 6.25329 36.8009 46.5812C36.8009 46.5812 39.1735 51.5025 42.1728 51.9179C45.1791 52.3333 46.4745 50.1437 49.1147 51.8475C51.7408 53.5513 55.5075 50.1719 55.5075 50.1719C55.5075 50.1719 59.077 47.0741 61.4144 47.8556C63.7519 48.637 66.4695 35.7037 65.5754 25.6287C64.6742 15.5538 71.3415 -1.03362 78.6214 0.0506133C85.8872 1.13485 98.4193 22.7069 101.771 59.1344C101.771 59.1344 102.418 66.5692 103.46 69.5473C104.495 72.5184 102.179 73.1943 102.179 73.1943L103.073 76.6864L101.883 78.1508L106.973 83.0298C106.973 83.0298 101.13 84.5999 102.996 85.4799C104.861 86.353 114.521 95.0409 113.408 96.9559C113.317 97.1179 113.197 97.2446 113.063 97.3572C111.564 98.5752 107.818 97.2305 110.86 101.575C114.176 106.32 119.027 109.558 116.119 110.586Z" fill="#343533"/>
<path id="Vector_2" d="M126.102 197.234C126.039 198.762 101.545 201.064 74.721 200.909C50.7129 200.768 24.5504 198.163 16.9115 199.36C15.5104 199.579 17.862 170.924 17.8831 169.509C17.9464 165.848 18.4182 159.314 20.8753 155.315C20.9387 155.209 21.002 155.111 21.0513 155.012C22.3116 152.893 22.6917 151.316 22.6847 150.175C22.6777 148.845 21.5301 147.775 20.2064 147.901C19.6573 147.951 19.1222 147.915 18.9673 147.627C18.5942 146.965 22.9874 139.08 22.8114 138.136C22.6354 137.193 16.2497 143.501 16.7988 141.206C17.348 138.904 20.9035 133.123 18.6294 131.356C16.3483 129.589 10.1597 131.708 11.0116 128.378C11.8564 125.062 15.0669 117.388 14.2924 115.832C14.2643 115.776 14.2291 115.719 14.1868 115.677C13.4053 114.734 13.2645 113.431 14.0812 112.516C17.3762 108.82 20.1149 104.982 19.8755 102.603C19.3264 97.1112 15.0598 86.0436 25.6135 82.8753C26.4725 82.6148 27.078 81.8404 27.1765 80.9463C27.5426 77.5668 29.7815 70.2377 42.6797 75.7081C42.6797 75.7081 48.2276 77.1937 47.3546 83.9596C47.2983 84.3891 47.3405 84.8185 47.5095 85.2128L49.4738 89.775C49.8962 90.7607 49.5864 91.9153 48.7064 92.5349C46.8336 93.8515 43.8555 96.6606 43.1725 101.483C42.9965 102.744 41.7715 103.581 40.5112 103.356C35.9349 102.554 26.7963 101.969 27.5497 110.446C28.5424 121.697 38.8145 150.654 68.8562 149.323C68.9689 149.323 69.0815 149.302 69.1942 149.281L69.9546 149.14C70.0672 149.119 70.1799 149.091 70.2855 149.056C98.8065 139.523 98.0109 108.813 94.9061 97.9561C92.5616 89.775 84.2397 93.591 80.2618 95.9847C79.1635 96.6465 77.7202 96.3016 77.1007 95.1892C74.7351 90.9297 70.9473 89.3808 68.7295 88.8175C67.6946 88.557 66.9835 87.5925 67.0257 86.5223L67.2158 81.5588C67.2369 81.1293 67.1172 80.7069 66.9201 80.3337C63.6744 74.3282 68.3212 70.9488 68.3212 70.9488C78.3961 61.2188 83.1132 67.2525 84.6692 70.2799C85.0775 71.0825 85.9224 71.5824 86.8236 71.519C97.8138 70.6953 97.7927 82.5515 99.25 87.8811C99.9118 90.3031 104.242 93.07 108.917 95.4145C110.121 96.0129 110.515 97.5125 109.818 98.6601C109.529 99.1248 109.719 99.9556 110.853 101.575C114.169 106.32 119.027 109.559 116.112 110.587C113.204 111.622 110.74 110.122 110.916 113.755C111.099 117.367 115.556 121.661 115.218 122.457C114.88 123.26 110.297 124.837 112.289 126.414C114.296 127.991 118.928 129.328 116.661 130.237C114.394 131.145 113.831 132.694 115.844 135.024C116.598 135.897 117.351 137.693 118.076 140.129C122.547 155.097 126.222 194.488 126.102 197.234Z" fill="#F8AB51"/>
<path id="Vector_3" d="M68.6801 139.684C68.6801 139.684 93.8991 140.493 91.9911 105.558C91.9911 105.558 91.3575 97.8842 87.0276 99.2641C85.4928 99.7569 84.3381 101.038 83.8101 102.566L79.3605 115.521C78.8747 116.936 77.6496 117.999 76.1711 118.203C74.6926 118.407 72.8973 118.309 71.3062 117.253C68.3632 115.302 65.4344 116.351 65.4344 116.351L64.9345 113.655C64.7655 112.733 65.1105 111.796 65.8427 111.212C68.2576 109.29 73.2916 104.404 70.8626 98.5671C70.3487 97.328 69.2926 96.3916 68.0112 96.0114C66.4975 95.5678 64.1108 95.0961 61.1045 95.2722C60.6469 95.3003 60.1892 95.3637 59.7386 95.4482C59.288 95.5327 58.8375 95.6312 58.4009 95.772C55.5355 96.6873 53.4726 97.9827 52.2194 98.9402C51.1563 99.7569 50.5086 101.01 50.4734 102.348C50.3044 108.67 56.7464 111.423 59.6964 112.352C60.5905 112.634 61.2523 113.38 61.4213 114.303L61.9212 116.999C61.9212 116.999 58.9571 116.795 56.7957 119.942C55.7115 121.512 54.0218 122.237 52.5925 122.575C51.1633 122.913 49.6144 122.364 48.6499 121.216L39.8563 110.719C38.8213 109.48 37.2795 108.698 35.6672 108.79C31.1261 109.05 33.2875 116.443 33.2875 116.443C44.0313 149.737 67.286 139.937 67.286 139.937L68.673 139.677L68.6801 139.684Z" fill="#020202"/>
<g id="Group">
<path id="Vector_4" d="M38.5753 93.1466C41.9737 93.1466 44.7287 90.3917 44.7287 86.9932C44.7287 83.5948 41.9737 80.8398 38.5753 80.8398C35.1768 80.8398 32.4219 83.5948 32.4219 86.9932C32.4219 90.3917 35.1768 93.1466 38.5753 93.1466Z" fill="#020202"/>
<path id="Vector_5" d="M40.4129 84.9782C41.245 84.9782 41.9196 84.3036 41.9196 83.4715C41.9196 82.6394 41.245 81.9648 40.4129 81.9648C39.5808 81.9648 38.9062 82.6394 38.9062 83.4715C38.9062 84.3036 39.5808 84.9782 40.4129 84.9782Z" fill="white"/>
</g>
<g id="Group_2">
<path id="Vector_6" d="M75.8253 86.2326C79.2237 86.2326 81.9787 83.4776 81.9787 80.0792C81.9787 76.6807 79.2237 73.9258 75.8253 73.9258C72.4268 73.9258 69.6719 76.6807 69.6719 80.0792C69.6719 83.4776 72.4268 86.2326 75.8253 86.2326Z" fill="#020202"/>
<path id="Vector_7" d="M77.6629 78.0719C78.495 78.0719 79.1696 77.3974 79.1696 76.5653C79.1696 75.7332 78.495 75.0586 77.6629 75.0586C76.8308 75.0586 76.1562 75.7332 76.1562 76.5653C76.1562 77.3974 76.8308 78.0719 77.6629 78.0719Z" fill="white"/>
</g>
<path id="Vector_8" d="M19.3965 130.875C20.4455 133.227 22.262 135.719 24.9514 135.895C29.2109 135.972 29.0279 139.204 26.9509 141.922C26.4299 142.661 27.2818 143.337 27.7254 143.872C30.2952 146.484 33.8295 147.624 37.3427 148.835C33.1888 148.899 28.4858 147.843 25.5921 144.534C24.5853 143.541 24.3741 141.837 25.2401 140.689C25.5992 140.204 25.8949 139.739 26.1131 139.267C26.3384 138.817 26.4088 138.338 26.3525 138.239C26.3525 138.169 26.3032 138.127 26.1835 138.035C25.9019 137.831 25.057 137.718 24.6909 137.641C21.5016 137.064 19.5795 133.86 19.4035 130.882L19.3965 130.875Z" fill="#CE8A46"/>
<path id="Vector_9" d="M110.458 113.227C110.704 116.036 109.606 119.119 107.156 120.781C106.959 120.922 106.537 121.189 106.353 121.33C106.177 121.485 106.001 121.654 106.023 121.703C106.023 121.746 106.023 121.682 106.093 121.816C107.142 123.062 109.303 123.21 110.113 124.843C111.007 126.357 110.451 128.202 109.747 129.659C107.783 133.517 103.763 135.862 99.834 137.066C103.059 134.728 106.304 132.447 107.931 128.828C108.346 127.737 108.937 126.287 107.881 125.4C106.727 124.667 105.185 124.146 104.424 122.781C103.763 121.682 104.389 120.422 105.361 119.873L106.297 119.387C108.43 118.289 109.824 115.86 110.465 113.234L110.458 113.227Z" fill="#CE8A46"/>
<g id="Clip path group">
<mask id="mask0_734_53240" style="mask-type:luminance" maskUnits="userSpaceOnUse" x="16" y="139" width="111" height="62">
<g id="clippath">
<path id="Vector_10" d="M126.103 196.773C126.04 198.301 101.546 200.603 74.7215 200.449C50.7134 200.308 24.5509 197.703 16.912 198.9C15.5109 199.118 17.8625 170.463 17.8836 169.048C17.947 165.387 18.4187 158.853 20.8758 154.854C20.9392 154.749 21.0025 154.65 21.0518 154.552C36.7169 163.296 76.4746 178.553 118.077 139.668C122.548 154.636 126.223 194.028 126.103 196.773Z" fill="white"/>
</g>
</mask>
<g mask="url(#mask0_734_53240)">
<g id="Group_3">
<path id="Vector_11" d="M39.145 190.045C39.145 181.315 50.0296 169.613 36.3922 169.613C22.7547 169.613 11.7012 176.689 11.7012 185.426C11.7012 194.163 24.9162 222.1 38.5466 222.1C52.1769 222.1 39.145 198.782 39.145 190.052V190.045Z" fill="#374023"/>
<path id="Vector_12" d="M42.8208 165.382C42.8208 156.652 42.8349 142.219 29.1974 142.219C15.56 142.219 16.2429 162.89 16.2429 171.627C16.2429 180.364 6.92837 184.814 20.5588 184.814C34.1892 184.814 42.8138 174.119 42.8138 165.389L42.8208 165.382Z" fill="#4F583E"/>
<path id="Vector_13" d="M64.8069 200.187C64.8069 191.456 43.5869 175.918 29.9494 175.918C16.312 175.918 40.6792 191.724 40.6792 200.454C40.6792 209.184 32.0405 224.99 45.6779 224.99C59.3153 224.99 64.8069 208.917 64.8069 200.187Z" fill="#79875D"/>
<path id="Vector_14" d="M71.7712 172.709C71.7712 163.979 86.3239 152.277 68.089 152.277C49.8542 152.277 35.0762 159.353 35.0762 168.09C35.0762 176.828 52.7408 204.764 70.9756 204.764C89.2105 204.764 71.7712 181.446 71.7712 172.716V172.709Z" fill="#374023"/>
<path id="Vector_15" d="M101.975 165.677C101.975 154.427 101.996 135.84 78.5091 135.84C55.022 135.84 56.2048 162.467 56.2048 173.718C56.2048 184.968 40.1595 190.699 63.6466 190.699C87.1337 190.699 101.975 176.928 101.975 165.677Z" fill="#4F583E"/>
<path id="Vector_16" d="M110.908 180.116C110.908 171.386 82.5419 155.848 64.307 155.848C46.0722 155.848 78.6485 171.654 78.6485 180.384C78.6485 189.114 67.0951 204.92 85.3299 204.92C103.565 204.92 110.908 188.846 110.908 180.116Z" fill="#79875D"/>
<path id="Vector_17" d="M119.575 180.103C127.397 174.055 150.293 182.011 134.747 161.896C119.202 141.782 100.263 130.369 92.4341 136.417C84.6051 142.464 74.6358 181.293 90.1741 201.415C105.72 221.529 111.746 186.151 119.575 180.11V180.103Z" fill="#374023"/>
<path id="Vector_18" d="M139.183 175.385C146.09 170.048 157.524 161.24 143.802 143.47C130.073 125.707 114.408 139.239 107.494 144.575C100.587 149.912 87.6822 140.499 101.404 158.262C115.126 176.025 132.27 180.721 139.183 175.385Z" fill="#4F583E"/>
<path id="Vector_19" d="M138.908 205.052C145.815 199.716 136.754 162.57 123.025 144.807C109.296 127.044 121.314 168.442 114.407 173.785C107.5 179.122 86.2945 177.531 100.016 195.294C113.745 213.057 131.994 210.389 138.901 205.052H138.908Z" fill="#79875D"/>
</g>
</g>
</g>
<g id="Group_4">
<path id="Vector_20" d="M124.49 199.079C125.469 199.072 126.229 198.213 126.103 197.241C125.455 192.165 122.561 178.309 110.219 178.704C95.1174 179.182 86.4928 187.335 93.4418 199.079C93.4418 199.079 95.6596 201.958 100.87 200.515C105.136 199.339 119.428 199.121 124.483 199.086L124.49 199.079Z" fill="#F8AB51"/>
<path id="Vector_21" d="M98.0949 201.965C94.3987 201.965 92.6949 199.824 92.6104 199.712L92.54 199.606C88.8085 193.305 89.7942 188.771 91.2727 186.074C94.0537 181.005 100.953 177.936 110.19 177.64C110.374 177.64 110.557 177.633 110.733 177.633C123.659 177.633 126.567 192.495 127.151 197.107C127.25 197.867 127.017 198.635 126.51 199.219C126.003 199.796 125.271 200.134 124.497 200.141C120.082 200.176 105.354 200.374 101.158 201.535C100.017 201.852 98.9961 201.979 98.0949 201.979V201.965ZM94.3142 198.459C94.5747 198.747 96.4545 200.634 100.594 199.486C104.917 198.297 118.738 198.064 124.483 198.022C124.715 198.022 124.856 197.895 124.919 197.825C124.983 197.755 125.088 197.6 125.053 197.374C124.363 191.96 121.54 179.379 110.254 179.752C101.904 180.02 95.497 182.758 93.1173 187.095C91.3853 190.249 91.7937 194.178 94.3072 198.459H94.3142Z" fill="#CE8A46"/>
</g>
<g id="Group_5">
<path id="Vector_22" d="M18.5382 199.075C17.5596 199.068 16.7992 198.209 16.9259 197.237C17.5737 192.161 20.4673 178.305 32.8093 178.7C47.9111 179.178 56.5357 187.331 49.5868 199.075C49.5868 199.075 47.369 201.954 42.1591 200.511C37.8925 199.335 23.6003 199.117 18.5453 199.082L18.5382 199.075Z" fill="#F8AB51"/>
<path id="Vector_23" d="M44.933 201.963C44.0318 201.963 43.011 201.836 41.8704 201.519C37.6743 200.357 22.9456 200.16 18.5241 200.125C17.7567 200.125 17.0175 199.78 16.5106 199.203C16.0036 198.625 15.7713 197.858 15.8699 197.09C16.4613 192.416 19.4394 177.187 32.8304 177.631C42.0675 177.926 48.9672 180.996 51.7482 186.065C53.2267 188.762 54.2124 193.296 50.4809 199.597L50.4105 199.703C50.326 199.815 48.6222 201.955 44.926 201.955L44.933 201.963ZM18.5453 198.02C24.2903 198.062 38.1108 198.294 42.4336 199.484C46.5523 200.625 48.4321 198.766 48.7208 198.449C51.2342 194.169 51.6426 190.24 49.9106 187.086C47.531 182.756 41.1241 180.01 32.7741 179.743C21.5093 179.398 18.6649 191.944 17.975 197.358C17.9468 197.583 18.0524 197.738 18.1158 197.809C18.1791 197.879 18.32 198.006 18.5523 198.006L18.5453 198.02Z" fill="#CE8A46"/>
</g>
<path id="Vector_24" d="M15.7356 78.9317C16.8057 80.3539 28.4296 58.6621 31.9428 56.909C35.456 55.1559 29.4293 50.2487 26.2611 42.0536C23.0999 33.8655 24.4658 36.5409 19.9599 28.7823C16.0242 22.0093 6.97017 19.8549 7.03353 33.0066C7.0969 46.1582 7.51229 45.8977 10.1806 59.8449C10.7228 62.6752 10.4411 61.2601 11.7577 68.3287C13.0672 75.3974 14.5246 77.3194 15.7356 78.9246V78.9317Z" fill="#F8AB51"/>
<path id="Vector_25" d="M94.497 64.3226C94.0042 66.0334 75.3751 49.9529 71.4676 49.5798C67.5601 49.2066 71.4253 42.4548 71.4465 33.6753C71.4605 24.8958 71.1437 27.881 72.5659 19.0241C73.8121 11.2936 81.4932 6.03436 86.147 18.3341C90.8008 30.6338 90.322 30.5423 92.8355 44.5177C93.3424 47.355 93.096 45.9328 94.4125 53.0015C95.7291 60.0701 95.0603 62.3865 94.5041 64.3226H94.497Z" fill="#F8AB51"/>
<path id="Vector_26" d="M65.6376 122.633C66.6374 122.45 67.623 122.175 68.5876 121.851C70.1858 121.323 72.9809 120.753 73.875 122.809C75.1493 125.738 77.9162 129.49 81.1267 133.651C84.3372 137.812 82.1053 152.97 70.6645 154.238L69.9675 154.364C58.8295 157.286 51.3102 143.93 52.8169 138.896C54.3236 133.862 55.5556 129.371 55.6965 126.174C55.795 123.956 58.5619 123.478 60.2446 123.386C61.533 123.323 62.8074 123.147 64.0817 122.914L65.6376 122.626V122.633Z" fill="#F48C8B"/>
<path id="Vector_27" d="M84.9864 202.598C79.3962 202.598 73.44 202.302 61.3585 201.535C58.3381 201.345 56.2823 201.246 54.8812 201.204C54.5081 202.204 53.4027 202.049 52.41 201.915C48.0942 201.324 44.9401 202.246 44.9049 202.26L44.6655 202.331L44.412 202.316C44.2149 202.302 25.0084 201.141 21.7769 201.113C20.5025 201.106 19.707 201.014 18.9325 200.93C17.6722 200.789 16.4824 200.655 13.0255 200.922C7.35793 201.359 1.55657 200.944 1.31015 200.922C0.535696 200.866 -0.0486648 200.19 0.0076591 199.416C0.063983 198.641 0.73283 198.064 1.51432 198.113C1.57065 198.113 7.35793 198.529 12.8073 198.113C16.5247 197.825 17.9046 197.98 19.2423 198.134C19.9745 198.219 20.6715 198.296 21.798 198.303C24.9451 198.332 42.0323 199.359 44.3487 199.5C45.095 199.303 47.362 198.803 50.4528 198.93C51.0512 198.353 52.2129 198.353 53.5013 198.367C55.184 198.381 57.8875 198.501 61.5345 198.733C80.924 199.972 84.2119 199.986 95.8851 199.507C101.398 199.282 104.89 198.846 107.692 198.486C110.973 198.071 113.571 197.74 117.605 197.951C121.329 198.141 123.005 198.064 124.941 197.973C126.835 197.888 128.975 197.782 133.383 197.888C142.24 198.099 145.183 198.106 145.211 198.106C145.985 198.106 146.619 198.74 146.619 199.514C146.619 200.289 145.985 200.922 145.211 200.922C145.091 200.922 142.219 200.922 133.312 200.704C129.004 200.599 126.912 200.704 125.068 200.789C123.054 200.88 121.315 200.965 117.457 200.768C113.669 200.578 111.304 200.873 108.037 201.289C105.179 201.648 101.623 202.098 95.9907 202.324C91.6044 202.5 88.3588 202.612 84.9793 202.612L84.9864 202.598Z" fill="#191919"/>
<g id="Group_6">
<path id="Vector_28" d="M21.7832 193.616C21.7832 193.616 22.445 200.867 28.4365 200.508C34.4279 200.149 35.6882 194.693 34.8504 191.82" fill="#F8AB51"/>
<path id="Vector_29" d="M28.0072 201.577C22.8324 201.577 20.9878 196.486 20.7344 193.713C20.6851 193.128 21.1075 192.621 21.6919 192.565C22.2622 192.523 22.7832 192.938 22.8395 193.522C22.8676 193.776 23.4661 199.746 28.3733 199.458C30.408 199.338 31.9499 198.556 32.9355 197.155C34.0831 195.522 34.2028 193.403 33.8297 192.121C33.6678 191.565 33.9916 190.974 34.5478 190.812C35.104 190.65 35.6954 190.967 35.8574 191.53C36.3854 193.339 36.2164 196.156 34.6605 198.373C33.71 199.718 31.8724 201.366 28.493 201.57C28.324 201.577 28.1621 201.584 28.0002 201.584L28.0072 201.577Z" fill="#CE8A46"/>
</g>
<g id="Group_7">
<path id="Vector_30" d="M52.0223 192.594C52.0223 192.594 51.2971 203.528 40.0957 199.508L52.0223 192.594Z" fill="#F8AB51"/>
<path id="Vector_31" d="M44.602 201.457C43.1306 201.457 41.5042 201.14 39.737 200.507C39.1879 200.31 38.9063 199.704 39.0964 199.155C39.2935 198.606 39.906 198.324 40.4481 198.514C43.5741 199.641 46.0664 199.613 47.8547 198.451C50.6357 196.642 50.9596 192.565 50.9596 192.523C51.0018 191.939 51.5087 191.516 52.0861 191.544C52.6704 191.587 53.1069 192.086 53.0647 192.664C53.0506 192.875 52.6845 197.81 49.0164 200.211C47.7491 201.042 46.2706 201.457 44.5879 201.457H44.602Z" fill="#CE8A46"/>
</g>
<g id="Group_8">
<path id="Vector_32" d="M44.4891 192.594C44.4891 192.594 43.7639 203.528 32.5625 199.508L44.4891 192.594Z" fill="#F8AB51"/>
<path id="Vector_33" d="M37.0688 201.457C35.5974 201.457 33.971 201.14 32.2038 200.507C31.6547 200.31 31.3731 199.704 31.5631 199.155C31.7603 198.606 32.3728 198.324 32.9149 198.514C36.0409 199.641 38.5332 199.613 40.3215 198.451C43.1025 196.642 43.4264 192.565 43.4264 192.523C43.4686 191.939 43.9896 191.516 44.5529 191.544C45.1372 191.587 45.5737 192.086 45.5315 192.664C45.5174 192.875 45.1513 197.81 41.4832 200.211C40.2159 201.042 38.7374 201.457 37.0547 201.457H37.0688Z" fill="#CE8A46"/>
</g>
<g id="Group_9">
<path id="Vector_34" d="M121.251 193.612C121.251 193.612 120.59 200.863 114.598 200.504C108.607 200.145 107.346 194.689 108.184 191.816" fill="#F8AB51"/>
<path id="Vector_35" d="M115.028 201.576C114.866 201.576 114.704 201.576 114.535 201.562C111.156 201.358 109.318 199.71 108.368 198.365C106.812 196.148 106.643 193.332 107.171 191.522C107.333 190.959 107.924 190.642 108.48 190.804C109.036 190.966 109.36 191.557 109.198 192.114C108.825 193.395 108.945 195.514 110.092 197.147C111.085 198.556 112.62 199.33 114.655 199.45C119.569 199.717 120.167 193.768 120.189 193.515C120.245 192.93 120.752 192.508 121.336 192.557C121.921 192.613 122.343 193.12 122.294 193.705C122.04 196.479 120.189 201.569 115.021 201.569L115.028 201.576Z" fill="#CE8A46"/>
</g>
<g id="Group_10">
<path id="Vector_36" d="M91.0117 192.594C91.0117 192.594 91.7369 203.528 102.938 199.508L91.0117 192.594Z" fill="#F8AB51"/>
<path id="Vector_37" d="M98.426 201.457C96.7433 201.457 95.2648 201.041 93.9975 200.21C90.3365 197.81 89.9633 192.874 89.9493 192.663C89.9141 192.079 90.3506 191.579 90.9349 191.536C91.5122 191.508 92.0192 191.938 92.0614 192.515C92.0614 192.578 92.3923 196.634 95.1663 198.443C96.9545 199.612 99.4469 199.633 102.573 198.507C103.122 198.309 103.727 198.591 103.925 199.147C104.122 199.696 103.84 200.302 103.284 200.499C101.517 201.133 99.8904 201.449 98.419 201.449L98.426 201.457Z" fill="#CE8A46"/>
</g>
<g id="Group_11">
<path id="Vector_38" d="M98.5391 192.594C98.5391 192.594 99.2642 203.528 110.466 199.508L98.5391 192.594Z" fill="#F8AB51"/>
<path id="Vector_39" d="M105.959 201.457C104.277 201.457 102.798 201.041 101.531 200.21C97.8697 197.81 97.4965 192.874 97.4825 192.663C97.4473 192.079 97.8838 191.579 98.4681 191.536C99.0454 191.508 99.5524 191.938 99.5946 192.515C99.5946 192.578 99.9255 196.634 102.699 198.443C104.488 199.612 106.98 199.633 110.106 198.507C110.655 198.309 111.261 198.591 111.458 199.147C111.655 199.696 111.373 200.302 110.817 200.499C109.05 201.133 107.424 201.449 105.952 201.449L105.959 201.457Z" fill="#CE8A46"/>
</g>
<g id="Group_12" opacity="0.4">
<path id="Vector_40" d="M65.5684 126.793C67.7932 133.488 69.0956 140.48 69.4125 147.527C67.1806 140.832 65.8922 133.833 65.5684 126.793Z" fill="#B76968"/>
</g>
<path id="Vector_41" d="M21.9302 32.1742C23.0356 34.1597 24.1761 36.1451 25.2252 38.1868C27.2106 42.3196 28.7595 46.5016 31.3785 50.2894C31.984 51.254 32.6036 52.2115 33.1879 53.2323C33.6737 54.0561 34.582 55.612 33.6737 56.5625C32.5473 57.6115 31.4771 58.2381 30.59 59.4702C29.2101 61.1951 26.1897 65.9686 24.9295 67.8977L17.551 79.3807C16.9455 80.3382 15.5867 80.2326 14.939 79.5356C13.9181 78.4795 13.5591 77.3038 12.9606 76.0576C12.3129 74.5369 11.7708 72.9809 11.3554 71.3898C10.412 68.3131 10.4683 64.8984 10.0459 61.8006C8.94754 57.1398 8.20829 52.3523 7.60281 47.607C7.462 46.0229 7.07477 44.3895 7.27894 42.8124C7.21558 44.1501 7.8633 46.1707 8.0886 47.5225C9.10947 52.0988 10.1937 57.0483 11.4962 61.526C12.0806 64.7435 12.1369 67.8062 13.1366 70.8899C13.9111 73.3259 14.8264 75.952 16.3119 78.0219C16.3753 78.0853 16.4175 78.0712 16.2837 78.043C16.1148 78.029 15.974 78.0712 15.8543 78.2331C18.0439 74.7692 20.7615 70.4463 23.2045 66.7571C25.901 62.906 28.4145 57.9284 32.322 55.4501C31.9207 54.049 30.8223 52.4509 30.069 51.0639C28.9285 49.0925 27.8161 47.0297 26.9853 44.8612C25.4997 40.5735 23.7537 36.307 21.9232 32.1602L21.9302 32.1742Z" fill="#CE8A46"/>
<path id="Vector_42" d="M71.9389 22.9023C71.1856 27.4294 71.4813 31.9775 71.5165 36.5609C71.5235 38.8843 71.2278 41.2147 70.8687 43.4676C70.6716 45.1081 70.2069 46.833 70.3337 48.4241C70.3337 48.396 70.2633 48.3537 70.3055 48.3678C71.5657 48.7269 73.1147 49.1704 74.2834 49.8815C77.3249 51.5994 80.0636 53.6975 82.8869 55.697C86.6042 58.3512 90.2935 61.0336 93.9475 63.8358C93.8137 63.7442 93.7574 63.709 93.6377 63.702C93.5602 63.695 93.4617 63.7302 93.4053 63.7583C93.2857 63.8358 93.3349 63.8287 93.3701 63.7513C94.2854 59.7523 93.9263 55.3801 93.0744 51.3741C92.7154 49.8745 92.2225 48.2974 91.955 46.664C91.7086 45.0236 91.7086 43.4887 91.4762 41.8694C90.7863 37.1453 90.209 32.3577 89.4415 27.6476C89.9344 29.1754 90.2653 30.7455 90.6384 32.3014C91.3495 35.4344 92.0606 38.5322 92.6731 41.6934C93.1167 44.0379 93.2364 46.3965 94.0038 48.6565C94.729 50.9165 95.4189 53.444 95.6161 55.8026C95.7921 57.436 95.8484 59.0834 95.785 60.7239C95.6794 62.0968 95.7569 63.3218 95.1866 64.6736C94.8486 65.5044 93.687 66.1169 92.7717 65.5114C89.1247 62.7797 85.3721 60.1043 81.6759 57.3796C79.789 56.0138 75.3042 52.6625 73.3611 51.5431C72.0797 50.6912 70.8476 50.5363 69.4043 49.9097C68.5735 49.4872 68.489 48.2692 68.6158 47.5089C68.7777 46.0515 69.1016 44.6223 69.3761 43.2212C70.9955 36.5327 70.045 29.5767 71.9459 22.9235L71.9389 22.9023Z" fill="#CE8A46"/>
</g>
<defs>
<clipPath id="clip0_734_53240">
<rect width="150" height="202.5" fill="white"/>
</clipPath>
</defs>
</svg>
