<svg width="102" height="70" viewBox="0 0 102 70" fill="none" xmlns="http://www.w3.org/2000/svg">
<path id="Intersect" opacity="0.63" fill-rule="evenodd" clip-rule="evenodd" d="M26.0312 70H59.7566C35.7098 62.0444 18.3594 39.3824 18.3594 12.668C18.3594 8.32282 18.8184 4.08488 19.6906 0H1.88455C1.21009 4.12277 0.859375 8.35441 0.859375 12.668C0.859375 35.3501 10.5565 55.7673 26.0312 70ZM31.8407 0C30.7524 4.0386 30.1719 8.28549 30.1719 12.668C30.1719 39.4883 51.914 61.2305 78.7344 61.2305C86.7786 61.2305 94.3659 59.2746 101.047 55.8125V34.2789C95.4004 40.1075 87.4905 43.7305 78.7344 43.7305C61.579 43.7305 47.6719 29.8233 47.6719 12.668C47.6719 8.15599 48.6339 3.86869 50.3639 0H31.8407Z" fill="white"/>
</svg>
