<svg width="10" height="14" viewBox="0 0 10 14" fill="none" xmlns="http://www.w3.org/2000/svg">
<g id="Frame" clip-path="url(#clip0_5861_77450)">
<path id="Vector" d="M4.53238 11.3778C4.08688 11.3778 3.72656 11.0027 3.72656 10.5389V0.838897C3.72656 0.375107 4.08688 0 4.53238 0C4.97788 0 5.3382 0.375107 5.3382 0.838897V10.5389C5.3382 11.0027 4.97788 11.3778 4.53238 11.3778Z" fill="#C2D9E2"/>
<path id="Vector_2" d="M4.55029 11.3785C4.33617 11.3785 4.13126 11.2898 3.98046 11.1328L0.235702 7.23553C-0.0785673 6.90836 -0.0785673 6.37626 0.235702 6.04909C0.549971 5.72192 1.06109 5.72192 1.37536 6.04909L4.55029 9.35435L7.72521 6.04909C8.03948 5.72192 8.5506 5.72192 8.86487 6.04909C9.17914 6.37626 9.17914 6.90836 8.86487 7.23553L5.12012 11.134C4.96931 11.291 4.7644 11.3797 4.55029 11.3797V11.3785Z" fill="#C2D9E2"/>
<path id="Vector_3" d="M8.28958 14.001H0.806971C0.361468 14.001 0 13.6259 0 13.1621C0 12.6983 0.360316 12.3232 0.805819 12.3232H8.28958C8.73508 12.3232 9.0954 12.6983 9.0954 13.1621C9.0954 13.6259 8.73508 14.001 8.28958 14.001Z" fill="#C2D9E2"/>
</g>
<defs>
<clipPath id="clip0_5861_77450">
<rect width="9.1" height="14" fill="white"/>
</clipPath>
</defs>
</svg>
