<svg width="25" height="25" viewBox="0 0 25 25" fill="none" xmlns="http://www.w3.org/2000/svg">
<g clip-path="url(#clip0_15188_57630)">
<path d="M22.3873 14.0276V13.0229H18.8835C18.2235 12.955 17.6792 13.0123 17.5914 13.0229H17.3545V14.0276H18.8529C19.3453 14.0848 19.8669 14.2246 20.2049 14.524C20.3925 14.689 20.5097 14.8952 20.5615 15.1481H17.3532V16.1528H20.5283C20.4737 16.3657 20.3792 16.544 20.2169 16.6824C19.7977 17.0404 18.9314 17.1282 17.7098 16.9366C17.4982 16.9033 17.2893 17.0071 17.1882 17.1961C17.087 17.385 17.1176 17.6166 17.2627 17.7736L20.7266 21.5076L21.4625 20.825L18.8795 18.0411C19.7525 18.0358 20.4098 17.8388 20.8689 17.4462C21.3094 17.0696 21.4824 16.5746 21.5516 16.1528H22.386V15.1481H21.5756C21.525 14.7169 21.3693 14.3417 21.1125 14.0276H22.386H22.3873Z" fill="#858585"/>
<path d="M19.1898 23.9432C19.0847 23.9432 18.9795 23.9179 18.8811 23.866L12.1862 20.3463L5.49127 23.866C5.26638 23.9831 4.99491 23.9645 4.78998 23.8155C4.58505 23.6664 4.48258 23.4149 4.52516 23.1647L5.80399 15.71L0.387935 10.431C0.206956 10.254 0.141749 9.9892 0.220262 9.74834C0.298775 9.50747 0.506357 9.33182 0.757865 9.29589L8.24321 8.20868L11.5913 1.42596C11.7031 1.19841 11.9347 1.05469 12.1875 1.05469C12.4403 1.05469 12.6719 1.19841 12.7837 1.42596L16.1318 8.20868L23.6171 9.29589C23.8673 9.33182 24.0762 9.50747 24.1547 9.74834C24.2333 9.9892 24.168 10.254 23.9871 10.431L23.186 11.2121C22.9225 11.469 22.502 11.4636 22.2451 11.2002C22.0389 10.9886 22.0016 10.6732 22.1334 10.4257L15.5955 9.47554C15.3786 9.4436 15.1909 9.30787 15.0951 9.11092L12.1888 3.22377L9.28385 9.11092C9.18671 9.30787 8.99907 9.4436 8.78349 9.47554L2.28554 10.419L6.98701 15.0021C7.14404 15.1551 7.21589 15.3747 7.17863 15.5916L6.06881 22.0629L11.8801 19.0075C12.0744 18.9051 12.3059 18.9051 12.4989 19.0075L19.5038 22.6897C19.8285 22.8613 19.9536 23.2632 19.7833 23.5879C19.6649 23.8141 19.4333 23.9432 19.1938 23.9432H19.1898Z" fill="#858585"/>
</g>
<defs>
<clipPath id="clip0_15188_57630">
<rect width="24" height="24" fill="white" transform="translate(0.1875 0.0546875)"/>
</clipPath>
</defs>
</svg>
