<svg width="24" height="21" viewBox="0 0 24 21" fill="none" xmlns="http://www.w3.org/2000/svg">
<path d="M23.7608 10.1283C23.7282 10.0292 23.6773 9.93787 23.6095 9.85832C23.3096 9.51274 22.2142 8.48253 20.5398 9.7553C20.4707 9.80877 20.3872 9.84006 20.3011 9.84398C18.8693 9.89484 17.9747 10.5064 17.8299 11.521C17.8221 11.5784 17.8247 11.6358 17.8391 11.6918C17.8534 11.7479 17.8782 11.8001 17.9121 11.8457C17.946 11.8914 17.989 11.9305 18.0386 11.9592C18.0881 11.9879 18.1416 12.0074 18.1977 12.0152C18.2537 12.0231 18.3111 12.0205 18.3659 12.0061C18.4207 11.9918 18.4728 11.967 18.5185 11.9318C18.5641 11.8979 18.6019 11.8548 18.6306 11.8053C18.6593 11.7557 18.6789 11.701 18.6867 11.6449C18.7975 10.8585 19.8721 10.7347 20.3311 10.719C20.5958 10.7086 20.8501 10.6147 21.0601 10.453C21.7982 9.89223 22.4137 9.86223 22.8949 10.3656L16.8128 15.5154C16.518 15.767 16.1646 15.9405 15.7865 16.0187C14.8658 16.2052 13.1105 16.4517 11.6969 15.9874C9.44479 15.2415 7.66605 15.5766 7.59172 15.591C7.54477 15.6001 7.49913 15.6171 7.45609 15.6418L7.11573 15.8401L4.77103 12.7703L5.64214 12.0739C5.67213 12.0492 5.69822 12.0218 5.72169 11.9905C5.73603 11.9709 7.18485 10.0331 9.14225 10.127C10.7893 10.2026 12.3815 10.9681 12.9905 11.2915C13.254 11.4323 13.5461 11.5054 13.8434 11.5054H15.6404C15.7499 11.5054 15.8556 11.5484 15.9351 11.624L16.3576 12.0231C16.4294 12.0922 16.4763 12.1835 16.4893 12.2839C16.5024 12.383 16.4815 12.4847 16.4294 12.5708L16.3407 12.7181C16.3055 12.7755 16.2585 12.8238 16.2025 12.859C16.1464 12.8942 16.0825 12.9177 16.0173 12.9242L15.2414 13.0063C14.588 13.0559 13.5187 13.0611 13.2031 12.9177C13.1731 12.9033 13.1418 12.8929 13.1092 12.8864C12.6554 12.7938 11.1323 12.5434 10.5572 13.1798C10.4802 13.2658 10.4398 13.378 10.445 13.4941C10.4502 13.6101 10.5011 13.7184 10.5858 13.7966C10.6706 13.8748 10.7828 13.9153 10.8975 13.9101C11.0123 13.9048 11.1205 13.854 11.1975 13.7679C11.3409 13.6075 12.1612 13.5919 12.8993 13.7353C13.2553 13.8748 13.8512 13.9101 14.3702 13.9101C14.8019 13.9101 15.1788 13.8853 15.3157 13.8709L16.1033 13.7875C16.3016 13.7666 16.492 13.7001 16.6602 13.5932C16.8284 13.4862 16.9705 13.3415 17.0762 13.1706L17.1662 13.0233C17.3213 12.7651 17.3852 12.4612 17.3448 12.1626C17.3044 11.864 17.1635 11.5875 16.9471 11.3802L16.5246 10.9811C16.2846 10.7542 15.9664 10.629 15.6378 10.6316H13.8421C13.6856 10.6316 13.5317 10.5938 13.3935 10.5221C12.7323 10.1687 10.9992 9.338 9.18007 9.25584C6.92404 9.15152 5.32656 11.0737 5.05922 11.4232L4.23897 12.0791L4.09682 11.8927C4.03032 11.8053 3.93512 11.7479 3.82819 11.7283C3.72125 11.7101 3.61171 11.7323 3.52043 11.7922L0.386763 13.8318C0.335904 13.8644 0.292869 13.9087 0.258963 13.9596C0.226361 14.0105 0.204192 14.0691 0.19376 14.1291C0.183327 14.1904 0.185935 14.253 0.201584 14.3143C0.217232 14.3743 0.244618 14.4304 0.28374 14.4799L4.50239 19.7588C4.5389 19.8057 4.58454 19.8435 4.63671 19.8722C4.68887 19.8996 4.74625 19.9166 4.80493 19.9218H4.84014C4.94838 19.9192 5.0514 19.8761 5.12964 19.8018L7.78211 17.3789C7.86296 17.3045 7.91252 17.2028 7.92295 17.0946C7.93338 16.985 7.90208 16.8755 7.83558 16.7881L7.64388 16.5377L7.81602 16.4347C9.0314 16.2952 10.2624 16.4243 11.4244 16.8142C12.1259 17.0307 12.8549 17.135 13.5878 17.1233C14.382 17.122 15.1735 17.0424 15.9534 16.8872C16.475 16.7764 16.9601 16.5364 17.3657 16.1883L23.5156 10.9811C23.5952 10.9146 23.6604 10.8312 23.7073 10.7386C23.7543 10.646 23.783 10.5443 23.7908 10.4399C23.7999 10.3356 23.7869 10.2313 23.7556 10.1322L23.7608 10.1283ZM4.90143 18.8511L1.2657 14.3065L3.66518 12.7507L3.77602 12.8968C3.78906 12.9229 3.80472 12.9476 3.82297 12.9711C3.83862 12.9907 3.85688 13.0089 3.87513 13.0259L6.91621 17.0111L4.90143 18.8525V18.8511Z" fill="#858585"/>
<path d="M4.81263 20.1146H4.79698C4.71091 20.1068 4.62875 20.082 4.55312 20.0416C4.47618 20.0012 4.41097 19.9451 4.35751 19.8773L0.13886 14.5984C0.082785 14.528 0.0423585 14.4472 0.0201894 14.3598C-0.0019797 14.2711 -0.00589141 14.1824 0.00845329 14.0938C0.0214939 14.0077 0.0527916 13.9255 0.102346 13.8512C0.149292 13.7782 0.213193 13.713 0.287525 13.666L3.42119 11.6265C3.5529 11.5404 3.712 11.5065 3.86848 11.5339C4.02497 11.5613 4.1632 11.646 4.2597 11.7712L4.28057 11.7986L4.92608 11.2822C5.17255 10.964 6.83262 8.94924 9.19559 9.05747C11.0526 9.14093 12.8196 9.98597 13.4925 10.3459C13.6007 10.4033 13.7272 10.4307 13.8485 10.4333H15.6442C16.025 10.4293 16.3862 10.5741 16.6653 10.8362L17.0878 11.2353C17.3382 11.4726 17.4999 11.7921 17.5455 12.1338C17.5912 12.4754 17.5181 12.8262 17.3408 13.1222L17.2495 13.2696C17.1295 13.4652 16.9652 13.6321 16.7722 13.7547C16.5792 13.8773 16.3575 13.9542 16.1306 13.979L15.3429 14.0625C15.1865 14.0781 14.8005 14.1016 14.3766 14.1016C13.6842 14.1016 13.1717 14.0403 12.8509 13.9203C12.0997 13.7769 11.4477 13.8264 11.3421 13.9021C11.2351 14.0207 11.0813 14.0938 10.913 14.1016C10.7461 14.1094 10.5831 14.0494 10.4605 13.936C10.3366 13.8212 10.2649 13.666 10.2571 13.4978C10.2493 13.3296 10.3066 13.1679 10.4201 13.044C11.0487 12.3489 12.5431 12.5641 13.156 12.6893C13.2043 12.6997 13.2499 12.7154 13.2943 12.7349C13.5381 12.8458 14.4953 12.8614 15.2334 12.8054L16.0028 12.7232C16.038 12.7193 16.0732 12.7062 16.1045 12.6867C16.1358 12.6671 16.1619 12.6397 16.1815 12.6084L16.2688 12.4637C16.2975 12.4154 16.3093 12.3594 16.3014 12.3033C16.2936 12.2485 16.2675 12.1964 16.2284 12.1585L15.8072 11.7608C15.7629 11.7178 15.7068 11.6956 15.6468 11.6956H13.8472C13.5199 11.6956 13.1938 11.6134 12.9043 11.4596C12.3045 11.1414 10.7344 10.3915 9.13951 10.3185C7.29296 10.2285 5.89891 12.0829 5.88457 12.1025C5.85196 12.1468 5.81284 12.1872 5.77111 12.2224L5.04866 12.8001L7.17298 15.5804L7.36337 15.4696C7.42467 15.4343 7.48987 15.4096 7.55898 15.3965C7.7559 15.36 9.52943 15.0588 11.7633 15.7995C13.1299 16.2494 14.8487 16.0081 15.7524 15.8256C16.0967 15.7538 16.4214 15.5947 16.6913 15.3652L22.604 10.3589C22.3719 10.1881 21.9311 10.0394 21.1838 10.6067C20.9413 10.7932 20.6505 10.9001 20.3453 10.9119C19.9359 10.9262 18.9761 11.0279 18.8861 11.6695C18.8744 11.7517 18.847 11.8299 18.8052 11.9016C18.7635 11.9734 18.7087 12.036 18.6422 12.0855C18.5757 12.1351 18.5014 12.1716 18.4205 12.1924C18.3397 12.2133 18.2562 12.2172 18.1754 12.2055C18.0932 12.1937 18.015 12.1664 17.9432 12.1233C17.8715 12.0803 17.8102 12.0255 17.7607 11.9577C17.7111 11.8899 17.6759 11.8156 17.6551 11.7347C17.6342 11.6539 17.6303 11.5704 17.642 11.4882C17.7998 10.3707 18.7687 9.69907 20.2997 9.6443C20.3427 9.64169 20.3884 9.62474 20.4262 9.59605C22.231 8.22418 23.436 9.34828 23.7633 9.72646C23.8494 9.82557 23.912 9.93902 23.9524 10.0629C23.9928 10.1868 24.0071 10.3159 23.9967 10.4463C23.9876 10.5754 23.9524 10.7006 23.8924 10.818C23.8324 10.9353 23.7516 11.037 23.6524 11.1218L17.5038 16.3289C17.0747 16.6967 16.557 16.9536 16.0054 17.0696C15.2138 17.2274 14.4053 17.3083 13.6007 17.3096C12.8509 17.3213 12.0997 17.2144 11.3786 16.9914C10.2832 16.625 9.10691 16.4932 7.96325 16.608L8.00367 16.6602C8.10017 16.788 8.14451 16.9445 8.13017 17.1022C8.11582 17.26 8.0441 17.4061 7.92673 17.513L5.27427 19.936C5.16342 20.0416 5.01476 20.1042 4.85827 20.1081H4.81915L4.81263 20.1146ZM4.82175 19.7234H4.84653C4.9013 19.7221 4.95738 19.6986 5.00041 19.6569L7.65549 17.2313C7.69983 17.1909 7.72721 17.1348 7.73373 17.0736C7.73895 17.0123 7.72199 16.951 7.68548 16.9027L7.36077 16.4789L7.75851 16.2429L7.80024 16.2376C9.03649 16.0955 10.3132 16.2298 11.492 16.6263C12.1702 16.8349 12.877 16.9366 13.5916 16.9262C14.374 16.9249 15.1565 16.8466 15.9206 16.6941C16.4058 16.5911 16.8648 16.3641 17.2443 16.0381L23.3942 10.8297C23.4542 10.7788 23.5025 10.7175 23.5377 10.6471C23.5729 10.5767 23.5951 10.5011 23.6003 10.4215C23.6068 10.342 23.5977 10.2637 23.5729 10.1894C23.5481 10.1151 23.5103 10.0473 23.4594 9.98727C23.1139 9.58823 22.1462 8.77971 20.657 9.91294C20.5579 9.98988 20.4379 10.0342 20.3114 10.042C18.9852 10.089 18.1519 10.6393 18.0228 11.5508C18.0176 11.5834 18.0202 11.6147 18.028 11.646C18.0358 11.6773 18.0489 11.706 18.0684 11.7308C18.0867 11.7556 18.1102 11.7764 18.1376 11.7934C18.1649 11.809 18.1936 11.8195 18.2249 11.8234C18.2562 11.8273 18.2875 11.826 18.3175 11.8182C18.3475 11.8104 18.3762 11.7973 18.401 11.7778C18.4258 11.7582 18.4466 11.736 18.4623 11.7086C18.4779 11.6813 18.4897 11.6513 18.4936 11.6187C18.6253 10.6823 19.8185 10.5415 20.3258 10.5245C20.5488 10.5154 20.7626 10.4372 20.9413 10.2989C21.9754 9.51259 22.6522 9.82817 23.0369 10.2311L23.1804 10.3811L16.9404 15.6652C16.6209 15.9364 16.2362 16.1255 15.8268 16.2103C14.8852 16.402 13.0882 16.651 11.6368 16.1724C9.49552 15.463 7.81458 15.7473 7.62941 15.7825C7.60463 15.7877 7.57855 15.7969 7.55507 15.8112L7.06735 16.0955L4.50096 12.7362L5.52074 11.9212C5.53638 11.9082 5.55203 11.8925 5.56507 11.8743C5.57942 11.8547 7.10517 9.83078 9.15386 9.9312C10.827 10.0081 12.461 10.7867 13.0843 11.1179C13.3177 11.2431 13.5798 11.3083 13.8433 11.3083H15.6429C15.8033 11.3083 15.9559 11.3696 16.0719 11.4817L16.4931 11.8795C16.5988 11.9799 16.6666 12.1142 16.6848 12.2563C16.7044 12.3998 16.6731 12.5458 16.5988 12.6697L16.5101 12.8171C16.4592 12.9006 16.3901 12.971 16.3093 13.0218C16.2284 13.074 16.1358 13.1066 16.0406 13.117L15.2634 13.1992C14.8031 13.2331 13.5355 13.2813 13.1234 13.0936C13.1052 13.0844 13.0882 13.0792 13.07 13.0753C12.191 12.8953 11.1073 12.8627 10.7031 13.3087C10.6601 13.3557 10.6379 13.4196 10.6405 13.4835C10.6431 13.5487 10.6705 13.6074 10.7187 13.6517C10.7657 13.6947 10.8257 13.7169 10.8883 13.7143C10.9509 13.7117 11.0095 13.6843 11.0526 13.6373C11.3173 13.3413 12.4362 13.4456 12.9369 13.5435L12.9709 13.5539C13.2395 13.6595 13.7246 13.7156 14.3714 13.7156C14.8291 13.7156 15.1943 13.6882 15.2973 13.6778L16.0837 13.5943C16.2506 13.5761 16.4149 13.5187 16.557 13.4287C16.6992 13.3387 16.8218 13.2135 16.9104 13.0688L17.0004 12.9227C17.1321 12.7049 17.1856 12.4441 17.1517 12.1898C17.1178 11.9355 16.9978 11.6995 16.8126 11.5235L16.3901 11.1257C16.1867 10.934 15.9233 10.8297 15.6455 10.8297H13.8407C13.6542 10.8297 13.469 10.7841 13.3034 10.6967C12.6527 10.3485 10.9482 9.53346 9.17081 9.4526C6.94999 9.34958 5.38642 11.3187 5.21428 11.543L5.18037 11.5769L4.20363 12.3568L3.94021 12.0112C3.90369 11.9629 3.85153 11.9316 3.79285 11.9212C3.73417 11.9108 3.67548 11.9238 3.62593 11.9564L0.490959 13.9973C0.463573 14.0155 0.438796 14.039 0.421843 14.0677C0.403587 14.0964 0.390543 14.129 0.386631 14.1616C0.380111 14.1981 0.381415 14.2333 0.390543 14.2672C0.399672 14.3011 0.415321 14.3324 0.436186 14.3585L4.65483 19.6373C4.6757 19.6634 4.70048 19.6843 4.72917 19.6999C4.75525 19.7143 4.78394 19.7234 4.81393 19.726L4.82175 19.7234ZM4.88044 19.1366L0.978677 14.2594L3.712 12.4872L3.95325 12.8093C3.96107 12.8236 3.9689 12.838 3.97933 12.851C3.98715 12.8614 3.99759 12.8706 4.00802 12.8797L4.0328 12.9071L7.18211 17.0344L4.88044 19.1366ZM1.55508 14.3533L4.92478 18.5667L6.65397 16.9875L3.73156 13.1588C3.70809 13.1366 3.68852 13.1144 3.67027 13.0922C3.65071 13.0675 3.63375 13.0427 3.61941 13.0153L1.55508 14.3533Z" fill="#858585"/>
<path d="M18.0124 1.07127V0.0867042H14.5788C13.932 0.0201969 13.3986 0.0762716 13.3126 0.0867042H13.0804V1.07127H14.5488C15.0313 1.12735 15.5425 1.26427 15.8737 1.55769C16.0576 1.71939 16.1724 1.92152 16.2232 2.16929H13.0791V3.15386H16.1906C16.1372 3.36251 16.0446 3.53726 15.8855 3.67288C15.4747 4.02367 14.6258 4.10974 13.4286 3.92196C13.2213 3.88936 13.0165 3.99107 12.9174 4.17625C12.8183 4.36143 12.8483 4.58833 12.9905 4.74221L16.3849 8.40142L17.1061 7.73243L14.5749 5.00433C15.4304 4.99911 16.0746 4.80611 16.5245 4.42141C16.9561 4.05236 17.1256 3.56725 17.1935 3.15386H18.0111V2.16929H17.2169C17.1674 1.74678 17.0148 1.37903 16.7631 1.07127H18.0111H18.0124Z" fill="#858585"/>
</svg>
