<svg width="25" height="25" viewBox="0 0 25 25" fill="none" xmlns="http://www.w3.org/2000/svg">
<g clip-path="url(#clip0_15188_57648)">
<path d="M10.1776 23.8472C8.40512 23.5589 6.82178 22.5482 6.18923 20.8096C5.34017 18.6237 4.50546 16.4313 3.66554 14.2415C2.65737 11.8743 5.36234 10.5701 6.69396 9.07804C7.06828 6.98605 6.73048 4.68147 6.84265 2.52166C6.84134 1.7952 7.06959 1.17439 7.63824 0.713992C8.81987 -0.345045 10.754 0.550963 10.9119 2.07692C10.9979 3.84024 10.9197 5.59704 10.9458 7.36688C11.9709 6.58434 13.4355 6.99909 13.9781 8.12073C15.148 7.05908 16.76 7.51426 17.3365 8.92023C18.5925 7.81684 20.7171 8.72981 20.7236 10.4071C20.7719 13.1538 20.7432 15.9057 20.7327 18.6537C20.7679 21.1813 19.0164 23.4572 16.4601 23.8067C14.3811 23.9202 12.2683 23.8107 10.1776 23.8472ZM6.82961 10.1175C6.16054 10.7279 5.55537 11.3096 4.90064 11.9239C4.28765 12.503 4.14549 13.1355 4.45199 13.9311C5.36234 16.2474 6.20618 18.5989 7.15045 20.8996C8.85377 24.0702 12.8865 22.7555 15.8236 23.0086C18.1086 23.0255 19.9176 21.0066 19.8902 18.775C19.9398 16.0426 19.8967 13.3064 19.9006 10.5727C19.8967 8.90197 17.51 8.83415 17.4669 10.5466C17.4565 10.9066 17.4708 11.2691 17.4591 11.6291C17.4513 12.1469 16.6531 12.1469 16.6296 11.633C16.6192 10.9731 16.64 10.3118 16.6231 9.6519C16.507 7.80771 14.0733 8.05682 14.2024 9.87101C14.2011 10.4853 14.205 11.0996 14.1972 11.7139C14.2037 12.2812 13.369 12.2734 13.3625 11.7113C13.356 10.8283 13.3742 9.94405 13.356 9.06239C13.309 7.37862 10.9223 7.41775 10.9484 9.10673C10.9432 10.0053 10.9471 10.904 10.9471 11.8026C10.9471 12.2095 10.8023 12.4182 10.5206 12.4156C10.2402 12.413 10.0993 12.2069 10.0993 11.7974C10.0993 8.74024 10.0993 5.68442 10.0993 2.6273C10.1815 1.90606 9.71979 1.15613 8.97246 1.09744C8.22775 1.01657 7.60954 1.80955 7.6904 2.56339C7.64997 6.22959 7.7517 9.91144 7.64345 13.5711C7.58345 13.7589 7.43477 13.8541 7.23783 13.8463C6.92351 13.8502 6.81005 13.5359 6.83091 13.2659C6.83091 12.2056 6.83091 11.1844 6.83221 10.1188L6.82961 10.1175Z" fill="#858585"/>
<path d="M14.1684 24.0547C13.665 24.0547 13.1628 24.0495 12.6685 24.0443C11.8521 24.0364 11.0082 24.0273 10.1827 24.0416H10.1657L10.1487 24.039C8.12848 23.7117 6.61949 22.5574 6.0078 20.875C5.3909 19.2877 4.77008 17.6653 4.17013 16.0976C3.94189 15.5015 3.71365 14.9055 3.48541 14.3108C2.67027 12.3962 4.13231 11.1258 5.4235 10.0042C5.8239 9.65596 6.20344 9.32729 6.51254 8.98689C6.72774 7.73873 6.68991 6.38625 6.65339 5.0768C6.62991 4.22904 6.60514 3.3526 6.64948 2.51006C6.64818 1.6884 6.93902 1.02846 7.5168 0.560236C8.08805 0.0476727 8.88885 -0.0853589 9.65052 0.208094C10.4526 0.518501 11.0252 1.24235 11.1087 2.05489C11.1634 3.15305 11.1543 4.25643 11.1452 5.32199C11.14 5.87629 11.136 6.44494 11.14 7.01097C11.599 6.77099 12.1338 6.70317 12.6503 6.82708C13.2319 6.96532 13.7249 7.32138 14.0367 7.81699C14.587 7.40224 15.2457 7.24704 15.8769 7.3905C16.533 7.53919 17.082 7.97871 17.412 8.61388C18.042 8.18217 18.8597 8.11696 19.6057 8.45215C20.4144 8.81603 20.9178 9.56466 20.9217 10.4059C20.9608 12.6466 20.9491 14.9303 20.9374 17.1383C20.9347 17.6444 20.9321 18.1491 20.9295 18.6539C20.9674 21.3484 19.058 23.6478 16.4886 23.9999H16.473C15.7113 24.0429 14.9379 24.0547 14.1697 24.0547H14.1684ZM11.1634 23.6439C11.6695 23.6439 12.1755 23.6491 12.6711 23.6543C13.9128 23.6673 15.1961 23.6791 16.4417 23.6126C18.8128 23.2839 20.5722 21.1541 20.537 18.6565C20.5396 18.1478 20.5422 17.6418 20.5448 17.137C20.5565 14.9316 20.5683 12.6505 20.5291 10.4111C20.5265 9.72247 20.1105 9.11079 19.444 8.81081C18.7567 8.50171 17.9989 8.59953 17.4655 9.06775L17.2594 9.24904L17.1551 8.99602C16.8929 8.35694 16.3947 7.9122 15.7882 7.77525C15.2013 7.64222 14.604 7.81699 14.1084 8.26564L13.9154 8.44172L13.8019 8.20565C13.5593 7.70352 13.1054 7.34094 12.5577 7.21052C12.0334 7.08531 11.4882 7.19878 11.0643 7.52354L10.7552 7.7596L10.75 7.37094C10.7396 6.68622 10.7461 5.99237 10.7513 5.32199C10.7604 4.26165 10.7696 3.16479 10.7161 2.08749C10.6483 1.43016 10.1735 0.832821 9.50705 0.575887C8.88493 0.335908 8.23543 0.441551 7.76852 0.86021C7.27291 1.26191 7.03684 1.80447 7.03814 2.5218C6.9951 3.36042 7.01858 4.22904 7.04336 5.06767C7.08119 6.41624 7.12031 7.81047 6.88685 9.11209L6.87642 9.16687L6.8399 9.2086C6.50732 9.58162 6.10431 9.93115 5.67783 10.3016C4.42968 11.3854 3.13849 12.507 3.84538 14.166C4.07623 14.7686 4.30447 15.3646 4.53271 15.9606C5.13266 17.5283 5.75347 19.1495 6.37168 20.7406C6.9325 22.2848 8.32411 23.3452 10.1918 23.653C10.5139 23.6478 10.8387 23.6452 11.1621 23.6452L11.1634 23.6439ZM11.8482 23.2656C9.91919 23.2656 8.01893 22.9317 6.97685 20.9923L6.96771 20.9741C6.39907 19.5877 5.85781 18.1622 5.33481 16.7823C4.98919 15.8693 4.63053 14.9251 4.26795 14.003C3.93537 13.1383 4.0984 12.4118 4.76486 11.7819C4.98267 11.5771 5.19526 11.3775 5.40525 11.178C5.83825 10.7685 6.24778 10.3824 6.69643 9.97289L7.0238 9.67422V11.1545C7.02249 11.8575 7.02119 12.5514 7.02249 13.2648V13.2791C7.01206 13.4108 7.04466 13.5374 7.10466 13.6C7.13596 13.6339 7.17639 13.6495 7.22987 13.6495H7.23247C7.37072 13.6547 7.42159 13.5934 7.44637 13.5334C7.51027 11.3619 7.49984 9.1447 7.48941 7.00184C7.48289 5.54893 7.47637 4.04776 7.49202 2.57136C7.44767 2.11488 7.62635 1.62579 7.96154 1.29061C8.25238 0.999763 8.61757 0.861514 8.99189 0.901945C9.35316 0.930638 9.68965 1.10932 9.93223 1.40408C10.2061 1.73665 10.3405 2.19705 10.2935 2.63788V11.7975C10.2935 12.2188 10.4474 12.2201 10.5217 12.2201C10.6065 12.2214 10.6391 12.1953 10.6587 12.1757C10.7187 12.1157 10.7513 11.984 10.7513 11.8027C10.7513 11.5184 10.7513 11.2341 10.7513 10.9511C10.7513 10.3368 10.75 9.72117 10.7539 9.10688C10.7396 8.15609 11.4282 7.64092 12.1168 7.62527C12.8094 7.60831 13.5254 8.0974 13.5528 9.05731C13.5632 9.58553 13.5619 10.1203 13.5593 10.638C13.558 10.9954 13.5567 11.3528 13.5593 11.7101C13.5619 11.9371 13.7706 11.941 13.7928 11.941C13.8423 11.941 14.0054 11.9227 14.0027 11.7166C14.008 11.3097 14.008 10.908 14.0067 10.5063C14.0067 10.2963 14.0067 10.0877 14.0067 9.87768C13.9649 9.25817 14.1984 8.73126 14.647 8.42867C15.0631 8.14826 15.5952 8.10914 16.0334 8.32564C16.5004 8.55649 16.7782 9.0221 16.8173 9.64031C16.8264 10.0146 16.8251 10.385 16.8225 10.745C16.8212 11.0358 16.8199 11.3371 16.8225 11.6319C16.8316 11.8223 17.0312 11.8249 17.0507 11.8249C17.099 11.8249 17.2581 11.8079 17.2607 11.6293C17.2659 11.4454 17.2659 11.2589 17.2646 11.0789C17.2646 10.9041 17.2633 10.7228 17.2685 10.5441C17.2933 9.54771 18.0107 9.09775 18.6719 9.09775C18.6771 9.09775 18.6836 9.09775 18.6889 9.09775C19.3853 9.10557 20.0922 9.61553 20.0948 10.5741C20.0935 11.5093 20.0974 12.4431 20.1013 13.3769C20.1092 15.1481 20.117 16.9792 20.0844 18.7804C20.1 19.9503 19.624 21.111 18.7788 21.9614C17.9794 22.7648 16.9412 23.2056 15.8508 23.2069C15.8417 23.2069 15.8313 23.2069 15.8222 23.2069H15.8065C15.0631 23.1417 14.2571 23.1795 13.4041 23.22C12.8941 23.2435 12.3698 23.2682 11.8482 23.2682V23.2656ZM7.32638 20.8163C8.5341 23.053 11.0004 22.9383 13.3858 22.8261C14.2492 22.7857 15.0657 22.7478 15.8313 22.8131C15.8378 22.8131 15.843 22.8131 15.8495 22.8131C16.8355 22.8131 17.7759 22.4127 18.501 21.6836C19.2718 20.9076 19.7075 19.8485 19.6931 18.7778C19.7257 16.9753 19.7179 15.1455 19.7101 13.3769C19.7062 12.4418 19.7022 11.508 19.7036 10.5728C19.7022 9.83594 19.174 9.49293 18.6849 9.48771C18.681 9.48771 18.6758 9.48771 18.6719 9.48771C18.1802 9.48771 17.6794 9.81507 17.6611 10.5533C17.6559 10.728 17.6572 10.9015 17.6585 11.0763C17.6585 11.2602 17.6598 11.4493 17.6546 11.6371C17.6494 12.0101 17.3507 12.2109 17.0599 12.2162C16.7573 12.2227 16.4521 12.0257 16.4351 11.6436C16.4299 11.3397 16.4325 11.0358 16.4338 10.7437C16.4351 10.3876 16.4377 10.0198 16.4286 9.65857C16.3999 9.19426 16.1978 8.84342 15.8626 8.67778C15.5535 8.52519 15.1635 8.55518 14.8675 8.75473C14.531 8.98036 14.364 9.37294 14.3992 9.85811V9.87246C14.3992 10.0837 14.3992 10.295 14.3992 10.5063C14.3992 10.9106 14.3992 11.3136 14.3953 11.7179C14.4005 12.1157 14.098 12.3296 13.798 12.3335H13.7902C13.4915 12.3335 13.1733 12.1183 13.168 11.7166C13.1654 11.3567 13.168 10.998 13.168 10.638C13.1706 10.1229 13.1719 9.59074 13.1615 9.06775C13.1406 8.33086 12.6059 8.00871 12.1246 8.01654C11.629 8.02697 11.1334 8.36737 11.1452 9.10427C11.1413 9.72247 11.1413 10.3368 11.1426 10.9498C11.1426 11.2341 11.1426 11.5184 11.1426 11.8027C11.1426 12.0962 11.0721 12.3153 10.9339 12.4535C10.8282 12.5579 10.6796 12.6127 10.5191 12.6113C10.2896 12.61 9.90354 12.5018 9.90354 11.7975V2.60527C9.94267 2.26487 9.84094 1.90881 9.63096 1.65318C9.50705 1.5032 9.29055 1.3193 8.95667 1.29191C8.69843 1.26452 8.44671 1.36234 8.23934 1.5671C7.98371 1.82273 7.84677 2.19574 7.88329 2.54137V2.56484C7.86764 4.04123 7.87546 5.54501 7.88198 7.00054C7.89242 9.15774 7.90285 11.388 7.83764 13.5765V13.6039L7.82851 13.63C7.74243 13.8973 7.51941 14.0512 7.22987 14.0408C7.07466 14.046 6.92989 13.9834 6.82164 13.8686C6.68731 13.7265 6.61818 13.4982 6.63383 13.2582C6.63383 12.5474 6.63383 11.8549 6.63383 11.1545V10.5637C6.31169 10.8624 5.99997 11.1558 5.67652 11.4623C5.46523 11.6619 5.25265 11.8627 5.03484 12.0662C4.48185 12.5879 4.35925 13.1422 4.63444 13.8595C4.99702 14.7829 5.35568 15.7285 5.70261 16.6414C6.223 18.0161 6.76165 19.4364 7.32768 20.8137L7.32638 20.8163Z" fill="#858585"/>
</g>
<defs>
<clipPath id="clip0_15188_57648">
<rect width="24" height="24" fill="white" transform="translate(0.25 0.0546875)"/>
</clipPath>
</defs>
</svg>
