<svg width="31" height="30" viewBox="0 0 31 30" fill="none" xmlns="http://www.w3.org/2000/svg">
<g id="error 1" clip-path="url(#clip0_418_74557)">
<g id="Layer 2">
<g id="Layer 1">
<path id="Vector" d="M30.4863 29.159L16.0881 0.381082C16.0469 0.29816 15.984 0.228516 15.9065 0.179868C15.829 0.13122 15.7398 0.105469 15.6488 0.105469C15.5579 0.105469 15.4687 0.13122 15.3912 0.179868C15.3136 0.228516 15.2508 0.29816 15.2096 0.381082L0.811337 29.159C0.773168 29.2357 0.754873 29.3211 0.758197 29.4071C0.76152 29.4931 0.786352 29.5768 0.830322 29.6503C0.874292 29.7237 0.935932 29.7843 1.00936 29.8264C1.08278 29.8686 1.16554 29.8907 1.24974 29.8908H30.0479C30.1321 29.8907 30.2149 29.8686 30.2883 29.8264C30.3617 29.7843 30.4234 29.7237 30.4673 29.6503C30.5113 29.5768 30.5361 29.4931 30.5395 29.4071C30.5428 29.3211 30.5245 29.2357 30.4863 29.159ZM3.12977 28.2122L15.6497 3.19106L28.1679 28.2122H3.12977Z" fill="#D74444"/>
<path id="Vector_2" d="M16.1593 10.166H15.1741C14.9927 10.166 14.8457 10.3163 14.8457 10.5017V20.9393C14.8457 21.1247 14.9927 21.275 15.1741 21.275H16.1593C16.3406 21.275 16.4877 21.1247 16.4877 20.9393V10.5017C16.4877 10.3163 16.3406 10.166 16.1593 10.166Z" fill="#D74444"/>
<path id="Vector_3" d="M14.125 24.447C14.125 24.7592 14.2156 25.0643 14.3852 25.3238C14.5549 25.5833 14.796 25.7856 15.0782 25.905C15.3603 26.0243 15.6707 26.0555 15.9701 25.9945C16.2696 25.9334 16.5446 25.783 16.7604 25.5622C16.9762 25.3413 17.123 25.06 17.1824 24.7538C17.2418 24.4476 17.211 24.1303 17.0939 23.842C16.9768 23.5537 16.7788 23.3074 16.5247 23.1342C16.2707 22.9611 15.9721 22.8688 15.6668 22.8691C15.4642 22.8691 15.2636 22.91 15.0764 22.9893C14.8892 23.0686 14.7192 23.1849 14.576 23.3314C14.4328 23.4779 14.3193 23.6519 14.2419 23.8433C14.1645 24.0347 14.1248 24.2399 14.125 24.447Z" fill="#D74444"/>
</g>
</g>
</g>
<defs>
<clipPath id="clip0_418_74557">
<rect width="29.7834" height="29.7834" fill="white" transform="translate(0.755859 0.107422)"/>
</clipPath>
</defs>
</svg>
