<svg width="14" height="14" viewBox="0 0 14 14" fill="none" xmlns="http://www.w3.org/2000/svg">
<g clip-path="url(#clip0_2_25744)">
<path d="M5.68539 6.17922C4.77534 6.17922 4.03516 5.44783 4.03516 4.54859C4.03516 3.64936 4.77534 2.91797 5.68539 2.91797C6.59545 2.91797 7.33563 3.64936 7.33563 4.54859C7.33563 5.44783 6.59545 6.17922 5.68539 6.17922ZM5.68539 3.96157C5.35799 3.96157 5.09131 4.22508 5.09131 4.54859C5.09131 4.87211 5.35799 5.13562 5.68539 5.13562C6.0128 5.13562 6.27948 4.87211 6.27948 4.54859C6.27948 4.22508 6.0128 3.96157 5.68539 3.96157Z" fill="#858585"/>
<path d="M5.68823 8.93436C5.39691 8.93436 5.16016 8.70042 5.16016 8.41256V7.40461C5.16016 7.11675 5.39691 6.88281 5.68823 6.88281C5.97955 6.88281 6.21631 7.11675 6.21631 7.40461V8.41256C6.21631 8.70042 5.97955 8.93436 5.68823 8.93436Z" fill="#858585"/>
<path d="M8.44075 7.79655C8.30521 7.79655 8.17055 7.74524 8.06757 7.64349L7.34587 6.93036C7.13992 6.72686 7.13992 6.39639 7.34587 6.19202C7.55182 5.98764 7.88627 5.98851 8.0931 6.19202L8.8148 6.90514C9.02075 7.10864 9.02075 7.43912 8.8148 7.64349C8.71182 7.74524 8.57629 7.79655 8.44163 7.79655H8.44075Z" fill="#858585"/>
<path d="M2.95342 7.80512C2.81788 7.80512 2.68322 7.75381 2.58024 7.65206C2.37429 7.44856 2.37429 7.11808 2.58024 6.91458L3.30195 6.20145C3.5079 5.99795 3.84235 5.99795 4.04829 6.20145C4.25424 6.40496 4.25424 6.73543 4.04829 6.93893L3.32659 7.65206C3.22362 7.75381 3.08808 7.80512 2.95342 7.80512Z" fill="#858585"/>
<path d="M5.68823 2.24295C5.39691 2.24295 5.16016 2.00901 5.16016 1.72115V0.713206C5.16016 0.425347 5.39691 0.191406 5.68823 0.191406C5.97955 0.191406 6.21631 0.425347 6.21631 0.713206V1.72115C6.21631 2.00901 5.97955 2.24295 5.68823 2.24295Z" fill="#858585"/>
<path d="M3.64387 3.08366C3.50833 3.08366 3.37367 3.03235 3.2707 2.9306L2.54899 2.21747C2.34304 2.01397 2.34304 1.6835 2.54899 1.47912C2.75494 1.27475 3.08939 1.27562 3.29622 1.47912L4.01793 2.19225C4.22387 2.39575 4.22387 2.72623 4.01793 2.9306C3.91495 3.03235 3.77941 3.08366 3.64475 3.08366H3.64387Z" fill="#858585"/>
<path d="M7.73076 3.12348C7.59522 3.12348 7.46056 3.07217 7.35759 2.97042C7.15164 2.76692 7.15164 2.43644 7.35759 2.23294L8.07929 1.51981C8.28524 1.31631 8.61969 1.31631 8.82564 1.51981C9.03159 1.72332 9.03159 2.05379 8.82564 2.25729L8.10394 2.97042C8.00096 3.07217 7.86542 3.12348 7.73076 3.12348Z" fill="#858585"/>
<path d="M2.82939 5.07485H1.80933C1.518 5.07485 1.28125 4.84091 1.28125 4.55305C1.28125 4.26519 1.518 4.03125 1.80933 4.03125H2.82939C3.12072 4.03125 3.35747 4.26519 3.35747 4.55305C3.35747 4.84091 3.12072 5.07485 2.82939 5.07485Z" fill="#858585"/>
<path d="M9.55205 5.07485H8.53198C8.24066 5.07485 8.00391 4.84091 8.00391 4.55305C8.00391 4.26519 8.24066 4.03125 8.53198 4.03125H9.55205C9.84337 4.03125 10.0801 4.26519 10.0801 4.55305C10.0801 4.84091 9.84337 5.07485 9.55205 5.07485Z" fill="#858585"/>
<path d="M11.2148 13.7978H1.36792C1.0766 13.7978 0.839844 13.5639 0.839844 13.276V10.4261C0.839844 10.1391 1.07396 9.90691 1.36352 9.9043C1.6214 9.9043 7.69251 9.89038 11.5395 12.8646C11.7173 13.0021 11.7869 13.2351 11.7129 13.4456C11.6399 13.656 11.4392 13.7969 11.2139 13.7969L11.2148 13.7978ZM1.896 12.7542H9.41316C6.60996 11.3027 3.18538 11.0175 1.896 10.9618V12.7542Z" fill="#858585"/>
<path d="M12.6334 13.8092H12.629L11.2102 13.7979C11.0958 13.797 10.9849 13.7597 10.8943 13.6909C9.77916 12.8508 8.1606 12.1916 8.14476 12.1856C7.99162 12.1238 7.87632 11.9942 7.83408 11.8368C7.79183 11.6794 7.82616 11.5107 7.92825 11.3811C9.86541 8.93213 12.3975 8.27901 12.504 8.25205C12.6616 8.21291 12.8297 8.2477 12.9573 8.34684C13.0858 8.44598 13.1606 8.59731 13.1606 8.7582V13.2874C13.1606 13.4266 13.1043 13.5596 13.0048 13.6579C12.9062 13.7553 12.7725 13.8092 12.6325 13.8092H12.6334ZM11.3915 12.7561L12.1053 12.7621V9.49915C11.4021 9.7931 10.2456 10.3993 9.20355 11.5107C9.7862 11.7829 10.654 12.2264 11.3915 12.7561Z" fill="#858585"/>
</g>
<defs>
<clipPath id="clip0_2_25744">
<rect width="14" height="14" fill="white"/>
</clipPath>
</defs>
</svg>
