<svg width="16" height="16" viewBox="0 0 16 16" fill="none" xmlns="http://www.w3.org/2000/svg">
<g clip-path="url(#clip0_2_45903)">
<path d="M10.0663 11.7324C9.73535 11.7324 9.4668 11.4639 9.4668 11.133V5.74985C9.4668 5.41895 9.73535 5.15039 10.0663 5.15039C10.3972 5.15039 10.6657 5.41895 10.6657 5.74985V11.133C10.6657 11.4639 10.3972 11.7324 10.0663 11.7324Z" fill="white"/>
<path d="M6.24789 11.668C5.91699 11.668 5.64844 11.3994 5.64844 11.0685V5.68539C5.64844 5.35449 5.91699 5.08594 6.24789 5.08594C6.57879 5.08594 6.84735 5.35449 6.84735 5.68539V11.0685C6.84735 11.3994 6.57879 11.668 6.24789 11.668Z" fill="white"/>
<path d="M12.1974 14.1824H4.13468C3.32422 14.1824 2.66602 13.523 2.66602 12.7137V3.99406C2.66602 3.18479 3.32542 2.52539 4.13468 2.52539H12.1974C13.0078 2.52539 13.666 3.18479 13.666 3.99406V12.7137C13.666 13.523 13.0066 14.1824 12.1974 14.1824ZM4.13468 3.7243C3.98602 3.7243 3.86493 3.84539 3.86493 3.99406V12.7137C3.86493 12.8624 3.98602 12.9835 4.13468 12.9835H12.1974C12.346 12.9835 12.4671 12.8624 12.4671 12.7137V3.99406C12.4671 3.84539 12.346 3.7243 12.1974 3.7243H4.13468Z" fill="white"/>
<path d="M9.47445 3.65062C9.14356 3.65062 8.875 3.38207 8.875 3.05117V0.636564C8.875 0.305665 9.14356 0.0371094 9.47445 0.0371094C9.80535 0.0371094 10.0739 0.305665 10.0739 0.636564V3.05117C10.0739 3.38207 9.80535 3.65062 9.47445 3.65062Z" fill="white"/>
<path d="M6.80453 3.65062C6.47363 3.65062 6.20508 3.38207 6.20508 3.05117V0.636564C6.20508 0.305665 6.47363 0.0371094 6.80453 0.0371094C7.13543 0.0371094 7.40399 0.305665 7.40399 0.636564V3.05117C7.40399 3.38207 7.13543 3.65062 6.80453 3.65062Z" fill="white"/>
<path d="M10.5055 1.21063H5.7518C5.4209 1.21063 5.15234 0.942073 5.15234 0.611174C5.15234 0.280275 5.4209 0.0117188 5.7518 0.0117188H10.5055C10.8364 0.0117188 11.1049 0.280275 11.1049 0.611174C11.1049 0.942073 10.8364 1.21063 10.5055 1.21063Z" fill="white"/>
<path d="M11.5303 15.8263C10.9033 15.8263 10.3926 15.3156 10.3926 14.6885C10.3926 14.0615 10.9033 13.5508 11.5303 13.5508C12.1574 13.5508 12.6681 14.0615 12.6681 14.6885C12.6681 15.3156 12.1574 15.8263 11.5303 15.8263ZM11.5303 14.5099C11.4332 14.5099 11.3517 14.5914 11.3517 14.6885C11.3517 14.7857 11.4332 14.8672 11.5303 14.8672C11.6275 14.8672 11.709 14.7857 11.709 14.6885C11.709 14.5914 11.6275 14.5099 11.5303 14.5099Z" fill="white"/>
<path d="M4.7862 15.838C4.15917 15.838 3.64844 15.3273 3.64844 14.7003C3.64844 14.0732 4.15917 13.5625 4.7862 13.5625C5.41323 13.5625 5.92397 14.0732 5.92397 14.7003C5.92397 15.3273 5.41323 15.838 4.7862 15.838ZM4.7862 14.5216C4.68909 14.5216 4.60757 14.6032 4.60757 14.7003C4.60757 14.7974 4.68909 14.8789 4.7862 14.8789C4.88331 14.8789 4.96484 14.7974 4.96484 14.7003C4.96484 14.6032 4.88331 14.5216 4.7862 14.5216Z" fill="white"/>
</g>
<defs>
<clipPath id="clip0_2_45903">
<rect width="11" height="15.8504" fill="white" transform="translate(2.66602)"/>
</clipPath>
</defs>
</svg>
