<svg width="35" height="35" viewBox="0 0 35 35" fill="none" xmlns="http://www.w3.org/2000/svg">
<circle cx="17.5" cy="17.9355" r="17" fill="white" fill-opacity="0.3"/>
<g clip-path="url(#clip0_293_27693)">
<path d="M18.9383 22.4235C18.7136 22.4235 18.4889 22.333 18.3246 22.1569L14.2754 17.8026C13.9602 17.4639 13.9786 16.9324 14.319 16.6172C14.6577 16.3019 15.1892 16.3204 15.5044 16.6608L19.5537 21.0151C19.8688 21.3539 19.8504 21.8853 19.51 22.2006C19.3491 22.3515 19.1428 22.4253 18.9399 22.4253L18.9383 22.4235Z" fill="white"/>
<path d="M16.2959 18.1692C15.8282 18.1692 15.3117 18.1239 14.745 18.035C14.2872 17.9629 13.9754 17.5336 14.0475 17.0759C14.1196 16.6182 14.5488 16.3063 15.0065 16.3785C16.8124 16.6618 17.4981 16.3499 17.7463 16.137C18.0397 15.8855 18.1 15.4646 18.1 14.9096C18.1 14.5022 17.9827 14.2088 17.7295 13.9841C17.032 13.3654 15.4794 13.3956 14.9898 13.4543C14.532 13.5096 14.1129 13.1827 14.0558 12.7232C13.9988 12.2638 14.3241 11.8463 14.7835 11.7893C15.0518 11.7558 17.4478 11.4976 18.8361 12.7249C19.4498 13.2665 19.775 14.0227 19.775 14.908C19.775 15.416 19.775 16.6048 18.8345 17.4096C18.2426 17.916 17.4059 18.1658 16.2976 18.1658L16.2959 18.1692Z" fill="white"/>
<path d="M20.4493 13.4638H14.5473C14.0846 13.4638 13.709 13.0882 13.709 12.6255C13.709 12.1627 14.0846 11.7871 14.5473 11.7871H20.4493C20.912 11.7871 21.2876 12.1627 21.2876 12.6255C21.2876 13.0882 20.912 13.4638 20.4493 13.4638Z" fill="white"/>
<path d="M20.4493 15.6533H14.5473C14.0846 15.6533 13.709 15.2777 13.709 14.8149C13.709 14.3521 14.0846 13.9766 14.5473 13.9766H20.4493C20.912 13.9766 21.2876 14.3521 21.2876 14.8149C21.2876 15.2777 20.912 15.6533 20.4493 15.6533Z" fill="white"/>
<path d="M12.1421 27.9299C11.9895 27.9299 11.8369 27.8879 11.6977 27.8025C8.44329 25.7669 6.5 22.2626 6.5 18.4281C6.5 12.3349 11.458 7.37695 17.5511 7.37695C23.0221 7.37695 27.7252 11.4547 28.4915 16.8637C28.5569 17.3214 28.2383 17.7456 27.7789 17.811C27.3195 17.8764 26.8969 17.5578 26.8316 17.0984C26.181 12.511 22.1921 9.05364 17.5511 9.05364C12.3818 9.05364 8.17669 13.2588 8.17669 18.4281C8.17669 21.6808 9.82488 24.6536 12.5864 26.3806C12.9787 26.6254 13.0978 27.1435 12.853 27.5358C12.6937 27.7907 12.4204 27.9299 12.1421 27.9299Z" fill="white"/>
<path d="M27.0671 20.6584C27.2576 20.6584 27.4481 20.7363 27.5843 20.8892C27.8401 21.1756 27.8165 21.6149 27.5315 21.8708L24.8038 24.3191C24.6758 24.4331 24.5104 24.497 24.3393 24.497H20.8901L17.6451 27.8199C17.3768 28.0952 16.9374 28.0993 16.6621 27.8309C16.3869 27.5626 16.3827 27.1233 16.651 26.848L20.1004 23.3167C20.2311 23.1832 20.4104 23.1068 20.5981 23.1068H24.0738L26.6028 20.8364C26.7348 20.7168 26.9017 20.6584 27.0671 20.6584Z" fill="white"/>
<path d="M16.5154 23.9854C16.8991 23.9854 17.2106 24.2969 17.2106 24.6806V27.1859H20.1329C20.5166 27.1859 20.8281 27.4973 20.8281 27.881C20.8281 28.2648 20.5166 28.5762 20.1329 28.5762H16.5154C16.1317 28.5762 15.8203 28.2648 15.8203 27.881V24.6806C15.8203 24.2969 16.1317 23.9854 16.5154 23.9854Z" fill="white"/>
</g>
<defs>
<clipPath id="clip0_293_27693">
<rect width="22" height="22" fill="white" transform="translate(6.5 6.93555)"/>
</clipPath>
</defs>
</svg>
