<svg width="37" height="36" viewBox="0 0 37 36" fill="none" xmlns="http://www.w3.org/2000/svg">
<g filter="url(#filter0_d_293_27702)">
<path d="M18.5 28C26.232 28 32.5 21.732 32.5 14C32.5 6.26801 26.232 0 18.5 0C10.768 0 4.5 6.26801 4.5 14C4.5 21.732 10.768 28 18.5 28Z" fill="#3398D5"/>
<path fill-rule="evenodd" clip-rule="evenodd" d="M13.5699 7.99613C13.2684 7.69929 12.7852 7.70526 12.4907 8.00945C12.1962 8.31365 12.2018 8.80089 12.5033 9.09773L17.4821 13.9996L12.5033 18.9014C12.2018 19.1982 12.1962 19.6855 12.4907 19.9897C12.7852 20.2939 13.2684 20.2998 13.5699 20.003L18.5748 15.0754L23.4214 19.8471C23.7229 20.144 24.2061 20.138 24.5006 19.8338C24.7952 19.5296 24.7895 19.0424 24.488 18.7455L19.6676 13.9996L24.488 9.25359C24.7895 8.95676 24.7952 8.46952 24.5006 8.16532C24.2061 7.86112 23.7229 7.85516 23.4214 8.15199L18.5748 12.9237L13.5699 7.99613Z" fill="white"/>
</g>
<defs>
<filter id="filter0_d_293_27702" x="0.5" y="0" width="36" height="36" filterUnits="userSpaceOnUse" color-interpolation-filters="sRGB">
<feFlood flood-opacity="0" result="BackgroundImageFix"/>
<feColorMatrix in="SourceAlpha" type="matrix" values="0 0 0 0 0 0 0 0 0 0 0 0 0 0 0 0 0 0 127 0" result="hardAlpha"/>
<feOffset dy="4"/>
<feGaussianBlur stdDeviation="2"/>
<feComposite in2="hardAlpha" operator="out"/>
<feColorMatrix type="matrix" values="0 0 0 0 0 0 0 0 0 0 0 0 0 0 0 0 0 0 0.25 0"/>
<feBlend mode="normal" in2="BackgroundImageFix" result="effect1_dropShadow_293_27702"/>
<feBlend mode="normal" in="SourceGraphic" in2="effect1_dropShadow_293_27702" result="shape"/>
</filter>
</defs>
</svg>
