<svg width="16" height="16" viewBox="0 0 16 16" fill="none" xmlns="http://www.w3.org/2000/svg">
<rect width="16" height="16" fill="#F5F5F5"/>
<g clip-path="url(#clip0_0_1)">
<rect width="1440" height="2843" transform="translate(-461 -1531)" fill="white"/>
<rect x="-461" y="-1291" width="1440" height="2297" fill="#E5EDF4" fill-opacity="0.4"/>
<path d="M-16 5C-16 -3.83655 -8.83656 -11 0 -11H803C811.837 -11 819 -3.83656 819 5V108C819 116.837 811.837 124 803 124H2.09808e-05C-8.83654 124 -16 116.837 -16 108V5Z" fill="#0A1B29"/>
<circle cx="8" cy="8" r="8" fill="#1D7342"/>
<path d="M10.3687 8.07873H8.27886H8.02886V7.82873C8.02886 7.79979 8.02873 7.77071 8.02859 7.74171C8.02831 7.68329 8.02804 7.62518 8.02889 7.56914L8.02889 7.56902C8.04257 6.69482 8.5199 6.00921 9.35129 5.80575L9.35137 5.80573C9.48679 5.77263 9.62187 5.76301 9.74457 5.7596C9.80144 5.75802 9.85835 5.75774 9.91189 5.75748L9.92474 5.75741C9.98309 5.75712 10.0376 5.75672 10.0909 5.75483C10.091 5.75483 10.091 5.75482 10.0911 5.75482L10.3687 8.07873ZM10.3687 8.07873V9.2389C10.2486 9.23903 10.1286 9.23924 10.0086 9.23945C9.48436 9.24035 8.96185 9.24125 8.43913 9.23608L8.43905 9.23608C8.36668 9.23539 8.22709 9.24087 8.12546 9.35089C8.0297 9.45456 8.02874 9.58862 8.02886 9.6476L8.02886 9.64791C8.03166 10.5008 8.03043 11.3535 8.0292 12.207C8.02894 12.3869 8.02868 12.5668 8.02846 12.7468H6.87524M10.3687 8.07873L6.87524 12.7468M6.35478 9.7444C6.04217 10.0638 5.85137 10.4532 5.85373 10.9291L5.85373 10.9291C5.85591 11.3618 5.85548 11.7939 5.85505 12.2269C5.85488 12.4009 5.85471 12.5751 5.8547 12.7495L6.62524 10.1902C6.65133 10.1588 6.67922 10.1279 6.7089 10.0974C6.71027 10.0964 6.71261 10.0946 6.71621 10.0921C6.71832 10.0906 6.72136 10.0884 6.72508 10.0858C6.73712 10.0774 6.75636 10.0639 6.77488 10.0501L6.62524 9.84979H6.46247L6.35478 9.7444ZM6.35478 9.7444C6.38159 9.71699 6.40884 9.69716 6.42592 9.68498C6.43336 9.67967 6.4394 9.67544 6.44495 9.67156C6.455 9.66452 6.46343 9.65862 6.47561 9.64952L6.87524 9.35094V9.84979V12.7468M6.35478 9.7444C6.35473 9.74445 6.35468 9.7445 6.35463 9.74455L6.46234 9.84979H6.37524L6.87524 12.7468M10.3695 4.57875V5.75178L6.8913 7.79833C6.86703 7.30725 6.89747 6.85052 7.07796 6.42478L7.07798 6.42474C7.5053 5.41631 8.26445 4.82942 9.33046 4.63417L9.33057 4.63415C9.52537 4.59839 9.72934 4.58696 9.94797 4.58283C10.0241 4.58139 10.1046 4.58086 10.1872 4.58031C10.2471 4.57992 10.3082 4.57952 10.3695 4.57875Z" fill="white" stroke="white" stroke-width="0.5"/>
<path d="M8.32813 2.91604C8.32962 2.41537 8.75735 1.99533 9.26026 2.00004C9.76466 2.005 10.182 2.42926 10.1765 2.93167C10.1711 3.43632 9.74704 3.85313 9.24438 3.84792C8.73974 3.84271 8.32664 3.42267 8.32813 2.91604ZM8.32813 2.91604L8.57813 2.91678M8.32813 2.91604L8.57813 2.91679C8.57705 3.2869 8.8805 3.59415 9.24696 3.59794L9.24697 3.59794C9.61067 3.60171 9.92255 3.29654 9.92652 2.92897L9.92652 2.92896C9.93047 2.56571 9.62506 2.25371 9.25792 2.25003L8.57813 2.91678M8.57813 2.91678C8.57921 2.5561 8.89237 2.24667 9.2578 2.25003L8.57813 2.91678Z" fill="white" stroke="white" stroke-width="0.5"/>
<path d="M4.38282 6.78714C4.38431 6.28646 4.81204 5.86642 5.31495 5.87113C5.81934 5.8761 6.23666 6.30035 6.2312 6.80277C6.22574 7.30741 5.80173 7.72423 5.29907 7.71902C4.79442 7.71381 4.38133 7.29377 4.38282 6.78714ZM4.38282 6.78714L4.63282 6.78787M4.38282 6.78714L4.63282 6.78788C4.63173 7.158 4.93519 7.46525 5.30165 7.46903L5.30166 7.46903C5.66535 7.4728 5.97724 7.16764 5.98121 6.80006L5.98121 6.80005C5.98516 6.4368 5.67975 6.1248 5.3126 6.12112L4.63282 6.78787M4.63282 6.78787C4.63389 6.42719 4.94706 6.11776 5.31249 6.12112L4.63282 6.78787Z" fill="white" stroke="white" stroke-width="0.5"/>
<path d="M5.30899 7.99296C4.79963 7.99345 4.38133 7.57192 4.38282 7.05934C4.38431 6.55842 4.80906 6.13986 5.31321 6.14259C5.81736 6.14532 6.23467 6.56611 6.23318 7.06976C6.23169 7.57416 5.81289 7.99221 5.30874 7.99271L5.30899 7.99296Z" fill="white"/>
</g>
<defs>
<clipPath id="clip0_0_1">
<rect width="1440" height="2843" fill="white" transform="translate(-461 -1531)"/>
</clipPath>
</defs>
</svg>
