<svg width="20" height="20" viewBox="0 0 20 20" fill="none" xmlns="http://www.w3.org/2000/svg">
<circle cx="10" cy="10" r="10" fill="#1D7342"/>
<g clip-path="url(#clip0_1167_61647)">
<path d="M11.7001 7.3174L11.7001 7.31738C11.8631 7.27756 12.0269 7.26571 12.1785 7.26149C12.2489 7.25953 12.3193 7.25918 12.3864 7.25886L12.4023 7.25878C12.4752 7.25841 12.5443 7.25791 12.612 7.25551L11.7001 7.3174ZM11.7001 7.3174C10.6923 7.56403 10.1114 8.3933 10.0947 9.46177L10.0947 9.46188M11.7001 7.3174L10.0947 9.46188M10.0947 9.46188C10.0936 9.53134 10.094 9.60285 10.0943 9.67548C10.0945 9.71188 10.0947 9.74857 10.0947 9.78543V10.0354M10.0947 9.46188L10.0947 10.0354M10.0947 10.0354H10.3447M10.0947 10.0354H10.3447M10.3447 10.0354H13.0195V11.6106M10.3447 10.0354L13.0195 11.6106M13.0195 11.6106C12.8486 11.6107 12.6779 11.611 12.5072 11.6113C11.8519 11.6124 11.1982 11.6136 10.5444 11.6071L10.5443 11.6071C10.4558 11.6063 10.3063 11.6142 10.1988 11.7305C10.0972 11.8405 10.0945 11.9847 10.0947 12.0589L10.0947 12.0592C10.0982 13.1255 10.0966 14.1916 10.0951 15.2584C10.0947 15.5041 10.0944 15.7497 10.0941 15.9955H8.52765V12.3118V11.8129L8.12802 12.1115C8.11208 12.1234 8.10045 12.1315 8.08738 12.1407C8.08052 12.1455 8.07326 12.1506 8.06478 12.1566C8.04397 12.1715 8.01368 12.1936 7.98424 12.2237L13.0195 11.6106ZM7.37698 15.9989C7.37694 15.7601 7.37717 15.5217 7.37741 15.2835C7.37794 14.7421 7.37848 14.2017 7.37576 13.6605L7.37576 13.6605C7.3729 13.0848 7.60302 12.6133 7.98408 12.2239L7.37698 15.9989ZM7.37698 15.9989H5.81811M7.37698 15.9989H5.81811M5.81811 15.9989C5.81847 15.7849 5.8201 15.5695 5.82173 15.3533C5.82587 14.8064 5.83005 14.2541 5.81389 13.7056C5.76916 12.1856 6.80809 10.7582 8.19136 10.2751L8.10894 10.0391C8.2578 9.98732 8.30587 9.91754 8.29812 9.7631M5.81811 15.9989L8.19109 10.2752C8.28541 10.2424 8.39437 10.1889 8.4684 10.081C8.54311 9.97215 8.55283 9.85099 8.54781 9.75075M8.29812 9.7631L8.54781 9.75075M8.29812 9.7631L8.5478 9.75056C8.54781 9.75062 8.54781 9.75068 8.54781 9.75075M8.29812 9.7631L8.54781 9.75075M8.54781 9.75075C8.51725 9.13294 8.555 8.55098 8.78601 8.00609L8.78602 8.00605C9.32865 6.72552 10.2954 5.97847 11.6479 5.73075L11.648 5.73073C11.8965 5.6851 12.1555 5.67075 12.4299 5.66556C12.5268 5.66372 12.6281 5.66306 12.7316 5.66238C12.8266 5.66176 12.9235 5.66113 13.0204 5.65957V7.25217L8.54781 9.75075Z" fill="white" stroke="white" stroke-width="0.5"/>
<path d="M11.5714 2.50005C12.2019 2.50625 12.7236 3.03658 12.7167 3.66459C12.7099 4.2954 12.1799 4.81642 11.5516 4.80991C10.9208 4.80339 10.4044 4.27834 10.4063 3.64505M11.5714 2.50005C10.9428 2.49416 10.4081 3.01921 10.4063 3.64505M11.5714 2.50005L11.569 2.75004M11.5714 2.50005L11.5691 2.75004M10.4063 3.64505L10.6563 3.64579M10.4063 3.64505L10.6563 3.64579M10.6563 3.64579C10.6577 3.15993 11.0778 2.7455 11.569 2.75004M10.6563 3.64579C10.6548 4.14257 11.0615 4.55483 11.5541 4.55992H11.5542C12.0435 4.56499 12.4614 4.15562 12.4667 3.66189L12.4667 3.66188C12.4721 3.17303 12.0623 2.75496 11.5691 2.75004M11.569 2.75004L11.5691 2.75004M11.569 2.75004L11.5691 2.75004" fill="white" stroke="white" stroke-width="0.5"/>
<path d="M6.64173 7.33794C7.27223 7.34414 7.79387 7.87447 7.78704 8.50248C7.78022 9.13329 7.25021 9.65431 6.62188 9.6478C5.99108 9.64128 5.47471 9.11623 5.47657 8.48294M6.64173 7.33794C6.01309 7.33205 5.47843 7.8571 5.47657 8.48294M6.64173 7.33794L6.63927 7.58793M6.64173 7.33794L6.63939 7.58793M5.47657 8.48294L5.72657 8.48368M5.47657 8.48294L5.72657 8.48368M5.72657 8.48368C5.72801 7.99782 6.14811 7.58339 6.63927 7.58793M5.72657 8.48368C5.72511 8.98046 6.13184 9.39272 6.62446 9.39781H6.62447C7.11383 9.40288 7.53172 8.99351 7.53706 8.49978L7.53706 8.49977C7.54237 8.01092 7.13263 7.59285 6.63939 7.58793M6.63927 7.58793L6.63939 7.58793M6.63927 7.58793L6.63939 7.58793" fill="white" stroke="white" stroke-width="0.5"/>
<path d="M6.63429 9.99071C5.99759 9.99133 5.47471 9.46442 5.47657 8.82369C5.47843 8.19753 6.00937 7.67434 6.63956 7.67775C7.26975 7.68116 7.79139 8.20715 7.78953 8.83671C7.78766 9.46721 7.26416 9.98978 6.63398 9.9904L6.63429 9.99071Z" fill="white"/>
</g>
<defs>
<clipPath id="clip0_1167_61647">
<rect width="13.75" height="13.75" fill="white" transform="translate(2.5 2.5)"/>
</clipPath>
</defs>
</svg>
