<svg width="44" height="44" viewBox="0 0 44 44" fill="none" xmlns="http://www.w3.org/2000/svg">
<g clip-path="url(#clip0_3047_3903)">
<path opacity="0.17" d="M18.7398 16.3464L24.6211 14.223C24.6211 14.223 15.8795 10.9172 15.2318 10.6933C15.2078 10.6856 15.182 10.6856 15.158 10.6933L13.0084 11.3019C12.9959 11.3059 12.9848 11.3131 12.976 11.3228C12.9672 11.3326 12.9612 11.3445 12.9586 11.3573C12.9559 11.3701 12.9567 11.3834 12.9609 11.3958C12.9651 11.4082 12.9725 11.4193 12.9823 11.4279L18.7398 16.3464Z" fill="url(#paint0_linear_3047_3903)"/>
<path opacity="0.17" d="M40.0915 12.413L36.0946 10.7264C35.5485 10.498 34.9357 10.4872 34.3819 10.696L15.1774 17.7444L11.1456 19.2224L9.36559 19.8744L9.09174 19.9744C6.94873 18.566 5.94025 17.1663 5.72726 16.8403C5.71351 16.8194 5.69479 16.8024 5.67278 16.7906C5.65076 16.7788 5.62615 16.7727 5.60119 16.7729L2.97785 16.7903C2.97165 16.7906 2.96565 16.7925 2.96039 16.7958C2.95513 16.7991 2.95078 16.8037 2.94775 16.8091C2.94472 16.8145 2.9431 16.8206 2.94304 16.8268C2.94298 16.833 2.9445 16.8391 2.94743 16.8446L5.37081 21.3393L5.0122 21.4719L4.2341 21.7588L3.67118 21.9761C1.71508 22.6694 2.56055 25.2102 4.29278 25.1059L14.2906 25.1341C14.6923 25.1697 15.0969 25.1155 15.4751 24.9755L19.17 23.754L12.278 31.4588C12.1324 32 16.0837 31.5697 16.2554 31.3654L26.4119 21.3436L40.7392 16.6229C40.8694 16.5606 40.9805 16.4646 41.0609 16.3447C41.3424 15.9698 41.486 15.5092 41.4673 15.0407C41.4217 13.8735 40.9 12.7499 40.0915 12.413Z" fill="url(#paint1_linear_3047_3903)"/>
<path d="M18.6271 16.9619L12.6306 11.8369C12.546 11.7644 12.4828 11.6703 12.4476 11.5647C12.4124 11.459 12.4065 11.3458 12.4306 11.2371C12.454 11.1279 12.5069 11.0272 12.5835 10.9459C12.6602 10.8647 12.7576 10.806 12.8653 10.7763L15.0148 10.1656C15.1454 10.1289 15.2841 10.1327 15.4126 10.1764C16.0646 10.3938 24.4606 13.5779 24.817 13.7126L26.1928 14.2321L18.6271 16.9619ZM14.0063 11.5827L18.8509 15.7252L23.0544 14.2038C20.7071 13.3171 16.0994 11.5783 15.18 11.2436L14.0063 11.5827Z" fill="#224086"/>
<path d="M14.5236 25.6895C14.4345 25.6895 14.3454 25.6895 14.2563 25.6786L4.30841 25.6503C3.77886 25.6757 3.25804 25.5085 2.84215 25.1797C2.42626 24.8509 2.14342 24.3827 2.04587 23.8616C1.82852 22.7923 2.39579 21.8533 3.48903 21.4708L4.03891 21.2535L4.81483 20.9688L5.18867 21.9903L4.42143 22.2706L3.86721 22.488C3.03044 22.7836 3.06087 23.3987 3.11086 23.6486C3.15849 23.9154 3.30126 24.1558 3.5127 24.3252C3.72414 24.4947 3.98988 24.5817 4.2606 24.5701H4.29537L14.3302 24.6006C14.6524 24.6302 14.9771 24.5863 15.2799 24.4723L19.1639 23.1878L19.5051 24.2202L15.6364 25.5004C15.2793 25.6276 14.9027 25.6916 14.5236 25.6895Z" fill="#224086"/>
<path d="M26.5772 21.8559L26.236 20.8236L40.5264 16.105C40.5608 16.0741 40.5921 16.0399 40.6198 16.0029C40.8251 15.7259 40.9288 15.3866 40.9132 15.0422C40.8828 14.0381 40.4481 13.1361 39.8809 12.897L35.8817 11.2126C35.4659 11.0382 34.999 11.0305 34.5777 11.1909L9.54179 20.3845L9.16797 19.3652L34.1951 10.1824C34.8779 9.92634 35.6327 9.94033 36.3055 10.2215L40.3025 11.9059C41.274 12.3167 41.9565 13.5686 42 15.0205C42.021 15.6156 41.8377 16.2001 41.4805 16.6766C41.3392 16.8792 41.1432 17.0375 40.9154 17.1331L26.5772 21.8559Z" fill="#224086"/>
<path d="M13.5149 32.2539C12.8629 32.2539 12.3217 32.1995 12.1044 32.0865C11.9622 32.0226 11.8476 31.9098 11.7814 31.7687C11.7152 31.6275 11.7018 31.4673 11.7436 31.3171C11.7661 31.2364 11.807 31.162 11.8631 31.0998L21.4502 20.3826C21.5098 20.3172 21.5844 20.2673 21.6675 20.2369L30.0222 17.0833C30.1392 17.038 30.2683 17.0349 30.3874 17.0745C30.5064 17.1142 30.6078 17.1942 30.6742 17.3006C30.742 17.4048 30.7717 17.5293 30.7582 17.6528C30.7447 17.7764 30.689 17.8916 30.6003 17.9787L16.6251 31.7583C16.2622 32.0691 14.719 32.2539 13.5149 32.2539ZM13.2433 31.1845C14.1447 31.1861 15.044 31.0966 15.9274 30.9172L28.0031 19.0024L22.1717 21.2041L13.2433 31.1845Z" fill="#224086"/>
<path d="M34.2753 12.4164C34.2753 12.4164 33.0082 12.8511 33.7385 13.9856C34.0297 14.4399 34.6426 14.5073 35.336 14.2943L40.7696 12.173C40.5261 11.9317 37.8789 10.8841 37.8593 10.8907L34.2753 12.4164Z" fill="#214081"/>
<path d="M6.36434 23.7523C6.26632 23.7526 6.17007 23.7263 6.08585 23.6761C6.00164 23.626 5.93262 23.5539 5.88618 23.4676L2.45214 17.1059C2.40423 17.0183 2.38003 16.9196 2.38194 16.8198C2.38385 16.7199 2.41178 16.6222 2.46301 16.5365C2.51434 16.4506 2.58686 16.3793 2.67363 16.3294C2.76039 16.2796 2.8585 16.2528 2.95856 16.2518L5.57973 16.2344C5.69544 16.234 5.8094 16.2626 5.91117 16.3176C6.01294 16.3727 6.09926 16.4524 6.16221 16.5495C6.32956 16.806 7.90096 19.1055 11.7458 20.8182C11.8446 20.8622 11.928 20.9348 11.9853 21.0266C12.0426 21.1184 12.0712 21.2251 12.0674 21.3333C12.0641 21.4411 12.0286 21.5455 11.9655 21.6331C11.9023 21.7206 11.8145 21.7872 11.7132 21.8245L6.55342 23.7175C6.4929 23.7401 6.42891 23.7518 6.36434 23.7523ZM3.81272 17.3341L6.61863 22.5374L10.1505 21.2442C7.27066 19.7097 5.81663 17.921 5.38411 17.332L3.81272 17.3341Z" fill="#224086"/>
<path d="M29.5901 15.9539C29.79 15.9488 29.9797 15.8647 30.1178 15.7201C30.2558 15.5756 30.331 15.3822 30.3269 15.1823C30.3247 15.0833 30.3029 14.9856 30.2629 14.895C30.2229 14.8044 30.1655 14.7225 30.0938 14.6541C30.0222 14.5856 29.9377 14.532 29.8453 14.4962C29.7529 14.4604 29.6544 14.4432 29.5554 14.4455C29.4563 14.4478 29.3587 14.4695 29.268 14.5095C29.1774 14.5495 29.0955 14.607 29.0271 14.6787C28.9587 14.7503 28.905 14.8347 28.8693 14.9271C28.8335 15.0195 28.8163 15.118 28.8186 15.2171C28.8208 15.3161 28.8426 15.4138 28.8826 15.5044C28.9226 15.5951 28.98 15.6769 29.0517 15.7454C29.1233 15.8138 29.2078 15.8674 29.3002 15.9032C29.3926 15.939 29.4911 15.9562 29.5901 15.9539Z" fill="#319A6B"/>
<path d="M22.3654 18.4304C22.4646 18.4285 22.5623 18.4069 22.6531 18.367C22.7439 18.3271 22.8259 18.2697 22.8943 18.1979C22.9628 18.1262 23.0165 18.0417 23.0521 17.9492C23.0878 17.8567 23.1048 17.758 23.1022 17.6589C23.1 17.5598 23.0782 17.4622 23.0382 17.3716C22.9982 17.2809 22.9408 17.199 22.8691 17.1306C22.7975 17.0622 22.713 17.0086 22.6206 16.9728C22.5282 16.937 22.4297 16.9198 22.3307 16.9221C22.131 16.9278 21.9416 17.012 21.8037 17.1564C21.6658 17.3009 21.5904 17.4939 21.5939 17.6936C21.5961 17.7927 21.6179 17.8903 21.6579 17.981C21.6979 18.0716 21.7553 18.1535 21.827 18.2219C21.8986 18.2903 21.9831 18.344 22.0755 18.3797C22.1679 18.4155 22.2664 18.4328 22.3654 18.4304Z" fill="#319A6B"/>
<path d="M14.8869 21.2429C14.9861 21.241 15.0838 21.2194 15.1746 21.1795C15.2654 21.1396 15.3474 21.0822 15.4158 21.0104C15.4843 20.9387 15.5379 20.8542 15.5736 20.7617C15.6093 20.6692 15.6263 20.5705 15.6237 20.4714C15.6215 20.3723 15.5997 20.2747 15.5597 20.1841C15.5197 20.0934 15.4622 20.0115 15.3906 19.9431C15.3189 19.8747 15.2345 19.8211 15.1421 19.7853C15.0497 19.7495 14.9512 19.7323 14.8522 19.7346C14.6525 19.7403 14.4631 19.8245 14.3252 19.9689C14.1872 20.1134 14.1118 20.3064 14.1154 20.5062C14.1176 20.6052 14.1394 20.7028 14.1794 20.7935C14.2194 20.8841 14.2768 20.966 14.3485 21.0344C14.4201 21.1028 14.5046 21.1565 14.597 21.1922C14.6893 21.228 14.7879 21.2453 14.8869 21.2429Z" fill="#319A6B"/>
</g>
<defs>
<linearGradient id="paint0_linear_3047_3903" x1="12.9584" y1="13.5166" x2="24.6233" y2="13.5166" gradientUnits="userSpaceOnUse">
<stop offset="0.16" stop-color="#C4E8F5"/>
<stop offset="0.36" stop-color="#29ABE2"/>
<stop offset="1" stop-color="#089761"/>
</linearGradient>
<linearGradient id="paint1_linear_3047_3903" x1="2.54533" y1="21.1328" x2="41.4564" y2="21.1328" gradientUnits="userSpaceOnUse">
<stop offset="0.16" stop-color="#C4E8F5"/>
<stop offset="0.36" stop-color="#29ABE2"/>
<stop offset="1" stop-color="#089761"/>
</linearGradient>
<clipPath id="clip0_3047_3903">
<rect width="40" height="22.2495" fill="white" transform="translate(2 10)"/>
</clipPath>
</defs>
</svg>
