<svg width="30" height="30" viewBox="0 0 30 30" fill="none" xmlns="http://www.w3.org/2000/svg">
<circle cx="15" cy="15" r="15" fill="#EDF7FF"/>
<g clip-path="url(#clip0_732_46158)">
<path d="M14.1752 14.6211L11.4365 11.6891C11.3689 11.6157 11.3247 11.5196 11.3105 11.4155C11.2964 11.3113 11.3132 11.2049 11.3582 11.1124C11.4044 11.017 11.4615 10.8988 12.5148 10.8008H12.532H12.55C12.6457 10.8109 12.7396 10.8368 12.8286 10.8778L17.7959 13.1621L14.1752 14.6211ZM11.6971 11.3644C11.6984 11.3679 11.7006 11.3709 11.7033 11.3732L14.2699 14.117L16.7019 13.135L12.6728 11.283C12.6246 11.2604 12.5738 11.2454 12.5218 11.2384C12.2448 11.2614 11.9694 11.3035 11.6971 11.3644Z" fill="#00388C"/>
<path d="M6.5133 19.1845C6.18387 19.1845 5.94755 18.8047 5.87869 18.6813C5.80725 18.5499 5.76312 18.4023 5.74958 18.2493C5.73604 18.0962 5.75342 17.9418 5.80044 17.7973C5.84212 17.6584 5.91115 17.5317 6.00243 17.4266C6.09371 17.3214 6.20491 17.2406 6.32785 17.1899L6.61268 17.0753L6.87873 16.9746L7.00393 17.3895L6.74101 17.4884L6.46009 17.6021C6.39204 17.6308 6.33062 17.6762 6.28037 17.735C6.23012 17.7937 6.19233 17.8644 6.16978 17.9417C6.14259 18.0249 6.13248 18.1139 6.14021 18.2021C6.14793 18.2903 6.17328 18.3754 6.21439 18.4511C6.31063 18.6261 6.44444 18.7504 6.52739 18.7469L8.06109 18.255C8.11042 18.2454 8.16063 18.2428 8.21055 18.2472L12.476 18.7408C12.6524 18.7547 12.8296 18.7291 12.9971 18.6655L14.8649 17.9653L14.9894 18.3802L13.1215 19.0804C12.9029 19.1631 12.6717 19.1959 12.4415 19.1766L8.17612 18.683C8.16205 18.6818 8.14793 18.6818 8.13386 18.683L6.5986 19.1758C6.57047 19.1817 6.54192 19.1846 6.5133 19.1845Z" fill="#00388C"/>
<path d="M19.3382 16.7341L19.2146 16.3192L25.2007 14.0892C25.255 14.0663 25.3026 14.0271 25.3381 13.9758C25.3736 13.9245 25.3957 13.8631 25.4018 13.7986C25.4668 13.2612 25.2094 12.7483 24.7907 12.5733L22.7069 11.7305C22.4659 11.6324 22.2021 11.6299 21.9596 11.7235L9.24317 16.5371L9.11719 16.1232L21.8336 11.3095C22.1606 11.1853 22.5156 11.1887 22.8407 11.3191L24.9237 12.162C25.5145 12.4009 25.8792 13.1124 25.7892 13.8529C25.7732 13.9984 25.7212 14.136 25.6391 14.2503C25.557 14.3645 25.448 14.4509 25.3244 14.4996L19.3382 16.7341Z" fill="#00388C"/>
<path d="M23.5191 11.675L22.2092 12.1274C22.2092 12.1274 21.7217 12.4075 22.0527 12.9764C22.0527 12.9764 22.2875 13.3379 22.6466 13.2162L25.0121 12.4285C25.0313 12.422 25.0485 12.4095 25.0616 12.3925C25.0747 12.3754 25.0832 12.3546 25.086 12.3324C25.0889 12.3101 25.0861 12.2874 25.0778 12.267C25.0696 12.2465 25.0563 12.2291 25.0395 12.2167C24.594 11.8954 24.0819 11.708 23.5528 11.6723C23.5415 11.6712 23.5301 11.6721 23.5191 11.675Z" fill="#00388C"/>
<path d="M12.044 22.7977H12.0347C11.948 22.7949 11.8631 22.7702 11.7863 22.7253C11.7095 22.6805 11.6428 22.6167 11.5912 22.5389C11.5396 22.461 11.5044 22.3711 11.4884 22.2759C11.4724 22.1806 11.4759 22.0825 11.4986 21.989C11.5067 21.9542 11.5226 21.9223 11.5448 21.8963L15.6921 16.9583C15.7152 16.9307 15.7443 16.9102 15.7766 16.8988L20.1586 15.3663C20.2012 15.3515 20.2471 15.3534 20.2887 15.3718C20.3302 15.3902 20.3649 15.4239 20.3869 15.4673C20.4089 15.5108 20.417 15.5613 20.4098 15.6106C20.4025 15.6599 20.3804 15.705 20.3472 15.7383L13.6349 22.4223C13.5811 22.4901 13.5151 22.5444 13.4412 22.5815C13.3672 22.6187 13.2871 22.6377 13.2061 22.6376L12.0691 22.7933L12.044 22.7977ZM11.8727 22.1483C11.871 22.2005 11.8872 22.2513 11.9178 22.2907C11.9485 22.33 11.9914 22.3548 12.0378 22.3601L13.1701 22.2043C13.1802 22.2035 13.1904 22.2035 13.2006 22.2043C13.2281 22.2053 13.2554 22.1993 13.2805 22.1867C13.3056 22.1741 13.3277 22.1553 13.3453 22.1317C13.3515 22.1237 13.358 22.1161 13.3649 22.1089L19.4152 16.0875L15.9472 17.2997L11.8727 22.1483Z" fill="#00388C"/>
<path d="M19.8319 14.0981C20.0475 14.0981 20.2223 13.9025 20.2223 13.6613C20.2223 13.4201 20.0475 13.2246 19.8319 13.2246C19.6162 13.2246 19.4414 13.4201 19.4414 13.6613C19.4414 13.9025 19.6162 14.0981 19.8319 14.0981Z" fill="#32996A"/>
<path d="M17.8455 14.8881C18.0612 14.8881 18.236 14.6926 18.236 14.4514C18.236 14.2102 18.0612 14.0146 17.8455 14.0146C17.6299 14.0146 17.4551 14.2102 17.4551 14.4514C17.4551 14.6926 17.6299 14.8881 17.8455 14.8881Z" fill="#32996A"/>
<path d="M15.8621 15.7709C16.0778 15.7709 16.2526 15.5754 16.2526 15.3342C16.2526 15.093 16.0778 14.8975 15.8621 14.8975C15.6465 14.8975 15.4717 15.093 15.4717 15.3342C15.4717 15.5754 15.6465 15.7709 15.8621 15.7709Z" fill="#32996A"/>
<path d="M13.8758 16.5219C14.0915 16.5219 14.2663 16.3264 14.2663 16.0852C14.2663 15.844 14.0915 15.6484 13.8758 15.6484C13.6602 15.6484 13.4854 15.844 13.4854 16.0852C13.4854 16.3264 13.6602 16.5219 13.8758 16.5219Z" fill="#32996A"/>
<path d="M11.8924 17.183C12.1081 17.183 12.2829 16.9875 12.2829 16.7463C12.2829 16.5051 12.1081 16.3096 11.8924 16.3096C11.6768 16.3096 11.502 16.5051 11.502 16.7463C11.502 16.9875 11.6768 17.183 11.8924 17.183Z" fill="#32996A"/>
<path d="M7.56185 17.88C7.51259 17.8797 7.4641 17.8663 7.42032 17.8411C7.37654 17.8159 7.3387 17.7794 7.30988 17.7347L4.94282 15.4539C4.8884 15.3996 4.8472 15.3307 4.82308 15.2537C4.79895 15.1767 4.7927 15.0941 4.8049 15.0136C4.81709 14.9332 4.84734 14.8575 4.89281 14.7937C4.93828 14.7298 4.99749 14.68 5.06489 14.6487L5.60012 14.3862C5.67345 14.3511 5.75237 14.333 5.83213 14.333C5.91188 14.333 5.99081 14.3511 6.06414 14.3862L6.07431 14.3914L9.56427 16.3817L9.58618 16.4053C9.62329 16.446 9.65052 16.4966 9.66534 16.5524C9.68015 16.6081 9.68205 16.6672 9.67086 16.7239C9.65967 16.7807 9.63577 16.8334 9.60138 16.877C9.56699 16.9207 9.52326 16.9538 9.47429 16.9733L7.65262 17.8643C7.62327 17.8747 7.59265 17.88 7.56185 17.88ZM5.82782 14.773C5.80233 14.7732 5.7771 14.7789 5.75349 14.7897L5.21747 15.0522C5.21052 15.0548 5.2043 15.0593 5.19948 15.0655C5.19466 15.0717 5.19141 15.0792 5.19009 15.0872C5.18877 15.0946 5.18924 15.1022 5.19144 15.1093C5.19364 15.1163 5.1975 15.1226 5.20261 15.1275L7.58454 17.4223L9.16676 16.6521L5.90216 14.7905C5.87859 14.7795 5.85337 14.7736 5.82782 14.773Z" fill="#00388C"/>
<path d="M19.5409 17.5424C19.5584 17.6815 19.5644 17.8222 19.5589 17.9625C19.5563 18.0484 19.5254 18.1303 19.4723 18.1924C19.4192 18.2545 19.3475 18.2926 19.2709 18.2995C18.9924 18.3231 18.5416 18.3581 18.1465 18.3686C18.085 18.3697 18.0246 18.3505 17.9728 18.3135L17.54 18.0054L18.0095 17.5354L19.1614 17.251C19.2036 17.2402 19.2473 17.2393 19.2898 17.2484C19.3322 17.2575 19.3726 17.2763 19.4083 17.3037C19.4439 17.331 19.4741 17.3664 19.4969 17.4075C19.5198 17.4486 19.5347 17.4945 19.5409 17.5424Z" fill="#00388C"/>
<path d="M17.2401 19.6609C17.2492 19.7547 17.2526 19.8492 17.2503 19.9436C17.2475 20.0295 17.2165 20.1112 17.1632 20.1731C17.11 20.2351 17.0382 20.273 16.9616 20.2796C16.7174 20.3006 16.3465 20.3278 16.0171 20.3365C15.9557 20.3379 15.8953 20.319 15.8434 20.2823L15.4717 20.0197L15.8872 19.6057L16.8614 19.3659C16.9038 19.3553 16.9476 19.3546 16.9902 19.364C17.0328 19.3733 17.0732 19.3925 17.1088 19.4202C17.1444 19.4479 17.1745 19.4837 17.1971 19.5251C17.2197 19.5665 17.2344 19.6127 17.2401 19.6609Z" fill="#00388C"/>
</g>
<defs>
<clipPath id="clip0_732_46158">
<rect width="21" height="12" fill="white" transform="translate(4.79883 10.7988)"/>
</clipPath>
</defs>
</svg>
