<svg width="77" height="90" viewBox="0 0 77 90" fill="none" xmlns="http://www.w3.org/2000/svg">
<g clip-path="url(#clip0_10712_68735)">
<path d="M3.26971 13.8906L0.550784 16.5377L0.273465 19.4817C0.122301 21.0853 -0.106788 24.4338 0.0559859 28.8417L0.164949 30.2014L2.88388 27.5543L5.39493 24.8511C5.30875 22.5988 5.33286 17.936 5.39493 16.4189L3.26971 13.8906Z" fill="#E4F3FD"/>
<path d="M37.1395 82.5839C30.3553 78.7801 22.8801 75.8672 22.8801 75.8672L20.3398 78.4322C20.3398 78.4322 30.0659 86.3901 34.1158 88.7339L36.6186 89.9987L39.8587 88.3339C44.3954 85.7083 44.2594 83.2511 47.9697 79.8875L37.1397 82.5837L37.1395 82.5839Z" fill="#E4F3FD"/>
<path d="M36.7279 80.5774C48.3806 71.5894 59.8708 59.9239 64.1463 45.5514C66.9949 35.9745 67.5708 27.8456 67.3917 23.3707C63.8582 23.134 59.9881 22.0676 56.681 21.2018C53.4378 20.353 50.2984 19.1969 47.3506 17.7661C43.5173 15.9057 38.15 12.0905 36.1451 10.4715C34.1402 12.0905 21.1933 15.131 27.2108 12.2105C32.0177 9.87748 35.099 7.28339 36.5079 5.94464L38.6006 3.95703L40.6927 5.94464C42.1019 7.28339 45.1834 9.8777 49.9901 12.2105C56.0074 15.1313 62.7045 16.6819 69.8956 16.8197L72.6222 16.8722L72.8803 19.6095C73.0475 21.386 73.2862 25.0925 73.0044 29.9556C72.6577 35.9385 71.6464 41.7809 69.9983 47.321C67.8097 54.6785 64.5212 61.4038 60.2243 67.3101C57.7253 70.7449 54.849 73.9454 51.6752 76.8225C48.2252 79.95 44.337 82.7736 40.1187 85.215C40.1187 85.215 30.4194 77.0407 36.7274 80.5774H36.7279Z" fill="#E4F3FD"/>
<path d="M39.8593 88.3355L38.2264 87.391C34.1767 85.047 30.4034 82.3717 27.0111 79.439L22.881 75.8685L27.298 71.4025C27.298 71.4025 35.9507 79.889 41.7146 81.0512C52.7104 72.0917 62.7346 60.1908 67.3329 44.7334C70.3965 34.4337 70.5705 25.1425 70.3778 20.3299C66.5777 20.0754 62.8607 19.477 59.3042 18.5461C55.8163 17.6331 52.2819 16.6855 49.2696 14.8512C45.3083 12.4392 43.8684 11.0775 41.7123 9.33631C39.5563 11.0775 33.9438 13.9992 30.5129 15.3717C27.0819 16.7445 23.9021 17.6331 20.4142 18.5459C16.8575 19.4768 13.1402 20.0752 9.33971 20.3297C9.27763 21.847 9.25196 23.7871 9.33814 26.0394L9.28456 27.5531H2.88367L2.77471 26.1933C2.61193 21.7855 2.84124 18.437 2.99218 16.8334L3.2695 13.8894L6.20167 13.833C13.9356 13.6849 21.1383 12.017 27.6099 8.87593C32.7796 6.36685 36.0936 3.57684 37.6088 2.13731L39.8593 0L42.1093 2.13754C43.6248 3.57729 46.939 6.3673 52.1085 8.87638C58.5799 12.0174 65.7826 13.6853 73.5163 13.8335L76.4487 13.89L76.7262 16.8338C76.9062 18.7445 77.1629 22.7308 76.8597 27.9607C76.4868 34.3949 75.3992 40.6786 73.6268 46.6367C71.2729 54.5495 67.7363 61.7823 63.1152 68.1343C60.4278 71.8283 57.3342 75.2704 53.9208 78.3647C50.2105 81.7283 46.0289 84.7649 41.4922 87.3908L39.8593 88.3355Z" fill="#4382B4"/>
<path d="M76.7263 16.8338L76.4487 13.89L73.5163 13.8335C65.7827 13.6853 58.58 12.0176 52.1085 8.87638C46.939 6.3673 43.6248 3.57729 42.1094 2.13754L39.8594 0C40.625 2.95436 41.3217 6.1459 41.939 9.52051C43.9736 11.1756 45.4489 12.5249 49.2697 14.8514C52.282 16.6857 55.8164 17.6333 59.3043 18.5464C62.8608 19.4773 66.5778 20.0756 70.3779 20.3302C70.5706 25.1427 70.3966 34.4339 67.3329 44.7336C62.7346 60.191 52.7103 72.0919 41.7146 81.0515C41.1687 83.561 40.5516 85.9953 39.8594 88.3355L41.4923 87.3908C46.0289 84.7652 50.2104 81.7283 53.9209 78.3647C57.3343 75.2704 60.4279 71.8283 63.1153 68.1343C67.7364 61.7823 71.2732 54.5495 73.6269 46.6367C75.3993 40.6786 76.4869 34.3949 76.8598 27.9607C77.1628 22.7308 76.9062 18.7445 76.7263 16.8338Z" fill="#4382B4"/>
<path d="M76.8669 16.8338L76.5894 13.89L73.657 13.8335C65.9233 13.6853 58.7206 12.0176 52.2491 8.87638C47.0797 6.3673 43.7655 3.57729 42.25 2.13754L40 0C40.7656 2.95436 41.4623 6.1459 42.0797 9.52051C45.9338 30.5839 46.6996 58.7847 41.8553 81.0515C41.3093 83.561 40.6922 85.9955 40 88.3355L41.6329 87.3908C46.1696 84.7652 50.351 81.7283 54.0615 78.3647C57.4749 75.2704 60.5685 71.8283 63.2559 68.1343C67.877 61.7823 71.4139 54.5495 73.7675 46.6367C75.5399 40.6786 76.6275 34.3949 77.0004 27.9607C77.3034 22.7308 77.0469 18.7445 76.8669 16.8338Z" fill="url(#paint0_radial_10712_68735)"/>
<path d="M27.8504 31.7416H9.32361C5.83167 31.7416 4.93987 31.4512 4.42364 31.4512L2.67331 29.2773L0.23505 31.7393V37.1027H9.15972C11.7639 37.4102 14.5221 38.1549 16.3106 39.7497C17.2995 40.6315 17.9185 41.7349 18.1951 43.0851L2.65858 40.6231L0.220313 43.0851V48.4462H18.0194C17.7334 49.5834 17.2339 50.5344 16.3749 51.2763C14.3107 53.0581 10.1911 53.5877 4.41359 52.822C3.60642 52.7152 3.44565 49.4612 2.67331 49.2012L0.23505 51.6632L0.21875 56.5071L0.758874 57.1041L19.0767 77.0361L23.6506 72.7191L9.99168 57.856C14.6108 57.8287 17.398 57.4461 19.8253 55.3508C22.1558 53.3386 23.0719 50.6978 23.4354 48.4462H27.8502L30.2884 45.9842L27.8502 43.0851H23.5653C23.2958 40.7803 22.4735 38.7798 21.1135 37.1027H27.8502L30.2884 34.6407L27.8502 31.7416H27.8504Z" fill="#E9F5F2"/>
<path d="M30.2879 29.2794H4.38827V29.2773H2.67277V34.6407H11.5972C14.2014 34.9482 16.9596 35.6929 18.7481 37.2878C19.737 38.1695 20.356 39.2729 20.6326 40.6231H2.65781V45.9842H20.4569C20.1709 47.1214 19.6714 48.0724 18.8124 48.8144C16.7482 50.5961 12.6286 51.1257 6.85109 50.3601C6.04392 50.2532 5.2488 50.0681 4.47646 49.8082L2.67255 49.2012L2.65625 54.0451L3.19637 54.6421L21.5142 74.5742L26.0881 70.2571L12.4292 55.394C17.0483 55.3668 19.8355 54.9842 22.2628 52.8888C24.5933 50.8766 25.5094 48.2358 25.8729 45.9842H30.2877V40.6231H26.0028C25.7333 38.3183 24.911 36.3178 23.551 34.6407H30.2877V29.2796L30.2879 29.2794Z" fill="#6BBB8F"/>
</g>
<defs>
<radialGradient id="paint0_radial_10712_68735" cx="0" cy="0" r="1" gradientUnits="userSpaceOnUse" gradientTransform="translate(41.8874 42.2813) rotate(8.60159) scale(36.7844 67.9406)">
<stop offset="0.11" stop-color="white"/>
<stop offset="0.21" stop-color="white" stop-opacity="0.99"/>
<stop offset="0.3" stop-color="white" stop-opacity="0.94"/>
<stop offset="0.38" stop-color="white" stop-opacity="0.87"/>
<stop offset="0.47" stop-color="white" stop-opacity="0.77"/>
<stop offset="0.55" stop-color="white" stop-opacity="0.64"/>
<stop offset="0.63" stop-color="white" stop-opacity="0.48"/>
<stop offset="0.71" stop-color="white" stop-opacity="0.29"/>
<stop offset="0.78" stop-color="white" stop-opacity="0.08"/>
<stop offset="0.81" stop-color="white" stop-opacity="0"/>
</radialGradient>
<clipPath id="clip0_10712_68735">
<rect width="77" height="90" fill="white"/>
</clipPath>
</defs>
</svg>
