<svg width="18" height="18" viewBox="0 0 18 18" fill="none" xmlns="http://www.w3.org/2000/svg">
<g clip-path="url(#clip0_732_45784)">
<path d="M9 18C4.03714 18 0 13.9629 0 9C0 4.03714 4.03714 0 9 0C13.9629 0 18 4.03714 18 9C18 13.9629 13.9629 18 9 18ZM9 1.14286C4.66857 1.14286 1.14286 4.66857 1.14286 9C1.14286 13.3314 4.66857 16.8571 9 16.8571C13.3314 16.8571 16.8571 13.3314 16.8571 9C16.8571 4.66857 13.3314 1.14286 9 1.14286Z" fill="#545454"/>
<path d="M11.5233 10.7714H8.08901C7.77472 10.7714 7.51758 10.5143 7.51758 10.2V7.19715C7.51758 6.88286 7.77472 6.62572 8.08901 6.62572C8.40329 6.62572 8.66044 6.88286 8.66044 7.19715V9.62857H11.5233C11.8376 9.62857 12.0947 9.88572 12.0947 10.2C12.0947 10.5143 11.8376 10.7714 11.5233 10.7714Z" fill="#545454"/>
</g>
<defs>
<clipPath id="clip0_732_45784">
<rect width="18" height="18" fill="white"/>
</clipPath>
</defs>
</svg>
