<svg width="12" height="12" viewBox="0 0 12 12" fill="none" xmlns="http://www.w3.org/2000/svg">
<g id="Frame" clip-path="url(#clip0_20633_66785)">
<path id="Vector" d="M9.44426 0.864926V0.204313C9.44426 0.0885358 9.35774 0 9.24459 0H8.97837C8.86522 0 8.7787 0.0885358 8.7787 0.204313V0.864926C8.7787 0.980704 8.69218 1.06924 8.57903 1.06924H3.33444C3.2213 1.06924 3.13478 0.980704 3.13478 0.864926V0.204313C3.13478 0.0885358 3.04825 0 2.93511 0H2.66888C2.55574 0 2.46922 0.0885358 2.46922 0.204313V0.864926C2.46922 0.980704 2.3827 1.06924 2.26955 1.06924H0.199667C0.0865225 1.06924 0 1.15778 0 1.27355V11.7957C0 11.9115 0.0865225 12 0.199667 12H11.8003C11.9135 12 12 11.9115 12 11.7957V1.27355C12 1.15778 11.9135 1.06924 11.8003 1.06924H9.64393C9.53078 1.06924 9.44426 0.980704 9.44426 0.864926ZM2.46922 1.9546V2.45176C2.46922 2.56754 2.55574 2.65607 2.66888 2.65607H2.93511C3.04825 2.65607 3.13478 2.56754 3.13478 2.45176V1.9546C3.13478 1.83882 3.2213 1.75028 3.33444 1.75028H8.57903C8.69218 1.75028 8.7787 1.83882 8.7787 1.9546V2.45176C8.7787 2.56754 8.86522 2.65607 8.97837 2.65607H9.24459C9.35774 2.65607 9.44426 2.56754 9.44426 2.45176V1.9546C9.44426 1.83882 9.53078 1.75028 9.64393 1.75028H11.1348C11.2479 1.75028 11.3344 1.83882 11.3344 1.9546V4.58343C11.3344 4.69921 11.2479 4.78774 11.1348 4.78774H0.865225C0.75208 4.78774 0.665557 4.69921 0.665557 4.58343V1.9546C0.665557 1.83882 0.75208 1.75028 0.865225 1.75028H2.26955C2.3827 1.75028 2.46922 1.84563 2.46922 1.9546ZM0.665557 11.1146V5.67991C0.665557 5.56413 0.75208 5.4756 0.865225 5.4756H11.1348C11.2479 5.4756 11.3344 5.56413 11.3344 5.67991V11.1215C11.3344 11.2372 11.2479 11.3258 11.1348 11.3258H0.865225C0.75208 11.319 0.665557 11.2304 0.665557 11.1146Z" fill="#858585"/>
</g>
<defs>
<clipPath id="clip0_20633_66785">
<rect width="12" height="12" fill="white"/>
</clipPath>
</defs>
</svg>
