<svg width="12" height="10" viewBox="0 0 12 10" fill="none" xmlns="http://www.w3.org/2000/svg">
<rect width="12" height="10" fill="#F5F5F5"/>
<g clip-path="url(#clip0_0_1)">
<rect width="1440" height="2843" transform="translate(-625 -1617)" fill="white"/>
<rect x="-625" y="-1377" width="1440" height="2297" fill="#E5EDF4" fill-opacity="0.4"/>
<path d="M-180 -81C-180 -89.8366 -172.837 -97 -164 -97H639C647.837 -97 655 -89.8366 655 -81V22C655 30.8366 647.837 38 639 38H-164C-172.837 38 -180 30.8366 -180 22V-81Z" fill="#0A1B29"/>
<g filter="url(#filter0_d_0_1)">
<rect x="-126" y="-58" width="148" height="84" rx="8" fill="white"/>
<rect x="-125.5" y="-57.5" width="147" height="83" rx="7.5" stroke="#29ABE2"/>
</g>
<path d="M-125 -11H21V17C21 21.4183 17.4183 25 13 25H-117C-121.418 25 -125 21.4183 -125 17V-11Z" fill="#E4F3FD"/>
<path d="M10.8962 3.92313L10.9064 3.91285L12 5.02968L6.97879 10L5.88588 8.88391L8.99309 5.80913H0V4.24348H9.01188L5.89364 1.10824L6.99432 0L10.8962 3.92313Z" fill="#32996A"/>
</g>
<defs>
<filter id="filter0_d_0_1" x="-134" y="-66" width="164" height="100" filterUnits="userSpaceOnUse" color-interpolation-filters="sRGB">
<feFlood flood-opacity="0" result="BackgroundImageFix"/>
<feColorMatrix in="SourceAlpha" type="matrix" values="0 0 0 0 0 0 0 0 0 0 0 0 0 0 0 0 0 0 127 0" result="hardAlpha"/>
<feOffset/>
<feGaussianBlur stdDeviation="4"/>
<feComposite in2="hardAlpha" operator="out"/>
<feColorMatrix type="matrix" values="0 0 0 0 0 0 0 0 0 0 0 0 0 0 0 0 0 0 0.15 0"/>
<feBlend mode="normal" in2="BackgroundImageFix" result="effect1_dropShadow_0_1"/>
<feBlend mode="normal" in="SourceGraphic" in2="effect1_dropShadow_0_1" result="shape"/>
</filter>
<clipPath id="clip0_0_1">
<rect width="1440" height="2843" fill="white" transform="translate(-625 -1617)"/>
</clipPath>
</defs>
</svg>
