<svg width="12" height="13" viewBox="0 0 12 13" fill="none" xmlns="http://www.w3.org/2000/svg">
<path d="M10.8409 12.0259H1.11908C0.501851 12.0259 0 11.5244 0 10.9076V1.86637C0 1.24956 0.501851 0.748047 1.11908 0.748047H10.8409C11.4581 0.748047 11.96 1.24956 11.96 1.86637V10.9076C11.96 11.5244 11.4581 12.0259 10.8409 12.0259ZM1.11908 1.68545C1.01918 1.68545 0.938039 1.76653 0.938039 1.86637V10.9076C0.938039 11.0074 1.01918 11.0885 1.11908 11.0885H10.8409C10.9408 11.0885 11.022 11.0074 11.022 10.9076V1.86637C11.022 1.76653 10.9408 1.68545 10.8409 1.68545H1.11908Z" fill="#858585"/>
<path d="M3.16108 2.47575C2.89751 2.47575 2.68359 2.26187 2.68359 1.99834V0.452017C2.68359 0.188488 2.89751 -0.0253906 3.16108 -0.0253906C3.42466 -0.0253906 3.63857 0.188488 3.63857 0.452017V1.99834C3.63857 2.26187 3.42466 2.47575 3.16108 2.47575Z" fill="#858585"/>
<path d="M8.59342 2.47575C8.3424 2.47575 8.13867 2.26187 8.13867 1.99834V0.452017C8.13867 0.188488 8.3424 -0.0253906 8.59342 -0.0253906C8.84445 -0.0253906 9.04818 0.188488 9.04818 0.452017V1.99834C9.04818 2.26187 8.84445 2.47575 8.59342 2.47575Z" fill="#858585"/>
<path d="M11.1257 4.38607H0.833256C0.57383 4.38607 0.363281 4.18234 0.363281 3.93132C0.363281 3.68029 0.57383 3.47656 0.833256 3.47656H11.1257C11.3851 3.47656 11.5957 3.68029 11.5957 3.93132C11.5957 4.18234 11.3851 4.38607 11.1257 4.38607Z" fill="#858585"/>
</svg>
