<svg width="34" height="34" viewBox="0 0 34 34" fill="none" xmlns="http://www.w3.org/2000/svg">
<rect width="34" height="34" fill="#E5E5E5"/>
<g clip-path="url(#clip0_0_1)">
<rect width="1440" height="6487" transform="translate(-555 -630)" fill="white"/>
<g opacity="0.55">
<g filter="url(#filter0_b_0_1)">
<rect x="-555" y="-630" width="1440" height="647" fill="white" fill-opacity="0.69"/>
</g>
</g>
<rect x="-21" y="-19" width="372" height="72" fill="white" stroke="#EAF0F6" stroke-width="2"/>
<circle cx="17" cy="17" r="17" fill="#E2EAF9"/>
<g clip-path="url(#clip1_0_1)">
<path d="M18.8305 15.709C18.0461 15.709 17.2864 15.4285 16.6908 14.919C16.4244 14.6913 16.3934 14.291 16.6211 14.0246C16.8487 13.7582 17.2497 13.7272 17.5154 13.9548C17.8812 14.2678 18.3478 14.4404 18.8305 14.4404C19.9462 14.4404 20.8539 13.5327 20.8539 12.417C20.8539 11.3014 19.9462 10.3936 18.8305 10.3936C18.3485 10.3936 17.8812 10.5663 17.5154 10.8792C17.249 11.1068 16.8487 11.0758 16.6211 10.8094C16.3934 10.543 16.4244 10.1427 16.6908 9.91505C17.2864 9.4055 18.0461 9.125 18.8305 9.125C20.646 9.125 22.1225 10.6015 22.1225 12.417C22.1225 14.2325 20.646 15.709 18.8305 15.709Z" fill="#1E54B0"/>
<path d="M24.9164 24.52H20.7977C20.4474 24.52 20.1634 24.236 20.1634 23.8857C20.1634 23.5355 20.4474 23.2514 20.7977 23.2514H24.7135C24.3956 20.2547 21.8344 17.9353 18.7969 17.9353C18.2429 17.9353 17.6946 18.0114 17.1674 18.1608C16.8305 18.2567 16.4796 18.0608 16.3837 17.7239C16.2879 17.387 16.4838 17.036 16.8207 16.9402C17.4606 16.7583 18.1259 16.666 18.7969 16.666C20.6335 16.666 22.3835 17.356 23.7247 18.6091C25.0588 19.8558 25.8658 21.5431 25.9969 23.3586C26.0187 23.6574 25.9137 23.9541 25.7093 24.1733C25.5049 24.3925 25.216 24.5186 24.9164 24.5186V24.52Z" fill="#1E54B0"/>
<path d="M15.378 15.709C13.5624 15.709 12.0859 14.2325 12.0859 12.417C12.0859 10.6015 13.5624 9.125 15.378 9.125C17.1935 9.125 18.67 10.6015 18.67 12.417C18.67 14.2325 17.1935 15.709 15.378 15.709ZM15.378 10.3936C14.2623 10.3936 13.3545 11.3014 13.3545 12.417C13.3545 13.5327 14.2623 14.4404 15.378 14.4404C16.4936 14.4404 17.4014 13.5327 17.4014 12.417C17.4014 11.3014 16.4936 10.3936 15.378 10.3936Z" fill="#1E54B0"/>
<path d="M21.323 24.5206H9.08311C8.78358 24.5206 8.49462 24.3944 8.29024 24.1753C8.08585 23.9561 7.98154 23.6587 8.00269 23.3605C8.13378 21.545 8.94075 19.8578 10.2749 18.611C11.6161 17.3579 13.366 16.668 15.2027 16.668C15.8694 16.668 16.5291 16.7589 17.1655 16.9379C20.0804 17.7597 22.1849 20.3406 22.4027 23.3605C22.4245 23.6594 22.3195 23.9561 22.1151 24.1753C21.9108 24.3944 21.6218 24.5206 21.3223 24.5206H21.323ZM9.28609 23.252H21.12C20.8649 20.8501 19.1593 18.8175 16.8216 18.1586C16.2979 18.0106 15.7531 17.9359 15.2034 17.9359C12.1658 17.9359 9.60465 20.2553 9.28679 23.252H9.28609Z" fill="#1E54B0"/>
</g>
</g>
<defs>
<filter id="filter0_b_0_1" x="-749" y="-824" width="1828" height="1035" filterUnits="userSpaceOnUse" color-interpolation-filters="sRGB">
<feFlood flood-opacity="0" result="BackgroundImageFix"/>
<feGaussianBlur in="BackgroundImageFix" stdDeviation="97"/>
<feComposite in2="SourceAlpha" operator="in" result="effect1_backgroundBlur_0_1"/>
<feBlend mode="normal" in="SourceGraphic" in2="effect1_backgroundBlur_0_1" result="shape"/>
</filter>
<clipPath id="clip0_0_1">
<rect width="1440" height="6487" fill="white" transform="translate(-555 -630)"/>
</clipPath>
<clipPath id="clip1_0_1">
<rect width="18" height="15.3958" fill="white" transform="translate(8 9.125)"/>
</clipPath>
</defs>
</svg>
