<svg width="27" height="21" viewBox="0 0 27 21" fill="none" xmlns="http://www.w3.org/2000/svg">
<path d="M25.3768 2.24817H1.62317C1.45789 2.24817 1.29939 2.18244 1.18252 2.0654C1.06566 1.94836 1 1.78961 1 1.62409C1 1.45857 1.06566 1.29981 1.18252 1.18277C1.29939 1.06573 1.45789 1 1.62317 1H25.3768C25.5421 1 25.7006 1.06573 25.8175 1.18277C25.9343 1.29981 26 1.45857 26 1.62409C26 1.78961 25.9343 1.94836 25.8175 2.0654C25.7006 2.18244 25.5421 2.24817 25.3768 2.24817Z" fill="#32996A" stroke="#32996A" stroke-width="2"/>
<path d="M25.3768 10.9855H1.62317C1.45789 10.9855 1.29939 10.9197 1.18252 10.8027C1.06566 10.6857 1 10.5269 1 10.3614C1 10.1959 1.06566 10.0371 1.18252 9.92007C1.29939 9.80304 1.45789 9.7373 1.62317 9.7373H25.3768C25.5421 9.7373 25.7006 9.80304 25.8175 9.92007C25.9343 10.0371 26 10.1959 26 10.3614C26 10.5269 25.9343 10.6857 25.8175 10.8027C25.7006 10.9197 25.5421 10.9855 25.3768 10.9855Z" fill="#32996A" stroke="#32996A" stroke-width="2"/>
<path d="M15.043 20.0001H1.35899C1.26378 20.0001 1.17247 19.9344 1.10515 19.8174C1.03782 19.7003 1 19.5416 1 19.376C1 19.2105 1.03782 19.0518 1.10515 18.9347C1.17247 18.8177 1.26378 18.752 1.35899 18.752H15.043C15.1383 18.752 15.2296 18.8177 15.2969 18.9347C15.3642 19.0518 15.402 19.2105 15.402 19.376C15.402 19.5416 15.3642 19.7003 15.2969 19.8174C15.2296 19.9344 15.1383 20.0001 15.043 20.0001Z" fill="#32996A" stroke="#32996A" stroke-width="2"/>
</svg>
