<svg width="45" height="44" viewBox="0 0 45 44" fill="none" xmlns="http://www.w3.org/2000/svg">
<g clip-path="url(#clip0_3047_3990)">
<path opacity="0.17" d="M38.8428 38.1631L37.5628 37.6848C37.1855 34.5593 35.382 21.6831 30.7406 15.7602L29.8623 15.9708L30.0387 16.4718C30.0387 16.4718 33.8711 25.471 34.6387 36.5936L28.7925 34.4131C28.7925 34.4131 26.7937 34.0924 24.1963 33.8932C24.1925 33.6863 24.0274 33.5193 23.8209 33.5193H22.5897V30.7448L21.413 30.6309C21.55 30.5455 21.6776 30.4506 21.7958 30.3406L21.2778 29.8889C22.845 30.9175 24.2225 31.3407 24.6336 30.834C25.0127 30.3671 24.5285 29.312 23.423 28.0823L23.3911 28.0557L24.3952 26.8165C24.8907 26.2054 24.7649 25.2717 24.1137 24.7327L23.1284 23.9148C22.4771 23.3739 21.5481 23.4328 21.0526 24.0439L20.0392 25.2926C18.6954 24.5031 17.5693 24.2222 17.2033 24.6739C16.8449 25.1142 17.3122 26.1447 18.2994 27.2966L17.9296 26.974H14.863C14.3506 26.974 13.9358 27.3934 13.9358 27.9115V28.513C13.9358 29.0729 14.1216 29.5872 14.4294 30.0028C14.1273 30.2798 13.9358 30.6803 13.9358 31.1262V34.7282L13.9189 34.7338V33.5193H12.6878C12.4813 33.5193 12.3124 33.6901 12.3124 33.8988V35.3658C9.08244 36.7189 6.81152 38.1593 6.81152 38.1593L14.6415 38.2902C14.8724 38.4364 15.1445 38.5217 15.4354 38.5217H21.0845C21.2872 38.5217 21.4805 38.48 21.657 38.406L37.8612 38.6755L38.839 38.1593L38.8428 38.1631Z" fill="url(#paint0_linear_3047_3990)"/>
<path d="M34.2772 36.7284C30.9515 35.4132 27.5489 34.6238 24.165 34.3828L24.2307 33.4358C27.7103 33.6844 31.2068 34.4947 34.6188 35.844L34.2772 36.7284Z" fill="#233F85"/>
<path d="M6.2492 38.981C5.90387 38.981 5.62423 38.9051 5.52476 38.5977C5.50412 38.5332 5.41778 38.1954 5.80253 37.9619C7.82196 36.7379 9.9296 35.7435 12.0691 35.0071L12.3713 35.9048C10.7591 36.4608 9.16387 37.1668 7.61176 38.0113H37.1563L37.5729 37.1649C38.0703 37.4154 38.5563 37.6754 39.0143 37.9354C39.3014 38.0986 39.3446 38.3662 39.2939 38.5464C39.1794 38.9488 38.7759 39 37.9145 38.9601H6.61893C6.49131 38.9715 6.36744 38.981 6.25108 38.981H6.2492Z" fill="#233F85"/>
<path d="M39.0308 38.9639H5.9692C5.7102 38.9639 5.5 38.7514 5.5 38.4895C5.5 38.2276 5.7102 38.0151 5.9692 38.0151H39.0308C39.2898 38.0151 39.5 38.2276 39.5 38.4895C39.5 38.7514 39.2898 38.9639 39.0308 38.9639Z" fill="#233F85"/>
<path d="M37.3644 38.9469C37.1054 38.9469 36.8952 38.7362 36.8952 38.4743C36.8633 28.1373 32.466 19.3697 30.576 16.0809C30.4465 15.8551 30.5216 15.5647 30.7468 15.4319C30.9701 15.3009 31.2573 15.3769 31.3887 15.6046C33.3161 18.9598 37.8036 27.9039 37.8355 38.4705C37.8355 38.7324 37.6271 38.945 37.3681 38.9469H37.3644Z" fill="#233F85"/>
<path d="M34.4305 38.8539C34.4305 38.8539 34.4155 38.8539 34.4098 38.8539C34.1508 38.8425 33.95 38.6205 33.9631 38.3586C33.9688 38.239 34.438 26.2263 29.4495 16.6958C29.3275 16.4643 29.4157 16.1777 29.6446 16.0544C29.8736 15.931 30.157 16.0202 30.279 16.2518C35.3914 26.0156 34.9072 38.2789 34.9015 38.4003C34.8903 38.6546 34.682 38.8539 34.4323 38.8539H34.4305Z" fill="#233F85"/>
<path d="M21.0885 39H15.4394C14.3527 39 13.4688 38.1062 13.4688 37.0074V31.1281C13.4688 30.5379 13.724 29.9819 14.1707 29.6024L14.775 30.3292C14.5404 30.5285 14.4071 30.8188 14.4071 31.1281V37.0074C14.4071 37.5824 14.8707 38.0511 15.4394 38.0511H21.0885C21.6572 38.0511 22.1208 37.5824 22.1208 37.0074V30.7486H23.0592V37.0074C23.0592 38.1062 22.1752 39 21.0885 39Z" fill="#233F85"/>
<path d="M20.1332 31.4754H16.3947C14.7806 31.4754 13.4688 30.1489 13.4688 28.5169V27.9153C13.4688 27.1372 14.0956 26.5034 14.8651 26.5034H17.9318V27.4522H14.8651C14.6117 27.4522 14.4071 27.6591 14.4071 27.9153V28.5169C14.4071 29.6251 15.2986 30.5266 16.3947 30.5266H20.1332C20.6325 30.5266 21.1111 30.3387 21.4789 29.9971L22.1133 30.6955C21.5727 31.1984 20.8689 31.4754 20.1332 31.4754Z" fill="#233F85"/>
<path d="M22.5898 27.9172V28.5169" stroke="#233F85" stroke-width="5" stroke-miterlimit="10"/>
<path d="M18.4028 32.3465C18.1438 32.3465 17.9336 32.1339 17.9336 31.8721V30.3463C17.9336 30.0844 18.1438 29.8718 18.4028 29.8718C18.6618 29.8718 18.872 30.0844 18.872 30.3463V31.8721C18.872 32.1339 18.6618 32.3465 18.4028 32.3465Z" fill="#233F85"/>
<path d="M22.8305 37.6279H22.1211V33.0486H23.8215C24.2869 33.0486 24.666 33.432 24.666 33.9026V35.77C24.666 36.7929 23.8421 37.626 22.8305 37.626V37.6279ZM23.0595 33.9975V36.6487C23.4442 36.5462 23.7276 36.1913 23.7276 35.7719V33.9994H23.0595V33.9975Z" fill="#233F85"/>
<path d="M14.3906 37.628H13.6812C12.6696 37.628 11.8457 36.7948 11.8457 35.772V33.9046C11.8457 33.4339 12.2248 33.0506 12.6903 33.0506H14.3906V37.6299V37.628ZM12.7841 33.9976V35.7701C12.7841 36.1895 13.0675 36.5443 13.4522 36.6468V33.9957H12.7841V33.9976Z" fill="#233F85"/>
<path d="M24.0575 31.5286C23.716 31.5286 23.273 31.4394 22.7006 31.2041C21.7772 30.8245 20.7037 30.147 19.6752 29.2949C17.7121 27.6667 15.9873 25.433 16.8431 24.3798C17.5619 23.4935 19.3036 24.319 20.2758 24.8903C20.4991 25.0212 20.5761 25.3116 20.4466 25.5393C20.3171 25.7651 20.0299 25.8429 19.8047 25.712C18.3464 24.8561 17.6389 24.896 17.5676 24.9833C17.4005 25.1882 18.0706 26.7406 20.2702 28.5643C21.2273 29.3576 22.2145 29.9838 23.0534 30.3273C23.9168 30.6822 24.2433 30.5778 24.2715 30.5436C24.3634 30.4317 24.2508 29.7162 23.0778 28.4106C22.9033 28.217 22.9183 27.9172 23.1098 27.7407C23.3012 27.5642 23.5977 27.5794 23.7723 27.7729C25.1142 29.2665 25.5496 30.4639 24.9978 31.1452C24.8326 31.3483 24.5493 31.5324 24.0594 31.5324L24.0575 31.5286Z" fill="#329E73"/>
<path d="M22.9692 28.9021C22.8547 28.9021 22.7383 28.8755 22.6276 28.8205C22.2973 28.6554 21.7342 28.3195 20.9291 27.6515C20.1878 27.0366 19.7036 26.4787 19.4821 26.2035C19.2569 25.9226 19.255 25.5222 19.4746 25.2489L20.6908 23.7497C21.3495 22.9375 22.5769 22.8502 23.4271 23.5542L24.4124 24.3722C24.8197 24.71 25.0806 25.1768 25.15 25.6911C25.2213 26.2168 25.0825 26.7254 24.7578 27.1258L23.5341 28.6326C23.3915 28.8091 23.1831 28.9021 22.9673 28.9021H22.9692ZM20.306 25.7196C20.5331 25.9909 20.9385 26.4312 21.524 26.917C22.1809 27.4617 22.6464 27.754 22.9148 27.902L24.0352 26.5223C24.191 26.3306 24.2585 26.0801 24.2229 25.8183C24.1853 25.5431 24.0427 25.2907 23.8194 25.1047L22.8341 24.2868C22.3836 23.9148 21.7493 23.9414 21.4171 24.3494L20.306 25.7177V25.7196Z" fill="#329E73"/>
<path opacity="0.17" d="M29.2624 15.1643C29.2624 15.1643 31.7867 18.7909 28.0875 22.0892C28.0875 22.0892 26.4265 21.3244 26.7963 19.884C26.7963 19.884 25.6796 18.0185 26.7268 16.5098C26.7268 16.5098 27.3274 15.2763 26.481 14.7639C26.481 14.7639 25.0246 17.5517 23.829 17.379C23.829 17.379 23.1816 20.2882 20.4189 19.9144C20.4189 19.9144 17.8608 13.6974 25.2085 13.1793C25.2085 13.1793 22.9263 13.1299 22.4984 11.9154C22.4984 11.9154 19.9347 12.5435 19.4505 10.7008C19.4505 10.7008 18.6209 10.4864 17.2246 8.81636C17.2246 8.81636 22.9751 4.11754 26.8075 10.7634C26.8075 10.7634 26.8413 4.0644 35.0279 5.74581C35.0279 5.74581 34.5155 8.48235 32.436 8.30966C32.436 8.30966 31.8955 10.4921 30.1857 10.1201C30.1857 10.1201 30.0994 11.5624 28.8194 11.7066C28.8194 11.7066 35.9757 9.81078 36.3454 15.3977C36.3454 15.3977 33.335 15.9044 32.0813 14.7525C32.0813 14.7525 31.6159 16.9197 29.2624 15.1643Z" fill="url(#paint1_linear_3047_3990)"/>
<path d="M28.0868 22.5636C28.0211 22.5636 27.9555 22.5503 27.8916 22.5219C27.2254 22.2144 26.0787 21.2978 26.3001 19.958C26.028 19.421 25.3298 17.7396 26.3151 16.2745C26.347 16.1986 26.439 15.9709 26.4596 15.7336C25.951 16.5364 25.099 17.6485 24.1868 17.8325C23.7965 19.0091 22.6347 20.6924 20.3544 20.3812C20.1893 20.3584 20.0485 20.2484 19.9828 20.0928C19.9359 19.9789 18.8455 17.2651 20.163 15.1093C20.7411 14.1642 21.6776 13.4886 22.9594 13.092C22.676 12.9288 22.4208 12.7162 22.2387 12.4429C21.1915 12.5986 19.5906 12.4524 19.067 11.0519C18.6841 10.8659 17.9127 10.3744 16.8617 9.1181C16.781 9.02131 16.7416 8.89416 16.7529 8.76701C16.7641 8.63987 16.8261 8.5222 16.9255 8.4425C17.0344 8.35331 19.6337 6.26199 22.6197 6.81803C24.1155 7.0951 25.4237 7.98325 26.5178 9.46159C26.7468 8.5241 27.261 7.264 28.419 6.31323C29.9768 5.03605 32.2308 4.68686 35.1211 5.28086C35.3725 5.3321 35.5358 5.5788 35.4889 5.835C35.2975 6.85409 34.4923 8.68162 32.7788 8.78789C32.4767 9.59823 31.7691 10.6382 30.5736 10.6382H30.5698C30.5398 10.7445 30.5023 10.8526 30.4553 10.9627C31.8235 10.845 33.7135 10.9229 35.091 11.9249C36.1345 12.684 36.7145 13.8416 36.8158 15.3674C36.8327 15.6103 36.6619 15.8266 36.4254 15.8665C36.3072 15.8855 33.8279 16.2897 32.2908 15.4698C32.1238 15.7545 31.8554 16.0638 31.4388 16.2214C31.0878 16.3561 30.6974 16.3599 30.2714 16.2346C30.75 17.7073 30.9564 20.1668 28.4003 22.446C28.312 22.5238 28.2013 22.5636 28.0906 22.5636H28.0868ZM26.4784 14.2895C26.5629 14.2895 26.6454 14.3122 26.7186 14.3559C27.6833 14.9385 27.4206 16.1568 27.1447 16.7186C27.1334 16.7413 27.1222 16.7622 27.1071 16.7812C26.2532 18.0128 27.186 19.6221 27.1953 19.6392C27.2592 19.7474 27.2798 19.8802 27.2479 20.0036C27.0565 20.7475 27.6514 21.2656 28.0174 21.5066C30.9959 18.6049 28.9652 15.5666 28.8751 15.4357C28.7437 15.2459 28.7681 14.9859 28.9333 14.8246C29.0984 14.6633 29.3537 14.6443 29.5376 14.7829C30.1926 15.2706 30.7462 15.4661 31.0991 15.3351C31.4932 15.189 31.6208 14.6538 31.6208 14.6481C31.6584 14.4849 31.7804 14.3521 31.938 14.3008C32.0957 14.2496 32.2702 14.2876 32.3941 14.4014C33.1504 15.096 34.8564 15.0865 35.8267 14.9878C35.6766 13.9782 35.243 13.2077 34.5374 12.6934C32.9046 11.5055 30.2358 11.8964 29.2842 12.0862C29.1566 12.1279 29.0177 12.1602 28.8676 12.1773C28.6236 12.2038 28.3984 12.0368 28.3552 11.792C28.3102 11.5472 28.4603 11.31 28.6968 11.2474C28.7231 11.2398 28.8413 11.2094 29.029 11.1696C29.6558 10.9229 29.7103 10.1277 29.714 10.0897C29.7215 9.95121 29.7891 9.82406 29.8979 9.74056C30.0068 9.65706 30.1457 9.62479 30.2808 9.65516C31.5214 9.92654 31.9587 8.26221 31.9774 8.192C32.0337 7.96806 32.2402 7.81624 32.471 7.83522C33.6572 7.93011 34.2146 6.78767 34.4379 6.11776C32.0825 5.71544 30.2602 6.02857 29.0177 7.04386C27.3136 8.43681 27.2723 10.7426 27.2723 10.7653C27.2704 10.9779 27.1278 11.1658 26.9232 11.2208C26.7186 11.2758 26.5047 11.1866 26.3977 11.0007C25.3223 9.13518 23.9954 8.04208 22.4546 7.75362C20.5215 7.39115 18.701 8.38367 17.9165 8.89606C18.9543 10.0385 19.5643 10.2378 19.5718 10.2397C19.737 10.2814 19.8552 10.4086 19.8984 10.5737C20.2587 11.9438 22.2969 11.4713 22.3832 11.4485C22.616 11.3916 22.8543 11.5225 22.935 11.7503C23.194 12.4866 24.7048 12.6878 25.2135 12.6991C25.4631 12.7048 25.6658 12.9098 25.6714 13.1622C25.677 13.4146 25.4856 13.629 25.236 13.6461C23.1021 13.796 21.6644 14.4546 20.9606 15.6008C20.1048 16.9975 20.544 18.7966 20.7561 19.4627C22.813 19.5557 23.3442 17.3638 23.3667 17.267C23.4211 17.026 23.6501 16.8647 23.8903 16.9026C24.459 16.9805 25.5156 15.5818 26.0618 14.5362C26.1218 14.4204 26.2269 14.3369 26.3508 14.3008C26.3921 14.2895 26.4352 14.2838 26.4765 14.2838L26.4784 14.2895Z" fill="#233F85"/>
</g>
<defs>
<linearGradient id="paint0_linear_3047_3990" x1="6.8134" y1="27.2226" x2="38.8428" y2="27.2226" gradientUnits="userSpaceOnUse">
<stop offset="0.16" stop-color="#C2E7F4"/>
<stop offset="0.36" stop-color="#28AAE1"/>
<stop offset="1" stop-color="#039661"/>
</linearGradient>
<linearGradient id="paint1_linear_3047_3990" x1="17.2246" y1="13.7828" x2="36.3454" y2="13.7828" gradientUnits="userSpaceOnUse">
<stop offset="0.16" stop-color="#C2E7F4"/>
<stop offset="0.36" stop-color="#28AAE1"/>
<stop offset="1" stop-color="#039661"/>
</linearGradient>
<clipPath id="clip0_3047_3990">
<rect width="34" height="34" fill="white" transform="translate(5.5 5)"/>
</clipPath>
</defs>
</svg>
