<svg width="45" height="44" viewBox="0 0 45 44" fill="none" xmlns="http://www.w3.org/2000/svg">
<g clip-path="url(#clip0_3047_4010)">
<path opacity="0.17" d="M14.6277 13.1016H30.9882C31.2144 13.1016 31.4384 13.146 31.6474 13.2322C31.8564 13.3184 32.0463 13.4448 32.2062 13.6042C32.3661 13.7636 32.493 13.9527 32.5796 14.1609C32.6661 14.3692 32.7107 14.5923 32.7107 14.8177V37.5609H12.9053V14.8177C12.9053 14.3625 13.0867 13.926 13.4098 13.6042C13.7328 13.2824 14.1709 13.1016 14.6277 13.1016Z" fill="url(#paint0_linear_3047_4010)"/>
<path d="M27.8312 37.9997H17.389C17.2721 37.9997 17.16 37.9534 17.0773 37.871C16.9947 37.7887 16.9482 37.677 16.9482 37.5605V28.5251C16.9482 28.4086 16.9947 28.2969 17.0773 28.2146C17.16 28.1322 17.2721 28.0859 17.389 28.0859H27.8312C27.9481 28.0859 28.0602 28.1322 28.1428 28.2146C28.2255 28.2969 28.2719 28.4086 28.2719 28.5251V37.5605C28.2719 37.6182 28.2605 37.6753 28.2384 37.7286C28.2162 37.7819 28.1838 37.8303 28.1428 37.871C28.1019 37.9118 28.0533 37.9442 27.9998 37.9662C27.9464 37.9883 27.889 37.9997 27.8312 37.9997ZM17.8297 37.1214H27.3904V28.9642H17.8297V37.1214Z" fill="#224086"/>
<path d="M22.7249 38.0012C22.608 38.0012 22.4959 37.955 22.4133 37.8726C22.3306 37.7903 22.2842 37.6786 22.2842 37.5621V29.0641C22.2842 28.9477 22.3306 28.836 22.4133 28.7536C22.4959 28.6713 22.608 28.625 22.7249 28.625C22.8418 28.625 22.9539 28.6713 23.0366 28.7536C23.1192 28.836 23.1657 28.9477 23.1657 29.0641V37.5621C23.1657 37.6786 23.1192 37.7903 23.0366 37.8726C22.9539 37.955 22.8418 38.0012 22.7249 38.0012Z" fill="#224086"/>
<path d="M19.7536 16.3438H17.5904C17.4785 16.3438 17.3877 16.4342 17.3877 16.5457V18.4076C17.3877 18.5192 17.4785 18.6096 17.5904 18.6096H19.7536C19.8656 18.6096 19.9564 18.5192 19.9564 18.4076V16.5457C19.9564 16.4342 19.8656 16.3438 19.7536 16.3438Z" fill="#224086"/>
<path d="M19.7536 22.3594H17.5904C17.4785 22.3594 17.3877 22.4498 17.3877 22.5614V24.4233C17.3877 24.5348 17.4785 24.6253 17.5904 24.6253H19.7536C19.8656 24.6253 19.9564 24.5348 19.9564 24.4233V22.5614C19.9564 22.4498 19.8656 22.3594 19.7536 22.3594Z" fill="#224086"/>
<path d="M27.6277 16.3438H25.4645C25.3525 16.3438 25.2617 16.4342 25.2617 16.5457V18.4076C25.2617 18.5192 25.3525 18.6096 25.4645 18.6096H27.6277C27.7396 18.6096 27.8304 18.5192 27.8304 18.4076V16.5457C27.8304 16.4342 27.7396 16.3438 27.6277 16.3438Z" fill="#224086"/>
<path d="M27.6277 22.3594H25.4645C25.3525 22.3594 25.2617 22.4498 25.2617 22.5614V24.4233C25.2617 24.5348 25.3525 24.6253 25.4645 24.6253H27.6277C27.7396 24.6253 27.8304 24.5348 27.8304 24.4233V22.5614C27.8304 22.4498 27.7396 22.3594 27.6277 22.3594Z" fill="#224086"/>
<path d="M8.41438 37.9014C8.35644 37.9016 8.29902 37.8904 8.24544 37.8684C8.19187 37.8464 8.14319 37.8141 8.10221 37.7733C8.06124 37.7324 8.02878 37.6839 8.00671 37.6306C7.98465 37.5772 7.9734 37.52 7.97364 37.4622V32.5563C7.97364 32.4399 8.02007 32.3282 8.10273 32.2458C8.18539 32.1635 8.29749 32.1172 8.41438 32.1172C8.53128 32.1172 8.64338 32.1635 8.72604 32.2458C8.80869 32.3282 8.85513 32.4399 8.85513 32.5563V37.4587C8.85583 37.5167 8.84494 37.5743 8.82309 37.6281C8.80123 37.6819 8.76885 37.7308 8.72782 37.772C8.6868 37.8132 8.63796 37.8459 8.58415 37.8681C8.53034 37.8903 8.47263 37.9016 8.41438 37.9014Z" fill="#329A6B"/>
<path d="M36.7464 37.9014C36.6885 37.9016 36.6311 37.8904 36.5775 37.8684C36.5239 37.8464 36.4752 37.8141 36.4342 37.7733C36.3933 37.7324 36.3608 37.6839 36.3387 37.6306C36.3167 37.5772 36.3054 37.52 36.3057 37.4622V32.5563C36.3057 32.4399 36.3521 32.3282 36.4348 32.2458C36.5174 32.1635 36.6295 32.1172 36.7464 32.1172C36.8633 32.1172 36.9754 32.1635 37.0581 32.2458C37.1407 32.3282 37.1872 32.4399 37.1872 32.5563V37.4587C37.1879 37.5167 37.177 37.5743 37.1551 37.6281C37.1333 37.6819 37.1009 37.7308 37.0599 37.772C37.0188 37.8132 36.97 37.8459 36.9162 37.8681C36.8624 37.8903 36.8047 37.9016 36.7464 37.9014Z" fill="#329A6B"/>
<path d="M23.4942 7.44085L24.9469 7.6165C24.9713 7.6196 24.9944 7.62944 25.0135 7.64491C25.0326 7.66038 25.047 7.68087 25.0551 7.70406C25.0632 7.72726 25.0646 7.75223 25.0591 7.77618C25.0537 7.80012 25.0417 7.82208 25.0244 7.83958L23.9948 8.87592C23.9799 8.89129 23.9689 8.91 23.9628 8.93048C23.9567 8.95096 23.9556 8.97261 23.9596 8.9936L24.2328 10.4252C24.2374 10.4492 24.2351 10.4741 24.2262 10.4969C24.2173 10.5197 24.2023 10.5396 24.1827 10.5544C24.1631 10.5692 24.1398 10.5782 24.1153 10.5805C24.0908 10.5828 24.0662 10.5783 24.0442 10.5674L22.7361 9.91401C22.7171 9.90371 22.6959 9.89831 22.6744 9.89831C22.6528 9.89831 22.6316 9.90371 22.6127 9.91401L21.331 10.6166C21.3094 10.6291 21.2848 10.6351 21.2599 10.6341C21.2351 10.633 21.211 10.6249 21.1906 10.6107C21.1703 10.5965 21.1544 10.5767 21.1449 10.5538C21.1354 10.5309 21.1327 10.5058 21.137 10.4814L21.3574 9.04103C21.3606 9.01988 21.3586 8.99827 21.3515 8.97807C21.3445 8.95787 21.3326 8.93969 21.3169 8.9251L20.2591 7.92741C20.2409 7.91062 20.2279 7.8891 20.2214 7.86529C20.2149 7.84148 20.2153 7.81634 20.2225 7.79273C20.2296 7.76911 20.2433 7.74798 20.2619 7.73173C20.2806 7.71548 20.3034 7.70477 20.3278 7.70082L21.7717 7.46544C21.7927 7.46195 21.8125 7.4534 21.8294 7.44055C21.8463 7.42769 21.8598 7.41091 21.8687 7.39167L22.4928 6.07253C22.5038 6.05073 22.5207 6.0324 22.5415 6.01959C22.5624 6.00678 22.5864 6 22.6109 6C22.6354 6 22.6594 6.00678 22.6803 6.01959C22.7011 6.0324 22.718 6.05073 22.729 6.07253L23.4007 7.36884C23.4097 7.38716 23.4228 7.40318 23.439 7.41566C23.4552 7.42814 23.4741 7.43676 23.4942 7.44085Z" fill="#329A6B"/>
<path d="M29.047 9.3255L30.1753 9.46953C30.1918 9.47092 30.2076 9.47702 30.2207 9.48709C30.2338 9.49716 30.2438 9.51079 30.2494 9.52635C30.2549 9.54191 30.2559 9.55873 30.2522 9.57482C30.2484 9.59091 30.2401 9.60558 30.2282 9.61708L29.4101 10.4409C29.4004 10.4513 29.3932 10.464 29.3892 10.4777C29.3853 10.4914 29.3846 10.5059 29.3872 10.5199L29.6041 11.6564C29.6072 11.6726 29.6058 11.6893 29.5998 11.7047C29.5939 11.7201 29.5837 11.7335 29.5704 11.7434C29.5572 11.7533 29.5414 11.7593 29.5249 11.7607C29.5084 11.7621 29.4918 11.7588 29.4771 11.7512L28.4599 11.2418C28.4409 11.2318 28.4197 11.2266 28.3982 11.2266C28.3767 11.2266 28.3555 11.2318 28.3365 11.2418L27.3386 11.7881C27.3244 11.7964 27.308 11.8005 27.2915 11.7999C27.275 11.7992 27.259 11.7939 27.2455 11.7844C27.2319 11.775 27.2214 11.7619 27.2151 11.7467C27.2088 11.7314 27.207 11.7147 27.2099 11.6985L27.3862 10.5761C27.3894 10.555 27.3874 10.5334 27.3803 10.5132C27.3733 10.493 27.3614 10.4748 27.3457 10.4602L26.5823 9.7453C26.5642 9.72852 26.5511 9.707 26.5446 9.68319C26.5382 9.65938 26.5385 9.63424 26.5457 9.61063C26.5529 9.58701 26.5665 9.56588 26.5852 9.54963C26.6038 9.53338 26.6266 9.52267 26.6511 9.51871L27.6859 9.34306C27.7071 9.33955 27.7272 9.33102 27.7443 9.31818C27.7615 9.30534 27.7753 9.28857 27.7847 9.26929L28.2325 8.32253C28.2435 8.30073 28.2603 8.2824 28.2812 8.26959C28.3021 8.25678 28.3261 8.25 28.3506 8.25C28.3751 8.25 28.3991 8.25678 28.42 8.26959C28.4408 8.2824 28.4577 8.30073 28.4687 8.32253L28.95 9.25173C28.9591 9.27079 28.9727 9.28742 28.9896 9.30025C29.0064 9.31307 29.0261 9.32173 29.047 9.3255Z" fill="#329A6B"/>
<path d="M17.7638 9.3255L18.8039 9.45724C18.8284 9.46033 18.8515 9.47017 18.8706 9.48564C18.8897 9.50111 18.9041 9.5216 18.9122 9.5448C18.9202 9.56799 18.9216 9.59297 18.9162 9.61691C18.9108 9.64086 18.8988 9.66282 18.8815 9.68031L18.1428 10.4251C18.1278 10.44 18.1167 10.4584 18.1106 10.4786C18.1044 10.4989 18.1034 10.5203 18.1075 10.541L18.3209 11.6564C18.324 11.6726 18.3226 11.6893 18.3166 11.7047C18.3107 11.7201 18.3005 11.7335 18.2872 11.7434C18.274 11.7533 18.2582 11.7593 18.2417 11.7607C18.2252 11.7621 18.2087 11.7588 18.1939 11.7512L17.1767 11.2418C17.1577 11.2318 17.1365 11.2266 17.115 11.2266C17.0935 11.2266 17.0723 11.2318 17.0533 11.2418L16.0554 11.7881C16.0412 11.7964 16.0248 11.8005 16.0083 11.7999C15.9918 11.7992 15.9758 11.7939 15.9623 11.7844C15.9487 11.775 15.9382 11.7619 15.9319 11.7467C15.9256 11.7314 15.9238 11.7147 15.9267 11.6985L16.103 10.5761C16.1062 10.555 16.1042 10.5334 16.0971 10.5132C16.0901 10.493 16.0782 10.4748 16.0625 10.4602L15.2991 9.7453C15.281 9.72852 15.2679 9.707 15.2614 9.68319C15.255 9.65938 15.2553 9.63424 15.2625 9.61063C15.2697 9.58701 15.2833 9.56588 15.302 9.54963C15.3206 9.53338 15.3434 9.52267 15.3679 9.51871L16.4027 9.34306C16.4239 9.33955 16.4439 9.33102 16.4611 9.31818C16.4783 9.30534 16.4921 9.28857 16.5015 9.26929L16.9493 8.32253C16.9603 8.30073 16.9771 8.2824 16.998 8.26959C17.0189 8.25678 17.0429 8.25 17.0674 8.25C17.0919 8.25 17.1159 8.25678 17.1368 8.26959C17.1576 8.2824 17.1745 8.30073 17.1855 8.32253L17.6668 9.25173C17.6759 9.27079 17.6895 9.28742 17.7064 9.30025C17.7232 9.31307 17.7429 9.32173 17.7638 9.3255Z" fill="#329A6B"/>
<path d="M8.41518 33.017C9.35964 33.017 10.1253 32.2542 10.1253 31.3132C10.1253 30.3722 9.35964 29.6094 8.41518 29.6094C7.47072 29.6094 6.70508 30.3722 6.70508 31.3132C6.70508 32.2542 7.47072 33.017 8.41518 33.017Z" fill="#329A6B"/>
<path d="M36.7697 33.017C37.7141 33.017 38.4798 32.2542 38.4798 31.3132C38.4798 30.3722 37.7141 29.6094 36.7697 29.6094C35.8252 29.6094 35.0596 30.3722 35.0596 31.3132C35.0596 32.2542 35.8252 33.017 36.7697 33.017Z" fill="#329A6B"/>
<path d="M38.1423 38.0033H7.02375C6.90686 38.0033 6.79476 37.957 6.7121 37.8746C6.62944 37.7923 6.58301 37.6806 6.58301 37.5641C6.58301 37.4477 6.62944 37.336 6.7121 37.2536C6.79476 37.1713 6.90686 37.125 7.02375 37.125H38.1423C38.2592 37.125 38.3713 37.1713 38.4539 37.2536C38.5366 37.336 38.583 37.4477 38.583 37.5641C38.583 37.6806 38.5366 37.7923 38.4539 37.8746C38.3713 37.957 38.2592 38.0033 38.1423 38.0033Z" fill="#224086"/>
<path d="M29.4489 28.9642H15.9144C15.7975 28.9642 15.6854 28.9179 15.6027 28.8356C15.5201 28.7532 15.4736 28.6415 15.4736 28.5251C15.4736 28.4086 15.5201 28.2969 15.6027 28.2145C15.6854 28.1322 15.7975 28.0859 15.9144 28.0859H29.4489C29.5658 28.0859 29.6779 28.1322 29.7605 28.2145C29.8432 28.2969 29.8896 28.4086 29.8896 28.5251C29.8896 28.6415 29.8432 28.7532 29.7605 28.8356C29.6779 28.9179 29.5658 28.9642 29.4489 28.9642Z" fill="#224086"/>
<path d="M32.7118 37.9938H12.9046C12.7877 37.9938 12.6756 37.9476 12.593 37.8652C12.5103 37.7829 12.4639 37.6712 12.4639 37.5547V14.8115C12.4643 14.24 12.6924 13.6921 13.098 13.288C13.5035 12.8839 14.0535 12.6567 14.627 12.6562H30.9876C31.5612 12.6567 32.1111 12.8839 32.5167 13.288C32.9222 13.6921 33.1503 14.24 33.1508 14.8115V37.5547C33.1508 37.6709 33.1046 37.7823 33.0223 37.8646C32.94 37.9469 32.8284 37.9934 32.7118 37.9938ZM13.3471 37.1156H32.2693V14.808C32.2688 14.4694 32.1336 14.1449 31.8934 13.9055C31.6531 13.6661 31.3274 13.5315 30.9876 13.531H14.627C14.2873 13.5315 13.9615 13.6661 13.7213 13.9055C13.481 14.1449 13.3458 14.4694 13.3454 14.808L13.3471 37.1156Z" fill="#224086"/>
</g>
<defs>
<linearGradient id="paint0_linear_3047_4010" x1="12.9053" y1="25.3321" x2="32.7107" y2="25.3321" gradientUnits="userSpaceOnUse">
<stop offset="0.16" stop-color="#C4E8F5"/>
<stop offset="0.36" stop-color="#29ABE2"/>
<stop offset="1" stop-color="#089761"/>
</linearGradient>
<clipPath id="clip0_3047_4010">
<rect width="32" height="32" fill="white" transform="translate(6.58301 6)"/>
</clipPath>
</defs>
</svg>
