<svg width="23" height="23" viewBox="0 0 23 23" fill="none" xmlns="http://www.w3.org/2000/svg">
<g id="Frame" clip-path="url(#clip0_6043_9358)">
<path id="Vector" d="M11.7122 0.600586C9.51462 0.600586 7.3664 1.25224 5.53919 2.47314C3.71197 3.69405 2.28783 5.42938 1.44686 7.45967C0.605886 9.48996 0.385852 11.724 0.814577 13.8794C1.2433 16.0347 2.30153 18.0145 3.85545 19.5684C5.40936 21.1224 7.38917 22.1806 9.54452 22.6093C11.6999 23.038 13.9339 22.818 15.9642 21.977C17.9945 21.1361 19.7298 19.7119 20.9507 17.8847C22.1716 16.0575 22.8233 13.9093 22.8233 11.7117C22.8233 8.76485 21.6527 5.93869 19.5689 3.85495C17.4852 1.77122 14.659 0.600586 11.7122 0.600586ZM11.7122 21.5927C9.75742 21.5927 7.84655 21.0131 6.22121 19.9271C4.59588 18.8411 3.32909 17.2975 2.58103 15.4915C1.83297 13.6855 1.63724 11.6983 2.0186 9.78107C2.39996 7.86386 3.34126 6.10279 4.7235 4.72056C6.10573 3.33833 7.8668 2.39701 9.78401 2.01565C11.7012 1.63429 13.6885 1.83003 15.4944 2.57809C17.3004 3.32614 18.844 4.59294 19.93 6.21827C21.016 7.8436 21.5957 9.75447 21.5957 11.7092C21.5934 14.33 20.5515 16.8429 18.6985 18.6963C16.8456 20.5497 14.333 21.5923 11.7122 21.5952V21.5927Z" fill="#E4BA39"/>
<path id="Vector_2" d="M12.2832 8.60059H11.3183H11.0556H9.15283V9.8282H11.0556V15.8091H9.15283V17.0367H14.1873V15.8091H12.2832V8.60059Z" fill="#E4BA39"/>
<path id="Vector_3" d="M11.6694 7.40421C11.8823 7.40421 12.0905 7.34106 12.2675 7.22276C12.4446 7.10446 12.5826 6.93632 12.664 6.7396C12.7455 6.54287 12.7669 6.32639 12.7253 6.11755C12.6838 5.90871 12.5812 5.71688 12.4307 5.56631C12.2801 5.41574 12.0883 5.31321 11.8794 5.27167C11.6706 5.23012 11.4541 5.25144 11.2574 5.33293C11.0607 5.41441 10.8925 5.55241 10.7742 5.72946C10.6559 5.90651 10.5928 6.11465 10.5928 6.32759C10.5931 6.61302 10.7066 6.88667 10.9085 7.08851C11.1103 7.29034 11.384 7.40388 11.6694 7.40421Z" fill="#E4BA39"/>
</g>
<defs>
<clipPath id="clip0_6043_9358">
<rect width="22.2222" height="22.2222" fill="white" transform="translate(0.601074 0.600586)"/>
</clipPath>
</defs>
</svg>
