<svg width="32" height="32" viewBox="0 0 32 32" fill="none" xmlns="http://www.w3.org/2000/svg">
<g clip-path="url(#clip0_13844_42093)">
<g clip-path="url(#clip1_13844_42093)">
<path d="M15.9994 26C10.4857 26 6 21.5132 6 15.9994C6 10.4857 10.4857 6 15.9994 6C21.5132 6 25.9989 10.4857 25.9989 15.9994C25.9989 21.5132 21.5132 25.9989 15.9994 25.9989V26ZM15.9994 7.36932C11.2411 7.36932 7.36932 11.2411 7.36932 15.9994C7.36932 20.7578 11.2411 24.6295 15.9994 24.6295C20.7578 24.6295 24.6295 20.7578 24.6295 15.9994C24.6295 11.2411 20.7589 7.36932 15.9994 7.36932Z" fill="white"/>
<path d="M16.0143 19.7261C15.6377 19.7261 15.3319 19.4214 15.3296 19.0448L15.3148 16.0027C15.3148 15.8201 15.3855 15.6455 15.5145 15.5166C15.6434 15.3876 15.818 15.3146 15.9994 15.3146C17.3528 15.3146 18.4528 14.2146 18.4528 12.8612C18.4528 11.5079 17.3528 10.4079 15.9994 10.4079C14.6461 10.4079 13.5461 11.5079 13.5461 12.8612C13.5461 13.239 13.2391 13.5459 12.8614 13.5459C12.4837 13.5459 12.1768 13.239 12.1768 12.8612C12.1768 10.7536 13.8918 9.03857 15.9994 9.03857C18.107 9.03857 19.8221 10.7536 19.8221 12.8612C19.8221 14.7338 18.4676 16.2971 16.6875 16.6223L16.7001 19.038C16.7023 19.4157 16.3965 19.7238 16.0188 19.7261H16.0154H16.0143Z" fill="white"/>
<path d="M15.9991 22.2751C16.3772 22.2751 16.6838 21.9685 16.6838 21.5904C16.6838 21.2123 16.3772 20.9058 15.9991 20.9058C15.621 20.9058 15.3145 21.2123 15.3145 21.5904C15.3145 21.9685 15.621 22.2751 15.9991 22.2751Z" fill="white"/>
</g>
</g>
<defs>
<clipPath id="clip0_13844_42093">
<rect width="32" height="32" fill="white"/>
</clipPath>
<clipPath id="clip1_13844_42093">
<rect width="20" height="20" fill="white" transform="translate(6 6)"/>
</clipPath>
</defs>
</svg>
