<svg width="16" height="16" viewBox="0 0 16 16" fill="none" xmlns="http://www.w3.org/2000/svg">
<g clip-path="url(#clip0_1504_11257)">
<path d="M8 16C3.58857 16 0 12.4114 0 8C0 3.58857 3.58857 0 8 0C12.4114 0 16 3.58857 16 8C16 12.4114 12.4114 16 8 16ZM8 1.28C4.2944 1.28 1.28 4.2944 1.28 8C1.28 11.7056 4.2944 14.72 8 14.72C11.7056 14.72 14.72 11.7056 14.72 8C14.72 4.2944 11.7056 1.28 8 1.28Z" fill="#3398D5"/>
<path d="M7.96812 11.5834C7.6143 11.5834 7.32812 11.2972 7.32812 10.9434V7.41148C7.32812 7.05766 7.6143 6.77148 7.96812 6.77148C8.32195 6.77148 8.60812 7.05766 8.60812 7.41148V10.9434C8.60812 11.2972 8.32195 11.5834 7.96812 11.5834Z" fill="#3398D5"/>
<path d="M7.96447 4.57422H7.96356C7.56516 4.57422 7.24219 4.89719 7.24219 5.29559V5.2965C7.24219 5.69491 7.56516 6.01788 7.96356 6.01788H7.96447C8.36288 6.01788 8.68584 5.69491 8.68584 5.2965V5.29559C8.68584 4.89719 8.36288 4.57422 7.96447 4.57422Z" fill="#3398D5"/>
</g>
<defs>
<clipPath id="clip0_1504_11257">
<rect width="16" height="16" fill="white"/>
</clipPath>
</defs>
</svg>
