<svg width="22" height="22" viewBox="0 0 22 22" fill="none" xmlns="http://www.w3.org/2000/svg">
<rect width="22" height="22" fill="#E5E5E5"/>
<rect width="59320" height="49216" transform="translate(-27013 -3865)" fill="#EBEBEB"/>
<g clip-path="url(#clip0_0_1)">
<rect width="1440" height="1510" transform="translate(-176 -238)" fill="#EFF4F8"/>
<rect x="-16" y="-154" width="740" height="274" rx="16" fill="white"/>
<rect x="11" y="-36" width="1" height="38" fill="#C5D4E3"/>
<circle cx="11" cy="11" r="11" fill="#F48D42"/>
<path d="M10.9743 5.39224C11.0828 5.39224 11.1906 5.44805 11.2472 5.56042L16.5465 16.0741C16.6489 16.2774 16.5013 16.5175 16.2735 16.5175H5.67577C5.44796 16.5175 5.30042 16.2774 5.40286 16.0741L10.7014 5.56042C10.7579 5.44805 10.8665 5.39224 10.9743 5.39224ZM10.9743 4.39844C10.4804 4.39844 10.0363 4.67212 9.81382 5.11321L4.51532 15.6269C4.31044 16.0328 4.33108 16.506 4.5696 16.8936C4.80811 17.2804 5.22168 17.5121 5.67654 17.5121H16.2751C16.7299 17.5121 17.1435 17.2812 17.382 16.8936C17.6205 16.5068 17.6404 16.0328 17.4363 15.6269L12.1355 5.11321C11.913 4.67212 11.4689 4.39844 10.975 4.39844H10.9743Z" fill="white"/>
<path d="M10.9813 13.61C10.7068 13.61 10.4844 13.3876 10.4844 13.1131V8.90706C10.4844 8.63262 10.7068 8.41016 10.9813 8.41016C11.2557 8.41016 11.4782 8.63262 11.4782 8.90706V13.1131C11.4782 13.3876 11.2557 13.61 10.9813 13.61Z" fill="white"/>
<path d="M10.9952 15.1369C11.3119 15.1369 11.5686 14.8802 11.5686 14.5636C11.5686 14.2469 11.3119 13.9902 10.9952 13.9902C10.6786 13.9902 10.4219 14.2469 10.4219 14.5636C10.4219 14.8802 10.6786 15.1369 10.9952 15.1369Z" fill="white"/>
</g>
<defs>
<clipPath id="clip0_0_1">
<rect width="1440" height="1510" fill="white" transform="translate(-176 -238)"/>
</clipPath>
</defs>
</svg>
