<svg width="34" height="34" viewBox="0 0 34 34" fill="none" xmlns="http://www.w3.org/2000/svg">
<rect width="34" height="34" fill="#F5F5F5"/>
<g clip-path="url(#clip_instagram_footer)">
<rect width="1440" height="6539" transform="translate(-1054 -6369)" fill="white"/>
<rect x="-1054" y="-136" width="1440" height="306" fill="#0B2235"/>
<circle cx="17" cy="17" r="17" fill="#B5CEE3" fill-opacity="0.3"/>
<circle cx="17" cy="17" r="16.675" stroke="white" stroke-opacity="0.16" stroke-width="0.65"/>
<g clip-path="url(#clip_instagram_footer)">
<path fill-rule="evenodd" clip-rule="evenodd" d="M24.5573 14.2228C24.5573 12.1069 22.8391 10.3887 20.7232 10.3887H14.2247C12.1088 10.3887 10.3906 12.1069 10.3906 14.2228V20.7212C10.3906 22.8371 12.1088 24.5553 14.2247 24.5553H20.7232C22.8391 24.5553 24.5573 22.8371 24.5573 20.7212V14.2228ZM23.3876 14.2228V20.7212C23.3876 22.1918 22.1938 23.3856 20.7232 23.3856H14.2247C12.7541 23.3856 11.5604 22.1918 11.5604 20.7212V14.2228C11.5604 12.7522 12.7541 11.5584 14.2247 11.5584H20.7232C22.1938 11.5584 23.3876 12.7522 23.3876 14.2228ZM20.6517 16.9768C20.447 15.5933 19.3527 14.499 17.9691 14.2943C17.8145 14.2709 17.6585 14.2598 17.5019 14.2598C15.7551 14.2598 14.3177 15.6973 14.3177 17.4441C14.3177 19.1909 15.7551 20.6283 17.5019 20.6283C19.2487 20.6283 20.6862 19.1909 20.6862 17.4441C20.6862 17.2874 20.6751 17.1315 20.6517 16.9768ZM19.495 17.1484C19.5093 17.2465 19.5164 17.3453 19.5164 17.4441C19.5164 18.5488 18.6073 19.4586 17.5019 19.4586C16.3972 19.4586 15.4874 18.5488 15.4874 17.4441C15.4874 16.3387 16.3972 15.4295 17.5019 15.4295C17.6007 15.4295 17.6995 15.4367 17.7976 15.451C18.6729 15.5809 19.365 16.273 19.495 17.1484ZM21.0481 13.313C21.3711 13.313 21.633 13.5749 21.633 13.8978C21.633 14.2208 21.3711 14.4827 21.0481 14.4827C20.7251 14.4827 20.4633 14.2208 20.4633 13.8978C20.4633 13.5749 20.7251 13.313 21.0481 13.313Z" fill="white"/>
</g>
</g>
<defs>
<clipPath id="clip_instagram_footer">
<rect width="1440" height="6539" fill="white" transform="translate(-1054 -6369)"/>
</clipPath>
<clipPath id="clip_instagram_footer">
<rect width="17" height="17" fill="white" transform="translate(8.5 8.5)"/>
</clipPath>
</defs>
</svg>
