<svg width="34" height="34" viewBox="0 0 34 34" fill="none" xmlns="http://www.w3.org/2000/svg">
<rect width="34" height="34" fill="#E5E5E5"/>
<g clip-path="url(#clip0_0_1)">
<rect width="1440" height="6487" transform="translate(-933 -630)" fill="white"/>
<g opacity="0.55">
<path d="M364.695 -480.548C416.453 -368.262 546.023 -79.3579 450.62 -21.0889C355.217 37.1801 110.474 -63.9892 58.7159 -176.276C6.95804 -288.562 42.3396 -426.824 137.743 -485.093C233.146 -543.362 312.937 -592.835 364.695 -480.548Z" fill="#007631"/>
<g filter="url(#filter0_b_0_1)">
<rect x="-933" y="-630" width="1440" height="647" fill="white" fill-opacity="0.69"/>
</g>
</g>
<path d="M-21 -18V-19H-20H315C334.882 -19 351 -2.88225 351 17C351 36.8823 334.882 53 315 53H-20H-21V52V-18Z" fill="white" stroke="#EAF0F6" stroke-width="2"/>
<circle cx="17" cy="17" r="17" fill="#E7FAF4"/>
<g clip-path="url(#clip1_0_1)">
<path d="M16.8793 20.4647C16.8627 20.4647 16.845 20.4647 16.8284 20.4627C16.5947 20.4471 16.388 20.3255 16.2602 20.1292L15.3138 18.6779L13.8179 17.9975C13.607 17.9019 13.4522 17.7097 13.4023 17.4833C13.3525 17.2568 13.4137 17.0168 13.5665 16.8413L13.8823 16.4777C14.0038 16.3416 14.1628 16.2554 14.3352 16.2315L15.8259 16.0143C15.88 15.8949 15.9433 15.7889 16.0192 15.6923C16.1823 15.4835 16.4295 15.1667 16.7256 14.7906L13.6007 13.1669C13.3992 13.062 13.259 12.8739 13.2164 12.6506C13.1738 12.4272 13.2351 12.2008 13.3836 12.0294L13.8833 11.4538C14.0433 11.271 14.2822 11.1796 14.5201 11.2045L19.172 11.7271C19.464 11.3728 19.706 11.084 19.894 10.8679C20.8944 9.71689 22.2148 9.44991 22.513 9.4416C23.0594 9.43121 23.5217 9.83844 23.5747 10.3766C23.6131 10.7443 23.4677 12.0481 22.6615 12.9757C22.4371 13.2334 22.1265 13.572 21.738 13.9845L22.969 18.6468C23.0313 18.8857 22.9721 19.1361 22.8121 19.3199L22.3602 19.8383C22.2117 20.0087 21.9967 20.1011 21.7702 20.0908C21.5437 20.0804 21.338 19.9692 21.2061 19.7853L19.0266 16.7748C18.7347 17.0698 18.4823 17.3243 18.2942 17.5113C18.1664 17.6391 17.9878 17.7658 17.7956 17.8676L17.9234 19.3012C17.941 19.5007 17.8756 19.7022 17.7426 19.8529L17.4341 20.2081C17.2938 20.3712 17.0933 20.4627 16.8793 20.4627V20.4647ZM16.6508 19.5287C16.6508 19.5287 16.6508 19.5287 16.6497 19.5298H16.6508V19.5287ZM16.9614 19.1724C16.9614 19.1724 16.9604 19.1735 16.9593 19.1745L16.9614 19.1724ZM14.6531 17.236L15.8239 17.769C15.9548 17.8302 16.0628 17.9227 16.1386 18.0401L16.8689 19.16L16.7287 17.5872C16.7069 17.342 16.8606 17.1155 17.0954 17.0438C17.2658 16.9919 17.4767 16.8641 17.5598 16.78C17.834 16.5057 18.2475 16.0891 18.7181 15.6113C18.8251 15.5022 18.9747 15.4461 19.1274 15.4575C19.2801 15.469 19.4193 15.5469 19.5086 15.6705L21.8263 18.8712L21.925 18.7579L20.6607 13.9699C20.615 13.7954 20.6628 13.6105 20.7864 13.4796C21.2601 12.982 21.6279 12.5831 21.8793 12.2943C22.4704 11.6149 22.5504 10.6061 22.542 10.4773C22.5369 10.4804 21.4949 10.6124 20.6794 11.5494C20.4612 11.8008 20.1652 12.1551 19.7995 12.6038C19.6883 12.741 19.5149 12.8106 19.3393 12.7919L14.5658 12.2558L14.4204 12.422L17.7623 14.159C17.8995 14.2307 17.9982 14.3595 18.0304 14.5101C18.0626 14.6618 18.0262 14.8197 17.9306 14.9412C17.4663 15.5292 17.0694 16.0372 16.8388 16.3322C16.7879 16.3966 16.7484 16.4881 16.7131 16.621C16.6539 16.8433 16.4565 16.9981 16.229 17.0064L14.6541 17.236H14.6531ZM15.267 18.6052C15.267 18.6052 15.2681 18.6073 15.2691 18.6083L15.267 18.6052Z" fill="#0A5D37"/>
<path d="M16.9995 26C12.0369 26 8 21.962 8 16.9995C8 12.0369 12.0369 8 16.9995 8C17.5272 8 18.057 8.04571 18.5723 8.13713C18.8548 8.18699 19.0439 8.45605 18.9941 8.73862C18.9442 9.02118 18.6762 9.20921 18.3926 9.16039C17.9355 9.07936 17.467 9.03884 16.9995 9.03884C12.6104 9.03884 9.03884 12.6104 9.03884 16.9995C9.03884 21.3886 12.6104 24.9601 16.9995 24.9601C21.3886 24.9601 24.9601 21.3886 24.9601 16.9995C24.9601 16.3118 24.8729 15.6292 24.6994 14.9706C24.6267 14.6933 24.7918 14.4086 25.0702 14.3359C25.3476 14.2632 25.6322 14.4294 25.705 14.7068C25.9003 15.4516 26 16.2235 26 16.9995C26 21.962 21.9631 25.999 17.0005 25.999L16.9995 26Z" fill="#0A5D37"/>
<path d="M16.9995 25.9992C16.9995 25.9992 16.9932 25.9992 16.9901 25.9992C16.7034 25.994 16.4749 25.7571 16.4801 25.4704C16.4801 25.4517 16.5008 23.5309 15.6708 22.3653C15.3498 21.9144 15.0641 21.8999 14.5468 21.8729C13.9598 21.8428 13.1568 21.8002 12.307 20.9514C11.4812 20.1255 11.2973 19.6373 11.1342 19.2051C11.0147 18.8883 10.9202 18.6379 10.4922 18.2099C9.79511 17.5129 9.0378 18.0801 8.89236 18.2016C8.67316 18.3845 8.34593 18.3574 8.16205 18.1393C7.97818 17.9211 8.00311 17.597 8.21919 17.4111C8.7677 16.9415 10.1016 16.3504 11.2266 17.4765C11.8125 18.0624 11.9684 18.4748 12.1055 18.8395C12.2437 19.2051 12.3735 19.55 13.0415 20.218C13.6087 20.7852 14.0679 20.8091 14.6008 20.8372C15.1815 20.8673 15.9045 20.9047 16.5175 21.7648C17.549 23.2119 17.521 25.3987 17.5189 25.4912C17.5137 25.7748 17.282 26.0012 16.9995 26.0012V25.9992Z" fill="#0A5D37"/>
<path d="M20.7148 25.1426C20.5797 25.1426 20.4457 25.0897 20.3439 24.9858C20.2743 24.9131 19.6624 24.2534 19.6967 23.3257C19.7196 22.719 20.0094 22.1643 20.5589 21.676C22.1951 20.2217 24.3133 20.8927 24.4026 20.9218C24.6748 21.0112 24.8234 21.3041 24.734 21.5773C24.6447 21.8495 24.3507 21.9991 24.0785 21.9087C24.0141 21.888 22.432 21.3997 21.2477 22.452C20.9215 22.7419 20.748 23.0463 20.7345 23.3569C20.7116 23.8534 21.0887 24.2607 21.0919 24.2648C21.2872 24.4726 21.2799 24.8009 21.0732 24.9982C20.9724 25.0938 20.8425 25.1426 20.7137 25.1426H20.7148Z" fill="#0A5D37"/>
</g>
</g>
<defs>
<filter id="filter0_b_0_1" x="-1127" y="-824" width="1828" height="1035" filterUnits="userSpaceOnUse" color-interpolation-filters="sRGB">
<feFlood flood-opacity="0" result="BackgroundImageFix"/>
<feGaussianBlur in="BackgroundImageFix" stdDeviation="97"/>
<feComposite in2="SourceAlpha" operator="in" result="effect1_backgroundBlur_0_1"/>
<feBlend mode="normal" in="SourceGraphic" in2="effect1_backgroundBlur_0_1" result="shape"/>
</filter>
<clipPath id="clip0_0_1">
<rect width="1440" height="6487" fill="white" transform="translate(-933 -630)"/>
</clipPath>
<clipPath id="clip1_0_1">
<rect width="18" height="18" fill="white" transform="translate(8 8)"/>
</clipPath>
</defs>
</svg>
