<svg width="26" height="26" viewBox="0 0 26 26" fill="none" xmlns="http://www.w3.org/2000/svg">
<rect width="26" height="26" rx="4" fill="#DDF0FB"/>
<g clip-path="url(#clip0_23264_6830)">
<path d="M17.0869 13.6454H12.3217C11.9652 13.6454 11.6758 13.356 11.6758 12.9995C11.6758 12.6429 11.9652 12.3535 12.3217 12.3535H17.0869C17.4435 12.3535 17.7329 12.6429 17.7329 12.9995C17.7329 13.356 17.4435 13.6454 17.0869 13.6454Z" fill="#3398D5"/>
<path d="M15.1715 15.5612C15.0061 15.5612 14.8408 15.4979 14.7148 15.372C14.4622 15.1194 14.4622 14.7105 14.7148 14.4586L16.1727 13.0007L14.7148 11.5427C14.4622 11.2902 14.4622 10.8813 14.7148 10.6294C14.9674 10.3774 15.3763 10.3774 15.6282 10.6294L17.5434 12.544C17.6649 12.6654 17.7327 12.8295 17.7327 13.0007C17.7327 13.1718 17.6649 13.3366 17.5434 13.4574L15.6282 15.372C15.5022 15.4979 15.3369 15.5612 15.1715 15.5612Z" fill="#3398D5"/>
<path d="M12.1606 18H10.1962C8.98508 18 8 17.0149 8 15.8038V10.1962C8 8.98508 8.98508 8 10.1962 8H12.1606C12.5172 8 12.8065 8.28939 12.8065 8.64595C12.8065 9.00252 12.5172 9.29191 12.1606 9.29191H10.1962C9.69756 9.29191 9.29191 9.69756 9.29191 10.1962V15.8038C9.29191 16.3024 9.69756 16.7081 10.1962 16.7081H12.1606C12.5172 16.7081 12.8065 16.9975 12.8065 17.354C12.8065 17.7106 12.5172 18 12.1606 18Z" fill="#3398D5"/>
</g>
<defs>
<clipPath id="clip0_23264_6830">
<rect width="10" height="10" fill="white" transform="translate(8 8)"/>
</clipPath>
</defs>
</svg>
