<svg width="20" height="18" viewBox="0 0 20 18" fill="none" xmlns="http://www.w3.org/2000/svg">
<rect width="20" height="18" fill="#E5E5E5"/>
<g clip-path="url(#clip0_0_1)">
<rect width="1440" height="2250" transform="translate(-242 -2175)" fill="white"/>
<rect x="-242" y="-231" width="1440" height="306" fill="#0B2235"/>
<path d="M-71.2373 14L-74.5938 5.1543H-74.6484C-74.6302 5.34115 -74.6143 5.56901 -74.6006 5.83789C-74.5869 6.10677 -74.5755 6.40072 -74.5664 6.71973C-74.5573 7.03418 -74.5527 7.35547 -74.5527 7.68359V14H-75.6328V4.00586H-73.9102L-70.7451 12.3184H-70.6973L-67.4844 4.00586H-65.7754V14H-66.9238V7.60156C-66.9238 7.30534 -66.9193 7.00911 -66.9102 6.71289C-66.901 6.41211 -66.8896 6.12956 -66.876 5.86523C-66.8623 5.59635 -66.8486 5.36393 -66.835 5.16797H-66.8896L-70.2871 14H-71.2373ZM-60.2692 6.38477C-59.376 6.38477 -58.7129 6.58529 -58.2799 6.98633C-57.847 7.38737 -57.6305 8.02767 -57.6305 8.90723V14H-58.4577L-58.6764 12.8926H-58.7311C-58.9407 13.166 -59.1595 13.3962 -59.3873 13.583C-59.6152 13.7653 -59.8795 13.9043 -60.1803 14C-60.4765 14.0911 -60.8411 14.1367 -61.2741 14.1367C-61.7298 14.1367 -62.1354 14.057 -62.4909 13.8975C-62.8418 13.738 -63.1198 13.4964 -63.3248 13.1729C-63.5254 12.8493 -63.6256 12.4391 -63.6256 11.9424C-63.6256 11.195 -63.3294 10.6208 -62.737 10.2197C-62.1445 9.81868 -61.2422 9.59993 -60.0299 9.56348L-58.7379 9.50879V9.05078C-58.7379 8.40365 -58.8769 7.9502 -59.1549 7.69043C-59.4329 7.43066 -59.8248 7.30078 -60.3307 7.30078C-60.7226 7.30078 -61.0963 7.35775 -61.4518 7.47168C-61.8073 7.58561 -62.1445 7.72005 -62.4635 7.875L-62.8121 7.01367C-62.4749 6.84049 -62.0875 6.69238 -61.65 6.56934C-61.2125 6.44629 -60.7523 6.38477 -60.2692 6.38477ZM-58.7516 10.3086L-59.8932 10.3564C-60.8274 10.3929 -61.486 10.5456 -61.8688 10.8145C-62.2516 11.0833 -62.443 11.4639 -62.443 11.9561C-62.443 12.3844 -62.3131 12.7012 -62.0534 12.9062C-61.7936 13.1113 -61.4495 13.2139 -61.0211 13.2139C-60.3558 13.2139 -59.8112 13.0293 -59.3873 12.6602C-58.9635 12.291 -58.7516 11.7373 -58.7516 10.999V10.3086ZM-52.4866 14.1367C-53.4345 14.1367 -54.1865 13.8132 -54.7425 13.166C-55.2939 12.5189 -55.5696 11.5573 -55.5696 10.2812C-55.5696 8.99154 -55.2871 8.01855 -54.722 7.3623C-54.1568 6.7015 -53.4049 6.37109 -52.4661 6.37109C-52.0696 6.37109 -51.7233 6.4235 -51.427 6.52832C-51.1308 6.63314 -50.8756 6.77441 -50.6614 6.95215C-50.4472 7.12533 -50.2672 7.32357 -50.1214 7.54688H-50.0393C-50.0576 7.4056 -50.0758 7.21191 -50.094 6.96582C-50.1123 6.71973 -50.1214 6.51921 -50.1214 6.36426V3.36328H-48.9866V14H-49.9026L-50.0735 12.9336H-50.1214C-50.2626 13.1569 -50.4427 13.3597 -50.6614 13.542C-50.8756 13.7243 -51.1331 13.8701 -51.4339 13.9795C-51.7301 14.0843 -52.081 14.1367 -52.4866 14.1367ZM-52.3089 13.1934C-51.5068 13.1934 -50.9394 12.9655 -50.6067 12.5098C-50.274 12.054 -50.1077 11.3773 -50.1077 10.4795V10.2744C-50.1077 9.32194 -50.2672 8.59049 -50.5862 8.08008C-50.9007 7.56966 -51.4749 7.31445 -52.3089 7.31445C-53.0061 7.31445 -53.5279 7.58333 -53.8743 8.12109C-54.2207 8.6543 -54.3938 9.38346 -54.3938 10.3086C-54.3938 11.2292 -54.2229 11.9401 -53.8811 12.4414C-53.5348 12.9427 -53.0107 13.1934 -52.3089 13.1934ZM-43.5556 6.37109C-42.9176 6.37109 -42.3707 6.51237 -41.915 6.79492C-41.4592 7.07747 -41.1106 7.47396 -40.8691 7.98438C-40.6275 8.49023 -40.5068 9.08268 -40.5068 9.76172V10.4658H-45.6816C-45.6679 11.3454 -45.4491 12.0153 -45.0253 12.4756C-44.6015 12.9359 -44.0045 13.166 -43.2343 13.166C-42.7603 13.166 -42.3411 13.1227 -41.9765 13.0361C-41.6119 12.9495 -41.2336 12.8219 -40.8417 12.6533V13.6514C-41.22 13.82 -41.596 13.943 -41.9696 14.0205C-42.3388 14.098 -42.7763 14.1367 -43.2821 14.1367C-44.0022 14.1367 -44.6311 13.9909 -45.1689 13.6992C-45.7021 13.403 -46.1168 12.9701 -46.413 12.4004C-46.7092 11.8307 -46.8573 11.1335 -46.8573 10.3086C-46.8573 9.50195 -46.7229 8.80469 -46.454 8.2168C-46.1806 7.62435 -45.7978 7.16862 -45.3056 6.84961C-44.8088 6.5306 -44.2255 6.37109 -43.5556 6.37109ZM-43.5693 7.30078C-44.1754 7.30078 -44.6585 7.49902 -45.0185 7.89551C-45.3785 8.29199 -45.5927 8.8457 -45.6611 9.55664H-41.6962C-41.7008 9.11003 -41.7714 8.7181 -41.9081 8.38086C-42.0403 8.03906 -42.2431 7.77474 -42.5165 7.58789C-42.79 7.39648 -43.1409 7.30078 -43.5693 7.30078ZM-23.1369 4.00586L-25.8098 14H-26.9787L-28.9611 7.27344C-29.0204 7.08203 -29.0773 6.89062 -29.132 6.69922C-29.1822 6.50326 -29.23 6.31868 -29.2756 6.14551C-29.3212 5.96777 -29.3599 5.81283 -29.3918 5.68066C-29.4191 5.54395 -29.4396 5.44141 -29.4533 5.37305C-29.4624 5.44141 -29.4807 5.54167 -29.508 5.67383C-29.5308 5.80599 -29.5627 5.95866 -29.6037 6.13184C-29.6402 6.30501 -29.6857 6.48958 -29.7404 6.68555C-29.7906 6.88151 -29.8452 7.07975 -29.9045 7.28027L-31.8322 14H-33.0012L-35.6535 4.00586H-34.4436L-32.8371 10.2744C-32.7824 10.484 -32.7323 10.6914 -32.6867 10.8965C-32.6366 11.097 -32.5933 11.293 -32.5568 11.4844C-32.5158 11.6758 -32.4794 11.8626 -32.4475 12.0449C-32.4156 12.2272 -32.3859 12.4049 -32.3586 12.5781C-32.3358 12.4004 -32.3062 12.2158 -32.2697 12.0244C-32.2333 11.8285 -32.1945 11.6302 -32.1535 11.4297C-32.1079 11.2292 -32.0601 11.0264 -32.01 10.8213C-31.9553 10.6162 -31.8983 10.4111 -31.8391 10.2061L-30.0412 4.00586H-28.8449L-26.9719 10.2539C-26.9081 10.4681 -26.8488 10.68 -26.7941 10.8896C-26.7395 11.0993 -26.6916 11.3044 -26.6506 11.5049C-26.605 11.7008 -26.5663 11.89 -26.5344 12.0723C-26.4979 12.25 -26.466 12.4186 -26.4387 12.5781C-26.4068 12.3548 -26.368 12.1201 -26.3225 11.874C-26.2769 11.6279 -26.2245 11.3704 -26.1652 11.1016C-26.1014 10.8327 -26.0331 10.5547 -25.9602 10.2676L-24.3537 4.00586H-23.1369ZM-20.4539 6.50781V14H-21.5887V6.50781H-20.4539ZM-21.0077 3.70508C-20.8208 3.70508 -20.6613 3.7666 -20.5291 3.88965C-20.3924 4.00814 -20.3241 4.19499 -20.3241 4.4502C-20.3241 4.70085 -20.3924 4.8877 -20.5291 5.01074C-20.6613 5.13379 -20.8208 5.19531 -21.0077 5.19531C-21.2036 5.19531 -21.3677 5.13379 -21.4998 5.01074C-21.6274 4.8877 -21.6912 4.70085 -21.6912 4.4502C-21.6912 4.19499 -21.6274 4.00814 -21.4998 3.88965C-21.3677 3.7666 -21.2036 3.70508 -21.0077 3.70508ZM-15.4878 13.207C-15.3009 13.207 -15.1095 13.1911 -14.9136 13.1592C-14.7176 13.1273 -14.5581 13.0885 -14.435 13.043V13.9248C-14.5672 13.984 -14.7518 14.0342 -14.9888 14.0752C-15.2212 14.1162 -15.449 14.1367 -15.6723 14.1367C-16.0688 14.1367 -16.4289 14.0684 -16.7524 13.9316C-17.076 13.7904 -17.3358 13.5534 -17.5317 13.2207C-17.7231 12.888 -17.8188 12.4277 -17.8188 11.8398V7.39648H-18.8852V6.84277L-17.812 6.39844L-17.3608 4.77148H-16.6772V6.50781H-14.4829V7.39648H-16.6772V11.8057C-16.6772 12.2751 -16.5701 12.626 -16.3559 12.8584C-16.1372 13.0908 -15.8478 13.207 -15.4878 13.207ZM-11.6427 3.36328V6.54199C-11.6427 6.72428 -11.6473 6.90885 -11.6564 7.0957C-11.6655 7.27799 -11.6814 7.44661 -11.7042 7.60156H-11.629C-11.4741 7.33724 -11.2781 7.11621 -11.0411 6.93848C-10.7996 6.75618 -10.5262 6.61947 -10.2208 6.52832C-9.91548 6.43262 -9.59192 6.38477 -9.25012 6.38477C-8.64856 6.38477 -8.14725 6.48047 -7.74621 6.67188C-7.34061 6.86328 -7.03755 7.15951 -6.83703 7.56055C-6.63195 7.96159 -6.52942 8.48112 -6.52942 9.11914V14H-7.65051V9.19434C-7.65051 8.56999 -7.79406 8.10286 -8.08117 7.79297C-8.36373 7.48307 -8.79895 7.32812 -9.38684 7.32812C-9.94283 7.32812 -10.3872 7.43522 -10.7198 7.64941C-11.048 7.85905 -11.2849 8.16895 -11.4308 8.5791C-11.5721 8.98926 -11.6427 9.49056 -11.6427 10.083V14H-12.7775V3.36328H-11.6427ZM27.297 6.50781V14H26.1622V6.50781H27.297ZM26.7433 3.70508C26.9301 3.70508 27.0896 3.7666 27.2218 3.88965C27.3585 4.00814 27.4269 4.19499 27.4269 4.4502C27.4269 4.70085 27.3585 4.8877 27.2218 5.01074C27.0896 5.13379 26.9301 5.19531 26.7433 5.19531C26.5473 5.19531 26.3833 5.13379 26.2511 5.01074C26.1235 4.8877 26.0597 4.70085 26.0597 4.4502C26.0597 4.19499 26.1235 4.00814 26.2511 3.88965C26.3833 3.7666 26.5473 3.70508 26.7433 3.70508ZM33.3911 6.37109C34.2798 6.37109 34.952 6.58984 35.4077 7.02734C35.8634 7.46029 36.0913 8.15755 36.0913 9.11914V14H34.9702V9.19434C34.9702 8.56999 34.8266 8.10286 34.5395 7.79297C34.257 7.48307 33.8218 7.32812 33.2339 7.32812C32.4044 7.32812 31.8211 7.56283 31.4839 8.03223C31.1466 8.50163 30.978 9.18294 30.978 10.0762V14H29.8432V6.50781H30.7593L30.9302 7.58789H30.9917C31.1512 7.32357 31.354 7.10254 31.6001 6.9248C31.8462 6.74251 32.1219 6.60579 32.4272 6.51465C32.7326 6.41895 33.0539 6.37109 33.3911 6.37109ZM45.1281 4.00586C46.4178 4.00586 47.3589 4.25879 47.9514 4.76465C48.5484 5.26595 48.8469 5.986 48.8469 6.9248C48.8469 7.34863 48.7762 7.75195 48.635 8.13477C48.4982 8.51302 48.2749 8.84798 47.965 9.13965C47.6551 9.42676 47.2473 9.65462 46.7414 9.82324C46.2401 9.9873 45.6249 10.0693 44.8957 10.0693H43.6789V14H42.5168V4.00586H45.1281ZM45.0188 4.99707H43.6789V9.07129H44.7658C45.4038 9.07129 45.9348 9.00293 46.3586 8.86621C46.787 8.72949 47.1083 8.50846 47.3225 8.20312C47.5367 7.89323 47.6438 7.48307 47.6438 6.97266C47.6438 6.30729 47.4318 5.81283 47.008 5.48926C46.5842 5.16113 45.9211 4.99707 45.0188 4.99707ZM57.0943 6.50781V14H56.1646L56.0005 12.9473H55.939C55.7841 13.207 55.5836 13.4258 55.3375 13.6035C55.0914 13.7812 54.8134 13.9134 54.5035 14C54.1981 14.0911 53.8723 14.1367 53.5259 14.1367C52.9335 14.1367 52.4367 14.041 52.0357 13.8496C51.6347 13.6582 51.3316 13.362 51.1265 12.9609C50.926 12.5599 50.8257 12.0449 50.8257 11.416V6.50781H51.9742V11.334C51.9742 11.9583 52.1155 12.4255 52.398 12.7354C52.6806 13.0407 53.1112 13.1934 53.69 13.1934C54.246 13.1934 54.688 13.0885 55.0162 12.8789C55.3489 12.6693 55.5881 12.3617 55.7339 11.9561C55.8798 11.5459 55.9527 11.0446 55.9527 10.4521V6.50781H57.0943ZM63.1816 6.37109C64.0702 6.37109 64.7424 6.58984 65.1982 7.02734C65.6539 7.46029 65.8818 8.15755 65.8818 9.11914V14H64.7607V9.19434C64.7607 8.56999 64.6171 8.10286 64.33 7.79297C64.0474 7.48307 63.6122 7.32812 63.0243 7.32812C62.1949 7.32812 61.6116 7.56283 61.2743 8.03223C60.9371 8.50163 60.7685 9.18294 60.7685 10.0762V14H59.6337V6.50781H60.5497L60.7206 7.58789H60.7822C60.9417 7.32357 61.1445 7.10254 61.3905 6.9248C61.6366 6.74251 61.9124 6.60579 62.2177 6.51465C62.523 6.41895 62.8443 6.37109 63.1816 6.37109ZM71.2444 6.37109C71.8824 6.37109 72.4293 6.51237 72.885 6.79492C73.3408 7.07747 73.6894 7.47396 73.9309 7.98438C74.1725 8.49023 74.2932 9.08268 74.2932 9.76172V10.4658H69.1184C69.1321 11.3454 69.3509 12.0153 69.7747 12.4756C70.1985 12.9359 70.7955 13.166 71.5657 13.166C72.0397 13.166 72.4589 13.1227 72.8235 13.0361C73.1881 12.9495 73.5664 12.8219 73.9583 12.6533V13.6514C73.58 13.82 73.2041 13.943 72.8304 14.0205C72.4612 14.098 72.0237 14.1367 71.5179 14.1367C70.7978 14.1367 70.1689 13.9909 69.6311 13.6992C69.0979 13.403 68.6832 12.9701 68.387 12.4004C68.0908 11.8307 67.9427 11.1335 67.9427 10.3086C67.9427 9.50195 68.0771 8.80469 68.346 8.2168C68.6194 7.62435 69.0022 7.16862 69.4944 6.84961C69.9912 6.5306 70.5745 6.37109 71.2444 6.37109ZM71.2307 7.30078C70.6246 7.30078 70.1416 7.49902 69.7815 7.89551C69.4215 8.29199 69.2073 8.8457 69.1389 9.55664H73.1038C73.0992 9.11003 73.0286 8.7181 72.8919 8.38086C72.7597 8.03906 72.5569 7.77474 72.2835 7.58789C72.01 7.39648 71.6591 7.30078 71.2307 7.30078ZM77.6598 12.373L77.7487 12.5303C77.6666 12.863 77.5618 13.2184 77.4342 13.5967C77.3112 13.9749 77.1745 14.3532 77.0241 14.7314C76.8782 15.1143 76.7301 15.472 76.5797 15.8047H75.7321C75.8278 15.4401 75.9212 15.055 76.0123 14.6494C76.1035 14.2484 76.1855 13.8519 76.2584 13.46C76.3359 13.0635 76.3974 12.7012 76.443 12.373H77.6598ZM84.0716 14V4.00586H85.2337V14H84.0716ZM91.4987 6.37109C92.3874 6.37109 93.0596 6.58984 93.5154 7.02734C93.9711 7.46029 94.1989 8.15755 94.1989 9.11914V14H93.0779V9.19434C93.0779 8.56999 92.9343 8.10286 92.6472 7.79297C92.3646 7.48307 91.9294 7.32812 91.3415 7.32812C90.5121 7.32812 89.9288 7.56283 89.5915 8.03223C89.2543 8.50163 89.0857 9.18294 89.0857 10.0762V14H87.9509V6.50781H88.8669L89.0378 7.58789H89.0993C89.2588 7.32357 89.4616 7.10254 89.7077 6.9248C89.9538 6.74251 90.2295 6.60579 90.5349 6.51465C90.8402 6.41895 91.1615 6.37109 91.4987 6.37109ZM99.3428 14.1367C98.3949 14.1367 97.643 13.8132 97.087 13.166C96.5356 12.5189 96.2598 11.5573 96.2598 10.2812C96.2598 8.99154 96.5424 8.01855 97.1075 7.3623C97.6726 6.7015 98.4246 6.37109 99.3634 6.37109C99.7598 6.37109 100.106 6.4235 100.402 6.52832C100.699 6.63314 100.954 6.77441 101.168 6.95215C101.382 7.12533 101.562 7.32357 101.708 7.54688H101.79C101.772 7.4056 101.754 7.21191 101.735 6.96582C101.717 6.71973 101.708 6.51921 101.708 6.36426V3.36328H102.843V14H101.927L101.756 12.9336H101.708C101.567 13.1569 101.387 13.3597 101.168 13.542C100.954 13.7243 100.696 13.8701 100.396 13.9795C100.099 14.0843 99.7484 14.1367 99.3428 14.1367ZM99.5206 13.1934C100.323 13.1934 100.89 12.9655 101.223 12.5098C101.555 12.054 101.722 11.3773 101.722 10.4795V10.2744C101.722 9.32194 101.562 8.59049 101.243 8.08008C100.929 7.56966 100.355 7.31445 99.5206 7.31445C98.8233 7.31445 98.3015 7.58333 97.9552 8.12109C97.6088 8.6543 97.4356 9.38346 97.4356 10.3086C97.4356 11.2292 97.6065 11.9401 97.9483 12.4414C98.2947 12.9427 98.8188 13.1934 99.5206 13.1934ZM106.524 6.50781V14H105.389V6.50781H106.524ZM105.97 3.70508C106.157 3.70508 106.317 3.7666 106.449 3.88965C106.585 4.00814 106.654 4.19499 106.654 4.4502C106.654 4.70085 106.585 4.8877 106.449 5.01074C106.317 5.13379 106.157 5.19531 105.97 5.19531C105.774 5.19531 105.61 5.13379 105.478 5.01074C105.35 4.8877 105.287 4.70085 105.287 4.4502C105.287 4.19499 105.35 4.00814 105.478 3.88965C105.61 3.7666 105.774 3.70508 105.97 3.70508ZM111.873 6.38477C112.766 6.38477 113.429 6.58529 113.862 6.98633C114.295 7.38737 114.512 8.02767 114.512 8.90723V14H113.684L113.466 12.8926H113.411C113.201 13.166 112.983 13.3962 112.755 13.583C112.527 13.7653 112.262 13.9043 111.962 14C111.665 14.0911 111.301 14.1367 110.868 14.1367C110.412 14.1367 110.007 14.057 109.651 13.8975C109.3 13.738 109.022 13.4964 108.817 13.1729C108.617 12.8493 108.516 12.4391 108.516 11.9424C108.516 11.195 108.813 10.6208 109.405 10.2197C109.998 9.81868 110.9 9.59993 112.112 9.56348L113.404 9.50879V9.05078C113.404 8.40365 113.265 7.9502 112.987 7.69043C112.709 7.43066 112.317 7.30078 111.811 7.30078C111.419 7.30078 111.046 7.35775 110.69 7.47168C110.335 7.58561 109.998 7.72005 109.679 7.875L109.33 7.01367C109.667 6.84049 110.054 6.69238 110.492 6.56934C110.929 6.44629 111.39 6.38477 111.873 6.38477ZM113.39 10.3086L112.249 10.3564C111.315 10.3929 110.656 10.5456 110.273 10.8145C109.89 11.0833 109.699 11.4639 109.699 11.9561C109.699 12.3844 109.829 12.7012 110.089 12.9062C110.348 13.1113 110.693 13.2139 111.121 13.2139C111.786 13.2139 112.331 13.0293 112.755 12.6602C113.179 12.291 113.39 11.7373 113.39 10.999V10.3086ZM116.819 13.2891C116.819 12.9701 116.896 12.7445 117.051 12.6123C117.206 12.4756 117.395 12.4072 117.618 12.4072C117.851 12.4072 118.047 12.4756 118.206 12.6123C118.366 12.7445 118.445 12.9701 118.445 13.2891C118.445 13.6035 118.366 13.8337 118.206 13.9795C118.047 14.1208 117.851 14.1914 117.618 14.1914C117.395 14.1914 117.206 14.1208 117.051 13.9795C116.896 13.8337 116.819 13.6035 116.819 13.2891Z" fill="#B5CEE3" fill-opacity="0.6"/>
<path d="M10 3.26078C11.1939 1.7084 13.0416 0.7993 15 0.800783C17.96 0.800783 20 3.28078 20 6.18478C20 9.66478 16.996 13.3252 10.2 17.1492C10.0755 17.2177 9.92453 17.2177 9.8 17.1492C3.004 13.3252 0 9.66678 0 6.18478C0 3.28078 2.04 0.800783 5 0.800783C6.95837 0.7993 8.80613 1.7084 10 3.26078Z" fill="#B5CEE3" fill-opacity="0.6"/>
</g>
<defs>
<clipPath id="clip0_0_1">
<rect width="1440" height="2250" fill="white" transform="translate(-242 -2175)"/>
</clipPath>
</defs>
</svg>
