<svg width="20" height="20" viewBox="0 0 20 20" fill="none" xmlns="http://www.w3.org/2000/svg">
<g clip-path="url(#clip0_13898_40490)">
<path d="M0.0458145 2.51172C0.0458145 1.99386 0.446708 1.57422 0.940458 1.57422L10.0878 1.57422C10.5824 1.57422 10.9824 1.99386 10.9824 2.51172C10.9824 3.02958 10.5815 3.44922 10.0878 3.44922L0.940458 3.44922C0.445815 3.44922 0.0458145 3.02958 0.0458145 2.51172Z" fill="white"/>
<path d="M13.5714 2.51144C13.5714 1.96858 13.9714 1.5293 14.4661 1.5293L19.1054 1.5293C19.6 1.5293 20 1.96858 20 2.51144C20 3.0543 19.6 3.49358 19.1054 3.49358L14.4652 3.49358C13.9714 3.49358 13.5705 3.0543 13.5705 2.51144L13.5714 2.51144Z" fill="white"/>
<path d="M-0.000558181 9.91964C-0.000558157 9.37679 0.372656 8.9375 0.83337 8.9375L2.20123 8.9375C2.66194 8.9375 3.03516 9.37679 3.03516 9.91964C3.03516 10.4625 2.66194 10.9018 2.20123 10.9018L0.83337 10.9018C0.372656 10.9018 -0.000558205 10.4625 -0.000558181 9.91964Z" fill="white"/>
<path d="M5.89453 9.9375C5.89453 9.41964 6.29007 9 6.77846 9L19.0731 9C19.5615 9 19.957 9.41964 19.957 9.9375C19.957 10.4554 19.5615 10.875 19.0731 10.875L6.77846 10.875C6.29007 10.875 5.89453 10.4554 5.89453 9.9375Z" fill="white"/>
<path d="M0.0463161 17.6172C0.0463161 17.0993 0.450782 16.6797 0.950782 16.6797L13.7401 16.6797C14.2392 16.6797 14.6445 17.0993 14.6445 17.6172C14.6445 18.135 14.2401 18.5547 13.7401 18.5547L0.950782 18.5547C0.451674 18.5547 0.0463161 18.135 0.0463161 17.6172Z" fill="white"/>
<path d="M17.0536 17.6169C17.0536 17.0741 17.4348 16.6348 17.9045 16.6348L19.1491 16.6348C19.6188 16.6348 20 17.0741 20 17.6169C20 18.1598 19.6187 18.5991 19.1491 18.5991L17.9045 18.5991C17.4348 18.5991 17.0536 18.1598 17.0536 17.6169Z" fill="white"/>
<path d="M13.529 17.6163C13.529 16.3021 14.5987 15.2324 15.9129 15.2324C17.2272 15.2324 18.2969 16.3021 18.2969 17.6164C18.2969 18.9306 17.2272 20.0003 15.9129 20.0003C14.5987 20.0003 13.529 18.9306 13.529 17.6163ZM16.6897 17.6164C16.6897 17.1878 16.3415 16.8396 15.9129 16.8396C15.4844 16.8396 15.1362 17.1878 15.1362 17.6164C15.1362 18.0449 15.4844 18.3931 15.9129 18.3931C16.3415 18.3931 16.6897 18.0449 16.6897 17.6164Z" fill="white"/>
<path d="M1.91964 9.91908C1.91964 8.6048 2.98929 7.53516 4.30357 7.53516C5.61786 7.53516 6.6875 8.6048 6.6875 9.91908C6.6875 11.2334 5.61786 12.303 4.30357 12.303C2.98929 12.303 1.91964 11.2334 1.91964 9.91908ZM5.08036 9.91908C5.08036 9.49051 4.73214 9.1423 4.30357 9.1423C3.875 9.1423 3.52678 9.49051 3.52678 9.91908C3.52678 10.3477 3.875 10.6959 4.30357 10.6959C4.73214 10.6959 5.08036 10.3477 5.08036 9.91908Z" fill="white"/>
<path d="M9.86691 2.4933C9.86691 1.17902 10.9366 0.109375 12.2508 0.109375C13.5651 0.109375 14.6348 1.17902 14.6348 2.4933C14.6348 3.80759 13.5651 4.87723 12.2508 4.87723C10.9366 4.87723 9.86691 3.80759 9.86691 2.4933ZM13.0276 2.4933C13.0276 2.06473 12.6794 1.71652 12.2508 1.71652C11.8223 1.71652 11.4741 2.06473 11.4741 2.4933C11.4741 2.92187 11.8223 3.27009 12.2508 3.27009C12.6794 3.27009 13.0276 2.92187 13.0276 2.4933Z" fill="white"/>
</g>
<defs>
<clipPath id="clip0_13898_40490">
<rect width="20" height="20" fill="white" transform="matrix(0 -1 1 0 0 20)"/>
</clipPath>
</defs>
</svg>
