<svg width="24" height="24" viewBox="0 0 24 24" fill="none" xmlns="http://www.w3.org/2000/svg">
<ellipse cx="12" cy="12" rx="12" ry="12" fill="#EDF7FF"/>
<path d="M12.0489 11.7496C11.9417 11.7496 11.8362 11.7161 11.7458 11.6475L5.7296 7.10478C5.50858 6.93734 5.46504 6.62255 5.63081 6.40153C5.79825 6.1805 6.11304 6.13697 6.33407 6.30274L12.0472 10.6144L17.6548 6.30609C17.8742 6.13697 18.1906 6.17883 18.3597 6.39818C18.5289 6.61753 18.487 6.93399 18.2676 7.10311L12.3553 11.6458C12.2649 11.7145 12.1577 11.7496 12.0489 11.7496Z" fill="#1E54B0"/>
<path d="M17.4976 6.52321C17.8811 6.52321 18.1942 6.83465 18.1942 7.21976V16.3738C18.1942 16.7573 17.8827 17.0704 17.4976 17.0704H6.50004C6.1166 17.0704 5.80348 16.7589 5.80348 16.3738V7.21976C5.80348 6.83632 6.11492 6.52321 6.50004 6.52321H17.4993M17.4993 5.51855H6.50004C5.56236 5.51855 4.79883 6.28209 4.79883 7.21976V16.3738C4.79883 17.3115 5.56236 18.075 6.50004 18.075H17.4993C18.437 18.075 19.2005 17.3115 19.2005 16.3738V7.21976C19.2005 6.28209 18.437 5.51855 17.4993 5.51855Z" fill="#1E54B0"/>
</svg>
