<svg width="60" height="60" viewBox="0 0 60 60" fill="none" xmlns="http://www.w3.org/2000/svg">
<circle cx="30" cy="30" r="30" fill="white"/>
<g clip-path="url(#clip0_485_7945)">
<g clip-path="url(#clip1_485_7945)">
<path d="M52.5 41.5342H7.5V44.0626H52.5V41.5342Z" fill="#1D4EA5"/>
<path d="M49.4749 38.0222C49.4683 32.9896 47.5808 28.1477 44.195 24.4777C40.8092 20.8078 36.1783 18.5842 31.2407 18.2577V15.6534H33.2493V13.125H26.7337V15.6534H28.7473V18.2577C23.8101 18.5848 19.1798 20.8087 15.7946 24.4785C12.4093 28.1484 10.5222 32.99 10.5156 38.0222V39.2864H49.4674L49.4749 38.0222ZM13.0537 36.758C13.3692 32.4064 15.2914 28.3372 18.4345 25.3674C21.5776 22.3976 25.7089 20.747 29.999 20.747C34.2891 20.747 38.4204 22.3976 41.5635 25.3674C44.7065 28.3372 46.6288 32.4064 46.9442 36.758H13.0537Z" fill="#1D4EA5"/>
</g>
</g>
<defs>
<clipPath id="clip0_485_7945">
<rect width="45" height="45" fill="white" transform="translate(7.5 7.5)"/>
</clipPath>
<clipPath id="clip1_485_7945">
<rect width="45" height="30.9375" fill="white" transform="translate(7.5 13.125)"/>
</clipPath>
</defs>
</svg>
