<svg width="13" height="16" viewBox="0 0 13 16" fill="none" xmlns="http://www.w3.org/2000/svg">
<g clip-path="url(#clip0_2_43691)">
<path d="M9.81583 15.9298C9.35613 15.9298 8.92628 15.7428 8.60509 15.4031C8.28389 15.0634 8.11434 14.6155 8.12748 14.1404L8.33285 6.41673C7.52211 5.78663 7.02539 4.6741 7.02539 3.47173C7.02539 1.5568 8.27792 0 9.81702 0C11.3561 0 12.6087 1.55803 12.6087 3.47173C12.6087 4.6741 12.1107 5.78663 11.3012 6.41673L11.5066 14.1404C11.5197 14.6143 11.349 15.0622 11.029 15.4031C10.7078 15.7428 10.2779 15.9298 9.81822 15.9298H9.81583ZM9.81583 1.23067C8.93464 1.23067 8.21822 2.23613 8.21822 3.47173C8.21822 4.3172 8.57285 5.1073 9.1221 5.48634C9.38598 5.66848 9.53762 5.97246 9.52926 6.30228L9.32031 14.1737C9.31672 14.3127 9.36687 14.4444 9.46001 14.5441C9.55434 14.6438 9.67971 14.6992 9.81463 14.6992C9.94956 14.6992 10.0761 14.6438 10.1693 14.5441C10.2636 14.4444 10.3137 14.3127 10.309 14.1737L10.1 6.30228C10.0916 5.97369 10.2433 5.66848 10.5072 5.48634C11.0564 5.10853 11.411 4.3172 11.411 3.47173C11.411 2.23613 10.6946 1.23067 9.81344 1.23067H9.81583Z" fill="white"/>
<path d="M2.68295 4.78182C2.3534 4.78182 2.08594 4.50614 2.08594 4.16648V0.7169C2.08594 0.377233 2.3534 0.101562 2.68295 0.101562C3.0125 0.101562 3.27996 0.377233 3.27996 0.7169V4.16648C3.27996 4.50614 3.0125 4.78182 2.68295 4.78182Z" fill="white"/>
<path d="M2.69011 15.9994C2.23757 15.9994 1.81608 15.8148 1.50205 15.4788C1.18802 15.1429 1.02444 14.7023 1.04116 14.2359L1.2919 7.15209C1.30265 6.84689 1.23817 6.54291 1.10325 6.27216C0.89071 5.84266 0.630413 5.34546 0.450115 5.00457C0.212504 4.55537 0.0859375 4.04587 0.0859375 3.53391V0.716899C0.0859375 0.377233 0.353399 0.101562 0.68295 0.101562C1.0125 0.101562 1.27996 0.377233 1.27996 0.716899V3.53514C1.27996 3.84158 1.35519 4.14679 1.49847 4.41631C1.68235 4.76459 1.94862 5.27162 2.16712 5.71344C2.39279 6.17002 2.50264 6.68321 2.48473 7.19763L2.23399 14.2802C2.22921 14.4094 2.27459 14.5312 2.36175 14.6235C2.44891 14.7158 2.56593 14.7675 2.69011 14.7675C2.81428 14.7675 2.93249 14.7158 3.01966 14.6223C3.10682 14.5288 3.15219 14.4057 3.14622 14.2765L2.86324 7.21855C2.84175 6.69182 2.95518 6.16509 3.1916 5.69744L3.83995 4.41261C3.97129 4.15171 4.04174 3.85758 4.04174 3.56345V0.716899C4.04174 0.377233 4.3092 0.101562 4.63875 0.101562C4.96831 0.101562 5.23577 0.377233 5.23577 0.716899V3.56591C5.23577 4.05695 5.11995 4.54676 4.90025 4.98242L4.25189 6.26724C4.11219 6.54537 4.04413 6.85673 4.05726 7.17055L4.34025 14.2285C4.35935 14.6961 4.19577 15.1392 3.88174 15.4764C3.56771 15.8136 3.14503 15.9994 2.69011 15.9994Z" fill="white"/>
</g>
<defs>
<clipPath id="clip0_2_43691">
<rect width="12.5217" height="16" fill="white" transform="translate(0.0859375)"/>
</clipPath>
</defs>
</svg>
