<svg width="144" height="107" viewBox="0 0 144 107" fill="none" xmlns="http://www.w3.org/2000/svg">
<g id="Frame" clip-path="url(#clip0_21421_29729)">
<g id="Group">
<g id="Layer 2">
<path id="Vector" d="M71.2249 107C100.762 107 124.706 83.0472 124.706 53.5C124.706 23.9528 100.762 0 71.2249 0C41.6879 0 17.7434 23.9528 17.7434 53.5C17.7434 83.0472 41.6879 107 71.2249 107Z" fill="#C2D9E2"/>
<path id="Vector_2" d="M88.3384 8.80078C94.1794 11.0398 99.5643 14.4814 104.103 18.8279C108.625 23.1899 112.271 28.4645 114.783 34.2418C117.308 40.0152 118.626 46.3107 118.711 52.6178C118.8 58.9288 117.613 65.2474 115.274 71.1137C112.909 76.9683 109.391 82.3512 104.965 86.8485C100.542 91.342 95.2347 94.9731 89.4207 97.3977C83.6106 99.8301 77.3328 101.114 71.0472 101.133C64.7655 101.133 58.4954 99.8881 52.7317 97.4634C55.6503 98.581 58.6732 99.4202 61.7426 99.9693C64.8119 100.515 67.9315 100.754 71.0434 100.685C77.2632 100.576 83.4522 99.2229 89.1463 96.7481C91.9914 95.5067 94.7128 93.9947 97.2719 92.243C99.8271 90.4874 102.212 88.4843 104.373 86.2646C108.703 81.8292 112.128 76.5275 114.428 70.7734C116.747 65.027 117.942 58.8282 117.884 52.6294C117.837 46.4267 116.527 40.2511 114.142 34.5202C111.745 28.7932 108.208 23.5379 103.793 19.1489C101.594 16.9486 99.1738 14.9609 96.58 13.2285C93.9861 11.4999 91.2221 10.0189 88.3422 8.80078H88.3384Z" fill="#E9F2F8"/>
<path id="Vector_3" d="M53.1089 8.80078C47.2679 11.0398 41.883 14.4814 37.3447 18.8279C32.8219 23.1899 29.1766 28.4645 26.6639 34.2418C24.1396 40.0152 22.8214 46.3107 22.7364 52.6178C22.6474 58.9288 23.8342 65.2474 26.1729 71.1137C28.5387 76.9683 32.0565 82.3512 36.4827 86.8485C40.905 91.342 46.2126 94.9731 52.0265 97.3977C57.8366 99.8301 64.1145 101.114 70.4 101.133C76.6818 101.133 82.9519 99.8881 88.7156 97.4634C85.797 98.581 82.774 99.4202 79.7047 99.9693C76.6354 100.515 73.5158 100.754 70.4039 100.685C64.184 100.576 57.9951 99.2229 52.301 96.7481C49.4559 95.5067 46.7344 93.9947 44.1754 92.243C41.6201 90.4874 39.235 88.4843 37.0741 86.2646C32.7446 81.8292 29.3196 76.5275 27.0195 70.7734C24.7001 65.027 23.5056 58.8282 23.5636 52.6294C23.61 46.4267 24.9205 40.2511 27.3056 34.5202C29.7023 28.7932 33.2394 23.5379 37.654 19.1489C39.8535 16.9486 42.2734 14.9609 44.8673 13.2285C47.4612 11.4999 50.2251 10.0189 53.105 8.80078H53.1089Z" fill="#E9F2F8"/>
<path id="Vector_4" d="M4.99455 86.4661H3.30912C1.8363 86.4661 0.637939 85.3137 0.637939 83.8868L1.59663 41.748H7.02402L7.66186 83.8868C7.66186 85.3098 6.46737 86.4661 4.99068 86.4661H4.99455Z" fill="#E9F2F8"/>
<path id="Vector_5" d="M141.333 87.1045H139.647C138.174 87.1045 136.976 86.1493 136.976 84.9699L137.935 50.0547H143.362L144 84.9699C144 86.1493 142.806 87.1045 141.329 87.1045H141.333Z" fill="#E9F2F8"/>
<path id="Vector_6" d="M1.27567 33.1255L0.966417 20.987C0.962551 20.8091 0.815656 20.666 0.637835 20.666C0.460014 20.666 0.313119 20.8091 0.309253 20.987L0 33.1255H1.27567Z" fill="#C2D9E2"/>
<path id="Vector_7" d="M3.51395 33.1255L3.2047 20.987C3.20083 20.8091 3.05394 20.666 2.87612 20.666C2.6983 20.666 2.5514 20.8091 2.54753 20.987L2.23828 33.1255H3.51395Z" fill="#C2D9E2"/>
<path id="Vector_8" d="M6.06522 33.1255L5.75597 20.987C5.7521 20.8091 5.60521 20.666 5.42739 20.666C5.24957 20.666 5.10267 20.8091 5.0988 20.987L4.78955 33.1255H6.06522Z" fill="#C2D9E2"/>
<path id="Vector_9" d="M8.3035 33.1255L7.99425 20.987C7.99038 20.8091 7.84349 20.666 7.66567 20.666C7.48785 20.666 7.34095 20.8091 7.33709 20.987L7.02783 33.1255H8.3035Z" fill="#C2D9E2"/>
<path id="Vector_10" d="M8.30345 33.125V34.1343C8.30345 34.5442 8.26866 34.9541 8.19908 35.3524L7.02778 42.0655H1.59652L0.162358 35.4916C0.0541193 35.0005 0 34.4939 0 33.9873V33.1289H8.30345V33.125Z" fill="#C2D9E2"/>
<path id="Vector_11" d="M143.362 50.0553H137.935L137.053 23.8486C137.011 22.6343 137.873 21.6289 138.951 21.6289C140.614 21.6289 141.638 22.6653 142.442 24.1038C142.794 24.7341 143.119 26.6212 143.385 28.8757C144.015 34.1696 144.116 39.5293 143.737 44.8541L143.362 50.0591V50.0553Z" fill="#C2D9E2"/>
<g id="Group 2612718">
<g id="Group_2">
<path id="Vector_12" d="M49.3288 71.9408C49.7927 70.5873 49.727 69.1063 49.1394 67.7992C47.9952 65.2547 46.418 61.0281 48.1189 60.1967L51.4859 58.5455C52.2165 58.1897 53.0128 57.9809 53.8207 57.9654C55.3554 57.9345 57.841 57.4511 56.1015 54.4001C53.6854 50.158 56.3875 48.004 57.2071 47.6019C58.0266 47.1997 63.7942 41.6622 66.504 43.0465C69.2177 44.4309 68.3982 36.6853 69.7473 38.0581C71.0964 39.4309 75.7004 34.1331 76.7944 33.5994C77.8884 33.0619 83.5052 29.2955 85.3839 32.4471C87.2626 35.5987 90.85 35.0109 94.7929 35.4517C98.7398 35.8926 104.836 34.7905 105.505 36.1594C105.741 36.6389 105.829 37.4394 105.849 38.2824C105.887 40.0419 106.715 41.6776 108.118 42.7372C108.798 43.2515 109.448 43.9592 109.788 44.9143C110.72 47.5091 110.016 50.2276 109.196 50.6297C108.377 51.0319 97.0157 56.1363 98.3532 58.8703C99.6908 61.6043 95.6009 63.7273 94.3677 64.6708C93.1346 65.6144 89.037 66.9408 86.9843 68.2865C84.9316 69.6322 79.8908 69.725 79.6009 71.9021C79.3612 73.6925 73.497 78.0042 71.4095 79.4892C70.9882 79.7908 70.6132 80.1504 70.2846 80.5526C69.6275 81.3492 68.1701 82.6872 66.0324 82.2773L57.7405 80.6957C57.2882 80.6106 56.8244 80.5797 56.3643 80.6067L54.5359 80.7112C52.2667 80.8388 50.1406 79.5975 49.1433 77.5557C48.4861 76.21 48.3856 74.6554 48.8727 73.2401L49.3172 71.9408H49.3288Z" fill="#F9F9CF"/>
<g id="Group_3" style="mix-blend-mode:multiply">
<path id="Vector_13" d="M106.085 49.6133C103.529 50.7076 101.028 51.9374 98.6509 53.3565C97.4719 54.0758 96.3199 54.8531 95.3187 55.7812C94.8239 56.2452 94.3716 56.7595 94.0508 57.3241C93.8962 57.6064 93.7841 57.908 93.7454 58.2096C93.73 58.3604 93.7261 58.5113 93.7493 58.6582C93.757 58.7317 93.7763 58.8051 93.7957 58.8748C93.815 58.9482 93.8459 59.0604 93.8652 59.1532C93.9387 59.5476 93.8884 59.9614 93.7531 60.321C93.6217 60.6845 93.4284 61.0055 93.2081 61.3032C92.7674 61.891 92.2339 62.3744 91.6811 62.8191C90.5678 63.7008 89.3579 64.4278 88.1247 65.0852C85.6391 66.3845 83.0607 67.4556 80.4282 68.3992L80.3857 68.4147H80.3354C79.713 68.4069 79.0597 68.4843 78.4374 68.5964C77.8073 68.7124 77.1888 68.8826 76.6012 69.1301C76.0175 69.3853 75.4763 69.7178 74.9969 70.1316C74.533 70.5608 74.1658 71.079 73.8952 71.6513C73.3579 72.8733 72.577 73.9793 71.6609 74.9267C70.7486 75.8818 69.7164 76.721 68.5876 77.3938C69.67 76.6514 70.6519 75.7697 71.514 74.7913C72.376 73.813 73.0796 72.707 73.5782 71.5121C73.8527 70.8895 74.2354 70.3095 74.7263 69.8338C75.2289 69.3698 75.8048 68.9986 76.4195 68.7124C77.6604 68.1594 78.9902 67.8965 80.3509 67.881L80.2581 67.8965C82.852 66.9413 85.411 65.847 87.8464 64.5476C89.0602 63.898 90.2586 63.2019 91.3332 62.3628C91.8667 61.9413 92.3731 61.485 92.7751 60.9629C93.1694 60.4448 93.4516 59.8338 93.3472 59.246C93.3318 59.1686 93.3163 59.1145 93.2931 59.0217C93.2661 58.925 93.2429 58.8284 93.2313 58.7317C93.2004 58.5345 93.2042 58.3334 93.2313 58.14C93.2854 57.7533 93.4284 57.3898 93.6101 57.0689C93.9774 56.4231 94.4876 55.9049 95.0134 55.4293C96.0803 54.4934 97.2709 53.7394 98.4809 53.0472C99.6947 52.355 100.947 51.7401 102.223 51.1756C103.495 50.611 104.782 50.0773 106.096 49.6171L106.085 49.6133Z" fill="#F9F9CF"/>
</g>
<g id="Group_4" style="mix-blend-mode:multiply">
<path id="Vector_14" d="M60.3267 53.5928C59.5729 52.9896 59.2327 51.8372 59.5806 50.882C59.7545 50.4064 60.0793 50.0236 60.3769 49.6639C60.6784 49.3004 60.9916 48.9524 61.3163 48.6044C61.6449 48.2641 62.0082 47.9431 62.4064 47.6879C62.7968 47.4172 63.2066 47.1775 63.6318 46.9764C64.49 46.5897 65.3946 46.3112 66.3339 46.1875L66.3532 46.2455C65.5453 46.7366 64.7219 47.1388 63.9179 47.5603C63.512 47.7652 63.1022 47.9625 62.7079 48.179C62.5069 48.2834 62.3136 48.3994 62.1165 48.5154C61.9155 48.6237 61.726 48.7436 61.5289 48.8635C61.1462 49.111 60.7944 49.4126 60.5315 49.7877C60.2687 50.1589 60.1411 50.6075 60.0677 51.0251C60.0213 51.2339 60.0058 51.4428 59.9826 51.6516C59.9749 51.8604 59.9788 52.0731 60.0019 52.2858C60.0561 52.7111 60.1836 53.1365 60.3731 53.5619L60.3267 53.6005V53.5928Z" fill="#F9F9CF"/>
</g>
<g id="Group_5" style="mix-blend-mode:multiply">
<path id="Vector_15" d="M72.6233 41.4999C73.0562 41.5541 73.4931 41.5579 73.899 41.4767C74.3049 41.3917 74.676 41.2215 74.9311 40.9392C74.9891 40.8619 75.0548 40.7923 75.105 40.7111C75.1476 40.626 75.1978 40.5448 75.2403 40.4558L75.3447 40.1813C75.3795 40.0769 75.4143 39.957 75.4607 39.8526C75.623 39.4195 75.8434 39.0251 76.0869 38.65C76.5856 37.9036 77.177 37.2346 77.7685 36.5811C78.3677 35.9315 78.9668 35.2779 79.6936 34.7365C80.057 34.4697 80.4629 34.2261 80.9383 34.1101C81.3984 33.9747 81.9898 34.0676 82.3996 34.3498C83.1379 34.8062 83.9033 35.2315 84.6571 35.6685C85.4109 36.1093 86.1686 36.5424 86.9301 36.9678C87.3128 37.1766 87.6917 37.3932 88.086 37.5749C88.2831 37.6677 88.4764 37.7605 88.6774 37.834C88.7779 37.8727 88.8784 37.8998 88.9789 37.923C89.0756 37.9346 89.1877 37.95 89.2341 37.8727L89.292 37.892C89.2727 37.9578 89.2109 38.0119 89.1529 38.0274C89.091 38.0506 89.033 38.0544 88.9712 38.0583C88.8552 38.0583 88.7393 38.0467 88.6272 38.0274C88.4029 37.9887 88.1826 37.9346 87.97 37.865C87.5448 37.7296 87.1273 37.5749 86.7175 37.4048C85.898 37.0606 85.1094 36.6623 84.3324 36.2408C83.5593 35.8116 82.8132 35.3398 82.0787 34.8371C81.4795 34.3692 80.6059 34.6051 79.8714 35.0227C79.1292 35.4481 78.4682 36.0436 77.9115 36.7165C77.6332 37.0529 77.3858 37.4164 77.1577 37.7837C76.9258 38.1511 76.7132 38.5301 76.516 38.9129C76.3111 39.2919 76.1179 39.6747 75.9516 40.0575C75.9091 40.1542 75.8782 40.247 75.8395 40.3476L75.7004 40.684C75.6462 40.7923 75.5689 40.8967 75.5071 40.9972C75.4336 41.0978 75.3409 41.1828 75.2597 41.2757C74.8924 41.6198 74.3938 41.7784 73.9338 41.8016C73.466 41.8248 73.0137 41.7358 72.6001 41.5618L72.6194 41.5038L72.6233 41.4999Z" fill="#F9F9CF"/>
</g>
<g id="Group_6" style="mix-blend-mode:multiply">
<path id="Vector_16" d="M84.147 45.9321C84.7346 45.9321 84.7346 45.0195 84.147 45.0195C83.5594 45.0195 83.5594 45.9321 84.147 45.9321Z" fill="#F9F9CF"/>
</g>
<g id="Group_7" style="mix-blend-mode:multiply">
<path id="Vector_17" d="M91.7429 46.0044C92.3305 46.0044 92.3305 45.0918 91.7429 45.0918C91.1554 45.0918 91.1554 46.0044 91.7429 46.0044Z" fill="#F9F9CF"/>
</g>
<g id="Group_8" style="mix-blend-mode:multiply">
<path id="Vector_18" d="M60.9646 74.1294C61.5522 74.1294 61.5522 73.2168 60.9646 73.2168C60.377 73.2168 60.377 74.1294 60.9646 74.1294Z" fill="#F9F9CF"/>
</g>
<g id="Group_9" style="mix-blend-mode:multiply">
<path id="Vector_19" d="M54.7717 68.9986C55.3593 68.9986 55.3593 68.0859 54.7717 68.0859C54.1842 68.0859 54.1842 68.9986 54.7717 68.9986Z" fill="#F9F9CF"/>
</g>
<g id="Group_10" style="mix-blend-mode:multiply">
<path id="Vector_20" d="M72.4031 59.0982C72.9907 59.0982 72.9907 58.1855 72.4031 58.1855C71.8155 58.1855 71.8155 59.0982 72.4031 59.0982Z" fill="#F9F9CF"/>
</g>
<g id="Group_11" style="mix-blend-mode:multiply">
<path id="Vector_21" d="M63.2183 65.7915C63.8059 65.7915 63.8059 64.8789 63.2183 64.8789C62.6307 64.8789 62.6307 65.7915 63.2183 65.7915Z" fill="#F9F9CF"/>
</g>
<g id="Group_12" style="mix-blend-mode:multiply">
<path id="Vector_22" d="M104.117 43.8501C104.705 43.8501 104.705 42.9375 104.117 42.9375C103.529 42.9375 103.529 43.8501 104.117 43.8501Z" fill="#F9F9CF"/>
</g>
<path id="Vector_23" d="M76.7133 57.9916C77.0148 59.3412 77.6913 60.509 78.5997 61.4178C79.0907 60.1571 79.226 58.7379 78.909 57.3187C78.6074 55.9692 77.931 54.8013 77.0225 53.8926C76.5316 55.1532 76.3963 56.5724 76.7133 57.9916Z" fill="#038E24"/>
<path id="Vector_24" d="M81.1124 53.2441C82.4268 53.6772 83.772 53.6965 85.0206 53.3833C84.1895 52.3121 83.0453 51.4691 81.6614 51.0128C80.347 50.5797 79.0018 50.5604 77.7532 50.8736C78.5843 51.9448 79.7285 52.7878 81.1124 53.2441Z" fill="#038E24"/>
<path id="Vector_25" d="M71.947 51.5573C70.6288 51.9672 69.5193 52.7367 68.6843 53.7189C69.9832 54.1057 71.4058 54.125 72.7935 53.6919C74.1813 53.2588 75.2212 52.5124 76.0562 51.5302C74.7573 51.1435 73.3347 51.1242 71.947 51.5573Z" fill="#038E24"/>
</g>
<path id="Vector_26" d="M71.3167 67.4556C71.9042 67.4556 71.9042 66.543 71.3167 66.543C70.7291 66.543 70.7291 67.4556 71.3167 67.4556Z" fill="#F2E69E"/>
<path id="Vector_27" d="M67.3699 65.479C67.9575 65.479 67.9575 64.5664 67.3699 64.5664C66.7823 64.5664 66.7823 65.479 67.3699 65.479Z" fill="#F2E69E"/>
<path id="Vector_28" d="M64.4126 73.3755C65.0002 73.3755 65.0002 72.4629 64.4126 72.4629C63.825 72.4629 63.825 73.3755 64.4126 73.3755Z" fill="#F2E69E"/>
<path id="Vector_29" d="M86.7717 59.231C87.3593 59.231 87.3593 58.3184 86.7717 58.3184C86.1842 58.3184 86.1842 59.231 86.7717 59.231Z" fill="#F2E69E"/>
<path id="Vector_30" d="M79.8638 51.3384C80.4514 51.3384 80.4514 50.4258 79.8638 50.4258C79.2762 50.4258 79.2762 51.3384 79.8638 51.3384Z" fill="#F2E69E"/>
<path id="Vector_31" d="M67.3699 49.6939C67.9575 49.6939 67.9575 48.7812 67.3699 48.7812C66.7823 48.7812 66.7823 49.6939 67.3699 49.6939Z" fill="#F2E69E"/>
<path id="Vector_32" d="M74.9351 45.0884C75.5227 45.0884 75.5227 44.1758 74.9351 44.1758C74.3475 44.1758 74.3475 45.0884 74.9351 45.0884Z" fill="#F2E69E"/>
<path id="Vector_33" d="M89.729 45.7466C90.3166 45.7466 90.3166 44.834 89.729 44.834C89.1414 44.834 89.1414 45.7466 89.729 45.7466Z" fill="#F2E69E"/>
<path id="Vector_34" d="M99.9226 45.4185C100.51 45.4185 100.51 44.5059 99.9226 44.5059C99.335 44.5059 99.335 45.4185 99.9226 45.4185Z" fill="#F2E69E"/>
<path id="Vector_35" d="M101.894 47.7193C102.482 47.7193 102.482 46.8066 101.894 46.8066C101.307 46.8066 101.307 47.7193 101.894 47.7193Z" fill="#F2E69E"/>
<path id="Vector_36" d="M94.0044 49.0337C94.592 49.0337 94.592 48.1211 94.0044 48.1211C93.4168 48.1211 93.4168 49.0337 94.0044 49.0337Z" fill="#F2E69E"/>
</g>
</g>
</g>
</g>
<defs>
<clipPath id="clip0_21421_29729">
<rect width="144" height="107" fill="white"/>
</clipPath>
</defs>
</svg>
