<svg width="16" height="16" viewBox="0 0 16 16" fill="none" xmlns="http://www.w3.org/2000/svg">
<g clip-path="url(#clip0_2_34968)">
<path d="M11.8158 15.9298C11.3561 15.9298 10.9263 15.7428 10.6051 15.4031C10.2839 15.0634 10.1143 14.6155 10.1275 14.1404L10.3328 6.41673C9.52211 5.78663 9.02539 4.6741 9.02539 3.47173C9.02539 1.5568 10.2779 0 11.817 0C13.3561 0 14.6087 1.55803 14.6087 3.47173C14.6087 4.6741 14.1107 5.78663 13.3012 6.41673L13.5066 14.1404C13.5197 14.6143 13.349 15.0622 13.029 15.4031C12.7078 15.7428 12.2779 15.9298 11.8182 15.9298H11.8158ZM11.8158 1.23067C10.9346 1.23067 10.2182 2.23613 10.2182 3.47173C10.2182 4.3172 10.5728 5.1073 11.1221 5.48634C11.386 5.66848 11.5376 5.97246 11.5293 6.30228L11.3203 14.1737C11.3167 14.3127 11.3669 14.4444 11.46 14.5441C11.5543 14.6438 11.6797 14.6992 11.8146 14.6992C11.9496 14.6992 12.0761 14.6438 12.1693 14.5441C12.2636 14.4444 12.3137 14.3127 12.309 14.1737L12.1 6.30228C12.0916 5.97369 12.2433 5.66848 12.5072 5.48634C13.0564 5.10853 13.411 4.3172 13.411 3.47173C13.411 2.23613 12.6946 1.23067 11.8134 1.23067H11.8158Z" fill="#858585"/>
<path d="M4.68295 4.78182C4.3534 4.78182 4.08594 4.50614 4.08594 4.16648V0.7169C4.08594 0.377233 4.3534 0.101562 4.68295 0.101562C5.0125 0.101562 5.27996 0.377233 5.27996 0.7169V4.16648C5.27996 4.50614 5.0125 4.78182 4.68295 4.78182Z" fill="#858585"/>
<path d="M4.69011 15.9994C4.23757 15.9994 3.81608 15.8148 3.50205 15.4788C3.18802 15.1429 3.02444 14.7023 3.04116 14.2359L3.2919 7.15209C3.30265 6.84689 3.23817 6.54291 3.10325 6.27216C2.89071 5.84266 2.63041 5.34546 2.45012 5.00457C2.2125 4.55537 2.08594 4.04587 2.08594 3.53391V0.716899C2.08594 0.377233 2.3534 0.101562 2.68295 0.101562C3.0125 0.101562 3.27996 0.377233 3.27996 0.716899V3.53514C3.27996 3.84158 3.35519 4.14679 3.49847 4.41631C3.68235 4.76459 3.94862 5.27162 4.16712 5.71344C4.39279 6.17002 4.50264 6.68321 4.48473 7.19763L4.23399 14.2802C4.22921 14.4094 4.27459 14.5312 4.36175 14.6235C4.44891 14.7158 4.56593 14.7675 4.69011 14.7675C4.81428 14.7675 4.93249 14.7158 5.01966 14.6223C5.10682 14.5288 5.15219 14.4057 5.14622 14.2765L4.86324 7.21855C4.84175 6.69182 4.95518 6.16509 5.1916 5.69744L5.83995 4.41261C5.97129 4.15171 6.04174 3.85758 6.04174 3.56345V0.716899C6.04174 0.377233 6.3092 0.101562 6.63875 0.101562C6.96831 0.101562 7.23577 0.377233 7.23577 0.716899V3.56591C7.23577 4.05695 7.11995 4.54676 6.90025 4.98242L6.25189 6.26724C6.11219 6.54537 6.04413 6.85673 6.05726 7.17055L6.34025 14.2285C6.35935 14.6961 6.19577 15.1392 5.88174 15.4764C5.56771 15.8136 5.14503 15.9994 4.69011 15.9994Z" fill="#858585"/>
</g>
<defs>
<clipPath id="clip0_2_34968">
<rect width="12.5217" height="16" fill="white" transform="translate(2.08594)"/>
</clipPath>
</defs>
</svg>
