<svg width="16" height="16" viewBox="0 0 16 16" fill="none" xmlns="http://www.w3.org/2000/svg">
<g id="Frame" clip-path="url(#clip0_4867_54002)">
<path id="Vector" d="M8 16C3.58925 16 0 12.4107 0 8C0 3.58925 3.58925 0 8 0C12.4107 0 16 3.58925 16 8C16 12.4107 12.4107 16 8 16ZM8 1.91045C4.64239 1.91045 1.91045 4.64239 1.91045 8C1.91045 11.3576 4.64239 14.0896 8 14.0896C11.3576 14.0896 14.0896 11.3576 14.0896 8C14.0896 4.64239 11.3576 1.91045 8 1.91045Z" fill="#3572D2"/>
<path id="Vector_2" d="M10.1069 9.71913H7.23647C6.70871 9.71913 6.28125 9.29166 6.28125 8.7639V6.25405C6.28125 5.72629 6.70871 5.29883 7.23647 5.29883C7.76424 5.29883 8.1917 5.72629 8.1917 6.25405V7.80868H10.1069C10.6347 7.80868 11.0621 8.23614 11.0621 8.7639C11.0621 9.29166 10.6347 9.71913 10.1069 9.71913Z" fill="#3572D2"/>
</g>
<defs>
<clipPath id="clip0_4867_54002">
<rect width="16" height="16" fill="white"/>
</clipPath>
</defs>
</svg>
