<svg width="43" height="43" viewBox="0 0 43 43" fill="none" xmlns="http://www.w3.org/2000/svg">
<path d="M20.9873 31.9319C20.769 31.9319 20.5506 31.8804 20.3525 31.7781C12.2869 27.6219 11.6156 19.1121 11.6016 16.6034C11.5977 15.8671 12.175 15.2667 12.917 15.237C14.2736 15.1824 17.6821 14.8029 20.0246 12.4636C20.5537 11.9351 21.4177 11.9312 21.9507 12.4535C22.197 12.6948 22.4627 12.9251 22.7401 13.1367C23.0136 13.3452 23.0664 13.7371 22.8582 14.012C22.65 14.2868 22.2599 14.3399 21.9872 14.1306C21.6694 13.8878 21.3657 13.6247 21.0828 13.3475C21.0347 13.2999 20.9492 13.3007 20.9003 13.3498C18.2485 15.9983 14.4686 16.4246 12.9667 16.4847C12.8983 16.4878 12.8447 16.5363 12.8447 16.5964C12.8572 18.9278 13.4772 26.8318 20.9197 30.6662C20.9616 30.6873 21.0121 30.6881 21.0533 30.667C23.7812 29.2709 25.973 27.0254 27.3918 24.1724C27.5448 23.864 27.9186 23.7383 28.2255 23.8929C28.5324 24.0467 28.6574 24.4222 28.5036 24.7306C26.9652 27.8249 24.5838 30.2626 21.6174 31.7804C21.42 31.8811 21.204 31.9319 20.9881 31.9319H20.9873Z" fill="white"/>
<path d="M24.1002 23.5288C24.0831 23.5288 24.066 23.5288 24.0489 23.5272C23.8181 23.5116 23.6053 23.3859 23.4786 23.1907L22.6403 21.8985L21.3163 21.2934C21.105 21.1973 20.9488 21.0037 20.8991 20.7749C20.8494 20.5462 20.9108 20.3049 21.0638 20.1277L21.3474 19.7997C21.4694 19.6623 21.6294 19.5756 21.8027 19.5514L23.1002 19.3617C23.1476 19.2633 23.202 19.1751 23.2657 19.0939C23.4009 18.919 23.6021 18.6606 23.843 18.3529L21.1174 16.9295C20.9154 16.8234 20.7748 16.6336 20.732 16.4088C20.6893 16.1839 20.7507 15.9551 20.8999 15.7818L21.3497 15.2626C21.5098 15.0783 21.7475 14.9846 21.9884 15.0111L26.1288 15.4788C26.3798 15.172 26.5888 14.9221 26.7519 14.7332C27.6548 13.6908 28.8241 13.4277 29.1621 13.4183C29.692 13.4043 30.1434 13.8064 30.1954 14.3326C30.2304 14.6731 30.0975 15.8817 29.3563 16.739C29.1598 16.9662 28.8901 17.2622 28.5529 17.6213L29.6485 21.7915C29.7106 22.032 29.6516 22.285 29.4907 22.47L29.0852 22.9385C28.936 23.1111 28.72 23.204 28.4931 23.193C28.2662 23.1829 28.0596 23.0705 27.9267 22.8854L26.0208 20.2393C25.7341 20.5305 25.5236 20.7429 25.4265 20.8405C25.3169 20.9506 25.1677 21.0599 25.0046 21.1513L25.1149 22.3959C25.1328 22.5965 25.0675 22.8003 24.9339 22.9526L24.6573 23.2727C24.5159 23.4367 24.3146 23.5288 24.1002 23.5288ZM23.8368 22.5551C23.8368 22.5551 23.836 22.5559 23.8352 22.5567L23.8368 22.5551ZM24.0318 22.4927V22.4942V22.4927ZM22.3691 20.5735L23.1834 20.9459C23.3154 21.0068 23.4234 21.1013 23.4988 21.22L23.986 21.9711L23.8873 20.8593C23.8648 20.6016 24.0248 20.3627 24.2711 20.2877C24.4094 20.2456 24.5881 20.1378 24.6565 20.0691C24.7987 19.9254 25.1848 19.5374 25.6976 19.0135C25.8103 18.8987 25.9664 18.8401 26.1265 18.8518C26.2858 18.8643 26.4318 18.9463 26.5259 19.0767L28.5475 21.8837L27.4232 17.6057C27.3751 17.4222 27.4248 17.227 27.5553 17.0896C27.9803 16.6399 28.3105 16.2807 28.5351 16.0215C28.9717 15.5163 29.0883 14.7871 29.1085 14.5231C28.8373 14.577 28.1248 14.8113 27.5716 15.4507C27.3766 15.6764 27.1109 15.9957 26.7822 16.4009C26.6657 16.5446 26.4839 16.6196 26.3005 16.5985L22.0506 16.1183L22.0109 16.1644L24.9276 17.6877C25.0714 17.7626 25.1747 17.8985 25.2089 18.0578C25.2431 18.2171 25.2042 18.3834 25.104 18.5114C24.6868 19.0424 24.3302 19.5015 24.1235 19.7677C24.0839 19.8185 24.0528 19.8919 24.024 20.0004C23.9627 20.2323 23.7583 20.3955 23.5221 20.4056L22.3691 20.5743V20.5735ZM22.5859 21.8134C22.5859 21.8134 22.5874 21.8157 22.5882 21.8173L22.5859 21.8134ZM21.9604 20.6336H21.9565C21.9565 20.6336 21.9589 20.6336 21.9604 20.6336ZM21.7662 20.2979H21.767C21.767 20.2979 21.767 20.2979 21.7662 20.2979Z" fill="white"/>
<circle cx="21.5" cy="21.5" r="21" fill="#5F9AD8" stroke="#F9FBFD"/>
<g clip-path="url(#clip0_364_25878)">
<path d="M14.5496 18.1821H11.5579C11.2494 18.1821 11 17.9327 11 17.6243C11 17.3158 11.2494 17.0664 11.5579 17.0664H14.5496C14.858 17.0664 15.1074 17.3158 15.1074 17.6243C15.1074 17.9327 14.858 18.1821 14.5496 18.1821Z" fill="white"/>
<path d="M18.2342 18.1821H16.3C15.9916 18.1821 15.7422 17.9327 15.7422 17.6243C15.7422 17.3158 15.9916 17.0664 16.3 17.0664H18.2342C18.5426 17.0664 18.7921 17.3158 18.7921 17.6243C18.7921 17.9327 18.5426 18.1821 18.2342 18.1821Z" fill="white"/>
<path d="M15.4267 18.8885C14.7237 18.8885 14.1523 18.3171 14.1523 17.6142C14.1523 16.9112 14.7237 16.3398 15.4267 16.3398C16.1296 16.3398 16.701 16.9112 16.701 17.6142C16.701 18.3171 16.1296 18.8885 15.4267 18.8885ZM15.4267 17.2962C15.2513 17.2962 15.1087 17.4388 15.1087 17.6142C15.1087 17.7895 15.2513 17.9321 15.4267 17.9321C15.602 17.9321 15.7446 17.7895 15.7446 17.6142C15.7446 17.4388 15.602 17.2962 15.4267 17.2962Z" fill="white"/>
<path d="M12.3588 21.4712H11.5579C11.2494 21.4712 11 21.2217 11 20.9133C11 20.6049 11.2494 20.3555 11.5579 20.3555H12.3588C12.6672 20.3555 12.9166 20.6049 12.9166 20.9133C12.9166 21.2217 12.6672 21.4712 12.3588 21.4712Z" fill="white"/>
<path d="M18.0123 21.479H14.2141C13.9057 21.479 13.6562 21.2296 13.6562 20.9211C13.6562 20.6127 13.9057 20.3633 14.2141 20.3633H18.0123C18.3207 20.3633 18.5702 20.6127 18.5702 20.9211C18.5702 21.2296 18.3207 21.479 18.0123 21.479Z" fill="white"/>
<path d="M15.3194 24.8813H11.5579C11.2494 24.8813 11 24.6319 11 24.3235C11 24.0151 11.2494 23.7656 11.5579 23.7656H15.3194C15.6278 23.7656 15.8773 24.0151 15.8773 24.3235C15.8773 24.6319 15.6278 24.8813 15.3194 24.8813Z" fill="white"/>
<path d="M18.2518 24.8813H17.093C16.7846 24.8813 16.5352 24.6319 16.5352 24.3235C16.5352 24.0151 16.7846 23.7656 17.093 23.7656H18.2518C18.5602 23.7656 18.8096 24.0151 18.8096 24.3235C18.8096 24.6319 18.5602 24.8813 18.2518 24.8813Z" fill="white"/>
<path d="M16.1818 25.5824C15.4869 25.5824 14.9219 25.0174 14.9219 24.3225C14.9219 23.6275 15.4869 23.0625 16.1818 23.0625C16.8768 23.0625 17.4418 23.6275 17.4418 24.3225C17.4418 25.0174 16.8768 25.5824 16.1818 25.5824ZM16.1818 24.018C16.0145 24.018 15.8782 24.1543 15.8782 24.3217C15.8782 24.489 16.0145 24.6253 16.1818 24.6253C16.3492 24.6253 16.4855 24.489 16.4855 24.3217C16.4855 24.1543 16.3492 24.018 16.1818 24.018Z" fill="white"/>
<path d="M13.3068 22.1742C12.6119 22.1742 12.0469 21.6092 12.0469 20.9143C12.0469 20.2193 12.6119 19.6543 13.3068 19.6543C14.0018 19.6543 14.5668 20.2193 14.5668 20.9143C14.5668 21.6092 14.0018 22.1742 13.3068 22.1742ZM13.3068 20.6098C13.1395 20.6098 13.0032 20.7461 13.0032 20.9135C13.0032 21.0808 13.1395 21.2171 13.3068 21.2171C13.4742 21.2171 13.6105 21.0808 13.6105 20.9135C13.6105 20.7461 13.4742 20.6098 13.3068 20.6098Z" fill="white"/>
<path d="M23.8621 26.7481C23.8438 26.7481 23.8255 26.7481 23.8071 26.7465C23.5569 26.7298 23.3353 26.5991 23.1983 26.3887L22.1917 24.8442L20.6002 24.1206C20.3747 24.0186 20.2082 23.8122 20.1548 23.5699C20.1014 23.3268 20.1675 23.0702 20.3301 22.8822L20.6664 22.4948C20.7963 22.349 20.9668 22.2574 21.1525 22.2311L22.7368 22.0007C22.7942 21.874 22.862 21.7617 22.9417 21.6596C23.0309 21.5457 23.3003 21.199 23.69 20.7041L20.3675 18.9779C20.1516 18.8656 20.0017 18.664 19.9555 18.4249C19.9101 18.1858 19.9754 17.9427 20.1348 17.7586L20.6672 17.1458C20.8377 16.9505 21.0928 16.8509 21.3494 16.8788L26.3008 17.4351C26.6108 17.0581 26.8682 16.7513 27.0674 16.5218C28.1353 15.2945 29.5427 15.01 29.8607 15.0004C30.4409 14.9845 30.9389 15.4244 30.9963 16.0006C31.037 16.3927 30.8824 17.7833 30.0233 18.7723C29.7842 19.0465 29.455 19.4067 29.0414 19.845L30.3516 24.8076C30.4178 25.0634 30.3548 25.3319 30.1834 25.5288L29.7029 26.0811C29.5435 26.2644 29.3148 26.3624 29.0709 26.352C28.8287 26.3409 28.6079 26.2221 28.466 26.0253L26.1485 22.8232C25.7724 23.2041 25.4959 23.4807 25.3731 23.6042C25.2376 23.7405 25.048 23.8743 24.844 23.9827L24.9794 25.5065C24.9986 25.7201 24.9284 25.936 24.7866 26.0978L24.4574 26.4756C24.3068 26.6501 24.0916 26.7481 23.8629 26.7481H23.8621ZM23.9458 25.3638C23.9458 25.3638 23.9442 25.3654 23.9442 25.3662L23.9458 25.3638ZM21.5072 23.3077L22.74 23.868C22.8803 23.9333 22.9959 24.0329 23.0771 24.1589L23.8438 25.3351L23.6964 23.6791C23.6732 23.4161 23.8374 23.1722 24.09 23.0957C24.271 23.0407 24.4949 22.9045 24.5826 22.816C24.7515 22.6471 25.2082 22.1888 25.8162 21.5712C25.9318 21.454 26.0928 21.3943 26.2561 21.4062C26.4195 21.419 26.5693 21.5027 26.6658 21.6357L29.1299 25.0403L29.2287 24.9263L27.8827 19.8299C27.8333 19.6426 27.8843 19.4434 28.0182 19.3031C28.5226 18.7731 28.9139 18.3484 29.1817 18.0407C29.7977 17.3315 29.8918 16.2843 29.8862 16.1177C29.8033 16.1289 28.745 16.2954 27.9098 17.2542C27.6779 17.5211 27.3623 17.8989 26.9726 18.3763C26.853 18.5229 26.6666 18.5994 26.4785 18.5779L21.398 18.0073L21.249 18.1786L24.8025 20.0251C24.9499 20.1016 25.0559 20.2403 25.091 20.4029C25.1261 20.5654 25.0862 20.7352 24.9834 20.8659C24.3738 21.6381 23.9394 22.1952 23.8215 22.3474C23.7673 22.4159 23.7258 22.5132 23.6884 22.6526C23.6246 22.8909 23.4134 23.0575 23.1696 23.0662L21.508 23.3077H21.5072ZM29.3419 24.7964C29.3419 24.7964 29.3419 24.7964 29.3419 24.7972V24.7964ZM22.1399 24.7653C22.1399 24.7653 22.1415 24.7677 22.1423 24.7693L22.1399 24.7653Z" fill="white"/>
</g>
<defs>
<clipPath id="clip0_364_25878">
<rect width="20" height="11.7477" fill="white" transform="translate(11 15)"/>
</clipPath>
</defs>
</svg>
