<svg width="14" height="14" viewBox="0 0 14 14" fill="none" xmlns="http://www.w3.org/2000/svg">
<g clip-path="url(#clip0_2_25717)">
<path d="M7.00694 2.75185C6.71004 2.75185 6.46875 2.51472 6.46875 2.22293V0.534783C6.46875 0.242993 6.71004 0.00585938 7.00694 0.00585938C7.30383 0.00585938 7.54512 0.242993 7.54512 0.534783V2.22293C7.54512 2.51472 7.30383 2.75185 7.00694 2.75185Z" fill="#858585"/>
<path d="M10.6784 4.36038C10.5402 4.36038 10.403 4.30837 10.298 4.20523C10.0882 3.99895 10.0882 3.66397 10.298 3.45769L11.5125 2.26409C11.7224 2.0578 12.0633 2.0578 12.2732 2.26409C12.4831 2.47037 12.4831 2.80535 12.2732 3.01163L11.0587 4.20523C10.9537 4.30837 10.8156 4.36038 10.6784 4.36038Z" fill="#858585"/>
<path d="M3.19365 4.36038C3.05551 4.36038 2.91828 4.30837 2.81333 4.20523L1.59883 3.01163C1.38893 2.80535 1.38893 2.47037 1.59883 2.26409C1.80872 2.0578 2.14957 2.0578 2.35946 2.26409L3.57397 3.45769C3.78386 3.66397 3.78386 3.99895 3.57397 4.20523C3.46902 4.30837 3.33089 4.36038 3.19365 4.36038Z" fill="#858585"/>
<path d="M2.40043 7.33519H0.682717C0.385818 7.33519 0.144531 7.09806 0.144531 6.80627C0.144531 6.51448 0.385818 6.27734 0.682717 6.27734H2.40043C2.69732 6.27734 2.93861 6.51448 2.93861 6.80627C2.93861 7.09806 2.69732 7.33519 2.40043 7.33519Z" fill="#858585"/>
<path d="M13.4629 7.33519H11.7452C11.4483 7.33519 11.207 7.09806 11.207 6.80627C11.207 6.51448 11.4483 6.27734 11.7452 6.27734H13.4629C13.7598 6.27734 14.0011 6.51448 14.0011 6.80627C14.0011 7.09806 13.7598 7.33519 13.4629 7.33519Z" fill="#858585"/>
<path d="M11.1925 10.6924C11.1817 10.6924 11.1701 10.6924 11.1593 10.6924C10.4946 10.6862 10.1358 10.4958 9.84792 10.3433C9.60932 10.2164 9.43621 10.1247 9.03795 10.1212C8.63969 10.1194 8.46478 10.2058 8.2235 10.3283C7.93288 10.4756 7.5696 10.6589 6.90584 10.6527C6.24118 10.6466 5.88239 10.4562 5.59446 10.3037C5.35587 10.1767 5.18275 10.085 4.78449 10.0815C4.38444 10.0771 4.21222 10.1661 3.97004 10.2887C3.67942 10.4359 3.31345 10.6201 2.65238 10.6131C1.98772 10.6069 1.62893 10.4165 1.341 10.2631C1.10241 10.1362 0.929289 10.0445 0.531032 10.041C0.235927 10.0357 -0.00266839 9.79677 2.25399e-05 9.5041C0.00271347 9.21408 0.243103 8.98047 0.538208 8.98047H0.54359C1.20825 8.98664 1.56704 9.17705 1.85497 9.33044C2.09356 9.45738 2.26668 9.54906 2.66494 9.55259C3.06499 9.55964 3.23721 9.46796 3.47939 9.34543C3.76553 9.20085 4.11983 9.02102 4.76296 9.02102C4.77373 9.02102 4.78539 9.02102 4.79705 9.02102C5.46171 9.02719 5.8205 9.2176 6.10843 9.37011C6.34702 9.49705 6.52014 9.58873 6.9184 9.59226C7.31576 9.59755 7.49067 9.50763 7.73285 9.38509C8.02347 9.23788 8.38854 9.05716 9.05051 9.06069C9.71517 9.06686 10.074 9.25727 10.3619 9.41066C10.6005 9.5376 10.7736 9.62928 11.1719 9.63281C11.1799 9.63281 11.188 9.63281 11.1961 9.63281C11.5773 9.63281 11.7495 9.54553 11.9854 9.42565C12.276 9.27843 12.6411 9.09859 13.3031 9.10124C13.6 9.10388 13.8386 9.34366 13.8359 9.63545C13.8332 9.92548 13.5928 10.1591 13.2977 10.1591C13.2878 10.1591 13.278 10.1591 13.2681 10.1591C12.8869 10.1591 12.7147 10.2464 12.4787 10.3662C12.1926 10.5108 11.8383 10.6907 11.1943 10.6907L11.1925 10.6924Z" fill="#858585"/>
<path d="M11.1943 13.1186C11.1835 13.1186 11.1719 13.1186 11.1611 13.1186C10.4964 13.1124 10.1376 12.922 9.84971 12.7695C9.61112 12.6426 9.438 12.5509 9.03974 12.5474C8.6388 12.5465 8.46747 12.632 8.22529 12.7545C7.93467 12.9017 7.56781 13.0833 6.90763 13.0789C6.24297 13.0727 5.88418 12.8823 5.59625 12.7298C5.35766 12.6029 5.18454 12.5112 4.78629 12.5077C4.38354 12.505 4.21401 12.5923 3.97183 12.7148C3.68121 12.8621 3.31614 13.0428 2.65417 13.0392C1.98951 13.0331 1.63072 12.8427 1.3428 12.6902C1.1042 12.5632 0.931083 12.4715 0.532826 12.468C0.235927 12.4654 -0.00266839 12.2265 2.25396e-05 11.9338C0.00271347 11.642 0.247588 11.4084 0.54359 11.4102C1.20825 11.4163 1.56704 11.6067 1.85497 11.7593C2.09356 11.8862 2.26668 11.9779 2.66494 11.9814C3.06589 11.9858 3.23721 11.8968 3.47939 11.7742C3.76553 11.6297 4.11983 11.4498 4.76386 11.4498C4.77462 11.4498 4.78629 11.4498 4.79705 11.4498C5.46171 11.456 5.8205 11.6464 6.10843 11.7989C6.34702 11.9259 6.52014 12.0175 6.9184 12.0211C6.92647 12.0211 6.93454 12.0211 6.94261 12.0211C7.32383 12.0211 7.49605 11.9338 7.73195 11.8139C8.01809 11.6693 8.37239 11.4895 9.01642 11.4895C9.02719 11.4895 9.03885 11.4895 9.04961 11.4895C9.71427 11.4957 10.0731 11.6861 10.361 11.8386C10.5996 11.9655 10.7727 12.0572 11.171 12.0607C11.179 12.0607 11.1871 12.0607 11.1952 12.0607C11.5764 12.0607 11.7486 11.9735 11.9854 11.8536C12.276 11.7064 12.6411 11.5248 13.3031 11.5292C13.6 11.5318 13.8386 11.7707 13.8359 12.0634C13.8332 12.3534 13.5928 12.587 13.2977 12.587C13.2878 12.587 13.278 12.587 13.2681 12.587C12.8869 12.587 12.7147 12.6743 12.4779 12.7942C12.1917 12.9388 11.8374 13.1186 11.1934 13.1186H11.1943Z" fill="#858585"/>
<path d="M9.50969 7.9852C9.45676 7.9852 9.40295 7.97726 9.35002 7.96139C9.06568 7.875 8.90782 7.57881 8.99572 7.29936C9.05761 7.10366 9.089 6.90002 9.089 6.69286C9.089 5.56537 8.15525 4.64769 7.00802 4.64769C5.86079 4.64769 4.92704 5.56537 4.92704 6.69286C4.92704 6.89914 4.95843 7.10278 5.01943 7.2976C5.10733 7.57704 4.94767 7.87324 4.66422 7.95875C4.37988 8.04514 4.0785 7.88911 3.99149 7.60966C3.89821 7.31346 3.85156 7.00493 3.85156 6.69286C3.85156 4.98179 5.26789 3.58984 7.00892 3.58984C8.74995 3.58984 10.1663 4.98179 10.1663 6.69286C10.1663 7.00669 10.1187 7.31611 10.0246 7.61319C9.95279 7.83974 9.74021 7.9852 9.51058 7.9852H9.50969Z" fill="#858585"/>
</g>
<defs>
<clipPath id="clip0_2_25717">
<rect width="14" height="13.125" fill="white"/>
</clipPath>
</defs>
</svg>
