<svg width="24" height="24" viewBox="0 0 24 24" fill="none" xmlns="http://www.w3.org/2000/svg">
<ellipse cx="12" cy="12" rx="12" ry="12" fill="#EDF7FF"/>
<g clip-path="url(#clip0_22368_9044)">
<path d="M17.8561 19.2004H6.14353C5.4025 19.2004 4.7998 18.5977 4.7998 17.8567V7.12303C4.7998 6.38199 5.4025 5.7793 6.14353 5.7793H17.8569C18.5979 5.7793 19.2006 6.38199 19.2006 7.12303V17.8567C19.2006 18.5977 18.5979 19.2004 17.8569 19.2004H17.8561ZM6.14353 6.91188C6.02704 6.91188 5.93239 7.00653 5.93239 7.12303V17.8567C5.93239 17.9732 6.02704 18.0678 6.14353 18.0678H17.8569C17.9734 18.0678 18.068 17.9732 18.068 17.8567V7.12303C18.068 7.00653 17.9734 6.91188 17.8569 6.91188H6.14353Z" fill="#1E54B0"/>
<path d="M8.74809 7.71925C8.48031 7.71925 8.2627 7.50163 8.2627 7.23386V5.44438C8.2627 5.1766 8.48031 4.95898 8.74809 4.95898C9.01586 4.95898 9.23348 5.1766 9.23348 5.44438V7.23386C9.23348 7.50163 9.01586 7.71925 8.74809 7.71925Z" fill="#1E54B0"/>
<path d="M16.5359 16.0352H15.0684C14.8006 16.0352 14.583 15.8176 14.583 15.5498C14.583 15.2821 14.8006 15.0645 15.0684 15.0645H16.5359C16.8037 15.0645 17.0213 15.2821 17.0213 15.5498C17.0213 15.8176 16.8037 16.0352 16.5359 16.0352Z" fill="#1E54B0"/>
<path d="M12.7234 16.0352H11.2559C10.9881 16.0352 10.7705 15.8176 10.7705 15.5498C10.7705 15.2821 10.9881 15.0645 11.2559 15.0645H12.7234C12.9912 15.0645 13.2088 15.2821 13.2088 15.5498C13.2088 15.8176 12.9912 16.0352 12.7234 16.0352Z" fill="#1E54B0"/>
<path d="M8.91286 16.0352H7.44535C7.17758 16.0352 6.95996 15.8176 6.95996 15.5498C6.95996 15.2821 7.17758 15.0645 7.44535 15.0645H8.91286C9.18063 15.0645 9.39825 15.2821 9.39825 15.5498C9.39825 15.8176 9.18063 16.0352 8.91286 16.0352Z" fill="#1E54B0"/>
<path d="M16.5359 13.255H15.0684C14.8006 13.255 14.583 13.0373 14.583 12.7696C14.583 12.5018 14.8006 12.2842 15.0684 12.2842H16.5359C16.8037 12.2842 17.0213 12.5018 17.0213 12.7696C17.0213 13.0373 16.8037 13.255 16.5359 13.255Z" fill="#1E54B0"/>
<path d="M12.7234 13.255H11.2559C10.9881 13.255 10.7705 13.0373 10.7705 12.7696C10.7705 12.5018 10.9881 12.2842 11.2559 12.2842H12.7234C12.9912 12.2842 13.2088 12.5018 13.2088 12.7696C13.2088 13.0373 12.9912 13.255 12.7234 13.255Z" fill="#1E54B0"/>
<path d="M8.91286 13.255H7.44535C7.17758 13.255 6.95996 13.0373 6.95996 12.7696C6.95996 12.5018 7.17758 12.2842 7.44535 12.2842H8.91286C9.18063 12.2842 9.39825 12.5018 9.39825 12.7696C9.39825 13.0373 9.18063 13.255 8.91286 13.255Z" fill="#1E54B0"/>
<path d="M15.1416 7.71925C14.8739 7.71925 14.6562 7.50163 14.6562 7.23386V5.44438C14.6562 5.1766 14.8739 4.95898 15.1416 4.95898C15.4094 4.95898 15.627 5.1766 15.627 5.44438V7.23386C15.627 7.50163 15.4094 7.71925 15.1416 7.71925Z" fill="#1E54B0"/>
<path d="M18.1103 10.0274H6.01274C5.74496 10.0274 5.52734 9.80981 5.52734 9.54203C5.52734 9.27426 5.74496 9.05664 6.01274 9.05664H18.1103C18.3781 9.05664 18.5957 9.27426 18.5957 9.54203C18.5957 9.80981 18.3781 10.0274 18.1103 10.0274Z" fill="#1E54B0"/>
</g>
<defs>
<clipPath id="clip0_22368_9044">
<rect width="14.4" height="14.2414" fill="white" transform="translate(4.7998 4.95898)"/>
</clipPath>
</defs>
</svg>
