<svg width="25" height="24" viewBox="0 0 25 24" fill="none" xmlns="http://www.w3.org/2000/svg">
<ellipse cx="12.8125" cy="12" rx="12" ry="12" fill="#EDF7FF"/>
<g clip-path="url(#clip0_15239_60274)">
<path d="M12.9736 10.8525C11.3396 10.8525 10.0107 9.54002 10.0107 7.92623C10.0107 6.31245 11.3396 5 12.9736 5C14.6075 5 15.9364 6.31245 15.9364 7.92623C15.9364 9.54002 14.6075 10.8525 12.9736 10.8525ZM12.9736 6.12764C11.9695 6.12764 11.1525 6.93453 11.1525 7.92623C11.1525 8.91793 11.9695 9.72482 12.9736 9.72482C13.9776 9.72482 14.7946 8.91793 14.7946 7.92623C14.7946 6.93453 13.9776 6.12764 12.9736 6.12764Z" fill="#1E54B0"/>
<path d="M18.3227 18.6852H7.30683C7.03725 18.6852 6.77719 18.5731 6.59324 18.3782C6.4093 18.1834 6.31542 17.919 6.33445 17.654C6.45243 16.0402 7.1787 14.5405 8.37943 13.4323C9.5865 12.3184 11.1615 11.7051 12.8145 11.7051C13.4145 11.7051 14.0082 11.7859 14.581 11.945C17.2044 12.6755 19.0985 14.9696 19.2945 17.654C19.3141 17.9196 19.2196 18.1834 19.0357 18.3782C18.8517 18.5731 18.5916 18.6852 18.3221 18.6852H18.3227ZM7.48951 17.5575H18.14C17.9104 15.4225 16.3754 13.6158 14.2714 13.0301C13.8002 12.8985 13.3098 12.8321 12.8151 12.8321C10.0813 12.8321 7.77621 14.8938 7.49014 17.5575H7.48951Z" fill="#1E54B0"/>
</g>
<defs>
<clipPath id="clip0_15239_60274">
<rect width="12.96" height="14.4" fill="white" transform="translate(6.33301 4.7998)"/>
</clipPath>
</defs>
</svg>
