<svg width="34" height="34" viewBox="0 0 34 34" fill="none" xmlns="http://www.w3.org/2000/svg">
<rect width="34" height="34" fill="#E5E5E5"/>
<g clip-path="url(#clip0_0_1)">
<rect width="1440" height="2772" transform="translate(-944 -411)" fill="white"/>
<rect x="-944" y="-312" width="1440" height="2362" fill="#E5EDF4" fill-opacity="0.4"/>
<mask id="path-2-inside-1_0_1" fill="white">
<path fill-rule="evenodd" clip-rule="evenodd" d="M-8 -292C-16.8366 -292 -24 -284.837 -24 -276V164L-15.5 179L-7.97143 165.714L0 179L9 164L17.5 179L26 164L34.5 179L43 164L51.5 179L60 164L69 179L78 164L86.5 179L95 164L103.5 179L112 164L120.5 179L129 164L138 179L147 164L155.5 179L164 164L172.5 179L181 164L189.5 179L198 164L206.5 179L215 164L224 179L233 164L241.5 179L250 164L258.5 179L267 164L275.5 179L284 164L293 179L302 164L310.5 179L319 164L327.5 179L336 164V-276C336 -284.837 328.837 -292 320 -292H-8Z"/>
</mask>
<path fill-rule="evenodd" clip-rule="evenodd" d="M-8 -292C-16.8366 -292 -24 -284.837 -24 -276V164L-15.5 179L-7.97143 165.714L0 179L9 164L17.5 179L26 164L34.5 179L43 164L51.5 179L60 164L69 179L78 164L86.5 179L95 164L103.5 179L112 164L120.5 179L129 164L138 179L147 164L155.5 179L164 164L172.5 179L181 164L189.5 179L198 164L206.5 179L215 164L224 179L233 164L241.5 179L250 164L258.5 179L267 164L275.5 179L284 164L293 179L302 164L310.5 179L319 164L327.5 179L336 164V-276C336 -284.837 328.837 -292 320 -292H-8Z" fill="#F1F5F9"/>
<path d="M-24 164H-25V164.264L-24.87 164.493L-24 164ZM-15.5 179L-16.37 179.493L-15.5 181.028L-14.63 179.493L-15.5 179ZM-7.97143 165.714L-7.11394 165.2L-7.99611 163.729L-8.84145 165.221L-7.97143 165.714ZM0 179L-0.857492 179.514L0 180.944L0.857492 179.514L0 179ZM9 164L9.87002 163.507L9.02468 162.015L8.14251 163.486L9 164ZM17.5 179L16.63 179.493L17.5 181.028L18.37 179.493L17.5 179ZM26 164L26.87 163.507L26 161.972L25.13 163.507L26 164ZM34.5 179L33.63 179.493L34.5 181.028L35.37 179.493L34.5 179ZM43 164L43.87 163.507L43 161.972L42.13 163.507L43 164ZM51.5 179L50.63 179.493L51.5 181.028L52.37 179.493L51.5 179ZM60 164L60.8575 163.486L59.9753 162.015L59.13 163.507L60 164ZM69 179L68.1425 179.514L69 180.944L69.8575 179.514L69 179ZM78 164L78.87 163.507L78.0247 162.015L77.1425 163.486L78 164ZM86.5 179L85.63 179.493L86.5 181.028L87.37 179.493L86.5 179ZM95 164L95.87 163.507L95 161.972L94.13 163.507L95 164ZM103.5 179L102.63 179.493L103.5 181.028L104.37 179.493L103.5 179ZM112 164L112.87 163.507L112 161.972L111.13 163.507L112 164ZM120.5 179L119.63 179.493L120.5 181.028L121.37 179.493L120.5 179ZM129 164L129.857 163.486L128.975 162.015L128.13 163.507L129 164ZM138 179L137.143 179.514L138 180.944L138.857 179.514L138 179ZM147 164L147.87 163.507L147.025 162.015L146.143 163.486L147 164ZM155.5 179L154.63 179.493L155.5 181.028L156.37 179.493L155.5 179ZM164 164L164.87 163.507L164 161.972L163.13 163.507L164 164ZM172.5 179L171.63 179.493L172.5 181.028L173.37 179.493L172.5 179ZM181 164L181.87 163.507L181 161.972L180.13 163.507L181 164ZM189.5 179L188.63 179.493L189.5 181.028L190.37 179.493L189.5 179ZM198 164L198.87 163.507L198 161.972L197.13 163.507L198 164ZM206.5 179L205.63 179.493L206.5 181.028L207.37 179.493L206.5 179ZM215 164L215.857 163.486L214.975 162.015L214.13 163.507L215 164ZM224 179L223.143 179.514L224 180.944L224.857 179.514L224 179ZM233 164L233.87 163.507L233.025 162.015L232.143 163.486L233 164ZM241.5 179L240.63 179.493L241.5 181.028L242.37 179.493L241.5 179ZM250 164L250.87 163.507L250 161.972L249.13 163.507L250 164ZM258.5 179L257.63 179.493L258.5 181.028L259.37 179.493L258.5 179ZM267 164L267.87 163.507L267 161.972L266.13 163.507L267 164ZM275.5 179L274.63 179.493L275.5 181.028L276.37 179.493L275.5 179ZM284 164L284.857 163.486L283.975 162.015L283.13 163.507L284 164ZM293 179L292.143 179.514L293 180.944L293.857 179.514L293 179ZM302 164L302.87 163.507L302.025 162.015L301.143 163.486L302 164ZM310.5 179L309.63 179.493L310.5 181.028L311.37 179.493L310.5 179ZM319 164L319.87 163.507L319 161.972L318.13 163.507L319 164ZM327.5 179L326.63 179.493L327.5 181.028L328.37 179.493L327.5 179ZM336 164L336.87 164.493L337 164.264V164H336ZM-23 -276C-23 -284.284 -16.2843 -291 -8 -291V-293C-17.3888 -293 -25 -285.389 -25 -276H-23ZM-23 164V-276H-25V164H-23ZM-14.63 178.507L-23.13 163.507L-24.87 164.493L-16.37 179.493L-14.63 178.507ZM-8.84145 165.221L-16.37 178.507L-14.63 179.493L-7.10141 166.207L-8.84145 165.221ZM0.857492 178.486L-7.11394 165.2L-8.82892 166.229L-0.857492 179.514L0.857492 178.486ZM8.14251 163.486L-0.857492 178.486L0.857492 179.514L9.85749 164.514L8.14251 163.486ZM18.37 178.507L9.87002 163.507L8.12998 164.493L16.63 179.493L18.37 178.507ZM25.13 163.507L16.63 178.507L18.37 179.493L26.87 164.493L25.13 163.507ZM35.37 178.507L26.87 163.507L25.13 164.493L33.63 179.493L35.37 178.507ZM42.13 163.507L33.63 178.507L35.37 179.493L43.87 164.493L42.13 163.507ZM52.37 178.507L43.87 163.507L42.13 164.493L50.63 179.493L52.37 178.507ZM59.13 163.507L50.63 178.507L52.37 179.493L60.87 164.493L59.13 163.507ZM69.8575 178.486L60.8575 163.486L59.1425 164.514L68.1425 179.514L69.8575 178.486ZM77.1425 163.486L68.1425 178.486L69.8575 179.514L78.8575 164.514L77.1425 163.486ZM87.37 178.507L78.87 163.507L77.13 164.493L85.63 179.493L87.37 178.507ZM94.13 163.507L85.63 178.507L87.37 179.493L95.87 164.493L94.13 163.507ZM104.37 178.507L95.87 163.507L94.13 164.493L102.63 179.493L104.37 178.507ZM111.13 163.507L102.63 178.507L104.37 179.493L112.87 164.493L111.13 163.507ZM121.37 178.507L112.87 163.507L111.13 164.493L119.63 179.493L121.37 178.507ZM128.13 163.507L119.63 178.507L121.37 179.493L129.87 164.493L128.13 163.507ZM138.857 178.486L129.857 163.486L128.143 164.514L137.143 179.514L138.857 178.486ZM146.143 163.486L137.143 178.486L138.857 179.514L147.857 164.514L146.143 163.486ZM156.37 178.507L147.87 163.507L146.13 164.493L154.63 179.493L156.37 178.507ZM163.13 163.507L154.63 178.507L156.37 179.493L164.87 164.493L163.13 163.507ZM173.37 178.507L164.87 163.507L163.13 164.493L171.63 179.493L173.37 178.507ZM180.13 163.507L171.63 178.507L173.37 179.493L181.87 164.493L180.13 163.507ZM190.37 178.507L181.87 163.507L180.13 164.493L188.63 179.493L190.37 178.507ZM197.13 163.507L188.63 178.507L190.37 179.493L198.87 164.493L197.13 163.507ZM207.37 178.507L198.87 163.507L197.13 164.493L205.63 179.493L207.37 178.507ZM214.13 163.507L205.63 178.507L207.37 179.493L215.87 164.493L214.13 163.507ZM224.857 178.486L215.857 163.486L214.143 164.514L223.143 179.514L224.857 178.486ZM232.143 163.486L223.143 178.486L224.857 179.514L233.857 164.514L232.143 163.486ZM242.37 178.507L233.87 163.507L232.13 164.493L240.63 179.493L242.37 178.507ZM249.13 163.507L240.63 178.507L242.37 179.493L250.87 164.493L249.13 163.507ZM259.37 178.507L250.87 163.507L249.13 164.493L257.63 179.493L259.37 178.507ZM266.13 163.507L257.63 178.507L259.37 179.493L267.87 164.493L266.13 163.507ZM276.37 178.507L267.87 163.507L266.13 164.493L274.63 179.493L276.37 178.507ZM283.13 163.507L274.63 178.507L276.37 179.493L284.87 164.493L283.13 163.507ZM293.857 178.486L284.857 163.486L283.143 164.514L292.143 179.514L293.857 178.486ZM301.143 163.486L292.143 178.486L293.857 179.514L302.857 164.514L301.143 163.486ZM311.37 178.507L302.87 163.507L301.13 164.493L309.63 179.493L311.37 178.507ZM318.13 163.507L309.63 178.507L311.37 179.493L319.87 164.493L318.13 163.507ZM328.37 178.507L319.87 163.507L318.13 164.493L326.63 179.493L328.37 178.507ZM335.13 163.507L326.63 178.507L328.37 179.493L336.87 164.493L335.13 163.507ZM335 -276V164H337V-276H335ZM320 -291C328.284 -291 335 -284.284 335 -276H337C337 -285.389 329.389 -293 320 -293V-291ZM-8 -291H320V-293H-8V-291Z" fill="#CFE1F2" mask="url(#path-2-inside-1_0_1)"/>
<g filter="url(#filter0_d_0_1)">
<rect x="-12" y="-6" width="336" height="60" rx="8" fill="#FAF8E7" fill-opacity="0.3" shape-rendering="crispEdges"/>
</g>
<circle cx="17" cy="17" r="17" fill="#F0ECC6"/>
<path fill-rule="evenodd" clip-rule="evenodd" d="M11 11C9.89543 11 9 11.8954 9 13V20.2979C9 21.4025 9.89543 22.2979 11 22.2979H20.8334C21.483 22.2979 22.0922 21.9824 22.467 21.4518L25.3605 17.3553C25.8954 16.5981 25.8398 15.5726 25.2262 14.8777L22.3995 11.6763C22.0199 11.2463 21.4739 11 20.9003 11H11ZM11 13H20.9003L23.7269 16.2014L20.8334 20.2979H11V13ZM20.8333 17.0721C21.2936 17.0721 21.6667 16.6936 21.6667 16.2266C21.6667 15.7596 21.2936 15.3811 20.8333 15.3811C20.3731 15.3811 20 15.7596 20 16.2266C20 16.6936 20.3731 17.0721 20.8333 17.0721Z" fill="#BCB04E"/>
</g>
<defs>
<filter id="filter0_d_0_1" x="-14" y="-8" width="340" height="64" filterUnits="userSpaceOnUse" color-interpolation-filters="sRGB">
<feFlood flood-opacity="0" result="BackgroundImageFix"/>
<feColorMatrix in="SourceAlpha" type="matrix" values="0 0 0 0 0 0 0 0 0 0 0 0 0 0 0 0 0 0 127 0" result="hardAlpha"/>
<feOffset/>
<feGaussianBlur stdDeviation="1"/>
<feComposite in2="hardAlpha" operator="out"/>
<feColorMatrix type="matrix" values="0 0 0 0 0 0 0 0 0 0 0 0 0 0 0 0 0 0 0.1 0"/>
<feBlend mode="normal" in2="BackgroundImageFix" result="effect1_dropShadow_0_1"/>
<feBlend mode="normal" in="SourceGraphic" in2="effect1_dropShadow_0_1" result="shape"/>
</filter>
<clipPath id="clip0_0_1">
<rect width="1440" height="2772" fill="white" transform="translate(-944 -411)"/>
</clipPath>
</defs>
</svg>
