<svg width="23" height="17" viewBox="0 0 23 17" fill="none" xmlns="http://www.w3.org/2000/svg">
<path d="M9.11549 15.9429C8.82766 15.9429 8.59375 15.7089 8.59375 15.4211V7.50807C8.59375 7.22024 8.82766 6.98633 9.11549 6.98633C9.40332 6.98633 9.63723 7.22024 9.63723 7.50807V15.4211C9.63723 15.7089 9.40332 15.9429 9.11549 15.9429Z" fill="#46B173"/>
<path d="M13.8967 15.9429C13.6089 15.9429 13.375 15.7089 13.375 15.4211V7.50807C13.375 7.22024 13.6089 6.98633 13.8967 6.98633C14.1846 6.98633 14.4185 7.22024 14.4185 7.50807V15.4211C14.4185 15.7089 14.1846 15.9429 13.8967 15.9429Z" fill="#46B173"/>
<path d="M18.6467 15.9429C18.3589 15.9429 18.125 15.7089 18.125 15.4211V7.50807C18.125 7.22024 18.3589 6.98633 18.6467 6.98633C18.9346 6.98633 19.1685 7.22024 19.1685 7.50807V15.4211C19.1685 15.7089 18.9346 15.9429 18.6467 15.9429Z" fill="#46B173"/>
<path d="M4.35768 15.9429C4.06985 15.9429 3.83594 15.7089 3.83594 15.4211V7.50807C3.83594 7.22024 4.06985 6.98633 4.35768 6.98633C4.6455 6.98633 4.87942 7.22024 4.87942 7.50807V15.4211C4.87942 15.7089 4.6455 15.9429 4.35768 15.9429Z" fill="#46B173"/>
<path d="M21.7204 8.03012H1.19349C0.959579 8.03012 0.753492 7.8736 0.690884 7.64838C0.628275 7.42317 0.723927 7.1823 0.924797 7.06143L11.1874 0.879687C11.3526 0.779687 11.5604 0.779687 11.7257 0.879687L21.9891 7.06143C22.19 7.1823 22.2857 7.4223 22.2231 7.64838C22.1604 7.87447 21.9544 8.03012 21.7204 8.03012ZM3.07088 6.98664H19.8431L11.457 1.93534L3.07088 6.98664Z" fill="#174E7F"/>
<path d="M21.8101 16.2036H1.20143C0.913601 16.2036 0.679688 15.9697 0.679688 15.6819C0.679688 15.3941 0.913601 15.1602 1.20143 15.1602H21.8101C22.0979 15.1602 22.3319 15.3941 22.3319 15.6819C22.3319 15.9697 22.0979 16.2036 21.8101 16.2036Z" fill="#174E7F"/>
</svg>
