<svg width="14" height="14" viewBox="0 0 14 14" fill="none" xmlns="http://www.w3.org/2000/svg">
<g clip-path="url(#clip0_2_25806)">
<path d="M7.46055 13.9996C3.34648 13.9996 0 10.6531 0 6.53907C0 3.8839 1.4309 1.40831 3.73365 0.0778294C3.96055 -0.0534809 4.24731 -0.0158257 4.43365 0.169554C4.61903 0.354933 4.65669 0.641691 4.52538 0.869553C3.97407 1.82445 3.68248 2.91259 3.68248 4.01714C3.68248 7.49204 6.50952 10.3191 9.98441 10.3191C11.089 10.3191 12.1771 10.0275 13.132 9.47617C13.3589 9.34486 13.6457 9.38252 13.832 9.5679C14.0174 9.75328 14.055 10.04 13.9237 10.2679C12.5932 12.5707 10.1167 14.0016 7.46152 14.0016L7.46055 13.9996ZM2.69572 2.42017C1.72055 3.55079 1.15862 5.00969 1.15862 6.53907C1.15862 10.014 3.98565 12.841 7.46055 12.841C8.98993 12.841 10.4498 12.2791 11.5794 11.3039C11.0571 11.4188 10.5222 11.4767 9.98345 11.4767C5.86938 11.4767 2.5229 8.13024 2.5229 4.01617C2.5229 3.47741 2.58179 2.94252 2.69572 2.42017Z" fill="#858585"/>
</g>
<defs>
<clipPath id="clip0_2_25806">
<rect width="14" height="14" fill="white"/>
</clipPath>
</defs>
</svg>
