<svg width="24" height="24" viewBox="0 0 24 24" fill="none" xmlns="http://www.w3.org/2000/svg">
<ellipse cx="12" cy="12" rx="12" ry="12" fill="#EDF7FF"/>
<g clip-path="url(#clip0_22368_9157)">
<path d="M19.1998 19.1998H4.7998V10.0313C4.80772 9.25827 5.45255 8.61897 6.23743 8.60473L11.0448 8.52244L11.0543 5.93756C11.0567 5.31172 11.5678 4.80139 12.1937 4.7998H17.6174C18.4901 4.7998 19.1998 5.50952 19.1998 6.38222V19.1998ZM6.06574 17.9339H17.9339V6.38222C17.9339 6.20737 17.7922 6.06574 17.6174 6.06574H12.3195L12.31 8.52719C12.3076 9.21079 11.749 9.77651 11.0662 9.78838L6.25879 9.87066C6.15515 9.87224 6.06574 9.95216 6.06495 10.0439V10.0526V17.9331L6.06574 17.9339Z" fill="#1E54B0"/>
<path d="M14.4061 14.848C14.5667 14.848 14.6972 14.9785 14.6972 15.1391V17.9337H9.29328V15.1391C9.29328 14.9785 9.42383 14.848 9.58444 14.848H14.4061ZM14.4061 13.582H9.58444C8.72598 13.582 8.02734 14.2807 8.02734 15.1391V17.9337C8.02734 18.6331 8.59385 19.1996 9.29328 19.1996H14.698C15.3975 19.1996 15.964 18.6331 15.964 17.9337V15.1391C15.964 14.2807 15.2653 13.582 14.4069 13.582H14.4061Z" fill="#1E54B0"/>
</g>
<defs>
<clipPath id="clip0_22368_9157">
<rect width="14.4" height="14.4" fill="white" transform="translate(4.7998 4.7998)"/>
</clipPath>
</defs>
</svg>
