<svg width="24" height="24" viewBox="0 0 24 24" fill="none" xmlns="http://www.w3.org/2000/svg">
<g id="Layer_2">
<g id="Group 2611463">
<path id="Vector" d="M17.5308 4.59799C17.1125 4.59799 16.7695 4.25879 16.7695 3.83668V0.761306C16.7695 0.342965 17.1087 0 17.5308 0C17.9529 0 18.2921 0.339196 18.2921 0.761306V3.84045C18.2921 4.25879 17.9529 4.60176 17.5308 4.60176V4.59799Z" fill="#1E54B0"/>
<path id="Vector_2" d="M6.88631 4.59799C6.46796 4.59799 6.125 4.25879 6.125 3.83668V0.761306C6.125 0.342965 6.4642 0 6.88631 0C7.30842 0 7.64761 0.339196 7.64761 0.761306V3.84045C7.64761 4.25879 7.30842 4.60176 6.88631 4.60176V4.59799Z" fill="#1E54B0"/>
<path id="Vector_3" d="M12.1597 4.59799C11.7414 4.59799 11.3984 4.25879 11.3984 3.83668V0.761306C11.3984 0.342965 11.7376 0 12.1597 0C12.5819 0 12.9211 0.339196 12.9211 0.761306V3.84045C12.9211 4.25879 12.5819 4.60176 12.1597 4.60176V4.59799Z" fill="#1E54B0"/>
<path id="Vector_4" d="M17.7897 14.3405H6.99568C6.57734 14.3405 6.23438 14.0013 6.23438 13.5792C6.23438 13.1571 6.57357 12.8179 6.99568 12.8179H17.7897C18.208 12.8179 18.551 13.1571 18.551 13.5792C18.551 14.0013 18.2118 14.3405 17.7897 14.3405Z" fill="#1E54B0"/>
<path id="Vector_5" d="M17.6568 9.11295H6.86287C6.44453 9.11295 6.10156 8.77375 6.10156 8.35164C6.10156 7.92953 6.44076 7.59033 6.86287 7.59033H17.6568C18.0752 7.59033 18.4181 7.92953 18.4181 8.35164C18.4181 8.77375 18.0789 9.11295 17.6568 9.11295Z" fill="#1E54B0"/>
<path id="Vector_6" d="M17.6568 19.4699H6.86287C6.44453 19.4699 6.10156 19.1307 6.10156 18.7086C6.10156 18.2865 6.44076 17.9473 6.86287 17.9473H17.6568C18.0752 17.9473 18.4181 18.2865 18.4181 18.7086C18.4181 19.1307 18.0789 19.4699 17.6568 19.4699Z" fill="#1E54B0"/>
<path id="Vector_7" d="M19.4487 23.9999H4.82557C3.48763 23.9999 2.39844 22.9107 2.39844 21.5728V3.93837C2.39844 2.60043 3.48763 1.51123 4.82557 1.51123H19.4487C20.7866 1.51123 21.8758 2.60043 21.8758 3.93837V21.5728C21.8758 22.9107 20.7866 23.9999 19.4487 23.9999ZM4.82557 3.03384C4.32432 3.03384 3.92105 3.44088 3.92105 3.93837V21.5728C3.92105 22.074 4.32809 22.4773 4.82557 22.4773H19.4487C19.9499 22.4773 20.3532 22.0703 20.3532 21.5728V3.93837C20.3532 3.43711 19.9462 3.03384 19.4487 3.03384H4.82557Z" fill="#1E54B0"/>
</g>
</g>
</svg>
