<svg width="24" height="24" viewBox="0 0 24 24" fill="none" xmlns="http://www.w3.org/2000/svg">
<path d="M17.5318 4.59799C17.1135 4.59799 16.7705 4.25879 16.7705 3.83668V0.761306C16.7705 0.342965 17.1097 0 17.5318 0C17.9539 0 18.2931 0.339196 18.2931 0.761306V3.84045C18.2931 4.25879 17.9539 4.60176 17.5318 4.60176V4.59799Z" fill="#1E54B0"/>
<path d="M6.88826 4.59799C6.46992 4.59799 6.12695 4.25879 6.12695 3.83668V0.761306C6.12695 0.342965 6.46615 0 6.88826 0C7.31037 0 7.64957 0.339196 7.64957 0.761306V3.84045C7.64957 4.25879 7.31037 4.60176 6.88826 4.60176V4.59799Z" fill="#1E54B0"/>
<path d="M12.1612 4.59799C11.7429 4.59799 11.3999 4.25879 11.3999 3.83668V0.761306C11.3999 0.342965 11.7391 0 12.1612 0C12.5833 0 12.9225 0.339196 12.9225 0.761306V3.84045C12.9225 4.25879 12.5833 4.60176 12.1612 4.60176V4.59799Z" fill="#1E54B0"/>
<path d="M17.7921 14.341H6.99812C6.57978 14.341 6.23682 14.0018 6.23682 13.5797C6.23682 13.1576 6.57601 12.8184 6.99812 12.8184H17.7921C18.2104 12.8184 18.5534 13.1576 18.5534 13.5797C18.5534 14.0018 18.2142 14.341 17.7921 14.341Z" fill="#1E54B0"/>
<path d="M17.6603 9.11246H6.86629C6.44795 9.11246 6.10498 8.77326 6.10498 8.35115C6.10498 7.92904 6.44418 7.58984 6.86629 7.58984H17.6603C18.0786 7.58984 18.4216 7.92904 18.4216 8.35115C18.4216 8.77326 18.0824 9.11246 17.6603 9.11246Z" fill="#1E54B0"/>
<path d="M17.6603 19.4699H6.86629C6.44795 19.4699 6.10498 19.1307 6.10498 18.7086C6.10498 18.2865 6.44418 17.9473 6.86629 17.9473H17.6603C18.0786 17.9473 18.4216 18.2865 18.4216 18.7086C18.4216 19.1307 18.0824 19.4699 17.6603 19.4699Z" fill="#1E54B0"/>
<path d="M19.4502 24.0004H4.82704C3.4891 24.0004 2.3999 22.9112 2.3999 21.5733V3.93885C2.3999 2.60091 3.4891 1.51172 4.82704 1.51172H19.4502C20.7881 1.51172 21.8773 2.60091 21.8773 3.93885V21.5733C21.8773 22.9112 20.7881 24.0004 19.4502 24.0004ZM4.82704 3.03433C4.32578 3.03433 3.92252 3.44137 3.92252 3.93885V21.5733C3.92252 22.0745 4.32955 22.4778 4.82704 22.4778H19.4502C19.9514 22.4778 20.3547 22.0708 20.3547 21.5733V3.93885C20.3547 3.4376 19.9476 3.03433 19.4502 3.03433H4.82704Z" fill="#1E54B0"/>
</svg>
