<svg width="33" height="32" viewBox="0 0 33 32" fill="none" xmlns="http://www.w3.org/2000/svg">
<g clip-path="url(#clip0_1504_22565)">
<path d="M16.5558 26.8336C14.9027 26.8336 13.5586 25.5102 13.5586 23.8827C13.5586 23.1412 13.8395 22.4316 14.3487 21.8861L15.6672 23.0795C15.4623 23.2987 15.3493 23.5841 15.3493 23.8827C15.3493 24.5384 15.891 25.0706 16.5558 25.0706C17.2206 25.0706 17.7623 24.5373 17.7623 23.8827C17.7623 23.5654 17.6369 23.2668 17.4086 23.0431L18.6744 21.7969C19.2407 22.3544 19.5519 23.0949 19.5519 23.8838C19.5519 25.5113 18.2077 26.8347 16.5547 26.8347L16.5558 26.8336Z" fill="#3398D5"/>
<path d="M25.6045 23.282H25.6023L7.39297 23.2269C7.06728 23.2269 6.76734 23.0506 6.61065 22.7696C6.45396 22.4886 6.46404 22.1459 6.63863 21.8749L8.53231 18.9218C8.66773 18.7102 8.73936 18.4656 8.73936 18.2155V13.6493C8.73936 9.43237 12.2256 6 16.5099 6H16.5234C20.8076 6 24.2939 9.43237 24.2939 13.6504V18.2331C24.2939 18.4766 24.3622 18.7157 24.492 18.9229L26.3689 21.941C26.5379 22.2131 26.5446 22.5547 26.3857 22.8335C26.2268 23.1112 25.9291 23.2831 25.6056 23.2831L25.6045 23.282ZM9.01692 21.4694L24.004 21.5145L22.9643 19.843C22.6621 19.3581 22.5032 18.8006 22.5032 18.232V13.6493C22.5032 10.4031 19.8205 7.76191 16.5234 7.76191H16.5099C13.2128 7.76191 10.5301 10.4031 10.5301 13.6493V18.2155C10.5301 18.7995 10.3622 19.3692 10.0466 19.8628L9.01692 21.4694Z" fill="#3398D5"/>
</g>
<circle cx="24.5" cy="8" r="6" fill="#CC1100" stroke="white" stroke-width="2"/>
<defs>
<clipPath id="clip0_1504_22565">
<rect width="20" height="20.8333" fill="white" transform="translate(6.5 6)"/>
</clipPath>
</defs>
</svg>
