<svg width="32" height="32" viewBox="0 0 32 32" fill="none" xmlns="http://www.w3.org/2000/svg">
<g clip-path="url(#clip0_25273_10998)">
<path d="M16.0558 26.8331C14.4027 26.8331 13.0586 25.5097 13.0586 23.8823C13.0586 23.1407 13.3395 22.4311 13.8487 21.8856L15.1672 23.079C14.9623 23.2983 14.8493 23.5836 14.8493 23.8823C14.8493 24.5379 15.391 25.0701 16.0558 25.0701C16.7206 25.0701 17.2623 24.5368 17.2623 23.8823C17.2623 23.5649 17.1369 23.2663 16.9086 23.0426L18.1744 21.7964C18.7407 22.3539 19.0519 23.0944 19.0519 23.8834C19.0519 25.5108 17.7077 26.8342 16.0547 26.8342L16.0558 26.8331Z" fill="white"/>
<path d="M25.1045 23.282H25.1023L6.89297 23.2269C6.56728 23.2269 6.26734 23.0506 6.11065 22.7696C5.95396 22.4886 5.96404 22.1459 6.13863 21.8749L8.03231 18.9218C8.16773 18.7102 8.23936 18.4656 8.23936 18.2155V13.6493C8.23936 9.43237 11.7256 6 16.0099 6H16.0234C20.3076 6 23.7939 9.43237 23.7939 13.6504V18.2331C23.7939 18.4766 23.8622 18.7157 23.992 18.9229L25.8689 21.941C26.0379 22.2131 26.0446 22.5547 25.8857 22.8335C25.7268 23.1112 25.4291 23.2831 25.1056 23.2831L25.1045 23.282ZM8.51692 21.4694L23.504 21.5145L22.4643 19.843C22.1621 19.3581 22.0032 18.8006 22.0032 18.232V13.6493C22.0032 10.4031 19.3205 7.76191 16.0234 7.76191H16.0099C12.7128 7.76191 10.0301 10.4031 10.0301 13.6493V18.2155C10.0301 18.7995 9.86219 19.3692 9.54658 19.8628L8.51692 21.4694Z" fill="white"/>
</g>
<circle cx="24" cy="8" r="6" fill="#CC1100" stroke="#174E7F" stroke-width="2"/>
<defs>
<clipPath id="clip0_25273_10998">
<rect width="20" height="20.8333" fill="white" transform="translate(6 6)"/>
</clipPath>
</defs>
</svg>
