<svg width="24" height="23" viewBox="0 0 24 23" fill="none" xmlns="http://www.w3.org/2000/svg">
<g clip-path="url(#clip0_10712_68692)">
<path d="M12.3449 0.215102L15.7547 7.16551C15.7824 7.22195 15.8234 7.27074 15.8741 7.30765C15.9248 7.34456 15.9837 7.36847 16.0456 7.37731L23.6693 8.49194C23.7404 8.50235 23.8071 8.53255 23.8621 8.57913C23.917 8.62572 23.9578 8.68682 23.9801 8.75555C24.0023 8.82428 24.0049 8.89788 23.9877 8.96804C23.9705 9.03821 23.9341 9.10213 23.8827 9.1526L18.3656 14.5629C18.3209 14.6067 18.2874 14.6608 18.268 14.7205C18.2487 14.7802 18.2442 14.8438 18.2547 14.9057L19.5573 22.5464C19.5693 22.6177 19.5614 22.6909 19.5343 22.7578C19.5072 22.8248 19.462 22.8827 19.4039 22.9252C19.3458 22.9677 19.277 22.993 19.2054 22.9983C19.1337 23.0036 19.062 22.9886 18.9984 22.955L12.1787 19.3481C12.1234 19.3189 12.0619 19.3037 11.9995 19.3037C11.937 19.3037 11.8755 19.3189 11.8202 19.3481L5.00055 22.955C4.93691 22.9886 4.86521 23.0036 4.79356 22.9983C4.7219 22.993 4.65313 22.9677 4.595 22.9252C4.53688 22.8827 4.49172 22.8248 4.46462 22.7578C4.43752 22.6909 4.42956 22.6177 4.44164 22.5464L5.74491 14.9057C5.75549 14.8438 5.75091 14.7802 5.73159 14.7205C5.71227 14.6608 5.67877 14.6067 5.634 14.5629L0.116182 9.1526C0.064762 9.10213 0.0283973 9.03821 0.0111991 8.96804C-0.00599923 8.89788 -0.00334557 8.82428 0.0188595 8.75555C0.0410646 8.68682 0.0819362 8.62572 0.136855 8.57913C0.191774 8.53255 0.25855 8.50235 0.329637 8.49194L7.95436 7.37731C8.01632 7.36847 8.0752 7.34456 8.12589 7.30765C8.17658 7.27074 8.21756 7.22195 8.24527 7.16551L11.6551 0.215102C11.687 0.150502 11.7362 0.096141 11.7971 0.0581381C11.858 0.0201352 11.9283 0 12 0C12.0717 0 12.142 0.0201352 12.2029 0.0581381C12.2638 0.096141 12.313 0.150502 12.3449 0.215102Z" fill="#6FCDB0"/>
<path d="M11.9984 1.82031L8.95987 7.74133C8.88123 7.89396 8.76567 8.02423 8.62382 8.12013C8.48198 8.21602 8.31843 8.27445 8.14824 8.29005L1.55078 8.89693L8.52133 9.22616C8.73701 9.23612 8.95027 9.17686 9.13028 9.05692C9.3103 8.93698 9.44775 8.76259 9.52278 8.55892L11.9984 1.82031Z" fill="#A6F1DA"/>
<path d="M4.5928 21.6646L4.44298 22.5426C4.43091 22.6138 4.43887 22.6871 4.46597 22.754C4.49307 22.8209 4.53823 22.8789 4.59635 22.9214C4.65447 22.9639 4.72324 22.9892 4.7949 22.9945C4.86656 22.9997 4.93825 22.9847 5.00189 22.9512L11.8215 19.3443C11.8768 19.3151 11.9383 19.2998 12.0008 19.2998C12.0633 19.2998 12.1248 19.3151 12.1801 19.3443L18.9997 22.9512C19.0631 22.9845 19.1345 22.9994 19.2059 22.9943C19.2773 22.9891 19.3458 22.964 19.4039 22.9219C19.4619 22.8797 19.5071 22.8221 19.5344 22.7556C19.5617 22.6891 19.5701 22.6162 19.5586 22.5451L18.2553 14.9044C18.2448 14.8425 18.2493 14.779 18.2687 14.7193C18.288 14.6595 18.3215 14.6055 18.3663 14.5617L23.8833 9.15133C23.9348 9.10087 23.9711 9.03695 23.9883 8.96678C24.0055 8.89662 24.0029 8.82301 23.9807 8.75429C23.9585 8.68556 23.9176 8.62446 23.8627 8.57787C23.8078 8.53129 23.741 8.50109 23.6699 8.49068L21.1161 8.11719C16.9863 15.5746 10.6612 19.5005 4.5928 21.6646Z" fill="#48B392"/>
</g>
<defs>
<clipPath id="clip0_10712_68692">
<rect width="24" height="23" fill="white"/>
</clipPath>
</defs>
</svg>
