<svg width="144" height="24" viewBox="0 0 144 24" fill="none" xmlns="http://www.w3.org/2000/svg">
<path fill-rule="evenodd" clip-rule="evenodd" d="M48.539 17.8677V19.9725C48.539 20.4325 48.3786 20.7152 47.7903 20.7152H37.0961C36.5078 20.7152 36.3477 20.4325 36.3477 19.9725V4.65505C36.3477 4.07125 36.6328 3.91211 37.0961 3.91211H39.645C40.1086 3.91211 40.3933 4.07125 40.3933 4.65505V17.1248H47.8082C48.3964 17.1248 48.539 17.3904 48.539 17.8677Z" fill="#454545"/>
<path fill-rule="evenodd" clip-rule="evenodd" d="M81.1563 17.8699V19.9747C81.1563 20.4347 80.9956 20.7173 80.4076 20.7173H69.1785C68.5189 20.7173 68.3945 20.5936 68.3945 19.9747V17.9583C68.3945 17.3745 68.733 17.0032 68.733 17.0032L75.6843 7.46956H69.3926C68.8043 7.46956 68.6439 7.18665 68.6439 6.72662V4.62185C68.6439 4.16183 68.8043 3.87891 69.3926 3.87891H79.748C80.3361 3.87891 80.4967 4.16183 80.4967 4.62185V6.60285C80.4967 6.93881 80.4433 7.25738 80.1582 7.59334L73.2604 17.0914H80.4076C80.9956 17.1269 81.1563 17.3925 81.1563 17.8699Z" fill="#454545"/>
<path fill-rule="evenodd" clip-rule="evenodd" d="M97.9814 4.61973L92.6885 14.4009V19.9726C92.6885 20.5564 92.4032 20.7153 91.9397 20.7153H89.3909C88.8918 20.7153 88.6421 20.5564 88.6421 19.9726V14.4009L83.1169 4.61973C82.9921 4.33682 83.0634 3.91215 83.527 3.91215H86.4858C87.0737 3.91215 87.3235 3.9652 87.6977 4.69046L90.7274 10.1737L93.6326 4.69046C93.9719 4.01824 94.2212 3.91215 94.8089 3.91215H97.5899C98.0885 3.87679 98.1065 4.31913 97.9814 4.61973Z" fill="#454545"/>
<path fill-rule="evenodd" clip-rule="evenodd" d="M109.869 9.87313C109.869 8.5464 108.996 7.4675 107 7.4675H104.54V12.2254H107C108.996 12.2608 109.869 11.1819 109.869 9.87313ZM113.755 9.82007C113.755 13.3754 111.385 15.7277 106.982 15.7277H104.522V19.9726C104.522 20.5564 104.237 20.7155 103.773 20.7155H101.224C100.761 20.7155 100.477 20.5564 100.477 19.9726V4.65544C100.477 4.19541 100.637 3.9125 101.224 3.9125H107.018C111.42 3.87684 113.755 6.30017 113.755 9.82007Z" fill="#454545"/>
<path fill-rule="evenodd" clip-rule="evenodd" d="M141.954 4.61973L136.661 14.4009V19.9726C136.661 20.5564 136.376 20.7153 135.912 20.7153H133.364C132.864 20.7153 132.615 20.5564 132.615 19.9726V14.4009L127.09 4.61973C126.965 4.33682 127.036 3.91215 127.5 3.91215H130.458C131.046 3.91215 131.296 3.9652 131.671 4.69046L134.7 10.1737L137.605 4.69046C137.945 4.01824 138.194 3.91215 138.782 3.91215H141.563C142.044 3.87679 142.079 4.31913 141.954 4.61973Z" fill="#454545"/>
<path fill-rule="evenodd" clip-rule="evenodd" d="M50.5697 19.9373L56.0595 4.65526C56.3625 4.00072 56.5585 3.87695 57.1111 3.87695H59.5706C60.1233 3.87695 60.3193 3.96536 60.6223 4.65526L66.1477 19.9373C66.2725 20.2733 66.1834 20.6803 65.6844 20.6803H62.8147C62.1552 20.6803 61.977 20.4681 61.7629 19.8843L58.3052 9.30714L54.8476 19.8843C54.6335 20.5032 54.4731 20.6803 53.7604 20.6803H51.0508C50.5341 20.6803 50.445 20.2733 50.5697 19.9373Z" fill="#454545"/>
<path fill-rule="evenodd" clip-rule="evenodd" d="M112.918 19.9373L118.407 4.65526C118.71 4.00072 118.906 3.87695 119.459 3.87695H121.918C122.471 3.87695 122.667 3.96536 122.97 4.65526L128.495 19.9373C128.62 20.2733 128.531 20.6803 128.031 20.6803H125.162C124.502 20.6803 124.324 20.4681 124.111 19.8843L120.652 9.30714L117.195 19.8843C116.981 20.5032 116.821 20.6803 116.108 20.6803H113.398C112.882 20.6803 112.792 20.2733 112.918 19.9373Z" fill="#454545"/>
<path fill-rule="evenodd" clip-rule="evenodd" d="M2.80327 21.4261C2.09053 21.4261 1.89453 21.0899 1.89453 20.524V5.24192C1.89453 4.53434 2.23308 4.33984 2.80327 4.33984H5.88702C6.4394 4.33984 6.79576 4.51666 6.79576 5.24192V17.0571" fill="#EE3362"/>
<path fill-rule="evenodd" clip-rule="evenodd" d="M2.80351 2.92241L21.5365 9.57296C22.3384 9.94428 22.4634 10.1567 22.4634 10.8463V13.8179C22.4634 14.49 22.3384 14.7202 21.5365 15.0915L2.80351 21.7771C2.39369 21.9366 1.89478 21.8126 1.89478 21.2291V17.7978C1.89478 17.0018 2.14394 16.772 2.8929 16.5241L15.8326 12.3146L2.8929 8.06939C2.14394 7.82183 1.89478 7.60965 1.89478 6.7783V3.50621C1.91231 2.88704 2.41151 2.76327 2.80351 2.92241Z" fill="#111333"/>
<path fill-rule="evenodd" clip-rule="evenodd" d="M9.45143 2.92241L28.1845 9.57296C28.9866 9.94428 29.1113 10.1567 29.1113 10.8463V13.8179C29.1113 14.49 28.9866 14.7202 28.1845 15.0915L9.45143 21.7771C9.04166 21.9366 8.54272 21.8126 8.54272 21.2291V17.7978C8.54272 17.0018 8.79189 16.772 9.54089 16.5241L22.4805 12.3146L9.54089 8.06939C8.79219 7.82183 8.54272 7.60965 8.54272 6.7783V3.50621C8.54272 2.88704 9.04166 2.76327 9.45143 2.92241Z" fill="#EE3362"/>
</svg>
