<svg width="30" height="10" viewBox="0 0 30 10" fill="none" xmlns="http://www.w3.org/2000/svg">
<g clip-path="url(#clip0_2_31563)">
<path d="M19.3477 0.211032C19.4189 0.210213 19.4906 0.209394 19.5627 0.208984C19.5619 0.279424 19.5614 0.349864 19.561 0.420304C19.493 0.418666 19.4251 0.416619 19.3571 0.414979C19.3538 0.346996 19.3509 0.279014 19.3477 0.211032Z" fill="white"/>
<path d="M19.7578 0.209079C19.8303 0.208669 19.9028 0.20785 19.9753 0.207031C19.974 0.277471 19.9732 0.347911 19.9724 0.418351C19.902 0.417941 19.8319 0.417531 19.7623 0.417531C19.7607 0.347911 19.759 0.278699 19.7578 0.209079Z" fill="white"/>
<path d="M20.6133 0.207031C20.6854 0.20785 20.7578 0.20826 20.8307 0.208669C20.8291 0.27829 20.8283 0.347501 20.8275 0.416713C20.757 0.417531 20.6866 0.41794 20.6166 0.41876C20.6153 0.34832 20.6141 0.27788 20.6133 0.207031Z" fill="white"/>
<path d="M21.8516 0.208984C21.9343 0.209394 22.0178 0.210213 22.101 0.212261C22.0961 0.277786 22.0899 0.343311 22.0817 0.408426C22.0068 0.419076 21.931 0.418666 21.8557 0.421534C21.854 0.350684 21.8528 0.279834 21.8516 0.208984Z" fill="white"/>
<path d="M22.293 0.208669C22.363 0.20785 22.433 0.207441 22.5039 0.207031C22.5031 0.277472 22.5026 0.347502 22.5026 0.417942C22.4334 0.417122 22.3646 0.416302 22.2958 0.415895C22.2946 0.346682 22.2938 0.27788 22.293 0.208669Z" fill="white"/>
<path d="M22.707 0.209898C22.7779 0.209079 22.8492 0.20826 22.9208 0.207031C22.9196 0.278291 22.9192 0.349141 22.9188 0.420398C22.8487 0.418761 22.7791 0.41753 22.7095 0.416303C22.7087 0.347501 22.7079 0.278701 22.707 0.209898Z" fill="white"/>
<path d="M23.1172 0.211946C23.1888 0.210308 23.2609 0.208669 23.333 0.207031C23.3305 0.278291 23.3289 0.349141 23.3269 0.420398C23.2572 0.419581 23.188 0.418761 23.1188 0.417941C23.118 0.349548 23.1176 0.280748 23.1172 0.211946Z" fill="white"/>
<path d="M23.5625 0.207031C23.6333 0.20826 23.7046 0.209489 23.7759 0.210717C23.7734 0.27911 23.7714 0.347502 23.7693 0.415484C23.7001 0.417122 23.6313 0.41876 23.5629 0.420807C23.5625 0.34955 23.5625 0.278289 23.5625 0.207031Z" fill="white"/>
<path d="M24.793 0.21308C24.8749 0.211032 24.9568 0.209803 25.0392 0.208984C25.038 0.277785 25.037 0.346587 25.0367 0.4158C24.965 0.417027 24.8937 0.418255 24.8229 0.419485C24.8114 0.350682 24.8016 0.281882 24.793 0.21308Z" fill="white"/>
<path d="M25.2031 0.211098C25.2871 0.210689 25.3714 0.211098 25.4561 0.211917C25.4526 0.277034 25.4476 0.342149 25.4411 0.406857C25.3764 0.415457 25.3116 0.422417 25.2469 0.427332C25.2314 0.355254 25.2161 0.283177 25.2031 0.211098Z" fill="white"/>
<path d="M25.6523 0.207031C25.7221 0.20785 25.7921 0.208669 25.8621 0.209898C25.8608 0.278699 25.8601 0.347501 25.8596 0.416714C25.7908 0.417121 25.7223 0.417941 25.6543 0.418351C25.6536 0.347911 25.6528 0.277471 25.6523 0.207031Z" fill="white"/>
<path d="M26.4727 0.215631C26.5447 0.212355 26.6172 0.209488 26.6897 0.207031C26.6879 0.277882 26.6867 0.348319 26.6854 0.418759C26.6404 0.419169 26.5499 0.420399 26.5049 0.420807C26.4932 0.352417 26.4817 0.284024 26.4727 0.215631Z" fill="white"/>
<path d="M26.918 0.207031C26.9917 0.209488 27.0657 0.211536 27.1402 0.214403C27.1355 0.27911 27.1285 0.343407 27.1197 0.407702C27.0547 0.416302 26.99 0.422854 26.9252 0.427769C26.9225 0.354054 26.92 0.280747 26.918 0.207031Z" fill="white"/>
<path d="M27.3331 0.208984C27.4051 0.211851 27.4776 0.214308 27.5501 0.217175C27.5476 0.285977 27.5456 0.355187 27.5436 0.42399C27.4716 0.422762 27.3999 0.421122 27.3281 0.420305C27.3299 0.349865 27.3314 0.279425 27.3331 0.208984Z" fill="white"/>
<path d="M20.2031 0.207031C20.2752 0.209488 20.3473 0.211946 20.4198 0.214813C20.4071 0.283614 20.394 0.352824 20.3804 0.421627C20.3366 0.420399 20.2494 0.418759 20.2056 0.417532C20.2043 0.347502 20.2039 0.277472 20.2031 0.207031Z" fill="white"/>
<path d="M21.0234 0.208984C21.0947 0.209394 21.1664 0.210213 21.238 0.211032C21.2368 0.279833 21.236 0.349045 21.2352 0.417848C21.1659 0.418255 21.0967 0.418255 21.0275 0.418665C21.0259 0.348635 21.0247 0.278605 21.0234 0.208984Z" fill="white"/>
<path d="M21.4688 0.207441C21.5199 0.207441 21.6223 0.207031 21.6731 0.207031C21.6694 0.27788 21.6637 0.34832 21.6579 0.41917C21.6117 0.41835 21.5195 0.417122 21.4732 0.416302C21.4716 0.346682 21.47 0.277062 21.4688 0.207441Z" fill="white"/>
<path d="M23.9688 0.208984C24.0416 0.209803 24.1145 0.210622 24.1878 0.211441C24.1866 0.280244 24.1854 0.349454 24.185 0.418256C24.1137 0.418666 24.0429 0.418666 23.972 0.419076C23.9704 0.349046 23.9696 0.279014 23.9688 0.208984Z" fill="white"/>
<path d="M24.3867 0.211757C24.4563 0.211347 24.526 0.210938 24.596 0.210938C24.5956 0.280149 24.596 0.349769 24.5964 0.419392C24.5268 0.419392 24.4576 0.419391 24.3884 0.419799C24.388 0.350179 24.3867 0.280969 24.3867 0.211757Z" fill="white"/>
<path d="M26.0664 0.210717C26.1364 0.209488 26.2064 0.20826 26.2769 0.207031C26.2757 0.277471 26.2744 0.348321 26.2739 0.418761C26.2052 0.417531 26.1372 0.416304 26.0697 0.415484C26.0679 0.347091 26.0672 0.279109 26.0664 0.210717Z" fill="white"/>
<path d="M18.9297 0.288653C18.9989 0.271043 19.0685 0.254253 19.139 0.238281C19.1435 0.312406 19.1484 0.386533 19.1529 0.460658C19.0849 0.462296 19.0173 0.463933 18.9498 0.464753C18.9448 0.420523 18.9346 0.332473 18.9297 0.288653Z" fill="white"/>
<path d="M27.7344 0.496161C27.7474 0.424901 27.7626 0.354053 27.7789 0.283203C27.8409 0.302041 27.9026 0.320881 27.9654 0.340128C27.9591 0.382311 27.9476 0.466673 27.9419 0.509266C27.8724 0.505581 27.8031 0.501076 27.7344 0.496161Z" fill="white"/>
<path d="M18.5156 0.606039C18.5848 0.548294 18.6557 0.492189 18.7302 0.441406C18.7691 0.502426 18.8072 0.564266 18.8437 0.627334C18.7847 0.649859 18.7282 0.737909 18.661 0.694089C18.6106 0.667879 18.5635 0.635934 18.5156 0.606039Z" fill="white"/>
<path d="M28.0938 0.614007C28.1178 0.555035 28.1425 0.496473 28.1675 0.4375C28.2382 0.4719 28.31 0.505892 28.3805 0.54234C28.3423 0.601722 28.305 0.661105 28.267 0.720078C28.2093 0.684448 28.151 0.649227 28.0938 0.614007Z" fill="white"/>
<path d="M28.5224 0.703579C28.5936 0.676141 28.6444 0.744124 28.6841 0.792449C28.7201 0.898109 28.5531 1.01933 28.4814 0.910394C28.3921 0.856336 28.4561 0.746171 28.5224 0.703579Z" fill="white"/>
<path d="M18.4114 0.820312C18.479 0.842017 18.5466 0.864132 18.6149 0.88461C18.6104 0.94604 18.6063 1.00706 18.6027 1.06849C18.524 1.07013 18.4454 1.07054 18.3672 1.07095C18.3811 0.987402 18.3963 0.903857 18.4114 0.820312Z" fill="white"/>
<path d="M28.6797 1.12403C28.7444 1.07734 28.8092 1.03106 28.8742 0.984375C28.9229 1.05973 28.9684 1.13836 28.9869 1.22723C28.9177 1.23378 28.8484 1.23992 28.7799 1.24484C28.7464 1.20429 28.7132 1.16375 28.6797 1.12403Z" fill="white"/>
<path d="M18.3672 1.48482C18.3684 1.40292 18.37 1.3206 18.3729 1.23828C18.4401 1.25139 18.5072 1.26531 18.5748 1.27842C18.5728 1.34599 18.5711 1.41356 18.5703 1.48114C18.5023 1.48236 18.4348 1.48359 18.3672 1.48482Z" fill="white"/>
<path d="M28.9297 1.421C28.9954 1.40011 29.0619 1.37799 29.1282 1.35547C29.1494 1.43533 29.1719 1.51478 29.1912 1.59546C29.1212 1.60365 29.0517 1.61184 28.9819 1.6188C28.9644 1.55287 28.9464 1.48693 28.9297 1.421Z" fill="white"/>
<path d="M18.3692 1.6875C18.436 1.68955 18.5023 1.69159 18.5695 1.69364C18.5707 1.76162 18.5719 1.82961 18.5736 1.89718C18.5048 1.89923 18.4356 1.90087 18.3672 1.90251C18.3676 1.83084 18.3684 1.75917 18.3692 1.6875Z" fill="white"/>
<path d="M29.1044 1.82825C29.1504 1.80163 29.1997 1.77993 29.2482 1.75781C29.2704 1.8303 29.2929 1.90238 29.3154 1.97487C29.2434 1.99207 29.1717 2.00886 29.0999 2.02442C29.1024 1.96012 29.0819 1.88886 29.1044 1.82825Z" fill="white"/>
<path d="M18.368 2.09375C18.4352 2.09539 18.5028 2.09744 18.5703 2.09908C18.5707 2.1687 18.5716 2.23791 18.5728 2.30753C18.504 2.30958 18.4356 2.31121 18.3672 2.31285C18.3672 2.23995 18.3676 2.16665 18.368 2.09375Z" fill="white"/>
<path d="M29.125 2.21289C29.1705 2.2133 29.2612 2.21371 29.3067 2.21412C29.3055 2.28538 29.3042 2.35623 29.3035 2.42749C29.2592 2.4279 29.1705 2.42831 29.1262 2.42831C29.1252 2.35664 29.125 2.28456 29.125 2.21289Z" fill="white"/>
<path d="M18.3673 2.50586C18.4353 2.51733 18.5037 2.53003 18.5716 2.54396C18.5712 2.58653 18.5708 2.67131 18.5704 2.71391C18.5032 2.72866 18.4361 2.74338 18.3693 2.75773C18.3677 2.67378 18.3669 2.58981 18.3673 2.50586Z" fill="white"/>
<path d="M29.1055 2.62921C29.182 2.62881 29.2595 2.62881 29.3367 2.62921C29.3347 2.69801 29.3335 2.76681 29.3327 2.83561C29.2572 2.83683 29.1827 2.83766 29.1082 2.83766C29.107 2.76803 29.1062 2.69883 29.1055 2.62921Z" fill="white"/>
<path d="M18.3672 2.94922C18.4348 2.95084 18.5028 2.95289 18.5707 2.95494C18.5703 3.02457 18.5703 3.09459 18.5703 3.16422C18.5028 3.16504 18.4356 3.16584 18.3684 3.16667C18.3676 3.09419 18.3672 3.02169 18.3672 2.94922Z" fill="white"/>
<path d="M18.368 3.36328C18.436 3.36451 18.504 3.36616 18.5724 3.36778C18.5724 3.43661 18.5724 3.50498 18.5732 3.57338C18.5044 3.57501 18.4356 3.57626 18.3672 3.57748C18.3672 3.50621 18.3676 3.43456 18.368 3.36328Z" fill="white"/>
<path d="M18.3697 3.77344C18.4327 3.77999 18.4958 3.78614 18.5597 3.79269C18.5666 3.85656 18.5732 3.92129 18.5793 3.98556C18.5085 3.98804 18.4376 3.99009 18.3672 3.99214C18.3676 3.91924 18.368 3.84634 18.3697 3.77344Z" fill="white"/>
<path d="M25.9009 4.02015C26.0341 3.95013 26.1929 3.9579 26.3371 3.98208C26.5999 4.07053 26.8161 4.33223 26.8004 4.61768C26.8004 4.8679 26.6294 5.0788 26.4259 5.20658C26.2506 5.2377 26.0626 5.26145 25.8939 5.19143C25.6866 5.09518 25.5634 4.87525 25.5324 4.65615C25.5169 4.39898 25.6654 4.13115 25.9009 4.02015ZM25.9059 4.35105C25.7839 4.44975 25.8226 4.6148 25.8181 4.75158C25.8944 4.83268 25.9701 4.92728 26.0856 4.9502C26.3114 5.01983 26.5456 4.80278 26.5169 4.57385C26.5276 4.4563 26.4371 4.37073 26.3759 4.28185C26.2184 4.22738 26.0254 4.20978 25.9059 4.35105Z" fill="white"/>
<path d="M18.3674 4.18359C18.4346 4.19464 18.5026 4.20774 18.5693 4.22332C18.5698 4.26877 18.5706 4.36049 18.571 4.40597C18.5034 4.41824 18.4358 4.43012 18.3683 4.44159C18.367 4.35559 18.367 4.26959 18.3674 4.18359Z" fill="white"/>
<path d="M18.3672 4.62891C18.4364 4.63013 18.506 4.63136 18.5756 4.63301C18.5724 4.69976 18.5695 4.76651 18.5662 4.83326C18.5007 4.83531 18.4348 4.83776 18.3692 4.84063C18.3684 4.76978 18.3676 4.69936 18.3672 4.62891Z" fill="white"/>
<path d="M18.3672 5.04688C18.4348 5.0481 18.5019 5.04975 18.5699 5.05137C18.5699 5.11812 18.5699 5.18448 18.5703 5.25122C18.5028 5.25288 18.4356 5.25492 18.3688 5.25697C18.368 5.18692 18.3676 5.1169 18.3672 5.04688Z" fill="white"/>
<path d="M18.3633 5.45508C18.4325 5.45548 18.5021 5.4563 18.5717 5.45753C18.5726 5.52633 18.5734 5.59513 18.575 5.66393C18.5079 5.66515 18.421 5.72945 18.3739 5.65575C18.3678 5.58898 18.3645 5.52183 18.3633 5.45508Z" fill="white"/>
<path d="M18.3705 5.89648C18.438 5.89773 18.506 5.89936 18.5744 5.90101C18.574 5.94401 18.5728 6.03041 18.5724 6.07383C18.5036 6.07546 18.4356 6.07711 18.3672 6.07873C18.368 6.01813 18.3692 5.95711 18.3705 5.89648Z" fill="white"/>
<path d="M18.3672 6.30859C18.4352 6.30942 18.5036 6.31024 18.5724 6.31104C18.5732 6.35652 18.5752 6.44742 18.576 6.49289C18.5097 6.50639 18.4421 6.51664 18.3754 6.52564C18.3725 6.45317 18.3696 6.38067 18.3672 6.30859Z" fill="white"/>
<path d="M29.1289 6.61139C29.1289 6.54014 29.1292 6.46929 29.1309 6.39844C29.1752 6.39966 29.2639 6.40254 29.3082 6.40376C29.3082 6.47174 29.3087 6.53971 29.3092 6.60811C29.2639 6.60894 29.1739 6.61056 29.1289 6.61139Z" fill="white"/>
<path d="M18.3672 6.7207C18.4352 6.72193 18.5035 6.72315 18.5719 6.72478C18.5711 6.79358 18.5707 6.86198 18.5707 6.93078C18.5031 6.93283 18.436 6.93488 18.3688 6.93693C18.368 6.86485 18.3676 6.79278 18.3672 6.7207Z" fill="white"/>
<path d="M29.1309 6.81455C29.1892 6.81373 29.2477 6.81332 29.3069 6.8125C29.3087 6.88295 29.3099 6.95298 29.3119 7.02383C29.2662 7.02423 29.1747 7.02505 29.1289 7.02545C29.1289 6.95503 29.1292 6.88458 29.1309 6.81455Z" fill="white"/>
<path d="M18.3725 7.12695C18.4347 7.1339 18.4966 7.1425 18.5588 7.15233C18.5678 7.21458 18.5752 7.27765 18.581 7.34073C18.5097 7.34195 18.4384 7.34318 18.3672 7.344C18.3684 7.2715 18.3705 7.19903 18.3725 7.12695Z" fill="white"/>
<path d="M29.125 7.25391C29.1865 7.25431 29.248 7.25513 29.3102 7.25596C29.3072 7.32393 29.3045 7.39191 29.3025 7.46031C29.2455 7.46071 29.189 7.46153 29.133 7.46236C29.1295 7.39273 29.1272 7.32311 29.125 7.25391Z" fill="white"/>
<path d="M18.3672 7.54883C18.4335 7.55088 18.4999 7.55253 18.5666 7.55458C18.5699 7.62173 18.5732 7.6889 18.5764 7.75605C18.5085 7.7708 18.4401 7.78433 18.3721 7.7966C18.3696 7.71388 18.3684 7.63155 18.3672 7.54883Z" fill="white"/>
<path d="M29.0977 7.66424C29.1654 7.66381 29.2334 7.66424 29.3019 7.66464C29.3014 7.73959 29.3012 7.81411 29.3007 7.88906C29.2392 7.86654 29.1472 7.89194 29.1074 7.82926C29.1049 7.78791 29.0999 7.70519 29.0977 7.66424Z" fill="white"/>
<path d="M18.3594 7.99023C18.4294 7.99063 18.4999 7.99106 18.5703 7.99228C18.5711 8.03528 18.5736 8.12168 18.5748 8.16511C18.5085 8.16878 18.4163 8.23718 18.375 8.15528C18.3709 8.11391 18.3635 8.03158 18.3594 7.99023Z" fill="white"/>
<path d="M29.0337 8.02734C29.0977 8.04782 29.1609 8.06954 29.2254 8.09002C29.2074 8.16127 29.1882 8.23212 29.1704 8.30379C29.1037 8.28127 29.0382 8.25752 28.9727 8.23334C28.9934 8.16497 29.0139 8.09657 29.0337 8.02734Z" fill="white"/>
<path d="M18.3672 8.39844C18.4348 8.40049 18.5028 8.40211 18.5707 8.40416C18.5703 8.47174 18.5703 8.53931 18.5703 8.60689C18.5028 8.60851 18.4352 8.61016 18.368 8.61179C18.3676 8.54054 18.3672 8.46969 18.3672 8.39844Z" fill="white"/>
<path d="M28.8603 8.43945C28.9156 8.44438 28.9696 8.44888 29.0258 8.45378C29.0286 8.55003 28.9976 8.63848 28.9283 8.70648C28.8711 8.6565 28.8143 8.60735 28.7578 8.5578C28.7918 8.5185 28.8263 8.47918 28.8603 8.43945Z" fill="white"/>
<path d="M28.6343 8.76528C28.7151 8.75135 28.7576 8.83123 28.8068 8.87873C28.7426 8.92868 28.6328 9.05155 28.5591 8.94793C28.4848 8.88693 28.5346 8.7485 28.6343 8.76528Z" fill="white"/>
<path d="M18.3867 8.81861C18.4617 8.81329 18.537 8.80836 18.6128 8.80469C18.6308 8.85834 18.6455 8.91321 18.657 8.96931C18.5976 9.01109 18.5259 9.02501 18.4563 9.03934C18.4313 8.96604 18.4076 8.89274 18.3867 8.81861Z" fill="white"/>
<path d="M28.2188 9.06305C28.2933 9.02905 28.372 9.0225 28.4457 9.06387C28.446 9.10357 28.447 9.18345 28.4473 9.22317C28.3933 9.24365 28.3388 9.26125 28.2835 9.27682C28.2278 9.21907 28.2303 9.13675 28.2188 9.06305Z" fill="white"/>
<path d="M18.6094 9.24833C18.6557 9.20983 18.7032 9.17338 18.7527 9.13898C18.8256 9.13326 18.8666 9.20778 18.9231 9.24136C18.8825 9.29011 18.8444 9.34088 18.799 9.38511C18.7109 9.40108 18.6716 9.29011 18.6094 9.24833Z" fill="white"/>
<path d="M27.8203 9.29957C27.8868 9.26352 27.9548 9.23074 28.0231 9.19922C28.0441 9.26967 28.0653 9.34092 28.0828 9.41259C28.0158 9.43019 27.9493 9.44944 27.8836 9.46909C27.8626 9.41259 27.8413 9.35567 27.8203 9.29957Z" fill="white"/>
<path d="M21.1137 9.35938C21.1911 9.3602 21.2694 9.36103 21.3472 9.36225C21.3484 9.43678 21.3492 9.51213 21.3505 9.58708C21.2714 9.58748 21.1924 9.58747 21.1137 9.58747C21.1133 9.5113 21.1129 9.43515 21.1137 9.35938Z" fill="white"/>
<path d="M27.4102 9.36819C27.4944 9.35674 27.5789 9.34689 27.6637 9.33789C27.6649 9.40587 27.6662 9.47427 27.6664 9.54267C27.5969 9.54757 27.5272 9.55249 27.4579 9.55739C27.4579 9.52752 27.4577 9.46732 27.4572 9.43699C27.4457 9.41979 27.4219 9.38539 27.4102 9.36819Z" fill="white"/>
<path d="M19.0039 9.51102C19.0236 9.45369 19.0441 9.39677 19.0649 9.33984C19.1088 9.34394 19.196 9.35254 19.2394 9.35662C19.2357 9.42667 19.232 9.49709 19.2283 9.56754C19.1526 9.54992 19.078 9.53109 19.0039 9.51102Z" fill="white"/>
<path d="M19.4609 9.375C19.5347 9.37828 19.6088 9.38195 19.6829 9.38645C19.6686 9.45403 19.6747 9.52898 19.637 9.58958C19.5797 9.58878 19.5232 9.58468 19.4675 9.5773C19.465 9.50973 19.4626 9.44258 19.4609 9.375Z" fill="white"/>
<path d="M19.8398 9.38883C19.9246 9.3835 20.0098 9.37983 20.095 9.37695C20.0897 9.44575 20.088 9.51498 20.077 9.58338C20.0041 9.5891 19.9312 9.5895 19.8591 9.58173C19.8505 9.51743 19.8443 9.45313 19.8398 9.38883Z" fill="white"/>
<path d="M20.2979 9.38112C20.3683 9.38072 20.4388 9.38072 20.5096 9.38152C20.4916 9.45155 20.517 9.54412 20.4486 9.59202C20.3962 9.5822 20.3441 9.57032 20.293 9.55722C20.2942 9.513 20.2966 9.42495 20.2979 9.38112Z" fill="white"/>
<path d="M20.6992 9.37891C20.7832 9.38056 20.8675 9.38261 20.9519 9.38628C20.9347 9.45346 20.9175 9.52061 20.9015 9.58818C20.8368 9.58696 20.7721 9.58613 20.7078 9.58573C20.7045 9.51651 20.7017 9.44771 20.6992 9.37891Z" fill="white"/>
<path d="M22.3789 9.38148C22.4493 9.37983 22.5202 9.3782 22.5915 9.37695C22.5898 9.4478 22.5882 9.51865 22.5869 9.5895C22.519 9.58745 22.451 9.58623 22.3834 9.585C22.3818 9.51703 22.3801 9.44905 22.3789 9.38148Z" fill="white"/>
<path d="M23.208 9.38373C23.2899 9.38168 23.3718 9.38086 23.4542 9.38086C23.4365 9.45131 23.4677 9.54713 23.3952 9.59381C23.3301 9.58643 23.267 9.57006 23.2031 9.55736C23.2044 9.51396 23.2068 9.42713 23.208 9.38373Z" fill="white"/>
<path d="M23.6406 9.38096C23.7131 9.38013 23.786 9.37933 23.8589 9.37891C23.8581 9.44363 23.8573 9.50833 23.8569 9.57343C23.7881 9.58081 23.7193 9.58736 23.6517 9.59473C23.6476 9.52348 23.6439 9.45223 23.6406 9.38096Z" fill="white"/>
<path d="M24.0637 9.37891C24.1468 9.38056 24.2304 9.38341 24.3139 9.38873C24.2963 9.45673 24.2808 9.52593 24.2607 9.59351C24.1936 9.58531 24.128 9.57098 24.0625 9.55748C24.0625 9.51283 24.0633 9.42356 24.0637 9.37891Z" fill="white"/>
<path d="M24.4755 9.38369C24.5579 9.38246 24.6398 9.38246 24.7225 9.38409C24.7053 9.45249 24.7323 9.54464 24.6631 9.59009C24.5984 9.58354 24.5357 9.56961 24.4727 9.55774C24.4735 9.51431 24.4751 9.42709 24.4755 9.38369Z" fill="white"/>
<path d="M24.9141 9.37891C24.9857 9.37891 25.0574 9.37891 25.1294 9.37933C25.1279 9.44566 25.1267 9.51161 25.1254 9.57836C25.0557 9.57713 24.9861 9.57836 24.9173 9.58368C24.9165 9.53248 24.9149 9.43011 24.9141 9.37891Z" fill="white"/>
<path d="M25.3203 9.37109C25.3946 9.37847 25.4691 9.37847 25.5441 9.37192C25.5418 9.44644 25.5403 9.52099 25.5378 9.59552C25.4716 9.59224 25.4051 9.58692 25.3396 9.57954C25.3268 9.51074 25.3248 9.44072 25.3203 9.37109Z" fill="white"/>
<path d="M25.7344 9.38291C25.8151 9.38251 25.8961 9.38334 25.9776 9.38539C25.9764 9.44026 25.9756 9.49514 25.9756 9.55041C25.9116 9.56556 25.8481 9.58236 25.7844 9.59384C25.7224 9.54141 25.7496 9.45214 25.7344 9.38291Z" fill="white"/>
<path d="M26.1795 9.37891C26.2547 9.37973 26.3303 9.38138 26.406 9.38383C26.3873 9.45303 26.41 9.54478 26.3417 9.59106C26.2757 9.59311 26.204 9.59311 26.1562 9.54231C26.1607 9.48743 26.1685 9.43298 26.1795 9.37891Z" fill="white"/>
<path d="M26.5859 9.37891C26.6597 9.37973 26.7334 9.38056 26.8074 9.38178C26.8052 9.45018 26.8029 9.51816 26.8014 9.58656C26.7317 9.58738 26.6627 9.58818 26.5937 9.58941C26.5909 9.51898 26.5879 9.44896 26.5859 9.37891Z" fill="white"/>
<path d="M27 9.37973C27.0845 9.37973 27.1683 9.37891 27.2533 9.37891C27.2535 9.42641 27.2543 9.52103 27.2548 9.56853C27.1785 9.58246 27.1012 9.59311 27.025 9.58163C27.012 9.51488 27.0037 9.44771 27 9.37973Z" fill="white"/>
<path d="M21.5547 9.37891C21.6239 9.37973 21.6931 9.38096 21.7627 9.38218C21.764 9.42766 21.766 9.51776 21.7672 9.56321C21.6997 9.57713 21.6313 9.58818 21.5637 9.59801C21.5604 9.52471 21.5576 9.45181 21.5547 9.37891Z" fill="white"/>
<path d="M21.9692 9.38136C22.0412 9.38056 22.1137 9.37973 22.1866 9.37891C22.1829 9.45141 22.1793 9.52348 22.1756 9.59596C22.106 9.58818 22.0372 9.57998 21.9688 9.56811C21.9688 9.52143 21.9692 9.42806 21.9692 9.38136Z" fill="white"/>
<path d="M22.8203 9.37891C22.8952 9.38013 22.9706 9.38138 23.046 9.38341C23.0271 9.44813 23.0476 9.53248 22.9907 9.58163C22.9518 9.58531 22.874 9.59311 22.835 9.59678C22.8293 9.52431 22.8244 9.45141 22.8203 9.37891Z" fill="white"/>
<path d="M18.1676 0.931037C18.1479 0.468672 18.5263 0.0112241 19.0002 0.00139531C21.5127 0.00180484 24.0256 0.000166709 26.538 0.00262391C27.0963 -0.00515724 27.6545 0.00508111 28.2123 0.0239197C28.2118 0.0296533 28.2105 0.04112 28.2103 0.046444C28.2008 0.0575015 28.1815 0.0792068 28.172 0.0898548C28.103 0.0845308 28.0345 0.0800258 27.966 0.0759305C28.3708 0.121389 28.714 0.36588 29.0133 0.624705C29.3603 1.01335 29.6133 1.50971 29.63 2.03842C29.637 2.38488 29.6305 2.73175 29.6313 3.07862C28.2173 3.08395 26.803 3.07658 25.389 3.08028C25.087 3.07578 24.8 3.27645 24.6911 3.55575C24.6186 3.72242 24.6333 3.90835 24.6317 4.08607C24.6374 4.53697 24.6276 4.98787 24.6345 5.43878C24.635 5.6755 24.764 5.8991 24.9581 6.03177C25.1268 6.16202 25.3475 6.18657 25.5543 6.1874C26.647 6.18412 27.7393 6.187 28.8318 6.18577C29.0985 6.18045 29.3655 6.17798 29.6325 6.18988C29.63 6.703 29.6343 7.21615 29.632 7.7293C29.6325 8.1462 29.5018 8.56025 29.263 8.9018C29.0813 9.23065 28.7668 9.45467 28.4458 9.63445C28.2535 9.74012 28.0373 9.7872 27.8285 9.8466C26.0343 9.86297 24.2381 9.84945 22.4431 9.85398C21.2817 9.8507 20.1198 9.8593 18.9584 9.84905C18.5939 9.84455 18.2941 9.54352 18.1983 9.2073C18.141 8.9788 18.1746 8.74207 18.1676 8.50988C18.1668 5.98345 18.1639 3.45745 18.1676 0.931037ZM19.3471 0.211077C19.3503 0.27906 19.3532 0.347043 19.3565 0.415025C19.4245 0.416662 19.4924 0.41871 19.5604 0.420348C19.5608 0.349908 19.5612 0.27947 19.5621 0.209029C19.49 0.209439 19.4183 0.210258 19.3471 0.211077ZM19.7558 0.209439C19.757 0.27906 19.7586 0.34827 19.7603 0.417892C19.8299 0.417892 19.8999 0.4183 19.9704 0.41871C19.9712 0.34827 19.972 0.27783 19.9732 0.207391C19.9007 0.20821 19.8283 0.209029 19.7558 0.209439ZM20.6133 0.206981C20.6142 0.27783 20.6154 0.34827 20.6166 0.41871C20.6866 0.417892 20.7571 0.417483 20.8275 0.416663C20.8283 0.347453 20.8292 0.27824 20.8308 0.20862C20.7579 0.20821 20.6854 0.207801 20.6133 0.206981ZM21.8509 0.20862C21.8522 0.27947 21.8534 0.350317 21.855 0.421167C21.9304 0.4183 22.0062 0.41871 22.0811 0.408062C22.0893 0.342947 22.0954 0.27742 22.1004 0.211896C22.0172 0.209848 21.9337 0.209029 21.8509 0.20862ZM22.2937 0.209848C22.2945 0.27906 22.2953 0.34786 22.2965 0.417073C22.3653 0.417482 22.4341 0.4183 22.5033 0.41912C22.5033 0.34868 22.5037 0.27865 22.5046 0.20821C22.4337 0.20862 22.3637 0.209029 22.2937 0.209848ZM22.7073 0.209848C22.7081 0.27865 22.7089 0.347452 22.7097 0.416252C22.7794 0.417482 22.849 0.41871 22.919 0.420348C22.9194 0.34909 22.9198 0.27824 22.9211 0.206981C22.8494 0.20821 22.7781 0.209029 22.7073 0.209848ZM23.1189 0.211896C23.1193 0.280697 23.1197 0.3495 23.1205 0.417892C23.1897 0.41871 23.2589 0.41953 23.3285 0.420348C23.3306 0.34909 23.3322 0.27824 23.3347 0.206981C23.2626 0.20862 23.1905 0.210258 23.1189 0.211896ZM23.5599 0.2078C23.5599 0.27906 23.5599 0.350318 23.5603 0.421578C23.6287 0.41953 23.6975 0.417892 23.7667 0.416252C23.7688 0.34827 23.7708 0.279877 23.7733 0.211486C23.702 0.210258 23.6308 0.209029 23.5599 0.2078ZM24.7943 0.213943C24.8029 0.282745 24.8127 0.351548 24.8242 0.420348C24.895 0.41912 24.9663 0.417893 25.038 0.416663C25.0383 0.347453 25.0393 0.27865 25.0405 0.209848C24.9581 0.210667 24.8762 0.211896 24.7943 0.213943ZM25.2018 0.211896C25.2148 0.283975 25.23 0.356053 25.2455 0.42813C25.3103 0.423215 25.375 0.416252 25.4398 0.407652C25.4463 0.342947 25.4513 0.27783 25.4548 0.212715C25.37 0.211896 25.2858 0.211486 25.2018 0.211896ZM25.653 0.207391C25.6535 0.27783 25.6543 0.34827 25.655 0.41871C25.723 0.4183 25.7915 0.417482 25.8603 0.417073C25.8608 0.34786 25.8615 0.27906 25.8628 0.210258C25.7928 0.209029 25.7228 0.20821 25.653 0.207391ZM26.4743 0.214353C26.4833 0.282745 26.4948 0.351138 26.5065 0.41953C26.5515 0.41912 26.642 0.417892 26.687 0.417482C26.6883 0.347043 26.6895 0.276603 26.6913 0.205753C26.6188 0.20821 26.5463 0.211077 26.4743 0.214353ZM26.9178 0.206162C26.9198 0.279877 26.9223 0.353185 26.925 0.4269C26.9898 0.421988 27.0545 0.415435 27.1195 0.406835C27.1283 0.342537 27.1353 0.27824 27.14 0.213534C27.0655 0.210667 26.9915 0.208619 26.9178 0.206162ZM27.3318 0.209439C27.33 0.279878 27.3285 0.350318 27.3268 0.420758C27.3985 0.421578 27.4703 0.423215 27.5423 0.424445C27.5443 0.355642 27.5463 0.28643 27.5488 0.217629C27.4763 0.214763 27.4038 0.212305 27.3318 0.209439ZM20.2022 0.205753C20.203 0.276192 20.2034 0.346222 20.2046 0.416252C20.2484 0.417482 20.3357 0.41912 20.3795 0.420348C20.393 0.351548 20.4061 0.282335 20.4188 0.213534C20.3463 0.210667 20.2742 0.20821 20.2022 0.205753ZM21.0229 0.20821C21.0241 0.27783 21.0253 0.34786 21.027 0.417892C21.0962 0.417482 21.1654 0.417482 21.2346 0.417073C21.2354 0.34827 21.2362 0.27906 21.2375 0.210258C21.1658 0.209439 21.0941 0.20862 21.0229 0.20821ZM21.4676 0.20862C21.4689 0.27824 21.4705 0.34786 21.4721 0.417482C21.5184 0.4183 21.6106 0.41953 21.6568 0.420348C21.6626 0.3495 21.6683 0.27906 21.672 0.20821C21.6212 0.20821 21.5188 0.20862 21.4676 0.20862ZM23.9682 0.20862C23.9691 0.27865 23.9699 0.34868 23.9715 0.41871C24.0424 0.4183 24.1132 0.4183 24.1845 0.417892C24.1849 0.34909 24.1861 0.279877 24.1873 0.211077C24.114 0.210258 24.0411 0.209439 23.9682 0.20862ZM24.3872 0.211077C24.3872 0.280288 24.3884 0.3495 24.3888 0.41912C24.458 0.41871 24.5273 0.41871 24.5969 0.41871C24.5965 0.34909 24.5961 0.27947 24.5965 0.210258C24.5264 0.210258 24.4568 0.210667 24.3872 0.211077ZM26.068 0.211077C26.0688 0.27947 26.0695 0.347453 26.0713 0.415843C26.1388 0.416663 26.2068 0.417893 26.2755 0.41912C26.276 0.34868 26.2773 0.27783 26.2785 0.207391C26.208 0.208619 26.138 0.209848 26.068 0.211077ZM18.9289 0.288888C18.9338 0.332707 18.9441 0.420757 18.949 0.464987C19.0166 0.464167 19.0841 0.46253 19.1521 0.460892C19.1476 0.386768 19.1427 0.31264 19.1382 0.238515C19.0678 0.254487 18.9981 0.271277 18.9289 0.288888ZM27.7328 0.496112C27.8015 0.501028 27.8708 0.505533 27.9403 0.509218C27.946 0.466625 27.9575 0.382262 27.9638 0.34008C27.901 0.320832 27.8393 0.301993 27.7773 0.283155C27.761 0.354005 27.7458 0.424852 27.7328 0.496112ZM18.5161 0.605048C18.564 0.634945 18.6111 0.666887 18.6615 0.693097C18.7287 0.736917 18.7852 0.648867 18.8441 0.626345C18.8077 0.563275 18.7696 0.501437 18.7307 0.440415C18.6562 0.491197 18.5853 0.547305 18.5161 0.605048ZM28.0948 0.615287C28.152 0.650508 28.2103 0.685728 28.268 0.721355C28.306 0.662383 28.3433 0.603 28.3813 0.543617C28.311 0.50717 28.2393 0.473177 28.1685 0.438778C28.1435 0.49775 28.1188 0.556315 28.0948 0.615287ZM28.5235 0.703337C28.4573 0.745928 28.3933 0.856093 28.4825 0.91015C28.5543 1.01909 28.7213 0.897865 28.6853 0.792205C28.6455 0.74388 28.5948 0.675897 28.5235 0.703337ZM18.4113 0.820463C18.3961 0.904008 18.381 0.987553 18.367 1.0711C18.4453 1.07069 18.5239 1.07028 18.6025 1.06864C18.6062 1.00721 18.6103 0.94619 18.6148 0.88476C18.5464 0.864283 18.4788 0.842167 18.4113 0.820463ZM28.6808 1.12475C28.7143 1.16447 28.7475 1.20502 28.781 1.24556C28.8495 1.24065 28.9188 1.2345 28.988 1.22795C28.9695 1.13908 28.924 1.06045 28.8753 0.985095C28.8103 1.03178 28.7455 1.07806 28.6808 1.12475ZM18.367 1.48555C18.4346 1.48432 18.5022 1.48309 18.5702 1.48186C18.571 1.41429 18.5726 1.34671 18.5747 1.27914C18.5071 1.26603 18.4399 1.25211 18.3728 1.23901C18.3699 1.32132 18.3683 1.40364 18.367 1.48555ZM28.929 1.42084C28.9458 1.48678 28.9638 1.55271 28.9813 1.61864C29.051 1.61168 29.1205 1.60349 29.1905 1.5953C29.1713 1.51462 29.1488 1.43517 29.1275 1.35531C29.0613 1.37784 28.9948 1.39995 28.929 1.42084ZM18.3695 1.68663C18.3687 1.7583 18.3679 1.82996 18.3675 1.90163C18.4358 1.9 18.5051 1.89836 18.5739 1.89631C18.5722 1.82873 18.571 1.76075 18.5698 1.69277C18.5026 1.69072 18.4363 1.68868 18.3695 1.68663ZM29.1033 1.82751C29.0808 1.88812 29.1013 1.95938 29.0988 2.02367C29.1705 2.00811 29.2423 1.99132 29.3143 1.97412C29.2918 1.90163 29.2693 1.82955 29.247 1.75707C29.1985 1.77918 29.1493 1.80089 29.1033 1.82751ZM18.3687 2.09412C18.3683 2.16701 18.3679 2.24032 18.3679 2.31322C18.4363 2.31158 18.5046 2.30994 18.5734 2.30789C18.5722 2.23827 18.5714 2.16906 18.571 2.09944C18.5034 2.0978 18.4358 2.09575 18.3687 2.09412ZM29.128 2.2137C29.128 2.28537 29.1283 2.35745 29.1293 2.42911C29.1735 2.42911 29.2623 2.4287 29.3065 2.42829C29.3073 2.35703 29.3085 2.28619 29.3098 2.21493C29.2643 2.21452 29.1735 2.21411 29.128 2.2137ZM18.3695 2.5057C18.3691 2.58965 18.3699 2.6736 18.3715 2.75755C18.4383 2.74323 18.5055 2.72847 18.5726 2.71375C18.573 2.67115 18.5734 2.58637 18.5739 2.54378C18.5059 2.52985 18.4375 2.51718 18.3695 2.5057ZM29.1055 2.62772C29.1063 2.69735 29.107 2.76658 29.1083 2.8362C29.1828 2.8362 29.2573 2.83538 29.3328 2.83415C29.3335 2.76535 29.3348 2.69655 29.3368 2.62772C29.2595 2.62732 29.182 2.62732 29.1055 2.62772ZM18.3683 2.95045C18.3683 3.02292 18.3687 3.09543 18.3695 3.1679C18.4367 3.1671 18.5038 3.16628 18.5714 3.16545C18.5714 3.09583 18.5714 3.0258 18.5718 2.95618C18.5038 2.95413 18.4358 2.9521 18.3683 2.95045ZM18.3679 3.36245C18.3675 3.4337 18.367 3.50538 18.367 3.57663C18.4354 3.5754 18.5042 3.57418 18.573 3.57253C18.5722 3.50415 18.5722 3.43575 18.5722 3.36695C18.5038 3.3653 18.4358 3.36367 18.3679 3.36245ZM18.3703 3.77198C18.3687 3.84488 18.3683 3.91777 18.3679 3.99067C18.4383 3.98863 18.5091 3.98657 18.58 3.98412C18.5739 3.91982 18.5673 3.8551 18.5603 3.79122C18.4965 3.78467 18.4334 3.77853 18.3703 3.77198ZM18.3699 4.18272C18.3695 4.26875 18.3695 4.35475 18.3707 4.44075C18.4383 4.42928 18.5059 4.4174 18.5734 4.40513C18.573 4.35965 18.5722 4.26792 18.5718 4.22245C18.5051 4.2069 18.4371 4.1938 18.3699 4.18272ZM18.3679 4.62873C18.3683 4.69915 18.3691 4.7696 18.3699 4.84045C18.4354 4.83757 18.5014 4.83512 18.5669 4.83308C18.5702 4.76632 18.573 4.69957 18.5763 4.63282C18.5067 4.63118 18.4371 4.62995 18.3679 4.62873ZM18.3683 5.04602C18.3687 5.11607 18.3691 5.1861 18.3699 5.25612C18.4367 5.25408 18.5038 5.25203 18.5714 5.2504C18.571 5.18365 18.571 5.1173 18.571 5.05055C18.503 5.0489 18.4358 5.04727 18.3683 5.04602ZM18.3625 5.45475C18.3638 5.5215 18.367 5.58868 18.3732 5.65543C18.4203 5.72913 18.5071 5.66485 18.5743 5.6636C18.5726 5.5948 18.5718 5.526 18.571 5.4572C18.5014 5.45598 18.4317 5.45515 18.3625 5.45475ZM18.3695 5.89745C18.3683 5.95808 18.367 6.0191 18.3662 6.0797C18.4346 6.07805 18.5026 6.07643 18.5714 6.07478C18.5718 6.03138 18.573 5.94495 18.5734 5.90195C18.5051 5.90032 18.4371 5.89867 18.3695 5.89745ZM18.365 6.30985C18.3675 6.38193 18.3703 6.45442 18.3732 6.5269C18.4399 6.5179 18.5075 6.50765 18.5739 6.49415C18.573 6.4487 18.571 6.35778 18.5702 6.31233C18.5014 6.3115 18.433 6.31068 18.365 6.30985ZM29.128 6.61005C29.173 6.60923 29.263 6.6076 29.3083 6.60677C29.3078 6.53837 29.3073 6.4704 29.3073 6.4024C29.263 6.40118 29.1743 6.39832 29.13 6.3971C29.1283 6.46793 29.128 6.53877 29.128 6.61005ZM18.3675 6.72102C18.3679 6.7931 18.3683 6.86517 18.3691 6.93727C18.4363 6.93523 18.5034 6.93318 18.571 6.93113C18.571 6.86233 18.5714 6.79392 18.5722 6.72512C18.5038 6.72347 18.4354 6.72225 18.3675 6.72102ZM29.13 6.81318C29.1283 6.8832 29.128 6.95365 29.128 7.02408C29.1738 7.02367 29.2653 7.02285 29.311 7.02245C29.309 6.9516 29.3078 6.88157 29.306 6.81112C29.2468 6.81195 29.1883 6.81235 29.13 6.81318ZM18.372 7.12727C18.3699 7.19938 18.3679 7.27185 18.3666 7.34435C18.4379 7.34352 18.5091 7.3423 18.5804 7.34107C18.5747 7.278 18.5673 7.21493 18.5583 7.15268C18.496 7.14285 18.4342 7.13425 18.372 7.12727ZM29.127 7.2526C29.1293 7.32183 29.1318 7.39143 29.135 7.46105C29.191 7.46025 29.2475 7.45942 29.3045 7.459C29.3065 7.39062 29.3093 7.32263 29.3123 7.25465C29.25 7.25383 29.1885 7.25303 29.127 7.2526ZM18.3675 7.54787C18.3687 7.6306 18.3699 7.71292 18.3724 7.79565C18.4403 7.78335 18.5087 7.76985 18.5767 7.7551C18.5734 7.68795 18.5702 7.62077 18.5669 7.5536C18.5001 7.55157 18.4338 7.54992 18.3675 7.54787ZM29.0978 7.665C29.1 7.70595 29.105 7.78867 29.1075 7.83005C29.1473 7.8927 29.2393 7.86733 29.3008 7.88985C29.3013 7.8149 29.3015 7.74035 29.302 7.66542C29.2335 7.665 29.1655 7.6646 29.0978 7.665ZM18.3597 7.991C18.3638 8.03235 18.3711 8.11467 18.3752 8.15602C18.4166 8.23795 18.5087 8.16955 18.5751 8.16588C18.5739 8.12245 18.5714 8.03605 18.5706 7.99305C18.5001 7.99183 18.4297 7.9914 18.3597 7.991ZM29.0338 8.02825C29.014 8.09748 28.9935 8.16588 28.9728 8.23425C29.0383 8.25842 29.1038 8.28218 29.1705 8.3047C29.1883 8.23302 29.2075 8.16218 29.2255 8.09093C29.161 8.07045 29.0978 8.04875 29.0338 8.02825ZM18.3683 8.3989C18.3683 8.47015 18.3687 8.541 18.3691 8.61225C18.4363 8.61063 18.5038 8.60898 18.5714 8.60735C18.5714 8.53977 18.5714 8.4722 18.5718 8.40462C18.5038 8.40257 18.4358 8.40092 18.3683 8.3989ZM28.863 8.43985C28.829 8.47958 28.7945 8.51888 28.7605 8.5582C28.817 8.60775 28.8735 8.6569 28.931 8.70685C29.0003 8.63888 29.0313 8.55042 29.0285 8.45417C28.9723 8.44925 28.9183 8.44475 28.863 8.43985ZM28.6328 8.76542C28.533 8.74862 28.4833 8.88705 28.5575 8.94808C28.6313 9.05167 28.741 8.92882 28.8053 8.87887C28.756 8.83135 28.7135 8.7515 28.6328 8.76542ZM18.3875 8.81825C18.4084 8.89237 18.4322 8.96567 18.4571 9.039C18.5268 9.02465 18.5984 9.01073 18.6578 8.96895C18.6463 8.91285 18.6316 8.85798 18.6136 8.80433C18.5378 8.80803 18.4625 8.81292 18.3875 8.81825ZM28.2188 9.06232C28.2303 9.13605 28.2278 9.21838 28.2835 9.2761C28.3388 9.26055 28.3933 9.24295 28.4473 9.22248C28.447 9.18272 28.446 9.10288 28.4458 9.06315C28.372 9.0218 28.2933 9.02835 28.2188 9.06232ZM18.6111 9.24785C18.6734 9.28963 18.7127 9.4006 18.8007 9.38465C18.8462 9.3404 18.8843 9.28963 18.9248 9.2409C18.8683 9.2073 18.8274 9.13278 18.7545 9.1385C18.7049 9.1729 18.6574 9.20935 18.6111 9.24785ZM27.821 9.29862C27.842 9.35475 27.8633 9.41167 27.8843 9.46817C27.95 9.44852 28.0165 9.42928 28.0838 9.41168C28.066 9.34 28.0448 9.26875 28.0238 9.1983C27.9555 9.22983 27.8875 9.2626 27.821 9.29862ZM21.1154 9.35882C21.1146 9.4346 21.115 9.51078 21.1154 9.58695C21.1941 9.58695 21.2731 9.58695 21.3521 9.58655C21.3509 9.5116 21.3501 9.43625 21.3489 9.3617C21.271 9.36047 21.1928 9.35965 21.1154 9.35882ZM27.4113 9.36825C27.423 9.38545 27.4468 9.41985 27.4583 9.43705C27.4588 9.46737 27.459 9.52758 27.459 9.55745C27.5283 9.55255 27.598 9.54762 27.6675 9.54272C27.6673 9.47432 27.666 9.40592 27.6648 9.33795C27.58 9.34695 27.4955 9.3568 27.4113 9.36825ZM19.0035 9.51118C19.0776 9.53125 19.1521 9.5501 19.2279 9.5677C19.2316 9.49725 19.2353 9.42683 19.2389 9.3568C19.1955 9.3527 19.1083 9.3441 19.0645 9.34C19.0436 9.39692 19.0231 9.45385 19.0035 9.51118ZM19.4621 9.3748C19.4638 9.44238 19.4662 9.50955 19.4687 9.57712C19.5244 9.5845 19.5809 9.58858 19.6382 9.5894C19.6759 9.5288 19.6698 9.45385 19.6841 9.38628C19.61 9.38177 19.5359 9.37807 19.4621 9.3748ZM19.8401 9.38915C19.8446 9.45345 19.8508 9.51772 19.8594 9.58202C19.9315 9.58982 20.0044 9.5894 20.0773 9.58368C20.0883 9.51528 20.09 9.44608 20.0953 9.37728C20.0101 9.38013 19.9249 9.38382 19.8401 9.38915ZM20.2968 9.38135C20.2955 9.42517 20.2931 9.51323 20.2919 9.55745C20.343 9.57058 20.3951 9.58245 20.4475 9.59227C20.5159 9.54435 20.4905 9.4518 20.5085 9.38177C20.4376 9.38095 20.3672 9.38095 20.2968 9.38135ZM20.6989 9.37973C20.7014 9.44853 20.7043 9.51732 20.7075 9.58655C20.7718 9.58695 20.8365 9.58777 20.9012 9.589C20.9172 9.52142 20.9344 9.45425 20.9516 9.3871C20.8672 9.3834 20.7829 9.38135 20.6989 9.37973ZM22.3801 9.38135C22.3813 9.44893 22.3829 9.51692 22.3846 9.5849C22.4521 9.58613 22.5201 9.58735 22.5881 9.5894C22.5893 9.51855 22.591 9.4477 22.5926 9.37685C22.5214 9.37808 22.4505 9.37972 22.3801 9.38135ZM23.2094 9.38465C23.2081 9.42805 23.2057 9.51488 23.2045 9.55828C23.2683 9.57098 23.3314 9.58735 23.3965 9.59472C23.469 9.54805 23.4379 9.4522 23.4555 9.38177C23.3732 9.38177 23.2913 9.3826 23.2094 9.38465ZM23.6414 9.38095C23.6447 9.4522 23.6484 9.52347 23.6525 9.59472C23.7201 9.58735 23.7889 9.5808 23.8577 9.57343C23.8581 9.50833 23.8589 9.4436 23.8597 9.3789C23.7868 9.37932 23.7139 9.38013 23.6414 9.38095ZM24.0632 9.3789C24.0628 9.42355 24.062 9.51283 24.062 9.55745C24.1275 9.57098 24.1931 9.5853 24.2602 9.5935C24.2803 9.52592 24.2959 9.45673 24.3135 9.38873C24.2299 9.3834 24.1464 9.38055 24.0632 9.3789ZM24.4748 9.383C24.4744 9.4264 24.4728 9.51365 24.472 9.55705C24.535 9.56892 24.5977 9.58285 24.6624 9.5894C24.7316 9.54395 24.7046 9.4518 24.7218 9.3834C24.6391 9.38177 24.5571 9.38177 24.4748 9.383ZM24.9147 9.3789C24.9155 9.4301 24.9171 9.53248 24.9179 9.58368C24.9867 9.57835 25.0563 9.57712 25.126 9.57835C25.1273 9.5116 25.1285 9.44565 25.13 9.37932C25.058 9.3789 24.9863 9.3789 24.9147 9.3789ZM25.3193 9.3699C25.3238 9.43952 25.3258 9.50955 25.3385 9.57835C25.404 9.58572 25.4705 9.59105 25.5368 9.59433C25.5393 9.51978 25.5408 9.44525 25.543 9.37072C25.468 9.37727 25.3935 9.37727 25.3193 9.3699ZM25.7338 9.38383C25.749 9.45302 25.7218 9.5423 25.7838 9.59472C25.8475 9.58325 25.911 9.56647 25.975 9.55132C25.975 9.49603 25.9758 9.44115 25.977 9.38628C25.8955 9.38422 25.8145 9.3834 25.7338 9.38383ZM26.1785 9.37807C26.1675 9.43215 26.1598 9.4866 26.1553 9.5415C26.203 9.59227 26.2748 9.59228 26.3408 9.59023C26.409 9.54395 26.386 9.4522 26.405 9.383C26.3293 9.38055 26.2538 9.3789 26.1785 9.37807ZM26.5868 9.3785C26.5888 9.44853 26.5918 9.51855 26.5945 9.589C26.6633 9.58777 26.7325 9.58695 26.8023 9.58613C26.8038 9.51772 26.806 9.44975 26.8083 9.38135C26.7343 9.38012 26.6605 9.37932 26.5868 9.3785ZM26.9975 9.37973C27.0013 9.4477 27.0095 9.51488 27.0225 9.58162C27.0988 9.5931 27.176 9.58245 27.2523 9.56853C27.2518 9.521 27.251 9.4264 27.2508 9.3789C27.1658 9.3789 27.082 9.37973 26.9975 9.37973ZM21.5549 9.3785C21.5577 9.4514 21.5606 9.5243 21.5639 9.5976C21.6314 9.58778 21.6998 9.5767 21.7674 9.56277C21.7662 9.51732 21.7641 9.42723 21.7629 9.38177C21.6933 9.38055 21.6241 9.37932 21.5549 9.3785ZM21.9713 9.38177C21.9713 9.42845 21.9709 9.52183 21.9709 9.56853C22.0393 9.5804 22.1081 9.58858 22.1778 9.59638C22.1814 9.52388 22.1851 9.4518 22.1888 9.37932C22.1159 9.38013 22.0434 9.38095 21.9713 9.38177ZM22.8191 9.3789C22.8232 9.4514 22.8281 9.5243 22.8338 9.59678C22.8727 9.5931 22.9505 9.5853 22.9895 9.58162C23.0464 9.53247 23.0259 9.44812 23.0447 9.3834C22.9694 9.38135 22.894 9.38013 22.8191 9.3789Z" fill="#00BBEC"/>
<path d="M10.7756 2.32383C10.8841 2.16042 11.0811 1.98432 11.2867 2.09531C11.3149 2.35946 11.3043 2.62524 11.3141 2.88979C11.4652 2.89432 11.6176 2.88447 11.7675 2.90619C11.8592 2.91602 11.912 3.01717 11.9055 3.10194C11.9059 3.36404 11.9116 3.62654 11.8973 3.88824C11.8682 3.91937 11.84 3.95049 11.8113 3.98204C11.645 3.98899 11.4783 3.98734 11.3117 3.98694C11.3084 4.98949 11.3129 5.99162 11.3088 6.99414C11.3035 7.09244 11.3059 7.19359 11.281 7.28984C11.1634 7.39099 10.9959 7.33857 10.855 7.35127C10.6535 7.33529 10.4316 7.39589 10.2481 7.28819C10.2485 6.27459 10.2477 5.26059 10.2489 4.24699C10.2481 4.15937 10.2383 4.07172 10.2276 3.98489C10.0311 3.98284 9.82751 4.01152 9.63871 3.94189C9.61251 3.63679 9.61046 3.32799 9.63133 3.02289C9.68336 2.85377 9.9086 2.92052 10.0405 2.87874C10.371 2.84312 10.5978 2.57937 10.7756 2.32383Z" fill="#00BBEC"/>
<path d="M13.8413 2.89053C14.1992 2.81928 14.6096 2.86965 14.877 3.13953C14.9511 3.13298 15.0339 3.13913 15.092 3.0822C15.2935 2.92288 15.5528 2.8463 15.8087 2.8639C16.2105 2.8549 16.5827 3.10923 16.7748 3.45283C16.8854 3.65883 16.9001 3.8984 16.8997 4.12733C16.8997 5.12455 16.9009 6.12175 16.8993 7.11898C16.9104 7.1972 16.869 7.28565 16.7859 7.3012C16.6384 7.32293 16.4889 7.3098 16.3407 7.31185C16.1687 7.30613 15.9897 7.33643 15.8251 7.2709C15.8075 6.3044 15.8255 5.33708 15.8161 4.37018C15.7997 4.24363 15.8099 4.08188 15.6908 4.00118C15.5044 3.8726 15.1571 3.94263 15.1436 4.20473C15.1424 5.1483 15.1436 6.09268 15.144 7.03625C15.1465 7.12715 15.1281 7.21603 15.0998 7.30203C14.8172 7.3352 14.5322 7.33028 14.248 7.3262C14.1538 7.33153 14.0575 7.25945 14.0637 7.1595C14.053 6.17418 14.0735 5.18803 14.0498 4.20308C14.0285 3.86358 13.4158 3.85868 13.4002 4.20555C13.3904 5.17573 13.4031 6.14633 13.3941 7.1165C13.4039 7.21358 13.3404 7.31883 13.2327 7.30778C12.9395 7.3135 12.6446 7.32293 12.3522 7.29548C12.3305 7.20988 12.3125 7.12265 12.3137 7.0346C12.3158 5.84738 12.3133 4.66053 12.315 3.4737C12.3154 3.28818 12.299 3.1002 12.3453 2.91878C12.6381 2.8639 12.9391 2.87703 13.2348 2.89585C13.3441 2.89668 13.383 3.01135 13.4322 3.08875C13.5628 3.01175 13.6935 2.92943 13.8413 2.89053Z" fill="#00BBEC"/>
<path d="M25.9066 4.35151C26.0261 4.21023 26.2191 4.22783 26.3766 4.28231C26.4376 4.37116 26.5283 4.45676 26.5176 4.57431C26.5463 4.80323 26.3121 5.02028 26.0863 4.95066C25.9708 4.92773 25.8951 4.83313 25.8188 4.75203C25.8233 4.61526 25.7846 4.45021 25.9066 4.35151Z" fill="#00BBEC"/>
<path d="M28.2116 0.045615L28.2444 0.0390625C28.3356 0.0669107 28.4171 0.122607 28.5096 0.150456C29.1694 0.375699 29.7199 0.943724 29.8706 1.63092C29.9876 2.08837 29.9041 2.56426 29.9394 3.02948C29.9554 3.06593 29.9741 3.10156 29.9954 3.13596C29.9999 4.13318 29.9849 5.13121 30.0016 6.12843C29.9836 6.14768 29.9479 6.18658 29.9299 6.20623C29.9366 6.72798 29.9309 7.25013 29.9329 7.77228C29.9376 7.97788 29.8881 8.17896 29.8439 8.37798C29.6966 8.86248 29.3581 9.28223 28.9271 9.54516C28.5989 9.74421 28.2201 9.89163 27.8299 9.84576C28.0386 9.78638 28.2549 9.73928 28.4471 9.63363C28.7681 9.45383 29.0826 9.22983 29.2644 8.90096C29.5031 8.55941 29.6339 8.14538 29.6334 7.72848C29.6356 7.21533 29.6314 6.70218 29.6339 6.18903C29.3669 6.17716 29.0999 6.17961 28.8331 6.18493C27.7406 6.18616 26.6484 6.18331 25.5556 6.18658C25.3489 6.18576 25.1281 6.16118 24.9594 6.03096C24.7653 5.89826 24.6363 5.67466 24.6359 5.43796C24.6289 4.98706 24.6388 4.53616 24.633 4.08526C24.6347 3.90753 24.6199 3.72158 24.6924 3.55491C24.8014 3.27561 25.0884 3.07493 25.3904 3.07943C26.8044 3.07576 28.2186 3.08313 29.6326 3.07781C29.6319 2.73093 29.6384 2.38405 29.6314 2.03759C29.6146 1.50888 29.3616 1.01252 29.0146 0.623877C28.7154 0.365052 28.3721 0.12056 27.9674 0.0751015C28.0359 0.0791967 28.1044 0.0837017 28.1734 0.0890255C28.1829 0.0783777 28.2021 0.0566725 28.2116 0.045615ZM25.9034 4.01973C25.6679 4.13071 25.5194 4.39856 25.5349 4.65573C25.5659 4.87483 25.6891 5.09476 25.8964 5.19101C26.0651 5.26103 26.2531 5.23728 26.4284 5.20616C26.6319 5.07838 26.8029 4.86746 26.8029 4.61723C26.8186 4.33181 26.6024 4.07011 26.3396 3.98166C26.1954 3.95748 26.0366 3.94971 25.9034 4.01973Z" fill="#0D326F"/>
<path d="M6.34272 3.06186C6.3378 2.95334 6.45535 2.88864 6.55157 2.89026C6.76985 2.88944 6.98855 2.88944 7.20725 2.89066C7.3088 2.88659 7.43412 2.94636 7.42552 3.06514C7.4415 3.59179 7.41937 4.11969 7.43577 4.64634C7.44355 4.77494 7.58935 4.81836 7.69745 4.80646C7.83915 4.80444 8.05292 4.84006 8.0988 4.65781C8.11845 4.11231 8.08242 3.56476 8.11027 3.01886C8.11762 2.94474 8.20117 2.91116 8.26425 2.89519C8.48622 2.88331 8.7086 2.89396 8.93055 2.88944C9.02025 2.88411 9.12305 2.90541 9.17177 2.98936C9.19347 3.08069 9.18407 3.17571 9.1861 3.26909C9.18325 4.26466 9.1853 5.26064 9.1853 6.25621C9.18447 6.56911 9.0526 6.88731 8.8073 7.08676C8.59965 7.25099 8.33305 7.34516 8.06727 7.33206C7.62907 7.32921 7.19085 7.33249 6.75265 7.33001C6.72112 7.27801 6.6732 7.22804 6.67977 7.16211C6.67772 6.91354 6.67772 6.66494 6.67935 6.41636C6.66787 6.32706 6.74857 6.24599 6.83662 6.24761C7.21625 6.23699 7.59712 6.25909 7.97635 6.23861C8.1336 6.20994 8.15735 5.97036 8.01157 5.90731C7.8154 5.85571 7.61062 5.90034 7.41077 5.88886C7.10405 5.88191 6.7969 5.75331 6.5958 5.51824C6.42502 5.31349 6.3374 5.04524 6.34025 4.77986C6.3419 4.20734 6.33697 3.63439 6.34272 3.06186Z" fill="#0D326F"/>
<path d="M0 2.95924C0.0753542 2.91707 0.15808 2.88554 0.245721 2.88964C0.66836 2.88839 1.09059 2.89169 1.51323 2.88922C1.7786 2.88594 2.05709 2.89372 2.29872 3.01617C2.49693 3.11202 2.6464 3.28892 2.73078 3.49002C2.8475 3.76932 2.8139 4.07809 2.818 4.37297C2.8131 4.62359 2.82987 4.87547 2.80778 5.12569C2.77665 5.45372 2.5817 5.77357 2.27496 5.90994C1.89737 6.09014 1.46859 5.99717 1.06643 6.02174C1.06274 6.40097 1.07216 6.77979 1.06397 7.15862C1.06888 7.24829 0.995578 7.32939 0.90425 7.32694C0.629863 7.33759 0.354658 7.32652 0.0798592 7.32939C0.0602015 7.31137 0.0200672 7.27534 0 7.25732V2.95924ZM1.06725 3.99292C1.07134 4.30374 1.05291 4.61542 1.07625 4.92542C1.24458 4.93689 1.41494 4.93649 1.58285 4.91682C1.66598 4.90699 1.72455 4.82469 1.72045 4.74359C1.72578 4.55069 1.72701 4.35699 1.72004 4.16409C1.72127 4.07729 1.64428 3.99497 1.55664 3.99579C1.39365 3.98677 1.23024 3.99457 1.06725 3.99292Z" fill="#0D326F"/>
<path d="M3.53507 2.98367C3.66082 2.83912 3.88522 2.92757 4.05314 2.90422C4.39387 2.9108 4.73664 2.885 5.07534 2.93045C5.34727 2.97467 5.61837 3.11022 5.77072 3.34775C5.90709 3.5509 5.94477 3.80192 5.94272 4.04192C5.94069 4.999 5.94519 5.95567 5.94027 6.91275C5.94437 7.12735 5.74247 7.31205 5.53157 7.30712C5.05282 7.31 4.57367 7.30755 4.09492 7.30795C3.82707 7.31287 3.55679 7.21172 3.36184 7.02702C3.15012 6.81527 3.06657 6.5061 3.07477 6.21285C3.08049 5.91227 3.06984 5.61167 3.07927 5.31147C3.09934 4.91872 3.36799 4.5518 3.74229 4.42647C4.03757 4.30935 4.35947 4.35685 4.66867 4.34415C4.90414 4.3589 4.90129 3.92685 4.66989 3.93135C4.32179 3.9383 3.97327 3.93135 3.62517 3.93667C3.57972 3.88507 3.51214 3.83837 3.52197 3.76017C3.52239 3.50175 3.50232 3.24005 3.53507 2.98367ZM4.30992 5.36595C4.22349 5.38272 4.17642 5.47405 4.18009 5.55637C4.17764 5.74967 4.17847 5.94297 4.17969 6.13627C4.17354 6.22022 4.22392 6.30787 4.30827 6.32917C4.42869 6.34637 4.55194 6.34105 4.67317 6.3353C4.76449 6.33735 4.85049 6.2616 4.85009 6.16822C4.85829 5.9651 4.85092 5.76197 4.85419 5.55882C4.86362 5.45685 4.77637 5.3516 4.67032 5.35897C4.55032 5.35365 4.42909 5.34915 4.30992 5.36595Z" fill="#0D326F"/>
</g>
<defs>
<clipPath id="clip0_2_31563">
<rect width="30" height="10" fill="white"/>
</clipPath>
</defs>
</svg>
