<svg width="12" height="12" viewBox="0 0 12 12" fill="none" xmlns="http://www.w3.org/2000/svg">
<rect width="12" height="12" fill="#E5E5E5"/>
<g clip-path="url(#clip0_6497_191609)">
<rect width="360" height="804" transform="translate(-215 -61)" fill="white"/>
<rect width="360" height="104" transform="translate(-215 -61)" fill="#174E7F"/>
<g clip-path="url(#clip1_6497_191609)">
<g clip-path="url(#clip2_6497_191609)">
<g clip-path="url(#clip3_6497_191609)">
<path d="M10.2494 0.55201C10.2081 0.511783 10.153 0.489258 10.0955 0.489258C10.0381 0.489258 9.98291 0.511783 9.94171 0.55201L0.415848 9.92102C0.394809 9.94175 0.37811 9.96649 0.366734 9.99381C0.355358 10.0211 0.349536 10.0505 0.34961 10.0801V12.0777C0.349606 12.1072 0.355437 12.1364 0.366762 12.1635C0.378087 12.1907 0.394681 12.2153 0.415575 12.236C0.43647 12.2567 0.461247 12.2729 0.488461 12.2839C0.515675 12.2948 0.544782 12.3002 0.574086 12.2997L2.70108 12.2634C2.75614 12.2619 2.80864 12.2397 2.84828 12.2013L12.3697 2.93438C12.391 2.91369 12.4079 2.8889 12.4194 2.86151C12.431 2.83412 12.4369 2.8047 12.4369 2.77495C12.4369 2.74521 12.431 2.71575 12.4194 2.68836C12.4079 2.66097 12.391 2.63618 12.3697 2.61549L10.2494 0.55201ZM2.35738 11.5643H1.30639C1.24783 11.5643 1.19167 11.5409 1.15027 11.4992C1.10886 11.4576 1.0856 11.4012 1.0856 11.3423V10.3745C1.08562 10.3449 1.09156 10.3155 1.10306 10.2882C1.11456 10.2609 1.1314 10.2362 1.15257 10.2155L9.96673 1.60557C10.0079 1.56534 10.0631 1.54285 10.1206 1.54285C10.178 1.54285 10.2332 1.56534 10.2744 1.60557L11.3232 2.62658C11.3444 2.64728 11.3613 2.67206 11.3729 2.69945C11.3844 2.72684 11.3903 2.7563 11.3903 2.78604C11.3903 2.81579 11.3844 2.84521 11.3729 2.8726C11.3613 2.89999 11.3444 2.92478 11.3232 2.94547L2.51046 11.5014C2.46947 11.5415 2.41458 11.564 2.35738 11.5643Z" fill="white"/>
<path d="M11.1034 -0.613117L10.6938 -0.187916C10.6655 -0.158562 10.6662 -0.111722 10.6954 -0.0832955L13.1016 2.25912C13.1308 2.28755 13.1774 2.2868 13.2057 2.25744L13.6153 1.83224C13.6436 1.80289 13.6428 1.75605 13.6136 1.72762L11.2074 -0.614797C11.1782 -0.643224 11.1317 -0.642471 11.1034 -0.613117Z" fill="white"/>
<path d="M0.875 10.0986L10.0625 0.911133L11.8125 2.66113L2.625 11.8486H0.875V10.0986Z" fill="white"/>
</g>
</g>
</g>
</g>
<defs>
<clipPath id="clip0_6497_191609">
<rect width="360" height="804" fill="white" transform="translate(-215 -61)"/>
</clipPath>
<clipPath id="clip1_6497_191609">
<rect width="32" height="32" fill="white" transform="translate(-9 -5)"/>
</clipPath>
<clipPath id="clip2_6497_191609">
<rect width="14" height="14" fill="white" transform="translate(0 -1)"/>
</clipPath>
<clipPath id="clip3_6497_191609">
<rect width="13.3" height="12.95" fill="white" transform="translate(0.349609 -0.649414)"/>
</clipPath>
</defs>
</svg>
