<svg width="30" height="30" viewBox="0 0 30 30" fill="none" xmlns="http://www.w3.org/2000/svg">
<g clip-path="url(#clip0_125_20280)">
<path fill-rule="evenodd" clip-rule="evenodd" d="M28.4586 14.9999C28.4586 15.1352 28.4915 15.2685 28.5546 15.3882L29.7162 17.6732C29.8705 17.9762 29.9626 18.3069 29.9873 18.646C30.0121 18.985 29.9688 19.3256 29.8601 19.6477C29.7515 19.9699 29.5796 20.267 29.3545 20.5218C29.1295 20.7767 28.8558 20.9839 28.5496 21.1315L26.2029 22.3266C26.0806 22.3875 25.9741 22.4759 25.8917 22.585C25.8092 22.694 25.7532 22.8206 25.7279 22.9549L25.2696 25.4649C25.1319 26.1474 24.7363 26.7506 24.165 27.1486C23.5937 27.5466 22.8909 27.7089 22.2029 27.6016L19.5746 27.2449C19.4365 27.2254 19.2957 27.2368 19.1626 27.2783C19.0294 27.3198 18.9071 27.3904 18.8046 27.4849L16.8912 29.2632C16.3751 29.7389 15.6989 30.003 14.9971 30.003C14.2952 30.003 13.619 29.7389 13.1029 29.2632L11.1946 27.4916C11.0919 27.3972 10.9696 27.3268 10.8365 27.2853C10.7033 27.2438 10.5627 27.2323 10.4246 27.2516L7.79458 27.6082C7.66535 27.6261 7.53503 27.635 7.40457 27.6349C6.77675 27.6431 6.16596 27.4307 5.67866 27.0347C5.19136 26.6388 4.85843 26.0844 4.7379 25.4682L4.2779 22.9583C4.25323 22.8237 4.19743 22.6968 4.11495 22.5877C4.03247 22.4786 3.92561 22.3903 3.80291 22.3299L1.45624 21.1349C1.15001 20.9873 0.876344 20.78 0.651295 20.5252C0.426246 20.2704 0.254348 19.9732 0.14568 19.6511C0.0370119 19.329 -0.00623735 18.9883 0.0184724 18.6493C0.0431821 18.3102 0.135348 17.9795 0.28957 17.6766L1.45624 15.3882C1.5193 15.2685 1.55226 15.1352 1.55226 14.9999C1.55226 14.8646 1.5193 14.7313 1.45624 14.6116L0.28957 12.3216C0.135579 12.0186 0.0435935 11.6879 0.0190014 11.3489C-0.00559073 11.0099 0.037704 10.6694 0.146351 10.3473C0.254999 10.0252 0.426811 9.7281 0.651733 9.47327C0.876654 9.21844 1.15016 9.01105 1.45624 8.86324L3.80291 7.66992C3.92561 7.6095 4.03247 7.52117 4.11495 7.41207C4.19743 7.30297 4.25323 7.17611 4.2779 7.04158L4.7379 4.53158C4.87478 3.84897 5.27003 3.24563 5.84115 2.84749C6.41226 2.44936 7.1151 2.28719 7.80291 2.3949L10.4329 2.75159C10.571 2.77087 10.7117 2.75935 10.8448 2.71785C10.9779 2.67636 11.1002 2.60589 11.2029 2.51156L13.1112 0.739909C13.6276 0.264137 14.3041 0 15.0062 0C15.7084 0 16.3848 0.264137 16.9012 0.739909L18.8096 2.51156C18.9121 2.60609 19.0344 2.67667 19.1676 2.71818C19.3007 2.75969 19.4415 2.77111 19.5796 2.75159L22.2079 2.3949C22.8959 2.28758 23.5987 2.44986 24.17 2.8479C24.7413 3.24594 25.1369 3.84904 25.2746 4.53158L25.7329 7.04158C25.7582 7.17588 25.8142 7.30249 25.8966 7.4115C25.9791 7.52051 26.0856 7.60897 26.2079 7.66992L28.5546 8.86324C28.8607 9.01105 29.1341 9.21844 29.3591 9.47327C29.584 9.7281 29.7558 10.0252 29.8645 10.3473C29.9731 10.6694 30.0164 11.0099 29.9918 11.3489C29.9672 11.6879 29.8752 12.0186 29.7212 12.3216L28.5546 14.6116C28.4915 14.7313 28.4586 14.8646 28.4586 14.9999ZM20.2906 9.24805L20.7642 9.70379C20.9672 9.89911 20.9672 10.2084 20.7642 10.3874L10.2268 20.5276C10.0408 20.7229 9.71941 20.7229 9.51644 20.5276L9.04285 20.0719C8.83988 19.8928 8.83988 19.5836 9.04285 19.3883L19.5802 9.24805C19.7663 9.05273 20.0877 9.05273 20.2906 9.24805ZM14.1811 11.0222C14.1811 9.26436 12.6926 7.83203 10.8659 7.83203C9.03921 7.83203 7.55078 9.26436 7.55078 11.0222C7.55078 12.7801 9.03921 14.1961 10.8659 14.1961C12.6926 14.1961 14.1811 12.7638 14.1811 11.0222ZM9.25909 11.0222C9.25909 10.1596 9.98639 9.45967 10.8828 9.45967C11.7793 9.45967 12.5066 10.1596 12.5066 11.0222C12.5066 11.8849 11.7793 12.5847 10.8828 12.5847C9.98639 12.5847 9.25909 11.8686 9.25909 11.0222ZM15.8242 18.9812C15.8242 17.2233 17.3126 15.791 19.1394 15.791C20.9661 15.791 22.4545 17.2233 22.4545 18.9812C22.4545 20.739 20.9661 22.1714 19.1394 22.1714C17.3126 22.1714 15.8242 20.739 15.8242 18.9812ZM17.5156 18.9649C17.5156 19.8276 18.2429 20.5275 19.1394 20.5275C20.0358 20.5275 20.7631 19.8276 20.7631 18.9649C20.7631 18.1023 20.0358 17.4024 19.1394 17.4024C18.2429 17.4024 17.5156 18.1023 17.5156 18.9649Z" fill="white"/>
</g>
<defs>
<clipPath id="clip0_125_20280">
<rect width="30" height="30" fill="white"/>
</clipPath>
</defs>
</svg>
