<svg width="14" height="14" viewBox="0 0 14 14" fill="none" xmlns="http://www.w3.org/2000/svg">
<g id="Frame">
<g clip-path="url(#clip0_357_26166)">
<path id="Vector" d="M13.3239 7.18117C13.2945 7.1253 13.2791 7.06311 13.2791 6.99996C13.2791 6.93681 13.2945 6.87461 13.3239 6.81873L13.8684 5.75007C13.9402 5.60866 13.9831 5.45434 13.9946 5.29614C14.0061 5.13794 13.9859 4.97903 13.9352 4.82874C13.8845 4.67844 13.8043 4.53978 13.6993 4.42086C13.5944 4.30194 13.4667 4.20516 13.3239 4.13618L12.2288 3.5793C12.1717 3.55085 12.122 3.50957 12.0835 3.4587C12.0451 3.40783 12.0189 3.34874 12.0071 3.28607L11.7932 2.11474C11.729 1.79622 11.5444 1.51477 11.2778 1.32902C11.0112 1.14327 10.6832 1.06754 10.3621 1.11762L9.13557 1.28407C9.07112 1.29318 9.00545 1.28785 8.9433 1.26848C8.88116 1.24911 8.8241 1.21618 8.77624 1.17206L7.88568 0.345291C7.6447 0.123264 7.32902 0 7.00135 0C6.67368 0 6.358 0.123264 6.11701 0.345291L5.22646 1.17206C5.17854 1.21608 5.12147 1.24897 5.05934 1.26833C4.99722 1.2877 4.93157 1.29307 4.86713 1.28407L3.63979 1.11762C3.31882 1.06736 2.99083 1.14303 2.72431 1.32883C2.45778 1.51463 2.27333 1.79619 2.20946 2.11474L1.99479 3.28607C1.98328 3.34885 1.95724 3.40805 1.91875 3.45897C1.88026 3.50988 1.83039 3.5511 1.77313 3.5793L0.678015 4.13618C0.53518 4.20516 0.407543 4.30194 0.302579 4.42086C0.197616 4.53978 0.117437 4.67844 0.0667347 4.82874C0.0160327 4.97903 -0.00417151 5.13794 0.00730481 5.29614C0.0187811 5.45434 0.0617076 5.60866 0.13357 5.75007L0.678015 6.81873C0.707442 6.87461 0.722823 6.93681 0.722823 6.99996C0.722823 7.06311 0.707442 7.1253 0.678015 7.18117L0.13357 8.24906C0.0615997 8.39044 0.0185892 8.54478 0.00705795 8.703C-0.00447326 8.86123 0.0157097 9.02018 0.0664214 9.17051C0.117133 9.32083 0.197352 9.45951 0.302375 9.57842C0.407398 9.69733 0.535107 9.79405 0.678015 9.86295L1.77313 10.4206C1.83039 10.4488 1.88026 10.49 1.91875 10.5409C1.95724 10.5919 1.98328 10.6511 1.99479 10.7139L2.20946 11.8852C2.26571 12.1727 2.42107 12.4314 2.64848 12.6162C2.87589 12.801 3.16092 12.9001 3.4539 12.8963C3.51479 12.8963 3.5756 12.8922 3.63591 12.8838L4.86324 12.7174C4.92769 12.7084 4.99333 12.7138 5.05545 12.7331C5.11758 12.7525 5.17465 12.7854 5.22257 12.8294L6.11313 13.6562C6.35398 13.8781 6.66953 14.0014 6.99707 14.0014C7.32461 14.0014 7.64016 13.8781 7.88101 13.6562L8.77391 12.8263C8.82177 12.7822 8.87883 12.7492 8.94097 12.7299C9.00312 12.7105 9.06879 12.7052 9.13324 12.7143L10.3598 12.8807C10.6808 12.9308 11.0088 12.8551 11.2754 12.6693C11.542 12.4836 11.7267 12.2021 11.7909 11.8836L12.0048 10.7123C12.0166 10.6496 12.0428 10.5905 12.0812 10.5396C12.1197 10.4888 12.1694 10.4475 12.2265 10.4191L13.3216 9.86139C13.4645 9.7925 13.5922 9.69577 13.6972 9.57686C13.8022 9.45796 13.8825 9.31927 13.9332 9.16895C13.9839 9.01862 14.0041 8.85967 13.9925 8.70145C13.981 8.54322 13.938 8.38889 13.866 8.2475L13.3239 7.18117Z" fill="#108F67"/>
<g id="Group 36656">
<path id="Vector_2" d="M9.68945 4.52909L9.46844 4.31641C9.37372 4.22526 9.22375 4.22526 9.13692 4.31641L4.21948 9.0485C4.12476 9.13965 4.12476 9.28397 4.21948 9.36752L4.44048 9.5802C4.5352 9.67135 4.68517 9.67135 4.772 9.5802L9.68945 4.8481C9.78416 4.76455 9.78416 4.62023 9.68945 4.52909Z" fill="white"/>
<path id="Vector_3" d="M6.61756 5.145C6.61756 4.32467 5.92296 3.65625 5.0705 3.65625C4.21804 3.65625 3.52344 4.32467 3.52344 5.145C3.52344 5.96533 4.21804 6.62615 5.0705 6.62615C5.92296 6.62615 6.61756 5.95774 6.61756 5.145ZM4.32065 5.145C4.32065 4.74243 4.66005 4.41582 5.07839 4.41582C5.49673 4.41582 5.83614 4.74243 5.83614 5.145C5.83614 5.54757 5.49673 5.87418 5.07839 5.87418C4.66005 5.87418 4.32065 5.53997 4.32065 5.145Z" fill="white"/>
<path id="Vector_4" d="M8.92988 7.37109C8.07741 7.37109 7.38281 8.03951 7.38281 8.85984C7.38281 9.68018 8.07741 10.3486 8.92988 10.3486C9.78234 10.3486 10.4769 9.68018 10.4769 8.85984C10.4769 8.03951 9.78234 7.37109 8.92988 7.37109ZM8.92988 9.58143C8.51154 9.58143 8.17213 9.25482 8.17213 8.85225C8.17213 8.44968 8.51154 8.12306 8.92988 8.12306C9.34821 8.12306 9.68762 8.44968 9.68762 8.85225C9.68762 9.25482 9.34821 9.58143 8.92988 9.58143Z" fill="white"/>
</g>
</g>
</g>
<defs>
<clipPath id="clip0_357_26166">
<path d="M0 7C0 3.13401 3.13401 0 7 0C10.866 0 14 3.13401 14 7V14H0V7Z" fill="white"/>
</clipPath>
</defs>
</svg>
