<svg width="18" height="18" viewBox="0 0 18 18" fill="none" xmlns="http://www.w3.org/2000/svg">
<g clip-path="url(#clip0_732_45463)">
<g clip-path="url(#clip1_732_45463)">
<path d="M9.20058 7.56558C7.15814 7.56558 5.49707 5.92502 5.49707 3.90779C5.49707 1.89056 7.15814 0.25 9.20058 0.25C11.243 0.25 12.9041 1.89056 12.9041 3.90779C12.9041 5.92502 11.243 7.56558 9.20058 7.56558ZM9.20058 1.65955C7.94547 1.65955 6.92424 2.66817 6.92424 3.90779C6.92424 5.14742 7.94547 6.15603 9.20058 6.15603C10.4557 6.15603 11.4769 5.14742 11.4769 3.90779C11.4769 2.66817 10.4557 1.65955 9.20058 1.65955Z" fill="#545454"/>
<path d="M15.8878 17.3565H2.11791C1.78094 17.3565 1.45586 17.2163 1.22593 16.9728C0.995997 16.7292 0.878652 16.3988 0.902438 16.0675C1.04991 14.0503 1.95775 12.1756 3.45866 10.7903C4.9675 9.39799 6.93621 8.63135 9.00244 8.63135C9.7525 8.63135 10.4946 8.73237 11.2106 8.93127C14.4899 9.84435 16.8574 12.712 17.1024 16.0675C17.127 16.3996 17.0089 16.7292 16.7789 16.9728C16.549 17.2163 16.2239 17.3565 15.887 17.3565H15.8878ZM2.34626 15.9469H15.6594C15.3724 13.2782 13.4536 11.0198 10.8237 10.2876C10.2346 10.1231 9.62167 10.0401 9.00323 10.0401C5.58595 10.0401 2.70464 12.6173 2.34705 15.9469H2.34626Z" fill="#545454"/>
</g>
</g>
<defs>
<clipPath id="clip0_732_45463">
<rect width="18" height="18" fill="white"/>
</clipPath>
<clipPath id="clip1_732_45463">
<rect width="16.2" height="18" fill="white" transform="translate(0.900391)"/>
</clipPath>
</defs>
</svg>
