<svg width="60" height="60" viewBox="0 0 60 60" fill="none" xmlns="http://www.w3.org/2000/svg">
<circle cx="30" cy="30" r="30" fill="white"/>
<path d="M43.4601 48.4502C42.9381 48.4502 42.5161 48.0262 42.5161 47.5062V39.7682C42.5161 39.2462 42.9401 38.8242 43.4601 38.8242C43.9801 38.8242 44.4041 39.2482 44.4041 39.7682V47.5062C44.4041 48.0282 43.9801 48.4502 43.4601 48.4502Z" fill="#1D4EA5"/>
<path d="M43.4599 40.2782C41.3479 40.2782 39.6299 38.5602 39.6299 36.4482C39.6299 34.3362 41.3479 32.6182 43.4599 32.6182C45.5719 32.6182 47.2899 34.3362 47.2899 36.4482C47.2899 38.5602 45.5719 40.2782 43.4599 40.2782ZM43.4599 34.5102C42.3899 34.5102 41.5199 35.3802 41.5199 36.4502C41.5199 37.5202 42.3899 38.3902 43.4599 38.3902C44.5299 38.3902 45.3999 37.5202 45.3999 36.4502C45.3999 35.3802 44.5299 34.5102 43.4599 34.5102V34.5102Z" fill="#1D4EA5"/>
<path d="M45.3221 48.5101H41.5961C41.0741 48.5101 40.6521 48.0861 40.6521 47.5661C40.6521 47.0461 41.0761 46.6221 41.5961 46.6221H45.3221C45.8441 46.6221 46.2661 47.0461 46.2661 47.5661C46.2661 48.0861 45.8421 48.5101 45.3221 48.5101Z" fill="#1D4EA5"/>
<path d="M21.3719 21.9901C20.9379 21.9901 20.5799 21.6421 20.5719 21.2061C20.5639 20.7641 20.9139 20.4001 21.3559 20.3901H21.4059C21.4059 20.3901 21.4159 20.3901 21.4219 20.3901C21.8559 20.3901 22.2139 20.7381 22.2219 21.1741C22.2299 21.6161 21.8799 21.9801 21.4379 21.9901H21.3879C21.3879 21.9901 21.3779 21.9901 21.3719 21.9901Z" fill="#1D4EA5"/>
<path d="M33.1638 44.4981H33.0638C32.6218 44.4981 32.2638 44.1401 32.2638 43.6981C32.2638 43.2561 32.6218 42.8981 33.0638 42.8981H33.1638C33.6058 42.8981 33.9638 43.2561 33.9638 43.6981C33.9638 44.1401 33.6058 44.4981 33.1638 44.4981ZM28.2818 44.3321C28.2038 44.3321 28.1258 44.3201 28.0478 44.2961C28.0098 44.2841 27.9718 44.2721 27.9338 44.2601C27.5138 44.1201 27.2878 43.6681 27.4278 43.2481C27.5678 42.8281 28.0198 42.6021 28.4398 42.7421L28.5158 42.7661C28.9378 42.8961 29.1758 43.3421 29.0458 43.7661C28.9398 44.1101 28.6238 44.3321 28.2818 44.3321V44.3321ZM25.0858 40.8661C24.7458 40.8661 24.4298 40.6481 24.3238 40.3061L24.2918 40.2001C24.1658 39.7761 24.4058 39.3301 24.8298 39.2041C25.2538 39.0781 25.6978 39.3181 25.8258 39.7421L25.8518 39.8261C25.9838 40.2481 25.7498 40.6961 25.3278 40.8301C25.2478 40.8561 25.1678 40.8681 25.0878 40.8681L25.0858 40.8661ZM25.3638 36.0821C25.2518 36.0821 25.1378 36.0581 25.0298 36.0081C24.6278 35.8241 24.4518 35.3481 24.6378 34.9461L24.6858 34.8441C24.8758 34.4461 25.3538 34.2761 25.7538 34.4681C26.1518 34.6581 26.3198 35.1361 26.1298 35.5341L26.0918 35.6141C25.9578 35.9081 25.6678 36.0801 25.3638 36.0801V36.0821ZM29.0458 33.1881C28.6398 33.1881 28.2918 32.8801 28.2498 32.4681C28.2058 32.0281 28.5258 31.6361 28.9658 31.5921C29.0058 31.5881 29.0438 31.5841 29.0838 31.5821C29.5238 31.5501 29.9078 31.8781 29.9418 32.3181C29.9758 32.7581 29.6458 33.1421 29.2058 33.1761L29.1258 33.1841C29.0978 33.1861 29.0718 33.1881 29.0458 33.1881V33.1881ZM33.0918 30.8761C32.9498 30.8761 32.8058 30.8381 32.6758 30.7581C32.2978 30.5281 32.1798 30.0361 32.4098 29.6581L32.4518 29.5861C32.6738 29.2041 33.1638 29.0761 33.5458 29.2981C33.9278 29.5201 34.0558 30.0101 33.8338 30.3921C33.8138 30.4261 33.7938 30.4581 33.7738 30.4921C33.6238 30.7381 33.3598 30.8761 33.0898 30.8761H33.0918ZM33.8718 26.1501C33.4978 26.1501 33.1638 25.8881 33.0878 25.5081L33.0698 25.4241C32.9758 24.9921 33.2498 24.5661 33.6798 24.4721C34.1118 24.3781 34.5378 24.6521 34.6318 25.0821L34.6558 25.1921C34.7438 25.6261 34.4618 26.0461 34.0298 26.1341C33.9758 26.1441 33.9238 26.1501 33.8718 26.1501V26.1501ZM31.1518 22.2681C31.0298 22.2681 30.9038 22.2401 30.7878 22.1801C30.7638 22.1681 30.7398 22.1561 30.7158 22.1441C30.3178 21.9521 30.1498 21.4741 30.3418 21.0761C30.5338 20.6781 31.0118 20.5101 31.4098 20.7021C31.4458 20.7201 31.4818 20.7381 31.5178 20.7561C31.9118 20.9581 32.0658 21.4401 31.8638 21.8321C31.7218 22.1081 31.4418 22.2661 31.1518 22.2661V22.2681ZM26.2218 21.8981C25.7878 21.8981 25.4298 21.5501 25.4218 21.1141C25.4138 20.6721 25.7638 20.3081 26.2058 20.2981H26.3058C26.7498 20.2881 27.1118 20.6381 27.1218 21.0801C27.1318 21.5221 26.7798 21.8861 26.3378 21.8961H26.2378C26.2378 21.8961 26.2278 21.8981 26.2218 21.8981Z" fill="#1D4EA5"/>
<path d="M38.0358 44.498H37.9858C37.5438 44.498 37.1858 44.14 37.1858 43.698C37.1858 43.256 37.5438 42.8979 37.9858 42.8979H38.0358C38.4778 42.8979 38.8358 43.256 38.8358 43.698C38.8358 44.14 38.4778 44.498 38.0358 44.498Z" fill="#1D4EA5"/>
<path d="M16.9101 26.7222C16.3881 26.7222 15.9661 26.2982 15.9661 25.7782V18.0402C15.9661 17.5182 16.3901 17.0962 16.9101 17.0962C17.4301 17.0962 17.8541 17.5202 17.8541 18.0402V25.7782C17.8541 26.3002 17.4301 26.7222 16.9101 26.7222Z" fill="#1D4EA5"/>
<path d="M16.9101 18.5501C14.7981 18.5501 13.0801 16.8321 13.0801 14.7201C13.0801 12.6081 14.7981 10.8921 16.9101 10.8921C19.0221 10.8921 20.7401 12.6101 20.7401 14.7221C20.7401 16.8341 19.0221 18.5521 16.9101 18.5521V18.5501ZM16.9101 12.7821C15.8401 12.7821 14.9701 13.6521 14.9701 14.7221C14.9701 15.7921 15.8401 16.6621 16.9101 16.6621C17.9801 16.6621 18.8501 15.7921 18.8501 14.7221C18.8501 13.6521 17.9801 12.7821 16.9101 12.7821V12.7821Z" fill="#1D4EA5"/>
<path d="M18.7721 26.784H15.0461C14.5241 26.784 14.1021 26.36 14.1021 25.84C14.1021 25.32 14.5261 24.896 15.0461 24.896H18.7721C19.2941 24.896 19.7161 25.32 19.7161 25.84C19.7161 26.36 19.2921 26.784 18.7721 26.784Z" fill="#1D4EA5"/>
</svg>
