<svg width="12" height="9" viewBox="0 0 12 9" fill="none" xmlns="http://www.w3.org/2000/svg">
<rect width="12" height="9" fill="#E5E5E5"/>
<g clip-path="url(#clip_proceed_right)">
<rect width="1440" height="2771" transform="translate(-328 -2404)" fill="white"/>
<rect x="-328" y="-2305" width="1440" height="2362" fill="#E5EDF4" fill-opacity="0.4"/>
<g filter="url(#filter0_d_0_1)">
<path d="M-328 -4.98242C-328 -18.2373 -317.255 -28.9824 -304 -28.9824H1088C1101.25 -28.9824 1112 -18.2373 1112 -4.98242V62.0176H-328V-4.98242Z" fill="white"/>
</g>
<path d="M8.26479 8.51562L7.2169 7.39345L8.50141 6.03599L9.29577 5.31201L9.27887 5.23961L7.75775 5.3482H0V3.68305H7.75775L9.27887 3.79164L9.29577 3.71925L8.50141 2.99526L7.2169 1.6378L8.26479 0.515625L12 4.51562L8.26479 8.51562Z" fill="black"/>
</g>
<defs>
<filter id="filter0_d_0_1" x="-332" y="-36.9824" width="1448" height="99" filterUnits="userSpaceOnUse" color-interpolation-filters="sRGB">
<feFlood flood-opacity="0" result="BackgroundImageFix"/>
<feColorMatrix in="SourceAlpha" type="matrix" values="0 0 0 0 0 0 0 0 0 0 0 0 0 0 0 0 0 0 127 0" result="hardAlpha"/>
<feOffset dy="-4"/>
<feGaussianBlur stdDeviation="2"/>
<feComposite in2="hardAlpha" operator="out"/>
<feColorMatrix type="matrix" values="0 0 0 0 0 0 0 0 0 0 0 0 0 0 0 0 0 0 0.25 0"/>
<feBlend mode="normal" in2="BackgroundImageFix" result="effect1_dropShadow_0_1"/>
<feBlend mode="normal" in="SourceGraphic" in2="effect1_dropShadow_0_1" result="shape"/>
</filter>
<clipPath id="clip_proceed_right">
<rect width="1440" height="2771" fill="white" transform="translate(-328 -2404)"/>
</clipPath>
</defs>
</svg>
