<svg width="28" height="28" viewBox="0 0 28 28" fill="none" xmlns="http://www.w3.org/2000/svg">
<rect width="28" height="28" rx="4" fill="#DDF0FB"/>
<g clip-path="url(#clip0_15239_60791)">
<g clip-path="url(#clip1_15239_60791)">
<path d="M17.7919 7.6445C17.7438 7.59757 17.6794 7.57129 17.6124 7.57129C17.5454 7.57129 17.481 7.59757 17.433 7.6445L6.31947 18.575C6.29492 18.5992 6.27544 18.6281 6.26217 18.6599C6.24889 18.6918 6.2421 18.726 6.24219 18.7606V21.0912C6.24218 21.1256 6.24899 21.1596 6.2622 21.1913C6.27541 21.223 6.29477 21.2517 6.31915 21.2758C6.34352 21.2999 6.37243 21.3189 6.40418 21.3317C6.43593 21.3444 6.46989 21.3507 6.50408 21.3501L8.98557 21.3078C9.04981 21.306 9.11106 21.2802 9.1573 21.2353L20.2657 10.4239C20.2905 10.3998 20.3102 10.3709 20.3236 10.3389C20.3371 10.307 20.344 10.2726 20.344 10.2379C20.344 10.2032 20.3371 10.1689 20.3236 10.1369C20.3102 10.105 20.2905 10.076 20.2657 10.0519L17.7919 7.6445ZM8.58459 20.4921H7.35843C7.29011 20.4921 7.22459 20.4648 7.17629 20.4163C7.12798 20.3677 7.10084 20.3019 7.10084 20.2332V19.1041C7.10086 19.0695 7.10779 19.0353 7.12121 19.0034C7.13463 18.9715 7.15427 18.9427 7.17898 18.9186L17.4622 8.87365C17.5102 8.82672 17.5746 8.80049 17.6416 8.80049C17.7086 8.80049 17.773 8.82672 17.8211 8.87365L19.0447 10.0648C19.0695 10.089 19.0892 10.1179 19.1026 10.1498C19.1161 10.1818 19.123 10.2162 19.123 10.2509C19.123 10.2856 19.1161 10.3199 19.1026 10.3519C19.0892 10.3838 19.0695 10.4127 19.0447 10.4369L8.76318 20.4188C8.71535 20.4656 8.65133 20.4919 8.58459 20.4921Z" fill="#3398D5"/>
<path d="M18.7896 6.2847L18.3117 6.78076C18.2787 6.81501 18.2796 6.86966 18.3136 6.90282L21.1208 9.63565C21.1549 9.66881 21.2093 9.66793 21.2423 9.63369L21.7201 9.13762C21.7531 9.10337 21.7522 9.04872 21.7182 9.01556L18.911 6.28274C18.8769 6.24957 18.8225 6.25045 18.7896 6.2847Z" fill="#3398D5"/>
<path d="M6.85547 18.7813L17.5742 8.0625L19.6159 10.1042L8.89714 20.8229H6.85547V18.7813Z" fill="#3398D5"/>
</g>
</g>
<defs>
<clipPath id="clip0_15239_60791">
<rect width="16.3333" height="16.3333" fill="white" transform="translate(5.83398 5.83301)"/>
</clipPath>
<clipPath id="clip1_15239_60791">
<rect width="15.5167" height="15.1083" fill="white" transform="translate(6.24219 6.24219)"/>
</clipPath>
</defs>
</svg>
