<svg width="22" height="23" viewBox="0 0 22 23" fill="none" xmlns="http://www.w3.org/2000/svg">
<g clip-path="url(#clip0_25278_32708)">
<path d="M10.9994 22.5C4.93422 22.5 0 17.5645 0 11.4994C0 5.43422 4.93422 0.5 10.9994 0.5C17.0645 0.5 21.9987 5.43422 21.9987 11.4994C21.9987 17.5645 17.0645 22.4987 10.9994 22.4987V22.5ZM10.9994 2.00625C5.76516 2.00625 1.50625 6.26516 1.50625 11.4994C1.50625 16.7336 5.76516 20.9925 10.9994 20.9925C16.2336 20.9925 20.4925 16.7336 20.4925 11.4994C20.4925 6.26516 16.2348 2.00625 10.9994 2.00625Z" fill="white"/>
<path d="M11.0142 15.599C10.6 15.599 10.2636 15.2639 10.2611 14.8497L10.2448 11.5033C10.2448 11.3025 10.3226 11.1104 10.4644 10.9686C10.6063 10.8267 10.7983 10.7464 10.9979 10.7464C12.4866 10.7464 13.6966 9.53639 13.6966 8.04771C13.6966 6.55904 12.4866 5.34902 10.9979 5.34902C9.50923 5.34902 8.29922 6.55904 8.29922 8.04771C8.29922 8.46319 7.96157 8.80084 7.54609 8.80084C7.13062 8.80084 6.79297 8.46319 6.79297 8.04771C6.79297 5.72935 8.67954 3.84277 10.9979 3.84277C13.3163 3.84277 15.2029 5.72935 15.2029 8.04771C15.2029 10.1075 13.7129 11.8271 11.7548 12.1849L11.7686 14.8421C11.7711 15.2576 11.4347 15.5965 11.0192 15.599H11.0155H11.0142Z" fill="white"/>
<path d="M10.9992 18.4027C11.4152 18.4027 11.7523 18.0655 11.7523 17.6496C11.7523 17.2337 11.4152 16.8965 10.9992 16.8965C10.5833 16.8965 10.2461 17.2337 10.2461 17.6496C10.2461 18.0655 10.5833 18.4027 10.9992 18.4027Z" fill="white"/>
</g>
<defs>
<clipPath id="clip0_25278_32708">
<rect width="22" height="22" fill="white" transform="translate(0 0.5)"/>
</clipPath>
</defs>
</svg>
