<svg width="337" height="333" viewBox="0 0 337 333" fill="none" xmlns="http://www.w3.org/2000/svg">
<g clip-path="url(#clip0_708_44385)">
<path d="M291.311 52.614H290.079V18.8308C290.079 8.436 281.632 0 271.193 0H149.388C138.962 0 130.501 8.42294 130.501 18.8308V52.614H129.27C128.353 52.614 127.594 53.3584 127.594 54.2855V78.8492C127.594 79.7633 128.34 80.5207 129.27 80.5207H130.501V85.9401H129.27C128.353 85.9401 127.594 86.6845 127.594 87.6116V112.175C127.594 113.089 128.34 113.847 129.27 113.847H130.501V313.895C130.501 324.29 138.949 332.726 149.388 332.726H271.193C281.619 332.726 290.079 324.303 290.079 313.895V94.4414H291.311C292.227 94.4414 292.987 93.6971 292.987 92.7699V54.2594C292.987 53.3453 292.24 52.5879 291.311 52.5879V52.614Z" fill="url(#paint0_linear_708_44385)"/>
<mask id="mask0_708_44385" style="mask-type:luminance" maskUnits="userSpaceOnUse" x="138" y="8" width="144" height="317">
<path d="M267.569 8.4375H153.046C145.284 8.4375 138.992 14.7109 138.992 22.4496V310.24C138.992 317.979 145.284 324.252 153.046 324.252H267.569C275.33 324.252 281.622 317.979 281.622 310.24V22.4496C281.622 14.7109 275.33 8.4375 267.569 8.4375Z" fill="white"/>
</mask>
<g mask="url(#mask0_708_44385)">
<mask id="mask1_708_44385" style="mask-type:luminance" maskUnits="userSpaceOnUse" x="45" y="6" width="277" height="320">
<path d="M321.99 6.79297H45.793V325.729H321.99V6.79297Z" fill="white"/>
</mask>
<g mask="url(#mask1_708_44385)">
<path d="M325.241 6.79297H42.5742V325.729H325.241V6.79297Z" fill="url(#paint1_linear_708_44385)"/>
<path d="M455.414 284.593C457.457 273.571 450.162 262.967 439.095 260.93C442.945 259.011 444.517 254.336 442.592 250.496C440.666 246.657 435.978 245.09 432.127 247.009C439.907 243.536 443.378 234.434 439.894 226.677C436.659 219.468 428.538 215.969 421.151 218.306C428.774 214.989 432.821 206.41 430.267 198.313C428.473 192.646 423.889 188.65 418.493 187.318C425.67 185.45 431.524 179.639 433.057 171.895C435.192 161.109 428.145 150.635 417.327 148.507C411.813 139.052 399.672 135.853 390.189 141.337C381.611 146.313 378.153 156.721 381.676 165.653C375.337 154.24 361.27 149.121 348.88 154.213C335.534 159.698 329.169 174.925 334.656 188.232C329.588 183.295 321.467 183.387 316.517 188.428C311.566 193.481 311.658 201.578 316.713 206.514C311.409 205.391 306.183 208.786 305.07 214.075C303.943 219.364 307.349 224.574 312.653 225.684C307.977 225.149 303.707 228.231 302.686 232.71C297.264 228.701 290.073 227.212 283.132 229.341C273.728 232.214 267.664 240.833 267.611 250.144C266.537 249.425 265.306 248.903 263.97 248.629C259.006 247.61 254.147 250.326 252.313 254.858C253.964 248.093 250.401 240.989 243.722 238.391C237.029 235.792 229.576 238.626 226.21 244.724C230.703 234.316 226.525 222.028 216.309 216.582C205.543 210.85 192.144 214.911 186.395 225.645C187.455 219.912 183.657 214.402 177.907 213.331C172.158 212.273 166.631 216.06 165.557 221.793C165.596 217.927 162.492 214.767 158.615 214.728C157.318 214.715 156.1 215.068 155.04 215.668C156.284 211.189 155.17 206.175 151.66 202.623C146.435 197.334 137.882 197.281 132.578 202.492C131.635 196.132 125.701 191.745 119.336 192.685C112.958 193.625 108.557 199.541 109.5 205.887C109.212 203.027 107.038 200.807 104.327 200.35C104.327 200.259 104.34 200.168 104.34 200.076C104.405 196.119 101.249 192.855 97.2802 192.789C103.776 181.898 100.201 167.821 89.2777 161.344C78.3545 154.866 64.2356 158.431 57.7393 169.323C55.814 162.101 48.3747 157.818 41.145 159.737C38.6303 160.403 36.4823 161.748 34.819 163.498C34.2296 163.25 33.5878 163.08 32.9198 163.015C39.4554 157.765 40.4901 148.219 35.225 141.703C29.9599 135.187 20.3857 134.155 13.8501 139.405C17.2292 136.127 17.2947 130.734 14.0073 127.365C10.7198 123.995 5.31064 123.93 1.93152 127.208C0.909931 120.469 -5.40299 115.847 -12.1481 116.865C-18.9064 117.884 -23.5428 124.178 -22.5212 130.903C-29.2009 126.777 -37.9761 128.814 -42.1149 135.474C-46.2536 142.134 -44.2104 150.883 -37.5308 155.01C-43.5032 153.273 -49.7506 156.682 -51.4926 162.636C-52.3046 165.392 -51.9903 168.199 -50.8377 170.615C-55.0026 168.918 -59.8879 169.114 -64.0398 171.621C-70.9814 175.813 -73.2079 184.836 -69.0037 191.758C-78.198 194.395 -83.5025 203.955 -80.8568 213.122C-80.0972 215.773 -78.735 218.084 -76.98 219.991C-82.0225 220.761 -86.8292 223.269 -90.3917 227.46C-98.237 236.68 -97.1106 250.496 -87.8639 258.332C-90.1821 258.436 -91.9895 260.408 -91.8717 262.719C-91.7669 265.031 -89.7892 266.833 -87.471 266.715C-98.2632 271.208 -103.371 283.574 -98.8657 294.348C-94.7662 304.142 -84.1311 309.235 -74.1117 306.688C-80.6734 309.627 -84.4848 316.861 -82.8345 324.122C-80.9616 332.427 -72.6841 337.638 -64.3672 335.757C-69.9467 340.576 -70.5492 348.986 -65.7294 354.549C-63.0444 357.631 -59.2593 359.198 -55.461 359.146C-59.0497 362.019 -61.2763 366.485 -61.0405 371.421C-60.6476 379.596 -53.6798 385.916 -45.4809 385.524C-44.6426 394.927 -36.3127 401.874 -26.8695 401.038C-19.1683 400.359 -13.1173 394.692 -11.6111 387.522C-10.9432 393.791 -6.41148 399.236 0.097903 400.738C8.29684 402.632 16.4958 397.539 18.3949 389.364C18.6961 393.203 22.0622 396.076 25.9128 395.776C29.7634 395.475 32.6448 392.119 32.3436 388.28C34.5963 392.289 39.6781 393.712 43.699 391.466C43.8692 391.375 44.0133 391.27 44.1705 391.166C44.7206 395.24 46.8816 399.08 50.4965 401.652C57.4512 406.601 67.117 404.982 72.0678 398.048C75.997 408.848 87.9418 414.424 98.7733 410.506C109.055 406.784 114.621 395.841 111.779 385.498C114.372 392.446 121.825 396.507 129.225 394.679C133.992 393.503 137.633 390.147 139.362 385.942C139.886 386.87 140.593 387.718 141.484 388.41C145.099 391.231 150.324 390.591 153.14 386.987C151.582 398.596 159.755 409.265 171.398 410.832C183.042 412.386 193.742 404.238 195.314 392.628C193.978 399.393 198.392 405.962 205.176 407.294C211.961 408.626 218.549 404.225 219.884 397.46C223.696 402.135 230.598 402.84 235.274 399.027C238.181 396.664 239.557 393.112 239.269 389.651C242.936 395.306 249.786 398.479 256.819 397.121C260.015 396.507 262.818 395.018 265.057 392.968C267.546 396.324 271.96 397.93 276.19 396.664C275.391 402.893 279.818 408.573 286.065 409.37C292.313 410.166 298.01 405.753 298.809 399.524C298.586 411.72 308.318 421.776 320.538 421.998C332.77 422.22 342.855 412.517 343.078 400.333C346.758 402.945 351.866 402.096 354.499 398.427C354.63 398.244 354.761 398.048 354.866 397.852C357.721 402.88 362.894 406.497 369.103 407.111C378.284 408.012 386.548 402.018 388.735 393.373C387.832 402.018 393.333 410.258 402.016 412.53C411.617 415.05 421.44 409.331 423.967 399.759C438.44 400.699 450.935 389.756 451.865 375.326C452.795 360.896 441.832 348.437 427.36 347.51C434.825 347.118 440.549 340.759 440.143 333.328C439.815 327.204 435.441 322.268 429.743 320.922C433.83 320.531 437.458 317.723 438.663 313.557C440.234 308.112 437.078 302.418 431.616 300.851C442.67 302.888 453.305 295.614 455.349 284.58L455.414 284.593Z" fill="url(#paint2_linear_708_44385)"/>
<path d="M420.693 317.946C420.536 306.48 411.08 297.326 399.58 297.482C407.268 292.298 409.272 281.877 404.072 274.212C402.841 272.396 401.309 270.921 399.606 269.758C400.497 269.053 401.335 268.257 402.069 267.33C407.294 260.787 406.207 251.267 399.659 246.057C404.544 244.894 407.569 239.997 406.404 235.113C405.238 230.242 400.327 227.226 395.428 228.388C404.138 227.148 410.189 219.09 408.945 210.406C407.7 201.722 399.619 195.689 390.91 196.929C390.32 190.805 384.859 186.326 378.716 186.913C372.573 187.501 368.081 192.946 368.67 199.071C357.773 198.601 348.566 207.024 348.094 217.889C347.963 221.075 348.592 224.105 349.823 226.821C347.374 228.414 345.527 230.948 344.912 234.03C344.021 225.189 336.11 218.725 327.243 219.613C318.377 220.501 311.893 228.388 312.784 237.229C312.627 237.399 312.496 237.582 312.352 237.764C312.116 237.777 311.88 237.79 311.631 237.817C300.879 238.874 293.02 248.42 294.068 259.155C292.509 256.373 289.445 254.963 286.458 255.355C284.559 251.75 281.599 248.668 277.749 246.592C267.454 241.081 254.632 244.934 249.105 255.198C247.179 249.348 240.853 246.161 234.986 248.081C233.597 248.538 232.366 249.243 231.319 250.118C229.76 248.708 227.586 248.002 225.359 248.407C227.101 238.404 220.382 228.884 210.35 227.148C200.317 225.411 190.769 232.11 189.027 242.113C186.919 233.794 178.458 228.767 170.128 230.856C165.701 231.966 162.217 234.878 160.213 238.613C157.855 236.093 153.966 235.531 150.953 237.464C150.966 232.476 146.932 228.401 141.916 228.388C139.087 228.388 136.546 229.668 134.883 231.679C132.381 228.349 127.915 226.899 123.802 228.414C121.052 229.433 119.061 231.561 118.105 234.095C117.411 232.711 116.285 231.522 114.791 230.765C111.098 228.91 106.606 230.386 104.733 234.056C107.719 226.612 104.091 218.163 96.6254 215.186C89.1599 212.208 80.6859 215.826 77.6997 223.269C76.9532 222.76 76.1412 222.446 75.3029 222.277C75.9316 215.512 73.3121 208.565 67.6672 203.903C58.8527 196.603 45.8994 197.569 38.2505 205.914C41.0796 202.336 40.8176 197.125 37.4778 193.848C34.0201 190.452 28.5454 190.374 24.996 193.573C24.996 193.534 25.0091 193.482 25.0091 193.443C24.9829 193.195 24.7603 193.012 24.5114 193.038C29.9075 185.607 28.2573 175.226 20.8049 169.832C13.7716 164.752 4.09266 165.941 -1.513 172.353C1.01479 168.683 0.608768 163.629 -2.71796 160.443C-6.41141 156.904 -12.2921 157.009 -15.8415 160.691C-23.1629 164.047 -26.3718 172.679 -23.0057 179.966C-22.2854 181.52 -21.3162 182.878 -20.1898 184.04C-23.6082 185.085 -26.7647 187.122 -29.1353 190.139C-35.3304 197.987 -33.9682 209.348 -26.0967 215.525C-29.6068 215.525 -32.4489 218.346 -32.462 221.846C-32.462 225.345 -29.633 228.179 -26.1229 228.192C-31.6238 233.35 -31.8726 241.969 -26.7123 247.454C-24.8525 249.426 -22.5473 250.706 -20.1112 251.319C-24.2238 254.245 -27.1314 258.828 -27.7339 264.222C-28.4935 271.012 -25.4419 277.346 -20.2684 281.107C-24.9834 280.832 -29.7509 282.726 -32.9728 286.644C-38.3165 293.147 -37.3473 302.732 -30.8249 308.06C-37.2819 310.672 -40.399 317.998 -37.7927 324.449C-36.7187 327.113 -34.8196 329.189 -32.5144 330.547C-35.0291 331.553 -37.2557 333.342 -38.7357 335.849C-42.2981 341.869 -40.2942 349.613 -34.2695 353.165C-36.3257 360.465 -32.0429 368.039 -24.7215 370.089C-17.4001 372.14 -9.80363 367.869 -7.74734 360.569C-6.13637 374.451 6.45018 384.402 20.3727 382.796C34.2951 381.189 44.2753 368.64 42.6644 354.758C43.5943 361.601 49.9072 366.394 56.7702 365.467C62.5592 364.683 66.8682 360.073 67.5231 354.549C68.2435 360.622 73.0371 365.649 79.4024 366.394C86.8417 367.256 93.5606 361.954 94.4382 354.536C96.2587 361.053 103.043 364.853 109.566 363.038C113.822 361.849 116.9 358.572 118.053 354.641C118.786 356.195 120.03 357.514 121.694 358.323C125.557 360.191 130.207 358.585 132.093 354.732C135.577 366.838 148.229 373.837 160.37 370.364C170.049 367.595 176.467 359.016 176.912 349.509C178.117 351.676 180.16 353.374 182.74 354.105C187.901 355.555 193.258 352.577 194.711 347.432C195.838 352.251 200.671 355.255 205.504 354.145C209.092 353.309 211.673 350.449 212.314 347.041C213.388 356.822 221.338 364.735 231.528 365.414C239.989 365.989 247.612 361.418 251.318 354.38C251.554 355.006 251.894 355.62 252.327 356.182C254.737 359.303 259.216 359.89 262.359 357.488C264.769 366.002 273.649 370.938 282.189 368.535C287.559 367.021 291.514 362.946 293.099 358.023C294.644 364.592 299.66 370.129 306.641 372.009C316.779 374.738 327.217 368.77 329.955 358.663C333.845 361.967 339.686 361.497 343 357.605C343.432 357.096 343.799 356.56 344.1 355.999C347.322 362.463 353.739 367.164 361.493 367.843C373.32 368.875 383.758 360.152 384.793 348.36C385.906 350.07 388.198 350.553 389.914 349.443C391.63 348.333 392.115 346.048 391.001 344.337C392.494 346.871 395.756 347.72 398.297 346.231C400.837 344.742 401.689 341.491 400.196 338.957C411.695 338.8 420.876 329.372 420.719 317.906L420.693 317.946Z" fill="url(#paint3_linear_708_44385)"/>
<path d="M419.855 237.857C424.832 234.37 426.037 227.514 422.54 222.552C419.043 217.589 412.167 216.388 407.19 219.875C409.129 216.845 408.238 212.836 405.213 210.903C402.174 208.971 398.153 209.859 396.215 212.875C393.962 204.975 385.724 200.391 377.8 202.624C369.876 204.87 365.279 213.084 367.518 220.985C358.953 218.477 349.968 223.374 347.453 231.915C345.266 239.371 348.724 247.155 355.351 250.667C355.089 250.733 354.827 250.824 354.578 250.981C353.517 251.621 353.046 252.848 353.308 253.997C350.544 247.155 342.895 243.55 335.784 245.914C328.384 248.369 324.389 256.335 326.851 263.713C325.214 259.312 320.302 257.066 315.889 258.699C311.475 260.331 309.222 265.228 310.859 269.629C306.747 263.883 298.757 262.551 292.995 266.651C288.489 269.851 286.708 275.427 288.096 280.441C284.913 275.871 279.072 273.573 273.401 275.153C270.795 275.884 268.594 277.333 266.931 279.214C266.355 277.555 265.411 276.001 264.089 274.669C259.374 269.955 251.725 269.942 246.997 274.643C244.731 270.817 239.78 269.537 235.942 271.797C235.471 272.071 235.052 272.384 234.659 272.737C233.952 265.489 229.394 258.842 222.203 255.773C216.021 253.149 209.276 253.749 203.854 256.818C200.842 251.02 194.961 246.88 187.954 246.384C177.816 245.653 168.936 252.822 167.339 262.642C167.234 260.618 165.885 258.79 163.828 258.163C161.196 257.367 158.419 258.842 157.607 261.467C157.411 254.663 151.713 249.309 144.89 249.505C140.895 249.623 137.411 251.621 135.237 254.624C135.551 248.774 132.709 242.937 127.339 239.698C119.573 235.023 109.475 237.504 104.786 245.248C99.3241 241.996 92.4218 243.315 88.5057 248.069C84.8515 242.075 78.8136 237.543 71.3874 236.015C57.6352 233.169 44.1711 241.605 40.6479 255.003C41.0147 252.104 39.3382 249.257 36.4699 248.238C33.7326 247.272 30.7725 248.278 29.1616 250.537C32.1478 244.033 29.8688 236.185 23.5952 232.346C18.9849 229.525 13.4055 229.603 8.99166 232.072C13.5495 225.699 13.9818 216.936 9.42387 210.002C3.47768 200.979 -8.67666 198.458 -17.7269 204.374C-29.2002 205.719 -37.3991 216.088 -36.0501 227.514C-34.9106 237.217 -27.2487 244.582 -17.9365 245.757C-21.3287 246.632 -24.1708 249.244 -25.14 252.861C-26.3843 257.458 -24.1839 262.172 -20.1368 264.314C-30.7457 260.723 -42.5595 265.659 -47.3007 276.041C-52.3563 287.115 -47.4579 300.173 -36.3644 305.214C-45.6898 307.996 -50.9811 317.777 -48.1913 327.075C-45.4016 336.372 -35.5917 341.648 -26.2664 338.867C-22.8349 341.687 -17.7531 341.217 -14.8979 337.809C-12.226 345.017 -5.87383 350.646 2.27272 352.03C14.414 354.093 25.9265 345.958 27.9828 333.852C29.4628 337.117 33.3265 338.553 36.6009 337.078C39.0501 335.968 40.4777 333.526 40.4122 331.005C41.7743 334.44 45.2582 336.751 49.1481 336.451C52.2653 336.216 54.8717 334.348 56.2076 331.763C55.592 340.094 60.6476 348.099 68.9513 350.894C78.7874 354.198 89.4355 348.922 92.7492 339.115C94.6483 347.368 102.9 352.539 111.177 350.646C119.455 348.752 124.641 340.525 122.742 332.272C125.571 337.104 131.792 338.723 136.638 335.902C138.996 334.531 140.594 332.337 141.288 329.908C143.75 337.065 150.286 342.458 158.341 343.085C169.146 343.92 178.589 335.863 179.427 325.09C179.532 330.548 184.038 334.884 189.512 334.792C194.987 334.688 199.335 330.196 199.244 324.737C199.768 332.938 206.866 339.154 215.091 338.632C219.872 338.318 223.971 335.798 226.473 332.128C226.735 332.768 227.076 333.395 227.521 333.983C230.193 337.469 235.196 338.148 238.706 335.484C237.724 346.284 245.7 355.83 256.531 356.809C267.363 357.789 276.937 349.836 277.919 339.036C279.151 342.745 283.158 344.756 286.878 343.529C290.598 342.301 292.615 338.305 291.384 334.596C294.946 343.555 305.123 347.943 314.107 344.391C320.866 341.727 325.031 335.328 325.162 328.511C327.336 333.447 332.116 337.012 337.879 337.352C346.052 337.822 353.072 331.593 353.544 323.444C354.316 331.58 361.572 337.548 369.732 336.777C375.599 336.216 380.315 332.324 382.24 327.166C382.803 331.815 385.815 336.02 390.491 337.9C397.315 340.643 405.068 337.339 407.806 330.548C415.009 329.007 419.607 321.929 418.061 314.747C416.961 309.641 413.071 305.88 408.33 304.652C413.896 303.608 418.611 299.403 419.986 293.552C421.859 285.626 416.935 277.699 408.985 275.832C419.502 278.835 430.464 272.776 433.477 262.303C436.489 251.817 430.412 240.886 419.908 237.883L419.855 237.857Z" fill="url(#paint4_linear_708_44385)"/>
</g>
</g>
<path d="M287.478 190.617C289.693 186.052 263.203 168.707 228.311 151.874C193.419 135.041 163.338 125.096 161.124 129.66C158.909 134.224 185.399 151.569 220.291 168.402C255.182 185.235 285.263 195.181 287.478 190.617Z" fill="url(#paint5_linear_708_44385)"/>
<path d="M1.14077 78.9023L1.63322 79.9885L1.54369 88.0978C25.5104 97.6503 53.984 104.599 77.5328 111.429C79.0401 112.113 80.3533 113.14 81.771 114.003C83.2335 114.895 84.7109 115.788 86.1734 116.681C86.3674 116.8 86.5465 116.904 86.7405 117.023C90.5907 119.359 94.4558 121.695 98.306 124.046C68.7878 113.824 36.8222 107.143 9.72163 93.7668C7.4533 92.6509 4.1851 90.8802 1.52876 89.7494C1.06614 89.2733 0.63337 88.812 0.260289 88.4102C0.155826 88.3061 -0.0381732 88.2317 0.00659647 88.1424L1.15568 78.9172L1.14077 78.9023Z" fill="url(#paint6_linear_708_44385)"/>
<path d="M189.83 78.0811C183.801 90.2524 177.041 107.096 173.042 110.816C172.728 110.622 172.37 110.429 171.938 110.295C175.788 107.304 182.533 90.4161 188.517 78.3043C189.98 75.3582 191.368 72.9626 192.561 70.2695C192.74 69.8677 192.994 69.466 193.367 69.4809C193.517 69.4809 193.666 69.4957 193.8 69.5106C193.905 69.5106 194.024 69.5106 194.128 69.5255C194.084 69.6148 194.039 69.7041 193.994 69.7933C192.77 72.5758 191.323 75.0458 189.816 78.0811H189.83Z" fill="url(#paint7_linear_708_44385)"/>
<path d="M186.533 119.786C185.399 119.518 178.191 113.938 175.445 112.272C175.027 112.019 174.714 111.855 174.55 111.825C174.147 111.736 173.714 111.26 173.027 110.814C177.042 107.094 183.802 90.2355 189.816 78.0791C191.323 75.0288 192.756 72.5737 193.994 69.7913C194.039 69.702 194.084 69.6127 194.129 69.5234C195.039 69.5681 196.114 69.6574 196.875 69.8657C193.547 86.2627 189.861 103.389 186.533 119.786Z" fill="url(#paint8_linear_708_44385)"/>
<path d="M182.131 119.344C177.565 115.788 172.64 112.678 167.67 109.703C157.851 103.84 146.151 97.799 134.75 92.249C128.109 89.0202 121.573 85.9402 115.558 83.1726C106.485 78.9915 98.6057 75.4949 93.4124 73.1142C81.235 67.5642 71.2066 68.5611 63.7002 72.6381C61.1035 74.0516 58.8203 75.8222 56.8504 77.8161C56.164 78.5154 55.5073 79.2445 54.8955 79.9885C53.5076 81.6996 52.3138 83.5149 51.3438 85.3599C52.463 82.7114 54.0001 80.0629 55.9699 77.6524C56.5818 76.9084 57.2235 76.1942 57.91 75.4949C59.8649 73.5011 62.1482 71.7453 64.715 70.3466C72.1617 66.2995 82.1304 65.3174 94.2331 70.8228C99.3966 73.1737 107.216 76.6555 116.23 80.8068C122.199 83.5595 128.706 86.6098 135.302 89.8237C146.629 95.3439 158.254 101.34 167.999 107.158C172.938 110.104 177.818 113.199 182.355 116.726C185.698 119.315 189.473 122.335 191.354 126.233C191.712 126.977 191.936 127.677 192.04 128.361C192.13 129.016 192.07 129.626 191.906 130.206C191.876 130.325 191.831 130.444 191.786 130.548C191.667 130.013 191.458 129.447 191.189 128.882C189.294 124.969 185.504 121.933 182.131 119.315V119.344Z" fill="white"/>
<path d="M189.591 133.838C188.591 135.013 187.546 136.069 186.442 137.007C175.249 146.53 158.744 144.208 143.09 139.64C136.807 137.81 130.629 135.593 124.451 133.466C122.182 132.692 119.437 131.74 116.332 130.638C105.588 126.859 90.7093 121.384 77.6813 115.491C73.8908 113.78 70.2644 112.039 66.9515 110.284C61.6985 107.516 57.3708 104.793 54.3563 102.174C52.0581 100.18 50.521 98.2461 49.8942 96.3862C49.6405 95.6423 49.5062 94.809 49.4615 93.9609C49.4018 92.6218 49.5659 91.2231 49.8345 90.0328C49.939 89.5715 50.0584 89.1102 50.1927 88.6341C50.5061 87.5479 50.8941 86.4319 51.3567 85.3309C52.3267 83.471 53.5057 81.6557 54.9084 79.9594C55.5203 79.2155 56.1769 78.4864 56.8634 77.787C58.8332 75.7932 61.1165 74.0077 63.7131 72.609C71.2195 68.5321 81.248 67.5352 93.4253 73.0852C98.6335 75.451 106.498 78.9625 115.571 83.1436C121.585 85.9112 128.122 88.9763 134.763 92.22C146.164 97.77 157.864 103.811 167.683 109.673C172.653 112.634 177.563 115.759 182.144 119.315C185.502 121.934 189.307 124.969 191.202 128.883C191.471 129.448 191.68 130.014 191.799 130.549C191.71 130.787 191.605 131.025 191.486 131.249C190.993 132.171 190.292 133.004 189.606 133.808L189.591 133.838Z" fill="url(#paint9_linear_708_44385)"/>
<path d="M39.7945 121.308C41.3465 122.751 43.0477 123.718 45.2862 124.403C46.107 124.641 48.0918 124.76 48.9872 124.7C51.4346 124.551 53.3895 124.209 55.5385 122.81C55.9265 122.557 56.2996 122.275 56.6428 121.977C57.777 120.995 58.6127 119.76 58.8962 118.362C58.9559 118.064 59.0007 117.766 59.0156 117.454C59.1051 116.204 58.8813 115.386 58.5082 114.18C57.9262 112.291 56.8667 110.58 55.4042 109.226C55.061 108.913 54.7028 108.616 54.3297 108.333C51.5988 106.309 48.0918 105.387 44.7191 105.387C42.3463 105.387 40.1974 106.354 38.6454 107.901C37.8097 108.735 37.1381 109.746 36.7054 110.877C36.4218 111.606 36.2427 112.365 36.1681 113.169C36.1532 113.362 36.1383 113.57 36.1383 113.764C36.0786 116.665 37.7351 119.373 39.7945 121.308Z" fill="url(#paint10_linear_708_44385)"/>
<path d="M44.763 122.573C49.5186 122.573 53.3738 118.729 53.3738 113.988C53.3738 109.246 49.5186 105.402 44.763 105.402C40.0075 105.402 36.1523 109.246 36.1523 113.988C36.1523 118.729 40.0075 122.573 44.763 122.573Z" fill="url(#paint11_linear_708_44385)"/>
<path d="M44.7638 120.815C48.5468 120.815 51.6136 117.758 51.6136 113.986C51.6136 110.214 48.5468 107.156 44.7638 107.156C40.9808 107.156 37.9141 110.214 37.9141 113.986C37.9141 117.758 40.9808 120.815 44.7638 120.815Z" fill="url(#paint12_linear_708_44385)"/>
<path d="M73.0366 75.3021C70.4997 74.9152 67.8732 74.7069 65.2168 74.5879L62.3516 78.8136C65.4705 78.8731 68.4701 79.0666 71.4249 79.3195L73.0366 75.3021Z" fill="url(#paint13_linear_708_44385)"/>
<path d="M60.174 74.8993C61.9648 74.7951 62.8154 74.4975 64.6062 74.5868L61.7111 78.8125C59.786 78.4703 58.3235 78.4108 56.3984 78.2769C57.3684 77.0419 58.8757 75.9111 60.1889 74.8844L60.174 74.8993Z" fill="url(#paint14_linear_708_44385)"/>
<path d="M73.5587 75.3906C76.1703 76.4917 78.6923 77.816 80.9159 79.8247C81.3934 80.5686 81.7217 81.3424 81.9307 82.1458C78.946 81.0448 75.7375 80.0627 72.0664 79.3188L73.5587 75.3906Z" fill="url(#paint15_linear_708_44385)"/>
<path d="M109.542 89.047C109.527 89.7612 109.214 90.2968 108.841 90.2373C108.468 90.1778 108.199 89.538 108.229 88.8238C108.259 88.1096 108.557 87.5739 108.93 87.6334C109.288 87.6929 109.572 88.3327 109.542 89.047Z" fill="url(#paint16_linear_708_44385)"/>
<path d="M111.569 90.045C111.554 90.7592 111.241 91.2949 110.868 91.2354C110.495 91.1758 110.226 90.536 110.256 89.8218C110.271 89.1076 110.584 88.572 110.958 88.6315C111.316 88.691 111.599 89.3308 111.569 90.045Z" fill="url(#paint17_linear_708_44385)"/>
<path d="M113.601 91.0274C113.586 91.7416 113.272 92.2773 112.899 92.2178C112.541 92.1583 112.257 91.5184 112.287 90.8042C112.317 90.09 112.616 89.5544 112.989 89.6139C113.347 89.6734 113.63 90.3132 113.601 91.0274Z" fill="url(#paint18_linear_708_44385)"/>
<path d="M114.993 93.208C115.356 93.2015 115.639 92.61 115.626 91.887C115.613 91.1639 115.308 90.5831 114.946 90.5897C114.583 90.5962 114.3 91.1877 114.313 91.9107C114.326 92.6338 114.631 93.2146 114.993 93.208Z" fill="url(#paint19_linear_708_44385)"/>
<path d="M117.028 94.2119C117.391 94.2053 117.674 93.6139 117.661 92.8909C117.648 92.1678 117.343 91.587 116.981 91.5936C116.618 91.6001 116.335 92.1916 116.348 92.9146C116.361 93.6377 116.666 94.2185 117.028 94.2119Z" fill="url(#paint20_linear_708_44385)"/>
<path d="M119.691 93.9727C119.676 94.687 119.362 95.2226 118.989 95.1631C118.616 95.1036 118.347 94.4638 118.377 93.7496C118.407 93.0353 118.706 92.4997 119.079 92.5592C119.437 92.6187 119.72 93.2585 119.691 93.9727Z" fill="url(#paint21_linear_708_44385)"/>
<path d="M121.718 94.9688C121.703 95.6831 121.389 96.2187 121.016 96.1592C120.658 96.0997 120.375 95.4599 120.405 94.7457C120.419 94.0314 120.733 93.4958 121.106 93.5553C121.464 93.6148 121.748 94.2546 121.718 94.9688Z" fill="url(#paint22_linear_708_44385)"/>
<path d="M123.749 95.9532C123.734 96.6674 123.421 97.2031 123.048 97.1436C122.689 97.084 122.406 96.4442 122.436 95.73C122.466 95.0158 122.764 94.4802 123.137 94.5397C123.51 94.5992 123.779 95.239 123.764 95.9532H123.749Z" fill="url(#paint23_linear_708_44385)"/>
<path d="M125.776 96.9337C125.761 97.6479 125.448 98.1835 125.075 98.124C124.717 98.0645 124.433 97.4247 124.463 96.7105C124.478 95.9963 124.791 95.4606 125.164 95.5201C125.538 95.5797 125.806 96.2195 125.791 96.9337H125.776Z" fill="url(#paint24_linear_708_44385)"/>
<path d="M127.804 97.9161C127.789 98.6303 127.475 99.166 127.102 99.1064C126.729 99.0469 126.461 98.4071 126.491 97.6929C126.505 96.9787 126.819 96.443 127.192 96.5026C127.565 96.5621 127.834 97.2019 127.804 97.9161Z" fill="url(#paint25_linear_708_44385)"/>
<path d="M129.851 98.8966C129.836 99.6108 129.522 100.146 129.149 100.087C128.776 100.027 128.508 99.3876 128.537 98.6734C128.552 97.9592 128.866 97.4235 129.239 97.483C129.612 97.5426 129.881 98.1824 129.851 98.8966Z" fill="url(#paint26_linear_708_44385)"/>
<path d="M131.882 99.8927C131.867 100.607 131.554 101.143 131.18 101.083C130.822 101.023 130.539 100.384 130.569 99.6695C130.598 98.9553 130.897 98.4196 131.27 98.4791C131.628 98.5386 131.912 99.1785 131.882 99.8927Z" fill="url(#paint27_linear_708_44385)"/>
<path d="M133.909 100.875C133.894 101.589 133.581 102.125 133.208 102.065C132.85 102.006 132.566 101.366 132.596 100.652C132.611 99.9377 132.924 99.402 133.297 99.4615C133.655 99.5211 133.939 100.161 133.909 100.875Z" fill="url(#paint28_linear_708_44385)"/>
<path d="M135.944 101.858C135.929 102.572 135.616 103.107 135.243 103.048C134.885 102.988 134.601 102.349 134.631 101.634C134.661 100.92 134.959 100.384 135.332 100.444C135.691 100.503 135.974 101.143 135.959 101.858H135.944Z" fill="url(#paint29_linear_708_44385)"/>
<path d="M137.972 102.84C137.957 103.554 137.643 104.09 137.27 104.03C136.912 103.971 136.629 103.331 136.658 102.617C136.673 101.903 136.987 101.367 137.36 101.426C137.733 101.486 138.002 102.126 137.972 102.84Z" fill="url(#paint30_linear_708_44385)"/>
<path d="M139.364 105.038C139.727 105.032 140.01 104.44 139.997 103.717C139.984 102.994 139.679 102.413 139.317 102.42C138.954 102.426 138.671 103.018 138.684 103.741C138.697 104.464 139.002 105.045 139.364 105.038Z" fill="url(#paint31_linear_708_44385)"/>
<path d="M141.384 106.03C141.746 106.024 142.03 105.432 142.017 104.709C142.003 103.986 141.699 103.405 141.336 103.412C140.974 103.419 140.69 104.01 140.704 104.733C140.717 105.456 141.021 106.037 141.384 106.03Z" fill="url(#paint32_linear_708_44385)"/>
<path d="M144.058 105.801C144.043 106.515 143.729 107.051 143.356 106.991C142.983 106.932 142.715 106.292 142.744 105.578C142.759 104.863 143.073 104.328 143.446 104.387C143.819 104.447 144.088 105.087 144.058 105.801Z" fill="url(#paint33_linear_708_44385)"/>
<path d="M146.085 106.783C146.07 107.498 145.757 108.033 145.384 107.974C145.025 107.914 144.742 107.274 144.772 106.56C144.802 105.846 145.1 105.31 145.473 105.37C145.831 105.429 146.115 106.069 146.1 106.783H146.085Z" fill="url(#paint34_linear_708_44385)"/>
<path d="M148.12 107.766C148.105 108.48 147.792 109.016 147.419 108.956C147.046 108.897 146.777 108.257 146.807 107.543C146.822 106.828 147.135 106.293 147.508 106.352C147.881 106.412 148.15 107.051 148.12 107.766Z" fill="url(#paint35_linear_708_44385)"/>
<path d="M150.151 108.746C150.137 109.46 149.823 109.996 149.45 109.937C149.077 109.877 148.808 109.237 148.838 108.523C148.853 107.809 149.167 107.273 149.54 107.333C149.913 107.392 150.181 108.032 150.151 108.746Z" fill="url(#paint36_linear_708_44385)"/>
<path d="M152.179 109.744C152.164 110.458 151.85 110.994 151.477 110.935C151.119 110.875 150.836 110.235 150.865 109.521C150.895 108.807 151.194 108.271 151.567 108.331C151.94 108.39 152.209 109.03 152.179 109.744Z" fill="url(#paint37_linear_708_44385)"/>
<path d="M154.206 110.727C154.191 111.441 153.878 111.977 153.505 111.917C153.132 111.857 152.863 111.218 152.893 110.503C152.908 109.789 153.221 109.254 153.594 109.313C153.967 109.373 154.236 110.012 154.206 110.727Z" fill="url(#paint38_linear_708_44385)"/>
<path d="M156.237 111.711C156.222 112.425 155.909 112.961 155.536 112.901C155.178 112.842 154.894 112.202 154.924 111.488C154.939 110.774 155.252 110.238 155.625 110.297C155.984 110.357 156.267 110.997 156.237 111.711Z" fill="url(#paint39_linear_708_44385)"/>
<path d="M158.265 112.691C158.25 113.406 157.936 113.941 157.563 113.882C157.19 113.822 156.922 113.183 156.951 112.468C156.981 111.754 157.28 111.218 157.653 111.278C158.026 111.337 158.295 111.977 158.265 112.691Z" fill="url(#paint40_linear_708_44385)"/>
<path d="M160.3 113.674C160.285 114.388 159.971 114.924 159.598 114.864C159.24 114.805 158.957 114.165 158.987 113.451C159.001 112.737 159.315 112.201 159.688 112.26C160.046 112.32 160.33 112.96 160.3 113.674Z" fill="url(#paint41_linear_708_44385)"/>
<path d="M162.327 114.672C162.312 115.386 161.999 115.922 161.626 115.862C161.268 115.803 160.984 115.163 161.014 114.449C161.029 113.735 161.342 113.199 161.715 113.258C162.073 113.318 162.357 113.958 162.327 114.672Z" fill="url(#paint42_linear_708_44385)"/>
<path d="M164.355 115.652C164.34 116.367 164.026 116.902 163.653 116.843C163.28 116.783 163.011 116.143 163.041 115.429C163.071 114.715 163.37 114.179 163.743 114.239C164.101 114.298 164.384 114.938 164.355 115.652Z" fill="url(#paint43_linear_708_44385)"/>
<path d="M186.441 137.007C187.545 136.07 188.605 135.013 189.589 133.838C190.276 133.02 190.992 132.186 191.47 131.279C191.619 131.011 191.738 130.728 191.828 130.431C172.472 123.69 148.968 114.019 138.91 111.058C124.181 106.728 106.571 104.362 94.2747 104.094C81.978 103.826 62.339 93.2917 52.9075 93.1875C51.6689 93.1875 50.3258 93.2173 49.4453 94.0356C49.4901 94.8689 49.6244 95.6872 49.8632 96.4163C50.4899 98.2762 52.027 100.211 54.3252 102.204C57.3397 104.823 61.6525 107.531 66.9204 110.314C70.2483 112.069 73.8746 113.81 77.6502 115.521C90.6633 121.414 105.557 126.874 116.301 130.669C119.405 131.755 122.151 132.707 124.42 133.496C130.613 135.623 136.776 137.84 143.059 139.671C158.713 144.239 175.233 146.545 186.411 137.037L186.441 137.007Z" fill="url(#paint44_linear_708_44385)"/>
<path d="M136.033 112.233C204.188 116.935 265.656 114.509 326.394 106.995L334.706 82.98L336.646 80.5547L327.677 110.328C327.662 110.507 327.648 110.685 327.618 110.849C327.558 111.191 327.468 111.459 327.319 111.533C326.872 111.757 326.424 111.891 325.364 112.114C273.163 121.518 219.275 125.014 161.91 129.389C152.255 127.737 146.569 124.925 142.226 122.113C138.809 119.896 136.227 117.694 133.198 116.042C132.84 115.848 132.825 115.447 132.84 115.149C132.899 113.899 135.138 112.783 136.033 112.248V112.233Z" fill="url(#paint45_linear_708_44385)"/>
<path d="M179.846 135.518C181.637 137.184 183.906 138.568 186.517 139.342C187.457 139.625 188.457 139.833 189.472 139.937C192.292 140.249 195.561 139.446 198.053 137.839C198.501 137.541 198.933 137.229 199.336 136.887C200.649 135.741 201.605 134.327 201.933 132.706C202.008 132.363 202.052 132.021 202.067 131.664C202.172 130.221 201.918 128.688 201.485 127.29C200.814 125.102 199.59 123.123 197.904 121.561C197.516 121.189 197.098 120.847 196.665 120.534C193.516 118.198 189.457 117.127 185.562 117.127C182.816 117.127 180.339 118.243 178.548 120.028C177.578 120.996 176.802 122.171 176.295 123.466C175.966 124.299 175.758 125.192 175.668 126.114C175.653 126.337 175.638 126.575 175.623 126.799C175.549 130.146 177.459 133.286 179.846 135.518Z" fill="url(#paint46_linear_708_44385)"/>
<path d="M195.544 127.038C195.544 132.528 191.082 136.962 185.591 136.962C180.084 136.962 175.637 132.513 175.637 127.038C175.637 121.547 180.099 117.113 185.591 117.113C191.097 117.113 195.544 121.562 195.544 127.038Z" fill="url(#paint47_linear_708_44385)"/>
<path d="M185.573 134.922C189.942 134.922 193.483 131.392 193.483 127.036C193.483 122.681 189.942 119.15 185.573 119.15C181.205 119.15 177.664 122.681 177.664 127.036C177.664 131.392 181.205 134.922 185.573 134.922Z" fill="url(#paint48_linear_708_44385)"/>
</g>
<defs>
<linearGradient id="paint0_linear_708_44385" x1="210.303" y1="664.368" x2="210.303" y2="-313.255" gradientUnits="userSpaceOnUse">
<stop stop-color="#121314"/>
<stop offset="1" stop-color="#354156"/>
</linearGradient>
<linearGradient id="paint1_linear_708_44385" x1="183.908" y1="6.79297" x2="183.908" y2="325.729" gradientUnits="userSpaceOnUse">
<stop stop-color="#B2E2F9"/>
<stop offset="0.23" stop-color="#BEE6F9"/>
<stop offset="0.66" stop-color="#DFF3FC"/>
<stop offset="1" stop-color="white"/>
</linearGradient>
<linearGradient id="paint2_linear_708_44385" x1="177.632" y1="345.147" x2="177.632" y2="86.5688" gradientUnits="userSpaceOnUse">
<stop stop-color="#B2E2F9"/>
<stop offset="0.13" stop-color="#C6E9FA"/>
<stop offset="0.32" stop-color="#DFF2FC"/>
<stop offset="0.53" stop-color="#F0F9FD"/>
<stop offset="0.75" stop-color="#FBFDFE"/>
<stop offset="1" stop-color="white"/>
</linearGradient>
<linearGradient id="paint3_linear_708_44385" x1="190.101" y1="331.866" x2="190.101" y2="156.682" gradientUnits="userSpaceOnUse">
<stop stop-color="#B2E2F9"/>
<stop offset="0.13" stop-color="#C6E9FA"/>
<stop offset="0.32" stop-color="#DFF2FC"/>
<stop offset="0.53" stop-color="#F0F9FD"/>
<stop offset="0.75" stop-color="#FBFDFE"/>
<stop offset="1" stop-color="white"/>
</linearGradient>
<linearGradient id="paint4_linear_708_44385" x1="192.446" y1="475.318" x2="192.446" y2="185.138" gradientUnits="userSpaceOnUse">
<stop stop-color="#B2E2F9"/>
<stop offset="0.13" stop-color="#C6E9FA"/>
<stop offset="0.32" stop-color="#DFF2FC"/>
<stop offset="0.53" stop-color="#F0F9FD"/>
<stop offset="0.75" stop-color="#FBFDFE"/>
<stop offset="1" stop-color="white"/>
</linearGradient>
<linearGradient id="paint5_linear_708_44385" x1="115.642" y1="113.379" x2="279.555" y2="184.646" gradientUnits="userSpaceOnUse">
<stop offset="0.2" stop-color="white"/>
<stop offset="1" stop-color="white" stop-opacity="0"/>
</linearGradient>
<linearGradient id="paint6_linear_708_44385" x1="97.7986" y1="115.818" x2="-16.5475" y2="81.5147" gradientUnits="userSpaceOnUse">
<stop stop-color="#95B5D7"/>
<stop offset="0.99" stop-color="#E4DECA"/>
</linearGradient>
<linearGradient id="paint7_linear_708_44385" x1="196.874" y1="90.1483" x2="171.923" y2="90.1483" gradientUnits="userSpaceOnUse">
<stop stop-color="#09529B"/>
<stop offset="1" stop-color="#00A2AF"/>
</linearGradient>
<linearGradient id="paint8_linear_708_44385" x1="196.875" y1="94.6547" x2="171.923" y2="94.6547" gradientUnits="userSpaceOnUse">
<stop stop-color="#09529B"/>
<stop offset="1" stop-color="#00A2AF"/>
</linearGradient>
<linearGradient id="paint9_linear_708_44385" x1="118.034" y1="123.229" x2="122.827" y2="100.844" gradientUnits="userSpaceOnUse">
<stop stop-color="#95B5D7"/>
<stop offset="0.99" stop-color="#E4DECA"/>
</linearGradient>
<linearGradient id="paint10_linear_708_44385" x1="45.5548" y1="128.39" x2="48.5075" y2="109.521" gradientUnits="userSpaceOnUse">
<stop stop-color="#09529B"/>
<stop offset="1" stop-color="#00A2AF"/>
</linearGradient>
<linearGradient id="paint11_linear_708_44385" x1="43.3304" y1="125.698" x2="49.0871" y2="77.9906" gradientUnits="userSpaceOnUse">
<stop stop-color="#364156"/>
<stop offset="0.11" stop-color="#3F4754"/>
<stop offset="0.28" stop-color="#5A5751"/>
<stop offset="0.51" stop-color="#86724B"/>
<stop offset="0.78" stop-color="#C19743"/>
<stop offset="0.97" stop-color="#F0B43E"/>
</linearGradient>
<linearGradient id="paint12_linear_708_44385" x1="42.1373" y1="129.996" x2="49.3189" y2="85.8869" gradientUnits="userSpaceOnUse">
<stop stop-color="#131415"/>
<stop offset="0.09" stop-color="#1C1B16"/>
<stop offset="0.25" stop-color="#372E1B"/>
<stop offset="0.45" stop-color="#634E23"/>
<stop offset="0.69" stop-color="#9F792F"/>
<stop offset="0.96" stop-color="#EBB03D"/>
<stop offset="0.97" stop-color="#F0B43E"/>
</linearGradient>
<linearGradient id="paint13_linear_708_44385" x1="84.9454" y1="81.3431" x2="37.834" y2="69.5679" gradientUnits="userSpaceOnUse">
<stop stop-color="#131415"/>
<stop offset="0.09" stop-color="#1C1B16"/>
<stop offset="0.25" stop-color="#372E1B"/>
<stop offset="0.45" stop-color="#634E23"/>
<stop offset="0.69" stop-color="#9F792F"/>
<stop offset="0.96" stop-color="#EBB03D"/>
<stop offset="0.97" stop-color="#F0B43E"/>
</linearGradient>
<linearGradient id="paint14_linear_708_44385" x1="83.3647" y1="82.1158" x2="39.2221" y2="71.0887" gradientUnits="userSpaceOnUse">
<stop stop-color="#131415"/>
<stop offset="0.09" stop-color="#1C1B16"/>
<stop offset="0.25" stop-color="#372E1B"/>
<stop offset="0.45" stop-color="#634E23"/>
<stop offset="0.69" stop-color="#9F792F"/>
<stop offset="0.96" stop-color="#EBB03D"/>
<stop offset="0.97" stop-color="#F0B43E"/>
</linearGradient>
<linearGradient id="paint15_linear_708_44385" x1="85.1242" y1="80.5984" x2="38.0129" y2="68.8382" gradientUnits="userSpaceOnUse">
<stop stop-color="#131415"/>
<stop offset="0.09" stop-color="#1C1B16"/>
<stop offset="0.25" stop-color="#372E1B"/>
<stop offset="0.45" stop-color="#634E23"/>
<stop offset="0.69" stop-color="#9F792F"/>
<stop offset="0.96" stop-color="#EBB03D"/>
<stop offset="0.97" stop-color="#F0B43E"/>
</linearGradient>
<linearGradient id="paint16_linear_708_44385" x1="623.882" y1="178.039" x2="694.333" y2="221.861" gradientUnits="userSpaceOnUse">
<stop stop-color="#131415"/>
<stop offset="0.14" stop-color="#12181E"/>
<stop offset="0.37" stop-color="#0F2539"/>
<stop offset="0.67" stop-color="#0B3A65"/>
<stop offset="0.98" stop-color="#075499"/>
</linearGradient>
<linearGradient id="paint17_linear_708_44385" x1="624.446" y1="177.977" x2="694.896" y2="221.799" gradientUnits="userSpaceOnUse">
<stop stop-color="#131415"/>
<stop offset="0.14" stop-color="#12181E"/>
<stop offset="0.37" stop-color="#0F2539"/>
<stop offset="0.67" stop-color="#0B3A65"/>
<stop offset="0.98" stop-color="#075499"/>
</linearGradient>
<linearGradient id="paint18_linear_708_44385" x1="625.013" y1="177.913" x2="695.464" y2="221.736" gradientUnits="userSpaceOnUse">
<stop stop-color="#131415"/>
<stop offset="0.14" stop-color="#12181E"/>
<stop offset="0.37" stop-color="#0F2539"/>
<stop offset="0.67" stop-color="#0B3A65"/>
<stop offset="0.98" stop-color="#075499"/>
</linearGradient>
<linearGradient id="paint19_linear_708_44385" x1="625.553" y1="176.503" x2="696.004" y2="220.325" gradientUnits="userSpaceOnUse">
<stop stop-color="#131415"/>
<stop offset="0.14" stop-color="#12181E"/>
<stop offset="0.37" stop-color="#0F2539"/>
<stop offset="0.67" stop-color="#0B3A65"/>
<stop offset="0.98" stop-color="#075499"/>
</linearGradient>
<linearGradient id="paint20_linear_708_44385" x1="626.121" y1="176.453" x2="696.571" y2="220.275" gradientUnits="userSpaceOnUse">
<stop stop-color="#131415"/>
<stop offset="0.14" stop-color="#12181E"/>
<stop offset="0.37" stop-color="#0F2539"/>
<stop offset="0.67" stop-color="#0B3A65"/>
<stop offset="0.98" stop-color="#075499"/>
</linearGradient>
<linearGradient id="paint21_linear_708_44385" x1="626.712" y1="177.722" x2="697.163" y2="221.544" gradientUnits="userSpaceOnUse">
<stop stop-color="#131415"/>
<stop offset="0.14" stop-color="#12181E"/>
<stop offset="0.37" stop-color="#0F2539"/>
<stop offset="0.67" stop-color="#0B3A65"/>
<stop offset="0.98" stop-color="#075499"/>
</linearGradient>
<linearGradient id="paint22_linear_708_44385" x1="627.276" y1="177.658" x2="697.726" y2="221.494" gradientUnits="userSpaceOnUse">
<stop stop-color="#131415"/>
<stop offset="0.14" stop-color="#12181E"/>
<stop offset="0.37" stop-color="#0F2539"/>
<stop offset="0.67" stop-color="#0B3A65"/>
<stop offset="0.98" stop-color="#075499"/>
</linearGradient>
<linearGradient id="paint23_linear_708_44385" x1="627.84" y1="177.596" x2="698.29" y2="221.432" gradientUnits="userSpaceOnUse">
<stop stop-color="#131415"/>
<stop offset="0.14" stop-color="#12181E"/>
<stop offset="0.37" stop-color="#0F2539"/>
<stop offset="0.67" stop-color="#0B3A65"/>
<stop offset="0.98" stop-color="#075499"/>
</linearGradient>
<linearGradient id="paint24_linear_708_44385" x1="628.404" y1="177.531" x2="698.867" y2="221.369" gradientUnits="userSpaceOnUse">
<stop stop-color="#131415"/>
<stop offset="0.14" stop-color="#12181E"/>
<stop offset="0.37" stop-color="#0F2539"/>
<stop offset="0.67" stop-color="#0B3A65"/>
<stop offset="0.98" stop-color="#075499"/>
</linearGradient>
<linearGradient id="paint25_linear_708_44385" x1="628.962" y1="177.468" x2="699.412" y2="221.303" gradientUnits="userSpaceOnUse">
<stop stop-color="#131415"/>
<stop offset="0.14" stop-color="#12181E"/>
<stop offset="0.37" stop-color="#0F2539"/>
<stop offset="0.67" stop-color="#0B3A65"/>
<stop offset="0.98" stop-color="#075499"/>
</linearGradient>
<linearGradient id="paint26_linear_708_44385" x1="629.539" y1="177.403" x2="699.989" y2="221.239" gradientUnits="userSpaceOnUse">
<stop stop-color="#131415"/>
<stop offset="0.14" stop-color="#12181E"/>
<stop offset="0.37" stop-color="#0F2539"/>
<stop offset="0.67" stop-color="#0B3A65"/>
<stop offset="0.98" stop-color="#075499"/>
</linearGradient>
<linearGradient id="paint27_linear_708_44385" x1="630.107" y1="177.339" x2="700.557" y2="221.175" gradientUnits="userSpaceOnUse">
<stop stop-color="#131415"/>
<stop offset="0.14" stop-color="#12181E"/>
<stop offset="0.37" stop-color="#0F2539"/>
<stop offset="0.67" stop-color="#0B3A65"/>
<stop offset="0.98" stop-color="#075499"/>
</linearGradient>
<linearGradient id="paint28_linear_708_44385" x1="630.682" y1="177.293" x2="701.119" y2="221.1" gradientUnits="userSpaceOnUse">
<stop stop-color="#131415"/>
<stop offset="0.14" stop-color="#12181E"/>
<stop offset="0.37" stop-color="#0F2539"/>
<stop offset="0.67" stop-color="#0B3A65"/>
<stop offset="0.98" stop-color="#075499"/>
</linearGradient>
<linearGradient id="paint29_linear_708_44385" x1="631.239" y1="177.212" x2="701.702" y2="221.05" gradientUnits="userSpaceOnUse">
<stop stop-color="#131415"/>
<stop offset="0.14" stop-color="#12181E"/>
<stop offset="0.37" stop-color="#0F2539"/>
<stop offset="0.67" stop-color="#0B3A65"/>
<stop offset="0.98" stop-color="#075499"/>
</linearGradient>
<linearGradient id="paint30_linear_708_44385" x1="631.803" y1="177.165" x2="702.253" y2="220.987" gradientUnits="userSpaceOnUse">
<stop stop-color="#131415"/>
<stop offset="0.14" stop-color="#12181E"/>
<stop offset="0.37" stop-color="#0F2539"/>
<stop offset="0.67" stop-color="#0B3A65"/>
<stop offset="0.98" stop-color="#075499"/>
</linearGradient>
<linearGradient id="paint31_linear_708_44385" x1="632.347" y1="175.764" x2="702.798" y2="219.587" gradientUnits="userSpaceOnUse">
<stop stop-color="#131415"/>
<stop offset="0.14" stop-color="#12181E"/>
<stop offset="0.37" stop-color="#0F2539"/>
<stop offset="0.67" stop-color="#0B3A65"/>
<stop offset="0.98" stop-color="#075499"/>
</linearGradient>
<linearGradient id="paint32_linear_708_44385" x1="632.9" y1="175.718" x2="703.351" y2="219.54" gradientUnits="userSpaceOnUse">
<stop stop-color="#131415"/>
<stop offset="0.14" stop-color="#12181E"/>
<stop offset="0.37" stop-color="#0F2539"/>
<stop offset="0.67" stop-color="#0B3A65"/>
<stop offset="0.98" stop-color="#075499"/>
</linearGradient>
<linearGradient id="paint33_linear_708_44385" x1="633.49" y1="176.974" x2="703.939" y2="220.795" gradientUnits="userSpaceOnUse">
<stop stop-color="#131415"/>
<stop offset="0.14" stop-color="#12181E"/>
<stop offset="0.37" stop-color="#0F2539"/>
<stop offset="0.67" stop-color="#0B3A65"/>
<stop offset="0.98" stop-color="#075499"/>
</linearGradient>
<linearGradient id="paint34_linear_708_44385" x1="634.059" y1="176.911" x2="704.522" y2="220.735" gradientUnits="userSpaceOnUse">
<stop stop-color="#131415"/>
<stop offset="0.14" stop-color="#12181E"/>
<stop offset="0.37" stop-color="#0F2539"/>
<stop offset="0.67" stop-color="#0B3A65"/>
<stop offset="0.98" stop-color="#075499"/>
</linearGradient>
<linearGradient id="paint35_linear_708_44385" x1="634.625" y1="176.848" x2="705.075" y2="220.669" gradientUnits="userSpaceOnUse">
<stop stop-color="#131415"/>
<stop offset="0.14" stop-color="#12181E"/>
<stop offset="0.37" stop-color="#0F2539"/>
<stop offset="0.67" stop-color="#0B3A65"/>
<stop offset="0.98" stop-color="#075499"/>
</linearGradient>
<linearGradient id="paint36_linear_708_44385" x1="635.193" y1="176.782" x2="705.642" y2="220.604" gradientUnits="userSpaceOnUse">
<stop stop-color="#131415"/>
<stop offset="0.14" stop-color="#12181E"/>
<stop offset="0.37" stop-color="#0F2539"/>
<stop offset="0.67" stop-color="#0B3A65"/>
<stop offset="0.98" stop-color="#075499"/>
</linearGradient>
<linearGradient id="paint37_linear_708_44385" x1="635.756" y1="176.72" x2="706.206" y2="220.541" gradientUnits="userSpaceOnUse">
<stop stop-color="#131415"/>
<stop offset="0.14" stop-color="#12181E"/>
<stop offset="0.37" stop-color="#0F2539"/>
<stop offset="0.67" stop-color="#0B3A65"/>
<stop offset="0.98" stop-color="#075499"/>
</linearGradient>
<linearGradient id="paint38_linear_708_44385" x1="636.32" y1="176.657" x2="706.77" y2="220.478" gradientUnits="userSpaceOnUse">
<stop stop-color="#131415"/>
<stop offset="0.14" stop-color="#12181E"/>
<stop offset="0.37" stop-color="#0F2539"/>
<stop offset="0.67" stop-color="#0B3A65"/>
<stop offset="0.98" stop-color="#075499"/>
</linearGradient>
<linearGradient id="paint39_linear_708_44385" x1="636.887" y1="176.596" x2="707.337" y2="220.417" gradientUnits="userSpaceOnUse">
<stop stop-color="#131415"/>
<stop offset="0.14" stop-color="#12181E"/>
<stop offset="0.37" stop-color="#0F2539"/>
<stop offset="0.67" stop-color="#0B3A65"/>
<stop offset="0.98" stop-color="#075499"/>
</linearGradient>
<linearGradient id="paint40_linear_708_44385" x1="637.451" y1="176.53" x2="707.901" y2="220.352" gradientUnits="userSpaceOnUse">
<stop stop-color="#131415"/>
<stop offset="0.14" stop-color="#12181E"/>
<stop offset="0.37" stop-color="#0F2539"/>
<stop offset="0.67" stop-color="#0B3A65"/>
<stop offset="0.98" stop-color="#075499"/>
</linearGradient>
<linearGradient id="paint41_linear_708_44385" x1="638.031" y1="176.467" x2="708.481" y2="220.303" gradientUnits="userSpaceOnUse">
<stop stop-color="#131415"/>
<stop offset="0.14" stop-color="#12181E"/>
<stop offset="0.37" stop-color="#0F2539"/>
<stop offset="0.67" stop-color="#0B3A65"/>
<stop offset="0.98" stop-color="#075499"/>
</linearGradient>
<linearGradient id="paint42_linear_708_44385" x1="638.595" y1="176.405" x2="709.045" y2="220.241" gradientUnits="userSpaceOnUse">
<stop stop-color="#131415"/>
<stop offset="0.14" stop-color="#12181E"/>
<stop offset="0.37" stop-color="#0F2539"/>
<stop offset="0.67" stop-color="#0B3A65"/>
<stop offset="0.98" stop-color="#075499"/>
</linearGradient>
<linearGradient id="paint43_linear_708_44385" x1="639.172" y1="176.342" x2="709.609" y2="220.176" gradientUnits="userSpaceOnUse">
<stop stop-color="#131415"/>
<stop offset="0.14" stop-color="#12181E"/>
<stop offset="0.37" stop-color="#0F2539"/>
<stop offset="0.67" stop-color="#0B3A65"/>
<stop offset="0.98" stop-color="#075499"/>
</linearGradient>
<linearGradient id="paint44_linear_708_44385" x1="17.3454" y1="60.6017" x2="177.5" y2="146.536" gradientUnits="userSpaceOnUse">
<stop stop-color="#405370"/>
<stop offset="0.99" stop-color="#E4DECA"/>
</linearGradient>
<linearGradient id="paint45_linear_708_44385" x1="44.6432" y1="104.972" x2="310.053" y2="104.972" gradientUnits="userSpaceOnUse">
<stop stop-color="#405370"/>
<stop offset="0.99" stop-color="#E4DECA"/>
</linearGradient>
<linearGradient id="paint46_linear_708_44385" x1="186.278" y1="144.059" x2="190.255" y2="120.724" gradientUnits="userSpaceOnUse">
<stop stop-color="#09529B"/>
<stop offset="1" stop-color="#00A2AF"/>
</linearGradient>
<linearGradient id="paint47_linear_708_44385" x1="183.307" y1="145.801" x2="189.939" y2="90.6383" gradientUnits="userSpaceOnUse">
<stop stop-color="#364156"/>
<stop offset="0.11" stop-color="#3F4754"/>
<stop offset="0.28" stop-color="#5A5751"/>
<stop offset="0.51" stop-color="#86724B"/>
<stop offset="0.78" stop-color="#C19743"/>
<stop offset="0.97" stop-color="#F0B43E"/>
</linearGradient>
<linearGradient id="paint48_linear_708_44385" x1="192.199" y1="130.89" x2="167.181" y2="116.259" gradientUnits="userSpaceOnUse">
<stop stop-color="#131415"/>
<stop offset="0.09" stop-color="#1C1B16"/>
<stop offset="0.25" stop-color="#372E1B"/>
<stop offset="0.45" stop-color="#634E23"/>
<stop offset="0.69" stop-color="#9F792F"/>
<stop offset="0.96" stop-color="#EBB03D"/>
<stop offset="0.97" stop-color="#F0B43E"/>
</linearGradient>
<clipPath id="clip0_708_44385">
<rect width="337" height="333" fill="white"/>
</clipPath>
</defs>
</svg>
