<svg width="103" height="83" viewBox="0 0 103 83" fill="none" xmlns="http://www.w3.org/2000/svg">
<path d="M83.7477 13.114H83.4445V4.69357C83.4445 2.10267 81.3639 0 78.793 0H48.7934C46.2257 0 44.1419 2.09941 44.1419 4.69357V13.114H43.8387C43.6129 13.114 43.4258 13.2995 43.4258 13.5306V19.6531C43.4258 19.8809 43.6096 20.0697 43.8387 20.0697H44.1419V21.4205H43.8387C43.6129 21.4205 43.4258 21.606 43.4258 21.8371V27.9596C43.4258 28.1874 43.6096 28.3762 43.8387 28.3762H44.1419V78.2381C44.1419 80.829 46.2225 82.9316 48.7934 82.9316H78.793C81.3607 82.9316 83.4445 80.8322 83.4445 78.2381V23.5394H83.7477C83.9735 23.5394 84.1606 23.3539 84.1606 23.1228V13.5241C84.1606 13.2963 83.9768 13.1075 83.7477 13.1075V13.114Z" fill="url(#paint0_linear_734_53682)"/>
<mask id="mask0_734_53682" style="mask-type:luminance" maskUnits="userSpaceOnUse" x="46" y="2" width="36" height="79">
<path d="M77.8977 2.10352H49.6917C47.7801 2.10352 46.2305 3.66717 46.2305 5.59603V77.3276C46.2305 79.2564 47.7801 80.8201 49.6917 80.8201H77.8977C79.8093 80.8201 81.359 79.2564 81.359 77.3276V5.59603C81.359 3.66717 79.8093 2.10352 77.8977 2.10352Z" fill="white"/>
</mask>
<g mask="url(#mask0_734_53682)">
<mask id="mask1_734_53682" style="mask-type:luminance" maskUnits="userSpaceOnUse" x="23" y="1" width="69" height="81">
<path d="M91.3021 1.69336H23.2773V81.1878H91.3021V1.69336Z" fill="white"/>
</mask>
<g mask="url(#mask1_734_53682)">
<path d="M92.1026 1.69336H22.4844V81.1878H92.1026V1.69336Z" fill="url(#paint1_linear_734_53682)"/>
<path d="M124.164 70.9348C124.667 68.1876 122.87 65.5447 120.144 65.0369C121.093 64.5584 121.48 63.3932 121.006 62.4362C120.531 61.4793 119.377 61.0887 118.428 61.5672C120.344 60.7014 121.199 58.4327 120.341 56.4993C119.544 54.7026 117.544 53.8303 115.725 54.4129C117.602 53.5861 118.599 51.4477 117.97 49.4296C117.528 48.017 116.399 47.021 115.07 46.689C116.838 46.2236 118.28 44.7751 118.657 42.845C119.183 40.1564 117.448 37.546 114.783 37.0154C113.425 34.6589 110.435 33.8614 108.099 35.2285C105.986 36.4686 105.135 39.0628 106.003 41.2891C104.441 38.4443 100.977 37.1684 97.9253 38.4378C94.6382 39.8049 93.0705 43.6001 94.4221 46.9168C93.1737 45.6865 91.1738 45.7093 89.9544 46.9657C88.7351 48.2253 88.7577 50.2434 90.0028 51.4737C88.6964 51.1938 87.4093 52.0401 87.1351 53.3583C86.8577 54.6765 87.6964 55.9752 89.0028 56.2519C87.8512 56.1185 86.7996 56.8866 86.548 58.003C85.2126 57.0038 83.4416 56.6327 81.732 57.1633C79.4159 57.8794 77.9223 60.0276 77.9094 62.3483C77.6449 62.1693 77.3417 62.0391 77.0127 61.9708C75.7901 61.7169 74.5934 62.3939 74.1418 63.5234C74.5482 61.8373 73.6708 60.0667 72.0257 59.4189C70.3773 58.7712 68.5419 59.4775 67.7128 60.9976C68.8193 58.4034 67.7903 55.3405 65.2742 53.9832C62.6226 52.5543 59.3226 53.5666 57.9065 56.2421C58.1678 54.8132 57.2324 53.4397 55.8163 53.1728C54.4001 52.9091 53.0389 53.853 52.7744 55.2819C52.784 54.3185 52.0195 53.5308 51.0647 53.521C50.7454 53.5178 50.4454 53.6057 50.1841 53.7554C50.4905 52.639 50.2163 51.3891 49.3518 50.5037C48.0648 49.1855 45.9583 49.1725 44.6519 50.4712C44.4197 48.8861 42.9584 47.7924 41.3907 48.0268C39.8197 48.2611 38.7359 49.7356 38.9681 51.3175C38.8972 50.6047 38.3617 50.0513 37.694 49.9374C37.694 49.9146 37.6972 49.8918 37.6972 49.869C37.7133 48.8828 36.9359 48.0691 35.9585 48.0528C37.5585 45.3382 36.6778 41.8294 33.9876 40.215C31.2973 38.6006 27.8199 39.4892 26.2199 42.2037C25.7458 40.4038 23.9135 39.3362 22.1329 39.8146C21.5136 39.9806 20.9845 40.3159 20.5749 40.7521C20.4297 40.6902 20.2716 40.6479 20.1071 40.6316C21.7168 39.3232 21.9716 36.9438 20.6749 35.3196C19.3781 33.6954 17.0201 33.4383 15.4104 34.7468C16.2427 33.9298 16.2588 32.5855 15.4491 31.7457C14.6395 30.906 13.3072 30.8897 12.475 31.7067C12.2234 30.0272 10.6686 28.8749 9.00731 29.1288C7.34282 29.3827 6.2009 30.9516 6.45251 32.6278C4.80737 31.5993 2.64612 32.107 1.62678 33.767C0.607441 35.427 1.11066 37.6078 2.75579 38.6364C1.28485 38.2035 -0.253836 39.053 -0.68286 40.5372C-0.882857 41.224 -0.80544 41.9238 -0.521573 42.526C-1.54736 42.1028 -2.75057 42.1517 -3.77314 42.7766C-5.48279 43.8214 -6.03116 46.0706 -4.9957 47.7957C-7.26018 48.4532 -8.56661 50.8357 -7.915 53.1207C-7.72791 53.7814 -7.39243 54.3576 -6.96018 54.8328C-8.2021 55.0248 -9.38595 55.6497 -10.2634 56.6946C-12.1956 58.9925 -11.9182 62.4362 -9.64078 64.3892C-10.2117 64.4152 -10.6569 64.9067 -10.6279 65.4828C-10.6021 66.0589 -10.115 66.5081 -9.54401 66.4788C-12.202 67.5985 -13.4601 70.6809 -12.3504 73.3662C-11.3408 75.8074 -8.72144 77.0768 -6.25374 76.4421C-7.86984 77.1744 -8.80854 78.9776 -8.40209 80.7874C-7.94081 82.8575 -5.90213 84.1562 -3.85378 83.6875C-5.22795 84.8885 -5.37634 86.9847 -4.18926 88.3713C-3.52798 89.1394 -2.59573 89.53 -1.66026 89.517C-2.54412 90.2331 -3.0925 91.3463 -3.03444 92.5766C-2.93766 94.6142 -1.22156 96.1896 0.797761 96.0919C1.00421 98.4354 3.05579 100.167 5.38156 99.9587C7.2783 99.7895 8.7686 98.3768 9.13957 96.5899C9.30408 98.1523 10.4202 99.5096 12.0234 99.8839C14.0427 100.356 16.062 99.0864 16.5298 97.0489C16.604 98.0058 17.433 98.7219 18.3814 98.647C19.3297 98.5721 20.0394 97.7356 19.9652 96.7787C20.52 97.7779 21.7716 98.1327 22.7619 97.5729C22.8039 97.5501 22.8394 97.5241 22.8781 97.498C23.0135 98.5136 23.5458 99.4705 24.4361 100.112C26.149 101.345 28.5296 100.942 29.7489 99.2134C30.7166 101.905 33.6585 103.295 36.3262 102.319C38.8585 101.391 40.2294 98.6633 39.5294 96.0854C40.1681 97.817 42.0036 98.8293 43.8261 98.3736C45.0003 98.0807 45.8971 97.2441 46.3229 96.1961C46.4519 96.4272 46.6261 96.6387 46.8454 96.8112C47.7357 97.5143 49.0228 97.3548 49.7163 96.4565C49.3325 99.3501 51.3454 102.009 54.2131 102.4C57.0807 102.787 59.7162 100.756 60.1033 97.8626C59.7743 99.5486 60.8613 101.186 62.5323 101.518C64.2032 101.85 65.8258 100.753 66.1548 99.0669C67.0935 100.232 68.7935 100.408 69.9451 99.4575C70.6612 98.8683 70.9999 97.983 70.9289 97.1205C71.8321 98.5298 73.5192 99.3208 75.2514 98.9823C76.0385 98.8293 76.7288 98.4582 77.2804 97.9472C77.8933 98.7837 78.9804 99.1841 80.0223 98.8683C79.8256 100.421 80.9159 101.837 82.4545 102.035C83.9932 102.234 85.3964 101.134 85.5932 99.5812C85.5384 102.621 87.9351 105.128 90.9447 105.183C93.9576 105.238 96.4414 102.82 96.4963 99.783C97.4027 100.434 98.6607 100.222 99.3091 99.3078C99.3414 99.2622 99.3736 99.2134 99.3994 99.1645C100.103 100.418 101.377 101.319 102.906 101.472C105.167 101.697 107.203 100.203 107.741 98.0481C107.519 100.203 108.873 102.257 111.012 102.823C113.377 103.451 115.796 102.026 116.419 99.6397C119.983 99.8741 123.06 97.1465 123.289 93.5498C123.518 89.9532 120.818 86.848 117.254 86.6169C119.093 86.5192 120.502 84.9341 120.402 83.0821C120.322 81.5555 119.244 80.3252 117.841 79.9899C118.848 79.8923 119.741 79.1925 120.038 78.1541C120.425 76.7968 119.648 75.3777 118.302 74.9871C121.025 75.4949 123.644 73.6819 124.147 70.9315L124.164 70.9348Z" fill="url(#paint2_linear_734_53682)"/>
<path d="M115.611 79.2475C115.572 76.3897 113.243 74.1081 110.411 74.1471C112.305 72.8549 112.798 70.2575 111.518 68.3469C111.214 67.8944 110.837 67.5266 110.418 67.237C110.637 67.0612 110.843 66.8626 111.024 66.6315C112.311 65.0008 112.043 62.628 110.43 61.3293C111.634 61.0396 112.379 59.819 112.092 58.6017C111.805 57.3876 110.595 56.6357 109.389 56.9254C111.534 56.6162 113.024 54.6079 112.718 52.4434C112.411 50.2789 110.421 48.7752 108.276 49.0844C108.131 47.5578 106.785 46.4414 105.272 46.5879C103.76 46.7343 102.653 48.0916 102.798 49.6182C100.115 49.501 97.8468 51.6004 97.7307 54.3085C97.6984 55.1027 97.8532 55.8578 98.1565 56.5348C97.5533 56.9319 97.0984 57.5634 96.9468 58.3315C96.7275 56.128 94.7791 54.5168 92.5953 54.7381C90.4114 54.9595 88.8147 56.9254 89.034 59.129C88.9953 59.1713 88.9631 59.2169 88.9276 59.2624C88.8695 59.2657 88.8115 59.269 88.7502 59.2755C86.1018 59.5391 84.1664 61.9184 84.4244 64.594C84.0406 63.9007 83.2857 63.5491 82.5503 63.6468C82.0825 62.7484 81.3535 61.9803 80.4051 61.4628C77.8697 60.0892 74.7117 61.0494 73.3504 63.6077C72.8762 62.1495 71.3182 61.3553 69.8731 61.8338C69.5311 61.9477 69.2279 62.1235 68.9698 62.3416C68.586 61.9901 68.0505 61.8143 67.5021 61.9152C67.9311 59.4219 66.2763 57.0491 63.8054 56.6162C61.3345 56.1833 58.9829 57.8531 58.5539 60.3463C58.0345 58.273 55.9507 57.0198 53.8991 57.5406C52.8088 57.8173 51.9507 58.5431 51.4572 59.474C50.8766 58.8458 49.9185 58.7059 49.1766 59.1876C49.1798 57.9442 48.1863 56.9287 46.9508 56.9254C46.2541 56.9254 45.6283 57.2444 45.2186 57.7457C44.6025 56.9157 43.5025 56.5544 42.4896 56.9319C41.8122 57.1858 41.3219 57.7164 41.0864 58.3478C40.9154 58.0028 40.638 57.7066 40.2703 57.5178C39.3606 57.0556 38.2542 57.4234 37.7929 58.3381C38.5284 56.4828 37.6348 54.3768 35.7962 53.6347C33.9575 52.8926 31.8704 53.7942 31.1349 55.6495C30.9511 55.5226 30.7511 55.4444 30.5446 55.4021C30.6995 53.7161 30.0543 51.9845 28.664 50.8225C26.4931 49.003 23.3028 49.2439 21.419 51.3237C22.1157 50.4319 22.0512 49.1332 21.2286 48.3162C20.3771 47.4699 19.0287 47.4504 18.1545 48.2479C18.1545 48.2381 18.1577 48.2251 18.1577 48.2153C18.1513 48.1535 18.0964 48.1079 18.0352 48.1144C19.3642 46.2624 18.9577 43.6747 17.1223 42.3304C15.39 41.0643 13.0062 41.3605 11.6256 42.9586C12.2481 42.044 12.1481 40.7844 11.3288 39.9902C10.4191 39.1081 8.97078 39.1341 8.0966 40.052C6.2934 40.8885 5.50309 43.04 6.33211 44.8562C6.50953 45.2436 6.74823 45.5821 7.02565 45.8718C6.18373 46.1322 5.40632 46.6399 4.82246 47.3918C3.29667 49.348 3.63215 52.1798 5.57083 53.7193C4.70633 53.7193 4.00634 54.4224 4.00311 55.2947C4.00311 56.167 4.69988 56.8733 5.56438 56.8766C4.20956 58.1623 4.14827 60.3105 5.41922 61.6776C5.87728 62.1691 6.44501 62.4881 7.045 62.641C6.03211 63.3701 5.316 64.5126 5.16761 65.8569C4.98052 67.5494 5.73212 69.1281 7.00629 70.0655C5.84502 69.9971 4.67085 70.4691 3.87731 71.4455C2.5612 73.0665 2.79991 75.4556 4.40633 76.7836C2.81604 77.4346 2.04831 79.2606 2.69023 80.8685C2.95474 81.5325 3.42248 82.05 3.99021 82.3885C3.37087 82.6391 2.82249 83.0851 2.45798 83.71C1.58057 85.2105 2.07411 87.1407 3.55796 88.026C3.05152 89.8455 4.10634 91.7333 5.90954 92.2444C7.71273 92.7554 9.58367 91.691 10.0901 89.8715C10.4869 93.3315 13.5868 95.8117 17.0158 95.4114C20.4448 95.011 22.9028 91.8831 22.5061 88.4231C22.7351 90.1287 24.2899 91.3232 25.9802 91.0921C27.406 90.8968 28.4672 89.7479 28.6285 88.371C28.806 89.8846 29.9866 91.1377 31.5543 91.3232C33.3865 91.5381 35.0413 90.2166 35.2575 88.3678C35.7058 89.992 37.3768 90.9391 38.9832 90.4867C40.0316 90.1905 40.7896 89.3735 41.0735 88.3938C41.2541 88.7812 41.5606 89.1099 41.9703 89.3117C42.9219 89.7772 44.067 89.3768 44.5315 88.4166C45.3896 91.4339 48.5056 93.1785 51.4959 92.3127C53.8797 91.6227 55.4604 89.4842 55.57 87.1146C55.8668 87.655 56.37 88.0781 57.0055 88.2604C58.2765 88.6217 59.5958 87.8795 59.9538 86.5971C60.2313 87.7982 61.4216 88.5468 62.6119 88.2701C63.4957 88.0618 64.1312 87.349 64.2893 86.4995C64.5538 88.9374 66.5118 90.9099 69.0214 91.0791C71.1053 91.2223 72.9827 90.0831 73.8956 88.3287C73.9536 88.485 74.0375 88.6379 74.144 88.7779C74.7375 89.5558 75.8407 89.7023 76.6149 89.1034C77.2084 91.2256 79.3955 92.4559 81.4987 91.857C82.8212 91.4795 83.7954 90.4639 84.1857 89.2368C84.5664 90.8741 85.8018 92.2541 87.5212 92.7228C90.0179 93.4031 92.5888 91.9156 93.263 89.3963C94.221 90.2198 95.6597 90.1026 96.4758 89.1327C96.5823 89.0057 96.6726 88.8723 96.7468 88.7323C97.5404 90.3435 99.121 91.5153 101.031 91.6845C103.943 91.9417 106.514 89.7674 106.769 86.8282C107.043 87.2546 107.608 87.375 108.031 87.0984C108.453 86.8217 108.572 86.2521 108.298 85.8257C108.666 86.4571 109.469 86.6687 110.095 86.2977C110.721 85.9266 110.93 85.1161 110.563 84.4847C113.395 84.4456 115.656 82.0956 115.617 79.2378L115.611 79.2475Z" fill="url(#paint3_linear_734_53682)"/>
<path d="M115.406 59.2857C116.632 58.4167 116.929 56.7079 116.068 55.471C115.206 54.2341 113.513 53.9347 112.287 54.8037C112.764 54.0486 112.545 53.0493 111.8 52.5676C111.052 52.0859 110.061 52.3072 109.584 53.0591C109.029 51.0899 107 49.9474 105.048 50.504C103.097 51.0639 101.965 53.1112 102.516 55.0804C100.407 54.4555 98.1937 55.6761 97.5743 57.8048C97.0356 59.6633 97.8872 61.6032 99.5195 62.4788C99.4549 62.4951 99.3904 62.5179 99.3291 62.5569C99.0679 62.7164 98.9517 63.0224 99.0163 63.3088C98.3356 61.6032 96.4518 60.7049 94.7002 61.294C92.8776 61.9059 91.8938 63.8914 92.5002 65.7304C92.097 64.6335 90.8873 64.0737 89.8003 64.4806C88.7132 64.8874 88.1583 66.108 88.5616 67.2049C87.5487 65.7728 85.581 65.4408 84.1616 66.4628C83.052 67.2602 82.6133 68.6501 82.9552 69.9C82.1713 68.7608 80.7327 68.1879 79.3359 68.5817C78.694 68.764 78.1521 69.1253 77.7424 69.594C77.6004 69.1806 77.3682 68.7933 77.0424 68.4613C75.8811 67.2863 73.9973 67.283 72.8328 68.4548C72.2747 67.5011 71.0554 67.1821 70.1102 67.7452C69.9941 67.8136 69.8909 67.8917 69.7941 67.9796C69.6199 66.1731 68.4974 64.5164 66.7264 63.7515C65.2039 63.0972 63.5426 63.247 62.2071 64.0119C61.4652 62.5667 60.0169 61.5349 58.2911 61.4112C55.7943 61.2289 53.6073 63.0159 53.2137 65.4635C53.1879 64.959 52.8557 64.5033 52.3492 64.3471C51.7009 64.1486 51.017 64.5164 50.817 65.1706C50.7686 63.4748 49.3654 62.1403 47.6848 62.1891C46.7009 62.2184 45.8429 62.7164 45.3074 63.465C45.3848 62.0068 44.6848 60.5519 43.3623 59.7447C41.4494 58.5794 38.9623 59.1979 37.8075 61.128C36.4624 60.3175 34.7624 60.6463 33.7979 61.8311C32.8979 60.3371 31.4108 59.2076 29.5818 58.8268C26.1948 58.1172 22.8787 60.2199 22.011 63.5594C22.1013 62.8368 21.6884 62.1273 20.982 61.8734C20.3078 61.6325 19.5788 61.8832 19.182 62.4463C19.9175 60.8253 19.3562 58.8691 17.8111 57.9122C16.6756 57.2091 15.3014 57.2286 14.2143 57.8438C15.3369 56.2554 15.4434 54.0714 14.3208 52.343C12.8563 50.0939 9.8628 49.4657 7.6338 50.9402C4.80804 51.2754 2.78872 53.8598 3.12097 56.7079C3.40161 59.1262 5.28868 60.962 7.58219 61.255C6.74672 61.473 6.04673 62.124 5.80802 63.0256C5.50158 64.1713 6.0435 65.3464 7.04026 65.8802C4.4274 64.9851 1.51777 66.2154 0.350046 68.8031C-0.895096 71.5632 0.311336 74.8181 3.04355 76.0745C0.746813 76.7678 -0.556392 79.2057 0.130694 81.5232C0.81778 83.8407 3.23387 85.1557 5.53061 84.4624C6.37576 85.1655 7.62735 85.0483 8.33057 84.1988C8.98862 85.9955 10.5531 87.3983 12.5595 87.7433C15.5498 88.2576 18.3852 86.2298 18.8917 83.2125C19.2562 84.0262 20.2078 84.3843 21.0142 84.0165C21.6175 83.7398 21.9691 83.1311 21.9529 82.503C22.2884 83.359 23.1465 83.9351 24.1045 83.8603C24.8722 83.8017 25.5142 83.3362 25.8432 82.6917C25.6916 84.7684 26.9367 86.7636 28.9819 87.4602C31.4044 88.2837 34.0269 86.9687 34.8431 84.5242C35.3108 86.5813 37.343 87.8703 39.3817 87.3983C41.4204 86.9264 42.6978 84.8758 42.23 82.8187C42.9268 84.023 44.459 84.4266 45.6526 83.7235C46.2332 83.3818 46.6267 82.835 46.7977 82.2295C47.4042 84.0132 49.0138 85.3575 50.9976 85.5137C53.6589 85.722 55.9847 83.7138 56.1911 81.0285C56.2169 82.389 57.3266 83.4697 58.6749 83.4469C60.0233 83.4208 61.0943 82.3011 61.0717 80.9406C61.2007 82.9847 62.9491 84.534 64.9748 84.4038C66.1522 84.3257 67.1619 83.6975 67.778 82.7829C67.8425 82.9424 67.9264 83.0986 68.0361 83.2451C68.6941 84.1141 69.9264 84.2834 70.7909 83.6194C70.549 86.3112 72.5134 88.6905 75.1811 88.9346C77.8488 89.1788 80.2069 87.1965 80.4488 84.5047C80.752 85.4291 81.7391 85.9304 82.6552 85.6244C83.5713 85.3184 84.0681 84.3224 83.7649 83.3981C84.6423 85.6309 87.1487 86.7246 89.3615 85.8392C91.026 85.1752 92.0518 83.5803 92.0841 81.8813C92.6196 83.1116 93.797 84.0002 95.2163 84.0848C97.2292 84.202 98.9582 82.6494 99.0743 80.6184C99.2646 82.6462 101.052 84.1337 103.061 83.9416C104.506 83.8017 105.668 82.8317 106.142 81.546C106.281 82.7048 107.023 83.7528 108.174 84.2215C109.855 84.9051 111.764 84.0816 112.439 82.389C114.213 82.0049 115.345 80.2408 114.964 78.4506C114.693 77.1779 113.735 76.2405 112.568 75.9346C113.939 75.6742 115.1 74.6261 115.439 73.1679C115.9 71.1922 114.687 69.2164 112.729 68.751C115.319 69.4996 118.019 67.9893 118.761 65.3789C119.503 62.7652 118.006 60.0409 115.419 59.2922L115.406 59.2857Z" fill="url(#paint4_linear_734_53682)"/>
</g>
</g>
<path d="M88.1009 51.9052C88.7719 50.5057 80.7457 45.1871 70.1739 40.0256C59.602 34.8642 50.4877 31.8146 49.8167 33.214C49.1456 34.6135 57.1718 39.9322 67.7437 45.0936C78.3155 50.2551 87.4298 53.3047 88.1009 51.9052Z" fill="url(#paint5_linear_734_53682)"/>
<path d="M1.34564 17.6504L1.49485 17.9835L1.46772 20.47C8.7294 23.3991 17.3566 25.5297 24.4917 27.6239C24.9484 27.8338 25.3463 28.1486 25.7758 28.4132C26.2189 28.687 26.6666 28.9607 27.1097 29.2344C27.1685 29.2709 27.2227 29.3029 27.2815 29.3394C28.4481 30.0557 29.6192 30.772 30.7857 31.4929C21.842 28.3585 12.1568 26.3099 3.94556 22.2083C3.25828 21.8661 2.26804 21.3232 1.4632 20.9764C1.32303 20.8304 1.1919 20.689 1.07886 20.5658C1.04721 20.5339 0.988434 20.511 1.002 20.4837L1.35016 17.655L1.34564 17.6504Z" fill="url(#paint6_linear_734_53682)"/>
<path d="M58.5151 17.3989C56.6884 21.131 54.6401 26.2957 53.4284 27.4363C53.3334 27.377 53.2249 27.3177 53.0938 27.2766C54.2603 26.3596 56.3041 21.1812 58.1172 17.4674C58.5604 16.564 58.9809 15.8295 59.3426 15.0037C59.3968 14.8805 59.4737 14.7573 59.5868 14.7618C59.632 14.7618 59.6772 14.7664 59.7179 14.771C59.7495 14.771 59.7857 14.771 59.8174 14.7755C59.8038 14.8029 59.7902 14.8303 59.7767 14.8577C59.4059 15.7108 58.9673 16.4682 58.5106 17.3989H58.5151Z" fill="url(#paint7_linear_734_53682)"/>
<path d="M57.5178 30.1854C57.1742 30.1033 54.9903 28.3923 54.1583 27.8814C54.0317 27.8038 53.9367 27.7536 53.887 27.7445C53.7649 27.7171 53.6338 27.5711 53.4258 27.4342C54.6421 26.2936 56.6904 21.1244 58.5126 17.3968C58.9693 16.4615 59.4033 15.7087 59.7786 14.8556C59.7922 14.8282 59.8058 14.8008 59.8193 14.7734C60.0951 14.7871 60.4207 14.8145 60.6513 14.8784C59.643 19.9062 58.5261 25.1576 57.5178 30.1854Z" fill="url(#paint8_linear_734_53682)"/>
<path d="M56.1819 30.0503C54.7983 28.9599 53.3062 28.0063 51.8005 27.0939C48.8253 25.2963 45.2804 23.4439 41.8259 21.7421C39.8138 20.7521 37.8333 19.8076 36.0111 18.959C33.262 17.677 30.8746 16.6048 29.3011 15.8748C25.6114 14.173 22.5729 14.4787 20.2986 15.7288C19.5118 16.1622 18.82 16.7052 18.2232 17.3165C18.0152 17.531 17.8162 17.7545 17.6308 17.9826C17.2103 18.5073 16.8486 19.0639 16.5547 19.6297C16.8938 18.8176 17.3595 18.0055 17.9564 17.2663C18.1418 17.0382 18.3362 16.8192 18.5442 16.6048C19.1365 15.9934 19.8283 15.455 20.606 15.0262C22.8623 13.7852 25.8827 13.4841 29.5497 15.1722C31.1142 15.893 33.4835 16.9607 36.2146 18.2336C38.0232 19.0776 39.9946 20.0129 41.9932 20.9984C45.4251 22.6911 48.9474 24.5298 51.9 26.3137C53.3966 27.217 54.8752 28.166 56.2498 29.2473C57.2626 30.0412 58.4066 30.9674 58.9763 32.1627C59.0848 32.3909 59.1526 32.6053 59.1843 32.8152C59.2114 33.0159 59.1933 33.203 59.1436 33.3809C59.1345 33.4174 59.121 33.4539 59.1074 33.4858C59.0712 33.3216 59.0079 33.1482 58.9265 32.9749C58.3523 31.7749 57.2038 30.8442 56.1819 30.0412V30.0503Z" fill="white"/>
<path d="M58.4459 34.4948C58.1429 34.8552 57.8264 35.1792 57.4918 35.4666C54.1006 38.3866 49.0997 37.6748 44.3566 36.2741C42.453 35.713 40.581 35.0332 38.7091 34.3807C38.0218 34.1435 37.1898 33.8515 36.2493 33.5139C32.9938 32.355 28.4858 30.676 24.5384 28.8693C23.3899 28.3446 22.2912 27.8108 21.2874 27.2724C19.6958 26.4238 18.3845 25.5889 17.4712 24.7859C16.7748 24.1745 16.3091 23.5814 16.1192 23.0111C16.0423 22.783 16.0016 22.5275 15.9881 22.2674C15.97 21.8568 16.0197 21.4279 16.1011 21.0629C16.1328 20.9215 16.1689 20.7801 16.2096 20.6341C16.3046 20.301 16.4222 19.9588 16.5623 19.6212C16.8562 19.0509 17.2134 18.4943 17.6385 17.9742C17.8239 17.746 18.0228 17.5225 18.2308 17.308C18.8276 16.6967 19.5194 16.1492 20.3062 15.7203C22.5806 14.4702 25.6191 14.1645 29.3087 15.8663C30.8867 16.5917 33.2696 17.6685 36.0187 18.9505C37.8409 19.7991 39.8214 20.739 41.8335 21.7336C45.288 23.4354 48.8329 25.2878 51.8081 27.0854C53.3138 27.9933 54.8014 28.9514 56.1896 30.0418C57.2069 30.8448 58.3599 31.7756 58.9342 32.9755C59.0156 33.1489 59.0789 33.3222 59.115 33.4865C59.0879 33.5595 59.0563 33.6325 59.0201 33.7009C58.8709 33.9838 58.6584 34.2393 58.4504 34.4857L58.4459 34.4948Z" fill="url(#paint9_linear_734_53682)"/>
<path d="M13.0575 30.6533C13.5277 31.0959 14.0432 31.3924 14.7214 31.6023C14.9701 31.6753 15.5715 31.7118 15.8428 31.6935C16.5843 31.6479 17.1767 31.543 17.8278 31.1141C17.9453 31.0366 18.0584 30.9499 18.1624 30.8586C18.506 30.5575 18.7592 30.1788 18.8451 29.7499C18.8632 29.6587 18.8768 29.5674 18.8813 29.4716C18.9084 29.0884 18.8406 28.8374 18.7276 28.4679C18.5512 27.8885 18.2302 27.3638 17.7871 26.9486C17.6831 26.8528 17.5746 26.7615 17.4615 26.6748C16.6341 26.0544 15.5715 25.7715 14.5496 25.7715C13.8307 25.7715 13.1796 26.068 12.7093 26.5425C12.4561 26.798 12.2526 27.1083 12.1215 27.455C12.0356 27.6786 11.9813 27.9113 11.9587 28.1576C11.9542 28.217 11.9497 28.2808 11.9497 28.3401C11.9316 29.2298 12.4335 30.0602 13.0575 30.6533Z" fill="url(#paint10_linear_734_53682)"/>
<path d="M14.5621 31.0405C16.003 31.0405 17.171 29.8618 17.171 28.4079C17.171 26.954 16.003 25.7754 14.5621 25.7754C13.1212 25.7754 11.9531 26.954 11.9531 28.4079C11.9531 29.8618 13.1212 31.0405 14.5621 31.0405Z" fill="url(#paint11_linear_734_53682)"/>
<path d="M14.5637 30.5028C15.7099 30.5028 16.6391 29.5652 16.6391 28.4086C16.6391 27.252 15.7099 26.3145 14.5637 26.3145C13.4175 26.3145 12.4883 27.252 12.4883 28.4086C12.4883 29.5652 13.4175 30.5028 14.5637 30.5028Z" fill="url(#paint12_linear_734_53682)"/>
<path d="M23.1242 16.5452C22.3555 16.4265 21.5597 16.3627 20.7549 16.3262L19.8867 17.6219C20.8317 17.6402 21.7406 17.6995 22.6358 17.777L23.1242 16.5452Z" fill="url(#paint13_linear_734_53682)"/>
<path d="M19.2299 16.4231C19.7725 16.3912 20.0302 16.2999 20.5728 16.3273L19.6956 17.6231C19.1123 17.5181 18.6692 17.4999 18.0859 17.4588C18.3798 17.0801 18.8365 16.7334 19.2344 16.4186L19.2299 16.4231Z" fill="url(#paint14_linear_734_53682)"/>
<path d="M23.2842 16.5742C24.0755 16.9118 24.8396 17.3179 25.5133 17.9338C25.658 18.162 25.7575 18.3992 25.8208 18.6456C24.9165 18.3079 23.9443 18.0068 22.832 17.7787L23.2842 16.5742Z" fill="url(#paint15_linear_734_53682)"/>
<path d="M34.1916 20.761C34.187 20.98 34.0921 21.1442 33.979 21.126C33.866 21.1077 33.7846 20.9116 33.7937 20.6926C33.8027 20.4736 33.8931 20.3093 34.0062 20.3276C34.1147 20.3458 34.2006 20.542 34.1916 20.761Z" fill="url(#paint16_linear_734_53682)"/>
<path d="M34.8048 21.0657C34.8003 21.2847 34.7054 21.4489 34.5923 21.4307C34.4793 21.4124 34.3979 21.2162 34.4069 20.9972C34.4115 20.7782 34.5064 20.614 34.6195 20.6322C34.728 20.6505 34.8139 20.8467 34.8048 21.0657Z" fill="url(#paint17_linear_734_53682)"/>
<path d="M35.422 21.3684C35.4175 21.5874 35.3225 21.7517 35.2095 21.7334C35.101 21.7152 35.015 21.519 35.0241 21.3C35.0331 21.081 35.1236 20.9167 35.2366 20.935C35.3451 20.9532 35.431 21.1494 35.422 21.3684Z" fill="url(#paint18_linear_734_53682)"/>
<path d="M35.8423 22.0355C35.9521 22.0335 36.038 21.8522 36.034 21.6305C36.03 21.4088 35.9377 21.2307 35.8278 21.2327C35.718 21.2347 35.6321 21.4161 35.6361 21.6378C35.6401 21.8595 35.7324 22.0376 35.8423 22.0355Z" fill="url(#paint19_linear_734_53682)"/>
<path d="M36.4634 22.3441C36.5732 22.3421 36.659 22.1608 36.6551 21.9391C36.6511 21.7174 36.5588 21.5393 36.4489 21.5413C36.3391 21.5433 36.2532 21.7246 36.2572 21.9464C36.2612 22.1681 36.3535 22.3461 36.4634 22.3441Z" fill="url(#paint20_linear_734_53682)"/>
<path d="M37.2658 22.2727C37.2613 22.4917 37.1663 22.656 37.0533 22.6377C36.9402 22.6195 36.8588 22.4233 36.8679 22.2043C36.8769 21.9853 36.9673 21.821 37.0804 21.8393C37.1889 21.8575 37.2748 22.0537 37.2658 22.2727Z" fill="url(#paint21_linear_734_53682)"/>
<path d="M37.8829 22.5774C37.8784 22.7964 37.7835 22.9606 37.6704 22.9424C37.5619 22.9241 37.476 22.728 37.485 22.509C37.4896 22.29 37.5845 22.1257 37.6975 22.144C37.8061 22.1622 37.892 22.3584 37.8829 22.5774Z" fill="url(#paint22_linear_734_53682)"/>
<path d="M38.4962 22.8782C38.4917 23.0972 38.3967 23.2614 38.2837 23.2432C38.1752 23.2249 38.0893 23.0287 38.0983 22.8097C38.1074 22.5907 38.1978 22.4265 38.3108 22.4447C38.4239 22.463 38.5053 22.6592 38.5007 22.8782H38.4962Z" fill="url(#paint23_linear_734_53682)"/>
<path d="M39.1134 23.179C39.1089 23.398 39.0139 23.5622 38.9009 23.544C38.7924 23.5257 38.7065 23.3295 38.7155 23.1105C38.72 22.8915 38.815 22.7273 38.928 22.7455C39.0411 22.7638 39.1224 22.96 39.1179 23.179H39.1134Z" fill="url(#paint24_linear_734_53682)"/>
<path d="M39.7267 23.4817C39.7222 23.7007 39.6272 23.8649 39.5142 23.8467C39.4012 23.8284 39.3198 23.6323 39.3288 23.4133C39.3333 23.1943 39.4283 23.03 39.5413 23.0483C39.6544 23.0665 39.7357 23.2627 39.7267 23.4817Z" fill="url(#paint25_linear_734_53682)"/>
<path d="M40.3478 23.7805C40.3433 23.9995 40.2483 24.1638 40.1353 24.1455C40.0223 24.1273 39.9409 23.9311 39.9499 23.7121C39.9544 23.4931 40.0494 23.3288 40.1624 23.3471C40.2755 23.3653 40.3569 23.5615 40.3478 23.7805Z" fill="url(#paint26_linear_734_53682)"/>
<path d="M40.9572 24.0872C40.9526 24.3062 40.8577 24.4704 40.7446 24.4522C40.6361 24.4339 40.5502 24.2377 40.5592 24.0187C40.5683 23.7997 40.6587 23.6355 40.7718 23.6537C40.8803 23.672 40.9662 23.8682 40.9572 24.0872Z" fill="url(#paint27_linear_734_53682)"/>
<path d="M41.5743 24.386C41.5698 24.605 41.4749 24.7692 41.3618 24.751C41.2533 24.7327 41.1674 24.5366 41.1764 24.3176C41.181 24.0986 41.2759 23.9343 41.389 23.9526C41.4975 23.9708 41.5834 24.167 41.5743 24.386Z" fill="url(#paint28_linear_734_53682)"/>
<path d="M42.1915 24.6887C42.187 24.9077 42.092 25.072 41.979 25.0537C41.8705 25.0355 41.7846 24.8393 41.7936 24.6203C41.8027 24.4013 41.8931 24.237 42.0061 24.2553C42.1147 24.2735 42.2006 24.4697 42.196 24.6887H42.1915Z" fill="url(#paint29_linear_734_53682)"/>
<path d="M42.8087 24.9895C42.8042 25.2085 42.7092 25.3728 42.5962 25.3545C42.4877 25.3363 42.4018 25.1401 42.4108 24.9211C42.4153 24.7021 42.5103 24.5378 42.6233 24.5561C42.7364 24.5743 42.8178 24.7705 42.8087 24.9895Z" fill="url(#paint30_linear_734_53682)"/>
<path d="M43.229 25.6645C43.3388 25.6624 43.4247 25.4811 43.4207 25.2594C43.4167 25.0377 43.3244 24.8596 43.2145 24.8616C43.1047 24.8636 43.0189 25.045 43.0228 25.2667C43.0268 25.4884 43.1191 25.6665 43.229 25.6645Z" fill="url(#paint31_linear_734_53682)"/>
<path d="M43.8384 25.9691C43.9482 25.9671 44.034 25.7858 44.0301 25.5641C44.0261 25.3424 43.9338 25.1643 43.8239 25.1663C43.7141 25.1683 43.6282 25.3497 43.6322 25.5714C43.6362 25.7931 43.7285 25.9712 43.8384 25.9691Z" fill="url(#paint32_linear_734_53682)"/>
<path d="M44.6486 25.8977C44.6441 26.1167 44.5491 26.281 44.4361 26.2627C44.323 26.2445 44.2416 26.0483 44.2507 25.8293C44.2552 25.6103 44.3502 25.446 44.4632 25.4643C44.5762 25.4825 44.6576 25.6787 44.6486 25.8977Z" fill="url(#paint33_linear_734_53682)"/>
<path d="M45.2618 26.1985C45.2573 26.4175 45.1624 26.5817 45.0493 26.5635C44.9408 26.5452 44.8549 26.3491 44.8639 26.1301C44.873 25.9111 44.9634 25.7468 45.0765 25.7651C45.185 25.7833 45.2709 25.9795 45.2664 26.1985H45.2618Z" fill="url(#paint34_linear_734_53682)"/>
<path d="M45.8791 26.5012C45.8745 26.7202 45.7796 26.8845 45.6665 26.8662C45.5535 26.848 45.4721 26.6518 45.4812 26.4328C45.4857 26.2138 45.5806 26.0495 45.6937 26.0678C45.8067 26.086 45.8881 26.2822 45.8791 26.5012Z" fill="url(#paint35_linear_734_53682)"/>
<path d="M46.4923 26.802C46.4878 27.021 46.3929 27.1853 46.2798 27.167C46.1668 27.1488 46.0854 26.9526 46.0944 26.7336C46.099 26.5146 46.1939 26.3503 46.307 26.3686C46.42 26.3868 46.5014 26.583 46.4923 26.802Z" fill="url(#paint36_linear_734_53682)"/>
<path d="M47.1095 27.1067C47.105 27.3257 47.01 27.4899 46.897 27.4717C46.7885 27.4534 46.7025 27.2573 46.7116 27.0383C46.7206 26.8193 46.8111 26.655 46.9241 26.6733C47.0371 26.6915 47.1185 26.8877 47.1095 27.1067Z" fill="url(#paint37_linear_734_53682)"/>
<path d="M47.7228 27.4094C47.7183 27.6284 47.6233 27.7927 47.5103 27.7744C47.3972 27.7562 47.3159 27.56 47.3249 27.341C47.3294 27.122 47.4244 26.9577 47.5374 26.976C47.6505 26.9942 47.7318 27.1904 47.7228 27.4094Z" fill="url(#paint38_linear_734_53682)"/>
<path d="M48.34 27.7102C48.3354 27.9292 48.2405 28.0935 48.1274 28.0752C48.0189 28.057 47.933 27.8608 47.9421 27.6418C47.9466 27.4228 48.0415 27.2585 48.1546 27.2768C48.2631 27.295 48.349 27.4912 48.34 27.7102Z" fill="url(#paint39_linear_734_53682)"/>
<path d="M48.9533 28.011C48.9487 28.23 48.8538 28.3942 48.7408 28.376C48.6277 28.3577 48.5463 28.1616 48.5554 27.9426C48.5644 27.7236 48.6548 27.5593 48.7679 27.5776C48.8809 27.5958 48.9623 27.792 48.9533 28.011Z" fill="url(#paint40_linear_734_53682)"/>
<path d="M49.5704 28.3137C49.5659 28.5327 49.471 28.697 49.3579 28.6787C49.2494 28.6605 49.1635 28.4643 49.1725 28.2453C49.1771 28.0263 49.272 27.862 49.385 27.8803C49.4936 27.8985 49.5795 28.0947 49.5704 28.3137Z" fill="url(#paint41_linear_734_53682)"/>
<path d="M50.1837 28.6184C50.1792 28.8374 50.0842 29.0017 49.9712 28.9834C49.8627 28.9652 49.7768 28.769 49.7858 28.55C49.7903 28.331 49.8853 28.1667 49.9983 28.185C50.1068 28.2032 50.1928 28.3994 50.1837 28.6184Z" fill="url(#paint42_linear_734_53682)"/>
<path d="M50.8009 28.9192C50.7964 29.1382 50.7015 29.3024 50.5884 29.2842C50.4754 29.2659 50.394 29.0698 50.403 28.8508C50.4121 28.6318 50.5025 28.4675 50.6155 28.4858C50.7241 28.504 50.81 28.7002 50.8009 28.9192Z" fill="url(#paint43_linear_734_53682)"/>
<path d="M57.4926 35.4657C57.8272 35.1783 58.1482 34.8543 58.4467 34.4939C58.6547 34.243 58.8717 33.9875 59.0164 33.7092C59.0616 33.627 59.0978 33.5404 59.1249 33.4491C53.2604 31.3823 46.1389 28.4167 43.0913 27.5088C38.6285 26.1811 33.293 25.4557 29.5672 25.3736C25.8415 25.2914 19.891 22.0612 17.0334 22.0293C16.6581 22.0293 16.2511 22.0384 15.9844 22.2894C15.9979 22.5449 16.0386 22.7958 16.111 23.0194C16.3009 23.5897 16.7666 24.1828 17.4629 24.7941C18.3763 25.5971 19.683 26.4275 21.2792 27.2807C22.2875 27.819 23.3862 28.3529 24.5302 28.8775C28.473 30.6843 32.9856 32.3587 36.2411 33.5221C37.1816 33.8552 38.0136 34.1472 38.7009 34.389C40.5773 35.0414 42.4447 35.7212 44.3483 36.2824C49.0915 37.6831 54.0969 38.3902 57.4836 35.4748L57.4926 35.4657Z" fill="url(#paint44_linear_734_53682)"/>
<path d="M42.2148 27.8697C62.8649 29.3114 81.4894 28.5678 99.8923 26.2637L102.411 18.8999L102.999 18.1562L100.281 27.2857C100.277 27.3405 100.272 27.3952 100.263 27.4454C100.245 27.5503 100.218 27.6325 100.173 27.6553C100.037 27.7237 99.9013 27.7648 99.5803 27.8332C83.7638 30.7167 67.4363 31.7888 50.0553 33.1302C47.1298 32.6238 45.4071 31.7615 44.0913 30.8992C43.0558 30.2194 42.2736 29.5441 41.3557 29.0377C41.2472 28.9784 41.2427 28.8552 41.2472 28.7639C41.2653 28.3807 41.9435 28.0385 42.2148 27.8743V27.8697Z" fill="url(#paint45_linear_734_53682)"/>
<path d="M55.4912 35.0103C56.0338 35.5213 56.7211 35.9456 57.5123 36.1828C57.7972 36.2695 58.1001 36.3334 58.4076 36.3653C59.2622 36.4611 60.2524 36.2148 61.0075 35.722C61.1432 35.6308 61.2743 35.535 61.3964 35.43C61.7943 35.0787 62.0837 34.6453 62.1832 34.148C62.2058 34.043 62.2193 33.9381 62.2238 33.8286C62.2555 33.386 62.1786 32.9161 62.0475 32.4872C61.844 31.8166 61.4733 31.2098 60.9623 30.7307C60.8448 30.6166 60.7181 30.5117 60.587 30.4159C59.633 29.6996 58.4031 29.3711 57.223 29.3711C56.391 29.3711 55.6404 29.7133 55.0978 30.2608C54.8039 30.5573 54.5688 30.9178 54.415 31.3147C54.3156 31.5702 54.2523 31.8439 54.2251 32.1268C54.2206 32.1953 54.2161 32.2682 54.2116 32.3367C54.189 33.3632 54.7677 34.3259 55.4912 35.0103Z" fill="url(#paint46_linear_734_53682)"/>
<path d="M60.2506 32.4103C60.2506 34.0939 58.8986 35.4535 57.2347 35.4535C55.5662 35.4535 54.2188 34.0893 54.2188 32.4103C54.2188 30.7268 55.5707 29.3672 57.2347 29.3672C58.9031 29.3672 60.2506 30.7314 60.2506 32.4103Z" fill="url(#paint47_linear_734_53682)"/>
<path d="M57.2285 34.8284C58.552 34.8284 59.6249 33.7458 59.6249 32.4103C59.6249 31.0748 58.552 29.9922 57.2285 29.9922C55.905 29.9922 54.832 31.0748 54.832 32.4103C54.832 33.7458 55.905 34.8284 57.2285 34.8284Z" fill="url(#paint48_linear_734_53682)"/>
<path d="M57.987 77.5586H57.4805V73.2754H59.9088V73.7178H57.987V75.2852H59.7926V75.7275H57.987V77.5586Z" fill="#C5D4E3"/>
<path d="M61.0529 77.5586H60.5583V73H61.0529V77.5586Z" fill="#C5D4E3"/>
<path d="M62.5963 77.5586H62.1017V74.3477H62.5963V77.5586ZM62.06 73.4775C62.06 73.3662 62.0878 73.2852 62.1434 73.2344C62.199 73.1816 62.2686 73.1553 62.352 73.1553C62.4315 73.1553 62.5 73.1816 62.5576 73.2344C62.6152 73.2871 62.644 73.3682 62.644 73.4775C62.644 73.5869 62.6152 73.6689 62.5576 73.7236C62.5 73.7764 62.4315 73.8027 62.352 73.8027C62.2686 73.8027 62.199 73.7764 62.1434 73.7236C62.0878 73.6689 62.06 73.5869 62.06 73.4775Z" fill="#C5D4E3"/>
<path d="M66.3177 74.3477V74.6553L65.7129 74.7256C65.7685 74.7939 65.8182 74.8838 65.8619 74.9951C65.9056 75.1045 65.9274 75.2285 65.9274 75.3672C65.9274 75.6816 65.8182 75.9326 65.5997 76.1201C65.3812 76.3076 65.0812 76.4014 64.6998 76.4014C64.6025 76.4014 64.5111 76.3936 64.4257 76.3779C64.2152 76.4873 64.1099 76.625 64.1099 76.791C64.1099 76.8789 64.1467 76.9443 64.2201 76.9873C64.2936 77.0283 64.4198 77.0488 64.5985 77.0488H65.1766C65.5301 77.0488 65.8013 77.1221 65.99 77.2686C66.1807 77.415 66.276 77.6279 66.276 77.9072C66.276 78.2627 66.131 78.5332 65.841 78.7188C65.551 78.9062 65.1279 79 64.5717 79C64.1447 79 63.8149 78.9219 63.5825 78.7656C63.3521 78.6094 63.2369 78.3887 63.2369 78.1035C63.2369 77.9082 63.3005 77.7393 63.4276 77.5967C63.5547 77.4541 63.7335 77.3574 63.9639 77.3066C63.8805 77.2695 63.81 77.2119 63.7524 77.1338C63.6967 77.0557 63.6689 76.9648 63.6689 76.8613C63.6689 76.7441 63.7007 76.6416 63.7643 76.5537C63.8278 76.4658 63.9282 76.3809 64.0652 76.2988C63.8964 76.2305 63.7583 76.1143 63.6511 75.9502C63.5458 75.7861 63.4931 75.5986 63.4931 75.3877C63.4931 75.0361 63.6004 74.7656 63.8149 74.5762C64.0295 74.3848 64.3334 74.2891 64.7267 74.2891C64.8975 74.2891 65.0514 74.3086 65.1885 74.3477H66.3177ZM63.7136 78.0977C63.7136 78.2715 63.7881 78.4033 63.9371 78.4932C64.0861 78.583 64.2996 78.6279 64.5777 78.6279C64.9928 78.6279 65.2997 78.5664 65.4984 78.4434C65.699 78.3223 65.7993 78.1572 65.7993 77.9482C65.7993 77.7744 65.7447 77.6533 65.6354 77.585C65.5262 77.5186 65.3206 77.4854 65.0187 77.4854H64.4257C64.2013 77.4854 64.0265 77.5381 63.9013 77.6436C63.7762 77.749 63.7136 77.9004 63.7136 78.0977ZM63.9818 75.376C63.9818 75.6006 64.0463 75.7705 64.1755 75.8857C64.3046 76.001 64.4843 76.0586 64.7147 76.0586C65.1974 76.0586 65.4388 75.8281 65.4388 75.3672C65.4388 74.8848 65.1944 74.6436 64.7058 74.6436C64.4734 74.6436 64.2946 74.7051 64.1695 74.8281C64.0444 74.9512 63.9818 75.1338 63.9818 75.376Z" fill="#C5D4E3"/>
<path d="M69.2227 77.5586V75.4814C69.2227 75.2197 69.1622 75.0244 69.041 74.8955C68.9198 74.7666 68.7301 74.7021 68.4719 74.7021C68.1283 74.7021 67.877 74.7939 67.7181 74.9775C67.5612 75.1611 67.4827 75.4619 67.4827 75.8799V77.5586H66.9881V73H67.4827V74.3799C67.4827 74.5459 67.4748 74.6836 67.4589 74.793H67.4887C67.586 74.6387 67.724 74.5176 67.9028 74.4297C68.0836 74.3398 68.2892 74.2949 68.5196 74.2949C68.9188 74.2949 69.2178 74.3887 69.4164 74.5762C69.617 74.7617 69.7173 75.0576 69.7173 75.4639V77.5586H69.2227Z" fill="#C5D4E3"/>
<path d="M71.7911 77.2158C71.8785 77.2158 71.9629 77.21 72.0443 77.1982C72.1258 77.1846 72.1903 77.1709 72.238 77.1572V77.5293C72.1844 77.5547 72.1049 77.5752 71.9996 77.5908C71.8963 77.6084 71.803 77.6172 71.7196 77.6172C71.0879 77.6172 70.7721 77.29 70.7721 76.6357V74.7256H70.3043V74.4912L70.7721 74.2891L70.9806 73.6035H71.2667V74.3477H72.2142V74.7256H71.2667V76.6152C71.2667 76.8086 71.3134 76.957 71.4067 77.0605C71.5001 77.1641 71.6282 77.2158 71.7911 77.2158Z" fill="#C5D4E3"/>
<path d="M75 76.6826C75 76.9814 74.8868 77.2119 74.6603 77.374C74.4339 77.5361 74.1161 77.6172 73.7069 77.6172C73.2739 77.6172 72.9362 77.5498 72.6939 77.415V76.9639C72.8508 77.042 73.0186 77.1035 73.1974 77.1484C73.3782 77.1934 73.552 77.2158 73.7188 77.2158C73.977 77.2158 74.1757 77.1758 74.3147 77.0957C74.4538 77.0137 74.5233 76.8896 74.5233 76.7236C74.5233 76.5986 74.4677 76.4922 74.3564 76.4043C74.2472 76.3145 74.0327 76.209 73.7129 76.0879C73.4089 75.9766 73.1924 75.8799 73.0633 75.7979C72.9362 75.7139 72.8409 75.6191 72.7773 75.5137C72.7157 75.4082 72.6849 75.2822 72.6849 75.1357C72.6849 74.874 72.7932 74.668 73.0097 74.5176C73.2262 74.3652 73.5232 74.2891 73.9006 74.2891C74.2521 74.2891 74.5958 74.3594 74.9315 74.5L74.7557 74.8955C74.4279 74.7627 74.131 74.6963 73.8648 74.6963C73.6304 74.6963 73.4536 74.7324 73.3345 74.8047C73.2153 74.877 73.1557 74.9766 73.1557 75.1035C73.1557 75.1895 73.1775 75.2627 73.2212 75.3232C73.2669 75.3838 73.3394 75.4414 73.4387 75.4961C73.5381 75.5508 73.7287 75.6299 74.0108 75.7334C74.3981 75.8721 74.6593 76.0117 74.7944 76.1523C74.9315 76.293 75 76.4697 75 76.6826Z" fill="#C5D4E3"/>
<path d="M54.5556 76.3319C54.4341 76.4497 54.3045 76.5431 54.1668 76.6122C54.0291 76.6812 53.8833 76.7137 53.7294 76.7137C53.5228 76.7137 53.3649 76.6487 53.2596 76.5228C53.1543 76.3969 53.1016 76.2182 53.1016 75.9866V73.3586H52V75.9866C52 76.2182 52.0324 76.4294 52.0932 76.6203C52.1539 76.8112 52.243 76.9777 52.3605 77.1158C52.4779 77.254 52.6237 77.3636 52.7979 77.4408C52.972 77.518 53.1705 77.5586 53.3973 77.5586C53.535 77.5586 53.6605 77.5464 53.7739 77.518C53.8914 77.4895 53.9967 77.453 54.0979 77.4042C54.1992 77.3555 54.2923 77.2986 54.3814 77.2296C54.4705 77.1646 54.5556 77.0915 54.6366 77.0102L54.7095 77.2986C54.75 77.4286 54.8391 77.4895 54.9808 77.4895H55.6612V73.3586H54.5556V76.3319Z" fill="#C5D4E3"/>
<defs>
<linearGradient id="paint0_linear_734_53682" x1="63.7964" y1="165.593" x2="63.7964" y2="-78.0786" gradientUnits="userSpaceOnUse">
<stop stop-color="#121314"/>
<stop offset="1" stop-color="#354156"/>
</linearGradient>
<linearGradient id="paint1_linear_734_53682" x1="57.2935" y1="1.69336" x2="57.2935" y2="81.1878" gradientUnits="userSpaceOnUse">
<stop stop-color="#B2E2F9"/>
<stop offset="0.23" stop-color="#BEE6F9"/>
<stop offset="0.66" stop-color="#DFF3FC"/>
<stop offset="1" stop-color="white"/>
</linearGradient>
<linearGradient id="paint2_linear_734_53682" x1="55.7485" y1="86.0277" x2="55.7485" y2="21.5774" gradientUnits="userSpaceOnUse">
<stop stop-color="#B2E2F9"/>
<stop offset="0.13" stop-color="#C6E9FA"/>
<stop offset="0.32" stop-color="#DFF2FC"/>
<stop offset="0.53" stop-color="#F0F9FD"/>
<stop offset="0.75" stop-color="#FBFDFE"/>
<stop offset="1" stop-color="white"/>
</linearGradient>
<linearGradient id="paint3_linear_734_53682" x1="58.8184" y1="82.7173" x2="58.8184" y2="39.0528" gradientUnits="userSpaceOnUse">
<stop stop-color="#B2E2F9"/>
<stop offset="0.13" stop-color="#C6E9FA"/>
<stop offset="0.32" stop-color="#DFF2FC"/>
<stop offset="0.53" stop-color="#F0F9FD"/>
<stop offset="0.75" stop-color="#FBFDFE"/>
<stop offset="1" stop-color="white"/>
</linearGradient>
<linearGradient id="paint4_linear_734_53682" x1="59.3975" y1="118.473" x2="59.3975" y2="46.1457" gradientUnits="userSpaceOnUse">
<stop stop-color="#B2E2F9"/>
<stop offset="0.13" stop-color="#C6E9FA"/>
<stop offset="0.32" stop-color="#DFF2FC"/>
<stop offset="0.53" stop-color="#F0F9FD"/>
<stop offset="0.75" stop-color="#FBFDFE"/>
<stop offset="1" stop-color="white"/>
</linearGradient>
<linearGradient id="paint5_linear_734_53682" x1="36.0362" y1="28.2217" x2="85.8872" y2="49.6391" gradientUnits="userSpaceOnUse">
<stop offset="0.2" stop-color="white"/>
<stop offset="1" stop-color="white" stop-opacity="0"/>
</linearGradient>
<linearGradient id="paint6_linear_734_53682" x1="30.632" y1="28.9698" x2="-4.08136" y2="18.6796" gradientUnits="userSpaceOnUse">
<stop stop-color="#95B5D7"/>
<stop offset="0.99" stop-color="#E4DECA"/>
</linearGradient>
<linearGradient id="paint7_linear_734_53682" x1="60.6493" y1="21.0991" x2="53.0892" y2="21.0991" gradientUnits="userSpaceOnUse">
<stop stop-color="#09529B"/>
<stop offset="1" stop-color="#00A2AF"/>
</linearGradient>
<linearGradient id="paint8_linear_734_53682" x1="60.6513" y1="22.4794" x2="53.0912" y2="22.4794" gradientUnits="userSpaceOnUse">
<stop stop-color="#09529B"/>
<stop offset="1" stop-color="#00A2AF"/>
</linearGradient>
<linearGradient id="paint9_linear_734_53682" x1="36.7648" y1="31.2418" x2="38.2506" y2="24.3853" gradientUnits="userSpaceOnUse">
<stop stop-color="#95B5D7"/>
<stop offset="0.99" stop-color="#E4DECA"/>
</linearGradient>
<linearGradient id="paint10_linear_734_53682" x1="14.8028" y1="32.825" x2="15.7185" y2="27.0424" gradientUnits="userSpaceOnUse">
<stop stop-color="#09529B"/>
<stop offset="1" stop-color="#00A2AF"/>
</linearGradient>
<linearGradient id="paint11_linear_734_53682" x1="14.128" y1="31.9986" x2="15.9138" y2="17.3752" gradientUnits="userSpaceOnUse">
<stop stop-color="#364156"/>
<stop offset="0.11" stop-color="#3F4754"/>
<stop offset="0.28" stop-color="#5A5751"/>
<stop offset="0.51" stop-color="#86724B"/>
<stop offset="0.78" stop-color="#C19743"/>
<stop offset="0.97" stop-color="#F0B43E"/>
</linearGradient>
<linearGradient id="paint12_linear_734_53682" x1="13.7679" y1="33.3178" x2="15.995" y2="19.8011" gradientUnits="userSpaceOnUse">
<stop stop-color="#131415"/>
<stop offset="0.09" stop-color="#1C1B16"/>
<stop offset="0.25" stop-color="#372E1B"/>
<stop offset="0.45" stop-color="#634E23"/>
<stop offset="0.69" stop-color="#9F792F"/>
<stop offset="0.96" stop-color="#EBB03D"/>
<stop offset="0.97" stop-color="#F0B43E"/>
</linearGradient>
<linearGradient id="paint13_linear_734_53682" x1="26.7324" y1="18.3975" x2="12.4383" y2="14.8672" gradientUnits="userSpaceOnUse">
<stop stop-color="#131415"/>
<stop offset="0.09" stop-color="#1C1B16"/>
<stop offset="0.25" stop-color="#372E1B"/>
<stop offset="0.45" stop-color="#634E23"/>
<stop offset="0.69" stop-color="#9F792F"/>
<stop offset="0.96" stop-color="#EBB03D"/>
<stop offset="0.97" stop-color="#F0B43E"/>
</linearGradient>
<linearGradient id="paint14_linear_734_53682" x1="26.2565" y1="18.6359" x2="12.8631" y2="15.3299" gradientUnits="userSpaceOnUse">
<stop stop-color="#131415"/>
<stop offset="0.09" stop-color="#1C1B16"/>
<stop offset="0.25" stop-color="#372E1B"/>
<stop offset="0.45" stop-color="#634E23"/>
<stop offset="0.69" stop-color="#9F792F"/>
<stop offset="0.96" stop-color="#EBB03D"/>
<stop offset="0.97" stop-color="#F0B43E"/>
</linearGradient>
<linearGradient id="paint15_linear_734_53682" x1="26.7884" y1="18.1711" x2="12.4944" y2="14.6453" gradientUnits="userSpaceOnUse">
<stop stop-color="#131415"/>
<stop offset="0.09" stop-color="#1C1B16"/>
<stop offset="0.25" stop-color="#372E1B"/>
<stop offset="0.45" stop-color="#634E23"/>
<stop offset="0.69" stop-color="#9F792F"/>
<stop offset="0.96" stop-color="#EBB03D"/>
<stop offset="0.97" stop-color="#F0B43E"/>
</linearGradient>
<linearGradient id="paint16_linear_734_53682" x1="190.032" y1="48.0486" x2="211.519" y2="61.2557" gradientUnits="userSpaceOnUse">
<stop stop-color="#131415"/>
<stop offset="0.14" stop-color="#12181E"/>
<stop offset="0.37" stop-color="#0F2539"/>
<stop offset="0.67" stop-color="#0B3A65"/>
<stop offset="0.98" stop-color="#075499"/>
</linearGradient>
<linearGradient id="paint17_linear_734_53682" x1="190.201" y1="48.0281" x2="211.689" y2="61.2352" gradientUnits="userSpaceOnUse">
<stop stop-color="#131415"/>
<stop offset="0.14" stop-color="#12181E"/>
<stop offset="0.37" stop-color="#0F2539"/>
<stop offset="0.67" stop-color="#0B3A65"/>
<stop offset="0.98" stop-color="#075499"/>
</linearGradient>
<linearGradient id="paint18_linear_734_53682" x1="190.375" y1="48.0102" x2="211.862" y2="61.2173" gradientUnits="userSpaceOnUse">
<stop stop-color="#131415"/>
<stop offset="0.14" stop-color="#12181E"/>
<stop offset="0.37" stop-color="#0F2539"/>
<stop offset="0.67" stop-color="#0B3A65"/>
<stop offset="0.98" stop-color="#075499"/>
</linearGradient>
<linearGradient id="paint19_linear_734_53682" x1="190.537" y1="47.5763" x2="212.024" y2="60.7834" gradientUnits="userSpaceOnUse">
<stop stop-color="#131415"/>
<stop offset="0.14" stop-color="#12181E"/>
<stop offset="0.37" stop-color="#0F2539"/>
<stop offset="0.67" stop-color="#0B3A65"/>
<stop offset="0.98" stop-color="#075499"/>
</linearGradient>
<linearGradient id="paint20_linear_734_53682" x1="190.713" y1="47.5617" x2="212.201" y2="60.7688" gradientUnits="userSpaceOnUse">
<stop stop-color="#131415"/>
<stop offset="0.14" stop-color="#12181E"/>
<stop offset="0.37" stop-color="#0F2539"/>
<stop offset="0.67" stop-color="#0B3A65"/>
<stop offset="0.98" stop-color="#075499"/>
</linearGradient>
<linearGradient id="paint21_linear_734_53682" x1="190.888" y1="47.9527" x2="212.376" y2="61.1598" gradientUnits="userSpaceOnUse">
<stop stop-color="#131415"/>
<stop offset="0.14" stop-color="#12181E"/>
<stop offset="0.37" stop-color="#0F2539"/>
<stop offset="0.67" stop-color="#0B3A65"/>
<stop offset="0.98" stop-color="#075499"/>
</linearGradient>
<linearGradient id="paint22_linear_734_53682" x1="191.062" y1="47.9322" x2="212.549" y2="61.1435" gradientUnits="userSpaceOnUse">
<stop stop-color="#131415"/>
<stop offset="0.14" stop-color="#12181E"/>
<stop offset="0.37" stop-color="#0F2539"/>
<stop offset="0.67" stop-color="#0B3A65"/>
<stop offset="0.98" stop-color="#075499"/>
</linearGradient>
<linearGradient id="paint23_linear_734_53682" x1="191.231" y1="47.9124" x2="212.718" y2="61.1235" gradientUnits="userSpaceOnUse">
<stop stop-color="#131415"/>
<stop offset="0.14" stop-color="#12181E"/>
<stop offset="0.37" stop-color="#0F2539"/>
<stop offset="0.67" stop-color="#0B3A65"/>
<stop offset="0.98" stop-color="#075499"/>
</linearGradient>
<linearGradient id="paint24_linear_734_53682" x1="191.405" y1="47.8926" x2="212.896" y2="61.1043" gradientUnits="userSpaceOnUse">
<stop stop-color="#131415"/>
<stop offset="0.14" stop-color="#12181E"/>
<stop offset="0.37" stop-color="#0F2539"/>
<stop offset="0.67" stop-color="#0B3A65"/>
<stop offset="0.98" stop-color="#075499"/>
</linearGradient>
<linearGradient id="paint25_linear_734_53682" x1="191.573" y1="47.8747" x2="213.06" y2="61.0856" gradientUnits="userSpaceOnUse">
<stop stop-color="#131415"/>
<stop offset="0.14" stop-color="#12181E"/>
<stop offset="0.37" stop-color="#0F2539"/>
<stop offset="0.67" stop-color="#0B3A65"/>
<stop offset="0.98" stop-color="#075499"/>
</linearGradient>
<linearGradient id="paint26_linear_734_53682" x1="191.749" y1="47.8529" x2="213.236" y2="61.0642" gradientUnits="userSpaceOnUse">
<stop stop-color="#131415"/>
<stop offset="0.14" stop-color="#12181E"/>
<stop offset="0.37" stop-color="#0F2539"/>
<stop offset="0.67" stop-color="#0B3A65"/>
<stop offset="0.98" stop-color="#075499"/>
</linearGradient>
<linearGradient id="paint27_linear_734_53682" x1="191.914" y1="47.8344" x2="213.402" y2="61.0456" gradientUnits="userSpaceOnUse">
<stop stop-color="#131415"/>
<stop offset="0.14" stop-color="#12181E"/>
<stop offset="0.37" stop-color="#0F2539"/>
<stop offset="0.67" stop-color="#0B3A65"/>
<stop offset="0.98" stop-color="#075499"/>
</linearGradient>
<linearGradient id="paint28_linear_734_53682" x1="192.091" y1="47.8181" x2="213.575" y2="61.0203" gradientUnits="userSpaceOnUse">
<stop stop-color="#131415"/>
<stop offset="0.14" stop-color="#12181E"/>
<stop offset="0.37" stop-color="#0F2539"/>
<stop offset="0.67" stop-color="#0B3A65"/>
<stop offset="0.98" stop-color="#075499"/>
</linearGradient>
<linearGradient id="paint29_linear_734_53682" x1="192.261" y1="47.7947" x2="213.752" y2="61.0064" gradientUnits="userSpaceOnUse">
<stop stop-color="#131415"/>
<stop offset="0.14" stop-color="#12181E"/>
<stop offset="0.37" stop-color="#0F2539"/>
<stop offset="0.67" stop-color="#0B3A65"/>
<stop offset="0.98" stop-color="#075499"/>
</linearGradient>
<linearGradient id="paint30_linear_734_53682" x1="192.435" y1="47.7796" x2="213.922" y2="60.9867" gradientUnits="userSpaceOnUse">
<stop stop-color="#131415"/>
<stop offset="0.14" stop-color="#12181E"/>
<stop offset="0.37" stop-color="#0F2539"/>
<stop offset="0.67" stop-color="#0B3A65"/>
<stop offset="0.98" stop-color="#075499"/>
</linearGradient>
<linearGradient id="paint31_linear_734_53682" x1="192.598" y1="47.3513" x2="214.085" y2="60.5583" gradientUnits="userSpaceOnUse">
<stop stop-color="#131415"/>
<stop offset="0.14" stop-color="#12181E"/>
<stop offset="0.37" stop-color="#0F2539"/>
<stop offset="0.67" stop-color="#0B3A65"/>
<stop offset="0.98" stop-color="#075499"/>
</linearGradient>
<linearGradient id="paint32_linear_734_53682" x1="192.763" y1="47.3374" x2="214.25" y2="60.5445" gradientUnits="userSpaceOnUse">
<stop stop-color="#131415"/>
<stop offset="0.14" stop-color="#12181E"/>
<stop offset="0.37" stop-color="#0F2539"/>
<stop offset="0.67" stop-color="#0B3A65"/>
<stop offset="0.98" stop-color="#075499"/>
</linearGradient>
<linearGradient id="paint33_linear_734_53682" x1="192.942" y1="47.7215" x2="214.429" y2="60.9282" gradientUnits="userSpaceOnUse">
<stop stop-color="#131415"/>
<stop offset="0.14" stop-color="#12181E"/>
<stop offset="0.37" stop-color="#0F2539"/>
<stop offset="0.67" stop-color="#0B3A65"/>
<stop offset="0.98" stop-color="#075499"/>
</linearGradient>
<linearGradient id="paint34_linear_734_53682" x1="193.113" y1="47.7016" x2="214.604" y2="60.9091" gradientUnits="userSpaceOnUse">
<stop stop-color="#131415"/>
<stop offset="0.14" stop-color="#12181E"/>
<stop offset="0.37" stop-color="#0F2539"/>
<stop offset="0.67" stop-color="#0B3A65"/>
<stop offset="0.98" stop-color="#075499"/>
</linearGradient>
<linearGradient id="paint35_linear_734_53682" x1="193.285" y1="47.6838" x2="214.772" y2="60.8905" gradientUnits="userSpaceOnUse">
<stop stop-color="#131415"/>
<stop offset="0.14" stop-color="#12181E"/>
<stop offset="0.37" stop-color="#0F2539"/>
<stop offset="0.67" stop-color="#0B3A65"/>
<stop offset="0.98" stop-color="#075499"/>
</linearGradient>
<linearGradient id="paint36_linear_734_53682" x1="193.455" y1="47.6639" x2="214.942" y2="60.8707" gradientUnits="userSpaceOnUse">
<stop stop-color="#131415"/>
<stop offset="0.14" stop-color="#12181E"/>
<stop offset="0.37" stop-color="#0F2539"/>
<stop offset="0.67" stop-color="#0B3A65"/>
<stop offset="0.98" stop-color="#075499"/>
</linearGradient>
<linearGradient id="paint37_linear_734_53682" x1="193.629" y1="47.6434" x2="215.116" y2="60.8502" gradientUnits="userSpaceOnUse">
<stop stop-color="#131415"/>
<stop offset="0.14" stop-color="#12181E"/>
<stop offset="0.37" stop-color="#0F2539"/>
<stop offset="0.67" stop-color="#0B3A65"/>
<stop offset="0.98" stop-color="#075499"/>
</linearGradient>
<linearGradient id="paint38_linear_734_53682" x1="193.799" y1="47.6256" x2="215.286" y2="60.8323" gradientUnits="userSpaceOnUse">
<stop stop-color="#131415"/>
<stop offset="0.14" stop-color="#12181E"/>
<stop offset="0.37" stop-color="#0F2539"/>
<stop offset="0.67" stop-color="#0B3A65"/>
<stop offset="0.98" stop-color="#075499"/>
</linearGradient>
<linearGradient id="paint39_linear_734_53682" x1="193.972" y1="47.6057" x2="215.459" y2="60.8125" gradientUnits="userSpaceOnUse">
<stop stop-color="#131415"/>
<stop offset="0.14" stop-color="#12181E"/>
<stop offset="0.37" stop-color="#0F2539"/>
<stop offset="0.67" stop-color="#0B3A65"/>
<stop offset="0.98" stop-color="#075499"/>
</linearGradient>
<linearGradient id="paint40_linear_734_53682" x1="194.142" y1="47.5859" x2="215.629" y2="60.7926" gradientUnits="userSpaceOnUse">
<stop stop-color="#131415"/>
<stop offset="0.14" stop-color="#12181E"/>
<stop offset="0.37" stop-color="#0F2539"/>
<stop offset="0.67" stop-color="#0B3A65"/>
<stop offset="0.98" stop-color="#075499"/>
</linearGradient>
<linearGradient id="paint41_linear_734_53682" x1="194.318" y1="47.568" x2="215.805" y2="60.7793" gradientUnits="userSpaceOnUse">
<stop stop-color="#131415"/>
<stop offset="0.14" stop-color="#12181E"/>
<stop offset="0.37" stop-color="#0F2539"/>
<stop offset="0.67" stop-color="#0B3A65"/>
<stop offset="0.98" stop-color="#075499"/>
</linearGradient>
<linearGradient id="paint42_linear_734_53682" x1="194.488" y1="47.5475" x2="215.975" y2="60.7588" gradientUnits="userSpaceOnUse">
<stop stop-color="#131415"/>
<stop offset="0.14" stop-color="#12181E"/>
<stop offset="0.37" stop-color="#0F2539"/>
<stop offset="0.67" stop-color="#0B3A65"/>
<stop offset="0.98" stop-color="#075499"/>
</linearGradient>
<linearGradient id="paint43_linear_734_53682" x1="194.666" y1="47.5284" x2="216.149" y2="60.7392" gradientUnits="userSpaceOnUse">
<stop stop-color="#131415"/>
<stop offset="0.14" stop-color="#12181E"/>
<stop offset="0.37" stop-color="#0F2539"/>
<stop offset="0.67" stop-color="#0B3A65"/>
<stop offset="0.98" stop-color="#075499"/>
</linearGradient>
<linearGradient id="paint44_linear_734_53682" x1="6.25843" y1="12.0375" x2="55.041" y2="37.902" gradientUnits="userSpaceOnUse">
<stop stop-color="#405370"/>
<stop offset="0.99" stop-color="#E4DECA"/>
</linearGradient>
<linearGradient id="paint45_linear_734_53682" x1="14.5246" y1="25.6432" x2="94.9411" y2="25.6432" gradientUnits="userSpaceOnUse">
<stop stop-color="#405370"/>
<stop offset="0.99" stop-color="#E4DECA"/>
</linearGradient>
<linearGradient id="paint46_linear_734_53682" x1="57.44" y1="37.6291" x2="58.6731" y2="30.4789" gradientUnits="userSpaceOnUse">
<stop stop-color="#09529B"/>
<stop offset="1" stop-color="#00A2AF"/>
</linearGradient>
<linearGradient id="paint47_linear_734_53682" x1="56.5428" y1="38.1636" x2="58.6002" y2="21.255" gradientUnits="userSpaceOnUse">
<stop stop-color="#364156"/>
<stop offset="0.11" stop-color="#3F4754"/>
<stop offset="0.28" stop-color="#5A5751"/>
<stop offset="0.51" stop-color="#86724B"/>
<stop offset="0.78" stop-color="#C19743"/>
<stop offset="0.97" stop-color="#F0B43E"/>
</linearGradient>
<linearGradient id="paint48_linear_734_53682" x1="59.2361" y1="33.592" x2="51.6098" y2="29.185" gradientUnits="userSpaceOnUse">
<stop stop-color="#131415"/>
<stop offset="0.09" stop-color="#1C1B16"/>
<stop offset="0.25" stop-color="#372E1B"/>
<stop offset="0.45" stop-color="#634E23"/>
<stop offset="0.69" stop-color="#9F792F"/>
<stop offset="0.96" stop-color="#EBB03D"/>
<stop offset="0.97" stop-color="#F0B43E"/>
</linearGradient>
</defs>
</svg>
