<svg width="24" height="24" viewBox="0 0 24 24" fill="none" xmlns="http://www.w3.org/2000/svg">
<circle cx="12" cy="12" r="11" stroke="#CC1100" stroke-width="2"/>
<g clip-path="url(#clip0_712_55062)">
<path d="M15.8652 17C15.5745 17 15.2851 16.8894 15.0624 16.6681L7.33191 8.93759C6.88936 8.49362 6.88936 7.77589 7.33191 7.33191C7.77589 6.88936 8.49362 6.88936 8.93759 7.33191L16.6681 15.0624C17.1106 15.505 17.1106 16.2241 16.6681 16.6667C16.4468 16.8879 16.156 16.9986 15.8652 16.9986V17Z" fill="#CC1100"/>
<path d="M8.13475 17C7.84397 17 7.55461 16.8894 7.33191 16.6681C6.88936 16.2255 6.88936 15.5064 7.33191 15.0638L15.0624 7.33191C15.505 6.88936 16.2241 6.88936 16.6667 7.33191C17.1092 7.77447 17.1092 8.49362 16.6667 8.93617L8.93759 16.6681C8.71631 16.8894 8.42553 17 8.13475 17Z" fill="#CC1100"/>
</g>
<defs>
<clipPath id="clip0_712_55062">
<rect width="10" height="10" fill="white" transform="translate(7 7)"/>
</clipPath>
</defs>
</svg>
