<svg width="35" height="35" viewBox="0 0 35 35" fill="none" xmlns="http://www.w3.org/2000/svg">
<g id="Layer_2" clip-path="url(#clip0_721_57966)">
<path id="Vector" d="M11.2283 10.1915H4.80651C3.84564 10.1915 3.06738 9.41324 3.06738 8.45237V2.03063C3.06738 1.06976 3.84564 0.291504 4.80651 0.291504C5.76738 0.291504 6.54564 1.06976 6.54564 2.03063V6.71324H11.2283C12.1891 6.71324 12.9674 7.4915 12.9674 8.45237C12.9674 9.41324 12.1891 10.1915 11.2283 10.1915Z" fill="#6CB387"/>
<path id="Vector_2" d="M17.5 35C7.85 35 0 27.15 0 17.5C0 16.5391 0.778261 15.7609 1.73913 15.7609C2.7 15.7609 3.47826 16.5391 3.47826 17.5C3.47826 25.2326 9.76739 31.5217 17.5 31.5217C25.2326 31.5217 31.5217 25.2326 31.5217 17.5C31.5217 9.76739 25.2326 3.47826 17.5 3.47826C13.4391 3.47826 9.58043 5.23696 6.91304 8.30652C6.28261 9.03043 5.18478 9.1087 4.4587 8.47826C3.73478 7.84783 3.65652 6.75 4.28696 6.02391C7.61522 2.19565 12.4326 0 17.5 0C27.15 0 35 7.85 35 17.5C35 27.15 27.15 35 17.5 35Z" fill="#6CB387"/>
<g id="Group">
<path id="Vector_3" d="M19.3655 27.0465C19.0559 27.0465 18.7481 26.9234 18.5212 26.6792L12.7897 20.5169C12.355 20.0495 12.382 19.3206 12.8493 18.8859C13.3167 18.4512 14.0456 18.4781 14.4803 18.9455L20.2118 25.1078C20.6465 25.5752 20.6195 26.3041 20.1522 26.7388C19.9291 26.9446 19.6483 27.0485 19.3675 27.0485L19.3655 27.0465Z" fill="#6CB387"/>
<path id="Vector_4" d="M15.6262 21.025C14.9646 21.025 14.2356 20.9615 13.4355 20.8365C12.8066 20.7384 12.3758 20.146 12.4739 19.5171C12.572 18.8882 13.1644 18.4574 13.7933 18.5554C15.6974 18.8555 17.0822 18.7305 17.6957 18.2073C18.1207 17.8438 18.2092 17.2399 18.2092 16.4456C18.2092 15.8589 18.04 15.4358 17.6745 15.1127C16.6744 14.226 14.5184 14.2645 13.7721 14.3549C13.1374 14.4318 12.5643 13.9818 12.4873 13.349C12.4104 12.7182 12.8566 12.1431 13.4894 12.0642C13.8683 12.0162 17.2437 11.6526 19.1997 13.3798C20.0614 14.1414 20.5172 15.2012 20.5172 16.4456C20.5172 17.1591 20.5172 18.8324 19.1959 19.9614C18.365 20.673 17.186 21.025 15.6262 21.025Z" fill="#6CB387"/>
<path id="Vector_5" d="M21.507 14.3666H13.154C12.5174 14.3666 12 13.8492 12 13.2126C12 12.576 12.5174 12.0586 13.154 12.0586H21.507C22.1436 12.0586 22.661 12.576 22.661 13.2126C22.661 13.8492 22.1436 14.3666 21.507 14.3666Z" fill="#6CB387"/>
<path id="Vector_6" d="M21.507 17.8934H13.154C12.5174 17.8934 12 17.3761 12 16.7394C12 16.1028 12.5174 15.5854 13.154 15.5854H21.507C22.1436 15.5854 22.661 16.1028 22.661 16.7394C22.661 17.3761 22.1436 17.8934 21.507 17.8934Z" fill="#6CB387"/>
</g>
</g>
<defs>
<clipPath id="clip0_721_57966">
<rect width="35" height="35" fill="white"/>
</clipPath>
</defs>
</svg>
