<svg width="43" height="43" viewBox="0 0 43 43" fill="none" xmlns="http://www.w3.org/2000/svg">
<circle cx="21.5" cy="21.5" r="21" fill="#D8CB55" stroke="#F9FBFD"/>
<g clip-path="url(#clip0_364_25850)">
<path d="M20.6059 30.9992C20.2709 30.9992 20 30.7385 20 30.4163C20 30.094 20.2709 29.8334 20.6059 29.8334C25.6692 29.8334 29.7883 25.8705 29.7883 20.9992C29.7883 16.1278 25.6683 12.1658 20.6059 12.1658C20.2709 12.1658 20 11.9052 20 11.5829C20 11.2606 20.2709 11 20.6059 11C26.3374 11 31 15.4858 31 21C31 26.5142 26.3374 31 20.6059 31V30.9992Z" fill="white"/>
<path d="M21.368 31H21.2723C20.9229 30.9967 20.643 30.7335 20.6458 30.4113C20.6485 30.089 20.9338 29.8308 21.2832 29.8333H21.368C21.7174 29.8333 22 30.0948 22 30.4162C22 30.7377 21.7174 30.9992 21.368 30.9992V31ZM15.3723 29.2063C15.2432 29.2063 15.1132 29.1696 15.0013 29.0947L14.9245 29.0431C14.6437 28.8515 14.5842 28.4868 14.7918 28.2278C14.9995 27.9688 15.3949 27.9139 15.6757 28.1054L15.7452 28.152C16.0278 28.3411 16.0901 28.7058 15.8842 28.9664C15.7605 29.123 15.5682 29.2063 15.3723 29.2063ZM11.6599 24.5063C11.3936 24.5063 11.1462 24.3505 11.0595 24.1041L11.0297 24.0199C10.9241 23.7127 11.1092 23.3854 11.4414 23.288C11.7745 23.1905 12.1294 23.3612 12.235 23.6677L12.2612 23.7418C12.3695 24.0474 12.1889 24.3772 11.8567 24.4771C11.7917 24.4971 11.7249 24.5063 11.6599 24.5063ZM11.6491 18.6912C11.585 18.6912 11.5199 18.6821 11.4549 18.6629C11.1227 18.5646 10.9403 18.2357 11.0469 17.9293L11.0767 17.8443C11.1868 17.5387 11.5443 17.373 11.8757 17.4746C12.207 17.5762 12.3867 17.9059 12.2765 18.2116L12.2503 18.2857C12.1637 18.533 11.9163 18.6904 11.6491 18.6904V18.6912ZM15.3443 13.9787C15.1493 13.9787 14.9579 13.8963 14.8333 13.7397C14.6275 13.4799 14.6889 13.1152 14.9706 12.9253L15.0482 12.8737C15.3317 12.6855 15.7262 12.7454 15.9303 13.0069C16.1343 13.2684 16.0693 13.6323 15.7858 13.8205L15.7172 13.8663C15.6044 13.9421 15.4743 13.9787 15.3443 13.9787ZM21.331 12.1658C20.9834 12.1658 20.6999 11.906 20.699 11.5854C20.6981 11.2631 20.9798 11.0017 21.3283 11H21.3671C21.7165 11 21.9991 11.2606 21.9991 11.5829C21.9991 11.9052 21.7165 12.1658 21.3671 12.1658H21.3328C21.3328 12.1658 21.331 12.1658 21.3301 12.1658H21.331Z" fill="white"/>
<path d="M23.3599 19.4177H18.6493C18.327 19.4177 18.0664 19.1571 18.0664 18.8348C18.0664 18.5126 18.327 18.252 18.6493 18.252H23.3599C23.6822 18.252 23.9428 18.5126 23.9428 18.8348C23.9428 19.1571 23.6822 19.4177 23.3599 19.4177Z" fill="white"/>
<path d="M23.3599 17.7576H18.6493C18.327 17.7576 18.0664 17.497 18.0664 17.1747C18.0664 16.8524 18.327 16.5918 18.6493 16.5918H23.3599C23.6822 16.5918 23.9428 16.8524 23.9428 17.1747C23.9428 17.497 23.6822 17.7576 23.3599 17.7576Z" fill="white"/>
<path d="M22.5164 25.4058C22.3674 25.4058 22.2183 25.3492 22.1042 25.2351L18.3387 21.4696C18.1689 21.2997 18.1206 21.0441 18.2172 20.8242C18.3129 20.6044 18.5353 20.4662 18.7734 20.4753C20.1807 20.5294 20.8102 20.2205 21.0892 19.9515C21.2957 19.7534 21.3956 19.4969 21.3956 19.1671C21.3956 18.3952 20.5604 17.7674 19.5345 17.7674C19.2123 17.7674 18.9516 17.5067 18.9516 17.1845C18.9516 16.8622 19.2123 16.6016 19.5345 16.6016C21.2033 16.6016 22.5614 17.7524 22.5614 19.1671C22.5614 19.8117 22.3316 20.3737 21.8977 20.7917C21.4756 21.1981 20.8718 21.4604 20.0949 21.577L22.9295 24.4107C23.1568 24.638 23.1568 25.0077 22.9295 25.2351C22.8154 25.3492 22.6663 25.4058 22.5173 25.4058H22.5164Z" fill="white"/>
</g>
<defs>
<clipPath id="clip0_364_25850">
<rect width="20" height="20" fill="white" transform="translate(11 11)"/>
</clipPath>
</defs>
</svg>
