<svg width="18" height="18" viewBox="0 0 18 18" fill="none" xmlns="http://www.w3.org/2000/svg">
<g clip-path="url(#clip0_1548_1744)">
<path d="M9 18C4.03714 18 0 13.9629 0 9C0 4.03714 4.03714 0 9 0C13.9629 0 18 4.03714 18 9C18 13.9629 13.9629 18 9 18ZM9 1.44C4.8312 1.44 1.44 4.8312 1.44 9C1.44 13.1688 4.8312 16.56 9 16.56C13.1688 16.56 16.56 13.1688 16.56 9C16.56 4.8312 13.1688 1.44 9 1.44Z" fill="#3398D5"/>
<path d="M8.99993 14.5357C8.48873 14.5357 8.07422 14.1212 8.07422 13.61V9.63665C8.07422 9.12545 8.48873 8.71094 8.99993 8.71094C9.51113 8.71094 9.92565 9.12545 9.92565 9.63665V13.61C9.92565 14.1212 9.51113 14.5357 8.99993 14.5357Z" fill="#3398D5"/>
<path d="M10.1181 5.50827C10.1181 4.88993 9.61684 4.38867 8.99851 4.38867C8.38017 4.38867 7.87891 4.88993 7.87891 5.50827C7.87891 6.12661 8.38017 6.62787 8.99851 6.62787C9.61684 6.62787 10.1181 6.12661 10.1181 5.50827Z" fill="#3398D5"/>
</g>
<defs>
<clipPath id="clip0_1548_1744">
<rect width="18" height="18" fill="white"/>
</clipPath>
</defs>
</svg>
