<svg width="24" height="24" viewBox="0 0 24 24" fill="none" xmlns="http://www.w3.org/2000/svg">
<ellipse cx="12" cy="12" rx="12" ry="12" fill="#EDF7FF"/>
<g clip-path="url(#clip0_2885_62871)">
<path d="M8.32845 14.4084C8.03233 14.4084 7.75531 14.2234 7.65143 13.9273C7.52128 13.5535 7.7183 13.1452 8.09203 13.015L16.1064 10.2198C16.4801 10.0896 16.8884 10.2867 17.0186 10.6604C17.1487 11.0341 16.9517 11.4425 16.578 11.5726L8.56367 14.3679C8.48606 14.3953 8.40606 14.4084 8.32725 14.4084H8.32845Z" fill="#1E54B0"/>
<path d="M8.32711 14.4079C8.22204 14.4079 8.11696 14.3852 8.01666 14.3362L7.28592 13.984C6.9301 13.8121 6.77965 13.3834 6.95278 13.0276C7.12472 12.6718 7.55338 12.5225 7.9092 12.6945L8.63995 13.0467C8.99577 13.2186 9.14622 13.6473 8.97308 14.0031C8.8489 14.2586 8.59338 14.4079 8.32711 14.4079Z" fill="#1E54B0"/>
<path d="M12.9538 12.6499C12.8487 12.6499 12.7436 12.6272 12.6433 12.5782L9.49588 11.0582C9.14006 10.8863 8.98961 10.4576 9.16275 10.1018C9.33469 9.74598 9.76334 9.59673 10.1192 9.76867L13.2666 11.2887C13.6224 11.4606 13.7729 11.8893 13.5998 12.2451C13.4756 12.5006 13.2201 12.6499 12.9538 12.6499Z" fill="#1E54B0"/>
<path d="M9.10106 8.53477H6.1339C5.73867 8.53477 5.41748 8.21357 5.41748 7.81835V4.85118C5.41748 4.45596 5.73867 4.13477 6.1339 4.13477C6.52912 4.13477 6.85032 4.45596 6.85032 4.85118V7.10193H9.10106C9.49629 7.10193 9.81748 7.42312 9.81748 7.81835C9.81748 8.21357 9.49629 8.53477 9.10106 8.53477Z" fill="#1E54B0"/>
<path d="M12 20C7.58925 20 4 16.4107 4 12C4 11.6048 4.32119 11.2836 4.71642 11.2836C5.11164 11.2836 5.43284 11.6048 5.43284 12C5.43284 15.6215 8.37851 18.5672 12 18.5672C15.6215 18.5672 18.5672 15.6215 18.5672 12C18.5672 8.37851 15.6215 5.43284 12 5.43284C10.0979 5.43284 8.29015 6.25672 7.04119 7.69433C6.78209 7.99284 6.32955 8.02507 6.03104 7.76478C5.73254 7.50567 5.7003 7.05313 5.9606 6.75463C7.48179 5.00418 9.68239 4 12 4C16.4107 4 20 7.58925 20 12C20 16.4107 16.4107 20 12 20Z" fill="#1E54B0"/>
</g>
<defs>
<clipPath id="clip0_2885_62871">
<rect width="16" height="16" fill="white" transform="translate(4 4)"/>
</clipPath>
</defs>
</svg>
