<svg width="14" height="14" viewBox="0 0 14 14" fill="none" xmlns="http://www.w3.org/2000/svg">
<g clip-path="url(#clip0_13724_39774)">
<path d="M4.58118 4.43302H2.10477C1.59507 4.43302 1.18262 4.02057 1.18262 3.51087V1.03446C1.18262 0.52476 1.59507 0.112305 2.10477 0.112305C2.61447 0.112305 3.02693 0.52476 3.02693 1.03446V2.58871H4.58118C5.09088 2.58871 5.50334 3.00117 5.50334 3.51087C5.50334 4.02057 5.09088 4.43302 4.58118 4.43302Z" fill="#3398D5"/>
<path d="M7 14C3.14036 14 0 10.8596 0 7C0 6.4903 0.412455 6.07784 0.922156 6.07784C1.43186 6.07784 1.84431 6.4903 1.84431 7C1.84431 9.84276 4.15725 12.1557 7 12.1557C9.84276 12.1557 12.1557 9.84276 12.1557 7C12.1557 4.15725 9.84276 1.84431 7 1.84431C5.50695 1.84431 4.08767 2.4915 3.10683 3.61904C2.77317 4.00299 2.19054 4.04407 1.80575 3.70958C1.4218 3.37509 1.38072 2.79329 1.71521 2.4085C3.04647 0.878563 4.97293 0 7 0C10.8596 0 14 3.14036 14 7C14 10.8596 10.8596 14 7 14Z" fill="#3398D5"/>
</g>
<defs>
<clipPath id="clip0_13724_39774">
<rect width="14" height="14" fill="white"/>
</clipPath>
</defs>
</svg>
