<svg width="65" height="47" viewBox="0 0 65 47" fill="none" xmlns="http://www.w3.org/2000/svg">
<g clip-path="url(#clip0_710_52333)">
<path d="M26.1187 37.1094C25.6338 37.1094 25.1515 36.9159 24.7955 36.5342L14.4316 25.3913C13.7533 24.6613 13.7945 23.5187 14.5245 22.8403C15.2544 22.1619 16.3971 22.2032 17.0755 22.9332L27.4394 34.076C28.1177 34.806 28.0765 35.9486 27.3465 36.627C26.9983 36.9494 26.5572 37.1094 26.1161 37.1094H26.1187Z" fill="#246D8F"/>
<path d="M19.363 26.2241C18.1843 26.2241 16.8791 26.1106 15.4424 25.8862C14.4571 25.7315 13.7839 24.808 13.9386 23.8227C14.0934 22.8374 15.0168 22.1642 16.0021 22.319C20.5186 23.0283 22.4557 22.3344 23.2837 21.6251C24.1349 20.8977 24.3103 19.7396 24.3103 18.2255C24.3103 17.0777 23.9724 16.2445 23.2501 15.6023C21.3621 13.9283 17.3589 13.9953 15.9738 14.163C14.9833 14.2816 14.0857 13.5801 13.9619 12.5922C13.8406 11.6043 14.5396 10.7041 15.5301 10.5803C16.2007 10.4977 22.19 9.8503 25.6361 12.8914C27.1321 14.212 27.924 16.0563 27.924 18.2229C27.924 19.4765 27.924 22.4092 25.6335 24.367C24.1839 25.6076 22.1152 26.2241 19.363 26.2241Z" fill="#246D8F"/>
<path d="M29.9928 14.1834H14.8881C13.8899 14.1834 13.0825 13.376 13.0825 12.3778C13.0825 11.3796 13.8899 10.5723 14.8881 10.5723H29.9928C30.9911 10.5723 31.7984 11.3796 31.7984 12.3778C31.7984 13.376 30.9911 14.1834 29.9928 14.1834Z" fill="#246D8F"/>
<path d="M29.9103 18.9861H14.8056C13.8073 18.9861 13 18.1788 13 17.1806C13 16.1823 13.8073 15.375 14.8056 15.375H29.9103C30.9085 15.375 31.7159 16.1823 31.7159 17.1806C31.7159 18.1788 30.9085 18.9861 29.9103 18.9861Z" fill="#246D8F"/>
<path d="M60.0992 46.7486H4.90079C2.19762 46.7486 0 44.551 0 41.8478V5.73673C0 3.03356 2.19762 0.835938 4.90079 0.835938H40.3438C41.3421 0.835938 42.1494 1.64328 42.1494 2.64149C42.1494 3.63971 41.3421 4.44705 40.3438 4.44705H4.90079C4.18889 4.44705 3.61111 5.02483 3.61111 5.73673V41.8478C3.61111 42.5597 4.18889 43.1375 4.90079 43.1375H60.0992C60.8111 43.1375 61.3889 42.5597 61.3889 41.8478V25.3399C61.3889 24.3417 62.1962 23.5343 63.1944 23.5343C64.1927 23.5343 65 24.3417 65 25.3399V41.8478C65 44.551 62.8024 46.7486 60.0992 46.7486Z" fill="#246D8F"/>
<path d="M52.9129 24.4802C46.3717 24.4802 41.0479 19.1563 41.0479 12.6151C41.0479 6.07381 46.3691 0.75 52.9129 0.75C59.4568 0.75 64.778 6.07381 64.778 12.6151C64.778 19.1563 59.4542 24.4802 52.9129 24.4802ZM52.9129 4.36111C48.3629 4.36111 44.659 8.06508 44.659 12.6151C44.659 17.1651 48.3629 20.869 52.9129 20.869C57.4629 20.869 61.1669 17.1651 61.1669 12.6151C61.1669 8.06508 57.4629 4.36111 52.9129 4.36111Z" fill="#246D8F"/>
<path d="M57.0918 15.607H52.1213C51.2676 15.607 50.5737 14.9131 50.5737 14.0594V9.79567C50.5737 8.9419 51.2676 8.24805 52.1213 8.24805C52.9751 8.24805 53.669 8.9419 53.669 9.79567V12.5117H57.0918C57.9456 12.5117 58.6394 13.2056 58.6394 14.0594C58.6394 14.9131 57.9456 15.607 57.0918 15.607Z" fill="#246D8F"/>
</g>
<defs>
<clipPath id="clip0_710_52333">
<rect width="65" height="45.9978" fill="white" transform="translate(0 0.75)"/>
</clipPath>
</defs>
</svg>
