<svg width="14" height="15" viewBox="0 0 14 15" fill="none" xmlns="http://www.w3.org/2000/svg">
<g clip-path="url(#clip0_2_33151)">
<path d="M6.99927 14.0181C10.8649 14.0181 13.9985 10.8844 13.9985 7.01881C13.9985 3.15321 10.8649 0.0195312 6.99927 0.0195312C3.13368 0.0195312 0 3.15321 0 7.01881C0 10.8844 3.13368 14.0181 6.99927 14.0181Z" fill="url(#paint0_linear_2_33151)"/>
<path d="M4.28444 5.68611C4.6508 5.68611 4.94779 5.19936 4.94779 4.59891C4.94779 3.99847 4.6508 3.51172 4.28444 3.51172C3.91809 3.51172 3.62109 3.99847 3.62109 4.59891C3.62109 5.19936 3.91809 5.68611 4.28444 5.68611Z" fill="black"/>
<path d="M9.53444 5.68611C9.9008 5.68611 10.1978 5.19936 10.1978 4.59891C10.1978 3.99847 9.9008 3.51172 9.53444 3.51172C9.16809 3.51172 8.87109 3.99847 8.87109 4.59891C8.87109 5.19936 9.16809 5.68611 9.53444 5.68611Z" fill="black"/>
<path d="M8.72587 9.3277C8.6598 9.32759 8.59574 9.30495 8.54428 9.26351C8.49282 9.22208 8.45702 9.16433 8.44282 9.0998C8.35528 8.78404 8.16348 8.50719 7.89862 8.31428C7.63376 8.12136 7.31142 8.02374 6.98403 8.03729C5.78507 8.03729 5.56734 9.05336 5.55863 9.094C5.55191 9.13213 5.53762 9.16853 5.51662 9.20106C5.49562 9.23359 5.46833 9.26159 5.43634 9.28341C5.40436 9.30523 5.36833 9.32043 5.33038 9.32812C5.29244 9.33581 5.25334 9.33583 5.21538 9.32818C5.17742 9.32053 5.14138 9.30537 5.10938 9.28358C5.07737 9.26179 5.05004 9.23382 5.029 9.20132C5.00797 9.16881 4.99365 9.13242 4.98689 9.0943C4.98012 9.05618 4.98105 9.01709 4.98962 8.97933C5.09246 8.53285 5.34805 8.13633 5.71222 7.85831C6.07638 7.58028 6.52624 7.43822 6.98403 7.45667C7.44509 7.43927 7.8982 7.5803 8.26793 7.85628C8.63767 8.13227 8.90174 8.52656 9.01618 8.97352C9.03308 9.04859 9.01948 9.12729 8.97838 9.19234C8.93728 9.25739 8.87204 9.30347 8.79699 9.32044C8.77362 9.32542 8.74977 9.32785 8.72587 9.3277Z" fill="#5B0600"/>
</g>
<defs>
<linearGradient id="paint0_linear_2_33151" x1="0.936236" y1="10.5199" x2="13.0623" y2="3.51917" gradientUnits="userSpaceOnUse">
<stop stop-color="#EBB34D"/>
<stop offset="0.03" stop-color="#ECB64D"/>
<stop offset="0.18" stop-color="#EEC04F"/>
<stop offset="0.55" stop-color="#F1CC51"/>
<stop offset="1" stop-color="#F3D652"/>
</linearGradient>
<clipPath id="clip0_2_33151">
<rect width="14" height="14" fill="white" transform="translate(0 0.0195312)"/>
</clipPath>
</defs>
</svg>
