<svg width="20" height="20" viewBox="0 0 20 20" fill="none" xmlns="http://www.w3.org/2000/svg">
<path d="M19.5776 18.0137L14.166 12.6021C13.8683 12.3044 13.8009 11.8369 14.0195 11.4765C14.7892 10.2137 15.1985 8.70672 15.1055 7.10206C14.8823 3.32997 11.8264 0.257878 8.05435 0.016018C3.39156 -0.283982 -0.450298 3.67183 0.0427247 8.36951C0.410167 11.8718 3.21947 14.6881 6.71947 15.0695C8.42877 15.2556 10.0381 14.8649 11.3846 14.0718C11.7427 13.8602 12.2032 13.93 12.4985 14.2253L17.9334 19.6602C18.1613 19.8881 18.459 19.9997 18.7567 19.9997C19.0544 19.9997 19.352 19.8858 19.5799 19.6602C20.0334 19.2067 20.0334 18.4695 19.5799 18.016L19.5776 18.0137ZM2.35435 8.09509C2.02412 4.79044 4.78924 2.02299 8.09621 2.35323C10.5427 2.59741 12.5218 4.57648 12.766 7.02299C13.0962 10.3276 10.3311 13.0951 7.02412 12.7649C4.57761 12.5207 2.59854 10.5416 2.35435 8.09509Z" fill="#3398D5"/>
</svg>
