<svg width="20" height="20" viewBox="0 0 20 20" fill="none" xmlns="http://www.w3.org/2000/svg">
<rect width="20" height="20" fill="#F5F5F5"/>
<g clip-path="url(#clip0_0_1)">
<rect width="1440" height="6539" transform="translate(-203 -512)" fill="white"/>
<g opacity="0.55">
<path d="M64.695 -356.548C116.453 -244.262 246.023 44.6421 150.62 102.911C55.2171 161.18 -189.526 60.0108 -241.284 -52.2755C-293.042 -164.562 -257.66 -302.824 -162.257 -361.093C-66.8541 -419.362 12.9372 -468.835 64.695 -356.548Z" fill="#007631"/>
<path d="M376.758 11.7956C288.062 37.2958 60.7653 100.475 45.7154 31.113C30.6655 -38.2487 160.775 -195.058 249.472 -220.558C338.168 -246.059 422.271 -210.502 437.321 -141.14C452.37 -71.7781 465.455 -13.7046 376.758 11.7956Z" fill="#9E0505"/>
<g filter="url(#filter0_b_0_1)">
<rect x="-203" y="-512" width="1440" height="647" fill="white" fill-opacity="0.69"/>
</g>
</g>
<g filter="url(#filter1_d_0_1)">
<path d="M-38 -107H1056C1064.84 -107 1072 -99.8366 1072 -91V30C1072 38.8366 1064.84 46 1056 46H-22C-30.8365 46 -38 38.8366 -38 30V-107Z" fill="white"/>
<rect x="-25.5" y="-3.5" width="115" height="31" rx="15.5" fill="white"/>
<path d="M-6.08828 17L-7.31875 13.8281H-11.3246L-12.5482 17H-13.724L-9.81387 6.96484H-8.76797L-4.88515 17H-6.08828ZM-7.66738 12.7959L-8.83633 9.64453C-8.86367 9.5625 -8.90924 9.42806 -8.97305 9.24121C-9.03229 9.05436 -9.09381 8.86068 -9.15762 8.66016C-9.22142 8.45964 -9.27383 8.29785 -9.31484 8.1748C-9.36042 8.36165 -9.41055 8.5485 -9.46523 8.73535C-9.51536 8.91764 -9.56549 9.08854 -9.61562 9.24805C-9.66575 9.40299 -9.70905 9.53516 -9.74551 9.64453L-10.935 12.7959H-7.66738ZM-0.164061 9.37109C-0.01367 9.37109 0.143557 9.38021 0.307619 9.39844C0.471682 9.41211 0.617515 9.43262 0.745119 9.45996L0.601564 10.5127C0.478518 10.4808 0.341799 10.4557 0.191408 10.4375C0.0410175 10.4193 -0.100259 10.4102 -0.23242 10.4102C-0.533201 10.4102 -0.818032 10.4717 -1.08691 10.5947C-1.35124 10.7132 -1.58366 10.8864 -1.78418 11.1143C-1.9847 11.3376 -2.14193 11.6087 -2.25586 11.9277C-2.36979 12.2422 -2.42676 12.5931 -2.42676 12.9805V17H-3.56836V9.50781H-2.625L-2.50195 10.8887H-2.4541C-2.29915 10.6107 -2.1123 10.3577 -1.89355 10.1299C-1.6748 9.89746 -1.42187 9.71289 -1.13476 9.57617C-0.843097 9.43945 -0.519529 9.37109 -0.164061 9.37109ZM10.3949 9.37109C11.2198 9.37109 11.8419 9.58757 12.2611 10.0205C12.6804 10.4489 12.89 11.1393 12.89 12.0918V17H11.7689V12.1465C11.7689 11.5404 11.6368 11.0869 11.3725 10.7861C11.1127 10.4808 10.7253 10.3281 10.2104 10.3281C9.48574 10.3281 8.95938 10.5378 8.63125 10.957C8.30313 11.3763 8.13906 11.9938 8.13906 12.8096V17H7.01113V12.1465C7.01113 11.7409 6.95189 11.4036 6.8334 11.1348C6.71947 10.8659 6.54629 10.6654 6.31387 10.5332C6.086 10.3965 5.79662 10.3281 5.4457 10.3281C4.94896 10.3281 4.5502 10.4307 4.24942 10.6357C3.94863 10.8408 3.72988 11.1462 3.59317 11.5518C3.461 11.9528 3.39492 12.4473 3.39492 13.0352V17H2.26016V9.50781H3.17617L3.34707 10.5674H3.4086C3.55899 10.3076 3.74811 10.0889 3.97598 9.91113C4.20384 9.7334 4.45905 9.59896 4.7416 9.50781C5.02415 9.41667 5.32494 9.37109 5.64395 9.37109C6.21361 9.37109 6.68985 9.47819 7.07266 9.69238C7.46003 9.90202 7.7403 10.2233 7.91348 10.6562H7.975C8.2211 10.2233 8.55833 9.90202 8.98672 9.69238C9.41511 9.47819 9.88451 9.37109 10.3949 9.37109ZM18.2059 9.37109C18.8439 9.37109 19.3908 9.51237 19.8465 9.79492C20.3022 10.0775 20.6508 10.474 20.8924 10.9844C21.1339 11.4902 21.2547 12.0827 21.2547 12.7617V13.4658H16.0799C16.0936 14.3454 16.3123 15.0153 16.7361 15.4756C17.16 15.9359 17.757 16.166 18.5271 16.166C19.0011 16.166 19.4204 16.1227 19.785 16.0361C20.1495 15.9495 20.5278 15.8219 20.9197 15.6533V16.6514C20.5415 16.82 20.1655 16.943 19.7918 17.0205C19.4227 17.098 18.9852 17.1367 18.4793 17.1367C17.7592 17.1367 17.1303 16.9909 16.5926 16.6992C16.0594 16.403 15.6447 15.9701 15.3484 15.4004C15.0522 14.8307 14.9041 14.1335 14.9041 13.3086C14.9041 12.502 15.0385 11.8047 15.3074 11.2168C15.5809 10.6243 15.9637 10.1686 16.4559 9.84961C16.9526 9.5306 17.5359 9.37109 18.2059 9.37109ZM18.1922 10.3008C17.5861 10.3008 17.103 10.499 16.743 10.8955C16.3829 11.292 16.1688 11.8457 16.1004 12.5566H20.0652C20.0607 12.11 19.99 11.7181 19.8533 11.3809C19.7212 11.0391 19.5184 10.7747 19.2449 10.5879C18.9715 10.3965 18.6206 10.3008 18.1922 10.3008ZM25.9484 17.1367C25.0005 17.1367 24.2486 16.8132 23.6926 16.166C23.1411 15.5189 22.8654 14.5573 22.8654 13.2812C22.8654 11.9915 23.148 11.0186 23.7131 10.3623C24.2782 9.7015 25.0301 9.37109 25.9689 9.37109C26.3654 9.37109 26.7118 9.4235 27.008 9.52832C27.3042 9.63314 27.5594 9.77441 27.7736 9.95215C27.9878 10.1253 28.1678 10.3236 28.3137 10.5469H28.3957C28.3775 10.4056 28.3592 10.2119 28.341 9.96582C28.3228 9.71973 28.3137 9.51921 28.3137 9.36426V6.36328H29.4484V17H28.5324L28.3615 15.9336H28.3137C28.1724 16.1569 27.9924 16.3597 27.7736 16.542C27.5594 16.7243 27.302 16.8701 27.0012 16.9795C26.705 17.0843 26.354 17.1367 25.9484 17.1367ZM26.1262 16.1934C26.9283 16.1934 27.4956 15.9655 27.8283 15.5098C28.161 15.054 28.3273 14.3773 28.3273 13.4795V13.2744C28.3273 12.3219 28.1678 11.5905 27.8488 11.0801C27.5344 10.5697 26.9602 10.3145 26.1262 10.3145C25.4289 10.3145 24.9071 10.5833 24.5607 11.1211C24.2144 11.6543 24.0412 12.3835 24.0412 13.3086C24.0412 14.2292 24.2121 14.9401 24.5539 15.4414C24.9003 15.9427 25.4244 16.1934 26.1262 16.1934ZM37.0244 17H35.8623V7.00586H41.4268V8.03125H37.0244V11.6953H41.1602V12.7139H37.0244V17ZM49.4838 13.2402C49.4838 13.8555 49.404 14.4046 49.2445 14.8877C49.085 15.3708 48.8549 15.7786 48.5541 16.1113C48.2533 16.444 47.8887 16.6992 47.4604 16.877C47.0365 17.0501 46.5557 17.1367 46.018 17.1367C45.5167 17.1367 45.0564 17.0501 44.6371 16.877C44.2224 16.6992 43.8624 16.444 43.557 16.1113C43.2563 15.7786 43.0216 15.3708 42.8529 14.8877C42.6889 14.4046 42.6068 13.8555 42.6068 13.2402C42.6068 12.4199 42.7458 11.7227 43.0238 11.1484C43.3018 10.5697 43.6983 10.1299 44.2133 9.8291C44.7328 9.52376 45.3503 9.37109 46.0658 9.37109C46.7494 9.37109 47.3464 9.52376 47.8568 9.8291C48.3718 10.1344 48.7706 10.5765 49.0531 11.1553C49.3402 11.7295 49.4838 12.4245 49.4838 13.2402ZM43.7826 13.2402C43.7826 13.8418 43.8624 14.3636 44.0219 14.8057C44.1814 15.2477 44.4275 15.5895 44.7602 15.8311C45.0928 16.0726 45.5212 16.1934 46.0453 16.1934C46.5648 16.1934 46.991 16.0726 47.3236 15.8311C47.6609 15.5895 47.9092 15.2477 48.0688 14.8057C48.2283 14.3636 48.308 13.8418 48.308 13.2402C48.308 12.6432 48.2283 12.1283 48.0688 11.6953C47.9092 11.2578 47.6632 10.9206 47.3305 10.6836C46.9978 10.4466 46.5671 10.3281 46.0385 10.3281C45.2592 10.3281 44.6872 10.5856 44.3227 11.1006C43.9626 11.6156 43.7826 12.3288 43.7826 13.2402ZM54.95 9.37109C55.1004 9.37109 55.2576 9.38021 55.4217 9.39844C55.5857 9.41211 55.7316 9.43262 55.8592 9.45996L55.7156 10.5127C55.5926 10.4808 55.4559 10.4557 55.3055 10.4375C55.1551 10.4193 55.0138 10.4102 54.8816 10.4102C54.5809 10.4102 54.296 10.4717 54.0272 10.5947C53.7628 10.7132 53.5304 10.8864 53.3299 11.1143C53.1294 11.3376 52.9721 11.6087 52.8582 11.9277C52.7443 12.2422 52.6873 12.5931 52.6873 12.9805V17H51.5457V9.50781H52.4891L52.6121 10.8887H52.66C52.8149 10.6107 53.0018 10.3577 53.2205 10.1299C53.4393 9.89746 53.6922 9.71289 53.9793 9.57617C54.271 9.43945 54.5945 9.37109 54.95 9.37109ZM60.3752 17.1367C59.7007 17.1367 59.106 16.9977 58.591 16.7197C58.076 16.4417 57.675 16.0179 57.3879 15.4482C57.1008 14.8786 56.9572 14.1608 56.9572 13.2949C56.9572 12.388 57.1076 11.6475 57.4084 11.0732C57.7137 10.4945 58.133 10.0661 58.6662 9.78809C59.1994 9.51009 59.8055 9.37109 60.4846 9.37109C60.8583 9.37109 61.2183 9.40983 61.5647 9.4873C61.9156 9.56022 62.2027 9.65365 62.426 9.76758L62.0842 10.7178C61.8563 10.6266 61.592 10.5446 61.2912 10.4717C60.995 10.3988 60.717 10.3623 60.4572 10.3623C59.9377 10.3623 59.5048 10.474 59.1584 10.6973C58.8166 10.9206 58.5591 11.2487 58.3859 11.6816C58.2173 12.1146 58.133 12.6478 58.133 13.2812C58.133 13.8874 58.215 14.4046 58.3791 14.833C58.5477 15.2614 58.7961 15.5895 59.1242 15.8174C59.4569 16.0407 59.8716 16.1523 60.3684 16.1523C60.7648 16.1523 61.1226 16.1113 61.4416 16.0293C61.7606 15.9427 62.05 15.8424 62.3098 15.7285V16.7402C62.0591 16.8678 61.7788 16.9658 61.4689 17.0342C61.1636 17.1025 60.799 17.1367 60.3752 17.1367ZM67.0719 9.37109C67.7099 9.37109 68.2568 9.51237 68.7125 9.79492C69.1682 10.0775 69.5169 10.474 69.7584 10.9844C69.9999 11.4902 70.1207 12.0827 70.1207 12.7617V13.4658H64.9459C64.9596 14.3454 65.1783 15.0153 65.6021 15.4756C66.026 15.9359 66.623 16.166 67.3932 16.166C67.8671 16.166 68.2864 16.1227 68.651 16.0361C69.0156 15.9495 69.3938 15.8219 69.7857 15.6533V16.6514C69.4075 16.82 69.0315 16.943 68.6578 17.0205C68.2887 17.098 67.8512 17.1367 67.3453 17.1367C66.6253 17.1367 65.9964 16.9909 65.4586 16.6992C64.9254 16.403 64.5107 15.9701 64.2145 15.4004C63.9182 14.8307 63.7701 14.1335 63.7701 13.3086C63.7701 12.502 63.9046 11.8047 64.1734 11.2168C64.4469 10.6243 64.8297 10.1686 65.3219 9.84961C65.8186 9.5306 66.402 9.37109 67.0719 9.37109ZM67.0582 10.3008C66.4521 10.3008 65.969 10.499 65.609 10.8955C65.249 11.292 65.0348 11.8457 64.9664 12.5566H68.9313C68.9267 12.11 68.8561 11.7181 68.7193 11.3809C68.5872 11.0391 68.3844 10.7747 68.1109 10.5879C67.8375 10.3965 67.4866 10.3008 67.0582 10.3008ZM76.9951 14.9492C76.9951 15.4277 76.8743 15.8311 76.6328 16.1592C76.3958 16.4827 76.054 16.7266 75.6074 16.8906C75.1654 17.0547 74.6367 17.1367 74.0215 17.1367C73.4974 17.1367 73.0439 17.0957 72.6611 17.0137C72.2783 16.9316 71.9434 16.8154 71.6562 16.665V15.6191C71.9616 15.7695 72.3262 15.9062 72.75 16.0293C73.1738 16.1523 73.6068 16.2139 74.0488 16.2139C74.696 16.2139 75.1654 16.109 75.457 15.8994C75.7487 15.6898 75.8945 15.4049 75.8945 15.0449C75.8945 14.8398 75.8353 14.6598 75.7168 14.5049C75.6029 14.3454 75.4092 14.1927 75.1357 14.0469C74.8623 13.8965 74.484 13.7324 74.001 13.5547C73.5225 13.3724 73.1077 13.1924 72.7568 13.0146C72.4105 12.8324 72.1416 12.6113 71.9502 12.3516C71.7633 12.0918 71.6699 11.7546 71.6699 11.3398C71.6699 10.7064 71.9251 10.221 72.4355 9.88379C72.9505 9.54199 73.625 9.37109 74.459 9.37109C74.9102 9.37109 75.3317 9.41667 75.7236 9.50781C76.1201 9.5944 76.4893 9.71289 76.8311 9.86328L76.4482 10.7725C76.1383 10.6403 75.8079 10.5286 75.457 10.4375C75.1061 10.3464 74.7484 10.3008 74.3838 10.3008C73.8597 10.3008 73.4564 10.3874 73.1738 10.5605C72.8958 10.7337 72.7568 10.9707 72.7568 11.2715C72.7568 11.5039 72.8206 11.6953 72.9482 11.8457C73.0804 11.9961 73.29 12.1374 73.5771 12.2695C73.8643 12.4017 74.2425 12.5566 74.7119 12.7344C75.1813 12.9076 75.5869 13.0876 75.9287 13.2744C76.2705 13.4567 76.5326 13.68 76.7148 13.9443C76.9017 14.2041 76.9951 14.5391 76.9951 14.9492Z" fill="#298158"/>
<rect x="-25.5" y="-3.5" width="115" height="31" rx="15.5" stroke="#298158"/>
</g>
<g filter="url(#filter2_d_0_1)">
<rect x="-26" y="-24" width="348" height="413" rx="8" fill="white"/>
</g>
<rect x="-15.5" y="-12.5" width="327" height="45" rx="7.5" stroke="#3398D5"/>
<path d="M19.5776 18.0137L14.166 12.6021C13.8683 12.3044 13.8009 11.8369 14.0195 11.4765C14.7892 10.2137 15.1985 8.70672 15.1055 7.10206C14.8823 3.32997 11.8264 0.257878 8.05435 0.016018C3.39156 -0.283982 -0.450298 3.67183 0.0427247 8.36951C0.410167 11.8718 3.21947 14.6881 6.71947 15.0695C8.42877 15.2556 10.0381 14.8649 11.3846 14.0718C11.7427 13.8602 12.2032 13.93 12.4985 14.2253L17.9334 19.6602C18.1613 19.8881 18.459 19.9997 18.7567 19.9997C19.0544 19.9997 19.352 19.8858 19.5799 19.6602C20.0334 19.2067 20.0334 18.4695 19.5799 18.016L19.5776 18.0137ZM2.35435 8.09509C2.02412 4.79044 4.78924 2.02299 8.09621 2.35323C10.5427 2.59741 12.5218 4.57648 12.766 7.02299C13.0962 10.3276 10.3311 13.0951 7.02412 12.7649C4.57761 12.5207 2.59854 10.5416 2.35435 8.09509Z" fill="#3398D5"/>
</g>
<defs>
<filter id="filter0_b_0_1" x="-397" y="-706" width="1828" height="1035" filterUnits="userSpaceOnUse" color-interpolation-filters="sRGB">
<feFlood flood-opacity="0" result="BackgroundImageFix"/>
<feGaussianBlur in="BackgroundImageFix" stdDeviation="97"/>
<feComposite in2="SourceAlpha" operator="in" result="effect1_backgroundBlur_0_1"/>
<feBlend mode="normal" in="SourceGraphic" in2="effect1_backgroundBlur_0_1" result="shape"/>
</filter>
<filter id="filter1_d_0_1" x="-62" y="-150" width="1158" height="256" filterUnits="userSpaceOnUse" color-interpolation-filters="sRGB">
<feFlood flood-opacity="0" result="BackgroundImageFix"/>
<feColorMatrix in="SourceAlpha" type="matrix" values="0 0 0 0 0 0 0 0 0 0 0 0 0 0 0 0 0 0 127 0" result="hardAlpha"/>
<feOffset dy="12"/>
<feGaussianBlur stdDeviation="12"/>
<feComposite in2="hardAlpha" operator="out"/>
<feColorMatrix type="matrix" values="0 0 0 0 0 0 0 0 0 0 0 0 0 0 0 0 0 0 0.11 0"/>
<feBlend mode="normal" in2="BackgroundImageFix" result="effect1_dropShadow_0_1"/>
<feBlend mode="normal" in="SourceGraphic" in2="effect1_dropShadow_0_1" result="shape"/>
</filter>
<filter id="filter2_d_0_1" x="-44" y="-42" width="384" height="449" filterUnits="userSpaceOnUse" color-interpolation-filters="sRGB">
<feFlood flood-opacity="0" result="BackgroundImageFix"/>
<feColorMatrix in="SourceAlpha" type="matrix" values="0 0 0 0 0 0 0 0 0 0 0 0 0 0 0 0 0 0 127 0" result="hardAlpha"/>
<feOffset/>
<feGaussianBlur stdDeviation="9"/>
<feComposite in2="hardAlpha" operator="out"/>
<feColorMatrix type="matrix" values="0 0 0 0 0 0 0 0 0 0 0 0 0 0 0 0 0 0 0.1 0"/>
<feBlend mode="normal" in2="BackgroundImageFix" result="effect1_dropShadow_0_1"/>
<feBlend mode="normal" in="SourceGraphic" in2="effect1_dropShadow_0_1" result="shape"/>
</filter>
<clipPath id="clip0_0_1">
<rect width="1440" height="6539" fill="white" transform="translate(-203 -512)"/>
</clipPath>
</defs>
</svg>
