<svg width="12" height="12" viewBox="0 0 12 12" fill="none" xmlns="http://www.w3.org/2000/svg">
<g clip-path="url(#clip0_2_42880)">
<g clip-path="url(#clip1_2_42880)">
<g clip-path="url(#clip2_2_42880)">
<path d="M5.99957 6.0168C7.59479 6.0168 8.89172 4.73518 8.89172 3.15879C8.89172 1.5824 7.59479 0.300781 5.99957 0.300781C4.40435 0.300781 3.10742 1.5824 3.10742 3.15879C3.10742 4.73518 4.40435 6.0168 5.99957 6.0168ZM5.99957 0.941591C7.23814 0.941591 8.24326 1.93485 8.24326 3.15879C8.24326 4.38274 7.23814 5.37599 5.99957 5.37599C4.76101 5.37599 3.75589 4.37633 3.75589 3.15879C3.75589 1.93485 4.76101 0.941591 5.99957 0.941591Z" fill="#454545"/>
<path d="M11.6995 11.4774C11.2326 8.77316 8.85923 6.47266 5.99951 6.47266C3.13978 6.47266 0.772885 8.77316 0.299506 11.4774C0.280052 11.5927 0.370837 11.7017 0.494045 11.7017H11.505C11.6217 11.7017 11.719 11.5927 11.6995 11.4774ZM10.6749 11.0609H1.32408C1.19439 11.0609 1.09712 10.9327 1.13602 10.8109C1.42135 9.94584 1.93364 9.14483 2.62101 8.50402C3.57425 7.60689 4.77391 7.11347 5.99951 7.11347C7.2251 7.11347 8.42476 7.60689 9.37801 8.50402C10.0654 9.15124 10.5712 9.94584 10.863 10.8109C10.9019 10.9327 10.8111 11.0609 10.6749 11.0609Z" fill="#454545"/>
</g>
</g>
</g>
<defs>
<clipPath id="clip0_2_42880">
<rect width="12" height="12" fill="white"/>
</clipPath>
<clipPath id="clip1_2_42880">
<rect width="12" height="12" fill="white"/>
</clipPath>
<clipPath id="clip2_2_42880">
<rect width="11.4" height="11.4" fill="white" transform="translate(0.298828 0.300781)"/>
</clipPath>
</defs>
</svg>
