<svg width="23" height="26" viewBox="0 0 23 26" fill="none" xmlns="http://www.w3.org/2000/svg">
<path d="M4.10303 2.18633H4.13225L4.16127 2.18293L9.66175 1.53789C10.797 1.40476 11.944 1.40633 13.0789 1.54256L18.4118 2.18277L18.4415 2.18633H18.4714C19.2139 2.18633 19.7604 2.74387 19.7604 3.35988V20.2588H2.8125V3.36035C2.81378 2.74364 3.36094 2.18633 4.10303 2.18633Z" fill="white" fill-opacity="0.5" stroke="#F48D42"/>
<path d="M21.0778 22.3398C21.3539 22.3398 21.5778 22.5637 21.5778 22.8398V23.29C21.5778 24.4236 20.669 25.3341 19.5559 25.3341H3.02187C1.90881 25.3341 1 24.4236 1 23.29V22.8398C1 22.5637 1.22386 22.3398 1.5 22.3398H21.0778Z" fill="white" fill-opacity="0.5" stroke="#F48D42"/>
</svg>
