<svg width="20" height="10" viewBox="0 0 20 10" fill="none" xmlns="http://www.w3.org/2000/svg">
<g clip-path="url(#clip0_712_55123)">
<path d="M2.6703 9.00107C2.17288 9.00107 1.70911 8.69109 1.53609 8.19607C1.31742 7.5689 1.64903 6.88405 2.27381 6.66537L18.4026 1.04C19.0298 0.821329 19.7146 1.15294 19.9333 1.77771C20.152 2.40489 19.8204 3.08974 19.1956 3.30841L3.06439 8.93379C2.93463 8.97944 2.80006 9.00107 2.6679 9.00107H2.6703Z" fill="#858585"/>
<path d="M2.6698 9.00258C2.49439 9.00258 2.31657 8.96413 2.14836 8.88243L0.677733 8.17355C0.0793913 7.88519 -0.170519 7.1667 0.117839 6.56836C0.406197 5.97002 1.12469 5.72011 1.72303 6.00846L3.19365 6.71734C3.79199 7.0057 4.0419 7.72419 3.75355 8.32253C3.54689 8.75267 3.11676 9.00258 2.6698 9.00258Z" fill="#858585"/>
<path d="M11.9807 5.46208C11.8053 5.46208 11.6275 5.42363 11.4593 5.34193L5.125 2.28294C4.52666 1.99458 4.27675 1.27609 4.5651 0.67775C4.85346 0.0794081 5.57195 -0.168099 6.1703 0.120259L12.5045 3.17925C13.1029 3.46761 13.3528 4.1861 13.0644 4.78444C12.8578 5.21458 12.4277 5.46449 11.9807 5.46449V5.46208Z" fill="#858585"/>
</g>
<defs>
<clipPath id="clip0_712_55123">
<rect width="20" height="9.00156" fill="white"/>
</clipPath>
</defs>
</svg>
