<svg width="40" height="41" viewBox="0 0 40 41" fill="none" xmlns="http://www.w3.org/2000/svg">
<path d="M4.69328 30.2042L4.69328 30.175L4.68988 30.146L3.7039 21.7382C3.57077 20.603 3.57234 19.456 3.70858 18.3211L4.68972 10.1481L4.69328 10.1184L4.69328 10.0885C4.69328 8.95138 5.55103 8.084 6.53624 8.084L30.3947 8.08399L30.3947 32.2109L6.5367 32.2109C5.55079 32.209 4.69328 31.341 4.69328 30.2042Z" stroke="#174E7F"/>
<path d="M32.9082 6.04118C32.9082 5.76504 33.1321 5.54118 33.4082 5.54118L34.4384 5.54118C36.1343 5.54118 37.5001 6.90141 37.5001 8.5718L37.5001 31.7194C37.5001 33.3898 36.1343 34.75 34.4384 34.75L33.4082 34.75C33.1321 34.75 32.9082 34.5261 32.9082 34.25L32.9082 6.04118Z" stroke="#174E7F"/>
</svg>
