<svg width="22" height="25" viewBox="0 0 22 25" fill="none" xmlns="http://www.w3.org/2000/svg">
<path d="M3.60106 1.35234H3.63028L3.6593 1.34894L9.1597 0.703903C10.2949 0.570773 11.4419 0.572343 12.5768 0.708581L17.9097 1.34878L17.9394 1.35234H17.9693C18.7118 1.35234 19.2582 1.90987 19.2582 2.52587V19.4246H2.31055V2.52634C2.31182 1.90964 2.85898 1.35234 3.60106 1.35234Z" fill="#1EAF28" stroke="#1EAF28"/>
<path d="M20.5776 21.5059C20.8537 21.5059 21.0776 21.7297 21.0776 22.0059V22.456C21.0776 23.5896 20.1688 24.5001 19.0557 24.5001H2.52185C1.4088 24.5001 0.5 23.5896 0.5 22.456V22.0059C0.5 21.7297 0.723857 21.5059 1 21.5059H20.5776Z" fill="#1EAF28" stroke="#1EAF28"/>
</svg>
