<svg width="23" height="26" viewBox="0 0 23 26" fill="none" xmlns="http://www.w3.org/2000/svg">
<path d="M2.46224 20.7588C2.38028 20.7588 2.3125 20.6969 2.3125 20.6187V3.35988C2.31408 2.43685 3.11635 1.68633 4.10303 1.68633L9.60352 1.04129C10.7779 0.903569 11.9645 0.905194 13.1385 1.04613L18.4714 1.68633C19.4581 1.68633 20.2604 2.43685 20.2604 3.35988V20.6187C20.2604 20.6954 20.1942 20.7588 20.1106 20.7588H2.46224Z" fill="#D2D2D2" fill-opacity="0.5"/>
<path d="M4.10303 2.18633H4.13225L4.16127 2.18293L9.66175 1.53789C10.797 1.40476 11.944 1.40633 13.0789 1.54256L18.4118 2.18277L18.4415 2.18633H18.4714C19.2139 2.18633 19.7604 2.74387 19.7604 3.35988V20.2588H2.8125V3.36035C2.81378 2.74364 3.36094 2.18633 4.10303 2.18633Z" stroke="#D2D2D2" stroke-opacity="0.5"/>
<path d="M21.0778 21.8398C21.6301 21.8398 22.0778 22.2876 22.0778 22.8398V23.29C22.0778 24.6956 20.9492 25.8341 19.5559 25.8341H3.02187C1.62854 25.8341 0.5 24.6956 0.5 23.29V22.8398C0.5 22.2876 0.947715 21.8398 1.5 21.8398H21.0778Z" fill="#D2D2D2" fill-opacity="0.5"/>
<path d="M21.0778 22.3398C21.3539 22.3398 21.5778 22.5637 21.5778 22.8398V23.29C21.5778 24.4236 20.669 25.3341 19.5559 25.3341H3.02187C1.90881 25.3341 1 24.4236 1 23.29V22.8398C1 22.5637 1.22386 22.3398 1.5 22.3398H21.0778Z" stroke="#D2D2D2" stroke-opacity="0.5"/>
</svg>
