<svg width="90" height="139" viewBox="0 0 90 139" fill="none" xmlns="http://www.w3.org/2000/svg">
<g id="Layer_1" clip-path="url(#clip0_23249_29924)">
<path id="Vector" d="M89.6638 95.8948C89.6638 101.24 85.3139 105.575 79.9504 105.575H20.9522C16.1556 105.575 12.0816 102.09 11.3491 97.3648L7.21987 70.6198L5.49894 59.4798L0.115397 24.5598C0.0401383 24.0748 0 23.5798 0 23.0898V20.7698C0 15.4248 4.34998 11.0898 9.71346 11.0898H14.53C19.8935 11.0898 24.2435 15.4248 24.2435 20.7698V22.9748C24.2435 23.5448 24.2937 24.1098 24.394 24.6698L33.9469 78.2298C34.7698 82.8498 38.8037 86.2148 43.5099 86.2148H79.9554C84.4659 86.2148 88.259 89.2798 89.3528 93.4298C89.5585 94.2148 89.6689 95.0448 89.6689 95.8948H89.6638Z" fill="#C2D9E2"/>
<path id="Vector_2" d="M19.2864 68.7359L7.22489 70.6259L5.50396 59.4859L0.115397 24.5609C0.0401383 24.0759 0 23.5809 0 23.0909V20.7709C0 15.4209 4.34998 11.0859 9.71346 11.0859H10.2001L19.2864 68.7309V68.7359Z" fill="#A9CAD7"/>
<path id="Vector_3" d="M38.8689 106.199L32.211 128.954C32.0504 129.509 32.4668 130.064 33.0438 130.064H71.8926C76.5135 130.064 80.3217 133.554 80.8083 138.029C80.8635 138.544 80.4672 138.999 79.9454 138.999H23.4508C22.9691 138.999 22.5828 138.609 22.5828 138.134V130.094L22.5427 130.084L29.3862 106.689C29.5468 106.134 29.1304 105.579 28.5534 105.579H20.9522C16.1557 105.579 12.0816 102.094 11.3491 97.3695L5.55917 59.8645C5.51903 59.6195 5.58927 59.3695 5.74982 59.1795C9.03112 55.2045 15.5636 48.9045 17.7662 58.4145C17.9318 59.1245 18.0622 59.8595 18.1726 60.6095C18.2629 61.2495 18.8148 61.7245 19.4671 61.7245H60.664C63.4736 61.7245 65.7565 63.9945 65.7565 66.7995C65.7565 68.7495 64.171 70.3295 62.2143 70.3295H19.0406C18.7998 70.3295 18.6041 70.5245 18.6041 70.7645C18.5188 81.4945 18.1877 92.5145 29.893 95.8145C44.3528 99.8895 76.6691 89.2445 88.8761 93.2595L89.4732 93.9245C89.6137 94.5995 89.6839 95.2995 89.6739 96.0195C89.6036 101.344 85.1383 105.574 79.7949 105.574H39.7118C39.3255 105.574 38.9843 105.829 38.8789 106.199H38.8689Z" fill="#E9F2F8"/>
<path id="Vector_4" d="M75.9868 0H72.4647C64.7254 0 58.4514 6.25234 58.4514 13.965V33.36C58.4514 41.0727 64.7254 47.325 72.4647 47.325H75.9868C83.7261 47.325 90.0001 41.0727 90.0001 33.36V13.965C90.0001 6.25234 83.7261 0 75.9868 0Z" fill="#E9F2F8"/>
<path id="Vector_5" d="M75.6104 3.64062H73.167C67.7886 3.64062 63.4285 7.9857 63.4285 13.3456V33.6506C63.4285 39.0106 67.7886 43.3556 73.167 43.3556H75.6104C80.9889 43.3556 85.349 39.0106 85.349 33.6506V13.3456C85.349 7.9857 80.9889 3.64062 75.6104 3.64062Z" fill="#C2D9E2"/>
</g>
<defs>
<clipPath id="clip0_23249_29924">
<rect width="90" height="139" fill="white"/>
</clipPath>
</defs>
</svg>
