<svg width="16" height="16" viewBox="0 0 16 16" fill="none" xmlns="http://www.w3.org/2000/svg">
<g clip-path="url(#clip0_2_34981)">
<path d="M10.4827 8.44343H4.42874C4.07564 8.44343 3.78906 8.15685 3.78906 7.80374C3.78906 7.45064 4.07564 7.16406 4.42874 7.16406H10.4814C10.8345 7.16406 11.1211 7.45064 11.1211 7.80374C11.1211 8.15685 10.8345 8.44343 10.4814 8.44343H10.4827Z" fill="white"/>
<path d="M13.4975 11.7596H5.0857C4.79017 11.7596 4.53302 11.5575 4.46393 11.2696L1.9487 0.789082C1.86554 0.444933 2.07792 0.0995051 2.42079 0.0176259C2.76494 -0.0642534 3.10909 0.146842 3.19224 0.49099L5.59105 10.4803H13.4975C13.8506 10.4803 14.1372 10.7668 14.1372 11.1199C14.1372 11.473 13.8506 11.7596 13.4975 11.7596Z" fill="white"/>
<path d="M12.1012 15.8778H5.39096C5.19266 15.8778 5.00587 15.7857 4.88433 15.6296C4.76279 15.4735 4.72185 15.2688 4.77175 15.0769L5.8413 10.9766C5.93085 10.635 6.28012 10.4303 6.62171 10.5186C6.9633 10.6081 7.168 10.9574 7.07972 11.299L6.21871 14.5985H11.4615V11.1378C11.4615 10.7847 11.7481 10.4981 12.1012 10.4981C12.4543 10.4981 12.7409 10.7847 12.7409 11.1378V15.2381C12.7409 15.5912 12.4543 15.8778 12.1012 15.8778V15.8778Z" fill="white"/>
</g>
<defs>
<clipPath id="clip0_2_34981">
<rect width="12.2779" height="15.8782" fill="white" transform="translate(1.89551)"/>
</clipPath>
</defs>
</svg>
