<svg width="40" height="41" viewBox="0 0 40 41" fill="none" xmlns="http://www.w3.org/2000/svg">
<path d="M30.8947 32.5013C30.8947 32.6161 30.808 32.7109 30.6986 32.7109L6.53624 32.7109C5.244 32.7087 4.19328 31.5856 4.19328 30.2042L3.20731 21.7965C3.06958 20.6221 3.07121 19.4355 3.21214 18.2615L4.19328 10.0885C4.19328 8.70717 5.244 7.584 6.53624 7.584L30.6986 7.58399C30.8059 7.58399 30.8947 7.67667 30.8947 7.79362L30.8947 32.5013Z" fill="#D2D2D2" fill-opacity="0.5"/>
<path d="M4.69328 30.2042L4.69328 30.175L4.68988 30.146L3.7039 21.7382C3.57077 20.603 3.57234 19.456 3.70858 18.3211L4.68972 10.1481L4.69328 10.1184L4.69328 10.0885C4.69328 8.95138 5.55103 8.084 6.53624 8.084L30.3947 8.08399L30.3947 32.2109L6.5367 32.2109C5.55079 32.209 4.69328 31.341 4.69328 30.2042Z" stroke="#D2D2D2" stroke-opacity="0.5"/>
<path d="M32.4082 6.04118C32.4082 5.4889 32.8559 5.04118 33.4082 5.04118L34.4384 5.04118C36.4063 5.04118 38.0001 6.62113 38.0001 8.5718L38.0001 31.7194C38.0001 33.6701 36.4063 35.25 34.4384 35.25L33.4082 35.25C32.8559 35.25 32.4082 34.8023 32.4082 34.25L32.4082 6.04118Z" fill="#D2D2D2" fill-opacity="0.5"/>
<path d="M32.9082 6.04118C32.9082 5.76504 33.1321 5.54118 33.4082 5.54118L34.4384 5.54118C36.1343 5.54118 37.5001 6.90141 37.5001 8.5718L37.5001 31.7194C37.5001 33.3898 36.1343 34.75 34.4384 34.75L33.4082 34.75C33.1321 34.75 32.9082 34.5261 32.9082 34.25L32.9082 6.04118Z" stroke="#D2D2D2" stroke-opacity="0.5"/>
</svg>
