<svg _ngcontent-exp-c31="" xmlns:xlink="http://www.w3.org/1999/xlink" version="1.1" viewBox="0 0 24 26" xmlns="http://www.w3.org/2000/svg">
      <g _ngcontent-exp-c31="" fill="none" fill-rule="evenodd" id="Bus-Booking---Desktop-" stroke="none" stroke-width="1">
        <g _ngcontent-exp-c31="" id="Desktop---Select-Seats---Seats" stroke-width="1.3" transform="translate(-761.000000, -719.000000)" stroke="#12b319">
          <g _ngcontent-exp-c31="" id="Seats" transform="translate(444.000000, 597.000000)">
            <g _ngcontent-exp-c31="" id="udChalo/List/Seat/Available" transform="translate(56.000000, 122.000000)">
              <g _ngcontent-exp-c31="" transform="translate(273.000000, 13.000000) rotate(-90.000000) translate(-273.000000, -13.000000) translate(260.000000, 1.000000)">
                <rect _ngcontent-exp-c31="" height="23" id="Rectangle-Copy-9" rx="5" width="23" x="1.5" y="0.5"></rect>
                <path _ngcontent-exp-c31="" d="M23.5,21.5 L2.5,21.5 L2.5,10 C2.5,9.44771525 2.05228475,9 1.5,9 C0.94771525,9 0.5,9.44771525 0.5,10 L0.5,22 C0.5,22.0566626 0.504662412,22.1125192 0.513848205,22.1672721 L0.513848205,22.3327279 C0.504662412,22.3874808 0.5,22.4433374 0.5,22.5 C0.5,23.0522847 0.94771525,23.5 1.5,23.5 L24.5,23.5 C25.0522847,23.5 25.5,23.0522847 25.5,22.5 C25.5,22.4433374 25.4953376,22.3874808 25.4861518,22.3327279 L25.4861518,22.1672721 C25.4953376,22.1125192 25.5,22.0566626 25.5,22 L25.5,10 C25.5,9.44771525 25.0522847,9 24.5,9 C23.9477153,9 23.5,9.44771525 23.5,10 L23.5,21.5 Z" fill="#FFFFFF" fill-rule="evenodd" id="Rectangle-Copy-10"></path>
              </g>
            </g>
          </g>
        </g>
      </g>
    </svg>