<svg width="14" height="14" viewBox="0 0 14 14" fill="none" xmlns="http://www.w3.org/2000/svg">
<rect width="14" height="14" fill="#E5E5E5"/>
<g clip-path="url(#clip0_6497_191609)">
<rect width="360" height="6254" transform="translate(-278 -65)" fill="white"/>
<rect x="-278" y="-65" width="360" height="96" fill="#174E7F"/>
<g clip-path="url(#clip1_6497_191609)">
<path d="M7.73111 14.0004H6.21833C5.80144 14.0004 5.43278 13.7173 5.32233 13.3121C5.32156 13.3082 5.32 13.3043 5.31922 13.3004L5.061 12.2628C5.04 12.1781 4.97778 12.1088 4.88989 12.0723L5.08433 11.5636L4.87589 12.0668C4.78956 12.0311 4.697 12.0357 4.62233 12.0808L3.70689 12.63C3.34211 12.8493 2.87856 12.7933 2.57989 12.4954L1.50578 11.4213C1.20711 11.1234 1.15189 10.6598 1.37122 10.2951L1.92033 9.37962C1.96544 9.30495 1.97011 9.2124 1.93433 9.12606L1.92967 9.11595C1.89156 9.02262 1.82233 8.9604 1.73833 8.93862L0.703111 8.67573C0.295556 8.57929 0 8.20518 0 7.78362V6.27084C0 5.84929 0.294778 5.47518 0.703111 5.37873L1.73833 5.11584C1.82311 5.09406 1.89156 5.03184 1.92733 4.94551L1.93511 4.92762C1.97089 4.84206 1.96544 4.74951 1.92033 4.67484L1.37122 3.7594C1.15189 3.39462 1.20789 2.93106 1.50578 2.6324L2.57989 1.55829C2.87778 1.25962 3.34133 1.2044 3.70611 1.42373L4.62156 1.97284C4.69622 2.01795 4.78878 2.02262 4.87511 1.98684C4.87511 1.98684 4.88444 1.98295 4.88522 1.98295C4.97233 1.94718 5.03689 1.87484 5.05711 1.79006L5.31767 0.70662C5.31922 0.701175 5.32 0.695731 5.32156 0.690286C5.432 0.285064 5.80067 0.00195312 6.21756 0.00195312H7.73033C8.14722 0.00195312 8.51589 0.285064 8.62633 0.690286C8.62789 0.695731 8.62944 0.701175 8.63022 0.70662L8.89078 1.79006C8.911 1.87484 8.97556 1.9464 9.06267 1.98295L8.86433 2.49006L9.07278 1.98684C9.15911 2.02262 9.25167 2.01718 9.32633 1.97284L10.2418 1.42373C10.6066 1.2044 11.0701 1.2604 11.3688 1.55829L12.4429 2.6324C12.7416 2.93029 12.7968 3.39384 12.5774 3.75862L12.0283 4.67406C11.9832 4.74873 11.9786 4.84129 12.0143 4.92762L12.0198 4.94162C12.0556 5.02873 12.1256 5.09095 12.2103 5.11195L13.293 5.37795C13.7021 5.47362 13.9984 5.84851 13.9984 6.27084V7.78362C13.9984 8.20595 13.7021 8.58084 13.293 8.67651L12.2103 8.94251C12.1248 8.96351 12.0556 9.02573 12.019 9.1144C12.019 9.1144 12.0143 9.12606 12.0136 9.12684C11.9778 9.21318 11.9824 9.30573 12.0276 9.3804L12.5767 10.2958C12.796 10.6606 12.74 11.1242 12.4421 11.4228L11.368 12.497C11.0693 12.7956 10.6066 12.8508 10.2418 12.6315L9.32633 12.0824C9.25167 12.0373 9.15911 12.0326 9.07278 12.0684C9.07278 12.0684 9.05878 12.0738 9.05878 12.0746C8.97089 12.1104 8.90867 12.1804 8.88767 12.2652L8.62944 13.3027C8.62867 13.3066 8.62711 13.3105 8.62633 13.3144C8.51589 13.7196 8.14722 14.0027 7.73033 14.0027L7.73111 14.0004ZM6.34433 12.9115H7.60433L7.83144 11.9992C7.93567 11.5807 8.23978 11.2307 8.64578 11.0643L8.86511 11.5628L8.65667 11.0596C9.05956 10.8932 9.51922 10.9251 9.88711 11.146L10.6929 11.6297L11.578 10.7446L11.0942 9.93884C10.8733 9.57095 10.8414 9.11051 11.0079 8.7084L11.5158 8.90518L11.0126 8.69829C11.1798 8.29151 11.5313 7.98662 11.9513 7.88318L12.9103 7.64751V6.40306L11.9513 6.1674C11.5306 6.06395 11.1798 5.75984 11.0126 5.35229L11.0071 5.33984C10.8414 4.94006 10.8741 4.47962 11.0942 4.11173L11.578 3.30595L10.6929 2.42084L9.88711 2.90462C9.51922 3.12551 9.05878 3.1574 8.65667 2.99095L8.85578 2.48462L8.64889 2.98784C8.23978 2.81906 7.93411 2.46595 7.83222 2.04284L7.60278 1.08929H6.34511L6.11567 2.04284C6.01378 2.46595 5.70889 2.81906 5.299 2.98784L5.08278 2.48773L5.29122 2.99095C4.88833 3.1574 4.42867 3.12551 4.06078 2.90462L3.255 2.42084L2.36989 3.30595L2.85367 4.11173C3.07456 4.47962 3.10644 4.94006 2.94 5.34218L2.93689 5.34918C2.93689 5.34918 2.93378 5.35618 2.93378 5.35695C2.76889 5.75906 2.422 6.0624 2.00589 6.16818L1.08811 6.40151V7.64751L2.00589 7.88084C2.422 7.98662 2.76889 8.28995 2.93456 8.69362L2.94 8.70684C3.10644 9.10973 3.07456 9.5694 2.85367 9.93729L2.36989 10.7431L3.255 11.6282L4.06078 11.1444C4.42867 10.9235 4.88911 10.8916 5.29122 11.0581L5.096 11.566L5.30289 11.062C5.70889 11.2284 6.013 11.5776 6.11722 11.9968L6.34433 12.9092V12.9115Z" fill="white"/>
<path d="M6.9795 9.69142C5.50872 9.69142 4.3125 8.4952 4.3125 7.02442C4.3125 5.55364 5.50872 4.35742 6.9795 4.35742C8.45028 4.35742 9.6465 5.55364 9.6465 7.02442C9.6465 8.4952 8.45028 9.69142 6.9795 9.69142ZM6.9795 5.44631C6.10917 5.44631 5.40139 6.15409 5.40139 7.02442C5.40139 7.89476 6.10917 8.60253 6.9795 8.60253C7.84983 8.60253 8.55761 7.89476 8.55761 7.02442C8.55761 6.15409 7.84983 5.44631 6.9795 5.44631Z" fill="white"/>
</g>
</g>
<defs>
<clipPath id="clip0_6497_191609">
<rect width="360" height="6254" fill="white" transform="translate(-278 -65)"/>
</clipPath>
<clipPath id="clip1_6497_191609">
<rect width="14" height="14" fill="white"/>
</clipPath>
</defs>
</svg>
