<svg width="41" height="40" viewBox="0 0 41 40" fill="none" xmlns="http://www.w3.org/2000/svg">
<circle cx="20.5312" cy="20" r="20" fill="#E4F3FD"/>
<g clip-path="url(#clip0_15188_58909)">
<path d="M16.0048 29.7502C24.9726 29.7502 29.8777 22.2469 29.8777 15.74C29.8777 15.5269 29.8777 15.3148 29.8634 15.1035C30.8176 14.4065 31.6414 13.5434 32.296 12.5548C31.4061 12.953 30.4621 13.2141 29.4955 13.3295C30.5131 12.7143 31.2752 11.7459 31.6391 10.6059C30.682 11.1794 29.6349 11.5837 28.543 11.8011C27.6211 10.8111 26.3336 10.249 24.9879 10.249C22.3106 10.249 20.1076 12.4739 20.1076 15.1776C20.1076 15.5527 20.15 15.9267 20.2339 16.292C16.3156 16.0937 12.6599 14.222 10.1853 11.1474C8.89844 13.3845 9.56427 16.2838 11.6948 17.7205C10.919 17.6973 10.1598 17.4859 9.48184 17.1042V17.1666C9.48249 19.5016 11.1271 21.5311 13.3935 21.9935C12.6757 22.1911 11.9225 22.22 11.192 22.0779C11.8291 24.0788 13.6664 25.458 15.7472 25.4975C14.021 26.8675 11.8874 27.6117 9.69191 27.6095C9.30397 27.6087 8.91641 27.585 8.53125 27.5384C10.7608 28.9833 13.3557 29.75 16.0048 29.7464" fill="#1DA1F2"/>
</g>
<defs>
<clipPath id="clip0_15188_58909">
<rect width="23.7647" height="24" fill="white" transform="translate(8.53125 8)"/>
</clipPath>
</defs>
</svg>
