<svg width="41" height="40" viewBox="0 0 41 40" fill="none" xmlns="http://www.w3.org/2000/svg">
<circle cx="20.5312" cy="20" r="20" fill="#E4F3FD"/>
<g clip-path="url(#clip0_15188_58917)">
<path d="M32.5312 20C32.5312 13.3726 27.1587 8 20.5312 8C13.9038 8 8.53125 13.3726 8.53125 20C8.53125 26.6274 13.9038 32 20.5312 32C27.1587 32 32.5312 26.6274 32.5312 20Z" fill="#0077B5"/>
<path d="M15.485 13.3379C14.5934 13.3379 13.8711 14.0619 13.8711 14.955C13.8711 15.8482 14.5934 16.5722 15.485 16.5722C16.3765 16.5722 17.0988 15.8482 17.0988 14.955C17.0988 14.0619 16.3765 13.3379 15.485 13.3379ZM23.9378 17.5484V17.5495C23.7555 17.5489 23.5786 17.5561 23.3472 17.5681C22.8397 17.5944 21.6546 18.1443 21.2206 19.022C21.2206 18.6409 21.225 18.2909 21.225 17.7686C20.7052 17.7686 20.0249 17.7719 18.6042 17.7719C18.6042 19.3668 18.5867 25.015 18.5867 26.6608H21.3378C21.3378 25.6845 21.351 23.2321 21.351 21.6921C21.351 21.175 21.6636 19.9807 22.9462 19.9807C24.1109 19.9807 24.4374 20.9623 24.4374 21.6921C24.4374 23.2959 24.4253 25.5631 24.4253 26.6608H27.1929C27.1929 25.5878 27.2027 22.6731 27.1699 20.8342C27.13 18.6014 25.7738 17.6488 24.5568 17.5736C24.3064 17.5581 24.1201 17.5491 23.9378 17.5484ZM14.1034 17.807V26.6564H16.8622V17.807H14.1034Z" fill="white"/>
</g>
<defs>
<clipPath id="clip0_15188_58917">
<rect width="24" height="24" fill="white" transform="translate(8.53125 8)"/>
</clipPath>
</defs>
</svg>
