<svg width="41" height="40" viewBox="0 0 41 40" fill="none" xmlns="http://www.w3.org/2000/svg">
<circle cx="20.0312" cy="20" r="20" fill="#E4F3FD"/>
<g clip-path="url(#clip0_15188_58887)">
<path d="M20.0352 8C15.0253 8 13.5601 8.00517 13.2753 8.0288C12.2472 8.11428 11.6074 8.27621 10.9104 8.6233C10.3733 8.89011 9.94968 9.19936 9.5316 9.63287C8.77021 10.4235 8.30876 11.3961 8.14171 12.5523C8.0605 13.1135 8.03687 13.228 8.03207 16.095C8.03023 17.0506 8.03207 18.3083 8.03207 19.9953C8.03207 25.0025 8.0376 26.4666 8.0616 26.7509C8.14467 27.7516 8.30155 28.3812 8.6338 29.0699C9.26876 30.3882 10.4814 31.3778 11.9101 31.7471C12.4048 31.8744 12.9511 31.9446 13.6526 31.9778C13.9497 31.9908 16.9787 32 20.0095 32C23.0403 32 26.0711 31.9963 26.3609 31.9815C27.1731 31.9433 27.6447 31.88 28.1661 31.7452C29.604 31.3741 30.7946 30.3992 31.4424 29.0625C31.7682 28.3905 31.9334 27.7369 32.0082 26.7884C32.0244 26.5816 32.0313 23.2847 32.0313 19.9922C32.0313 16.6991 32.0239 13.4082 32.0076 13.2014C31.9319 12.2376 31.7667 11.5896 31.4304 10.9046C31.1545 10.3439 30.8481 9.92514 30.4033 9.49699C29.6094 8.73852 28.6385 8.27694 27.4815 8.11004C26.9209 8.02898 26.8093 8.00498 23.9409 8H20.0352Z" fill="url(#paint0_radial_15188_58887)"/>
<path d="M20.0352 8C15.0253 8 13.5601 8.00517 13.2753 8.0288C12.2472 8.11428 11.6074 8.27621 10.9104 8.6233C10.3733 8.89011 9.94968 9.19936 9.5316 9.63287C8.77021 10.4235 8.30876 11.3961 8.14171 12.5523C8.0605 13.1135 8.03687 13.228 8.03207 16.095C8.03023 17.0506 8.03207 18.3083 8.03207 19.9953C8.03207 25.0025 8.0376 26.4666 8.0616 26.7509C8.14467 27.7516 8.30155 28.3812 8.6338 29.0699C9.26876 30.3882 10.4814 31.3778 11.9101 31.7471C12.4048 31.8744 12.9511 31.9446 13.6526 31.9778C13.9497 31.9908 16.9787 32 20.0095 32C23.0403 32 26.0711 31.9963 26.3609 31.9815C27.1731 31.9433 27.6447 31.88 28.1661 31.7452C29.604 31.3741 30.7946 30.3992 31.4424 29.0625C31.7682 28.3905 31.9334 27.7369 32.0082 26.7884C32.0244 26.5816 32.0313 23.2847 32.0313 19.9922C32.0313 16.6991 32.0239 13.4082 32.0076 13.2014C31.9319 12.2376 31.7667 11.5896 31.4304 10.9046C31.1545 10.3439 30.8481 9.92514 30.4033 9.49699C29.6094 8.73852 28.6385 8.27694 27.4815 8.11004C26.9209 8.02898 26.8093 8.00498 23.9409 8H20.0352Z" fill="url(#paint1_radial_15188_58887)"/>
<path d="M20.0352 8C15.0253 8 13.5601 8.00517 13.2753 8.0288C12.2472 8.11428 11.6074 8.27621 10.9104 8.6233C10.3733 8.89011 9.94968 9.19936 9.5316 9.63287C8.77021 10.4235 8.30876 11.3961 8.14171 12.5523C8.0605 13.1135 8.03687 13.228 8.03207 16.095C8.03023 17.0506 8.03207 18.3083 8.03207 19.9953C8.03207 25.0025 8.0376 26.4666 8.0616 26.7509C8.14467 27.7516 8.30155 28.3812 8.6338 29.0699C9.26876 30.3882 10.4814 31.3778 11.9101 31.7471C12.4048 31.8744 12.9511 31.9446 13.6526 31.9778C13.9497 31.9908 16.9787 32 20.0095 32C23.0403 32 26.0711 31.9963 26.3609 31.9815C27.1731 31.9433 27.6447 31.88 28.1661 31.7452C29.604 31.3741 30.7946 30.3992 31.4424 29.0625C31.7682 28.3905 31.9334 27.7369 32.0082 26.7884C32.0244 26.5816 32.0313 23.2847 32.0313 19.9922C32.0313 16.6991 32.0239 13.4082 32.0076 13.2014C31.9319 12.2376 31.7667 11.5896 31.4304 10.9046C31.1545 10.3439 30.8481 9.92514 30.4033 9.49699C29.6094 8.73852 28.6385 8.27694 27.4815 8.11004C26.9209 8.02898 26.8093 8.00498 23.9409 8H20.0352Z" fill="url(#paint2_radial_15188_58887)"/>
<path d="M20.0352 8C15.0253 8 13.5601 8.00517 13.2753 8.0288C12.2472 8.11428 11.6074 8.27621 10.9104 8.6233C10.3733 8.89011 9.94968 9.19936 9.5316 9.63287C8.77021 10.4235 8.30876 11.3961 8.14171 12.5523C8.0605 13.1135 8.03687 13.228 8.03207 16.095C8.03023 17.0506 8.03207 18.3083 8.03207 19.9953C8.03207 25.0025 8.0376 26.4666 8.0616 26.7509C8.14467 27.7516 8.30155 28.3812 8.6338 29.0699C9.26876 30.3882 10.4814 31.3778 11.9101 31.7471C12.4048 31.8744 12.9511 31.9446 13.6526 31.9778C13.9497 31.9908 16.9787 32 20.0095 32C23.0403 32 26.0711 31.9963 26.3609 31.9815C27.1731 31.9433 27.6447 31.88 28.1661 31.7452C29.604 31.3741 30.7946 30.3992 31.4424 29.0625C31.7682 28.3905 31.9334 27.7369 32.0082 26.7884C32.0244 26.5816 32.0313 23.2847 32.0313 19.9922C32.0313 16.6991 32.0239 13.4082 32.0076 13.2014C31.9319 12.2376 31.7667 11.5896 31.4304 10.9046C31.1545 10.3439 30.8481 9.92514 30.4033 9.49699C29.6094 8.73852 28.6385 8.27694 27.4815 8.11004C26.9209 8.02898 26.8093 8.00498 23.9409 8H20.0352Z" fill="url(#paint3_radial_15188_58887)"/>
<path d="M20.0374 11.082C17.614 11.082 17.3098 11.0926 16.358 11.1359C15.408 11.1794 14.7596 11.3297 14.1922 11.5502C13.6053 11.7779 13.1075 12.0826 12.6115 12.5784C12.1151 13.074 11.8102 13.5715 11.5816 14.1578C11.3603 14.7249 11.2098 15.373 11.167 16.3219C11.1244 17.273 11.1133 17.5771 11.1133 19.9988C11.1133 22.4204 11.1241 22.7234 11.1672 23.6745C11.2109 24.6238 11.3613 25.2717 11.5818 25.8387C11.8099 26.4252 12.1147 26.9226 12.6109 27.4183C13.1067 27.9143 13.6046 28.2197 14.1911 28.4474C14.7588 28.6679 15.4075 28.8182 16.3572 28.8617C17.3091 28.9049 17.613 28.9155 20.0363 28.9155C22.4599 28.9155 22.7631 28.905 23.7149 28.8617C24.6649 28.8182 25.3141 28.6679 25.8818 28.4474C26.4686 28.2197 26.9657 27.9143 27.4615 27.4183C27.9578 26.9226 28.2627 26.4252 28.4914 25.8389C28.7107 25.2717 28.8613 24.6236 28.9059 23.6747C28.9487 22.7236 28.9599 22.4204 28.9599 19.9988C28.9599 17.5771 28.9487 17.2732 28.9059 16.3221C28.8613 15.3728 28.7107 14.7249 28.4914 14.1579C28.2627 13.5715 27.9578 13.074 27.4615 12.5784C26.9651 12.0824 26.4687 11.7777 25.8813 11.5502C25.3124 11.3297 24.6636 11.1794 23.7137 11.1359C22.7618 11.0926 22.4588 11.082 20.0346 11.082H20.0374ZM19.2369 12.6889C19.4745 12.6885 19.7396 12.6889 20.0374 12.6889C22.4199 12.6889 22.7023 12.6975 23.6432 12.7402C24.5132 12.7799 24.9854 12.9252 25.3 13.0472C25.7164 13.2089 26.0133 13.4021 26.3254 13.7141C26.6377 14.0262 26.8311 14.3235 26.9932 14.7396C27.1153 15.0535 27.2609 15.5254 27.3005 16.3947C27.3432 17.3347 27.3525 17.6171 27.3525 19.9967C27.3525 22.3764 27.3432 22.6588 27.3005 23.5987C27.2607 24.4681 27.1153 24.94 26.9932 25.2539C26.8314 25.67 26.6377 25.9663 26.3254 26.2782C26.0131 26.5903 25.7166 26.7835 25.3 26.9451C24.9858 27.0677 24.5132 27.2126 23.6432 27.2524C22.7025 27.2951 22.4199 27.3044 20.0374 27.3044C17.6547 27.3044 17.3723 27.2951 16.4316 27.2524C15.5616 27.2123 15.0894 27.067 14.7747 26.9449C14.3582 26.7833 14.0608 26.5901 13.7485 26.278C13.4361 25.966 13.2428 25.6695 13.0807 25.2532C12.9586 24.9392 12.813 24.4674 12.7734 23.598C12.7306 22.658 12.7221 22.3757 12.7221 19.9945C12.7221 17.6134 12.7306 17.3325 12.7734 16.3925C12.8132 15.5231 12.9586 15.0513 13.0807 14.737C13.2424 14.3209 13.4361 14.0236 13.7485 13.7115C14.0608 13.3995 14.3582 13.2063 14.7747 13.0443C15.0892 12.9217 15.5616 12.7768 16.4316 12.7368C17.2548 12.6997 17.5738 12.6885 19.2369 12.6867L19.2369 12.6889ZM24.8006 14.1695C24.2095 14.1695 23.7298 14.6482 23.7298 15.2391C23.7298 15.8298 24.2095 16.3091 24.8006 16.3091C25.3918 16.3091 25.8714 15.8298 25.8714 15.2391C25.8714 14.6484 25.3918 14.1691 24.8006 14.1691L24.8006 14.1695ZM20.0374 15.4197C17.5067 15.4197 15.4549 17.47 15.4549 19.9988C15.4549 22.5276 17.5067 24.577 20.0374 24.577C22.5681 24.577 24.6192 22.5276 24.6192 19.9988C24.6192 17.47 22.5679 15.4197 20.0372 15.4197H20.0374ZM20.0374 17.0265C21.68 17.0265 23.0119 18.3572 23.0119 19.9988C23.0119 21.6402 21.68 22.971 20.0374 22.971C18.3946 22.971 17.0629 21.6402 17.0629 19.9988C17.0629 18.3572 18.3946 17.0265 20.0374 17.0265Z" fill="white"/>
</g>
<defs>
<radialGradient id="paint0_radial_15188_58887" cx="0" cy="0" r="1" gradientUnits="userSpaceOnUse" gradientTransform="translate(31.2563 19.2491) rotate(164.25) scale(15.3346 11.0479)">
<stop stop-color="#FF005F"/>
<stop offset="1" stop-color="#FC01D8"/>
</radialGradient>
<radialGradient id="paint1_radial_15188_58887" cx="0" cy="0" r="1" gradientUnits="userSpaceOnUse" gradientTransform="translate(14.4061 33.8485) rotate(-90) scale(19.1572 20.3254)">
<stop stop-color="#FFCC00"/>
<stop offset="0.1242" stop-color="#FFCC00"/>
<stop offset="0.5672" stop-color="#FE4A05"/>
<stop offset="0.6942" stop-color="#FF0F3F"/>
<stop offset="1" stop-color="#FE0657" stop-opacity="0"/>
</radialGradient>
<radialGradient id="paint2_radial_15188_58887" cx="0" cy="0" r="1" gradientUnits="userSpaceOnUse" gradientTransform="translate(20.6377 31.6615) rotate(-59.8703) scale(7.92169 10.3132)">
<stop stop-color="#FFCC00"/>
<stop offset="1" stop-color="#FFCC00" stop-opacity="0"/>
</radialGradient>
<radialGradient id="paint3_radial_15188_58887" cx="0" cy="0" r="1" gradientUnits="userSpaceOnUse" gradientTransform="translate(11.2875 8.97727) rotate(164.274) scale(15.1645 5.16655)">
<stop stop-color="#780CFF"/>
<stop offset="1" stop-color="#820BFF" stop-opacity="0"/>
</radialGradient>
<clipPath id="clip0_15188_58887">
<rect width="24" height="24" fill="white" transform="translate(8.03125 8)"/>
</clipPath>
</defs>
</svg>
