<svg width="41" height="40" viewBox="0 0 41 40" fill="none" xmlns="http://www.w3.org/2000/svg">
<circle cx="20.5" cy="20" r="20" fill="#E4F3FD"/>
<g clip-path="url(#clip0_7258_90041)">
<path d="M20.5036 9C15.9112 9 14.5681 9.00474 14.307 9.0264C13.3646 9.10476 12.7781 9.25319 12.1392 9.57136C11.6469 9.81593 11.2586 10.0994 10.8753 10.4968C10.1774 11.2215 9.75438 12.1131 9.60125 13.1729C9.52681 13.6874 9.50515 13.7923 9.50075 16.4204C9.49906 17.2964 9.50075 18.4493 9.50075 19.9957C9.50075 24.5856 9.50582 25.9277 9.52782 26.1884C9.60396 27.1057 9.74778 27.6828 10.0523 28.3141C10.6344 29.5225 11.746 30.4296 13.0556 30.7681C13.5091 30.8849 14.0099 30.9492 14.6529 30.9797C14.9253 30.9915 17.7018 31 20.4801 31C23.2583 31 26.0366 30.9966 26.3022 30.9831C27.0467 30.948 27.479 30.89 27.957 30.7664C29.275 30.4263 30.3664 29.5326 30.9603 28.3073C31.2589 27.6912 31.4103 27.0921 31.4789 26.2227C31.4937 26.0332 31.5 23.0109 31.5 19.9928C31.5 16.9741 31.4932 13.9575 31.4783 13.768C31.409 12.8845 31.2575 12.2905 30.9493 11.6626C30.6963 11.1486 30.4154 10.7647 30.0077 10.3722C29.28 9.67698 28.39 9.25386 27.3294 9.10087C26.8156 9.02657 26.7132 9.00456 24.0838 9H20.5036Z" fill="url(#paint0_radial_7258_90041)"/>
<path d="M20.5036 9C15.9112 9 14.5681 9.00474 14.307 9.0264C13.3646 9.10476 12.7781 9.25319 12.1392 9.57136C11.6469 9.81593 11.2586 10.0994 10.8753 10.4968C10.1774 11.2215 9.75438 12.1131 9.60125 13.1729C9.52681 13.6874 9.50515 13.7923 9.50075 16.4204C9.49906 17.2964 9.50075 18.4493 9.50075 19.9957C9.50075 24.5856 9.50582 25.9277 9.52782 26.1884C9.60396 27.1057 9.74778 27.6828 10.0523 28.3141C10.6344 29.5225 11.746 30.4296 13.0556 30.7681C13.5091 30.8849 14.0099 30.9492 14.6529 30.9797C14.9253 30.9915 17.7018 31 20.4801 31C23.2583 31 26.0366 30.9966 26.3022 30.9831C27.0467 30.948 27.479 30.89 27.957 30.7664C29.275 30.4263 30.3664 29.5326 30.9603 28.3073C31.2589 27.6912 31.4103 27.0921 31.4789 26.2227C31.4937 26.0332 31.5 23.0109 31.5 19.9928C31.5 16.9741 31.4932 13.9575 31.4783 13.768C31.409 12.8845 31.2575 12.2905 30.9493 11.6626C30.6963 11.1486 30.4154 10.7647 30.0077 10.3722C29.28 9.67698 28.39 9.25386 27.3294 9.10087C26.8156 9.02657 26.7132 9.00456 24.0838 9H20.5036Z" fill="url(#paint1_radial_7258_90041)"/>
<path d="M20.5036 9C15.9112 9 14.5681 9.00474 14.307 9.0264C13.3646 9.10476 12.7781 9.25319 12.1392 9.57136C11.6469 9.81593 11.2586 10.0994 10.8753 10.4968C10.1774 11.2215 9.75438 12.1131 9.60125 13.1729C9.52681 13.6874 9.50515 13.7923 9.50075 16.4204C9.49906 17.2964 9.50075 18.4493 9.50075 19.9957C9.50075 24.5856 9.50582 25.9277 9.52782 26.1884C9.60396 27.1057 9.74778 27.6828 10.0523 28.3141C10.6344 29.5225 11.746 30.4296 13.0556 30.7681C13.5091 30.8849 14.0099 30.9492 14.6529 30.9797C14.9253 30.9915 17.7018 31 20.4801 31C23.2583 31 26.0366 30.9966 26.3022 30.9831C27.0467 30.948 27.479 30.89 27.957 30.7664C29.275 30.4263 30.3664 29.5326 30.9603 28.3073C31.2589 27.6912 31.4103 27.0921 31.4789 26.2227C31.4937 26.0332 31.5 23.0109 31.5 19.9928C31.5 16.9741 31.4932 13.9575 31.4783 13.768C31.409 12.8845 31.2575 12.2905 30.9493 11.6626C30.6963 11.1486 30.4154 10.7647 30.0077 10.3722C29.28 9.67698 28.39 9.25386 27.3294 9.10087C26.8156 9.02657 26.7132 9.00456 24.0838 9H20.5036Z" fill="url(#paint2_radial_7258_90041)"/>
<path d="M20.5036 9C15.9112 9 14.5681 9.00474 14.307 9.0264C13.3646 9.10476 12.7781 9.25319 12.1392 9.57136C11.6469 9.81593 11.2586 10.0994 10.8753 10.4968C10.1774 11.2215 9.75438 12.1131 9.60125 13.1729C9.52681 13.6874 9.50515 13.7923 9.50075 16.4204C9.49906 17.2964 9.50075 18.4493 9.50075 19.9957C9.50075 24.5856 9.50582 25.9277 9.52782 26.1884C9.60396 27.1057 9.74778 27.6828 10.0523 28.3141C10.6344 29.5225 11.746 30.4296 13.0556 30.7681C13.5091 30.8849 14.0099 30.9492 14.6529 30.9797C14.9253 30.9915 17.7018 31 20.4801 31C23.2583 31 26.0366 30.9966 26.3022 30.9831C27.0467 30.948 27.479 30.89 27.957 30.7664C29.275 30.4263 30.3664 29.5326 30.9603 28.3073C31.2589 27.6912 31.4103 27.0921 31.4789 26.2227C31.4937 26.0332 31.5 23.0109 31.5 19.9928C31.5 16.9741 31.4932 13.9575 31.4783 13.768C31.409 12.8845 31.2575 12.2905 30.9493 11.6626C30.6963 11.1486 30.4154 10.7647 30.0077 10.3722C29.28 9.67698 28.39 9.25386 27.3294 9.10087C26.8156 9.02657 26.7132 9.00456 24.0838 9H20.5036Z" fill="url(#paint3_radial_7258_90041)"/>
<path d="M20.5056 11.8242C18.2842 11.8242 18.0054 11.8339 17.1328 11.8736C16.262 11.9134 15.6677 12.0512 15.1476 12.2533C14.6096 12.4621 14.1532 12.7414 13.6985 13.1959C13.2435 13.6502 12.9641 14.1062 12.7545 14.6436C12.5517 15.1635 12.4136 15.7576 12.3744 16.6275C12.3354 17.4993 12.3252 17.7781 12.3252 19.9979C12.3252 22.2178 12.3351 22.4955 12.3746 23.3673C12.4147 24.2375 12.5525 24.8315 12.7546 25.3512C12.9637 25.8888 13.2432 26.3448 13.698 26.7991C14.1525 27.2538 14.6089 27.5337 15.1465 27.7425C15.667 27.9446 16.2615 28.0824 17.1322 28.1222C18.0047 28.1619 18.2833 28.1716 20.5046 28.1716C22.7263 28.1716 23.0042 28.1619 23.8767 28.1222C24.7475 28.0824 25.3426 27.9446 25.863 27.7425C26.4009 27.5337 26.8565 27.2538 27.311 26.7991C27.766 26.3448 28.0455 25.8888 28.2551 25.3513C28.4562 24.8315 28.5942 24.2373 28.6351 23.3675C28.6743 22.4957 28.6846 22.2177 28.6846 19.9979C28.6846 17.7781 28.6743 17.4995 28.6351 16.6276C28.5942 15.7575 28.4562 15.1635 28.2551 14.6438C28.0455 14.1062 27.766 13.6502 27.311 13.1959C26.856 12.7412 26.401 12.4619 25.8625 12.2533C25.3411 12.0512 24.7463 11.9134 23.8755 11.8736C23.003 11.8339 22.7253 11.8242 20.5031 11.8242H20.5056ZM19.7718 13.2972C19.9896 13.2968 20.2326 13.2972 20.5056 13.2972C22.6896 13.2972 22.9485 13.305 23.8109 13.3442C24.6085 13.3806 25.0413 13.5138 25.3297 13.6257C25.7114 13.7738 25.9835 13.9509 26.2696 14.237C26.5559 14.5231 26.7332 14.7955 26.8818 15.177C26.9937 15.4647 27.1272 15.8973 27.1635 16.6942C27.2026 17.5558 27.2112 17.8147 27.2112 19.996C27.2112 22.1774 27.2026 22.4362 27.1635 23.2979C27.127 24.0948 26.9937 24.5273 26.8818 24.8151C26.7335 25.1966 26.5559 25.4682 26.2696 25.7541C25.9834 26.0401 25.7115 26.2172 25.3297 26.3654C25.0417 26.4778 24.6085 26.6106 23.8109 26.647C22.9487 26.6862 22.6896 26.6947 20.5056 26.6947C18.3215 26.6947 18.0626 26.6862 17.2003 26.647C16.4028 26.6103 15.97 26.4771 15.6815 26.3652C15.2997 26.2171 15.0271 26.04 14.7408 25.7539C14.4545 25.4678 14.2773 25.196 14.1287 24.8144C14.0167 24.5266 13.8833 24.0941 13.847 23.2972C13.8078 22.4355 13.7999 22.1767 13.7999 19.994C13.7999 17.8113 13.8078 17.5538 13.847 16.6922C13.8834 15.8952 14.0167 15.4627 14.1287 15.1746C14.2769 14.7931 14.4545 14.5207 14.7408 14.2346C15.0271 13.9485 15.2997 13.7714 15.6815 13.6229C15.9698 13.5106 16.4028 13.3777 17.2003 13.3411C17.9549 13.3071 18.2473 13.2968 19.7719 13.2951L19.7718 13.2972ZM24.8719 14.6544C24.33 14.6544 23.8904 15.0932 23.8904 15.6349C23.8904 16.1764 24.33 16.6157 24.8719 16.6157C25.4138 16.6157 25.8535 16.1764 25.8535 15.6349C25.8535 15.0934 25.4138 14.654 24.8719 14.654L24.8719 14.6544ZM20.5056 15.8004C18.1858 15.8004 16.305 17.6798 16.305 19.9979C16.305 22.316 18.1858 24.1946 20.5056 24.1946C22.8255 24.1946 24.7056 22.316 24.7056 19.9979C24.7056 17.6798 22.8253 15.8004 20.5055 15.8004H20.5056ZM20.5056 17.2733C22.0114 17.2733 23.2322 18.4931 23.2322 19.9979C23.2322 21.5026 22.0114 22.7225 20.5056 22.7225C18.9997 22.7225 17.7791 21.5026 17.7791 19.9979C17.7791 18.4931 18.9997 17.2733 20.5056 17.2733Z" fill="white"/>
</g>
<defs>
<radialGradient id="paint0_radial_7258_90041" cx="0" cy="0" r="1" gradientUnits="userSpaceOnUse" gradientTransform="translate(30.7896 19.3117) rotate(164.25) scale(14.0568 10.1272)">
<stop stop-color="#FF005F"/>
<stop offset="1" stop-color="#FC01D8"/>
</radialGradient>
<radialGradient id="paint1_radial_7258_90041" cx="0" cy="0" r="1" gradientUnits="userSpaceOnUse" gradientTransform="translate(15.3436 32.6944) rotate(-90) scale(17.5608 18.6317)">
<stop stop-color="#FFCC00"/>
<stop offset="0.1242" stop-color="#FFCC00"/>
<stop offset="0.5672" stop-color="#FE4A05"/>
<stop offset="0.6942" stop-color="#FF0F3F"/>
<stop offset="1" stop-color="#FE0657" stop-opacity="0"/>
</radialGradient>
<radialGradient id="paint2_radial_7258_90041" cx="0" cy="0" r="1" gradientUnits="userSpaceOnUse" gradientTransform="translate(21.0559 30.6897) rotate(-59.8703) scale(7.26155 9.45372)">
<stop stop-color="#FFCC00"/>
<stop offset="1" stop-color="#FFCC00" stop-opacity="0"/>
</radialGradient>
<radialGradient id="paint3_radial_7258_90041" cx="0" cy="0" r="1" gradientUnits="userSpaceOnUse" gradientTransform="translate(12.4849 9.89583) rotate(164.274) scale(13.9008 4.736)">
<stop stop-color="#780CFF"/>
<stop offset="1" stop-color="#820BFF" stop-opacity="0"/>
</radialGradient>
<clipPath id="clip0_7258_90041">
<rect width="22" height="22" fill="white" transform="translate(9.5 9)"/>
</clipPath>
</defs>
</svg>
