<svg width="41" height="40" viewBox="0 0 41 40" fill="none" xmlns="http://www.w3.org/2000/svg">
<circle cx="20.5312" cy="20" r="20" fill="#E4F3FD"/>
<g clip-path="url(#clip0_15188_58900)">
<path d="M20.5312 32C13.9049 32 8.53125 26.6264 8.53125 20C8.53125 13.3736 13.9049 8 20.5312 8C27.1576 8 32.5312 13.3736 32.5312 20C32.5312 26.6264 27.1576 32 20.5312 32Z" fill="#3B579D"/>
<path d="M23.6501 32.0006V22.7054H26.7701L27.2381 19.0838H23.6501V16.7702C23.6501 15.7214 23.9405 15.0062 25.4453 15.0062H27.3629V11.7686C27.0317 11.7254 25.8917 11.627 24.5669 11.627C21.8021 11.627 19.9085 13.3142 19.9085 16.415V19.0862H16.7812V22.7078H19.9085V32.0006H23.6501Z" fill="white"/>
</g>
<defs>
<clipPath id="clip0_15188_58900">
<rect width="24" height="24" fill="white" transform="translate(8.53125 8)"/>
</clipPath>
</defs>
</svg>
