<svg width="32" height="33" viewBox="0 0 32 33" fill="none" xmlns="http://www.w3.org/2000/svg">
<g clip-path="url(#clip0_13898_40328)">
<path d="M11.3306 15.5892C11.073 15.5892 10.8273 15.4373 10.7216 15.185C10.5803 14.8482 10.7388 14.4612 11.0743 14.3198L19.861 10.6279C20.1966 10.4865 20.5849 10.645 20.7262 10.9806C20.8676 11.3174 20.7091 11.7044 20.3736 11.8458L11.5868 15.5377C11.5036 15.5734 11.4164 15.5892 11.3306 15.5892Z" fill="white"/>
<path d="M20.4639 22.9277C20.3781 22.9277 20.2922 22.9105 20.2077 22.8761L10.8225 18.9319C10.4857 18.7905 10.3285 18.4035 10.4699 18.0667C10.6112 17.7298 10.9982 17.5727 11.3351 17.714L20.7202 21.6583C21.057 21.7996 21.2142 22.1866 21.0729 22.5235C20.9672 22.7758 20.7215 22.9277 20.4639 22.9277Z" fill="white"/>
<path d="M8.99848 19.7352C7.34469 19.7352 6 18.3906 6 16.7368C6 15.083 7.34469 13.7383 8.99848 13.7383C10.6523 13.7383 11.997 15.083 11.997 16.7368C11.997 18.3906 10.6523 19.7352 8.99848 19.7352ZM8.99848 15.0592C8.07384 15.0592 7.32092 15.8121 7.32092 16.7368C7.32092 17.6614 8.07384 18.4143 8.99848 18.4143C9.92312 18.4143 10.676 17.6614 10.676 16.7368C10.676 15.8121 9.92312 15.0592 8.99848 15.0592Z" fill="white"/>
<path d="M22.8677 12.999C22.486 12.999 22.1056 12.9251 21.741 12.7784C20.9986 12.4773 20.4188 11.9053 20.1057 11.1682C19.794 10.4312 19.7874 9.61616 20.0885 8.87381C20.3897 8.13145 20.9617 7.55025 21.6987 7.23851C22.4358 6.92678 23.2508 6.92017 23.9932 7.22134C24.7355 7.52251 25.3154 8.09447 25.6285 8.83154C25.9402 9.56861 25.9468 10.3836 25.6456 11.126C25.3445 11.8683 24.7725 12.4495 24.0354 12.7613C23.659 12.9198 23.264 13.0004 22.8677 13.0004V12.999ZM22.8677 8.32034C22.6458 8.32034 22.4239 8.36525 22.2139 8.45376C21.8018 8.62812 21.4808 8.95306 21.313 9.36783C21.1453 9.7826 21.1479 10.2396 21.3223 10.6518C21.4966 11.0639 21.8216 11.3849 22.2363 11.5526C22.6511 11.7204 23.1081 11.7177 23.5203 11.5434C23.9324 11.369 24.2534 11.0441 24.4211 10.6293C24.5889 10.2145 24.5862 9.7575 24.4119 9.34537C24.2375 8.93325 23.9126 8.61227 23.4978 8.44451C23.2944 8.36261 23.0804 8.32034 22.8677 8.32034Z" fill="white"/>
<path d="M22.9975 26.2076C22.6778 26.2076 22.3529 26.1561 22.0332 26.0478C21.275 25.7889 20.6634 25.2512 20.3094 24.5327C19.9554 23.8141 19.9039 23.0004 20.1615 22.2422C20.4204 21.484 20.958 20.8724 21.6766 20.5184C22.3951 20.1644 23.2088 20.1129 23.967 20.3705C24.7252 20.6294 25.3368 21.167 25.6908 21.8855C26.0448 22.6041 26.0963 23.4178 25.8388 24.176C25.4148 25.4216 24.2457 26.2076 22.9975 26.2076ZM23.0014 21.5315C22.3027 21.5315 21.6501 21.9714 21.4124 22.6688C21.2684 23.0929 21.2975 23.5486 21.4956 23.9501C21.6937 24.3517 22.0358 24.6529 22.4599 24.7982C23.3356 25.0967 24.2907 24.6264 24.5892 23.7507C24.7332 23.3267 24.7041 22.8709 24.506 22.4694C24.3078 22.0678 23.9657 21.7667 23.5417 21.6214C23.3634 21.5606 23.1811 21.5315 23.0028 21.5315H23.0014Z" fill="white"/>
</g>
<defs>
<clipPath id="clip0_13898_40328">
<rect width="20" height="19.2075" fill="white" transform="translate(6 7)"/>
</clipPath>
</defs>
</svg>
