<svg width="20" height="20" viewBox="0 0 20 20" fill="none" xmlns="http://www.w3.org/2000/svg">
<g clip-path="url(#clip0_2_47522)">
<path d="M5.41618 9.2406C5.06389 9.2406 4.72839 9.03284 4.58257 8.68701C4.38901 8.22763 4.6058 7.69727 5.06518 7.50371L13.649 3.89703C14.1084 3.70346 14.6387 3.92025 14.8323 4.37964C15.0258 4.83902 14.809 5.36938 14.3497 5.56294L5.76588 9.16963C5.65103 9.21737 5.5336 9.2406 5.41618 9.2406Z" fill="#3398D5"/>
<path d="M14.3371 16.4089C14.221 16.4089 14.1023 16.3857 13.9874 16.338L4.81909 12.4848C4.35971 12.2913 4.14292 11.7622 4.33648 11.3015C4.53004 10.8421 5.05911 10.6253 5.51978 10.8189L14.6881 14.6721C15.1475 14.8656 15.3643 15.3947 15.1707 15.8554C15.0262 16.2012 14.6907 16.4089 14.3371 16.4089Z" fill="#3398D5"/>
<path d="M3.13652 13.2906C1.37899 13.2906 -0.0507812 11.8609 -0.0507812 10.1033C-0.0507812 8.34579 1.37899 6.91602 3.13652 6.91602C4.89406 6.91602 6.32383 8.34579 6.32383 10.1033C6.32383 11.8609 4.89406 13.2906 3.13652 13.2906ZM3.13652 8.72259C2.37518 8.72259 1.75579 9.34198 1.75579 10.1033C1.75579 10.8647 2.37518 11.4841 3.13652 11.4841C3.89786 11.4841 4.51726 10.8647 4.51726 10.1033C4.51726 9.34198 3.89786 8.72259 3.13652 8.72259Z" fill="#3398D5"/>
<path d="M16.6891 6.70916C15.4465 6.70916 14.2632 5.97879 13.7496 4.76452C13.4179 3.97995 13.4115 3.11409 13.7315 2.32565C14.0515 1.53721 14.6593 0.919109 15.4426 0.587474C16.2272 0.25584 17.093 0.249388 17.8815 0.569409C18.6699 0.88943 19.288 1.49721 19.6196 2.28049C20.3048 3.89866 19.5448 5.77233 17.9266 6.45753C17.5227 6.62916 17.1021 6.70916 16.6891 6.70916ZM16.684 2.14112C16.502 2.14112 16.3188 2.17726 16.1459 2.25081C15.8065 2.39404 15.5432 2.66245 15.4039 3.00312C15.2658 3.34507 15.2684 3.72058 15.4116 4.05996C15.7084 4.76065 16.5201 5.0897 17.2208 4.79291C17.5602 4.64967 17.8234 4.38127 17.9628 4.0406C18.1008 3.69864 18.0983 3.32314 17.955 2.98376C17.8118 2.64438 17.5447 2.38114 17.2027 2.24178C17.035 2.17338 16.8595 2.13983 16.684 2.13983V2.14112Z" fill="#3398D5"/>
<path d="M16.8171 19.6155C16.4712 19.6155 16.1241 19.5587 15.786 19.4438C14.9808 19.169 14.3292 18.5973 13.9537 17.8334C13.5782 17.0695 13.5227 16.2049 13.7962 15.3984C14.3627 13.7351 16.177 12.8421 17.8404 13.4086C18.6469 13.6835 19.2972 14.2551 19.6727 15.019C20.0483 15.783 20.1037 16.6475 19.8302 17.454C19.5553 18.2593 18.9837 18.9109 18.2197 19.2864C17.7758 19.5045 17.2971 19.6155 16.8158 19.6155H16.8171ZM16.8158 15.0461C16.2403 15.0461 15.7035 15.4075 15.5073 15.9817C15.3886 16.3314 15.4131 16.7056 15.5757 17.0359C15.7383 17.3676 16.0209 17.614 16.3693 17.7341C17.0893 17.9792 17.8765 17.5934 18.1217 16.8721C18.3669 16.152 17.981 15.3662 17.2597 15.1197C17.1126 15.0694 16.9629 15.0461 16.8158 15.0461Z" fill="#3398D5"/>
</g>
<defs>
<clipPath id="clip0_2_47522">
<rect width="20" height="20" fill="white"/>
</clipPath>
</defs>
</svg>
