<svg width="14" height="14" viewBox="0 0 14 14" fill="none" xmlns="http://www.w3.org/2000/svg">
<g id="Frame" clip-path="url(#clip0_418_74277)">
<g id="Group">
<path id="Vector" d="M6.99918 7.02025C8.86027 7.02025 10.3734 5.52503 10.3734 3.68591C10.3734 1.84678 8.86027 0.351562 6.99918 0.351562C5.13808 0.351562 3.625 1.84678 3.625 3.68591C3.625 5.52503 5.13808 7.02025 6.99918 7.02025ZM6.99918 1.09917C8.44417 1.09917 9.61681 2.25797 9.61681 3.68591C9.61681 5.11384 8.44417 6.27264 6.99918 6.27264C5.55418 6.27264 4.38154 5.10637 4.38154 3.68591C4.38154 2.25797 5.55418 1.09917 6.99918 1.09917Z" fill="#1D4EA5"/>
<path id="Vector_2" d="M13.6488 13.3896C13.1041 10.2347 10.3351 7.55078 6.99877 7.55078C3.66243 7.55078 0.901048 10.2347 0.348773 13.3896C0.326076 13.5242 0.431992 13.6513 0.575735 13.6513H13.4218C13.558 13.6513 13.6715 13.5242 13.6488 13.3896ZM12.4534 12.9037H1.54411C1.3928 12.9037 1.27932 12.7542 1.32471 12.6121C1.65759 11.6028 2.25526 10.6683 3.05719 9.92071C4.16931 8.87405 5.56891 8.29839 6.99877 8.29839C8.42864 8.29839 9.82824 8.87405 10.9404 9.92071C11.7423 10.6758 12.3324 11.6028 12.6728 12.6121C12.7182 12.7542 12.6123 12.9037 12.4534 12.9037Z" fill="#1D4EA5"/>
</g>
</g>
<defs>
<clipPath id="clip0_418_74277">
<rect width="13.3" height="13.3" fill="white" transform="translate(0.349609 0.351562)"/>
</clipPath>
</defs>
</svg>
