<svg width="14" height="15" viewBox="0 0 14 15" fill="none" xmlns="http://www.w3.org/2000/svg">
<g clip-path="url(#clip0_2_33161)">
<path d="M13.8223 8.59738C14.6926 4.83102 12.3448 1.07232 8.5784 0.202096C4.81203 -0.66813 1.05333 1.67965 0.183107 5.44601C-0.687119 9.21238 1.66066 12.9711 5.42703 13.8413C9.1934 14.7115 12.9521 12.3637 13.8223 8.59738Z" fill="url(#paint0_linear_2_33161)"/>
<path d="M4.28444 5.68611C4.6508 5.68611 4.94779 5.19936 4.94779 4.59891C4.94779 3.99847 4.6508 3.51172 4.28444 3.51172C3.91809 3.51172 3.62109 3.99847 3.62109 4.59891C3.62109 5.19936 3.91809 5.68611 4.28444 5.68611Z" fill="black"/>
<path d="M9.53444 5.68611C9.9008 5.68611 10.1978 5.19936 10.1978 4.59891C10.1978 3.99847 9.9008 3.51172 9.53444 3.51172C9.16809 3.51172 8.87109 3.99847 8.87109 4.59891C8.87109 5.19936 9.16809 5.68611 9.53444 5.68611Z" fill="black"/>
<path d="M9.85498 10.1193C9.26711 10.6447 8.37007 11.0381 6.99983 11.0381C5.62958 11.0381 4.73108 10.6433 4.14466 10.1178C2.97473 9.07272 3.0357 7.50507 3.0357 7.50507C5.66697 7.14935 8.33414 7.14935 10.9654 7.50507C10.9654 7.50507 11.0264 9.07272 9.85498 10.1193Z" fill="#5B0600"/>
<path d="M9.85485 10.1194C9.26698 10.6449 8.36994 11.0383 6.9997 11.0383C5.62945 11.0383 4.73095 10.6434 4.14453 10.118C4.73966 9.62738 5.79493 9.30078 6.9997 9.30078C8.20447 9.30078 9.25973 9.62737 9.85485 10.1194Z" fill="#8E1112"/>
</g>
<defs>
<linearGradient id="paint0_linear_2_33161" x1="0.938604" y1="10.5186" x2="13.0647" y2="3.51789" gradientUnits="userSpaceOnUse">
<stop stop-color="#EBB34D"/>
<stop offset="0.03" stop-color="#ECB64D"/>
<stop offset="0.18" stop-color="#EEC04F"/>
<stop offset="0.55" stop-color="#F1CC51"/>
<stop offset="1" stop-color="#F3D652"/>
</linearGradient>
<clipPath id="clip0_2_33161">
<rect width="14" height="14" fill="white" transform="translate(0 0.0195312)"/>
</clipPath>
</defs>
</svg>
