<svg width="40" height="50" viewBox="0 0 40 50" fill="none" xmlns="http://www.w3.org/2000/svg">
<g clip-path="url(#clip0_2_44593)">
<path d="M30.9232 49.7827C29.4867 49.7827 28.1434 49.1981 27.1397 48.1367C26.1359 47.0752 25.6061 45.6753 25.6471 44.1908L26.2889 20.0542C23.7554 18.0852 22.2031 14.6085 22.2031 10.8511C22.2031 4.86696 26.1173 0.00195312 30.927 0.00195312C35.7367 0.00195312 39.6508 4.87081 39.6508 10.8511C39.6508 14.6085 38.0949 18.0852 35.565 20.0542L36.2068 44.1908C36.2478 45.6715 35.7143 47.0714 34.7143 48.1367C33.7105 49.1981 32.3673 49.7827 30.9307 49.7827H30.9232ZM30.9232 3.84781C28.1695 3.84781 25.9307 6.98987 25.9307 10.8511C25.9307 13.4932 27.0389 15.9623 28.7553 17.1468C29.58 17.716 30.0538 18.6659 30.0277 19.6966L29.3747 44.2947C29.3635 44.7293 29.5203 45.1408 29.8113 45.4523C30.1061 45.7638 30.4979 45.9369 30.9195 45.9369C31.3411 45.9369 31.7367 45.7638 32.0277 45.4523C32.3225 45.1408 32.4792 44.7293 32.4643 44.2947L31.8113 19.6966C31.7852 18.6697 32.2591 17.716 33.0837 17.1468C34.8001 15.9661 35.9083 13.4932 35.9083 10.8511C35.9083 6.98987 33.6695 3.84781 30.9158 3.84781H30.9232Z" fill="#A1C3CE"/>
<path d="M8.63324 14.9422C7.6034 14.9422 6.76758 14.0807 6.76758 13.0193V2.23933C6.76758 1.17788 7.6034 0.316406 8.63324 0.316406C9.66309 0.316406 10.4989 1.17788 10.4989 2.23933V13.0193C10.4989 14.0807 9.66309 14.9422 8.63324 14.9422Z" fill="#A1C3CE"/>
<path d="M8.6556 49.9972C7.24143 49.9972 5.92427 49.4203 4.94293 48.3704C3.96159 47.3205 3.4504 45.9436 3.50264 44.4861L4.28622 22.3493C4.3198 21.3955 4.11831 20.4456 3.69667 19.5995C3.03249 18.2573 2.21906 16.7036 1.65563 15.6383C0.913099 14.2346 0.517578 12.6424 0.517578 11.0425V2.23933C0.517578 1.17788 1.3534 0.316406 2.38324 0.316406C3.41309 0.316406 4.24891 1.17788 4.24891 2.23933V11.0463C4.24891 12.004 4.48398 12.9577 4.93174 13.8C5.50636 14.8884 6.33845 16.4728 7.02128 17.8535C7.7265 19.2803 8.06979 20.884 8.01382 22.4916L7.23024 44.6245C7.21531 45.0283 7.3571 45.4091 7.62949 45.6975C7.90188 45.9859 8.26755 46.1475 8.6556 46.1475C9.04366 46.1475 9.41306 45.9859 9.68545 45.6937C9.95784 45.4014 10.0996 45.0168 10.081 44.613L9.19665 22.557C9.12948 20.911 9.48396 19.2649 10.2228 17.8035L12.2489 13.7884C12.6593 12.9731 12.8795 12.054 12.8795 11.1348V2.23933C12.8795 1.17788 13.7153 0.316406 14.7451 0.316406C15.775 0.316406 16.6108 1.17788 16.6108 2.23933V11.1425C16.6108 12.677 16.2489 14.2076 15.5623 15.5691L13.5362 19.5841C13.0996 20.4533 12.8869 21.4263 12.928 22.407L13.8123 44.463C13.872 45.9244 13.3608 47.3089 12.3795 48.3627C11.3981 49.4164 10.0772 49.9972 8.6556 49.9972Z" fill="#A1C3CE"/>
</g>
<defs>
<clipPath id="clip0_2_44593">
<rect width="39.1304" height="50" fill="white" transform="translate(0.517578)"/>
</clipPath>
</defs>
</svg>
