<svg width="20" height="20" viewBox="0 0 20 20" fill="none" xmlns="http://www.w3.org/2000/svg">
<circle cx="10" cy="10" r="10" fill="#EDF7FF"/>
<g clip-path="url(#clip0_5121_17371)">
<path d="M11.0031 14.6501C10.496 14.6501 10.0348 14.5597 9.63385 14.3825C9.46073 14.3059 9.38272 14.104 9.45936 13.9316C9.536 13.7585 9.73786 13.6805 9.91029 13.7571C10.2244 13.896 10.5918 13.9665 11.0031 13.9665C11.2556 13.9665 11.4909 13.9419 11.7031 13.8926C11.9166 13.844 12.1164 13.7756 12.2984 13.688C12.4818 13.6004 12.6569 13.493 12.8198 13.3698C12.8465 13.3493 12.8725 13.3294 12.8985 13.3096C13.0887 13.1597 13.3405 13.1173 13.5698 13.196C13.7969 13.2733 13.9687 13.4574 14.031 13.688C14.0631 13.7879 14.1076 13.8351 14.2615 13.8351H15.2845C15.3023 13.8351 15.3174 13.8207 15.3174 13.8023V6.06867C15.3174 6.05088 15.303 6.03583 15.2845 6.03583H13.7634C13.7456 6.03583 13.7306 6.0502 13.7306 6.06867V11.1911C13.7306 11.7399 13.4425 12.2558 12.9792 12.5377C12.9026 12.5843 12.8232 12.6281 12.7445 12.6684C12.4181 12.8313 12.0651 12.9141 11.6942 12.9141C11.1618 12.9141 10.7485 12.7417 10.4645 12.4009C10.1963 12.0779 10.0601 11.6345 10.0601 11.0837V6.06867C10.0601 6.05088 10.0458 6.03583 10.0273 6.03583H8.50617C8.48838 6.03583 8.47333 6.0502 8.47333 6.06867V6.69204C8.47333 6.8809 8.32005 7.03418 8.1312 7.03418C7.94234 7.03418 7.78906 6.8809 7.78906 6.69204V6.06867C7.78906 5.67317 8.11067 5.35156 8.50617 5.35156H10.0273C10.4228 5.35156 10.7444 5.67317 10.7444 6.06867V11.0837C10.7444 11.471 10.8272 11.7673 10.9908 11.9636C11.1399 12.1429 11.3705 12.2305 11.6942 12.2305C11.9617 12.2305 12.2053 12.1737 12.438 12.0574C12.4996 12.0266 12.5625 11.9917 12.6234 11.9547C12.8841 11.796 13.0463 11.5038 13.0463 11.1925V6.06867C13.0463 5.67317 13.3679 5.35156 13.7634 5.35156H15.2845C15.68 5.35156 16.0016 5.67317 16.0016 6.06867V13.8016C16.0016 14.1971 15.68 14.5187 15.2845 14.5187H14.2615C13.8236 14.5187 13.5013 14.2874 13.3754 13.8837C13.3734 13.8775 13.372 13.8714 13.3706 13.8659C13.3693 13.8611 13.3665 13.8488 13.3494 13.8426C13.3337 13.8372 13.3255 13.844 13.3214 13.8467C13.2919 13.87 13.2632 13.8919 13.2338 13.9145C13.0353 14.0657 12.8198 14.1971 12.5954 14.3045C12.3675 14.414 12.1191 14.4995 11.8563 14.5591C11.595 14.6193 11.3083 14.6501 11.0038 14.6501H11.0031Z" fill="#1E54B0"/>
<path d="M6.9403 13.5625H6.3792C6.19239 13.5625 6.0268 13.4359 5.97753 13.2539L5.88037 12.8632C5.87831 12.8543 5.8701 12.8461 5.85916 12.8413C5.84273 12.8344 5.83178 12.8344 5.82357 12.8392L5.48418 13.0431C5.32064 13.1417 5.11262 13.1163 4.9785 12.9822L4.58026 12.584C4.44614 12.4499 4.42151 12.2418 4.51936 12.0783L4.72327 11.7389C4.72806 11.7307 4.72806 11.7197 4.72327 11.7095L4.72053 11.7033C4.71574 11.6924 4.70822 11.6842 4.69932 11.6821L4.31545 11.5849C4.13275 11.5412 4 11.3735 4 11.1847V10.6236C4 10.4347 4.13275 10.2664 4.31545 10.2233L4.69932 10.1261C4.70822 10.124 4.71643 10.1158 4.72053 10.1049C4.72053 10.1049 4.72327 10.0987 4.72327 10.098C4.72738 10.0871 4.72738 10.0761 4.72327 10.0686L4.51936 9.72921C4.42082 9.56567 4.44614 9.35766 4.58026 9.22354L4.9785 8.8253C5.11262 8.69118 5.32064 8.66655 5.48418 8.7644L5.82357 8.96831C5.83178 8.9731 5.84273 8.9731 5.85368 8.96831C5.86873 8.96215 5.87695 8.95394 5.879 8.94504L5.97548 8.54338C5.97548 8.54338 5.97685 8.5379 5.97753 8.53517C6.0268 8.35384 6.19239 8.22656 6.3792 8.22656H6.9403C7.1271 8.22656 7.2927 8.35315 7.34196 8.53517C7.34265 8.5379 7.34333 8.54064 7.34402 8.54338L7.4405 8.94504C7.44255 8.95394 7.45076 8.96215 7.46171 8.96694C7.47608 8.9731 7.48771 8.97241 7.49524 8.96831L7.83464 8.7644C7.99818 8.66586 8.20619 8.69118 8.34031 8.8253L8.73855 9.22354C8.87267 9.35766 8.8973 9.56567 8.79945 9.72921L8.59554 10.0686C8.59075 10.0768 8.59075 10.0878 8.59554 10.098C8.60238 10.1138 8.60991 10.122 8.61949 10.124L9.02047 10.2226C9.20454 10.2657 9.33729 10.434 9.33729 10.6236V11.1847C9.33729 11.3756 9.20317 11.5439 9.01773 11.5863L8.61949 11.6842C8.6106 11.6862 8.60238 11.6944 8.59759 11.7054C8.59144 11.7211 8.59144 11.7321 8.59623 11.7403L8.80014 12.0797C8.89867 12.2432 8.87335 12.4512 8.73924 12.5853L8.34099 12.9836C8.20688 13.1177 7.99886 13.1423 7.83532 13.0445L7.49592 12.8406C7.4884 12.8358 7.47676 12.8358 7.46582 12.8406C7.46513 12.8406 7.45966 12.8433 7.45897 12.8433C7.44939 12.8474 7.44118 12.8556 7.43913 12.8645L7.34333 13.2498C7.29201 13.4373 7.1271 13.5638 6.9403 13.5638V13.5625ZM6.48184 13.0151H6.83697L6.90745 12.7311C6.95125 12.5539 7.08057 12.4054 7.25164 12.3356C7.42613 12.2637 7.62046 12.2774 7.77647 12.3705L8.0276 12.521L8.27667 12.272L8.12613 12.0208C8.03239 11.8648 8.0187 11.6705 8.08918 11.5001C8.16103 11.3242 8.3102 11.1956 8.48811 11.1518L8.78919 11.0779V10.7289L8.48811 10.655C8.3102 10.6112 8.16103 10.4826 8.09055 10.3102C8.0187 10.1364 8.03239 9.94202 8.12613 9.78601L8.27667 9.53488L8.0276 9.28581L7.77647 9.43635C7.62046 9.53009 7.42613 9.54378 7.25574 9.4733C7.07989 9.40077 6.95056 9.2516 6.90745 9.07232L6.8356 8.77329H6.48184L6.40999 9.07232C6.36688 9.2516 6.23756 9.40145 6.06444 9.47261C5.89132 9.54446 5.69698 9.53078 5.54097 9.43703L5.28984 9.28649L5.04077 9.53557L5.19131 9.78669C5.28505 9.94271 5.29874 10.137 5.22826 10.3074C5.15641 10.4826 5.00929 10.6112 4.83344 10.6557L4.54741 10.7282V11.0793L4.83344 11.1518C5.00998 11.1963 5.15641 11.3249 5.22689 11.4953C5.29942 11.6705 5.28574 11.8648 5.19199 12.0208L5.04146 12.272L5.29053 12.521L5.54165 12.3705C5.69767 12.2767 5.892 12.2631 6.06238 12.3335C6.23756 12.4054 6.36688 12.5539 6.41067 12.7311L6.48115 13.0151H6.48184ZM8.89183 11.0526C8.89183 11.0526 8.88909 11.0526 8.88772 11.054L8.89183 11.0526Z" fill="#1E54B0"/>
<path d="M6.65921 11.9298C6.09332 11.9298 5.63281 11.4692 5.63281 10.9034C5.63281 10.3375 6.09332 9.87695 6.65921 9.87695C7.2251 9.87695 7.68562 10.3375 7.68562 10.9034C7.68562 11.4692 7.2251 11.9298 6.65921 11.9298ZM6.65921 10.4244C6.39509 10.4244 6.18023 10.6392 6.18023 10.9034C6.18023 11.1675 6.39509 11.3823 6.65921 11.3823C6.92334 11.3823 7.1382 11.1675 7.1382 10.9034C7.1382 10.6392 6.92334 10.4244 6.65921 10.4244Z" fill="#1E54B0"/>
</g>
<defs>
<clipPath id="clip0_5121_17371">
<rect width="12" height="9.29851" fill="white" transform="translate(4 5.35156)"/>
</clipPath>
</defs>
</svg>
