<svg width="44" height="44" viewBox="0 0 44 44" fill="none" xmlns="http://www.w3.org/2000/svg">
<g clip-path="url(#clip0_3047_3917)">
<path opacity="0.17" d="M7.56445 34.6143L11.6503 31.9785L16.5289 38.3049L13.0687 41.4353L7.56445 34.6143Z" fill="url(#paint0_linear_3047_3917)"/>
<path d="M13.5886 38.9825C14.0901 38.9825 14.4966 38.576 14.4966 38.0745C14.4966 37.5731 14.0901 37.1666 13.5886 37.1666C13.0872 37.1666 12.6807 37.5731 12.6807 38.0745C12.6807 38.576 13.0872 38.9825 13.5886 38.9825Z" fill="#224086"/>
<path opacity="0.17" d="M12.6309 32.3241L14.8533 30.4021L17.6224 28.8459H19.9849L22.6026 29.7674L25.1752 30.585H27.4338L28.8183 31.4117V32.3151C28.8183 32.3151 30.6049 31.5652 31.1244 30.576C31.6438 29.5867 32.9742 29.5867 32.9742 29.5867L34.9301 28.8368C34.9301 28.8368 36.6038 28.3738 37.2949 29.4128L28.8183 37.1553L26.5755 37.7742L21.1549 37.4873L18.0402 36.6968L15.7816 37.3021L12.6309 32.3241Z" fill="url(#paint1_linear_3047_3917)"/>
<path d="M24.4815 38.3794C23.5256 38.3935 22.5732 38.2594 21.6583 37.9819C20.1437 37.4777 18.5373 37.3104 16.9513 37.4918L16.1834 37.9435C16.119 37.9845 16.047 38.012 15.9717 38.0244C15.8965 38.0368 15.8194 38.0338 15.7453 38.0156C15.6713 37.9974 15.6016 37.9644 15.5406 37.9185C15.4797 37.8726 15.4286 37.8149 15.3906 37.7487C15.3526 37.6826 15.3283 37.6094 15.3193 37.5337C15.3104 37.4579 15.3169 37.3811 15.3384 37.3079C15.3599 37.2347 15.3961 37.1666 15.4446 37.1078C15.4932 37.0489 15.5532 37.0006 15.621 36.9655L16.477 36.4709C16.5314 36.4389 16.591 36.4167 16.6532 36.4054C16.7503 36.3851 19.0699 35.9537 22.0083 36.9159C23.8514 37.5166 26.1416 37.1982 27.3432 36.9565C27.8378 36.8554 28.2991 36.6318 28.6848 36.306L36.617 29.6522C35.9891 29.0039 35.1851 29.0423 34.2229 29.7651C33.9493 29.9755 33.6169 30.0955 33.272 30.1084C32.6735 30.1287 31.2709 30.2891 31.1264 31.3077C31.1051 31.4575 31.0252 31.5927 30.9043 31.6835C30.7833 31.7744 30.6313 31.8135 30.4815 31.7922C30.3318 31.7709 30.1966 31.6911 30.1057 31.5701C30.0149 31.4492 29.9758 31.2971 29.9971 31.1474C30.1845 29.8351 31.3522 29.0469 33.2201 28.9791C33.3336 28.9747 33.4427 28.9344 33.5318 28.8639C35.7136 27.2196 37.1456 28.55 37.5363 28.9972C37.6251 29.099 37.6926 29.2175 37.7349 29.3458C37.7773 29.4741 37.7935 29.6095 37.7828 29.7442C37.7721 29.8788 37.7346 30.01 37.6724 30.1299C37.6103 30.2499 37.5249 30.3562 37.4211 30.4427L29.3985 37.1733C28.8675 37.6183 28.2342 37.9241 27.5555 38.0632C26.5436 38.2685 25.514 38.3744 24.4815 38.3794Z" fill="#224086"/>
<path d="M25.4934 34.2326C24.8158 34.2326 24.0389 34.1852 23.5736 34.0068C22.6137 33.8238 21.5408 33.8419 21.3556 34.0497C21.3056 34.1045 21.2453 34.149 21.1782 34.1806C21.111 34.2122 21.0383 34.2302 20.9641 34.2337C20.89 34.2371 20.8159 34.2259 20.7461 34.2008C20.6762 34.1756 20.6121 34.1369 20.5572 34.0869C20.5023 34.037 20.4578 33.9767 20.4263 33.9095C20.3947 33.8423 20.3767 33.7696 20.3732 33.6954C20.3698 33.6213 20.3809 33.5472 20.4061 33.4774C20.4313 33.4076 20.47 33.3434 20.5199 33.2885C21.2698 32.4664 23.2574 32.7916 23.8491 32.9113C23.8914 32.9183 23.9325 32.9312 23.9711 32.9497C24.3822 33.1349 25.778 33.1304 26.6295 33.0649L27.6413 32.961C27.7273 32.9515 27.81 32.9225 27.8832 32.8763C27.9563 32.8302 28.0181 32.768 28.0637 32.6945L28.1812 32.5025C28.2484 32.3914 28.2755 32.2605 28.2578 32.1318C28.2401 32.0032 28.1787 31.8844 28.084 31.7956L27.5329 31.2806C27.4287 31.1833 27.2915 31.1292 27.149 31.1293H24.8158C24.4277 31.1297 24.0454 31.0351 23.7023 30.8537C22.9073 30.4336 20.8294 29.4466 18.6814 29.3472C16.1292 29.232 14.2365 31.7323 14.2184 31.7572C14.1879 31.7964 14.153 31.832 14.1145 31.8633L12.5335 33.1146C12.4161 33.2077 12.2665 33.2504 12.1176 33.2333C11.9687 33.2161 11.8327 33.1405 11.7396 33.0231C11.6464 32.9057 11.6037 32.7561 11.6209 32.6072C11.6381 32.4583 11.7137 32.3224 11.8311 32.2292L13.3579 31.0209C13.708 30.5691 15.7904 28.0847 18.7334 28.2202C21.1094 28.3286 23.3703 29.3992 24.2308 29.8554C24.411 29.951 24.6119 30.0006 24.8158 30H27.1603C27.5891 29.9981 28.0026 30.1596 28.3167 30.4517L28.8678 30.9667C29.1514 31.2342 29.3347 31.591 29.3869 31.9774C29.4391 32.3639 29.3571 32.7565 29.1546 33.0897L29.0372 33.2795C28.9008 33.5009 28.7155 33.6882 28.4954 33.8268C28.2754 33.9654 28.0265 34.0517 27.7678 34.079L26.7402 34.1852C26.555 34.1987 26.0648 34.2326 25.4934 34.2326Z" fill="#224086"/>
<path d="M13.0707 41.9932H13.0255C12.9491 41.9869 12.8747 41.9652 12.8068 41.9295C12.7389 41.8938 12.6788 41.8448 12.6303 41.7854L7.12604 34.9621C7.07667 34.9004 7.04077 34.829 7.02064 34.7525C7.00051 34.6761 6.99659 34.5962 7.00914 34.5182C7.02169 34.4401 7.05043 34.3656 7.09351 34.2993C7.13659 34.233 7.19307 34.1764 7.25931 34.1332L11.3474 31.4974C11.4663 31.4214 11.6093 31.3925 11.7484 31.4163C11.8874 31.4401 12.0127 31.515 12.0995 31.6262L16.9781 37.9503C17.0641 38.0632 17.1047 38.2043 17.0917 38.3456C17.0787 38.487 17.0132 38.6183 16.9081 38.7137L13.4479 41.8441C13.3452 41.9392 13.2106 41.9924 13.0707 41.9932ZM8.3999 34.7408L13.143 40.6132L15.7743 38.2326L11.5213 32.7329L8.3999 34.7408Z" fill="#224086"/>
<path opacity="0.17" d="M34.2253 14.6188L31.9667 14.061C31.8411 13.6619 31.6817 13.2743 31.4901 12.9023L32.6488 10.9689C32.7152 10.8612 32.7436 10.7343 32.7292 10.6086C32.7149 10.4828 32.6587 10.3655 32.5698 10.2755L30.9549 8.66288C30.8651 8.57355 30.7478 8.51714 30.6219 8.5028C30.4961 8.48845 30.3691 8.51701 30.2615 8.58384L28.3303 9.7425C27.9584 9.55026 27.5708 9.39007 27.1717 9.26368L26.6251 7.00506C26.5925 6.88226 26.5205 6.77355 26.4201 6.69562C26.3197 6.61769 26.1965 6.57485 26.0695 6.57367H23.7838C23.6567 6.57485 23.5335 6.61769 23.4332 6.69562C23.3328 6.77355 23.2608 6.88226 23.2281 7.00506L22.6816 9.26368C22.2824 9.39007 21.8948 9.55026 21.5229 9.7425L19.5895 8.58384C19.4819 8.51701 19.3549 8.48845 19.2291 8.5028C19.1032 8.51714 18.9859 8.57355 18.8961 8.66288L17.2835 10.2755C17.1942 10.3653 17.1377 10.4826 17.1234 10.6085C17.109 10.7343 17.1376 10.8613 17.2044 10.9689L18.3631 12.9023C18.1706 13.2738 18.0112 13.6615 17.8865 14.061L15.6912 14.6188C15.5685 14.6478 15.4592 14.7173 15.3809 14.8161C15.3026 14.9148 15.2599 15.0371 15.2598 15.1632V17.4353C15.2598 17.5617 15.3024 17.6843 15.3807 17.7834C15.459 17.8826 15.5683 17.9525 15.6912 17.9819L17.8865 18.5398C18.0112 18.9392 18.1706 19.3269 18.3631 19.6985L17.2044 21.6296C17.1376 21.7372 17.109 21.8642 17.1234 21.99C17.1377 22.1159 17.1942 22.2332 17.2835 22.323L18.8961 23.9379C18.9865 24.0261 19.1037 24.0818 19.2293 24.0961C19.3548 24.1105 19.4816 24.0826 19.5895 24.0169L21.5229 22.8583C21.8949 23.0498 22.2825 23.2092 22.6816 23.3348L23.2349 25.5279C23.2675 25.6507 23.3396 25.7595 23.4399 25.8374C23.5403 25.9153 23.6635 25.9582 23.7905 25.9593H26.0582C26.1868 25.9601 26.312 25.9182 26.4142 25.8401C26.5164 25.762 26.5898 25.6522 26.6228 25.5279L27.1694 23.3348C27.5685 23.2092 27.9561 23.0498 28.3281 22.8583L30.2592 24.0169C30.367 24.083 30.4939 24.1111 30.6195 24.0967C30.7452 24.0824 30.8624 24.0265 30.9526 23.9379L32.5675 22.323C32.6565 22.233 32.7126 22.1157 32.727 21.9899C32.7413 21.8642 32.713 21.7373 32.6466 21.6296L31.4879 19.6985C31.6794 19.3265 31.8388 18.9389 31.9645 18.5398L34.2231 17.9819C34.3461 17.9529 34.4557 17.883 34.534 17.7838C34.6123 17.6846 34.6548 17.5618 34.6545 17.4353V15.1632C34.6548 15.0373 34.6126 14.9151 34.5347 14.8163C34.4568 14.7175 34.3478 14.6479 34.2253 14.6188ZM24.9199 19.1361C24.3573 19.1379 23.8069 18.9726 23.3384 18.6613C22.8698 18.35 22.5042 17.9066 22.2879 17.3873C22.0716 16.868 22.0143 16.2962 22.1233 15.7443C22.2323 15.1924 22.5026 14.6853 22.9001 14.2872C23.2975 13.8891 23.8042 13.618 24.3559 13.5081C24.9077 13.3983 25.4796 13.4546 25.9992 13.6701C26.5188 13.8856 26.9628 14.2505 27.2749 14.7185C27.5869 15.1866 27.753 15.7367 27.7521 16.2993C27.7521 17.0513 27.454 17.7726 26.9231 18.3052C26.3922 18.8378 25.6719 19.1382 24.9199 19.1406V19.1361Z" fill="url(#paint2_linear_3047_3917)"/>
<path d="M26.0581 26.524H23.7837C23.5329 26.5228 23.2894 26.4392 23.0907 26.2862C22.892 26.1332 22.749 25.9192 22.6837 25.677L22.2094 23.7708C21.9835 23.6917 21.7577 23.5991 21.5499 23.4997L19.8808 24.5003C19.6653 24.6314 19.4121 24.6867 19.1616 24.6572C18.9111 24.6277 18.6777 24.5152 18.4985 24.3377L16.8836 22.7228C16.7057 22.5439 16.5927 22.3106 16.5629 22.06C16.533 21.8095 16.5878 21.5562 16.7187 21.3405L17.7215 19.6714C17.6199 19.4455 17.5296 19.2332 17.4483 19.0096L15.5555 18.5285C15.3114 18.4682 15.0945 18.3281 14.939 18.1305C14.7835 17.9329 14.6985 17.689 14.6973 17.4376V15.1632C14.6982 14.9091 14.7848 14.6628 14.943 14.4641C15.1011 14.2653 15.3217 14.1257 15.5691 14.0678L17.4505 13.5889C17.5318 13.3631 17.6222 13.1372 17.7238 12.9294L16.721 11.2603C16.5901 11.0446 16.5352 10.7913 16.5651 10.5407C16.595 10.2902 16.7079 10.0569 16.8859 9.87803L18.5008 8.26313C18.6796 8.08518 18.9129 7.97226 19.1635 7.94238C19.414 7.9125 19.6673 7.96737 19.883 8.09825L21.5521 9.10107C21.778 8.99943 21.9858 8.90909 22.2071 8.83004L22.6814 6.86279C22.7447 6.61734 22.8873 6.39967 23.087 6.24363C23.2867 6.0876 23.5325 6.00194 23.7859 6H26.0581C26.3089 6.00124 26.5523 6.08479 26.751 6.2378C26.9497 6.39081 27.0927 6.60483 27.158 6.84698L27.6368 8.83004C27.8627 8.90909 28.0886 8.99943 28.2918 9.10107L29.961 8.09825C30.1767 7.96737 30.43 7.9125 30.6805 7.94238C30.9311 7.97226 31.1644 8.08518 31.3432 8.26313L32.9581 9.87803C33.1357 10.0572 33.2482 10.2906 33.2777 10.5411C33.3072 10.7917 33.2519 11.0448 33.1208 11.2603L32.1202 12.9294C32.2217 13.1437 32.3122 13.3631 32.3912 13.5867L34.3562 14.0678C34.6023 14.127 34.8214 14.2672 34.9782 14.4658C35.1351 14.6645 35.2207 14.9101 35.2213 15.1632V17.4376C35.2203 17.6916 35.1338 17.9379 34.9756 18.1367C34.8174 18.3355 34.5968 18.4751 34.3494 18.533L32.3912 19.0141C32.3129 19.2355 32.2226 19.4545 32.1202 19.6714L33.1208 21.3405C33.2519 21.556 33.3072 21.8091 33.2777 22.0596C33.2482 22.3102 33.1357 22.5436 32.9581 22.7228L31.3432 24.3377C31.1641 24.5152 30.9306 24.6277 30.6801 24.6572C30.4296 24.6867 30.1764 24.6314 29.961 24.5003L28.2918 23.4997C28.066 23.5991 27.8559 23.6917 27.6323 23.7708L27.1625 25.6657C27.0981 25.9101 26.9551 26.1266 26.7555 26.2817C26.5559 26.4368 26.3108 26.5219 26.0581 26.524ZM21.5228 22.2936C21.6122 22.2937 21.7003 22.3146 21.7803 22.3546C22.1235 22.5356 22.4817 22.6867 22.8508 22.8063C22.9434 22.835 23.0269 22.8871 23.0934 22.9575C23.1599 23.0279 23.207 23.1143 23.2303 23.2084L23.7746 25.4015H26.0581L26.6114 23.2061C26.6347 23.1121 26.6819 23.0257 26.7484 22.9552C26.8148 22.8848 26.8984 22.8327 26.9909 22.8041C27.36 22.6844 27.7182 22.5333 28.0615 22.3523C28.1471 22.309 28.2423 22.288 28.3382 22.2911C28.4341 22.2943 28.5277 22.3216 28.6103 22.3704L30.5414 23.5313L32.1586 21.9209L30.9931 19.9853C30.944 19.9027 30.9168 19.809 30.914 19.7129C30.9113 19.6169 30.9331 19.5217 30.9773 19.4365C31.1574 19.0936 31.3085 18.7362 31.4291 18.3682C31.4579 18.2754 31.5103 18.1916 31.5812 18.1251C31.652 18.0586 31.7389 18.0116 31.8333 17.9887L34.092 17.4308V15.1722L31.8333 14.6166C31.7391 14.5933 31.6524 14.5461 31.5816 14.4797C31.5109 14.4132 31.4583 14.3297 31.4291 14.2372C31.3085 13.8684 31.1574 13.5103 30.9773 13.1666C30.9331 13.0813 30.9113 12.9861 30.914 12.8901C30.9168 12.7941 30.944 12.7003 30.9931 12.6177L32.1541 10.6866L30.5459 9.06945L28.6103 10.2326C28.5281 10.2825 28.4344 10.3104 28.3382 10.3135C28.2421 10.3167 28.1468 10.2951 28.0615 10.2507C27.7182 10.0697 27.36 9.91854 26.9909 9.79899C26.8977 9.77012 26.8137 9.71743 26.7471 9.64613C26.6806 9.57482 26.6338 9.48737 26.6114 9.39243L26.0649 7.12253H23.7837L23.2303 9.38114C23.2079 9.47608 23.1611 9.56353 23.0946 9.63483C23.028 9.70614 22.944 9.75883 22.8508 9.78769C22.4817 9.90725 22.1235 10.0584 21.7803 10.2394C21.6949 10.2838 21.5996 10.3054 21.5035 10.3023C21.4074 10.2991 21.3137 10.2712 21.2314 10.2213L19.3003 9.06268L17.6831 10.6708L18.8463 12.6064C18.8962 12.6887 18.9241 12.7824 18.9272 12.8785C18.9304 12.9746 18.9088 13.0699 18.8644 13.1553C18.6882 13.4993 18.5409 13.8574 18.424 14.2259C18.3954 14.3178 18.3436 14.4008 18.2735 14.4669C18.2035 14.5329 18.1176 14.5798 18.0242 14.603L15.8311 15.1609V17.4331L18.031 17.9865C18.1243 18.0107 18.2099 18.0582 18.2799 18.1246C18.3498 18.1909 18.4017 18.274 18.4307 18.3659C18.5477 18.7336 18.695 19.0909 18.8712 19.4342C18.9155 19.5196 18.9372 19.6149 18.934 19.711C18.9308 19.8071 18.903 19.9008 18.8531 19.9831L17.6944 21.9164L19.3026 23.5336L21.2382 22.3682C21.3251 22.3194 21.4231 22.2937 21.5228 22.2936ZM24.9107 19.7053C24.2371 19.7053 23.5785 19.5055 23.0184 19.1312C22.4583 18.757 22.0218 18.225 21.764 17.6027C21.5062 16.9803 21.4387 16.2955 21.5702 15.6348C21.7016 14.9741 22.026 14.3672 22.5023 13.8909C22.9786 13.4145 23.5855 13.0901 24.2462 12.9587C24.9069 12.8273 25.5917 12.8948 26.2141 13.1525C26.8365 13.4103 27.3684 13.8469 27.7427 14.407C28.1169 14.9671 28.3167 15.6256 28.3167 16.2993C28.3155 17.2007 27.9575 18.0649 27.321 18.7032C26.6844 19.3414 25.8211 19.7017 24.9197 19.7053H24.9107ZM24.9107 14.0226C24.4604 14.0226 24.0202 14.1561 23.6458 14.4063C23.2714 14.6564 22.9796 15.012 22.8073 15.428C22.635 15.844 22.5899 16.3018 22.6778 16.7434C22.7656 17.1851 22.9824 17.5907 23.3008 17.9091C23.6192 18.2275 24.0249 18.4444 24.4665 18.5322C24.9082 18.62 25.3659 18.575 25.782 18.4026C26.198 18.2303 26.5535 17.9385 26.8037 17.5641C27.0539 17.1897 27.1874 16.7496 27.1874 16.2993C27.1862 15.6974 26.9472 15.1203 26.5224 14.6939C26.0977 14.2675 25.5216 14.0262 24.9197 14.0226H24.9107Z" fill="#224086"/>
</g>
<defs>
<linearGradient id="paint0_linear_3047_3917" x1="7.56445" y1="36.7058" x2="16.5289" y2="36.7058" gradientUnits="userSpaceOnUse">
<stop offset="0.16" stop-color="#C4E8F5"/>
<stop offset="0.36" stop-color="#29ABE2"/>
<stop offset="1" stop-color="#089761"/>
</linearGradient>
<linearGradient id="paint1_linear_3047_3917" x1="12.6309" y1="33.2637" x2="37.2859" y2="33.2637" gradientUnits="userSpaceOnUse">
<stop offset="0.16" stop-color="#C4E8F5"/>
<stop offset="0.36" stop-color="#29ABE2"/>
<stop offset="1" stop-color="#089761"/>
</linearGradient>
<linearGradient id="paint2_linear_3047_3917" x1="15.2598" y1="16.2631" x2="34.6567" y2="16.2631" gradientUnits="userSpaceOnUse">
<stop offset="0.16" stop-color="#C4E8F5"/>
<stop offset="0.36" stop-color="#29ABE2"/>
<stop offset="1" stop-color="#089761"/>
</linearGradient>
<clipPath id="clip0_3047_3917">
<rect width="30.7962" height="36" fill="white" transform="translate(7 6)"/>
</clipPath>
</defs>
</svg>
