<svg width="55" height="64" viewBox="0 0 55 64" fill="none" xmlns="http://www.w3.org/2000/svg">
<g clip-path="url(#clip0_2_33725)">
<path d="M2.33551 9.87695L0.393417 11.7593L0.195332 13.8528C0.0873581 14.9932 -0.0762774 17.3743 0.0399899 20.5088L0.11782 21.4757L2.05991 19.5934L3.85352 17.6711C3.79196 16.0694 3.80919 12.7536 3.85352 11.6748L2.33551 9.87695Z" fill="#046938"/>
<path d="M26.5291 58.7275C21.6832 56.0226 16.3438 53.9512 16.3438 53.9512L14.5293 55.7752C14.5293 55.7752 21.4765 61.4341 24.3693 63.1008L26.157 64.0002L28.4713 62.8164C31.7118 60.9493 31.6147 59.2019 34.2649 56.8101L26.5292 58.7274L26.5291 58.7275Z" fill="#046938"/>
<path d="M54.8046 11.9707L54.6063 9.87737L52.5118 9.83713C46.9877 9.73179 41.8429 8.54588 37.2205 6.31209C33.528 4.52785 31.1607 2.54385 30.0783 1.52003L28.4711 0L26.8636 1.52019C25.7813 2.54401 23.4143 4.52785 19.7215 6.31209C15.0989 8.54572 9.95413 9.73163 4.42992 9.83713L2.33551 9.87721L0.393417 11.7596L0.195332 13.8531C0.0873581 14.9934 -0.0762774 17.3746 0.0399899 20.5091L0.11782 21.476L0.542379 40.6083L13.6265 54.7822L14.5292 55.7749C14.5292 55.7749 21.4764 61.4339 24.3692 63.1006L26.1569 64L28.4712 62.8162L29.6376 62.1444C32.8781 60.2773 35.8648 58.1177 38.5152 55.7259C40.9533 53.5254 43.163 51.0778 45.0826 48.4509C48.3834 43.9339 50.9097 38.7906 52.5909 33.1637C53.8569 28.9268 54.6338 24.4585 54.9001 19.883C55.1165 16.164 54.9333 13.3293 54.8047 11.9706L54.8046 11.9707Z" fill="url(#paint0_linear_2_33725)"/>
<path d="M26.2345 57.2981C34.5579 50.9066 42.7652 42.6112 45.8191 32.3907C47.8538 25.5805 48.2651 19.7999 48.1372 16.6178C45.6133 16.4495 42.8489 15.6911 40.4867 15.0755C38.1701 14.4719 35.9277 13.6497 33.8222 12.6323C31.0841 11.3093 27.2503 8.59633 25.8182 7.44505C24.3862 8.59633 15.1384 10.7585 19.4366 8.68162C22.8701 7.02259 25.071 5.17791 26.0774 4.22591L27.5721 2.8125L29.0665 4.22591C30.0731 5.17791 32.2742 7.02275 35.7075 8.68162C40.0055 10.7586 44.7892 11.8613 49.9257 11.9593L51.8732 11.9966L52.0576 13.9431C52.1771 15.2065 52.3476 17.8422 52.1463 21.3004C51.8986 25.5549 51.1763 29.7095 49.9991 33.6491C48.4358 38.8811 46.0868 43.6636 43.0176 47.8635C41.2326 50.3061 39.1781 52.582 36.9111 54.6279C34.4469 56.8519 31.6695 58.8598 28.6565 60.596C28.6565 60.596 21.7284 54.7831 26.2342 57.2981H26.2345Z" fill="url(#paint1_linear_2_33725)"/>
<path d="M28.4704 62.8163L27.304 62.1447C24.4114 60.4779 21.7162 58.5755 19.2931 56.49L16.343 53.9509L19.498 50.7751C19.498 50.7751 25.6785 56.81 29.7956 57.6364C37.6497 51.2652 44.8098 42.8024 48.0943 31.8104C50.2827 24.4862 50.4069 17.8791 50.2693 14.4568C47.555 14.2758 44.8999 13.8503 42.3596 13.1884C39.8682 12.5391 37.3437 11.8652 35.192 10.5608C32.3625 8.84569 31.334 7.87733 29.794 6.63915C28.254 7.87733 24.245 9.95496 21.7943 10.931C19.3436 11.9072 17.0724 12.5391 14.581 13.1882C12.0405 13.8502 9.38532 14.2757 6.67066 14.4567C6.62632 15.5357 6.60798 16.9152 6.66955 18.5169L6.63127 19.5933H2.05921L1.98137 18.6264C1.86511 15.4919 2.0289 13.1108 2.13672 11.9704L2.3348 9.87689L4.42921 9.83681C9.95342 9.73147 15.0982 8.5454 19.7208 6.31177C23.4135 4.52753 25.7806 2.54353 26.8629 1.51987L28.4704 0L30.0775 1.52003C31.16 2.54385 33.5273 4.52785 37.2198 6.31209C41.8422 8.54572 46.987 9.73179 52.5111 9.83713L54.6056 9.87737L54.8039 11.9707C54.9324 13.3295 55.1158 16.1641 54.8993 19.8832C54.6329 24.4586 53.856 28.927 52.59 33.1639C50.9087 38.7907 48.3825 43.9341 45.0818 48.451C43.1622 51.0779 40.9524 53.5256 38.5143 55.726C35.8641 58.1179 32.8772 60.2773 29.6367 62.1446L28.4704 62.8163Z" fill="url(#paint2_linear_2_33725)"/>
<path d="M54.8042 11.9707L54.606 9.87737L52.5114 9.83713C46.9873 9.73179 41.8426 8.54588 37.2201 6.31209C33.5276 4.52785 31.1603 2.54385 30.0779 1.52003L28.4707 0C29.0176 2.10088 29.5152 4.37042 29.9562 6.77014C31.4094 7.94707 32.4632 8.90661 35.1924 10.561C37.344 11.8654 39.8686 12.5392 42.3599 13.1885C44.9003 13.8505 47.5553 14.276 50.2696 14.457C50.4073 17.8793 50.283 24.4864 48.0947 31.8106C44.8102 42.8025 37.6499 51.2654 29.7959 57.6366C29.4059 59.4212 28.9651 61.1522 28.4707 62.8163L29.637 62.1446C32.8775 60.2775 35.8643 58.1179 38.5147 55.726C40.9528 53.5256 43.1625 51.0779 45.0821 48.451C48.3829 43.9341 50.9092 38.7907 52.5903 33.1639C53.8564 28.927 54.6332 24.4586 54.8996 19.8832C55.116 16.1641 54.9328 13.3295 54.8042 11.9707Z" fill="url(#paint3_linear_2_33725)"/>
<path d="M54.8042 11.9707L54.606 9.87737L52.5114 9.83713C46.9873 9.73179 41.8426 8.54588 37.2201 6.31209C33.5276 4.52785 31.1603 2.54385 30.0779 1.52003L28.4707 0C29.0176 2.10088 29.5152 4.37042 29.9562 6.77014C32.7091 21.7485 33.2562 41.8024 29.7959 57.6366C29.4059 59.4212 28.9651 61.1523 28.4707 62.8163L29.637 62.1446C32.8775 60.2775 35.8643 58.1179 38.5147 55.726C40.9528 53.5256 43.1625 51.0779 45.0821 48.451C48.3829 43.9341 50.9092 38.7907 52.5903 33.1639C53.8564 28.927 54.6332 24.4586 54.8996 19.8832C55.116 16.1641 54.9328 13.3295 54.8042 11.9707Z" fill="url(#paint4_radial_2_33725)"/>
<path d="M19.8931 22.5726H6.65972C4.16548 22.5726 3.52848 22.3662 3.15974 22.3662L1.90951 20.8203L0.167893 22.571V26.385H6.54266C8.40277 26.6037 10.3729 27.1332 11.6504 28.2673C12.3568 28.8944 12.7989 29.679 12.9965 30.6392L1.89898 28.8884L0.157366 30.6392V34.4515H12.871C12.6667 35.2602 12.3099 35.9364 11.6964 36.464C10.2219 37.7311 7.27933 38.1077 3.15256 37.5632C2.57601 37.4872 2.46118 35.1733 1.90951 34.9884L0.167893 36.7392L0.15625 40.1837L0.542053 40.6082L13.6262 54.7821L16.8933 51.7122L7.13691 41.1429C10.4363 41.1235 12.4272 40.8514 14.161 39.3614C15.8255 37.9305 16.4799 36.0526 16.7396 34.4515H19.893L21.6346 32.7008L19.893 30.6392H16.8324C16.6399 29.0002 16.0525 27.5776 15.081 26.385H19.893L21.6346 24.6342L19.893 22.5726H19.8931Z" fill="#046938"/>
<path d="M21.6353 20.8218H3.13559V20.8203H1.91024V24.6342H8.28484C10.145 24.8529 12.1151 25.3825 13.3926 26.5166C14.099 27.1436 14.5411 27.9283 14.7387 28.8884H1.89955V32.7008H14.6132C14.4089 33.5094 14.0521 34.1857 13.4386 34.7133C11.9641 35.9803 9.02152 36.3569 4.89475 35.8125C4.3182 35.7365 3.75026 35.6049 3.19859 35.42L1.91008 34.9884L1.89844 38.433L2.28424 38.8575L15.3684 53.0314L18.6355 49.9615L8.8791 39.3922C12.1784 39.3728 14.1693 39.1007 15.9031 37.6107C17.5677 36.1798 18.2221 34.3019 18.4818 32.7008H21.6352V28.8884H18.5746C18.3821 27.2494 17.7947 25.8269 16.8232 24.6342H21.6352V20.8219L21.6353 20.8218Z" fill="url(#paint5_linear_2_33725)"/>
</g>
<defs>
<linearGradient id="paint0_linear_2_33725" x1="0.00011773" y1="32.0001" x2="55.0001" y2="32.0001" gradientUnits="userSpaceOnUse">
<stop offset="0.39" stop-color="white" stop-opacity="0"/>
<stop offset="0.44" stop-color="white" stop-opacity="0.03"/>
<stop offset="0.52" stop-color="white" stop-opacity="0.1"/>
<stop offset="0.61" stop-color="white" stop-opacity="0.22"/>
<stop offset="0.72" stop-color="white" stop-opacity="0.39"/>
<stop offset="0.83" stop-color="white" stop-opacity="0.61"/>
<stop offset="0.95" stop-color="white" stop-opacity="0.87"/>
<stop offset="1" stop-color="white"/>
</linearGradient>
<linearGradient id="paint1_linear_2_33725" x1="35.273" y1="4.07649" x2="35.273" y2="59.4766" gradientUnits="userSpaceOnUse">
<stop stop-color="#00562C"/>
<stop offset="0.32" stop-color="#266F33"/>
<stop offset="1" stop-color="#82AA45"/>
</linearGradient>
<linearGradient id="paint2_linear_2_33725" x1="-0.724989" y1="31.4082" x2="56.7287" y2="31.4082" gradientUnits="userSpaceOnUse">
<stop offset="0.2" stop-color="#154F80"/>
<stop offset="0.32" stop-color="#134C7C"/>
<stop offset="0.41" stop-color="#0F4672"/>
<stop offset="0.49" stop-color="#093A61"/>
<stop offset="0.57" stop-color="#002B4A"/>
</linearGradient>
<linearGradient id="paint3_linear_2_33725" x1="62.0726" y1="-6.60228" x2="19.4176" y2="44.9346" gradientUnits="userSpaceOnUse">
<stop offset="0.03" stop-color="#00729E"/>
<stop offset="0.2" stop-color="#00729E" stop-opacity="0.98"/>
<stop offset="0.36" stop-color="#0373A1" stop-opacity="0.91"/>
<stop offset="0.5" stop-color="#0775A6" stop-opacity="0.79"/>
<stop offset="0.65" stop-color="#0D78AD" stop-opacity="0.63"/>
<stop offset="0.79" stop-color="#147CB5" stop-opacity="0.42"/>
<stop offset="0.92" stop-color="#1D80C0" stop-opacity="0.17"/>
<stop offset="1" stop-color="#2484C7" stop-opacity="0"/>
</linearGradient>
<radialGradient id="paint4_radial_2_33725" cx="0" cy="0" r="1" gradientUnits="userSpaceOnUse" gradientTransform="translate(29.8188 30.0667) rotate(8.56393) scale(26.2719 48.3181)">
<stop offset="0.11" stop-color="white"/>
<stop offset="0.21" stop-color="white" stop-opacity="0.99"/>
<stop offset="0.3" stop-color="white" stop-opacity="0.94"/>
<stop offset="0.38" stop-color="white" stop-opacity="0.87"/>
<stop offset="0.47" stop-color="white" stop-opacity="0.77"/>
<stop offset="0.55" stop-color="white" stop-opacity="0.64"/>
<stop offset="0.63" stop-color="white" stop-opacity="0.48"/>
<stop offset="0.71" stop-color="white" stop-opacity="0.29"/>
<stop offset="0.78" stop-color="white" stop-opacity="0.08"/>
<stop offset="0.81" stop-color="white" stop-opacity="0"/>
</radialGradient>
<linearGradient id="paint5_linear_2_33725" x1="2.1297" y1="36.8286" x2="16.8749" y2="36.9159" gradientUnits="userSpaceOnUse">
<stop stop-color="#5D8E3F"/>
<stop offset="1" stop-color="#99BF4A"/>
</linearGradient>
<clipPath id="clip0_2_33725">
<rect width="55" height="64" fill="white"/>
</clipPath>
</defs>
</svg>
