<svg width="14" height="15" viewBox="0 0 14 15" fill="none" xmlns="http://www.w3.org/2000/svg">
<g clip-path="url(#clip0_1578_4292)">
<path d="M3.18568 7.53975C3.18568 7.24248 3.28173 6.94521 3.4761 6.69596L7.54645 1.47539C8.01065 0.878555 8.87503 0.77108 9.47186 1.23757C10.0687 1.70406 10.1762 2.56615 9.70968 3.16298L6.85357 6.8263C6.52886 7.24248 6.53115 7.82331 6.85815 8.2372L9.70511 11.8456C10.183 12.4516 10.0687 13.3343 9.44442 13.7985C8.82015 14.2627 7.98092 14.0912 7.51443 13.5012L3.48067 8.38813C3.28401 8.13887 3.18568 7.83931 3.18568 7.53747L3.18568 7.53975Z" fill="#3398D5"/>
</g>
<defs>
<clipPath id="clip0_1578_4292">
<rect width="13.1097" height="6.81441" fill="white" transform="translate(10 0.947266) rotate(90)"/>
</clipPath>
</defs>
</svg>
