<svg width="14" height="15" viewBox="0 0 14 15" fill="none" xmlns="http://www.w3.org/2000/svg">
<g clip-path="url(#clip0_1578_4333)">
<path d="M11.1542 7.45829C11.1542 7.75557 11.0581 8.05284 10.8637 8.30209L6.7934 13.5227C6.32919 14.1195 5.46481 14.227 4.86798 13.7605C4.27115 13.294 4.16367 12.4319 4.63016 11.8351L7.48627 8.17175C7.81098 7.75557 7.8087 7.17474 7.4817 6.76084L4.63474 3.15241C4.15681 2.54643 4.27115 1.66376 4.89542 1.19955C5.5197 0.735352 6.35892 0.906856 6.82541 1.49683L10.8592 6.60992C11.0558 6.85917 11.1542 7.15873 11.1542 7.46058L11.1542 7.45829Z" fill="#3398D5"/>
</g>
<defs>
<clipPath id="clip0_1578_4333">
<rect width="13.1097" height="6.81441" fill="white" transform="translate(4.33984 14.0508) rotate(-90)"/>
</clipPath>
</defs>
</svg>
