<svg width="45" height="44" viewBox="0 0 45 44" fill="none" xmlns="http://www.w3.org/2000/svg">
<g clip-path="url(#clip0_3047_3954)">
<path opacity="0.17" d="M10.6644 9.20379L8.64809 22.9846C8.53564 23.7014 8.61575 24.4352 8.88019 25.1108L10.2852 29.0087C10.8026 30.3162 11.9471 31.1561 13.2086 31.1561H29.5391C30.8218 31.1561 31.9806 30.2897 32.4855 28.952L33.8179 25.0736C34.0615 24.4224 34.1352 23.72 34.0323 23.0325L32.1046 9.22505C31.8441 7.47631 30.51 6.19531 28.9437 6.19531H13.8217C12.2678 6.2024 10.9372 7.46745 10.6644 9.20379Z" fill="url(#paint0_linear_3047_3954)"/>
<path d="M34.4382 34.3672H8.59863V35.2531H34.4382V34.3672Z" fill="#224086"/>
<path d="M13.2635 28.2908C14.1442 28.2908 14.8581 27.5768 14.8581 26.6962C14.8581 25.8155 14.1442 25.1016 13.2635 25.1016C12.3829 25.1016 11.6689 25.8155 11.6689 26.6962C11.6689 27.5768 12.3829 28.2908 13.2635 28.2908Z" fill="#224086"/>
<path d="M29.621 28.2908C30.5016 28.2908 31.2156 27.5768 31.2156 26.6962C31.2156 25.8155 30.5016 25.1016 29.621 25.1016C28.7403 25.1016 28.0264 25.8155 28.0264 26.6962C28.0264 27.5768 28.7403 28.2908 29.621 28.2908Z" fill="#224086"/>
<path d="M25.2053 6.94506H17.9411C17.794 6.94506 17.6841 6.83521 17.7125 6.71827L18.0137 5.46208C18.0611 5.32038 18.1541 5.19834 18.2781 5.11501C18.4021 5.03169 18.5503 4.99175 18.6994 5.00142H24.447C24.596 4.99205 24.744 5.03211 24.868 5.1154C24.992 5.19869 25.085 5.32055 25.1327 5.46208L25.4339 6.71827C25.4622 6.83521 25.3524 6.94506 25.2053 6.94506Z" fill="#224086"/>
<path d="M6.02757 37.007C5.93154 37.0074 5.83799 36.9765 5.76103 36.9191C5.68406 36.8616 5.62785 36.7807 5.60086 36.6886C5.57387 36.5964 5.57757 36.498 5.61139 36.4081C5.64521 36.3182 5.70733 36.2417 5.78838 36.1902L14.2468 30.7792C14.3456 30.7215 14.4629 30.7043 14.5742 30.7311C14.6854 30.7579 14.7819 30.8268 14.8435 30.9232C14.9051 31.0196 14.927 31.1361 14.9046 31.2483C14.8822 31.3605 14.8173 31.4597 14.7234 31.5251L6.26499 36.9361C6.19438 36.9822 6.1119 37.0069 6.02757 37.007Z" fill="#224086"/>
<path d="M37.1381 36.965C37.0541 36.9646 36.9718 36.9407 36.9007 36.8959L28.9029 31.8286C28.8506 31.7991 28.8049 31.7593 28.7685 31.7116C28.7321 31.6638 28.7057 31.6092 28.6911 31.551C28.6765 31.4927 28.6738 31.4321 28.6833 31.3729C28.6928 31.3136 28.7143 31.2568 28.7464 31.2061C28.7785 31.1554 28.8205 31.1117 28.87 31.0777C28.9195 31.0438 28.9754 31.0202 29.0343 31.0085C29.0932 30.9968 29.1538 30.9972 29.2126 31.0096C29.2713 31.0221 29.3269 31.0464 29.376 31.081L37.3773 36.15C37.476 36.2133 37.5458 36.3131 37.5714 36.4276C37.5969 36.542 37.5762 36.662 37.5137 36.7613C37.4737 36.8245 37.4182 36.8764 37.3525 36.9121C37.2867 36.9478 37.2129 36.966 37.1381 36.965Z" fill="#224086"/>
<path d="M29.7327 14.5784H12.9451C12.8393 14.5784 12.7347 14.5559 12.6382 14.5125C12.5416 14.4691 12.4555 14.4057 12.3853 14.3265C12.3151 14.2472 12.2625 14.154 12.2311 14.053C12.1996 13.9519 12.19 13.8454 12.2027 13.7403L12.573 10.319C12.6737 9.73389 12.9777 9.20308 13.4315 8.82025C13.8854 8.43742 14.4598 8.22716 15.0535 8.22656H27.6136C28.2073 8.22638 28.7819 8.43614 29.2358 8.81874C29.6898 9.20134 29.9938 9.73213 30.0941 10.3173V10.3456L30.4626 13.7456C30.4759 13.8495 30.4669 13.955 30.4364 14.0552C30.4058 14.1554 30.3544 14.2479 30.2855 14.3268C30.216 14.405 30.1309 14.4677 30.0357 14.5111C29.9405 14.5544 29.8373 14.5773 29.7327 14.5784ZM13.0975 13.6978H29.575L29.2206 10.4608C29.1528 10.0837 28.9545 9.74243 28.6603 9.49688C28.3662 9.25133 27.995 9.11712 27.6119 9.11776H15.0588C14.6752 9.11713 14.3036 9.25153 14.0091 9.49741C13.7147 9.74329 13.5161 10.085 13.4483 10.4625L13.0975 13.6978Z" fill="#224086"/>
<path d="M19.3951 28.5088C19.2776 28.5088 19.165 28.4621 19.0819 28.3791C18.9988 28.296 18.9521 28.1833 18.9521 28.0659V25.2789C18.9521 25.1614 18.9988 25.0487 19.0819 24.9657C19.165 24.8826 19.2776 24.8359 19.3951 24.8359C19.5126 24.8359 19.6252 24.8826 19.7083 24.9657C19.7914 25.0487 19.838 25.1614 19.838 25.2789V28.0659C19.838 28.1833 19.7914 28.296 19.7083 28.3791C19.6252 28.4621 19.5126 28.5088 19.3951 28.5088Z" fill="#224086"/>
<path d="M23.2281 28.5088C23.1699 28.5091 23.1122 28.4978 23.0583 28.4756C23.0045 28.4534 22.9556 28.4208 22.9144 28.3796C22.8732 28.3384 22.8406 28.2895 22.8184 28.2357C22.7962 28.1818 22.7849 28.1241 22.7852 28.0659V25.2789C22.7852 25.1614 22.8318 25.0487 22.9149 24.9657C22.998 24.8826 23.1106 24.8359 23.2281 24.8359C23.3456 24.8359 23.4582 24.8826 23.5413 24.9657C23.6244 25.0487 23.6711 25.1614 23.6711 25.2789V28.0659C23.6711 28.1833 23.6244 28.296 23.5413 28.3791C23.4582 28.4622 23.3456 28.5088 23.2281 28.5088Z" fill="#224086"/>
<path d="M21.6807 23.6568H21.6666C21.5728 23.6548 21.4807 23.6318 21.3969 23.5895C21.3132 23.5471 21.2401 23.4866 21.1829 23.4123L19.1772 20.8078H9.03027V19.9219H19.2817C19.3845 19.923 19.4857 19.9473 19.5777 19.993C19.6698 20.0388 19.7503 20.1047 19.8133 20.1859L21.686 22.6167L23.7537 20.1628C23.8168 20.0875 23.8957 20.0268 23.9848 19.9852C24.0739 19.9436 24.171 19.922 24.2693 19.9219H33.6597V20.8078H24.3703L22.1591 23.4335C22.1006 23.5035 22.0274 23.5597 21.9447 23.5983C21.8621 23.6368 21.7719 23.6568 21.6807 23.6568Z" fill="#329A6B"/>
<path d="M29.5392 31.5974H13.2088C11.7665 31.5974 10.4572 30.6441 9.87251 29.17L8.45509 25.2597C8.16441 24.5146 8.07697 23.7057 8.20173 22.9157L10.218 9.13304C10.5245 7.18409 12.0358 5.75781 13.8129 5.75781H28.935C30.7263 5.75781 32.2394 7.19118 32.5335 9.16493L34.4807 22.9706C34.5938 23.7311 34.5115 24.5079 34.2415 25.2278L32.9127 29.0938C32.328 30.6193 31.0098 31.5974 29.5392 31.5974ZM11.1039 9.27301L9.08761 23.0432C8.9848 23.6833 9.05578 24.3393 9.29314 24.9426L10.7017 28.8546C11.1464 29.9744 12.1315 30.7079 13.2088 30.7079H29.5392C30.6377 30.7079 31.6317 29.9549 32.0711 28.7909L33.3981 24.9231C33.6187 24.341 33.6864 23.7121 33.5948 23.0964L31.6653 9.2925C31.4368 7.75992 30.2922 6.6437 28.9439 6.6437H13.8218C12.4859 6.6437 11.3413 7.74751 11.1039 9.26769V9.27301Z" fill="#214185"/>
</g>
<defs>
<linearGradient id="paint0_linear_3047_3954" x1="8.59848" y1="18.6792" x2="34.0766" y2="18.6792" gradientUnits="userSpaceOnUse">
<stop offset="0.16" stop-color="#C4E8F5"/>
<stop offset="0.36" stop-color="#29ABE2"/>
<stop offset="1" stop-color="#089761"/>
</linearGradient>
<clipPath id="clip0_3047_3954">
<rect width="32" height="32.0071" fill="white" transform="translate(5.58301 5)"/>
</clipPath>
</defs>
</svg>
