<svg width="32" height="33" viewBox="0 0 32 33" fill="none" xmlns="http://www.w3.org/2000/svg">
<ellipse cx="16" cy="16.3428" rx="16" ry="15.876" fill="#EDF7FF"/>
<g clip-path="url(#clip0_2_57480)">
<path d="M16.1996 14.9191C14.1572 14.9191 12.4961 13.2912 12.4961 11.2896C12.4961 9.28801 14.1572 7.66016 16.1996 7.66016C18.2421 7.66016 19.9031 9.28801 19.9031 11.2896C19.9031 13.2912 18.2421 14.9191 16.1996 14.9191ZM16.1996 9.05879C14.9445 9.05879 13.9233 10.0596 13.9233 11.2896C13.9233 12.5196 14.9445 13.5204 16.1996 13.5204C17.4547 13.5204 18.4759 12.5196 18.4759 11.2896C18.4759 10.0596 17.4547 9.05879 16.1996 9.05879Z" fill="#1E54B0"/>
<path d="M22.8868 24.6341H9.11694C8.77997 24.6341 8.45489 24.495 8.22495 24.2534C7.99502 24.0117 7.87768 23.6838 7.90146 23.3551C8.04894 21.3535 8.95678 19.4934 10.4577 18.1188C11.9665 16.7373 13.9352 15.9766 16.0015 15.9766C16.7515 15.9766 17.4937 16.0768 18.2096 16.2742C21.4889 17.1802 23.8565 20.0256 24.1015 23.3551C24.126 23.6846 24.0079 24.0117 23.778 24.2534C23.548 24.495 23.223 24.6341 22.886 24.6341H22.8868ZM9.34529 23.2355H22.6584C22.3714 20.5874 20.4527 18.3465 17.8227 17.62C17.2336 17.4568 16.6207 17.3744 16.0023 17.3744C12.585 17.3744 9.70366 19.9316 9.34608 23.2355H9.34529Z" fill="#1E54B0"/>
</g>
<defs>
<clipPath id="clip0_2_57480">
<rect width="16.2" height="17.8606" fill="white" transform="translate(7.89844 7.41211)"/>
</clipPath>
</defs>
</svg>
