<svg width="43" height="43" viewBox="0 0 43 43" fill="none" xmlns="http://www.w3.org/2000/svg">
<circle cx="21.5" cy="21.5" r="21" fill="#D8CB55" stroke="#F9FBFD"/>
<g clip-path="url(#clip0_364_25864)">
<path d="M25.5568 27.7025H17.0973C16.7479 27.7025 16.4648 27.4194 16.4648 27.07C16.4648 26.7205 16.7479 26.4375 17.0973 26.4375H25.5568C25.9063 26.4375 26.1893 26.7205 26.1893 27.07C26.1893 27.4194 25.9063 27.7025 25.5568 27.7025Z" fill="white"/>
<path d="M19.9537 24.7643C19.9363 24.7643 19.9189 24.7643 19.9015 24.7627C19.6675 24.7469 19.4516 24.6196 19.3235 24.4235L18.4831 23.1348L17.1557 22.5308C16.9414 22.4335 16.7833 22.2383 16.7327 22.0082C16.6821 21.7773 16.7446 21.5338 16.8995 21.3552L17.1842 21.0271C17.3075 20.8887 17.4696 20.8009 17.6459 20.7764L18.9448 20.5875C18.9923 20.4902 19.0468 20.4033 19.1101 20.3218C19.2453 20.1487 19.4453 19.8925 19.6841 19.5881L16.9549 18.1698C16.7493 18.0631 16.607 17.8717 16.5643 17.644C16.5208 17.4171 16.5833 17.1863 16.7343 17.0116L17.1857 16.4921C17.3478 16.3063 17.5905 16.2123 17.8332 16.2383L21.9863 16.7048C22.2369 16.4004 22.4457 16.1514 22.6101 15.9632C23.5185 14.9196 24.6949 14.6563 25.0357 14.6468C25.5662 14.6326 26.0279 15.0374 26.0809 15.5671C26.1164 15.9087 25.982 17.1191 25.2365 17.9769C25.0396 18.203 24.7692 18.4979 24.4324 18.856L25.5314 23.0186C25.5946 23.2613 25.5346 23.5167 25.3717 23.7033L24.9645 24.1713C24.8127 24.3452 24.5953 24.4393 24.3645 24.4282C24.1344 24.418 23.9249 24.3049 23.7905 24.1183L21.8819 21.4817C21.5965 21.7702 21.3878 21.9789 21.2914 22.0762C21.1823 22.1861 21.0328 22.2944 20.8708 22.3853L20.9807 23.6242C20.9988 23.8266 20.9324 24.0314 20.7972 24.1855L20.5189 24.5057C20.3758 24.671 20.1719 24.7643 19.9544 24.7643H19.9537ZM19.877 23.7222C19.877 23.7222 19.877 23.723 19.877 23.7238V23.7222ZM18.2404 21.8082L19.035 22.1695C19.1686 22.2311 19.2785 22.326 19.3552 22.4462L19.8279 23.1712L19.7315 22.0896C19.7086 21.8287 19.8714 21.5868 20.1221 21.5109C20.2596 21.469 20.4383 21.3623 20.5055 21.2943C20.6486 21.1512 21.0344 20.7638 21.5507 20.2396C21.6653 20.1234 21.825 20.0633 21.9871 20.076C22.1492 20.0886 22.2978 20.1716 22.3935 20.3036L24.4008 23.0763L23.2821 18.8402C23.2331 18.6544 23.2837 18.4568 23.4165 18.3176C23.8434 17.8694 24.1739 17.5096 24.4 17.2503C24.8151 16.772 24.9542 16.062 24.9748 15.7671C24.6981 15.8233 23.9929 16.0589 23.4442 16.6898C23.2473 16.9159 22.9809 17.2353 22.6512 17.6393C22.5326 17.7848 22.3468 17.8599 22.161 17.8393L17.8973 17.3602L17.8657 17.3958L20.7862 18.9138C20.9324 18.9897 21.0376 19.1272 21.0724 19.2885C21.1072 19.4498 21.0676 19.6182 20.9656 19.7478C20.5474 20.2783 20.1885 20.7369 19.9805 21.0033C19.9418 21.0531 19.911 21.1259 19.8817 21.2334C19.8193 21.4682 19.6113 21.6327 19.3718 21.6437L18.2388 21.8082H18.2404ZM18.4254 23.0471C18.4254 23.0471 18.427 23.0502 18.4286 23.051L18.4254 23.0471ZM17.8056 21.8714H17.8016C17.8016 21.8714 17.804 21.8714 17.8056 21.8714ZM17.6127 21.522H17.6135C17.6135 21.522 17.6135 21.522 17.6127 21.522Z" fill="white"/>
<path d="M27.3611 31H15.2917C14.1508 31 13.2227 30.0718 13.2227 28.931V13.069C13.2227 11.9282 14.1508 11 15.2917 11H27.3611C28.5019 11 29.4301 11.9282 29.4301 13.069V28.931C29.4301 30.0718 28.5019 31 27.3611 31ZM15.2917 12.265C14.8481 12.265 14.4876 12.6255 14.4876 13.069V28.931C14.4876 29.3745 14.8481 29.735 15.2917 29.735H27.3611C27.8046 29.735 28.1651 29.3745 28.1651 28.931V13.069C28.1651 12.6255 27.8046 12.265 27.3611 12.265H15.2917Z" fill="white"/>
</g>
<defs>
<clipPath id="clip0_364_25864">
<rect width="16.2075" height="20" fill="white" transform="translate(13.2227 11)"/>
</clipPath>
</defs>
</svg>
