<svg width="34" height="34" viewBox="0 0 34 34" fill="none" xmlns="http://www.w3.org/2000/svg">
<rect width="34" height="34" fill="#F5F5F5"/>
<g clip-path="url(#clip_twitter_icon_footer)">
<rect width="1440" height="6539" transform="translate(-886 -6369)" fill="white"/>
<rect x="-886" y="-136" width="1440" height="306" fill="#0B2235"/>
<circle cx="17" cy="17" r="17" fill="#B5CEE3" fill-opacity="0.3"/>
<circle cx="17" cy="17" r="16.675" stroke="white" stroke-opacity="0.16" stroke-width="0.65"/>
<path d="M23.6128 12.6769C23.1253 12.9041 22.6042 13.0576 22.055 13.1284C22.6154 12.7743 23.0469 12.2135 23.2486 11.5465C22.7246 11.8741 22.1446 12.1132 21.5254 12.2401C21.0295 11.6822 20.3234 11.334 19.5445 11.334C18.0454 11.334 16.8322 12.6149 16.8322 14.1939C16.8322 14.4182 16.8546 14.6366 16.9023 14.8461C14.6467 14.7281 12.6462 13.5888 11.3097 11.8564C11.0771 12.2784 10.9426 12.7713 10.9426 13.2937C10.9426 14.2854 11.4245 15.1619 12.153 15.6755C11.7047 15.6637 11.2844 15.5338 10.9202 15.3184V15.3538C10.9202 16.7409 11.856 17.8949 13.0973 18.1576C12.8703 18.2225 12.6294 18.2579 12.3828 18.2579C12.2091 18.2579 12.0381 18.2402 11.8728 18.2048C12.2175 19.3411 13.2206 20.1675 14.4086 20.1911C13.4811 20.9585 12.3099 21.4159 11.0379 21.4159C10.8193 21.4159 10.6036 21.4012 10.3906 21.3746C11.587 22.1951 13.0132 22.6673 14.5431 22.6673C19.5389 22.6673 22.2679 18.3081 22.2679 14.5274C22.2679 14.4034 22.2651 14.2795 22.2595 14.1585C22.7891 13.7541 23.2486 13.2524 23.6128 12.6769Z" fill="white"/>
</g>
<defs>
<clipPath id="clip_twitter_icon_footer">
<rect width="1440" height="6539" fill="white" transform="translate(-886 -6369)"/>
</clipPath>
</defs>
</svg>
