<svg width="25" height="24" viewBox="0 0 25 24" fill="none" xmlns="http://www.w3.org/2000/svg">
<ellipse cx="12.8125" cy="12" rx="12" ry="12" fill="#EDF7FF"/>
<g clip-path="url(#clip0_15239_60331)">
<path d="M14.7213 16.848C13.7037 16.848 12.7158 16.5637 11.8638 16.0248L12.4405 15.1116C13.1198 15.5407 13.9088 15.7675 14.7213 15.7675C17.0435 15.7675 18.9329 13.9185 18.9329 11.6467C18.9329 9.37495 17.0435 7.52693 14.7213 7.52693C12.7257 7.52693 10.9902 8.91339 10.5943 10.8235L9.53711 10.604C10.0365 8.19542 12.2165 6.44727 14.7213 6.44727C17.6391 6.44727 20.0125 8.78024 20.0125 11.6476C20.0125 14.515 17.6391 16.848 14.7213 16.848Z" fill="#1E54B0"/>
<path d="M12.2536 14.6628C12.0052 14.6628 11.8037 14.4613 11.8037 14.213V12.3883C11.8037 12.14 12.0052 11.9385 12.2536 11.9385C12.5019 11.9385 12.7034 12.14 12.7034 12.3883V14.213C12.7034 14.4613 12.5019 14.6628 12.2536 14.6628Z" fill="#1E54B0"/>
<path d="M9.86822 13.7353C8.25232 13.7353 7.0332 13.029 7.0332 12.0924C7.0332 11.8441 7.23474 11.6426 7.48306 11.6426C7.73139 11.6426 7.93292 11.8441 7.93292 12.0924C7.93292 12.3408 8.61581 12.8356 9.86822 12.8356C11.1206 12.8356 11.8035 12.3453 11.8035 12.0924C11.8035 11.8396 12.005 11.6426 12.2534 11.6426C12.5017 11.6426 12.7032 11.8441 12.7032 12.0924C12.7032 13.029 11.4841 13.7353 9.86822 13.7353Z" fill="#1E54B0"/>
<path d="M12.2534 12.5429C12.005 12.5429 11.8035 12.3414 11.8035 12.0931C11.8035 11.8448 11.1206 11.3499 9.86822 11.3499C8.61581 11.3499 7.93292 11.8403 7.93292 12.0931C7.93292 12.3459 7.73139 12.5429 7.48306 12.5429C7.23474 12.5429 7.0332 12.3414 7.0332 12.0931C7.0332 11.1565 8.25232 10.4502 9.86822 10.4502C11.4841 10.4502 12.7032 11.1565 12.7032 12.0931C12.7032 12.3414 12.5017 12.5429 12.2534 12.5429Z" fill="#1E54B0"/>
<path d="M7.48111 14.6899C7.23279 14.6899 7.03125 14.4883 7.03125 14.24V12.3317C7.03125 12.0834 7.23279 11.8818 7.48111 11.8818C7.72943 11.8818 7.93097 12.0834 7.93097 12.3317V14.24C7.93097 14.4883 7.72943 14.6899 7.48111 14.6899Z" fill="#1E54B0"/>
<path d="M6.06216 11.7597C5.81384 11.7597 5.6123 11.5582 5.6123 11.3099C5.6123 10.3733 6.83142 9.66699 8.44732 9.66699C9.48559 9.66699 10.4321 9.9765 10.917 10.4758C11.0898 10.654 11.0862 10.9392 10.908 11.1119C10.7299 11.2847 10.4447 11.2811 10.2719 11.1029C10.0128 10.8366 9.34794 10.5667 8.44822 10.5667C7.19581 10.5667 6.51292 11.0571 6.51292 11.3099C6.51292 11.5627 6.31139 11.7597 6.06306 11.7597H6.06216Z" fill="#1E54B0"/>
<path d="M7.25519 12.7929C7.2138 12.7929 7.17152 12.7875 7.13013 12.775C6.18003 12.5005 5.6123 11.9526 5.6123 11.3102C5.6123 11.0619 5.81384 10.8604 6.06216 10.8604C6.31049 10.8604 6.51202 11.0619 6.51202 11.3102C6.51202 11.4803 6.81613 11.7484 7.37935 11.9112C7.61778 11.9805 7.75543 12.2297 7.68616 12.4681C7.62947 12.6652 7.44953 12.7929 7.25429 12.7929H7.25519Z" fill="#1E54B0"/>
<path d="M7.25519 16.6408C7.2219 16.6408 7.18771 16.6372 7.15352 16.6291C6.17373 16.4024 5.6123 15.9417 5.6123 15.3641V11.5475C5.6123 11.2992 5.81384 11.0977 6.06216 11.0977C6.31049 11.0977 6.51202 11.2992 6.51202 11.5475V15.3533C6.54801 15.4289 6.79993 15.6232 7.35596 15.7519C7.59798 15.8077 7.74914 16.0497 7.69245 16.2917C7.64477 16.4996 7.45943 16.6399 7.25429 16.6399L7.25519 16.6408Z" fill="#1E54B0"/>
<path d="M7.3028 14.7442C7.27131 14.7442 7.23892 14.7406 7.20563 14.7334C6.19255 14.5112 5.61133 14.046 5.61133 13.4567C5.61133 13.2084 5.81287 13.0068 6.06119 13.0068C6.30951 13.0068 6.50565 13.203 6.51105 13.4459C6.54794 13.5242 6.81245 13.7257 7.39817 13.8544C7.64109 13.9075 7.79405 14.1477 7.74096 14.3897C7.69508 14.6002 7.50884 14.7433 7.3019 14.7433L7.3028 14.7442Z" fill="#1E54B0"/>
<path d="M9.86822 15.6435C8.25232 15.6435 7.0332 14.9372 7.0332 14.0006C7.0332 13.7523 7.23474 13.5508 7.48306 13.5508C7.73139 13.5508 7.93292 13.7523 7.93292 14.0006C7.93292 14.249 8.61581 14.7438 9.86822 14.7438C11.1206 14.7438 11.8035 14.2535 11.8035 14.0006C11.8035 13.7478 12.005 13.5508 12.2534 13.5508C12.5017 13.5508 12.7032 13.7523 12.7032 14.0006C12.7032 14.9372 11.4841 15.6435 9.86822 15.6435Z" fill="#1E54B0"/>
<path d="M9.86822 17.5517C8.25232 17.5517 7.0332 16.8454 7.0332 15.9088V14.2389C7.0332 13.9906 7.23474 13.7891 7.48306 13.7891C7.73139 13.7891 7.93292 13.9906 7.93292 14.2389V15.9088C7.93292 16.1607 8.61581 16.652 9.86822 16.652C11.1206 16.652 11.8035 16.1616 11.8035 15.9088V14.2389C11.8035 13.9906 12.005 13.7891 12.2534 13.7891C12.5017 13.7891 12.7032 13.9906 12.7032 14.2389V15.9088C12.7032 16.8454 11.4841 17.5517 9.86822 17.5517Z" fill="#1E54B0"/>
<path d="M15.3469 14.1465C15.2506 14.1465 15.1543 14.1079 15.0832 14.0314L13.3198 12.1348C13.1848 11.989 13.1929 11.7614 13.3378 11.6264C13.4835 11.4915 13.7112 11.4996 13.8461 11.6444L15.6096 13.541C15.7445 13.6868 15.7364 13.9144 15.5916 14.0494C15.5223 14.1142 15.4341 14.1456 15.3469 14.1456V14.1465Z" fill="#1E54B0"/>
<path d="M14.1965 12.294C13.9932 12.294 13.7683 12.2743 13.5217 12.2356C13.3256 12.205 13.1915 12.0205 13.2221 11.8244C13.2527 11.6283 13.4372 11.4942 13.6333 11.5248C14.2181 11.6166 14.6428 11.5788 14.8308 11.4186C14.9604 11.308 14.9874 11.1235 14.9874 10.8797C14.9874 10.7006 14.9352 10.5711 14.8236 10.4721C14.5159 10.2004 13.8402 10.2139 13.6279 10.2409C13.4309 10.2652 13.2509 10.1257 13.2266 9.92869C13.2023 9.73165 13.3418 9.55171 13.5388 9.52741C13.6558 9.51302 14.6968 9.40055 15.2996 9.93319C15.5659 10.168 15.7062 10.4955 15.7062 10.8806C15.7062 11.101 15.7062 11.6175 15.2978 11.9666C15.0414 12.1861 14.6779 12.2949 14.1956 12.2949L14.1965 12.294Z" fill="#1E54B0"/>
<path d="M16.0066 10.2442H13.4361C13.2372 10.2442 13.0762 10.0831 13.0762 9.8843C13.0762 9.68546 13.2372 9.52441 13.4361 9.52441H16.0066C16.2054 9.52441 16.3664 9.68546 16.3664 9.8843C16.3664 10.0831 16.2054 10.2442 16.0066 10.2442Z" fill="#1E54B0"/>
<path d="M16.0066 11.2393H13.4361C13.2372 11.2393 13.0762 11.0783 13.0762 10.8794C13.0762 10.6806 13.2372 10.5195 13.4361 10.5195H16.0066C16.2054 10.5195 16.3664 10.6806 16.3664 10.8794C16.3664 11.0783 16.2054 11.2393 16.0066 11.2393Z" fill="#1E54B0"/>
</g>
<defs>
<clipPath id="clip0_15239_60331">
<rect width="14.4" height="11.1052" fill="white" transform="translate(5.6123 6.44727)"/>
</clipPath>
</defs>
</svg>
