<svg width="20" height="21" viewBox="0 0 20 21" fill="none" xmlns="http://www.w3.org/2000/svg">
<g clip-path="url(#clip0_2_31757)">
<path d="M7.06891 20.47C5.98494 20.47 5.00158 20.2778 4.14707 19.9003C3.28352 19.516 2.55221 18.9757 1.97463 18.2908C1.40043 17.6103 0.959616 16.7942 0.661216 15.8674C0.369597 14.9519 0.222658 13.9368 0.222658 12.8495V1.87876C0.221527 1.11581 0.843194 0.494141 1.60615 0.494141H4.93376C5.69785 0.494141 6.31838 1.11581 6.31838 1.87876V12.8495C6.31838 13.7413 6.51393 14.4274 6.89936 14.8919C7.26332 15.3282 7.81378 15.5419 8.58012 15.5419C9.18596 15.5419 9.76129 15.4085 10.2891 15.144C10.4293 15.0739 10.5706 14.9948 10.7085 14.9112C11.3335 14.5302 11.7224 13.8317 11.7224 13.0869V1.87876C11.7224 1.11468 12.344 0.494141 13.107 0.494141H16.4346C17.1987 0.494141 17.8192 1.11581 17.8192 1.87876V5.55564C17.8192 5.8676 17.566 6.12079 17.2541 6.12079C16.9421 6.12079 16.6889 5.8676 16.6889 5.55564V1.87876C16.6889 1.7386 16.5748 1.62444 16.4346 1.62444H13.107C12.9668 1.62444 12.8527 1.7386 12.8527 1.87876V13.0857C12.8527 14.2217 12.257 15.2909 11.2974 15.8753C11.1335 15.9748 10.9651 16.0686 10.7966 16.1534C10.1094 16.497 9.36342 16.671 8.58125 16.671C7.47468 16.671 6.61678 16.315 6.03242 15.6142C5.47292 14.9417 5.19034 14.0114 5.19034 12.8495V1.87876C5.19034 1.7386 5.07618 1.62444 4.93602 1.62444H1.60615C1.46599 1.62444 1.35183 1.7386 1.35183 1.87876V12.8495C1.35183 13.8204 1.48182 14.719 1.73726 15.5227C1.98932 16.3082 2.36006 16.9943 2.83818 17.5617C3.30386 18.1133 3.8984 18.553 4.60484 18.8661C5.31467 19.1792 6.14319 19.3386 7.06891 19.3386C7.63406 19.3386 8.16304 19.2832 8.64116 19.1724C9.12154 19.0639 9.5714 18.909 9.9817 18.7112C10.3943 18.5146 10.7876 18.2738 11.1538 17.9958C11.2126 17.9517 11.2702 17.9076 11.3268 17.8624C11.6952 17.573 12.1801 17.4905 12.6243 17.642C13.0652 17.7923 13.3963 18.1484 13.5162 18.5971C13.6032 18.8695 13.7558 19.0503 14.1966 19.0503H16.4346C16.5748 19.0503 16.6889 18.9362 16.6889 18.796V16.8847C16.6889 16.5727 16.9421 16.3195 17.2541 16.3195C17.566 16.3195 17.8192 16.5727 17.8192 16.8847V18.796C17.8192 19.5601 17.1976 20.1806 16.4346 20.1806H14.1966C13.3127 20.1806 12.6865 19.733 12.4333 18.9203C12.4299 18.9102 12.4277 18.9 12.4254 18.891C12.3949 18.77 12.2988 18.7248 12.2593 18.7112C12.2118 18.6954 12.1168 18.6785 12.0253 18.7508C11.9631 18.8005 11.8998 18.848 11.8365 18.8966C11.4104 19.2199 10.9504 19.5013 10.47 19.7308C9.98396 19.9647 9.45272 20.1479 8.89209 20.2745C8.33372 20.4033 7.71883 20.4689 7.06778 20.4689L7.06891 20.47Z" fill="#174E7F"/>
<path d="M17.9165 14.6135C17.8009 14.6135 17.6852 14.5672 17.6006 14.4772L14.889 11.5821C14.7268 11.4089 14.7363 11.1373 14.9115 10.9761C15.0858 10.815 15.3594 10.8244 15.5216 10.9984L18.2332 13.8936C18.3955 14.0667 18.386 14.3384 18.2108 14.4995C18.1279 14.5766 18.0218 14.6143 17.9174 14.6143L17.9165 14.6135Z" fill="#46B173"/>
<path d="M16.1501 11.7864C15.8437 11.7864 15.5037 11.7573 15.13 11.699C14.8944 11.6622 14.7338 11.4428 14.771 11.2088C14.8081 10.9748 15.029 10.8154 15.2646 10.8522C16.2122 11.0005 16.8828 10.9345 17.2029 10.6628C17.4377 10.464 17.486 10.1529 17.486 9.74835C17.486 9.44153 17.3902 9.20841 17.1934 9.03528C16.6834 8.5879 15.6245 8.60761 15.2594 8.65303C15.0238 8.68217 14.8072 8.5159 14.7779 8.28107C14.7485 8.04624 14.9159 7.83197 15.1524 7.80283C15.3259 7.78141 16.8767 7.61514 17.7639 8.39334C18.1462 8.72845 18.3482 9.19727 18.3482 9.74835C18.3482 10.068 18.3482 10.818 17.763 11.3142C17.3911 11.6305 16.8586 11.7864 16.1501 11.7864Z" fill="#46B173"/>
<path d="M18.9301 8.65784H14.9784C14.7402 8.65784 14.5469 8.46586 14.5469 8.22931C14.5469 7.99276 14.7402 7.80078 14.9784 7.80078H18.9301C19.1683 7.80078 19.3616 7.99276 19.3616 8.22931C19.3616 8.46586 19.1683 8.65784 18.9301 8.65784Z" fill="#46B173"/>
<path d="M18.9301 10.3141H14.9784C14.7402 10.3141 14.5469 10.1221 14.5469 9.88556C14.5469 9.64901 14.7402 9.45703 14.9784 9.45703H18.9301C19.1683 9.45703 19.3616 9.64901 19.3616 9.88556C19.3616 10.1221 19.1683 10.3141 18.9301 10.3141Z" fill="#46B173"/>
</g>
<defs>
<clipPath id="clip0_2_31757">
<rect width="20" height="20" fill="white" transform="translate(0 0.5)"/>
</clipPath>
</defs>
</svg>
