<svg width="22" height="23" viewBox="0 0 22 23" fill="none" xmlns="http://www.w3.org/2000/svg">
<g clip-path="url(#clip0_2_31724)">
<path d="M12.8619 19.993C11.9351 19.993 11.0921 19.8279 10.3591 19.5039C10.0427 19.3638 9.9001 18.9948 10.0402 18.6796C10.1803 18.3632 10.5493 18.2206 10.8645 18.3607C11.4386 18.6146 12.1102 18.7434 12.8619 18.7434C13.3235 18.7434 13.7538 18.6984 14.1415 18.6083C14.5317 18.5195 14.897 18.3945 15.2297 18.2344C15.5649 18.0743 15.8851 17.8779 16.1828 17.6527C16.2316 17.6152 16.2791 17.5789 16.3266 17.5427C16.6743 17.2688 17.1334 17.1912 17.5549 17.335C17.9701 17.4764 18.2841 17.8128 18.3979 18.2344C18.4567 18.417 18.538 18.5033 18.8194 18.5033H20.6893C20.7219 18.5033 20.7494 18.477 20.7494 18.4432V4.30691C20.7494 4.27439 20.7231 4.24687 20.6893 4.24687H17.9088C17.8763 4.24687 17.8488 4.27314 17.8488 4.30691V13.6703C17.8488 14.6734 17.3222 15.6165 16.4755 16.1318C16.3354 16.2168 16.1903 16.2981 16.0464 16.3707C15.4498 16.6684 14.8044 16.8197 14.1265 16.8197C13.1534 16.8197 12.3979 16.5045 11.8788 15.8816C11.3885 15.2913 11.1396 14.4808 11.1396 13.4726V4.30691C11.1396 4.27439 11.1134 4.24687 11.0796 4.24687H8.2991C8.26658 4.24687 8.23906 4.27314 8.23906 4.30691V5.44637C8.23906 5.79159 7.95889 6.07176 7.61367 6.07176C7.26846 6.07176 6.98828 5.79159 6.98828 5.44637V4.30691C6.98828 3.58396 7.57615 2.99609 8.2991 2.99609H11.0796C11.8025 2.99609 12.3904 3.58396 12.3904 4.30691V13.4739C12.3904 14.1818 12.5417 14.7234 12.8407 15.0824C13.1134 15.4101 13.5349 15.5702 14.1265 15.5702C14.6155 15.5702 15.0608 15.4664 15.4861 15.2537C15.5987 15.1975 15.7137 15.1337 15.825 15.0661C16.3016 14.7759 16.598 14.2419 16.598 13.6728V4.30691C16.598 3.58396 17.1859 2.99609 17.9088 2.99609H20.6893C21.4123 2.99609 22.0002 3.58396 22.0002 4.30691V18.442C22.0002 19.1649 21.4123 19.7528 20.6893 19.7528H18.8194C18.0202 19.7528 17.4298 19.33 17.1997 18.5921C17.1959 18.5808 17.1934 18.5696 17.1909 18.5596C17.1884 18.5508 17.1834 18.5283 17.1521 18.517C17.1234 18.507 17.1084 18.5195 17.1008 18.5245C17.0471 18.5671 16.9945 18.6071 16.9407 18.6484C16.578 18.9248 16.184 19.1649 15.7738 19.3613C15.3585 19.5614 14.9032 19.7178 14.4229 19.8266C13.9451 19.9367 13.421 19.993 12.8644 19.993H12.8619Z" fill="#174E7F"/>
<path d="M5.7927 12.6299C3.61759 12.6299 1.97656 11.7018 1.97656 10.471C1.97656 10.1946 2.20045 9.9707 2.47688 9.9707C2.7533 9.9707 2.97719 10.1946 2.97719 10.471C2.97719 10.9426 4.07412 11.6292 5.7927 11.6292C7.51127 11.6292 8.6082 10.9438 8.6082 10.471C8.6082 10.1946 8.83209 9.9707 9.10852 9.9707C9.38494 9.9707 9.60883 10.1946 9.60883 10.471C9.60883 11.7018 7.9678 12.6299 5.7927 12.6299Z" fill="#32996A"/>
<path d="M9.10852 10.9717C8.83209 10.9717 8.6082 10.7478 8.6082 10.4713C8.6082 9.9998 7.51127 9.31312 5.7927 9.31312C4.07412 9.31312 2.97719 9.99855 2.97719 10.4713C2.97719 10.7478 2.7533 10.9717 2.47688 10.9717C2.20045 10.9717 1.97656 10.7478 1.97656 10.4713C1.97656 9.24058 3.61759 8.3125 5.7927 8.3125C7.9678 8.3125 9.60883 9.24058 9.60883 10.4713C9.60883 10.7478 9.38494 10.9717 9.10852 10.9717Z" fill="#32996A"/>
<path d="M2.47687 13.9563C2.20045 13.9563 1.97656 13.7324 1.97656 13.456V10.803C1.97656 10.5266 2.20045 10.3027 2.47687 10.3027C2.7533 10.3027 2.97719 10.5266 2.97719 10.803V13.456C2.97719 13.7324 2.7533 13.9563 2.47687 13.9563Z" fill="#32996A"/>
<path d="M9.10969 13.9161C8.83326 13.9161 8.60938 13.6922 8.60938 13.4158V10.8792C8.60938 10.6028 8.83326 10.3789 9.10969 10.3789C9.38611 10.3789 9.61 10.6028 9.61 10.8792V13.4158C9.61 13.6922 9.38611 13.9161 9.10969 13.9161Z" fill="#32996A"/>
<path d="M0.500312 9.88182C0.22389 9.88182 0 9.65793 0 9.3815C0 8.15074 1.64102 7.22266 3.81613 7.22266C5.22701 7.22266 6.50781 7.63917 7.15947 8.30833C7.35209 8.50596 7.34709 8.82366 7.14946 9.01628C6.95184 9.2089 6.63414 9.20389 6.44152 9.00627C6.06253 8.61728 5.10444 8.22328 3.81613 8.22328C2.09756 8.22328 1.00062 8.90871 1.00062 9.3815C1.00062 9.65793 0.776735 9.88182 0.500312 9.88182Z" fill="#32996A"/>
<path d="M2.15885 11.3186C2.11257 11.3186 2.06629 11.3124 2.02001 11.2986C0.755472 10.9321 0 10.2167 0 9.38117C0 9.10475 0.22389 8.88086 0.500312 8.88086C0.776735 8.88086 1.00062 9.10475 1.00062 9.38117C1.00062 9.72263 1.53346 10.1154 2.29768 10.3368C2.56285 10.4131 2.7167 10.6907 2.63915 10.9559C2.57536 11.1748 2.37648 11.3174 2.15885 11.3174V11.3186Z" fill="#32996A"/>
<path d="M2.15885 16.6675C2.12132 16.6675 2.0838 16.6638 2.04503 16.655C0.745465 16.3548 0 15.7582 0 15.019V9.7132C0 9.43678 0.22389 9.21289 0.500312 9.21289C0.776735 9.21289 1.00062 9.43678 1.00062 9.7132V15.019C1.00062 15.1128 1.31332 15.4593 2.27142 15.6807C2.54034 15.7432 2.70794 16.0121 2.64665 16.2811C2.59287 16.5124 2.38774 16.6688 2.1601 16.6688L2.15885 16.6675Z" fill="#32996A"/>
<path d="M2.22514 14.031C2.19012 14.031 2.15384 14.0273 2.11757 14.0198C0.771732 13.7246 0 13.123 0 12.3675C0 12.0911 0.22389 11.8672 0.500312 11.8672C0.776735 11.8672 1.00062 12.0911 1.00062 12.3675C1.00062 12.4663 1.32833 12.8228 2.33146 13.0429C2.60162 13.1017 2.77173 13.3694 2.71294 13.6383C2.66166 13.8722 2.45403 14.031 2.22514 14.031Z" fill="#32996A"/>
<path d="M5.7927 15.2822C3.61759 15.2822 1.97656 14.3541 1.97656 13.1234C1.97656 12.8469 2.20045 12.623 2.47688 12.623C2.7533 12.623 2.97719 12.8469 2.97719 13.1234C2.97719 13.5949 4.07412 14.2816 5.7927 14.2816C7.51127 14.2816 8.6082 13.5962 8.6082 13.1234C8.6082 12.8469 8.83209 12.623 9.10852 12.623C9.38494 12.623 9.60883 12.8469 9.60883 13.1234C9.60883 14.3541 7.9678 15.2822 5.7927 15.2822Z" fill="#32996A"/>
<path d="M5.7927 17.9337C3.61759 17.9337 1.97656 17.0057 1.97656 15.7749V13.4534C1.97656 13.177 2.20045 12.9531 2.47688 12.9531C2.7533 12.9531 2.97719 13.177 2.97719 13.4534V15.7749C2.97719 16.2464 4.07412 16.9331 5.7927 16.9331C7.51127 16.9331 8.6082 16.2477 8.6082 15.7749V13.4534C8.6082 13.177 8.83209 12.9531 9.10852 12.9531C9.38494 12.9531 9.60883 13.177 9.60883 13.4534V15.7749C9.60883 17.0057 7.9678 17.9337 5.7927 17.9337Z" fill="#32996A"/>
</g>
<defs>
<clipPath id="clip0_2_31724">
<rect width="22" height="22" fill="white" transform="translate(0 0.5)"/>
</clipPath>
</defs>
</svg>
