<svg width="84" height="22" viewBox="0 0 84 22" fill="none" xmlns="http://www.w3.org/2000/svg">
<path d="M22.1874 16.6247H20.3711V1.00432H29.0681V2.60696H22.1874V8.33372H28.6514V9.92568H22.1874V16.6247Z" fill="#C5D4E3"/>
<path d="M33.1922 16.6247H31.4079V0H33.1922V16.6247Z" fill="#C5D4E3"/>
<path d="M38.716 4.91476V16.6247H36.9424V4.91476H38.716ZM37.8505 0.534213C38.1426 0.534213 38.3919 0.630371 38.5984 0.822688C38.8121 1.00788 38.919 1.29992 38.919 1.6988C38.919 2.09055 38.8121 2.38259 38.5984 2.57491C38.3919 2.76722 38.1426 2.86338 37.8505 2.86338C37.5443 2.86338 37.2878 2.76722 37.0813 2.57491C36.8818 2.38259 36.7821 2.09055 36.7821 1.6988C36.7821 1.29992 36.8818 1.00788 37.0813 0.822688C37.2878 0.630371 37.5443 0.534213 37.8505 0.534213Z" fill="#C5D4E3"/>
<path d="M45.7462 21.8814C44.2077 21.8814 43.0217 21.5929 42.1883 21.0159C41.355 20.4461 40.9383 19.6448 40.9383 18.612C40.9383 17.8783 41.1698 17.2515 41.6328 16.7315C42.1029 16.2116 42.7511 15.8661 43.5773 15.6952C43.271 15.5527 43.0075 15.339 42.7867 15.0541C42.573 14.7692 42.4661 14.4416 42.4661 14.0712C42.4661 13.6438 42.5837 13.2698 42.8187 12.9493C43.0609 12.6217 43.4277 12.3083 43.9192 12.0091C43.3066 11.7598 42.808 11.3396 42.4234 10.7484C42.0459 10.15 41.8571 9.45557 41.8571 8.66493C41.8571 7.82444 42.0316 7.10859 42.3807 6.5174C42.7297 5.91908 43.2354 5.46322 43.8978 5.14981C44.5603 4.83641 45.3616 4.6797 46.3018 4.6797C46.5083 4.6797 46.7149 4.69039 46.9215 4.71176C47.1352 4.726 47.3382 4.75093 47.5305 4.78655C47.7228 4.81504 47.8902 4.85065 48.0326 4.89339H52.0499V6.03661L49.8917 6.30371C50.1054 6.5815 50.2835 6.91628 50.4259 7.30803C50.5684 7.69979 50.6396 8.13428 50.6396 8.61151C50.6396 9.77966 50.2443 10.7092 49.4536 11.4001C48.663 12.0839 47.5768 12.4258 46.1949 12.4258C45.8673 12.4258 45.5325 12.3973 45.1906 12.3403C44.8416 12.5326 44.5745 12.7463 44.3893 12.9814C44.2112 13.2164 44.1222 13.4871 44.1222 13.7934C44.1222 14.0213 44.1899 14.2029 44.3252 14.3383C44.4677 14.4736 44.6707 14.5733 44.9342 14.6374C45.1977 14.6944 45.5147 14.7229 45.8851 14.7229H47.9472C49.2222 14.7229 50.198 14.99 50.8746 15.5242C51.5584 16.0584 51.9003 16.8384 51.9003 17.8641C51.9003 19.1604 51.3732 20.1541 50.3191 20.845C49.2649 21.5359 47.7406 21.8814 45.7462 21.8814ZM45.7996 20.4924C46.7683 20.4924 47.5697 20.3927 48.2036 20.1932C48.8446 20.0009 49.3219 19.7196 49.6353 19.3492C49.9558 18.9859 50.1161 18.5514 50.1161 18.0457C50.1161 17.5756 50.0092 17.2195 49.7955 16.9773C49.5819 16.7422 49.2684 16.5855 48.8553 16.5072C48.4422 16.4217 47.9365 16.379 47.3382 16.379H45.3082C44.7811 16.379 44.3216 16.4609 43.9299 16.6247C43.5381 16.7885 43.2354 17.0307 43.0217 17.3512C42.8152 17.6718 42.7119 18.0706 42.7119 18.5479C42.7119 19.1818 42.979 19.6626 43.5132 19.9902C44.0474 20.325 44.8096 20.4924 45.7996 20.4924ZM46.2591 11.133C47.1067 11.133 47.7442 10.9193 48.1715 10.4919C48.5989 10.0646 48.8126 9.44132 48.8126 8.6222C48.8126 7.74609 48.5953 7.09079 48.1608 6.65629C47.7264 6.21468 47.0853 5.99387 46.2377 5.99387C45.4257 5.99387 44.7989 6.2218 44.3573 6.67766C43.9228 7.1264 43.7055 7.78526 43.7055 8.65425C43.7055 9.45201 43.9263 10.0646 44.3679 10.4919C44.8096 10.9193 45.4399 11.133 46.2591 11.133Z" fill="#C5D4E3"/>
<path d="M56.1313 0V4.96818C56.1313 5.25309 56.1242 5.54157 56.1099 5.8336C56.0957 6.11852 56.0708 6.38206 56.0351 6.62424H56.1527C56.3948 6.21111 56.7011 5.86566 57.0715 5.58787C57.449 5.30295 57.8764 5.08927 58.3536 4.94681C58.8309 4.79723 59.3366 4.72244 59.8708 4.72244C60.811 4.72244 61.5945 4.87202 62.2213 5.17118C62.8553 5.47034 63.3289 5.93332 63.6423 6.56013C63.9629 7.18694 64.1231 7.99895 64.1231 8.99615V16.6247H62.3709V9.11367C62.3709 8.13784 62.1465 7.40775 61.6978 6.9234C61.2562 6.43905 60.576 6.19687 59.6571 6.19687C58.7881 6.19687 58.0936 6.36426 57.5737 6.69903C57.0608 7.02668 56.6904 7.51103 56.4625 8.15209C56.2417 8.79314 56.1313 9.57666 56.1313 10.5026V16.6247H54.3577V0H56.1313Z" fill="#C5D4E3"/>
<path d="M71.5594 15.3853C71.8514 15.3853 72.1506 15.3604 72.4568 15.3105C72.7631 15.2607 73.0124 15.2001 73.2047 15.1289V16.5072C72.9982 16.5998 72.7097 16.6781 72.3393 16.7422C71.9761 16.8063 71.6199 16.8384 71.2709 16.8384C70.6512 16.8384 70.0885 16.7315 69.5828 16.5179C69.0771 16.2971 68.6711 15.9267 68.3648 15.4067C68.0656 14.8867 67.916 14.1673 67.916 13.2485V6.30371H66.2493V5.43829L67.9267 4.74381L68.6319 2.20096H69.7003V4.91476H73.13V6.30371H69.7003V13.1951C69.7003 13.9287 69.8677 14.4772 70.2025 14.8404C70.5444 15.2037 70.9967 15.3853 71.5594 15.3853Z" fill="#C5D4E3"/>
<path d="M83.1518 13.4194C83.1518 14.1673 82.963 14.7977 82.5855 15.3105C82.2151 15.8163 81.6809 16.1973 80.9829 16.4538C80.292 16.7102 79.4657 16.8384 78.5041 16.8384C77.685 16.8384 76.9763 16.7743 76.378 16.6461C75.7797 16.5179 75.2561 16.3362 74.8074 16.1012V14.4665C75.2846 14.7015 75.8544 14.9152 76.5169 15.1075C77.1793 15.2999 77.856 15.396 78.5469 15.396C79.5583 15.396 80.292 15.2322 80.7478 14.9045C81.2037 14.5769 81.4316 14.1317 81.4316 13.569C81.4316 13.2485 81.339 12.9671 81.1538 12.725C80.9758 12.4757 80.673 12.237 80.2457 12.0091C79.8183 11.7741 79.2271 11.5176 78.4721 11.2398C77.7242 10.9549 77.076 10.6736 76.5276 10.3958C75.9862 10.1109 75.566 9.76541 75.2668 9.35941C74.9748 8.95341 74.8288 8.42632 74.8288 7.77814C74.8288 6.78806 75.2276 6.02948 76.0254 5.50239C76.8303 4.96818 77.8845 4.70107 79.1879 4.70107C79.8931 4.70107 80.552 4.7723 81.1645 4.91476C81.7842 5.05009 82.3612 5.23529 82.8954 5.47034L82.2971 6.89135C81.8127 6.68478 81.2963 6.51027 80.7478 6.36782C80.1994 6.22536 79.6402 6.15413 79.0704 6.15413C78.2513 6.15413 77.6209 6.28947 77.1793 6.56013C76.7448 6.8308 76.5276 7.20119 76.5276 7.6713C76.5276 8.03456 76.6273 8.33372 76.8267 8.56877C77.0333 8.80383 77.3609 9.02464 77.8097 9.2312C78.2584 9.43776 78.8496 9.67994 79.5832 9.95773C80.3169 10.2284 80.9508 10.5097 81.485 10.8018C82.0193 11.0867 82.4288 11.4357 82.7137 11.8488C83.0058 12.2548 83.1518 12.7784 83.1518 13.4194Z" fill="#C5D4E3"/>
<g clip-path="url(#clip0_882_58582)">
<path d="M10.1823 11.8307C9.69815 12.291 9.18178 12.6561 8.63313 12.9259C8.08449 13.1957 7.50356 13.3227 6.89037 13.3227C6.0674 13.3227 5.43807 13.0687 5.01851 12.5767C4.59896 12.0847 4.38918 11.3863 4.38918 10.4817V0.212891H0V10.4817C0 11.3863 0.129094 12.2117 0.371144 12.9576C0.613194 13.7036 0.968202 14.3543 1.43617 14.8939C1.90413 15.4336 2.48505 15.8621 3.17893 16.1636C3.87281 16.4652 4.66351 16.6239 5.56716 16.6239C6.11581 16.6239 6.61605 16.5763 7.06787 16.4652C7.53584 16.3541 7.95539 16.2113 8.35881 16.0208C8.76223 15.8303 9.13337 15.6081 9.48838 15.3383C9.84338 15.0844 10.1823 14.7987 10.505 14.4813L10.7955 15.6081C10.9568 16.116 11.3118 16.3541 11.8766 16.3541H14.5876V0.212891H10.1823V11.8307Z" fill="#C5D4E3"/>
</g>
<defs>
<clipPath id="clip0_882_58582">
<rect width="14.5876" height="16.411" fill="white" transform="translate(0 0.212891)"/>
</clipPath>
</defs>
</svg>
