<svg width="47" height="16" viewBox="0 0 47 16" fill="none" xmlns="http://www.w3.org/2000/svg">
<path d="M12.1738 13H11.1777V4.43359H15.9531V5.31836H12.1738V8.45312H15.7246V9.33789H12.1738V13ZM18.2031 13H17.2305V3.88281H18.2031V13ZM21.2383 13H20.2656V6.57812H21.2383V13ZM20.1836 4.83789C20.1836 4.61523 20.2383 4.45312 20.3477 4.35156C20.457 4.24609 20.5938 4.19336 20.7578 4.19336C20.9141 4.19336 21.0488 4.24609 21.1621 4.35156C21.2754 4.45703 21.332 4.61914 21.332 4.83789C21.332 5.05664 21.2754 5.2207 21.1621 5.33008C21.0488 5.43555 20.9141 5.48828 20.7578 5.48828C20.5938 5.48828 20.457 5.43555 20.3477 5.33008C20.2383 5.2207 20.1836 5.05664 20.1836 4.83789ZM28.5566 6.57812V7.19336L27.3672 7.33398C27.4766 7.4707 27.5742 7.65039 27.6602 7.87305C27.7461 8.0918 27.7891 8.33984 27.7891 8.61719C27.7891 9.24609 27.5742 9.74805 27.1445 10.123C26.7148 10.498 26.125 10.6855 25.375 10.6855C25.1836 10.6855 25.0039 10.6699 24.8359 10.6387C24.4219 10.8574 24.2148 11.1328 24.2148 11.4648C24.2148 11.6406 24.2871 11.7715 24.4316 11.8574C24.5762 11.9395 24.8242 11.9805 25.1758 11.9805H26.3125C27.0078 11.9805 27.541 12.127 27.9121 12.4199C28.2871 12.7129 28.4746 13.1387 28.4746 13.6973C28.4746 14.4082 28.1895 14.9492 27.6191 15.3203C27.0488 15.6953 26.2168 15.8828 25.123 15.8828C24.2832 15.8828 23.6348 15.7266 23.1777 15.4141C22.7246 15.1016 22.498 14.6602 22.498 14.0898C22.498 13.6992 22.623 13.3613 22.873 13.0762C23.123 12.791 23.4746 12.5977 23.9277 12.4961C23.7637 12.4219 23.625 12.3066 23.5117 12.1504C23.4023 11.9941 23.3477 11.8125 23.3477 11.6055C23.3477 11.3711 23.4102 11.166 23.5352 10.9902C23.6602 10.8145 23.8574 10.6445 24.127 10.4805C23.7949 10.3438 23.5234 10.1113 23.3125 9.7832C23.1055 9.45508 23.002 9.08008 23.002 8.6582C23.002 7.95508 23.2129 7.41406 23.6348 7.03516C24.0566 6.65234 24.6543 6.46094 25.4277 6.46094C25.7637 6.46094 26.0664 6.5 26.3359 6.57812H28.5566ZM23.4355 14.0781C23.4355 14.4258 23.582 14.6895 23.875 14.8691C24.168 15.0488 24.5879 15.1387 25.1348 15.1387C25.9512 15.1387 26.5547 15.0156 26.9453 14.7695C27.3398 14.5273 27.5371 14.1973 27.5371 13.7793C27.5371 13.4316 27.4297 13.1895 27.2148 13.0527C27 12.9199 26.5957 12.8535 26.002 12.8535H24.8359C24.3945 12.8535 24.0508 12.959 23.8047 13.1699C23.5586 13.3809 23.4355 13.6836 23.4355 14.0781ZM23.9629 8.63477C23.9629 9.08398 24.0898 9.42383 24.3438 9.6543C24.5977 9.88477 24.9512 10 25.4043 10C26.3535 10 26.8281 9.53906 26.8281 8.61719C26.8281 7.65234 26.3477 7.16992 25.3867 7.16992C24.9297 7.16992 24.5781 7.29297 24.332 7.53906C24.0859 7.78516 23.9629 8.15039 23.9629 8.63477ZM34.2695 13V8.8457C34.2695 8.32227 34.1504 7.93164 33.9121 7.67383C33.6738 7.41602 33.3008 7.28711 32.793 7.28711C32.1172 7.28711 31.623 7.4707 31.3105 7.83789C31.002 8.20508 30.8477 8.80664 30.8477 9.64258V13H29.875V3.88281H30.8477V6.64258C30.8477 6.97461 30.832 7.25 30.8008 7.46875H30.8594C31.0508 7.16016 31.3223 6.91797 31.6738 6.74219C32.0293 6.5625 32.4336 6.47266 32.8867 6.47266C33.6719 6.47266 34.2598 6.66016 34.6504 7.03516C35.0449 7.40625 35.2422 7.99805 35.2422 8.81055V13H34.2695ZM39.3203 12.3145C39.4922 12.3145 39.6582 12.3027 39.8184 12.2793C39.9785 12.252 40.1055 12.2246 40.1992 12.1973V12.9414C40.0938 12.9922 39.9375 13.0332 39.7305 13.0645C39.5273 13.0996 39.3438 13.1172 39.1797 13.1172C37.9375 13.1172 37.3164 12.4629 37.3164 11.1543V7.33398H36.3965V6.86523L37.3164 6.46094L37.7266 5.08984H38.2891V6.57812H40.1523V7.33398H38.2891V11.1133C38.2891 11.5 38.3809 11.7969 38.5645 12.0039C38.748 12.2109 39 12.3145 39.3203 12.3145ZM45.6309 11.248C45.6309 11.8457 45.4082 12.3066 44.9629 12.6309C44.5176 12.9551 43.8926 13.1172 43.0879 13.1172C42.2363 13.1172 41.5723 12.9824 41.0957 12.7129V11.8105C41.4043 11.9668 41.7344 12.0898 42.0859 12.1797C42.4414 12.2695 42.7832 12.3145 43.1113 12.3145C43.6191 12.3145 44.0098 12.2344 44.2832 12.0742C44.5566 11.9102 44.6934 11.6621 44.6934 11.3301C44.6934 11.0801 44.584 10.8672 44.3652 10.6914C44.1504 10.5117 43.7285 10.3008 43.0996 10.0586C42.502 9.83594 42.0762 9.64258 41.8223 9.47852C41.5723 9.31055 41.3848 9.12109 41.2598 8.91016C41.1387 8.69922 41.0781 8.44727 41.0781 8.1543C41.0781 7.63086 41.291 7.21875 41.7168 6.91797C42.1426 6.61328 42.7266 6.46094 43.4688 6.46094C44.1602 6.46094 44.8359 6.60156 45.4961 6.88281L45.1504 7.67383C44.5059 7.4082 43.9219 7.27539 43.3984 7.27539C42.9375 7.27539 42.5898 7.34766 42.3555 7.49219C42.1211 7.63672 42.0039 7.83594 42.0039 8.08984C42.0039 8.26172 42.0469 8.4082 42.1328 8.5293C42.2227 8.65039 42.3652 8.76562 42.5605 8.875C42.7559 8.98438 43.1309 9.14258 43.6855 9.34961C44.4473 9.62695 44.9609 9.90625 45.2266 10.1875C45.4961 10.4688 45.6309 10.8223 45.6309 11.248Z" fill="#C5D4E3"/>
<g clip-path="url(#clip0_712_55405)">
<path d="M5.58407 10.3714C5.31858 10.6238 5.0354 10.824 4.73451 10.972C4.43363 11.1199 4.11504 11.1896 3.77876 11.1896C3.32743 11.1896 2.9823 11.0503 2.75221 10.7805C2.52212 10.5106 2.40708 10.1277 2.40708 9.63153V4H0V9.63153C0 10.1277 0.0707965 10.5803 0.20354 10.9894C0.336283 11.3985 0.530973 11.7553 0.787611 12.0513C1.04425 12.3472 1.36283 12.5822 1.74336 12.7476C2.12389 12.913 2.55752 13 3.0531 13C3.35398 13 3.62832 12.9739 3.87611 12.913C4.13274 12.852 4.36283 12.7737 4.58407 12.6692C4.80531 12.5648 5.00885 12.4429 5.20354 12.295C5.39823 12.1557 5.58407 11.999 5.76106 11.825L5.92035 12.4429C6.00885 12.7215 6.20354 12.852 6.51327 12.852H8V4H5.58407V10.3714Z" fill="#C5D4E3"/>
</g>
<defs>
<clipPath id="clip0_712_55405">
<rect width="8" height="9" fill="white" transform="translate(0 4)"/>
</clipPath>
</defs>
</svg>
