<svg width="40" height="40" viewBox="0 0 40 40" fill="none" xmlns="http://www.w3.org/2000/svg">
<g clip-path="url(#clip0_734_55236)">
<g clip-path="url(#clip1_734_55236)">
<path d="M0.559139 9.72503C3.04325 8.99791 9.58569 7.79498 12.3063 14.1903C12.3924 14.3898 12.6341 14.4517 12.8085 14.3249C14.4101 13.154 21.3452 8.8599 26.5736 17.7298C26.6756 17.9013 26.8957 17.9516 27.0564 17.8311C28.37 16.8645 33.8743 13.3905 39.3043 18.3447C39.552 18.5707 39.942 18.3241 39.8614 17.9887C38.9706 14.2416 35.2449 2.49255 23.2519 0.538471C9.81899 -1.65348 3.5881 4.52433 0.204058 9.17316C0.0068298 9.44425 0.246912 9.81511 0.559139 9.72503Z" fill="#174E7F"/>
<path d="M12.3247 33.4157C11.248 33.1543 10.0144 32.2553 8.76222 30.0981C8.59411 29.8085 8.68696 29.426 8.96913 29.2457C9.2513 29.0654 9.61787 29.1544 9.78598 29.444C11.1187 31.7354 12.4649 32.6363 13.7944 32.1202C14.5572 31.8237 15.142 31.114 15.3613 30.2231L19.9431 11.6361C20.0236 11.3047 20.3484 11.0997 20.6659 11.1768C20.9834 11.2538 21.1774 11.588 21.0934 11.9216L16.5116 30.5087C16.1921 31.7995 15.3232 32.8357 14.1889 33.2781C13.6626 33.482 13.0261 33.5859 12.3218 33.415L12.3247 33.4157Z" fill="#174E7F"/>
</g>
<path d="M8.67199 30.1622C8.96414 30.2995 9.10511 30.6809 8.98236 31.0099L8.51493 32.2764C8.39272 32.6055 8.05448 32.7631 7.76341 32.6253C7.46966 32.4891 7.33029 32.1077 7.4525 31.777L7.91886 30.5132C8.04161 30.1825 8.37824 30.0265 8.67199 30.1622ZM7.72964 31.9084C7.67121 32.0655 7.73768 32.2476 7.87758 32.3133C8.0191 32.3801 8.17884 32.3042 8.23834 32.1456L8.70416 30.8801C8.76312 30.722 8.69612 30.5404 8.55675 30.4752C8.41577 30.4095 8.25549 30.4843 8.19706 30.6414L7.72964 31.9084Z" fill="#F9A11E"/>
<path d="M35.2791 30.5138L35.7465 31.7798C35.8692 32.1105 35.7293 32.4892 35.4361 32.627C35.1434 32.7643 34.8057 32.6072 34.6846 32.2782L34.2166 31.0117C34.0955 30.681 34.2343 30.3023 34.5275 30.165C34.8213 30.0277 35.1574 30.1842 35.2796 30.5138M35.003 30.6447C34.9435 30.486 34.7838 30.4118 34.6433 30.4775C34.5029 30.5437 34.4364 30.7243 34.4943 30.8824L34.9617 32.1478C35.0202 32.3076 35.1804 32.3807 35.3214 32.3156C35.4608 32.2488 35.5278 32.0688 35.4699 31.9117L35.0025 30.6452L35.003 30.6447Z" fill="#F9A11E"/>
<path d="M8.21582 34.9708C8.21582 37.1197 9.76229 38.8611 11.6701 38.8611H31.4971C33.4048 38.8611 34.9502 37.1197 34.9502 34.9708V30.0778C34.9502 27.9299 33.4048 26.1885 31.4971 26.1885H11.6701C9.76229 26.1885 8.21582 27.9304 8.21582 30.0778V34.9708Z" fill="#E36A5E"/>
<g opacity="0.2">
<path d="M8.66992 29.9938C8.7112 28.1675 10.039 26.6953 11.6685 26.6953H31.4966C33.1278 26.6953 34.455 28.1675 34.4952 29.9938H8.66992Z" fill="white"/>
</g>
<path d="M25.8467 30.6563L25.9158 30.0837H25.8574V29.7402H26.1367V30.0837H26.0782L26.1469 30.6563H25.8467Z" fill="#545460"/>
<path d="M26.1178 30.0544V29.7734H25.875L26.1178 30.0544Z" fill="#D7D7D8"/>
<path d="M8.21968 32.0005V36.9571C8.21968 37.9838 8.95941 38.8165 9.87068 38.8165H33.2983C34.2095 38.8165 34.9493 37.9838 34.9493 36.9566V32H35.4505L36.0005 36.955C36.0005 38.6339 34.7874 40.0003 33.2983 40.0003H9.87068C8.38156 40.0003 7.16797 38.6333 7.16797 36.955L7.71902 32H8.21914L8.21968 32.0005Z" fill="#282538"/>
<path d="M26.6432 26L23.5653 33.5003C23.4929 33.5612 23.2614 33.6744 22.9681 33.6744H20.1952C19.9031 33.6744 19.672 33.5612 19.5997 33.5003L16.5212 26H14.957L17.9385 32.9864C18.1717 33.5302 19.0808 33.9223 19.9985 33.9223H23.1654C24.0831 33.9223 24.9938 33.5302 25.2265 32.9864L28.2079 26H26.6432Z" fill="#282538"/>
</g>
<defs>
<clipPath id="clip0_734_55236">
<rect width="40" height="40" fill="white"/>
</clipPath>
<clipPath id="clip1_734_55236">
<rect width="40.689" height="34.5856" fill="white" transform="translate(3.4502 -4.32812) rotate(13.6431)"/>
</clipPath>
</defs>
</svg>
