<svg width="14" height="14" viewBox="0 0 14 14" fill="none" xmlns="http://www.w3.org/2000/svg">
<path d="M9.55406 6.98895C9.55406 7.14918 9.53404 7.3094 9.51401 7.4496C9.43389 7.89023 9.23361 8.29081 8.95321 8.63129C8.49255 9.19209 7.79155 9.53258 7.01043 9.53258C6.22931 9.53258 5.52831 9.17207 5.06766 8.63129C4.78725 8.29081 4.58697 7.89023 4.50685 7.4496C4.48682 7.28938 4.4668 7.14918 4.4668 6.98895C4.4668 6.20783 4.80728 5.50683 5.36808 5.04617C5.80871 4.66563 6.38954 4.44531 7.01043 4.44531C7.63132 4.44531 8.21215 4.66563 8.65278 5.04617C9.19355 5.52686 9.55406 6.22786 9.55406 6.98895Z" fill="white"/>
<path d="M1.20117 1.20117V12.7977H12.7977V1.20117H1.20117ZM11.596 11.596H2.40289V2.40289H11.596V11.596Z" fill="white"/>
<path d="M0 0V14H14V0H0ZM11.5966 11.5966H2.40343V2.40343H11.5966V11.5966Z" fill="#00B00C"/>
<path d="M9.55406 6.98895C9.55406 7.14918 9.53404 7.3094 9.51401 7.4496C9.43389 7.89023 9.23361 8.29081 8.95321 8.63129C8.49255 9.19209 7.79155 9.53258 7.01043 9.53258C6.22931 9.53258 5.52831 9.17207 5.06766 8.63129C4.78725 8.29081 4.58697 7.89023 4.50685 7.4496C4.48682 7.28938 4.4668 7.14918 4.4668 6.98895C4.4668 6.20783 4.80728 5.50683 5.36808 5.04617C5.80871 4.66563 6.38954 4.44531 7.01043 4.44531C7.63132 4.44531 8.21215 4.66563 8.65278 5.04617C9.19355 5.52686 9.55406 6.22786 9.55406 6.98895Z" fill="#00B00C"/>
</svg>
