<svg width="23" height="23" viewBox="0 0 23 23" fill="none" xmlns="http://www.w3.org/2000/svg">
<g clip-path="url(#clip0_2_31545)">
<path d="M19.6832 6.92397C19.3919 6.92397 19.1552 6.68725 19.1552 6.39597V5.25197C19.1552 4.96069 18.9238 4.72397 18.6387 4.72397H4.27178C3.98666 4.72397 3.75522 4.96069 3.75522 5.25197V6.39597C3.75522 6.68725 3.5185 6.92397 3.22722 6.92397C2.93594 6.92397 2.69922 6.68725 2.69922 6.39597V5.25197C2.69922 4.37813 3.40498 3.66797 4.27178 3.66797H18.6387C19.5063 3.66797 20.2112 4.37813 20.2112 5.25197V6.39597C20.2112 6.68725 19.9745 6.92397 19.6832 6.92397Z" fill="#46B173"/>
<path d="M20.9081 19.2432H2.00392C1.17496 19.2432 0.5 18.5682 0.5 17.7393V7.37111C0.5 6.54215 1.17496 5.86719 2.00392 5.86719H20.9081C21.737 5.86719 22.412 6.54215 22.412 7.37111V17.7401C22.412 18.5691 21.737 19.2441 20.9081 19.2441V19.2432ZM2.00392 6.92319C1.75664 6.92319 1.556 7.12383 1.556 7.37111V17.7401C1.556 17.9874 1.75664 18.1881 2.00392 18.1881H20.9081C21.1554 18.1881 21.356 17.9874 21.356 17.7401V7.37111C21.356 7.12383 21.1554 6.92319 20.9081 6.92319H2.00392Z" fill="#174E7F"/>
<path d="M21.8846 15.5205H17.2153C15.5196 15.5205 14.1406 14.1416 14.1406 12.4458C14.1406 10.7501 15.5196 9.37109 17.2153 9.37109H21.8846C22.1759 9.37109 22.4126 9.60781 22.4126 9.89909C22.4126 10.1904 22.1759 10.4271 21.8846 10.4271H17.2153C16.1021 10.4271 15.1966 11.3326 15.1966 12.4458C15.1966 13.559 16.1021 14.4645 17.2153 14.4645H21.8846C22.1759 14.4645 22.4126 14.7013 22.4126 14.9925C22.4126 15.2838 22.1759 15.5205 21.8846 15.5205Z" fill="#174E7F"/>
<path d="M17.5046 13.81C16.7522 13.81 16.1406 13.1984 16.1406 12.446C16.1406 11.6936 16.7522 11.082 17.5046 11.082C18.257 11.082 18.8686 11.6936 18.8686 12.446C18.8686 13.1984 18.257 13.81 17.5046 13.81ZM17.5046 11.962C17.238 11.962 17.0206 12.1794 17.0206 12.446C17.0206 12.7127 17.238 12.93 17.5046 12.93C17.7713 12.93 17.9886 12.7127 17.9886 12.446C17.9886 12.1794 17.7713 11.962 17.5046 11.962Z" fill="#174E7F"/>
</g>
<defs>
<clipPath id="clip0_2_31545">
<rect width="22" height="22" fill="white" transform="translate(0.5 0.5)"/>
</clipPath>
</defs>
</svg>
