<svg width="14" height="14" viewBox="0 0 14 14" fill="none" xmlns="http://www.w3.org/2000/svg">
<circle cx="7" cy="7" r="6.625" fill="#F48D42" stroke="white" stroke-width="0.75"/>
<path d="M6.19531 10.0112C6.19531 10.1685 6.24095 10.3223 6.32645 10.4531C6.41195 10.5839 6.53347 10.6859 6.67564 10.7461C6.81781 10.8062 6.97423 10.8219 7.12513 10.7912C7.27603 10.7604 7.41461 10.6846 7.52335 10.5733C7.6321 10.4619 7.70611 10.3202 7.73602 10.1658C7.76594 10.0115 7.75042 9.85153 7.69142 9.70621C7.63243 9.5609 7.53261 9.43674 7.4046 9.34945C7.27658 9.26216 7.12613 9.21565 6.97226 9.21582C6.87016 9.21582 6.76906 9.2364 6.67475 9.27638C6.58043 9.31636 6.49474 9.37496 6.42258 9.44882C6.35043 9.52269 6.29321 9.61037 6.25422 9.70687C6.21522 9.80336 6.1952 9.90676 6.19531 10.0112Z" fill="white"/>
<rect x="6.29297" y="2.52539" width="1.36111" height="5.44444" rx="0.680556" fill="white"/>
</svg>
