<svg width="18" height="18" viewBox="0 0 18 18" fill="none" xmlns="http://www.w3.org/2000/svg">
<g clip-path="url(#clip0_732_45429)">
<g clip-path="url(#clip1_732_45429)">
<path d="M15.4546 17.0137H2.49211C1.66913 17.0137 1 16.345 1 15.5226V3.46765C1 2.64524 1.66913 1.97656 2.49211 1.97656H15.4546C16.2775 1.97656 16.9467 2.64524 16.9467 3.46765V15.5226C16.9467 16.345 16.2775 17.0137 15.4546 17.0137ZM2.49211 3.22643C2.35891 3.22643 2.25072 3.33454 2.25072 3.46765V15.5226C2.25072 15.6557 2.35891 15.7639 2.49211 15.7639H15.4546C15.5878 15.7639 15.6959 15.6557 15.6959 15.5226V3.46765C15.6959 3.33454 15.5878 3.22643 15.4546 3.22643H2.49211Z" fill="#545454"/>
<path d="M5.21478 4.28017C4.86335 4.28017 4.57812 3.995 4.57812 3.64362V1.58186C4.57812 1.23048 4.86335 0.945312 5.21478 0.945312C5.56621 0.945312 5.85143 1.23048 5.85143 1.58186V3.64362C5.85143 3.995 5.56621 4.28017 5.21478 4.28017Z" fill="#545454"/>
<path d="M12.4579 4.28017C12.1232 4.28017 11.8516 3.995 11.8516 3.64362V1.58186C11.8516 1.23048 12.1232 0.945312 12.4579 0.945312C12.7926 0.945312 13.0642 1.23048 13.0642 1.58186V3.64362C13.0642 3.995 12.7926 4.28017 12.4579 4.28017Z" fill="#545454"/>
<path d="M15.8343 6.82596H2.11101C1.76511 6.82596 1.48438 6.55432 1.48438 6.21962C1.48438 5.88492 1.76511 5.61328 2.11101 5.61328H15.8343C16.1802 5.61328 16.4609 5.88492 16.4609 6.21962C16.4609 6.55432 16.1802 6.82596 15.8343 6.82596Z" fill="#545454"/>
</g>
</g>
<defs>
<clipPath id="clip0_732_45429">
<rect width="18" height="18" fill="white"/>
</clipPath>
<clipPath id="clip1_732_45429">
<rect width="16" height="16" fill="white" transform="translate(1 1)"/>
</clipPath>
</defs>
</svg>
