<svg width="24" height="24" viewBox="0 0 24 24" fill="none" xmlns="http://www.w3.org/2000/svg">
<ellipse cx="12" cy="12" rx="12" ry="12" fill="#EDF7FF"/>
<g clip-path="url(#clip0_22368_8972)">
<path d="M15.6097 13.5933C15.5933 13.5687 15.5029 13.5276 15.4208 13.4866C15.3879 13.4702 15.3551 13.4537 15.3222 13.4373C15.125 13.3388 14.2707 12.9283 14.1228 12.8708C14.0653 12.8544 14.0078 12.8297 13.9749 12.8297C13.9585 12.8297 13.9256 12.8297 13.8681 12.9118C13.7449 13.0925 13.4081 13.4948 13.293 13.618C13.2109 13.7165 13.1123 13.7575 13.0055 13.7575C12.9316 13.7575 12.8494 13.7329 12.759 13.6919C12.7344 13.6754 12.6933 13.659 12.644 13.6344C12.3976 13.5276 11.88 13.306 11.3049 12.7969C10.7627 12.3125 10.3931 11.7131 10.2863 11.5489C10.1302 11.2862 10.2945 11.1219 10.3766 11.0316C10.4259 10.9824 10.4834 10.9085 10.5491 10.8346C10.582 10.7935 10.6149 10.7607 10.6395 10.7278C10.7052 10.6539 10.7299 10.5965 10.7792 10.5062L10.8038 10.4569C10.8367 10.3994 10.8285 10.3419 10.7874 10.2598C10.7627 10.2024 10.6395 9.91499 10.4588 9.47162C10.3766 9.26635 10.2945 9.0693 10.237 8.94614C10.1466 8.72446 10.0727 8.72446 10.0398 8.72446C10.0234 8.72446 10.0152 8.72446 9.99872 8.72446C9.98229 8.72446 9.96586 8.72446 9.94943 8.72446C9.89192 8.72446 9.84263 8.72446 9.78512 8.71625C9.72762 8.71625 9.67011 8.70804 9.6126 8.70804C9.54688 8.70804 9.38258 8.72446 9.22649 8.88867C9.21827 8.89688 9.20184 8.9133 9.18541 8.92972C9.00467 9.11856 8.63499 9.51267 8.63499 10.2763C8.63499 11.0398 9.16898 11.8116 9.33328 12.0251C9.3415 12.0333 9.35793 12.0579 9.38258 12.0908C10.2287 13.3306 11.2721 14.242 12.3236 14.6525C13.1862 14.9891 13.7284 15.1451 14.016 15.1451C14.1063 15.1451 14.1721 15.1287 14.2378 15.1123C14.2871 15.1041 14.3364 15.0876 14.4021 15.0794C14.6814 15.0548 15.3633 14.6853 15.4947 14.3241C15.6262 13.9628 15.6262 13.659 15.6097 13.5933ZM15.6097 13.5933C15.5933 13.5687 15.5029 13.5276 15.4208 13.4866C15.3879 13.4702 15.3551 13.4537 15.3222 13.4373C15.125 13.3388 14.2707 12.9283 14.1228 12.8708C14.0653 12.8544 14.0078 12.8297 13.9749 12.8297C13.9585 12.8297 13.9256 12.8297 13.8681 12.9118C13.7449 13.0925 13.4081 13.4948 13.293 13.618C13.2109 13.7165 13.1123 13.7575 13.0055 13.7575C12.9316 13.7575 12.8494 13.7329 12.759 13.6919C12.7344 13.6754 12.6933 13.659 12.644 13.6344C12.3976 13.5276 11.88 13.306 11.3049 12.7969C10.7627 12.3125 10.3931 11.7131 10.2863 11.5489C10.1302 11.2862 10.2945 11.1219 10.3766 11.0316C10.4259 10.9824 10.4834 10.9085 10.5491 10.8346C10.582 10.7935 10.6149 10.7607 10.6395 10.7278C10.7052 10.6539 10.7299 10.5965 10.7792 10.5062L10.8038 10.4569C10.8367 10.3994 10.8285 10.3419 10.7874 10.2598C10.7627 10.2024 10.6395 9.91499 10.4588 9.47162C10.3766 9.26635 10.2945 9.0693 10.237 8.94614C10.1466 8.72446 10.0727 8.72446 10.0398 8.72446C10.0234 8.72446 10.0152 8.72446 9.99872 8.72446C9.98229 8.72446 9.96586 8.72446 9.94943 8.72446C9.89192 8.72446 9.84263 8.72446 9.78512 8.71625C9.72762 8.71625 9.67011 8.70804 9.6126 8.70804C9.54688 8.70804 9.38258 8.72446 9.22649 8.88867C9.21827 8.89688 9.20184 8.9133 9.18541 8.92972C9.00467 9.11856 8.63499 9.51267 8.63499 10.2763C8.63499 11.0398 9.16898 11.8116 9.33328 12.0251C9.3415 12.0333 9.35793 12.0579 9.38258 12.0908C10.2287 13.3306 11.2721 14.242 12.3236 14.6525C13.1862 14.9891 13.7284 15.1451 14.016 15.1451C14.1063 15.1451 14.1721 15.1287 14.2378 15.1123C14.2871 15.1041 14.3364 15.0876 14.4021 15.0794C14.6814 15.0548 15.3633 14.6853 15.4947 14.3241C15.6262 13.9628 15.6262 13.659 15.6097 13.5933ZM15.6097 13.5933C15.5933 13.5687 15.5029 13.5276 15.4208 13.4866C15.3879 13.4702 15.3551 13.4537 15.3222 13.4373C15.125 13.3388 14.2707 12.9283 14.1228 12.8708C14.0653 12.8544 14.0078 12.8297 13.9749 12.8297C13.9585 12.8297 13.9256 12.8297 13.8681 12.9118C13.7449 13.0925 13.4081 13.4948 13.293 13.618C13.2109 13.7165 13.1123 13.7575 13.0055 13.7575C12.9316 13.7575 12.8494 13.7329 12.759 13.6919C12.7344 13.6754 12.6933 13.659 12.644 13.6344C12.3976 13.5276 11.88 13.306 11.3049 12.7969C10.7627 12.3125 10.3931 11.7131 10.2863 11.5489C10.1302 11.2862 10.2945 11.1219 10.3766 11.0316C10.4259 10.9824 10.4834 10.9085 10.5491 10.8346C10.582 10.7935 10.6149 10.7607 10.6395 10.7278C10.7052 10.6539 10.7299 10.5965 10.7792 10.5062L10.8038 10.4569C10.8367 10.3994 10.8285 10.3419 10.7874 10.2598C10.7627 10.2024 10.6395 9.91499 10.4588 9.47162C10.3766 9.26635 10.2945 9.0693 10.237 8.94614C10.1466 8.72446 10.0727 8.72446 10.0398 8.72446C10.0234 8.72446 10.0152 8.72446 9.99872 8.72446C9.98229 8.72446 9.96586 8.72446 9.94943 8.72446C9.89192 8.72446 9.84263 8.72446 9.78512 8.71625C9.72762 8.71625 9.67011 8.70804 9.6126 8.70804C9.54688 8.70804 9.38258 8.72446 9.22649 8.88867C9.21827 8.89688 9.20184 8.9133 9.18541 8.92972C9.00467 9.11856 8.63499 9.51267 8.63499 10.2763C8.63499 11.0398 9.16898 11.8116 9.33328 12.0251C9.3415 12.0333 9.35793 12.0579 9.38258 12.0908C10.2287 13.3306 11.2721 14.242 12.3236 14.6525C13.1862 14.9891 13.7284 15.1451 14.016 15.1451C14.1063 15.1451 14.1721 15.1287 14.2378 15.1123C14.2871 15.1041 14.3364 15.0876 14.4021 15.0794C14.6814 15.0548 15.3633 14.6853 15.4947 14.3241C15.6262 13.9628 15.6262 13.659 15.6097 13.5933ZM15.6097 13.5933C15.5933 13.5687 15.5029 13.5276 15.4208 13.4866C15.3879 13.4702 15.3551 13.4537 15.3222 13.4373C15.125 13.3388 14.2707 12.9283 14.1228 12.8708C14.0653 12.8544 14.0078 12.8297 13.9749 12.8297C13.9585 12.8297 13.9256 12.8297 13.8681 12.9118C13.7449 13.0925 13.4081 13.4948 13.293 13.618C13.2109 13.7165 13.1123 13.7575 13.0055 13.7575C12.9316 13.7575 12.8494 13.7329 12.759 13.6919C12.7344 13.6754 12.6933 13.659 12.644 13.6344C12.3976 13.5276 11.88 13.306 11.3049 12.7969C10.7627 12.3125 10.3931 11.7131 10.2863 11.5489C10.1302 11.2862 10.2945 11.1219 10.3766 11.0316C10.4259 10.9824 10.4834 10.9085 10.5491 10.8346C10.582 10.7935 10.6149 10.7607 10.6395 10.7278C10.7052 10.6539 10.7299 10.5965 10.7792 10.5062L10.8038 10.4569C10.8367 10.3994 10.8285 10.3419 10.7874 10.2598C10.7627 10.2024 10.6395 9.91499 10.4588 9.47162C10.3766 9.26635 10.2945 9.0693 10.237 8.94614C10.1466 8.72446 10.0727 8.72446 10.0398 8.72446C10.0234 8.72446 10.0152 8.72446 9.99872 8.72446C9.98229 8.72446 9.96586 8.72446 9.94943 8.72446C9.89192 8.72446 9.84263 8.72446 9.78512 8.71625C9.72762 8.71625 9.67011 8.70804 9.6126 8.70804C9.54688 8.70804 9.38258 8.72446 9.22649 8.88867C9.21827 8.89688 9.20184 8.9133 9.18541 8.92972C9.00467 9.11856 8.63499 9.51267 8.63499 10.2763C8.63499 11.0398 9.16898 11.8116 9.33328 12.0251C9.3415 12.0333 9.35793 12.0579 9.38258 12.0908C10.2287 13.3306 11.2721 14.242 12.3236 14.6525C13.1862 14.9891 13.7284 15.1451 14.016 15.1451C14.1063 15.1451 14.1721 15.1287 14.2378 15.1123C14.2871 15.1041 14.3364 15.0876 14.4021 15.0794C14.6814 15.0548 15.3633 14.6853 15.4947 14.3241C15.6262 13.9628 15.6262 13.659 15.6097 13.5933ZM12.0525 4.7998C8.11743 4.7998 4.91348 7.97729 4.91348 11.8773C4.91348 13.1664 5.26673 14.4308 5.94038 15.531L5.97324 15.5803L5.95681 15.6378L4.80668 19.0369C4.77382 19.1355 4.86419 19.2258 4.96277 19.1929L8.51176 18.0681L8.56105 18.0517L8.61034 18.0763C9.66189 18.651 10.8531 18.9548 12.0607 18.9548C15.9959 18.9548 19.1998 15.7773 19.1998 11.8773C19.1834 7.97729 15.9876 4.7998 12.0525 4.7998ZM12.0525 18.0517C10.8695 18.0517 9.7194 17.7232 8.72536 17.091C8.69249 17.0746 8.65963 17.0664 8.61856 17.0746L6.38401 17.7807C6.28542 17.8136 6.19506 17.715 6.22792 17.6247L6.95086 15.4982C6.96729 15.4571 6.95908 15.4243 6.93443 15.3914C6.20327 14.3569 5.82537 13.1417 5.82537 11.8773C5.82537 8.46993 8.61856 5.70297 12.0525 5.70297C13.712 5.70297 15.2729 6.34339 16.4559 7.50929C17.6307 8.67519 18.2797 10.227 18.2797 11.8691C18.2715 15.2765 15.4783 18.0517 12.0525 18.0517ZM15.4208 13.4866C15.3879 13.4702 15.3551 13.4537 15.3222 13.4373C15.125 13.3388 14.2707 12.9283 14.1228 12.8708C14.0653 12.8544 14.0078 12.8297 13.9749 12.8297C13.9585 12.8297 13.9256 12.8297 13.8681 12.9118C13.7449 13.0925 13.4081 13.4948 13.293 13.618C13.2109 13.7165 13.1123 13.7575 13.0055 13.7575C12.9316 13.7575 12.8494 13.7329 12.759 13.6919C12.7344 13.6754 12.6933 13.659 12.644 13.6344C12.3976 13.5276 11.88 13.306 11.3049 12.7969C10.7627 12.3125 10.3931 11.7131 10.2863 11.5489C10.1302 11.2862 10.2945 11.1219 10.3766 11.0316C10.4259 10.9824 10.4834 10.9085 10.5491 10.8346C10.582 10.7935 10.6149 10.7607 10.6395 10.7278C10.7052 10.6539 10.7299 10.5965 10.7792 10.5062L10.8038 10.4569C10.8367 10.3994 10.8285 10.3419 10.7874 10.2598C10.7627 10.2024 10.6395 9.91499 10.4588 9.47162C10.3766 9.26635 10.2945 9.0693 10.237 8.94614C10.1466 8.72446 10.0727 8.72446 10.0398 8.72446C10.0234 8.72446 10.0152 8.72446 9.99872 8.72446C9.98229 8.72446 9.96586 8.72446 9.94943 8.72446C9.89192 8.72446 9.84263 8.72446 9.78512 8.71625C9.72762 8.71625 9.67011 8.70804 9.6126 8.70804C9.54688 8.70804 9.38258 8.72446 9.22649 8.88867C9.21827 8.89688 9.20184 8.9133 9.18541 8.92972C9.00467 9.11856 8.63499 9.51267 8.63499 10.2763C8.63499 11.0398 9.16898 11.8116 9.33328 12.0251C9.3415 12.0333 9.35793 12.0579 9.38258 12.0908C10.2287 13.3306 11.2721 14.242 12.3236 14.6525C13.1862 14.9891 13.7284 15.1451 14.016 15.1451C14.1063 15.1451 14.1721 15.1287 14.2378 15.1123C14.2871 15.1041 14.3364 15.0876 14.4021 15.0794C14.6814 15.0548 15.3633 14.6853 15.4947 14.3241C15.6262 13.9546 15.6262 13.6508 15.6097 13.5851C15.5851 13.5687 15.5029 13.5276 15.4208 13.4866ZM15.6097 13.5933C15.5933 13.5687 15.5029 13.5276 15.4208 13.4866C15.3879 13.4702 15.3551 13.4537 15.3222 13.4373C15.125 13.3388 14.2707 12.9283 14.1228 12.8708C14.0653 12.8544 14.0078 12.8297 13.9749 12.8297C13.9585 12.8297 13.9256 12.8297 13.8681 12.9118C13.7449 13.0925 13.4081 13.4948 13.293 13.618C13.2109 13.7165 13.1123 13.7575 13.0055 13.7575C12.9316 13.7575 12.8494 13.7329 12.759 13.6919C12.7344 13.6754 12.6933 13.659 12.644 13.6344C12.3976 13.5276 11.88 13.306 11.3049 12.7969C10.7627 12.3125 10.3931 11.7131 10.2863 11.5489C10.1302 11.2862 10.2945 11.1219 10.3766 11.0316C10.4259 10.9824 10.4834 10.9085 10.5491 10.8346C10.582 10.7935 10.6149 10.7607 10.6395 10.7278C10.7052 10.6539 10.7299 10.5965 10.7792 10.5062L10.8038 10.4569C10.8367 10.3994 10.8285 10.3419 10.7874 10.2598C10.7627 10.2024 10.6395 9.91499 10.4588 9.47162C10.3766 9.26635 10.2945 9.0693 10.237 8.94614C10.1466 8.72446 10.0727 8.72446 10.0398 8.72446C10.0234 8.72446 10.0152 8.72446 9.99872 8.72446C9.98229 8.72446 9.96586 8.72446 9.94943 8.72446C9.89192 8.72446 9.84263 8.72446 9.78512 8.71625C9.72762 8.71625 9.67011 8.70804 9.6126 8.70804C9.54688 8.70804 9.38258 8.72446 9.22649 8.88867C9.21827 8.89688 9.20184 8.9133 9.18541 8.92972C9.00467 9.11856 8.63499 9.51267 8.63499 10.2763C8.63499 11.0398 9.16898 11.8116 9.33328 12.0251C9.3415 12.0333 9.35793 12.0579 9.38258 12.0908C10.2287 13.3306 11.2721 14.242 12.3236 14.6525C13.1862 14.9891 13.7284 15.1451 14.016 15.1451C14.1063 15.1451 14.1721 15.1287 14.2378 15.1123C14.2871 15.1041 14.3364 15.0876 14.4021 15.0794C14.6814 15.0548 15.3633 14.6853 15.4947 14.3241C15.6262 13.9628 15.6262 13.659 15.6097 13.5933ZM15.6097 13.5933C15.5933 13.5687 15.5029 13.5276 15.4208 13.4866C15.3879 13.4702 15.3551 13.4537 15.3222 13.4373C15.125 13.3388 14.2707 12.9283 14.1228 12.8708C14.0653 12.8544 14.0078 12.8297 13.9749 12.8297C13.9585 12.8297 13.9256 12.8297 13.8681 12.9118C13.7449 13.0925 13.4081 13.4948 13.293 13.618C13.2109 13.7165 13.1123 13.7575 13.0055 13.7575C12.9316 13.7575 12.8494 13.7329 12.759 13.6919C12.7344 13.6754 12.6933 13.659 12.644 13.6344C12.3976 13.5276 11.88 13.306 11.3049 12.7969C10.7627 12.3125 10.3931 11.7131 10.2863 11.5489C10.1302 11.2862 10.2945 11.1219 10.3766 11.0316C10.4259 10.9824 10.4834 10.9085 10.5491 10.8346C10.582 10.7935 10.6149 10.7607 10.6395 10.7278C10.7052 10.6539 10.7299 10.5965 10.7792 10.5062L10.8038 10.4569C10.8367 10.3994 10.8285 10.3419 10.7874 10.2598C10.7627 10.2024 10.6395 9.91499 10.4588 9.47162C10.3766 9.26635 10.2945 9.0693 10.237 8.94614C10.1466 8.72446 10.0727 8.72446 10.0398 8.72446C10.0234 8.72446 10.0152 8.72446 9.99872 8.72446C9.98229 8.72446 9.96586 8.72446 9.94943 8.72446C9.89192 8.72446 9.84263 8.72446 9.78512 8.71625C9.72762 8.71625 9.67011 8.70804 9.6126 8.70804C9.54688 8.70804 9.38258 8.72446 9.22649 8.88867C9.21827 8.89688 9.20184 8.9133 9.18541 8.92972C9.00467 9.11856 8.63499 9.51267 8.63499 10.2763C8.63499 11.0398 9.16898 11.8116 9.33328 12.0251C9.3415 12.0333 9.35793 12.0579 9.38258 12.0908C10.2287 13.3306 11.2721 14.242 12.3236 14.6525C13.1862 14.9891 13.7284 15.1451 14.016 15.1451C14.1063 15.1451 14.1721 15.1287 14.2378 15.1123C14.2871 15.1041 14.3364 15.0876 14.4021 15.0794C14.6814 15.0548 15.3633 14.6853 15.4947 14.3241C15.6262 13.9628 15.6262 13.659 15.6097 13.5933Z" fill="#1E54B0"/>
</g>
<defs>
<clipPath id="clip0_22368_8972">
<rect width="14.4" height="14.4" fill="white" transform="translate(4.7998 4.7998)"/>
</clipPath>
</defs>
</svg>
