<svg width="34" height="34" viewBox="0 0 34 34" fill="none" xmlns="http://www.w3.org/2000/svg">
<rect width="34" height="34" fill="#F5F5F5"/>
<g clip-path="url(#clip_youtube_icon)">
<rect width="1440" height="6539" transform="translate(-942 -6369)" fill="white"/>
<rect x="-942" y="-136" width="1440" height="306" fill="#0B2235"/>
<circle cx="17" cy="17" r="17" fill="#B5CEE3" fill-opacity="0.3"/>
<circle cx="17" cy="17" r="16.675" stroke="white" stroke-opacity="0.16" stroke-width="0.65"/>
<path d="M24.4593 13.8364C24.4593 12.5083 23.4823 11.4399 22.275 11.4399C20.6398 11.3635 18.972 11.334 17.2677 11.334H16.7363C15.0361 11.334 13.3654 11.3635 11.7302 11.4402C10.5258 11.4402 9.5488 12.5145 9.5488 13.8426C9.47501 14.893 9.44372 15.9436 9.44549 16.9943C9.44254 18.045 9.47599 19.0966 9.54585 20.1492C9.54585 21.4773 10.5229 22.5546 11.7272 22.5546C13.4451 22.6342 15.2073 22.6697 16.999 22.6667C18.7937 22.6726 20.551 22.6352 22.2709 22.5546C23.4782 22.5546 24.4552 21.4773 24.4552 20.1492C24.526 19.0956 24.5585 18.045 24.5556 16.9913C24.5622 15.9407 24.5302 14.889 24.4593 13.8364ZM15.5556 19.8895V14.0902L19.8357 16.9884L15.5556 19.8895Z" fill="white"/>
</g>
<defs>
<clipPath id="clip_youtube_icon">
<rect width="1440" height="6539" fill="white" transform="translate(-942 -6369)"/>
</clipPath>
</defs>
</svg>
